*
*
G04 PADS VX.2.4 Build Number: 11282995 generated Gerber (RS-274-X) file*
G04 PC Version=2.1*
*
%IN "ICE(for8520)-5.pcb"*%
*
%MOIN*%
*
%FSLAX35Y35*%
*
*
*
*
G04 PC Standard Apertures*
*
*
G04 Thermal Relief Aperture macro.*
%AMTER*
1,1,$1,0,0*
1,0,$1-$2,0,0*
21,0,$3,$4,0,0,45*
21,0,$3,$4,0,0,135*
%
*
*
G04 Annular Aperture macro.*
%AMANN*
1,1,$1,0,0*
1,0,$2,0,0*
%
*
*
G04 Odd Aperture macro.*
%AMODD*
1,1,$1,0,0*
1,0,$1-0.005,0,0*
%
*
*
G04 PC Custom Aperture Macros*
*
*
*
*
*
*
G04 PC Aperture Table*
*
%ADD010C,0.001*%
%ADD011C,0.07874*%
%ADD014C,0.06*%
%ADD018R,0.05X0.06*%
%ADD019R,0.06X0.05*%
%ADD020R,0.06X0.06*%
%ADD023C,0.01*%
%ADD034C,0.0315*%
%ADD035R,0.07087X0.07087*%
%ADD036C,0.07087*%
%ADD052C,0.015*%
%ADD079R,0.06102X0.01417*%
%ADD080R,0.09055X0.07874*%
%ADD081R,0.21654X0.07874*%
%ADD087C,0.01417*%
%ADD089C,0.025*%
%ADD090C,0.008*%
%ADD091C,0.014*%
*
*
*
*
G04 PC Circuitry*
G04 Layer Name ICE(for8520)-5.pcb - circuitry*
%LPD*%
*
*
G04 PC Custom Flashes*
G04 Layer Name ICE(for8520)-5.pcb - flashes*
%LPD*%
*
*
G04 PC Circuitry*
G04 Layer Name ICE(for8520)-5.pcb - circuitry*
%LPD*%
*
G54D10*
G54D11*
G01X123000Y110000D03*
X143000D03*
G54D14*
X195000Y235000D03*
Y225000D03*
Y70000D03*
Y60000D03*
G54D18*
X152100Y94700D03*
Y85700D03*
X114300Y94700D03*
Y85700D03*
G54D19*
X149500Y230000D03*
X140500D03*
X134500Y180000D03*
X125500D03*
X149500Y240000D03*
X140500D03*
G54D20*
X195000Y245000D03*
Y80000D03*
G54D23*
X92100Y132900D02*
X98100D01*
Y88400*
X199800*
Y76700*
X92100*
Y132900*
X199700Y220500D02*
X190400D01*
Y239400*
X160500*
Y247900*
X177093*
X177793Y247200*
X199700*
Y220500*
X190200Y87900D02*
Y54100D01*
X199800*
Y87900*
X190200*
X92100Y88399D02*
X199800D01*
X92100Y87499D02*
X199800D01*
X92100Y86599D02*
X199800D01*
X92100Y85699D02*
X199800D01*
X92100Y84799D02*
X199800D01*
X92100Y83899D02*
X199800D01*
X92100Y82999D02*
X199800D01*
X92100Y82099D02*
X199800D01*
X92100Y81199D02*
X199800D01*
X92100Y80299D02*
X199800D01*
X92100Y79399D02*
X199800D01*
X92100Y78499D02*
X199800D01*
X92100Y77599D02*
X199800D01*
X92100Y132499D02*
X98100D01*
X92100Y131599D02*
X98100D01*
X92100Y130699D02*
X98100D01*
X92100Y129799D02*
X98100D01*
X92100Y128899D02*
X98100D01*
X92100Y127999D02*
X98100D01*
X92100Y127099D02*
X98100D01*
X92100Y126199D02*
X98100D01*
X92100Y125299D02*
X98100D01*
X92100Y124399D02*
X98100D01*
X92100Y123499D02*
X98100D01*
X92100Y122599D02*
X98100D01*
X92100Y121699D02*
X98100D01*
X92100Y120799D02*
X98100D01*
X92100Y119899D02*
X98100D01*
X92100Y118999D02*
X98100D01*
X92100Y118099D02*
X98100D01*
X92100Y117199D02*
X98100D01*
X92100Y116299D02*
X98100D01*
X92100Y115399D02*
X98100D01*
X92100Y114499D02*
X98100D01*
X92100Y113599D02*
X98100D01*
X92100Y112699D02*
X98100D01*
X92100Y111799D02*
X98100D01*
X92100Y110899D02*
X98100D01*
X92100Y109999D02*
X98100D01*
X92100Y109099D02*
X98100D01*
X92100Y108199D02*
X98100D01*
X92100Y107299D02*
X98100D01*
X92100Y106399D02*
X98100D01*
X92100Y105499D02*
X98100D01*
X92100Y104599D02*
X98100D01*
X92100Y103699D02*
X98100D01*
X92100Y102799D02*
X98100D01*
X92100Y101899D02*
X98100D01*
X92100Y100999D02*
X98100D01*
X92100Y100099D02*
X98100D01*
X92100Y99199D02*
X98100D01*
X92100Y98299D02*
X98100D01*
X92100Y97399D02*
X98100D01*
X92100Y96499D02*
X98100D01*
X92100Y95599D02*
X98100D01*
X92100Y94699D02*
X98100D01*
X92100Y93799D02*
X98100D01*
X92100Y92899D02*
X98100D01*
X92100Y91999D02*
X98100D01*
X92100Y91099D02*
X98100D01*
X92100Y90199D02*
X98100D01*
X92100Y89299D02*
X98100D01*
X160500Y246599D02*
X199700D01*
X160500Y245699D02*
X199700D01*
X160500Y244799D02*
X199700D01*
X160500Y243899D02*
X199700D01*
X160500Y242999D02*
X199700D01*
X160500Y242099D02*
X199700D01*
X160500Y241199D02*
X199700D01*
X160500Y240299D02*
X199700D01*
X190400Y239399D02*
X199700D01*
X190400Y238499D02*
X199700D01*
X190400Y237599D02*
X199700D01*
X190400Y236699D02*
X199700D01*
X190400Y235799D02*
X199700D01*
X190400Y234899D02*
X199700D01*
X190400Y233999D02*
X199700D01*
X190400Y233099D02*
X199700D01*
X190400Y232199D02*
X199700D01*
X190400Y231299D02*
X199700D01*
X190400Y230399D02*
X199700D01*
X190400Y229499D02*
X199700D01*
X190400Y228599D02*
X199700D01*
X190400Y227699D02*
X199700D01*
X190400Y226799D02*
X199700D01*
X190400Y225899D02*
X199700D01*
X190400Y224999D02*
X199700D01*
X190400Y224099D02*
X199700D01*
X190400Y223199D02*
X199700D01*
X190400Y222299D02*
X199700D01*
X190400Y221399D02*
X199700D01*
X160500Y247499D02*
X177494D01*
X190200Y87399D02*
X199800D01*
X190200Y86499D02*
X199800D01*
X190200Y85599D02*
X199800D01*
X190200Y84699D02*
X199800D01*
X190200Y83799D02*
X199800D01*
X190200Y82899D02*
X199800D01*
X190200Y81999D02*
X199800D01*
X190200Y81099D02*
X199800D01*
X190200Y80199D02*
X199800D01*
X190200Y79299D02*
X199800D01*
X190200Y78399D02*
X199800D01*
X190200Y77499D02*
X199800D01*
X190200Y76599D02*
X199800D01*
X190200Y75699D02*
X199800D01*
X190200Y74799D02*
X199800D01*
X190200Y73899D02*
X199800D01*
X190200Y72999D02*
X199800D01*
X190200Y72099D02*
X199800D01*
X190200Y71199D02*
X199800D01*
X190200Y70299D02*
X199800D01*
X190200Y69399D02*
X199800D01*
X190200Y68499D02*
X199800D01*
X190200Y67599D02*
X199800D01*
X190200Y66699D02*
X199800D01*
X190200Y65799D02*
X199800D01*
X190200Y64899D02*
X199800D01*
X190200Y63999D02*
X199800D01*
X190200Y63099D02*
X199800D01*
X190200Y62199D02*
X199800D01*
X190200Y61299D02*
X199800D01*
X190200Y60399D02*
X199800D01*
X190200Y59499D02*
X199800D01*
X190200Y58599D02*
X199800D01*
X190200Y57699D02*
X199800D01*
X190200Y56799D02*
X199800D01*
X190200Y55899D02*
X199800D01*
X190200Y54999D02*
X199800D01*
X103575Y81200D02*
G75*
G03X103575I-3075J0D01*
G01X203500Y251000D02*
G03X203000Y251500I-500J-0D01*
G01X190924*
G03X190424Y251000I0J-500*
G01X190424*
G03X190431Y250916I500J-0*
G01X190475Y250400D02*
G03X190431Y250916I-3075J-0D01*
G01X190475Y250400D02*
X190475D01*
X190415Y249798D02*
G03X190475Y250400I-3015J602D01*
G01X190415Y249798D02*
G03X190906Y249200I491J-98D01*
G01X190946*
G03X191210Y249275I0J500*
G01X192000Y249500D02*
G03X191210Y249275I0J-1500D01*
G01X192000Y249500D02*
X198000D01*
X198790Y249275D02*
G03X198000Y249500I-790J-1275D01*
G01X198790Y249275D02*
G03X199054Y249200I264J425D01*
G01X199700*
X201700Y247200D02*
G03X199700Y249200I-2000J0D01*
G01X201700Y247200D02*
Y220500D01*
X199700Y218500D02*
G03X201700Y220500I0J2000D01*
G01X199700Y218500D02*
X190400D01*
X188400Y220500D02*
G03X190400Y218500I2000J0D01*
G01X188400Y220500D02*
Y236900D01*
G03X187900Y237400I-500J-0*
G01X160500*
X158500Y239400D02*
G03X160500Y237400I2000J0D01*
G01X158500Y239400D02*
Y247150D01*
G03X158000Y247650I-500J-0*
G01X146005*
G03X145651Y247504I-0J-500*
G01X145303Y247155*
X143358Y246350D02*
G03X145303Y247155I0J2750D01*
G01X143358Y246350D02*
X125589D01*
G03X125381Y246305I-0J-500*
G01X121495Y250734D02*
G03X125381Y246305I2605J-1634D01*
G01X121495Y250734D02*
G03X121572Y251000I-423J266D01*
X121072Y251500I-500J-0*
G01X67300*
G03X66800Y251000I0J-500*
G01Y191961*
G03X67785Y191842I500J0*
G01Y188272D02*
G03Y191842I7240J1785D01*
G01Y188272D02*
G03X66800Y188153I-485J-119D01*
G01Y112797*
G03X67764Y112612I500J0*
G01Y106944D02*
G03Y112612I7110J2834D01*
G01Y106944D02*
G03X66800Y106759I-464J-185D01*
G01Y49000*
G03X67300Y48500I500J0*
G01X203000*
G03X203500Y49000I-0J500*
G01Y251000*
X136374Y164180D02*
G03X135962Y164673I-500J0D01*
G01X135453Y164809D02*
G03X135962Y164673I1047J2891D01*
G01X135453Y164809D02*
G03X135097Y164803I-170J-470D01*
X134880Y165086I-480J-142*
G01X133425Y167700D02*
G03X134880Y165086I3075J0D01*
G01X133451Y168094D02*
G03X133425Y167700I3049J-394D01*
G01X133451Y168094D02*
G03X133455Y168158I-496J64D01*
G01X133455*
G03X132601Y168512I-500J0*
G01X131697Y167608*
G03X131582Y167429I354J-353*
G01X129981Y165705D02*
G03X131582Y167429I-1281J2795D01*
G01X129981Y165705D02*
G03Y164795I208J-455D01*
G01X131060Y163971D02*
G03X129981Y164795I-2360J-1971D01*
G01X131060Y163971D02*
G03X131717Y163873I383J321D01*
G01X134447Y164191D02*
G03X131717Y163873I-1047J-2891D01*
G01X134447Y164191D02*
G03X134803Y164197I170J470D01*
X135020Y163914I480J142*
G01X135464Y163579D02*
G03X135020Y163914I-2064J-2279D01*
G01X135464Y163579D02*
G03X135799Y163450I335J371D01*
G01X135874*
G03X136374Y163950I-0J500*
G01Y164180*
X169957Y185000D02*
G03X172822Y180451I5043J0D01*
G01X169957Y185000D02*
X169957D01*
X169966Y185312D02*
G03X169957Y185000I5034J-312D01*
G01X169966Y185312D02*
G03X169967Y185343I-499J31D01*
X169821Y185697I-500J0*
G01X169614Y185904*
G03X169261Y186050I-353J-354*
G01X142350*
X141400Y186219D02*
G03X142350Y186050I950J2581D01*
G01X141400Y186219D02*
G03X141227Y186250I-173J-469D01*
G01X141015*
G03X140515Y185750I0J-500*
G01X140515*
G03X140524Y185659I500J-0*
G01X140575Y185100D02*
G03X140524Y185659I-3075J0D01*
G01X140575Y185100D02*
X140575D01*
X139220Y182551D02*
G03X140575Y185100I-1720J2549D01*
G01X139220Y182551D02*
G03X139000Y182137I280J-414D01*
G01Y178350*
G03X139500Y177850I500J0*
G01X159880*
X160557Y177765D02*
G03X159880Y177850I-677J-2665D01*
G01X160557Y177765D02*
G03X160680Y177750I123J485D01*
G01X170509*
G03X170914Y177957I0J500*
G01X172822Y179549D02*
G03X170914Y177957I2178J-4549D01*
G01X172822Y179549D02*
G03Y180451I-215J451D01*
G01X151441Y167383D02*
X150120Y168704D01*
G03X149766Y168850I-354J-354*
G01X140015*
G03X139515Y168350I0J-500*
G01X139515*
G03X139524Y168259I500J-0*
G01X139575Y167700D02*
G03X139524Y168259I-3075J0D01*
G01X139575Y167700D02*
X139575D01*
X139383Y166632D02*
G03X139575Y167700I-2883J1068D01*
G01X139384Y166632D02*
G03X139852Y165959I468J-173D01*
G01X143976*
X145476Y164459D02*
G03X143976Y165959I-1500J-0D01*
G01X145476Y164459D02*
Y163234D01*
G03X146189Y162782I500J-0*
G01X147269Y163066D02*
G03X146190Y162782I231J-3066D01*
G01X147269Y163066D02*
G03X147716Y163444I-38J499D01*
G01X150067Y165709D02*
G03X147716Y163444I633J-3009D01*
G01X150067Y165709D02*
G03X150261Y165796I-103J489D01*
G01X151385Y166627*
G03X151441Y167383I-298J402*
G01X170914Y132043D02*
G03X172822Y130451I4086J2957D01*
G01X170914Y132043D02*
G03X170509Y132250I-405J-293D01*
G01X158929*
G03X158519Y131463I-0J-500*
G01X159075Y129700D02*
G03X158519Y131463I-3075J0D01*
G01X158811Y128453D02*
G03X159075Y129700I-2811J1247D01*
G01X158811Y128453D02*
G03X159268Y127750I457J-203D01*
G01X170509*
G03X170914Y127957I0J500*
G01X172822Y129549D02*
G03X170914Y127957I2178J-4549D01*
G01X172822Y129549D02*
G03Y130451I-215J451D01*
G01X194987Y64500D02*
G03X195000I-1J500D01*
X195013I14J500*
G01X194987D02*
G03X195013I13J-4500D01*
G01Y65500D02*
G03X195000I1J-500D01*
X194987I-14J-500*
G01X194982Y74500D02*
G03X194987Y65500I18J-4500D01*
G01X194982Y74500D02*
G03X195000I-2J500D01*
X195018I20J500*
G01X195013Y65500D02*
G03X195018Y74500I-13J4500D01*
G01X199500Y83000D02*
Y77000D01*
X198000Y75500D02*
G03X199500Y77000I0J1500D01*
G01X198000Y75500D02*
X195020D01*
G03X195000I0J-500*
X194980I-20J-500*
G01X192000*
X190500Y77000D02*
G03X192000Y75500I1500J0D01*
G01X190500Y77000D02*
Y83000D01*
X192000Y84500D02*
G03X190500Y83000I0J-1500D01*
G01X192000Y84500D02*
X198000D01*
X199500Y83000D02*
G03X198000Y84500I-1500J0D01*
G01X197050Y188843D02*
Y174300D01*
X196245Y172355D02*
G03X197050Y174300I-1945J1945D01*
G01X196245Y172355D02*
X190120Y166231D01*
G03X189973Y165877I353J-354*
X189980Y165798I500J0*
G01X190043Y165000D02*
G03X189980Y165798I-5043J0D01*
G01X190043Y165000D02*
X190043D01*
X187178Y160451D02*
G03X190043Y165000I-2178J4549D01*
G01X187178Y160451D02*
G03Y159549I215J-451D01*
G01Y150451D02*
G03Y159549I-2178J4549D01*
G01Y150451D02*
G03Y149549I215J-451D01*
G01Y140451D02*
G03Y149549I-2178J4549D01*
G01Y140451D02*
G03Y139549I215J-451D01*
G01X190043Y135000D02*
G03X187178Y139549I-5043J0D01*
G01X190043Y135000D02*
X190043D01*
X189980Y134202D02*
G03X190043Y135000I-4980J798D01*
G01X189980Y134202D02*
G03X189973Y134123I493J-79D01*
X190120Y133769I500J-0*
G01X196238Y127651*
X197043Y125707D02*
G03X196238Y127651I-2750J-0D01*
G01X197043Y125707D02*
Y111151D01*
X196238Y109206D02*
G03X197043Y111151I-1945J1945D01*
G01X196238Y109206D02*
X190687Y103655D01*
X188743Y102850D02*
G03X190687Y103655I-0J2750D01*
G01X188743Y102850D02*
X166600D01*
X164411Y103936D02*
G03X166600Y102850I2189J1664D01*
G01X164411Y103936D02*
G03X164374Y103978I-398J-303D01*
G01X163935Y104566D02*
G03X164374Y103978I2665J1534D01*
G01X163935Y104566D02*
G03X163258Y104753I-433J-250D01*
G01X162528Y104563D02*
G03X163258Y104753I-0J1500D01*
G01X162528Y104563D02*
X155350D01*
G03X154850Y104063I0J-500*
G01Y99554*
G03X155163Y99091I500J0*
G01X156100Y97700D02*
G03X155163Y99091I-1500J0D01*
G01X156100Y97700D02*
Y91700D01*
X155592Y90575D02*
G03X156100Y91700I-992J1125D01*
G01X155592Y90575D02*
G03Y89825I331J-375D01*
G01X156100Y88700D02*
G03X155592Y89825I-1500J0D01*
G01X156100Y88700D02*
Y82700D01*
X154600Y81200D02*
G03X156100Y82700I0J1500D01*
G01X154600Y81200D02*
X149600D01*
X148100Y82700D02*
G03X149600Y81200I1500J0D01*
G01X148100Y82700D02*
Y88700D01*
X148608Y89825D02*
G03X148100Y88700I992J-1125D01*
G01X148608Y89825D02*
G03Y90575I-331J375D01*
G01X148100Y91700D02*
G03X148608Y90575I1500J0D01*
G01X148100Y91700D02*
Y96031D01*
G03X147628Y96530I-500J-0*
G01X146519Y96805D02*
G03X147628Y96530I1281J2795D01*
G01X146519Y96805D02*
G03X146311Y96850I-208J-455D01*
G01X142900*
X140955Y97655D02*
G03X142900Y96850I1945J1945D01*
G01X140955Y97655D02*
X129213Y109398D01*
G03X128366Y109125I-353J-354*
G01X126748Y106061D02*
G03X128366Y109125I-3748J3939D01*
G01X126748Y106061D02*
G03X126601Y105790I345J-362D01*
G01X125126Y104563D02*
G03X126601Y105790I-0J1500D01*
G01X125126Y104563D02*
X117550D01*
G03X117050Y104063I-0J-500*
G01Y99554*
G03X117362Y99091I500J0*
G01X118300Y97700D02*
G03X117362Y99091I-1500J0D01*
G01X118300Y97700D02*
Y91700D01*
X117792Y90575D02*
G03X118300Y91700I-992J1125D01*
G01X117792Y90575D02*
G03Y89825I331J-375D01*
G01X118300Y88700D02*
G03X117792Y89825I-1500J0D01*
G01X118300Y88700D02*
Y82700D01*
X116800Y81200D02*
G03X118300Y82700I0J1500D01*
G01X116800Y81200D02*
X111800D01*
X110300Y82700D02*
G03X111800Y81200I1500J0D01*
G01X110300Y82700D02*
Y88700D01*
X110808Y89825D02*
G03X110300Y88700I992J-1125D01*
G01X110808Y89825D02*
G03Y90575I-331J375D01*
G01X110300Y91700D02*
G03X110808Y90575I1500J0D01*
G01X110300Y91700D02*
Y97700D01*
X111237Y99090D02*
G03X110300Y97700I563J-1390D01*
G01X111237Y99090D02*
G03X111550Y99554I-187J464D01*
G01Y104063*
G03X111050Y104563I-500J-0*
G01X103472*
X101972Y106063D02*
G03X103472Y104563I1500J-0D01*
G01X101972Y106063D02*
Y113937D01*
X103472Y115437D02*
G03X101972Y113937I0J-1500D01*
G01X103472Y115437D02*
X113563D01*
G03X114063Y115937I-0J500*
G01Y117500*
X115093Y119646D02*
G03X114063Y117500I1720J-2146D01*
G01X115093Y119646D02*
G03X115133Y119682I-312J390D01*
G01X118289Y120412D02*
G03X115133Y119682I-989J-2912D01*
G01X118289Y120412D02*
G03X118946Y120943I160J473D01*
G01X121638Y124353D02*
G03X118946Y120943I362J-3053D01*
G01X121638Y124353D02*
G03X121579Y125350I-59J497D01*
G01X116189*
G03X115981Y125305I-0J-500*
G01Y130895D02*
G03Y125305I-1281J-2795D01*
G01Y130895D02*
G03X116189Y130850I208J455D01*
G01X123666*
X125610Y130045D02*
G03X123666Y130850I-1944J-1945D01*
G01X125610Y130045D02*
X127758Y127896D01*
G03X128112Y127750I354J354*
G01X152732*
G03X153189Y128453I0J500*
G01X152925Y129700D02*
G03X153189Y128453I3075J0D01*
G01X153481Y131463D02*
G03X152925Y129700I2519J-1763D01*
G01X153481Y131463D02*
G03X153071Y132250I-410J287D01*
G01X152600*
G03X152247Y132104I0J-500*
G01X151399Y131255*
X149454Y130450D02*
G03X151399Y131255I-0J2750D01*
G01X149454Y130450D02*
X137033D01*
X135089Y131255D02*
G03X137033Y130450I1944J1945D01*
G01X135089Y131255D02*
X128055Y138289D01*
X127250Y140233D02*
G03X128055Y138289I2750J0D01*
G01X127250Y140233D02*
Y143304D01*
G03X126477Y143723I-500J-0*
G01X124207Y143283D02*
G03X126477Y143723I593J3017D01*
G01X124207Y143283D02*
G03X123614Y142855I-97J-491D01*
G01X123570Y142635D02*
G03X123614Y142855I-1444J406D01*
G01X123570Y142635D02*
G03X123551Y142500I481J-135D01*
G01X123551*
G03X123570Y142365I500J0*
G01X123626Y141959D02*
G03X123570Y142365I-1500J-0D01*
G01X123626Y141959D02*
Y140541D01*
X123570Y140135D02*
G03X123626Y140541I-1444J406D01*
G01X123570Y140135D02*
G03Y139865I481J-135D01*
G01X123626Y139459D02*
G03X123570Y139865I-1500J-0D01*
G01X123626Y139459D02*
Y138041D01*
X123570Y137635D02*
G03X123626Y138041I-1444J406D01*
G01X123570Y137635D02*
G03Y137365I481J-135D01*
G01X123626Y136959D02*
G03X123570Y137365I-1500J-0D01*
G01X123626Y136959D02*
Y135541D01*
X122126Y134041D02*
G03X123626Y135541I-0J1500D01*
G01X122126Y134041D02*
X116024D01*
X114524Y135541D02*
G03X116024Y134041I1500J0D01*
G01X114524Y135541D02*
Y136959D01*
X114580Y137365D02*
G03X114524Y136959I1444J-406D01*
G01X114580Y137365D02*
G03Y137635I-482J135D01*
G01X114524Y138041D02*
G03X114580Y137635I1500J0D01*
G01X114524Y138041D02*
Y139459D01*
X114529Y139590D02*
G03X114524Y139459I1495J-131D01*
G01X114529Y139590D02*
G03X113796Y140074I-498J43D01*
G01X112500Y139750D02*
G03X113796Y140074I0J2750D01*
G01X112500Y139750D02*
X102500D01*
X100844Y140305D02*
G03X102500Y139750I1656J2195D01*
G01X100844Y140305D02*
G03X100043Y139914I-301J-399D01*
G01X99980Y139202D02*
G03X100043Y139914I-4980J798D01*
G01X99980Y139202D02*
G03X99973Y139123I493J-79D01*
X100120Y138769I500J-0*
G01X100505Y138384*
G03X100645Y138286I353J354*
G01X101413Y137745D02*
G03X100645Y138286I-1944J-1945D01*
G01X101413Y137745D02*
X106045Y133113D01*
X106850Y131169D02*
G03X106045Y133113I-2750J-0D01*
G01X106850Y131169D02*
Y129146D01*
G03X106996Y128793I500J0*
G01X111292Y124497*
G03X111471Y124382I353J354*
G01X107518Y120429D02*
G03X111471Y124382I2882J1071D01*
G01X107518Y120429D02*
G03X107403Y120608I-469J-174D01*
G01X102155Y125855*
X101350Y127800D02*
G03X102155Y125855I2750J-0D01*
G01X101350Y127800D02*
Y129822D01*
G03X101204Y130176I-500J0*
G01X100897Y130483*
G03X100043Y130129I-354J-354*
G01Y126457*
X98543Y124957D02*
G03X100043Y126457I0J1500D01*
G01X98543Y124957D02*
X91457D01*
X89957Y126457D02*
G03X91457Y124957I1500J-0D01*
G01X89957Y126457D02*
Y126704D01*
G03X89055Y127001I-500J-0*
G01X82822Y134549D02*
G03X89055Y127001I2178J-4549D01*
G01X82822Y134549D02*
G03Y135451I-215J451D01*
G01Y144549D02*
G03Y135451I2178J-4549D01*
G01Y144549D02*
G03Y145451I-215J451D01*
G01Y154549D02*
G03Y145451I2178J-4549D01*
G01Y154549D02*
G03Y155451I-215J451D01*
G01Y164549D02*
G03Y155451I2178J-4549D01*
G01Y164549D02*
G03Y165451I-215J451D01*
G01X89549Y172178D02*
G03X82822Y165451I-4549J-2178D01*
G01X89549Y172178D02*
G03X90451I451J215D01*
G01X99086Y172957D02*
G03X90451Y172178I-4086J-2957D01*
G01X99086Y172957D02*
G03X99491Y172750I405J293D01*
G01X105780*
X107049Y172439D02*
G03X105780Y172750I-1269J-2439D01*
G01X107049Y172439D02*
G03X107280Y172383I231J444D01*
G01X113287*
G03X113640Y172529I-0J500*
G01X120854Y179743*
G03X121000Y180096I-354J353*
G01Y182500*
X122500Y184000D02*
G03X121000Y182500I0J-1500D01*
G01X122500Y184000D02*
X125686D01*
G03X126039Y184146I-0J500*
G01X130989Y189096*
G03X131136Y189450I-353J354*
X130636Y189950I-500J-0*
G01X113989*
G03X113781Y189905I-0J-500*
G01Y195495D02*
G03Y189905I-1281J-2795D01*
G01Y195495D02*
G03X113989Y195450I208J455D01*
G01X129045*
G03X129545Y195950I-0J500*
X129398Y196304I-500J0*
G01X127831Y197871*
X127025Y199816D02*
G03X127831Y197871I2750J-0D01*
G01X127025Y199816D02*
Y202984D01*
X127831Y204929D02*
G03X127025Y202984I1944J-1945D01*
G01X127831Y204929D02*
X130146Y207245D01*
X132091Y208050D02*
G03X130146Y207245I-0J-2750D01*
G01X132091Y208050D02*
X151711D01*
G03X151919Y208095I0J500*
G01X156210Y204670D02*
G03X151919Y208095I-3010J630D01*
G01X156210Y204670D02*
G03X156199Y204568I489J-102D01*
X156531Y204097I500J-0*
G01X153896Y198577D02*
G03X156531Y204097I1604J2623D01*
G01X153896Y198577D02*
G03X153635Y198650I-261J-427D01*
G01X151946*
G03X151446Y198150I0J-500*
X151593Y197796I500J-0*
G01X153492Y195897*
G03X153671Y195782I353J354*
G01X155587Y192169D02*
G03X153671Y195782I-2987J731D01*
G01X155587Y192169D02*
G03X156072Y191550I485J-119D01*
G01X161150*
G03X161650Y192050I-0J500*
G01Y213030*
X162158Y214622D02*
G03X161650Y213030I2242J-1592D01*
G01X162158Y214622D02*
G03X162250Y214912I-408J290D01*
G01Y220402*
G03X161750Y220902I-500J-0*
G01X160472*
X158972Y222402D02*
G03X160472Y220902I1500J-0D01*
G01X158972Y222402D02*
Y227305D01*
G03X158826Y227659I-500J0*
G01X154854Y231631*
G03X154000Y231278I-354J-353*
G01Y227500*
X152500Y226000D02*
G03X154000Y227500I0J1500D01*
G01X152500Y226000D02*
X146500D01*
X145375Y226508D02*
G03X146500Y226000I1125J992D01*
G01X145375Y226508D02*
G03X144625I-375J-331D01*
G01X143500Y226000D02*
G03X144625Y226508I0J1500D01*
G01X143500Y226000D02*
X139273D01*
G03X138774Y225514I0J-500*
G01X135528Y228670D02*
G03X138774Y225514I172J-3070D01*
G01X135528Y228670D02*
G03X136000Y229169I-28J499D01*
G01Y232500*
X137500Y234000D02*
G03X136000Y232500I0J-1500D01*
G01X137500Y234000D02*
X141336D01*
G03X141740Y234796I0J500*
G01X141006Y235796*
G03X140603Y236000I-403J-296*
G01X137500*
X136000Y237500D02*
G03X137500Y236000I1500J0D01*
G01X136000Y237500D02*
Y242500D01*
X137500Y244000D02*
G03X136000Y242500I0J-1500D01*
G01X137500Y244000D02*
X143500D01*
X144625Y243492D02*
G03X143500Y244000I-1125J-992D01*
G01X144625Y243492D02*
G03X145375I375J331D01*
G01X146500Y244000D02*
G03X145375Y243492I0J-1500D01*
G01X146500Y244000D02*
X152500D01*
X154000Y242500D02*
G03X152500Y244000I-1500J0D01*
G01X154000Y242500D02*
Y240470D01*
G03X154146Y240117I500J0*
G01X162341Y231922*
G03X162695Y231776I354J354*
G01X169528*
X171028Y230276D02*
G03X169528Y231776I-1500J-0D01*
G01X171028Y230276D02*
Y222402D01*
X169528Y220902D02*
G03X171028Y222402I-0J1500D01*
G01X169528Y220902D02*
X168250D01*
G03X167750Y220402I0J-500*
G01Y213630*
X167242Y212038D02*
G03X167750Y213630I-2242J1592D01*
G01X167242Y212038D02*
G03X167150Y211749I408J-289D01*
G01Y192050*
G03X167650Y191550I500J0*
G01X170607*
X172552Y190745D02*
G03X170607Y191550I-1945J-1945D01*
G01X172552Y190745D02*
X173278Y190018D01*
G03X173755Y189887I353J354*
G01X179549Y187178D02*
G03X173755Y189887I-4549J-2178D01*
G01X179549Y187178D02*
G03X180451I451J215D01*
G01X183467Y189805D02*
G03X180451Y187178I1533J-4805D01*
G01X183467Y189805D02*
G03X183816Y190281I-151J476D01*
X183669Y190635I-500J0*
G01X176127Y198177*
G03X175609Y198296I-354J-354*
G01X173894Y204193D02*
G03X175609Y198296I706J-2993D01*
G01X173894Y204193D02*
G03X174272Y204766I-115J486D01*
G01X174225Y205300D02*
G03X174272Y204766I3075J-0D01*
G01X174225Y205300D02*
X174225D01*
X179290Y207644D02*
G03X174225Y205300I-1990J-2344D01*
G01X179290Y207644D02*
G03X179341Y207606I324J381D01*
G01X179787Y207245D02*
G03X179341Y207606I-1944J-1945D01*
G01X179787Y207245D02*
X196245Y190787D01*
X197050Y188843D02*
G03X196245Y190787I-2750J-0D01*
G01X103575Y81200D02*
G03X103575I-3075J0D01*
G01X190424Y250999D02*
X203500D01*
X190460Y250099D02*
X203500D01*
X199772Y249199D02*
X203500D01*
X201371Y248299D02*
X203500D01*
X201690Y247399D02*
X203500D01*
X201700Y246499D02*
X203500D01*
X201700Y245599D02*
X203500D01*
X201700Y244699D02*
X203500D01*
X201700Y243799D02*
X203500D01*
X201700Y242899D02*
X203500D01*
X201700Y241999D02*
X203500D01*
X201700Y241099D02*
X203500D01*
X201700Y240199D02*
X203500D01*
X201700Y239299D02*
X203500D01*
X201700Y238399D02*
X203500D01*
X201700Y237499D02*
X203500D01*
X201700Y236599D02*
X203500D01*
X201700Y235699D02*
X203500D01*
X201700Y234799D02*
X203500D01*
X201700Y233899D02*
X203500D01*
X201700Y232999D02*
X203500D01*
X201700Y232099D02*
X203500D01*
X201700Y231199D02*
X203500D01*
X201700Y230299D02*
X203500D01*
X201700Y229399D02*
X203500D01*
X201700Y228499D02*
X203500D01*
X201700Y227599D02*
X203500D01*
X201700Y226699D02*
X203500D01*
X201700Y225799D02*
X203500D01*
X201700Y224899D02*
X203500D01*
X201700Y223999D02*
X203500D01*
X201700Y223099D02*
X203500D01*
X201700Y222199D02*
X203500D01*
X201700Y221299D02*
X203500D01*
X201697Y220399D02*
X203500D01*
X201431Y219499D02*
X203500D01*
X200321Y218599D02*
X203500D01*
X167750Y217699D02*
X203500D01*
X167750Y216799D02*
X203500D01*
X167750Y215899D02*
X203500D01*
X167750Y214999D02*
X203500D01*
X167750Y214099D02*
X203500D01*
X167716Y213199D02*
X203500D01*
X167406Y212299D02*
X203500D01*
X167150Y211399D02*
X203500D01*
X167150Y210499D02*
X203500D01*
X167150Y209599D02*
X203500D01*
X167150Y208699D02*
X203500D01*
X179092Y207799D02*
X203500D01*
X180133Y206899D02*
X203500D01*
X181033Y205999D02*
X203500D01*
X181933Y205099D02*
X203500D01*
X182833Y204199D02*
X203500D01*
X183733Y203299D02*
X203500D01*
X184633Y202399D02*
X203500D01*
X185533Y201499D02*
X203500D01*
X186433Y200599D02*
X203500D01*
X187333Y199699D02*
X203500D01*
X188233Y198799D02*
X203500D01*
X189133Y197899D02*
X203500D01*
X190033Y196999D02*
X203500D01*
X190933Y196099D02*
X203500D01*
X191833Y195199D02*
X203500D01*
X192733Y194299D02*
X203500D01*
X193633Y193399D02*
X203500D01*
X194533Y192499D02*
X203500D01*
X195433Y191599D02*
X203500D01*
X196329Y190699D02*
X203500D01*
X196879Y189799D02*
X203500D01*
X197049Y188899D02*
X203500D01*
X197050Y187999D02*
X203500D01*
X197050Y187099D02*
X203500D01*
X197050Y186199D02*
X203500D01*
X197050Y185299D02*
X203500D01*
X197050Y184399D02*
X203500D01*
X197050Y183499D02*
X203500D01*
X197050Y182599D02*
X203500D01*
X197050Y181699D02*
X203500D01*
X197050Y180799D02*
X203500D01*
X197050Y179899D02*
X203500D01*
X197050Y178999D02*
X203500D01*
X197050Y178099D02*
X203500D01*
X197050Y177199D02*
X203500D01*
X197050Y176299D02*
X203500D01*
X197050Y175399D02*
X203500D01*
X197050Y174499D02*
X203500D01*
X196959Y173599D02*
X203500D01*
X196536Y172699D02*
X203500D01*
X195688Y171799D02*
X203500D01*
X194788Y170899D02*
X203500D01*
X193888Y169999D02*
X203500D01*
X192988Y169099D02*
X203500D01*
X192088Y168199D02*
X203500D01*
X191188Y167299D02*
X203500D01*
X190288Y166399D02*
X203500D01*
X190019Y165499D02*
X203500D01*
X190027Y164599D02*
X203500D01*
X189873Y163699D02*
X203500D01*
X189538Y162799D02*
X203500D01*
X188977Y161899D02*
X203500D01*
X188070Y160999D02*
X203500D01*
X186903Y160099D02*
X203500D01*
X187794Y159199D02*
X203500D01*
X188815Y158299D02*
X203500D01*
X189436Y157399D02*
X203500D01*
X189815Y156499D02*
X203500D01*
X190008Y155599D02*
X203500D01*
X190034Y154699D02*
X203500D01*
X189898Y153799D02*
X203500D01*
X189585Y152899D02*
X203500D01*
X189053Y151999D02*
X203500D01*
X188196Y151099D02*
X203500D01*
X186935Y150199D02*
X203500D01*
X187637Y149299D02*
X203500D01*
X188726Y148399D02*
X203500D01*
X189381Y147499D02*
X203500D01*
X189783Y146599D02*
X203500D01*
X189995Y145699D02*
X203500D01*
X190039Y144799D02*
X203500D01*
X189922Y143899D02*
X203500D01*
X189629Y142999D02*
X203500D01*
X189125Y142099D02*
X203500D01*
X188314Y141199D02*
X203500D01*
X186992Y140299D02*
X203500D01*
X187467Y139399D02*
X203500D01*
X188632Y138499D02*
X203500D01*
X189322Y137599D02*
X203500D01*
X189749Y136699D02*
X203500D01*
X189980Y135799D02*
X203500D01*
X190042Y134899D02*
X203500D01*
X189989Y133999D02*
X203500D01*
X190790Y133099D02*
X203500D01*
X191690Y132199D02*
X203500D01*
X192590Y131299D02*
X203500D01*
X193490Y130399D02*
X203500D01*
X194390Y129499D02*
X203500D01*
X195290Y128599D02*
X203500D01*
X196190Y127699D02*
X203500D01*
X196817Y126799D02*
X203500D01*
X197037Y125899D02*
X203500D01*
X197043Y124999D02*
X203500D01*
X197043Y124099D02*
X203500D01*
X197043Y123199D02*
X203500D01*
X197043Y122299D02*
X203500D01*
X197043Y121399D02*
X203500D01*
X197043Y120499D02*
X203500D01*
X197043Y119599D02*
X203500D01*
X197043Y118699D02*
X203500D01*
X197043Y117799D02*
X203500D01*
X197043Y116899D02*
X203500D01*
X197043Y115999D02*
X203500D01*
X197043Y115099D02*
X203500D01*
X197043Y114199D02*
X203500D01*
X197043Y113299D02*
X203500D01*
X197043Y112399D02*
X203500D01*
X197043Y111499D02*
X203500D01*
X196987Y110599D02*
X203500D01*
X196629Y109699D02*
X203500D01*
X195831Y108799D02*
X203500D01*
X194931Y107899D02*
X203500D01*
X194031Y106999D02*
X203500D01*
X193131Y106099D02*
X203500D01*
X192231Y105199D02*
X203500D01*
X191331Y104299D02*
X203500D01*
X190391Y103399D02*
X203500D01*
X154850Y102499D02*
X203500D01*
X154850Y101599D02*
X203500D01*
X154850Y100699D02*
X203500D01*
X154850Y99799D02*
X203500D01*
X155502Y98899D02*
X203500D01*
X156070Y97999D02*
X203500D01*
X156100Y97099D02*
X203500D01*
X156100Y96199D02*
X203500D01*
X156100Y95299D02*
X203500D01*
X156100Y94399D02*
X203500D01*
X156100Y93499D02*
X203500D01*
X156100Y92599D02*
X203500D01*
X156100Y91699D02*
X203500D01*
X155799Y90799D02*
X203500D01*
X155524Y89899D02*
X203500D01*
X156070Y88999D02*
X203500D01*
X156100Y88099D02*
X203500D01*
X156100Y87199D02*
X203500D01*
X156100Y86299D02*
X203500D01*
X156100Y85399D02*
X203500D01*
X198063Y84499D02*
X203500D01*
X199375Y83599D02*
X203500D01*
X199500Y82699D02*
X203500D01*
X199500Y81799D02*
X203500D01*
X199500Y80899D02*
X203500D01*
X199500Y79999D02*
X203500D01*
X199500Y79099D02*
X203500D01*
X199500Y78199D02*
X203500D01*
X199500Y77299D02*
X203500D01*
X199374Y76399D02*
X203500D01*
X66800Y75499D02*
X203500D01*
X66800Y74599D02*
X203500D01*
X197563Y73699D02*
X203500D01*
X198524Y72799D02*
X203500D01*
X199080Y71899D02*
X203500D01*
X199388Y70999D02*
X203500D01*
X199499Y70099D02*
X203500D01*
X199428Y69199D02*
X203500D01*
X199166Y68299D02*
X203500D01*
X198672Y67399D02*
X203500D01*
X197827Y66499D02*
X203500D01*
X195937Y65599D02*
X203500D01*
X66800Y64699D02*
X203500D01*
X197412Y63799D02*
X203500D01*
X198442Y62899D02*
X203500D01*
X199032Y61999D02*
X203500D01*
X199364Y61099D02*
X203500D01*
X199496Y60199D02*
X203500D01*
X199445Y59299D02*
X203500D01*
X199205Y58399D02*
X203500D01*
X198741Y57499D02*
X203500D01*
X197946Y56599D02*
X203500D01*
X196323Y55699D02*
X203500D01*
X66800Y54799D02*
X203500D01*
X66800Y53899D02*
X203500D01*
X66800Y52999D02*
X203500D01*
X66800Y52099D02*
X203500D01*
X66800Y51199D02*
X203500D01*
X66800Y50299D02*
X203500D01*
X66800Y49399D02*
X203500D01*
X66800Y65599D02*
X194063D01*
X66800Y55699D02*
X193677D01*
X66800Y63799D02*
X192588D01*
X66800Y73699D02*
X192437D01*
X66800Y66499D02*
X192173D01*
X66800Y56599D02*
X192054D01*
X156100Y84499D02*
X191937D01*
X66800Y62899D02*
X191558D01*
X66800Y72799D02*
X191476D01*
X66800Y67399D02*
X191328D01*
X66800Y57499D02*
X191259D01*
X66800Y61999D02*
X190968D01*
X66800Y71899D02*
X190920D01*
X66800Y68299D02*
X190834D01*
X66800Y58399D02*
X190795D01*
X66800Y61099D02*
X190636D01*
X66800Y76399D02*
X190626D01*
X156100Y83599D02*
X190625D01*
X66800Y70999D02*
X190612D01*
X66800Y69199D02*
X190572D01*
X66800Y59299D02*
X190555D01*
X66800Y60199D02*
X190504D01*
X66800Y70099D02*
X190501D01*
X156100Y82699D02*
X190500D01*
X155799Y81799D02*
X190500D01*
X103560Y80899D02*
X190500D01*
X103330Y79999D02*
X190500D01*
X102745Y79099D02*
X190500D01*
X101168Y78199D02*
X190500D01*
X66800Y77299D02*
X190500D01*
X167750Y218599D02*
X189779D01*
X167750Y219499D02*
X188669D01*
X167750Y220399D02*
X188403D01*
X157664Y236599D02*
X188400D01*
X158564Y235699D02*
X188400D01*
X159464Y234799D02*
X188400D01*
X160364Y233899D02*
X188400D01*
X161264Y232999D02*
X188400D01*
X162164Y232099D02*
X188400D01*
X170710Y231199D02*
X188400D01*
X171027Y230299D02*
X188400D01*
X171028Y229399D02*
X188400D01*
X171028Y228499D02*
X188400D01*
X171028Y227599D02*
X188400D01*
X171028Y226699D02*
X188400D01*
X171028Y225799D02*
X188400D01*
X171028Y224899D02*
X188400D01*
X171028Y223999D02*
X188400D01*
X171028Y223099D02*
X188400D01*
X171014Y222199D02*
X188400D01*
X170544Y221299D02*
X188400D01*
X172597Y190699D02*
X183605D01*
X176552Y189799D02*
X183448D01*
X167435Y191599D02*
X182705D01*
X167150Y192499D02*
X181805D01*
X178199Y188899D02*
X181801D01*
X179055Y187999D02*
X180945D01*
X167150Y193399D02*
X180905D01*
X179596Y187099D02*
X180404D01*
X167150Y194299D02*
X180005D01*
X167150Y195199D02*
X179105D01*
X167150Y196099D02*
X178205D01*
X167150Y196999D02*
X177305D01*
X167150Y197899D02*
X176405D01*
X167150Y207799D02*
X175508D01*
X167150Y206899D02*
X174673D01*
X167150Y205999D02*
X174306D01*
X167150Y205099D02*
X174232D01*
X167150Y204199D02*
X173917D01*
X167150Y198799D02*
X172679D01*
X167150Y203299D02*
X172353D01*
X167150Y199699D02*
X171917D01*
X167150Y202399D02*
X171768D01*
X167150Y200599D02*
X171585D01*
X167150Y201499D02*
X171540D01*
X154850Y103399D02*
X164952D01*
X154909Y104299D02*
X164108D01*
X66800Y220399D02*
X162250D01*
X66800Y219499D02*
X162250D01*
X66800Y218599D02*
X162250D01*
X66800Y217699D02*
X162250D01*
X66800Y216799D02*
X162250D01*
X66800Y215899D02*
X162250D01*
X66800Y214999D02*
X162250D01*
X66800Y214099D02*
X161866D01*
X66800Y213199D02*
X161655D01*
X66800Y212299D02*
X161650D01*
X66800Y211399D02*
X161650D01*
X66800Y210499D02*
X161650D01*
X66800Y209599D02*
X161650D01*
X66800Y208699D02*
X161650D01*
X154992Y207799D02*
X161650D01*
X155827Y206899D02*
X161650D01*
X156194Y205999D02*
X161650D01*
X156268Y205099D02*
X161650D01*
X156362Y204199D02*
X161650D01*
X157747Y203299D02*
X161650D01*
X158332Y202399D02*
X161650D01*
X158560Y201499D02*
X161650D01*
X158515Y200599D02*
X161650D01*
X158183Y199699D02*
X161650D01*
X157421Y198799D02*
X161650D01*
X151514Y197899D02*
X161650D01*
X152390Y196999D02*
X161650D01*
X153290Y196099D02*
X161650D01*
X154642Y195199D02*
X161650D01*
X155338Y194299D02*
X161650D01*
X155634Y193399D02*
X161650D01*
X155649Y192499D02*
X161650D01*
X155857Y191599D02*
X161365D01*
X156764Y237499D02*
X159879D01*
X66800Y221299D02*
X159456D01*
X66800Y222199D02*
X158986D01*
X153768Y226699D02*
X158972D01*
X138872Y225799D02*
X158972D01*
X138694Y224899D02*
X158972D01*
X138325Y223999D02*
X158972D01*
X137488Y223099D02*
X158972D01*
X154000Y227599D02*
X158877D01*
X155864Y238399D02*
X158769D01*
X154964Y239299D02*
X158503D01*
X144251Y246499D02*
X158500D01*
X66800Y245599D02*
X158500D01*
X66800Y244699D02*
X158500D01*
X153251Y243799D02*
X158500D01*
X153946Y242899D02*
X158500D01*
X154000Y241999D02*
X158500D01*
X154000Y241099D02*
X158500D01*
X154080Y240199D02*
X158500D01*
X145546Y247399D02*
X158434D01*
X154000Y228499D02*
X157986D01*
X154000Y229399D02*
X157086D01*
X154000Y230299D02*
X156186D01*
X154000Y231199D02*
X155286D01*
X151442Y131299D02*
X153373D01*
X152380Y132199D02*
X153292D01*
X127056Y128599D02*
X153129D01*
X125175Y130399D02*
X153006D01*
X126156Y129499D02*
X152932D01*
X117724Y89899D02*
X148676D01*
X117999Y90799D02*
X148401D01*
X117999Y81799D02*
X148401D01*
X118270Y88999D02*
X148130D01*
X118300Y95299D02*
X148100D01*
X118300Y94399D02*
X148100D01*
X118300Y93499D02*
X148100D01*
X118300Y92599D02*
X148100D01*
X118300Y91699D02*
X148100D01*
X118300Y88099D02*
X148100D01*
X118300Y87199D02*
X148100D01*
X118300Y86299D02*
X148100D01*
X118300Y85399D02*
X148100D01*
X118300Y84499D02*
X148100D01*
X118300Y83599D02*
X148100D01*
X118300Y82699D02*
X148100D01*
X118300Y96199D02*
X148071D01*
X144251Y243799D02*
X145749D01*
X118300Y97099D02*
X141757D01*
X66800Y234799D02*
X141737D01*
X66800Y235699D02*
X141077D01*
X118270Y97999D02*
X140612D01*
X117702Y98899D02*
X139712D01*
X117050Y99799D02*
X138812D01*
X117050Y100699D02*
X137912D01*
X117050Y101599D02*
X137012D01*
X66800Y233899D02*
X136958D01*
X66800Y243799D02*
X136749D01*
X66800Y236599D02*
X136301D01*
X117050Y102499D02*
X136112D01*
X66800Y232999D02*
X136085D01*
X66800Y242899D02*
X136054D01*
X66800Y241999D02*
X136000D01*
X66800Y241099D02*
X136000D01*
X66800Y240199D02*
X136000D01*
X66800Y239299D02*
X136000D01*
X66800Y238399D02*
X136000D01*
X66800Y237499D02*
X136000D01*
X66800Y232099D02*
X136000D01*
X66800Y231199D02*
X136000D01*
X66800Y230299D02*
X136000D01*
X66800Y229399D02*
X136000D01*
X117050Y103399D02*
X135212D01*
X106847Y131299D02*
X135046D01*
X66800Y228499D02*
X134674D01*
X117109Y104299D02*
X134312D01*
X106650Y132199D02*
X134146D01*
X66800Y223099D02*
X133912D01*
X126352Y105199D02*
X133412D01*
X66800Y227599D02*
X133363D01*
X106059Y133099D02*
X133246D01*
X66800Y223999D02*
X133075D01*
X66800Y226699D02*
X132828D01*
X66800Y224899D02*
X132706D01*
X66800Y225799D02*
X132632D01*
X126787Y106099D02*
X132512D01*
X105159Y133999D02*
X132346D01*
X127534Y106999D02*
X131612D01*
X123481Y134899D02*
X131446D01*
X113518Y189799D02*
X130994D01*
X66800Y207799D02*
X130942D01*
X82391Y188899D02*
X130792D01*
X128015Y107899D02*
X130712D01*
X123626Y135799D02*
X130546D01*
X82192Y187999D02*
X129892D01*
X128303Y108799D02*
X129812D01*
X66800Y206899D02*
X129801D01*
X123626Y136699D02*
X129646D01*
X79395Y196099D02*
X129522D01*
X81869Y187099D02*
X128992D01*
X66800Y205999D02*
X128901D01*
X123561Y137599D02*
X128746D01*
X77747Y196999D02*
X128703D01*
X81405Y186199D02*
X128092D01*
X66800Y205099D02*
X128001D01*
X123626Y138499D02*
X127866D01*
X66800Y197899D02*
X127803D01*
X123626Y139399D02*
X127380D01*
X66800Y204199D02*
X127308D01*
X123655Y142999D02*
X127250D01*
X123619Y142099D02*
X127250D01*
X123626Y141199D02*
X127250D01*
X123606Y140299D02*
X127250D01*
X66800Y198799D02*
X127220D01*
X80766Y185299D02*
X127192D01*
X66800Y203299D02*
X127043D01*
X66800Y199699D02*
X127028D01*
X66800Y202399D02*
X127025D01*
X66800Y201499D02*
X127025D01*
X66800Y200599D02*
X127025D01*
X79881Y184399D02*
X126292D01*
X66800Y246499D02*
X122461D01*
X110790Y124999D02*
X122057D01*
X66800Y250999D02*
X121572D01*
X66800Y247399D02*
X121539D01*
X78572Y183499D02*
X121381D01*
X66800Y250099D02*
X121192D01*
X66800Y248299D02*
X121131D01*
X66800Y249199D02*
X121027D01*
X66800Y182599D02*
X121003D01*
X66800Y181699D02*
X121000D01*
X66800Y180799D02*
X121000D01*
X66800Y179899D02*
X120959D01*
X112044Y124099D02*
X120727D01*
X66800Y178999D02*
X120110D01*
X112963Y123199D02*
X119581D01*
X66800Y178099D02*
X119210D01*
X113369Y122299D02*
X119092D01*
X113473Y121399D02*
X118927D01*
X117980Y120499D02*
X118767D01*
X66800Y177199D02*
X118310D01*
X66800Y176299D02*
X117410D01*
X113307Y120499D02*
X116620D01*
X66800Y175399D02*
X116510D01*
X97280Y174499D02*
X115610D01*
X112817Y119599D02*
X115036D01*
X98533Y173599D02*
X114710D01*
X104259Y134899D02*
X114668D01*
X101559Y137599D02*
X114588D01*
X100007Y139399D02*
X114524D01*
X100390Y138499D02*
X114524D01*
X102459Y136699D02*
X114524D01*
X103359Y135799D02*
X114524D01*
X111668Y118699D02*
X114338D01*
X66800Y117799D02*
X114079D01*
X77680Y116899D02*
X114063D01*
X79333Y115999D02*
X114063D01*
X106308Y172699D02*
X113810D01*
X106850Y130399D02*
X112658D01*
X109890Y125899D02*
X112553D01*
X106850Y129499D02*
X111962D01*
X108990Y126799D02*
X111914D01*
X107190Y128599D02*
X111666D01*
X108090Y127699D02*
X111651D01*
X66800Y99799D02*
X111550D01*
X66800Y100699D02*
X111550D01*
X66800Y101599D02*
X111550D01*
X77238Y102499D02*
X111550D01*
X79103Y103399D02*
X111550D01*
X80218Y104299D02*
X111490D01*
X82477Y189799D02*
X111482D01*
X66800Y98899D02*
X110898D01*
X66800Y89899D02*
X110876D01*
X80425Y195199D02*
X110708D01*
X66800Y90799D02*
X110601D01*
X103516Y81799D02*
X110601D01*
X66800Y97999D02*
X110330D01*
X66800Y88999D02*
X110330D01*
X66800Y97099D02*
X110300D01*
X66800Y96199D02*
X110300D01*
X66800Y95299D02*
X110300D01*
X66800Y94399D02*
X110300D01*
X66800Y93499D02*
X110300D01*
X66800Y92599D02*
X110300D01*
X66800Y91699D02*
X110300D01*
X66800Y88099D02*
X110300D01*
X66800Y87199D02*
X110300D01*
X66800Y86299D02*
X110300D01*
X66800Y85399D02*
X110300D01*
X66800Y84499D02*
X110300D01*
X102424Y83599D02*
X110300D01*
X103185Y82699D02*
X110300D01*
X82454Y190699D02*
X110166D01*
X81157Y194299D02*
X109873D01*
X82320Y191599D02*
X109629D01*
X81690Y193399D02*
X109506D01*
X82070Y192499D02*
X109432D01*
X66800Y118699D02*
X109132D01*
X66800Y119599D02*
X107983D01*
X66800Y120499D02*
X107486D01*
X66800Y121399D02*
X106612D01*
X66800Y122299D02*
X105712D01*
X66800Y123199D02*
X104812D01*
X66800Y124099D02*
X103912D01*
X98896Y124999D02*
X103012D01*
X80376Y115099D02*
X102523D01*
X81007Y105199D02*
X102246D01*
X99936Y125899D02*
X102113D01*
X81122Y114199D02*
X101995D01*
X81670Y113299D02*
X101972D01*
X82065Y112399D02*
X101972D01*
X82332Y111499D02*
X101972D01*
X82484Y110599D02*
X101972D01*
X82527Y109699D02*
X101972D01*
X82465Y108799D02*
X101972D01*
X82293Y107899D02*
X101972D01*
X82005Y106999D02*
X101972D01*
X81585Y106099D02*
X101972D01*
X100043Y126799D02*
X101539D01*
X100043Y127699D02*
X101352D01*
X100043Y129499D02*
X101350D01*
X100043Y128599D02*
X101350D01*
X100122Y130399D02*
X100981D01*
X100234Y140299D02*
X100852D01*
X66800Y78199D02*
X99832D01*
X66800Y83599D02*
X98576D01*
X66800Y79099D02*
X98255D01*
X66800Y82699D02*
X97815D01*
X66800Y79999D02*
X97670D01*
X66800Y81799D02*
X97484D01*
X66800Y80899D02*
X97440D01*
X87280Y174499D02*
X92720D01*
X88533Y173599D02*
X91467D01*
X85650Y124999D02*
X91104D01*
X89261Y172699D02*
X90739D01*
X87935Y125899D02*
X90064D01*
X88897Y126799D02*
X89948D01*
X66800Y124999D02*
X84350D01*
X66800Y134899D02*
X83096D01*
X66800Y144799D02*
X83064D01*
X66800Y154699D02*
X83006D01*
X66800Y164599D02*
X82905D01*
X66800Y165499D02*
X82725D01*
X66800Y174499D02*
X82720D01*
X66800Y155599D02*
X82538D01*
X66800Y145699D02*
X82367D01*
X66800Y135799D02*
X82210D01*
X66800Y125899D02*
X82065D01*
X66800Y133999D02*
X81927D01*
X66800Y143899D02*
X81801D01*
X66800Y153799D02*
X81683D01*
X66800Y163699D02*
X81571D01*
X66800Y166399D02*
X81469D01*
X66800Y173599D02*
X81467D01*
X66800Y156499D02*
X81370D01*
X66800Y146599D02*
X81276D01*
X66800Y136699D02*
X81187D01*
X66800Y126799D02*
X81103D01*
X66800Y133099D02*
X81021D01*
X66800Y142999D02*
X80945D01*
X66800Y152899D02*
X80873D01*
X66800Y162799D02*
X80804D01*
X66800Y167299D02*
X80741D01*
X66800Y172699D02*
X80739D01*
X66800Y157399D02*
X80679D01*
X66800Y147499D02*
X80621D01*
X66800Y137599D02*
X80565D01*
X66800Y127699D02*
X80512D01*
X66800Y132199D02*
X80461D01*
X66800Y142099D02*
X80414D01*
X66800Y151999D02*
X80370D01*
X66800Y161899D02*
X80328D01*
X66800Y168199D02*
X80289D01*
X66800Y171799D02*
X80288D01*
X66800Y158299D02*
X80252D01*
X66800Y148399D02*
X80218D01*
X66800Y138499D02*
X80185D01*
X66800Y128599D02*
X80155D01*
X66800Y131299D02*
X80127D01*
X66800Y141199D02*
X80101D01*
X66800Y151099D02*
X80078D01*
X66800Y160999D02*
X80057D01*
X66800Y169099D02*
X80038D01*
X66800Y170899D02*
X80037D01*
X66800Y159199D02*
X80021D01*
X66800Y149299D02*
X80006D01*
X66800Y139399D02*
X79993D01*
X66800Y129499D02*
X79982D01*
X66800Y130399D02*
X79972D01*
X66800Y140299D02*
X79966D01*
X66800Y150199D02*
X79961D01*
X66800Y160099D02*
X79958D01*
X66800Y169999D02*
X79957D01*
X66800Y102499D02*
X72510D01*
X66800Y196999D02*
X72303D01*
X66800Y116899D02*
X72068D01*
X66800Y183499D02*
X71478D01*
X66800Y196099D02*
X70655D01*
X66800Y103399D02*
X70645D01*
X66800Y115999D02*
X70415D01*
X66800Y184399D02*
X70169D01*
X66800Y195199D02*
X69625D01*
X66800Y104299D02*
X69530D01*
X66800Y115099D02*
X69372D01*
X66800Y185299D02*
X69284D01*
X66800Y194299D02*
X68893D01*
X66800Y105199D02*
X68741D01*
X66800Y186199D02*
X68645D01*
X66800Y114199D02*
X68626D01*
X66800Y193399D02*
X68360D01*
X66800Y187099D02*
X68181D01*
X66800Y106099D02*
X68163D01*
X66800Y113299D02*
X68078D01*
X66800Y192499D02*
X67980D01*
X66800Y187999D02*
X67858D01*
X66861Y106999D02*
X67739D01*
X66956Y191599D02*
X67644D01*
X66998Y112399D02*
X67602D01*
X135324Y163699D02*
X136306D01*
X130344Y164599D02*
X136148D01*
X129755Y165499D02*
X134353D01*
X130945Y166399D02*
X133714D01*
X132288Y168199D02*
X133453D01*
X131530Y167299D02*
X133451D01*
X139000Y179899D02*
X173096D01*
X139000Y180799D02*
X172210D01*
X139000Y178999D02*
X171927D01*
X139000Y181699D02*
X171187D01*
X139068Y178099D02*
X171021D01*
X139288Y182599D02*
X170565D01*
X140125Y183499D02*
X170185D01*
X140494Y184399D02*
X169993D01*
X140568Y185299D02*
X169966D01*
X140795Y186199D02*
X141458D01*
X139549Y167299D02*
X151508D01*
X139356Y166399D02*
X151076D01*
X139534Y168199D02*
X150625D01*
X145057Y165499D02*
X149427D01*
X145470Y164599D02*
X148281D01*
X145476Y163699D02*
X147792D01*
X145730Y162799D02*
X146227D01*
X158994Y130399D02*
X172908D01*
X159068Y129499D02*
X172720D01*
X158627Y131299D02*
X171574D01*
X158871Y128599D02*
X171467D01*
X158708Y132199D02*
X170730D01*
X65300Y47000D02*
X205000D01*
Y253000*
X65300*
Y47000*
X80981Y190057D02*
G03X80981I-5956J0D01*
G01X81028Y109778D02*
G03X81028I-6154J0D01*
G54D34*
G01X100500Y81200D03*
X166600Y106100D03*
X147800Y99600D03*
X110400Y121500D03*
X133400Y161300D03*
X135000Y157100D03*
X125900Y116600D03*
X135000Y150400D03*
X129400Y113100D03*
X135200Y146200D03*
X122000Y121300D03*
X124800Y146300D03*
X114700Y128100D03*
X111400Y148600D03*
X112500Y153700D03*
X128700Y168500D03*
Y162000D03*
X136500Y167700D03*
X137500Y185100D03*
X117300Y117500D03*
X112500Y157900D03*
X147500Y142500D03*
Y160000D03*
Y155000D03*
X159900Y116600D03*
X169400Y110000D03*
X169100Y149000D03*
X151400Y145000D03*
X161700Y152600D03*
X162800Y169000D03*
X156000Y129700D03*
X165200Y110300D03*
X150700Y162700D03*
X133600Y201400D03*
X124100Y249100D03*
X135700Y225600D03*
X112500Y192700D03*
X155500Y201200D03*
X174600D03*
X153200Y205300D03*
X177300D03*
X152600Y192900D03*
X187400Y250400D03*
X147000Y192700D03*
G54D35*
X95000Y130000D03*
G54D36*
Y140000D03*
Y150000D03*
Y160000D03*
Y170000D03*
X85000D03*
Y160000D03*
Y150000D03*
Y140000D03*
Y130000D03*
X175000Y185000D03*
Y175000D03*
Y165000D03*
Y155000D03*
Y145000D03*
Y135000D03*
Y125000D03*
Y115000D03*
X185000Y185000D03*
Y175000D03*
Y165000D03*
Y155000D03*
Y145000D03*
Y135000D03*
Y125000D03*
Y115000D03*
G54D52*
X134326Y165526D02*
X135386Y166586D01*
X158174Y131874D02*
X157114Y130814D01*
X153826Y131874D02*
X154886Y130814D01*
X133526Y227774D02*
X134586Y226714D01*
X133526Y223426D02*
X134586Y224486D01*
X137874Y223426D02*
X136814Y224486D01*
X139674Y182926D02*
X138614Y183986D01*
X102674Y83374D02*
X101614Y82314D01*
X98326Y83374D02*
X99386Y82314D01*
X98326Y79026D02*
X99386Y80086D01*
X102674Y79026D02*
X101614Y80086D01*
G54D79*
X119075Y163750D03*
Y161250D03*
Y158750D03*
Y156250D03*
Y153750D03*
Y151250D03*
Y148750D03*
Y146250D03*
Y143750D03*
Y141250D03*
Y138750D03*
Y136250D03*
X140925D03*
Y138750D03*
Y141250D03*
Y143750D03*
Y146250D03*
Y148750D03*
Y151250D03*
Y153750D03*
Y156250D03*
Y158750D03*
Y161250D03*
Y163750D03*
G54D80*
X165000Y243661D03*
Y226339D03*
G54D81*
X114299Y110000D03*
X151701D03*
G54D87*
X115092Y164209D02*
X115550Y163750D01*
X119075*
Y146250D02*
X121417D01*
X124800Y146300*
X119075Y161250D02*
X124376D01*
G54D89*
X100500Y81200D02*
X105000Y85700D01*
X114300*
X152100*
X166600Y106100D02*
Y105600D01*
X188743*
X194293Y111151*
Y125707*
X152100Y85700D02*
X170450D01*
X176150Y80000*
X195000*
X98100Y126900D02*
X107400Y117600D01*
X111909*
X114225Y119916*
Y123125*
X114633Y169633D02*
X125000Y180000D01*
X125500*
X114633Y169633D02*
Y164667D01*
X115092Y164209*
X124376Y161250D02*
Y169585D01*
X129891Y175100*
X159880*
X159980Y175000*
X175000*
X125000Y152500D02*
X130000Y147500D01*
Y140233*
X137033Y133200*
X149454*
X151254Y135000*
X175000*
X110875Y129684D02*
X113191Y132000D01*
X129856*
X132156Y129700*
X156000*
X110875Y129684D02*
Y126475D01*
X114225Y123125*
X125900Y116600D02*
Y117000D01*
X143292*
X143692Y116600*
X159900*
X129400Y113100D02*
X142900Y99600D01*
X147800*
X122000Y121300D02*
X161758D01*
X168058Y115000*
X175000*
X114700Y128100D02*
X123666D01*
X126766Y125000*
X175000*
X128700Y168500D02*
X131800Y171600D01*
X151112*
X153712Y169000*
X162800*
X125500Y180000D02*
X125782D01*
X134782Y189000*
X142150*
X142350Y188800*
X164400*
X134500Y180000D02*
X135844D01*
X137500Y185100*
X114299Y110000D02*
X114300Y95200D01*
Y94700*
X114299Y110000D02*
X116813D01*
Y117500*
X117300*
X95000Y170000D02*
X105780D01*
X106147Y169633*
X114633*
X95000Y150000D02*
X102500Y142500D01*
X112500*
X95000Y140000D02*
X99200Y135800D01*
X99469*
X104100Y131169*
Y127800*
X110400Y121500*
X95000Y130000D02*
X98100Y126900D01*
X164400Y188800D02*
X170607D01*
X174704Y184704*
X175000Y185000*
X164400Y188800D02*
Y213030D01*
X165000Y213630*
Y226152*
X169400Y110000D02*
Y109200D01*
X187393*
X190793Y112600*
Y119207*
X151400Y145000D02*
X175000D01*
X161700Y152600D02*
X164405Y155305D01*
X175000*
Y155000*
X150700Y162700D02*
X153809Y165000D01*
X175000*
X151701Y110000D02*
Y110300D01*
X165200*
X151701Y110000D02*
X152100D01*
Y94700*
X185000Y125000D02*
X190793Y119207D01*
X185000Y135000D02*
X194293Y125707D01*
X185000Y165000D02*
X194300Y174300D01*
X185000Y175000D02*
X190800Y180800D01*
X129775Y202984D02*
Y199816D01*
X132591Y197000*
X148500*
X152600Y192900*
X129775Y202984D02*
X132091Y205300D01*
X153200*
X133600Y201400D02*
X155300D01*
X155500Y201200*
X124100Y249100D02*
X143358D01*
X144658Y250400*
X187400*
X135700Y225600D02*
X139960Y230000D01*
X140500*
X112500Y192700D02*
X147000D01*
X165000Y226152D02*
Y226339D01*
X174600Y201200D02*
X177093Y201100D01*
X190800Y187393*
Y180800*
X177300Y205300D02*
X177843D01*
X194300Y188843*
Y174300*
X140500Y240000D02*
X141333D01*
X148667Y230000*
X149500*
Y240000D02*
Y240187D01*
X150187*
X164222Y226152*
X165000*
Y243661D02*
X180094D01*
X181433Y245000*
X195000*
Y225000D02*
Y235000D01*
Y245000*
G54D90*
X128639Y161804D02*
X128765Y161940D01*
X128640D02*
X128700Y162000D01*
X112500Y142500D02*
X112950D01*
X128504Y161804D02*
X128574Y161733D01*
X128639Y161804*
X128504D02*
X128640Y161940D01*
X124900Y152500D02*
X125000D01*
X133400Y161300D02*
Y161250D01*
X135000Y157100D02*
X135850Y156250D01*
X135200Y146200D02*
Y146250D01*
X111400Y148600D02*
Y148750D01*
X112500Y153700D02*
Y153750D01*
X128700Y162000D02*
X128765Y161940D01*
X136500Y167700D02*
X139725D01*
X140925Y166500*
Y163750*
X112500Y157900D02*
X113350Y158750D01*
G54D91*
X111400Y148750D02*
X119075D01*
X135200Y146250D02*
X140925D01*
X113350Y158750D02*
X119075D01*
X112500Y153750D02*
X119075D01*
X112950Y142500D02*
X114200Y143750D01*
X119075*
X135850Y156250D02*
X140925D01*
X133400Y161250D02*
X140925D01*
X135000Y150400D02*
X135850Y151250D01*
X140925*
X119075D02*
X123650D01*
X124900Y152500*
X119075Y156250D02*
X127000D01*
X128504Y157754*
Y161804*
X140925Y158750D02*
X146000D01*
X147250Y160000*
X147500*
X140925Y153750D02*
X146900D01*
Y154400*
X147500Y155000*
X140925Y148750D02*
X156600D01*
X156850Y149000*
X169100*
X140925Y143750D02*
X146800D01*
X147500Y143050*
Y142500*
G74*
X0Y0D02*
M02*
