*
*
G04 PADS VX.2.4 Build Number: 11282995 generated Gerber (RS-274-X) file*
G04 PC Version=2.1*
*
%IN "ICE(for8520)-5.pcb"*%
*
%MOIN*%
*
%FSLAX35Y35*%
*
*
*
*
G04 PC Standard Apertures*
*
*
G04 Thermal Relief Aperture macro.*
%AMTER*
1,1,$1,0,0*
1,0,$1-$2,0,0*
21,0,$3,$4,0,0,45*
21,0,$3,$4,0,0,135*
%
*
*
G04 Annular Aperture macro.*
%AMANN*
1,1,$1,0,0*
1,0,$2,0,0*
%
*
*
G04 Odd Aperture macro.*
%AMODD*
1,1,$1,0,0*
1,0,$1-0.005,0,0*
%
*
*
G04 PC Custom Aperture Macros*
*
*
*
*
*
*
G04 PC Aperture Table*
*
%ADD010C,0.001*%
%ADD023C,0.01*%
*
*
*
*
G04 PC Circuitry*
G04 Layer Name ICE(for8520)-5.pcb - circuitry*
%LPD*%
*
*
G04 PC Custom Flashes*
G04 Layer Name ICE(for8520)-5.pcb - flashes*
%LPD*%
*
*
G04 PC Circuitry*
G04 Layer Name ICE(for8520)-5.pcb - circuitry*
%LPD*%
*
G54D10*
G54D23*
G01X191000Y245000D02*
X199000D01*
X195000Y241000D02*
Y249000D01*
X191000Y235000D02*
X199000D01*
X195000Y231000D02*
Y239000D01*
X191000Y225000D02*
X199000D01*
X195000Y221000D02*
Y229000D01*
X91000Y126000D02*
X99000Y134000D01*
X91000D02*
X99000Y126000D01*
X91000Y136000D02*
X99000Y144000D01*
X91000D02*
X99000Y136000D01*
X91000Y146000D02*
X99000Y154000D01*
X91000D02*
X99000Y146000D01*
X91000Y156000D02*
X99000Y164000D01*
X91000D02*
X99000Y156000D01*
X91000Y166000D02*
X99000Y174000D01*
X91000D02*
X99000Y166000D01*
X81000D02*
X89000Y174000D01*
X81000D02*
X89000Y166000D01*
X81000Y156000D02*
X89000Y164000D01*
X81000D02*
X89000Y156000D01*
X81000Y146000D02*
X89000Y154000D01*
X81000D02*
X89000Y146000D01*
X81000Y136000D02*
X89000Y144000D01*
X81000D02*
X89000Y136000D01*
X81000Y126000D02*
X89000Y134000D01*
X81000D02*
X89000Y126000D01*
X191000Y80000D02*
X199000D01*
X195000Y76000D02*
Y84000D01*
X191000Y70000D02*
X199000D01*
X195000Y66000D02*
Y74000D01*
X191000Y60000D02*
X199000D01*
X195000Y56000D02*
Y64000D01*
X171000Y181000D02*
X179000D01*
Y189000*
X171000*
Y181000*
X175000Y185000D02*
Y189000D01*
X171000Y171000D02*
X179000D01*
Y179000*
X171000*
Y171000*
X175000Y175000D02*
Y179000D01*
X171000Y161000D02*
X179000D01*
Y169000*
X171000*
Y161000*
X175000Y165000D02*
Y169000D01*
X171000Y151000D02*
X179000D01*
Y159000*
X171000*
Y151000*
X175000Y155000D02*
Y159000D01*
X171000Y141000D02*
X179000D01*
Y149000*
X171000*
Y141000*
X175000Y145000D02*
Y149000D01*
X171000Y131000D02*
X179000D01*
Y139000*
X171000*
Y131000*
X175000Y135000D02*
Y139000D01*
X171000Y121000D02*
X179000D01*
Y129000*
X171000*
Y121000*
X175000Y125000D02*
Y129000D01*
X171000Y111000D02*
X179000D01*
Y119000*
X171000*
Y111000*
X175000Y115000D02*
Y119000D01*
X181000Y181000D02*
X189000D01*
Y189000*
X181000*
Y181000*
X185000Y185000D02*
Y189000D01*
X181000Y171000D02*
X189000D01*
Y179000*
X181000*
Y171000*
X185000Y175000D02*
Y179000D01*
X181000Y161000D02*
X189000D01*
Y169000*
X181000*
Y161000*
X185000Y165000D02*
Y169000D01*
X181000Y151000D02*
X189000D01*
Y159000*
X181000*
Y151000*
X185000Y155000D02*
Y159000D01*
X181000Y141000D02*
X189000D01*
Y149000*
X181000*
Y141000*
X185000Y145000D02*
Y149000D01*
X181000Y131000D02*
X189000D01*
Y139000*
X181000*
Y131000*
X185000Y135000D02*
Y139000D01*
X181000Y121000D02*
X189000D01*
Y129000*
X181000*
Y121000*
X185000Y125000D02*
Y129000D01*
X181000Y111000D02*
X189000D01*
Y119000*
X181000*
Y111000*
X185000Y115000D02*
Y119000D01*
X119000Y106000D02*
X127000Y114000D01*
X119000D02*
X127000Y106000D01*
X139000D02*
X147000Y114000D01*
X139000D02*
X147000Y106000D01*
X100500Y77200D02*
X104500Y81200D01*
X100500Y85200*
X96500Y81200*
X100500Y77200*
Y81200D02*
Y85200D01*
X166600Y102100D02*
X170600Y106100D01*
X166600Y110100*
X162600Y106100*
X166600Y102100*
Y106100D02*
Y110100D01*
X147800Y95600D02*
X151800Y99600D01*
X147800Y103600*
X143800Y99600*
X147800Y95600*
Y99600D02*
Y103600D01*
X110400Y117500D02*
X114400Y121500D01*
X110400Y125500*
X106400Y121500*
X110400Y117500*
Y121500D02*
Y125500D01*
X133400Y157300D02*
X137400Y161300D01*
X133400Y165300*
X129400Y161300*
X133400Y157300*
Y161300D02*
Y165300D01*
X135000Y153100D02*
X139000Y157100D01*
X135000Y161100*
X131000Y157100*
X135000Y153100*
Y157100D02*
Y161100D01*
X125900Y112600D02*
X129900Y116600D01*
X125900Y120600*
X121900Y116600*
X125900Y112600*
Y116600D02*
Y120600D01*
X135000Y146400D02*
X139000Y150400D01*
X135000Y154400*
X131000Y150400*
X135000Y146400*
Y150400D02*
Y154400D01*
X129400Y109100D02*
X133400Y113100D01*
X129400Y117100*
X125400Y113100*
X129400Y109100*
Y113100D02*
Y117100D01*
X135200Y142200D02*
X139200Y146200D01*
X135200Y150200*
X131200Y146200*
X135200Y142200*
Y146200D02*
Y150200D01*
X122000Y117300D02*
X126000Y121300D01*
X122000Y125300*
X118000Y121300*
X122000Y117300*
Y121300D02*
Y125300D01*
X124800Y142300D02*
X128800Y146300D01*
X124800Y150300*
X120800Y146300*
X124800Y142300*
Y146300D02*
Y150300D01*
X114700Y124100D02*
X118700Y128100D01*
X114700Y132100*
X110700Y128100*
X114700Y124100*
Y128100D02*
Y132100D01*
X111400Y144600D02*
X115400Y148600D01*
X111400Y152600*
X107400Y148600*
X111400Y144600*
Y148600D02*
Y152600D01*
X112500Y149700D02*
X116500Y153700D01*
X112500Y157700*
X108500Y153700*
X112500Y149700*
Y153700D02*
Y157700D01*
X128700Y164500D02*
X132700Y168500D01*
X128700Y172500*
X124700Y168500*
X128700Y164500*
Y168500D02*
Y172500D01*
Y158000D02*
X132700Y162000D01*
X128700Y166000*
X124700Y162000*
X128700Y158000*
Y162000D02*
Y166000D01*
X136500Y163700D02*
X140500Y167700D01*
X136500Y171700*
X132500Y167700*
X136500Y163700*
Y167700D02*
Y171700D01*
X137500Y181100D02*
X141500Y185100D01*
X137500Y189100*
X133500Y185100*
X137500Y181100*
Y185100D02*
Y189100D01*
X117300Y113500D02*
X121300Y117500D01*
X117300Y121500*
X113300Y117500*
X117300Y113500*
Y117500D02*
Y121500D01*
X112500Y153900D02*
X116500Y157900D01*
X112500Y161900*
X108500Y157900*
X112500Y153900*
Y157900D02*
Y161900D01*
X147500Y138500D02*
X151500Y142500D01*
X147500Y146500*
X143500Y142500*
X147500Y138500*
Y142500D02*
Y146500D01*
Y156000D02*
X151500Y160000D01*
X147500Y164000*
X143500Y160000*
X147500Y156000*
Y160000D02*
Y164000D01*
Y151000D02*
X151500Y155000D01*
X147500Y159000*
X143500Y155000*
X147500Y151000*
Y155000D02*
Y159000D01*
X159900Y112600D02*
X163900Y116600D01*
X159900Y120600*
X155900Y116600*
X159900Y112600*
Y116600D02*
Y120600D01*
X169400Y106000D02*
X173400Y110000D01*
X169400Y114000*
X165400Y110000*
X169400Y106000*
Y110000D02*
Y114000D01*
X169100Y145000D02*
X173100Y149000D01*
X169100Y153000*
X165100Y149000*
X169100Y145000*
Y149000D02*
Y153000D01*
X151400Y141000D02*
X155400Y145000D01*
X151400Y149000*
X147400Y145000*
X151400Y141000*
Y145000D02*
Y149000D01*
X161700Y148600D02*
X165700Y152600D01*
X161700Y156600*
X157700Y152600*
X161700Y148600*
Y152600D02*
Y156600D01*
X162800Y165000D02*
X166800Y169000D01*
X162800Y173000*
X158800Y169000*
X162800Y165000*
Y169000D02*
Y173000D01*
X156000Y125700D02*
X160000Y129700D01*
X156000Y133700*
X152000Y129700*
X156000Y125700*
Y129700D02*
Y133700D01*
X165200Y106300D02*
X169200Y110300D01*
X165200Y114300*
X161200Y110300*
X165200Y106300*
Y110300D02*
Y114300D01*
X150700Y158700D02*
X154700Y162700D01*
X150700Y166700*
X146700Y162700*
X150700Y158700*
Y162700D02*
Y166700D01*
X133600Y197400D02*
X137600Y201400D01*
X133600Y205400*
X129600Y201400*
X133600Y197400*
Y201400D02*
Y205400D01*
X124100Y245100D02*
X128100Y249100D01*
X124100Y253100*
X120100Y249100*
X124100Y245100*
Y249100D02*
Y253100D01*
X135700Y221600D02*
X139700Y225600D01*
X135700Y229600*
X131700Y225600*
X135700Y221600*
Y225600D02*
Y229600D01*
X112500Y188700D02*
X116500Y192700D01*
X112500Y196700*
X108500Y192700*
X112500Y188700*
Y192700D02*
Y196700D01*
X155500Y197200D02*
X159500Y201200D01*
X155500Y205200*
X151500Y201200*
X155500Y197200*
Y201200D02*
Y205200D01*
X174600Y197200D02*
X178600Y201200D01*
X174600Y205200*
X170600Y201200*
X174600Y197200*
Y201200D02*
Y205200D01*
X153200Y201300D02*
X157200Y205300D01*
X153200Y209300*
X149200Y205300*
X153200Y201300*
Y205300D02*
Y209300D01*
X177300Y201300D02*
X181300Y205300D01*
X177300Y209300*
X173300Y205300*
X177300Y201300*
Y205300D02*
Y209300D01*
X152600Y188900D02*
X156600Y192900D01*
X152600Y196900*
X148600Y192900*
X152600Y188900*
Y192900D02*
Y196900D01*
X187400Y246400D02*
X191400Y250400D01*
X187400Y254400*
X183400Y250400*
X187400Y246400*
Y250400D02*
Y254400D01*
X147000Y188700D02*
X151000Y192700D01*
X147000Y196700*
X143000Y192700*
X147000Y188700*
Y192700D02*
Y196700D01*
X65300Y47000D02*
X205000D01*
Y253000*
X65300*
Y47000*
X80981Y190057D02*
G75*
G03X80981I-5956J0D01*
G01X81028Y109778D02*
G03X81028I-6154J0D01*
G01X100000Y270000D02*
X358000D01*
X100000Y246000D02*
X358000D01*
X100000Y222000D02*
X358000D01*
X100000Y198000D02*
X358000D01*
X100000Y174000D02*
X358000D01*
X100000Y150000D02*
X358000D01*
X100000Y270000D02*
Y150000D01*
X184000Y270000D02*
Y150000D01*
X220000Y270000D02*
Y150000D01*
X256000Y270000D02*
Y150000D01*
X310000Y270000D02*
Y150000D01*
X358000Y270000D02*
Y150000D01*
X135500Y258750D02*
X134955Y259500D01*
X134136Y259875*
X133045*
X132227Y259500*
X131682Y258750*
Y258000*
X131955Y257250*
X132227Y256875*
X132773Y256500*
X134409Y255750*
X134955Y255375*
X135227Y255000*
X135500Y254250*
Y253125*
X134955Y252375*
X134136Y252000*
X133045*
X132227Y252375*
X131682Y253125*
X137955Y259875D02*
Y252000D01*
X144227Y259875D02*
X140409Y252000D01*
Y259875D02*
X144227D01*
X140409Y252000D02*
X144227D01*
X146682Y259875D02*
Y252000D01*
Y259875D02*
X150227D01*
X146682Y256125D02*
X148864D01*
X146682Y252000D02*
X150227D01*
X193864Y259875D02*
X193318Y259500D01*
X192773Y258750*
X192500Y258000*
X192227Y256875*
Y255000*
X192500Y253875*
X192773Y253125*
X193318Y252375*
X193864Y252000*
X194955*
X195500Y252375*
X196045Y253125*
X196318Y253875*
X196591Y255000*
Y256875*
X196318Y258000*
X196045Y258750*
X195500Y259500*
X194955Y259875*
X193864*
X194682Y253500D02*
X196318Y251250D01*
X200955Y259875D02*
Y252000D01*
X199045Y259875D02*
X202864D01*
X205318D02*
X207500Y256125D01*
Y252000*
X209682Y259875D02*
X207500Y256125D01*
X232045Y258750D02*
X231500Y259500D01*
X230682Y259875*
X229591*
X228773Y259500*
X228227Y258750*
Y258000*
X228500Y257250*
X228773Y256875*
X229318Y256500*
X230955Y255750*
X231500Y255375*
X231773Y255000*
X232045Y254250*
Y253125*
X231500Y252375*
X230682Y252000*
X229591*
X228773Y252375*
X228227Y253125*
X234500Y259875D02*
X236682Y256125D01*
Y252000*
X238864Y259875D02*
X236682Y256125D01*
X241318Y259875D02*
Y252000D01*
Y259875D02*
X243500Y252000D01*
X245682Y259875D02*
X243500Y252000D01*
X245682Y259875D02*
Y252000D01*
X267500Y259875D02*
Y252000D01*
Y259875D02*
X269955D01*
X270773Y259500*
X271045Y259125*
X271318Y258375*
Y257250*
X271045Y256500*
X270773Y256125*
X269955Y255750*
X267500*
X273773Y259875D02*
Y252000D01*
X277045*
X281682Y259875D02*
X279500Y252000D01*
X281682Y259875D02*
X283864Y252000D01*
X280318Y254625D02*
X283045D01*
X288227Y259875D02*
Y252000D01*
X286318Y259875D02*
X290136D01*
X292591D02*
Y252000D01*
Y259875D02*
X296136D01*
X292591Y256125D02*
X294773D01*
X292591Y252000D02*
X296136D01*
X298591Y259875D02*
Y252000D01*
Y259875D02*
X300500D01*
X301318Y259500*
X301864Y258750*
X302136Y258000*
X302409Y256875*
Y255000*
X302136Y253875*
X301864Y253125*
X301318Y252375*
X300500Y252000*
X298591*
X326682Y259875D02*
Y252000D01*
X324773Y259875D02*
X328591D01*
X332682D02*
X332136Y259500D01*
X331591Y258750*
X331318Y258000*
X331045Y256875*
Y255000*
X331318Y253875*
X331591Y253125*
X332136Y252375*
X332682Y252000*
X333773*
X334318Y252375*
X334864Y253125*
X335136Y253875*
X335409Y255000*
Y256875*
X335136Y258000*
X334864Y258750*
X334318Y259500*
X333773Y259875*
X332682*
X337864D02*
Y252000D01*
X341136*
X106545Y235875D02*
X109545D01*
X107909Y232875*
X108727*
X109273Y232500*
X109545Y232125*
X109818Y231000*
Y230250*
X109545Y229125*
X109000Y228375*
X108182Y228000*
X107364*
X106545Y228375*
X106273Y228750*
X106000Y229500*
X115818Y235875D02*
X113091D01*
X112818Y232500*
X113091Y232875*
X113909Y233250*
X114727*
X115545Y232875*
X116091Y232125*
X116364Y231000*
X116091Y230250*
X115818Y229125*
X115273Y228375*
X114455Y228000*
X113636*
X112818Y228375*
X112545Y228750*
X112273Y229500*
X202455Y234750D02*
X202182Y235500D01*
X201364Y235875*
X200818*
X200000Y235500*
X199455Y234375*
X199182Y232500*
Y230625*
X199455Y229125*
X200000Y228375*
X200818Y228000*
X201091*
X201909Y228375*
X202455Y229125*
X202727Y230250*
Y230625*
X202455Y231750*
X201909Y232500*
X201091Y232875*
X200818*
X200000Y232500*
X199455Y231750*
X199182Y230625*
X232000Y234000D02*
X244000D01*
X238000Y228000D02*
Y240000D01*
X264636Y235875D02*
X266818Y232125D01*
Y228000*
X269000Y235875D02*
X266818Y232125D01*
X271455Y235875D02*
Y228000D01*
Y235875D02*
X275000D01*
X271455Y232125D02*
X273636D01*
X271455Y228000D02*
X275000D01*
X281273Y234750D02*
X280727Y235500D01*
X279909Y235875*
X278818*
X278000Y235500*
X277455Y234750*
Y234000*
X277727Y233250*
X278000Y232875*
X278545Y232500*
X280182Y231750*
X280727Y231375*
X281000Y231000*
X281273Y230250*
Y229125*
X280727Y228375*
X279909Y228000*
X278818*
X278000Y228375*
X277455Y229125*
X317818Y234750D02*
Y228000D01*
X315364Y231375D02*
X320273D01*
X327636Y237375D02*
X322727Y225375D01*
X330091Y231375D02*
X335000D01*
X339091Y235875D02*
X338273Y235500D01*
X337727Y234375*
X337455Y232500*
Y231375*
X337727Y229500*
X338273Y228375*
X339091Y228000*
X339636*
X340455Y228375*
X341000Y229500*
X341273Y231375*
Y232500*
X341000Y234375*
X340455Y235500*
X339636Y235875*
X339091*
X344000Y228750D02*
X343727Y228375D01*
X344000Y228000*
X344273Y228375*
X344000Y228750*
X348364Y235875D02*
X347545Y235500D01*
X347000Y234375*
X346727Y232500*
Y231375*
X347000Y229500*
X347545Y228375*
X348364Y228000*
X348909*
X349727Y228375*
X350273Y229500*
X350545Y231375*
Y232500*
X350273Y234375*
X349727Y235500*
X348909Y235875*
X348364*
X106545Y211875D02*
X109545D01*
X107909Y208875*
X108727*
X109273Y208500*
X109545Y208125*
X109818Y207000*
Y206250*
X109545Y205125*
X109000Y204375*
X108182Y204000*
X107364*
X106545Y204375*
X106273Y204750*
X106000Y205500*
X115818Y209250D02*
X115545Y208125D01*
X115000Y207375*
X114182Y207000*
X113909*
X113091Y207375*
X112545Y208125*
X112273Y209250*
Y209625*
X112545Y210750*
X113091Y211500*
X113909Y211875*
X114182*
X115000Y211500*
X115545Y210750*
X115818Y209250*
Y207375*
X115545Y205500*
X115000Y204375*
X114182Y204000*
X113636*
X112818Y204375*
X112545Y205125*
X118545Y204750D02*
X118273Y204375D01*
X118545Y204000*
X118818Y204375*
X118545Y204750*
X121818Y211875D02*
X124818D01*
X123182Y208875*
X124000*
X124545Y208500*
X124818Y208125*
X125091Y207000*
Y206250*
X124818Y205125*
X124273Y204375*
X123455Y204000*
X122636*
X121818Y204375*
X121545Y204750*
X121273Y205500*
X131364Y211875D02*
X128636Y204000D01*
X127545Y211875D02*
X131364D01*
X197136Y210375D02*
X197682Y210750D01*
X198500Y211875*
Y204000*
X201227Y210000D02*
Y210375D01*
X201500Y211125*
X201773Y211500*
X202318Y211875*
X203409*
X203955Y211500*
X204227Y211125*
X204500Y210375*
Y209625*
X204227Y208875*
X203682Y207750*
X200955Y204000*
X204773*
X232000D02*
X244000Y216000D01*
X232000D02*
X244000Y204000D01*
X264636Y211875D02*
X266818Y208125D01*
Y204000*
X269000Y211875D02*
X266818Y208125D01*
X271455Y211875D02*
Y204000D01*
Y211875D02*
X275000D01*
X271455Y208125D02*
X273636D01*
X271455Y204000D02*
X275000D01*
X281273Y210750D02*
X280727Y211500D01*
X279909Y211875*
X278818*
X278000Y211500*
X277455Y210750*
Y210000*
X277727Y209250*
X278000Y208875*
X278545Y208500*
X280182Y207750*
X280727Y207375*
X281000Y207000*
X281273Y206250*
Y205125*
X280727Y204375*
X279909Y204000*
X278818*
X278000Y204375*
X277455Y205125*
X317818Y210750D02*
Y204000D01*
X315364Y207375D02*
X320273D01*
X327636Y213375D02*
X322727Y201375D01*
X330091Y207375D02*
X335000D01*
X339091Y211875D02*
X338273Y211500D01*
X337727Y210375*
X337455Y208500*
Y207375*
X337727Y205500*
X338273Y204375*
X339091Y204000*
X339636*
X340455Y204375*
X341000Y205500*
X341273Y207375*
Y208500*
X341000Y210375*
X340455Y211500*
X339636Y211875*
X339091*
X344000Y204750D02*
X343727Y204375D01*
X344000Y204000*
X344273Y204375*
X344000Y204750*
X348364Y211875D02*
X347545Y211500D01*
X347000Y210375*
X346727Y208500*
Y207375*
X347000Y205500*
X347545Y204375*
X348364Y204000*
X348909*
X349727Y204375*
X350273Y205500*
X350545Y207375*
Y208500*
X350273Y210375*
X349727Y211500*
X348909Y211875*
X348364*
X108727Y187875D02*
X106000Y182625D01*
X110091*
X108727Y187875D02*
Y180000D01*
X116364Y187875D02*
X113636Y180000D01*
X112545Y187875D02*
X116364D01*
X119091Y180750D02*
X118818Y180375D01*
X119091Y180000*
X119364Y180375*
X119091Y180750*
X122091Y186000D02*
Y186375D01*
X122364Y187125*
X122636Y187500*
X123182Y187875*
X124273*
X124818Y187500*
X125091Y187125*
X125364Y186375*
Y185625*
X125091Y184875*
X124545Y183750*
X121818Y180000*
X125636*
X130818Y187875D02*
X128091Y182625D01*
X132182*
X130818Y187875D02*
Y180000D01*
X197273Y186375D02*
X197818Y186750D01*
X198636Y187875*
Y180000*
X204364Y186750D02*
X204091Y187500D01*
X203273Y187875*
X202727*
X201909Y187500*
X201364Y186375*
X201091Y184500*
Y182625*
X201364Y181125*
X201909Y180375*
X202727Y180000*
X203000*
X203818Y180375*
X204364Y181125*
X204636Y182250*
Y182625*
X204364Y183750*
X203818Y184500*
X203000Y184875*
X202727*
X201909Y184500*
X201364Y183750*
X201091Y182625*
X232000Y180000D02*
X244000D01*
Y192000*
X232000*
Y180000*
X238000Y186000D02*
Y192000D01*
X264636Y187875D02*
X266818Y184125D01*
Y180000*
X269000Y187875D02*
X266818Y184125D01*
X271455Y187875D02*
Y180000D01*
Y187875D02*
X275000D01*
X271455Y184125D02*
X273636D01*
X271455Y180000D02*
X275000D01*
X281273Y186750D02*
X280727Y187500D01*
X279909Y187875*
X278818*
X278000Y187500*
X277455Y186750*
Y186000*
X277727Y185250*
X278000Y184875*
X278545Y184500*
X280182Y183750*
X280727Y183375*
X281000Y183000*
X281273Y182250*
Y181125*
X280727Y180375*
X279909Y180000*
X278818*
X278000Y180375*
X277455Y181125*
X317818Y186750D02*
Y180000D01*
X315364Y183375D02*
X320273D01*
X327636Y189375D02*
X322727Y177375D01*
X330091Y183375D02*
X335000D01*
X339091Y187875D02*
X338273Y187500D01*
X337727Y186375*
X337455Y184500*
Y183375*
X337727Y181500*
X338273Y180375*
X339091Y180000*
X339636*
X340455Y180375*
X341000Y181500*
X341273Y183375*
Y184500*
X341000Y186375*
X340455Y187500*
X339636Y187875*
X339091*
X344000Y180750D02*
X343727Y180375D01*
X344000Y180000*
X344273Y180375*
X344000Y180750*
X348364Y187875D02*
X347545Y187500D01*
X347000Y186375*
X346727Y184500*
Y183375*
X347000Y181500*
X347545Y180375*
X348364Y180000*
X348909*
X349727Y180375*
X350273Y181500*
X350545Y183375*
Y184500*
X350273Y186375*
X349727Y187500*
X348909Y187875*
X348364*
X106000Y162375D02*
X106545Y162750D01*
X107364Y163875*
Y156000*
X113364Y163875D02*
X110636D01*
X110364Y160500*
X110636Y160875*
X111455Y161250*
X112273*
X113091Y160875*
X113636Y160125*
X113909Y159000*
X113636Y158250*
X113364Y157125*
X112818Y156375*
X112000Y156000*
X111182*
X110364Y156375*
X110091Y156750*
X109818Y157500*
X116636Y156750D02*
X116364Y156375D01*
X116636Y156000*
X116909Y156375*
X116636Y156750*
X123182Y163875D02*
X120455Y156000D01*
X119364Y163875D02*
X123182D01*
X129182D02*
X126455D01*
X126182Y160500*
X126455Y160875*
X127273Y161250*
X128091*
X128909Y160875*
X129455Y160125*
X129727Y159000*
X129455Y158250*
X129182Y157125*
X128636Y156375*
X127818Y156000*
X127000*
X126182Y156375*
X125909Y156750*
X125636Y157500*
X198364Y163875D02*
X195636Y158625D01*
X199727*
X198364Y163875D02*
Y156000D01*
X204909Y163875D02*
X202182Y158625D01*
X206273*
X204909Y163875D02*
Y156000D01*
X238000D02*
X244000Y162000D01*
X238000Y168000*
X232000Y162000*
X238000Y156000*
Y162000D02*
Y168000D01*
X264636Y163875D02*
X266818Y160125D01*
Y156000*
X269000Y163875D02*
X266818Y160125D01*
X271455Y163875D02*
Y156000D01*
Y163875D02*
X275000D01*
X271455Y160125D02*
X273636D01*
X271455Y156000D02*
X275000D01*
X281273Y162750D02*
X280727Y163500D01*
X279909Y163875*
X278818*
X278000Y163500*
X277455Y162750*
Y162000*
X277727Y161250*
X278000Y160875*
X278545Y160500*
X280182Y159750*
X280727Y159375*
X281000Y159000*
X281273Y158250*
Y157125*
X280727Y156375*
X279909Y156000*
X278818*
X278000Y156375*
X277455Y157125*
X317818Y162750D02*
Y156000D01*
X315364Y159375D02*
X320273D01*
X327636Y165375D02*
X322727Y153375D01*
X330091Y159375D02*
X335000D01*
X339091Y163875D02*
X338273Y163500D01*
X337727Y162375*
X337455Y160500*
Y159375*
X337727Y157500*
X338273Y156375*
X339091Y156000*
X339636*
X340455Y156375*
X341000Y157500*
X341273Y159375*
Y160500*
X341000Y162375*
X340455Y163500*
X339636Y163875*
X339091*
X344000Y156750D02*
X343727Y156375D01*
X344000Y156000*
X344273Y156375*
X344000Y156750*
X348364Y163875D02*
X347545Y163500D01*
X347000Y162375*
X346727Y160500*
Y159375*
X347000Y157500*
X347545Y156375*
X348364Y156000*
X348909*
X349727Y156375*
X350273Y157500*
X350545Y159375*
Y160500*
X350273Y162375*
X349727Y163500*
X348909Y163875*
X348364*
G74*
X0Y0D02*
M02*
