M48
;FILE_FORMAT=2:4
INCH,LZ
FMAT,2
ICI,OFF
;TYPE=PLATED
T1C.01575
T2C.035
T3C.03937
T4C.04724
%
M72
G90
G93X0Y0
T1C.01575F095S3
X01005Y00812
X01294Y01131
X01259Y01166
X01173Y01175
X0122Y01213
X01104Y01215
X01147Y01281
X01248Y01463
X01114Y01486
X01125Y01537
X01125Y01579
X01334Y01613
X01287Y0162
X01287Y01685
X01125Y01927
X01336Y02014
X01241Y02491
X01357Y02256
X01532Y02053
X01555Y02012
X01526Y01929
X0147Y01927
X01375Y01851
X01365Y01677
X01507Y01627
X01475Y016
X0135Y01571
X01475Y0155
X0135Y01504
X01352Y01462
X01514Y0145
X01475Y01425
X0156Y01297
X01599Y01166
X01478Y00996
X01666Y01061
X01694Y011
X01652Y01103
X01691Y0149
X01617Y01526
X01628Y0169
X01746Y02012
X01773Y02053
X01874Y02504
T2C.035F197S55
X0195Y006
X0195Y007
X0195Y008
X0195Y0225
X0195Y0235
X0195Y0245
T3C.03937F197S55
X0095Y013
X0085Y013
X0085Y014
X0095Y014
X0085Y015
X0095Y015
X0085Y016
X0095Y016
X0085Y017
X0095Y017
X0123Y011
X0143Y011
T4C.04724F139S55
X0175Y0115
X0175Y0125
X0175Y0135
X0175Y0145
X0175Y0155
X0175Y0165
X0175Y0175
X0175Y0185
X0185Y0185
X0185Y0175
X0185Y0165
X0185Y0155
X0185Y0145
X0185Y0135
X0185Y0125
X0185Y0115
M30
