*
*
G04 PADS VX.2.4 Build Number: 11282995 generated Gerber (RS-274-X) file*
G04 PC Version=2.1*
*
%IN "ICE(for8520)-5.pcb"*%
*
%MOIN*%
*
%FSLAX35Y35*%
*
*
*
*
G04 PC Standard Apertures*
*
*
G04 Thermal Relief Aperture macro.*
%AMTER*
1,1,$1,0,0*
1,0,$1-$2,0,0*
21,0,$3,$4,0,0,45*
21,0,$3,$4,0,0,135*
%
*
*
G04 Annular Aperture macro.*
%AMANN*
1,1,$1,0,0*
1,0,$2,0,0*
%
*
*
G04 Odd Aperture macro.*
%AMODD*
1,1,$1,0,0*
1,0,$1-0.005,0,0*
%
*
*
G04 PC Custom Aperture Macros*
*
*
*
*
*
*
G04 PC Aperture Table*
*
%ADD010C,0.001*%
%ADD022C,0.02*%
%ADD023C,0.01*%
%ADD024C,0.00787*%
%ADD057C,0.00787*%
*
*
*
*
G04 PC Circuitry*
G04 Layer Name ICE(for8520)-5.pcb - circuitry*
%LPD*%
*
G54D10*
G01X197287Y113858D02*
X197247Y114179D01*
X197088Y114417*
X196850Y114576*
X196525Y114616*
X196154Y114575*
X195862Y114450*
X195792Y114496*
Y114581*
X195793Y114593*
X195879Y114935*
X195884Y114948*
X196055Y115247*
X196073Y115266*
X196373Y115437*
X196392Y115443*
X196820Y115486*
X196825*
X197074*
Y115685*
X196870*
X196368Y115643*
X196042Y115480*
X195798Y115235*
X195633Y114906*
X195549Y114573*
X195507Y114151*
Y113860*
X195548Y113655*
X195629Y113452*
X195752Y113289*
X195874Y113167*
X195990Y113090*
X196397Y113008*
X196764Y113090*
X197045Y113250*
X197205Y113532*
X197287Y113858*
X197003Y113812D02*
X197003D01*
X197002Y113802*
X196959Y113588*
X196953Y113573*
X196825Y113359*
X196810Y113343*
X196682Y113258*
X196662Y113250*
X196406Y113207*
X196388*
X196174Y113250*
X196153Y113260*
X195939Y113431*
X195923Y113454*
X195837Y113711*
X195836Y113717*
X195793Y113930*
X195792Y113940*
Y114197*
X195826Y114244*
X195948Y114285*
X196071Y114366*
X196086Y114373*
X196257Y114416*
X196269Y114418*
X196440*
X196450Y114417*
X196664Y114374*
X196684Y114365*
X196855Y114237*
X196866Y114224*
X196952Y114096*
X196960Y114077*
X197002Y113820*
X197003Y113812*
X197245Y123292D02*
X196013D01*
X195963Y123342*
X195977Y123377*
X196446Y123846*
X196744Y124186*
X196954Y124438*
X197076Y124682*
X197116Y124966*
X197076Y125290*
X196918Y125527*
X196637Y125687*
X196355Y125727*
X196110Y125686*
X195865Y125605*
X195572Y125385*
X195720Y125207*
X195938Y125389*
X195956Y125399*
X196255Y125484*
X196279Y125485*
X196493Y125442*
X196511Y125435*
X196639Y125349*
X196656Y125330*
X196741Y125159*
X196745Y125149*
X196788Y124978*
X196789Y124966*
Y124752*
X196786Y124734*
X196700Y124520*
X196693Y124507*
X196522Y124294*
X196518Y124289*
X196220Y123991*
X195550Y123279*
Y123050*
X197245*
Y123292*
Y133292D02*
X196697D01*
X196647Y133342*
Y135685*
X196368*
X195564Y135243*
X195650Y135041*
X196241Y135435*
X196319Y135393*
Y133342*
X196269Y133292*
X195635*
Y133050*
X197245*
Y133292*
X197330Y144702D02*
X197247Y144992D01*
X197083Y145404*
X196761Y145646*
X196396Y145727*
X196151Y145686*
X195994Y145647*
X195671Y145364*
X195506Y144911*
X195422Y144364*
Y144033*
X195505Y143741*
X195589Y143489*
X195669Y143329*
X195829Y143169*
X195987Y143090*
X196356Y143008*
X196602Y143049*
X196804Y143090*
X196960Y143207*
X197081Y143368*
X197288Y143783*
X197330Y144369*
Y144702*
X197046Y144624D02*
Y144325D01*
Y144320*
X197003Y143850*
X197000Y143837*
X196872Y143495*
X196860Y143477*
X196689Y143307*
X196670Y143294*
X196413Y143209*
X196388Y143207*
X196174Y143250*
X196161Y143254*
X195990Y143340*
X195968Y143362*
X195883Y143533*
X195881Y143537*
X195795Y143751*
X195792Y143769*
X195812Y143809*
X196966Y144664*
X197046Y144624*
X196960Y144966D02*
X196960D01*
X196940Y144926*
X195786Y144071*
X195706Y144111*
Y144368*
X195707Y144372*
X195749Y144842*
X195752Y144855*
X195881Y145197*
X195892Y145215*
X196106Y145429*
X196125Y145441*
X196382Y145526*
X196410Y145527*
X196581Y145484*
X196581D02*
X196591Y145481D01*
X196762Y145395*
X196784Y145373*
X196870Y145202*
X196871Y145198*
X196957Y144984*
X196960Y144966*
X197245Y153292D02*
X196013D01*
X195963Y153342*
X195977Y153377*
X196446Y153846*
X196744Y154186*
X196954Y154438*
X197076Y154682*
X197116Y154966*
X197076Y155290*
X196918Y155527*
X196637Y155687*
X196355Y155727*
X196110Y155686*
X195865Y155605*
X195572Y155385*
X195720Y155207*
X195938Y155389*
X195956Y155399*
X196255Y155484*
X196279Y155485*
X196493Y155442*
X196511Y155435*
X196639Y155349*
X196656Y155330*
X196741Y155159*
X196745Y155149*
X196788Y154978*
X196789Y154966*
Y154752*
X196786Y154734*
X196700Y154520*
X196693Y154507*
X196522Y154294*
X196518Y154289*
X196220Y153991*
X195550Y153279*
Y153050*
X197245*
Y153292*
Y163292D02*
X196697D01*
X196647Y163342*
Y165685*
X196368*
X195564Y165243*
X195650Y165041*
X196241Y165435*
X196319Y165393*
Y163342*
X196269Y163292*
X195635*
Y163050*
X197245*
Y163292*
X197330Y174702D02*
X197247Y174992D01*
X197083Y175404*
X196761Y175646*
X196396Y175727*
X196151Y175686*
X195994Y175647*
X195671Y175364*
X195506Y174911*
X195422Y174364*
Y174033*
X195505Y173741*
X195589Y173489*
X195669Y173329*
X195829Y173169*
X195987Y173090*
X196356Y173008*
X196602Y173049*
X196804Y173090*
X196960Y173207*
X197081Y173368*
X197288Y173783*
X197330Y174369*
Y174702*
X197046Y174624D02*
Y174325D01*
Y174320*
X197003Y173850*
X197000Y173837*
X196872Y173495*
X196860Y173477*
X196689Y173307*
X196670Y173294*
X196413Y173209*
X196388Y173207*
X196174Y173250*
X196161Y173254*
X195990Y173340*
X195968Y173362*
X195883Y173533*
X195881Y173537*
X195795Y173751*
X195792Y173769*
X195812Y173809*
X196966Y174664*
X197046Y174624*
X196960Y174966D02*
X196960D01*
X196940Y174926*
X195786Y174071*
X195706Y174111*
Y174368*
X195707Y174372*
X195749Y174842*
X195752Y174855*
X195881Y175197*
X195892Y175215*
X196106Y175429*
X196125Y175441*
X196382Y175526*
X196410Y175527*
X196581Y175484*
X196581D02*
X196591Y175481D01*
X196762Y175395*
X196784Y175373*
X196870Y175202*
X196871Y175198*
X196957Y174984*
X196960Y174966*
X197373Y184409D02*
X197289Y184954D01*
X197207Y185199*
X197090Y185355*
X196679Y185602*
X196137Y185685*
X195465*
Y183050*
X196011*
X196473Y183092*
X196843Y183215*
X197085Y183417*
X197248Y183703*
X197331Y184035*
X197373Y184409*
X197046Y184667D02*
Y184368D01*
X197045Y184363*
X197003Y183935*
X196998Y183918*
X196827Y183576*
X196811Y183558*
X196512Y183344*
X196488Y183335*
X196061Y183292*
X196056*
X195799*
X195749Y183342*
Y185436*
X195799Y185486*
X196098*
X196103*
X196531Y185443*
X196558Y185432*
X196814Y185218*
X196825Y185204*
X196996Y184905*
X197002Y184890*
X197045Y184676*
X197046Y184667*
X194894Y115612D02*
X194636Y115686D01*
X194262Y115727*
X194013Y115686*
X193812Y115646*
X193445Y115360*
X193198Y114907*
X193156Y114659*
X193115Y114325*
X193198Y113739*
X193280Y113535*
X193401Y113333*
X193562Y113212*
X193769Y113088*
X194012Y113007*
X194258*
X194591Y113049*
X194894Y113163*
Y113394*
X194665Y113296*
X194652Y113292*
X194652D02*
X194310Y113250D01*
X194297*
X193955Y113292*
X193930Y113303*
X193673Y113517*
X193660Y113533*
X193489Y113875*
X193484Y113893*
X193442Y114363*
X193441Y114368*
X193441*
X193442Y114372*
X193442D02*
X193484Y114800D01*
X193489Y114817*
X193660Y115159*
X193673Y115175*
X193930Y115389*
X193949Y115399*
X194291Y115484*
X194310Y115486*
X194652Y115443*
X194652D02*
X194665Y115439D01*
X194894Y115341*
Y115612*
Y125612D02*
X194636Y125686D01*
X194262Y125727*
X194013Y125686*
X193812Y125646*
X193445Y125360*
X193198Y124907*
X193156Y124659*
X193115Y124325*
X193198Y123739*
X193280Y123535*
X193401Y123333*
X193562Y123212*
X193769Y123088*
X194012Y123007*
X194258*
X194591Y123049*
X194894Y123163*
Y123394*
X194665Y123296*
X194652Y123292*
X194652D02*
X194310Y123250D01*
X194297*
X193955Y123292*
X193930Y123303*
X193673Y123517*
X193660Y123533*
X193489Y123875*
X193484Y123893*
X193442Y124363*
X193441Y124368*
X193441*
X193442Y124372*
X193442D02*
X193484Y124800D01*
X193489Y124817*
X193660Y125159*
X193673Y125175*
X193930Y125389*
X193949Y125399*
X194291Y125484*
X194310Y125486*
X194652Y125443*
X194652D02*
X194665Y125439D01*
X194894Y125341*
Y125612*
Y135612D02*
X194636Y135686D01*
X194262Y135727*
X194013Y135686*
X193812Y135646*
X193445Y135360*
X193198Y134907*
X193156Y134659*
X193115Y134325*
X193198Y133739*
X193280Y133535*
X193401Y133333*
X193562Y133212*
X193769Y133088*
X194012Y133007*
X194258*
X194591Y133049*
X194894Y133163*
Y133394*
X194665Y133296*
X194652Y133292*
X194652D02*
X194310Y133250D01*
X194297*
X193955Y133292*
X193930Y133303*
X193673Y133517*
X193660Y133533*
X193489Y133875*
X193484Y133893*
X193442Y134363*
X193441Y134368*
X193441*
X193442Y134372*
X193442D02*
X193484Y134800D01*
X193489Y134817*
X193660Y135159*
X193673Y135175*
X193930Y135389*
X193949Y135399*
X194291Y135484*
X194310Y135486*
X194652Y135443*
X194652D02*
X194665Y135439D01*
X194894Y135341*
Y135612*
Y145612D02*
X194636Y145686D01*
X194262Y145727*
X194013Y145686*
X193812Y145646*
X193445Y145360*
X193198Y144907*
X193156Y144659*
X193115Y144325*
X193198Y143739*
X193280Y143535*
X193401Y143333*
X193562Y143212*
X193769Y143088*
X194012Y143007*
X194258*
X194591Y143049*
X194894Y143163*
Y143394*
X194665Y143296*
X194652Y143292*
X194652D02*
X194310Y143250D01*
X194297*
X193955Y143292*
X193930Y143303*
X193673Y143517*
X193660Y143533*
X193489Y143875*
X193484Y143893*
X193442Y144363*
X193441Y144368*
X193441*
X193442Y144372*
X193442D02*
X193484Y144800D01*
X193489Y144817*
X193660Y145159*
X193673Y145175*
X193930Y145389*
X193949Y145399*
X194291Y145484*
X194310Y145486*
X194652Y145443*
X194652D02*
X194665Y145439D01*
X194894Y145341*
Y145612*
X195132Y153050D02*
X194267Y155685D01*
X193827*
X192962Y153050*
X193240*
X193401Y153612*
X193449Y153648*
X194603*
X194651Y153612*
X194811Y153050*
X195132*
X194474Y153890D02*
X193577D01*
X193527Y153940*
X193527*
X193529Y153955*
X193999Y155451*
X194095Y155450*
X194522Y153954*
X194474Y153890*
X195132Y163050D02*
X194267Y165685D01*
X193827*
X192962Y163050*
X193240*
X193401Y163612*
X193449Y163648*
X194603*
X194651Y163612*
X194811Y163050*
X195132*
X194474Y163890D02*
X193577D01*
X193527Y163940*
X193527*
X193529Y163955*
X193999Y165451*
X194095Y165450*
X194522Y163954*
X194474Y163890*
X195132Y173050D02*
X194267Y175685D01*
X193827*
X192962Y173050*
X193240*
X193401Y173612*
X193449Y173648*
X194603*
X194651Y173612*
X194811Y173050*
X195132*
X194474Y173890D02*
X193577D01*
X193527Y173940*
X193527*
X193529Y173955*
X193999Y175451*
X194095Y175450*
X194522Y173954*
X194474Y173890*
X194894Y185685D02*
X194610D01*
Y183470*
X194513Y183452*
X194257Y184092*
X193586Y185685*
X193157*
Y183050*
X193441*
Y185265*
X193538Y185283*
X193751Y184728*
X194465Y183050*
X194894*
Y185685*
X192629Y115082D02*
X192552Y115237D01*
X192349Y115481*
X192024Y115643*
X191609Y115685*
X190892*
Y113050*
X191176*
Y113983*
X191226Y114033*
X191817*
X192060Y114114*
X192388Y114319*
X192589Y114600*
X192629Y114884*
Y115082*
X192302Y114880D02*
X192302D01*
X192301Y114872*
X192259Y114616*
X192252Y114598*
X192124Y114385*
X192100Y114364*
X191886Y114278*
X191875Y114275*
X191575Y114233*
X191568Y114232*
X191226*
X191176Y114282*
Y115436*
X191226Y115486*
X191611*
X191619Y115485*
X191876Y115442*
X191886Y115440*
X192100Y115354*
X192124Y115333*
X192252Y115120*
X192258Y115104*
X192301Y114890*
X192302Y114880*
X192629Y125082D02*
X192552Y125237D01*
X192349Y125481*
X192024Y125643*
X191609Y125685*
X190892*
Y123050*
X191176*
Y123983*
X191226Y124033*
X191817*
X192060Y124114*
X192388Y124319*
X192589Y124600*
X192629Y124884*
Y125082*
X192302Y124880D02*
X192302D01*
X192301Y124872*
X192259Y124616*
X192252Y124598*
X192124Y124385*
X192100Y124364*
X191886Y124278*
X191875Y124275*
X191575Y124233*
X191568Y124232*
X191226*
X191176Y124282*
Y125436*
X191226Y125486*
X191611*
X191619Y125485*
X191876Y125442*
X191886Y125440*
X192100Y125354*
X192124Y125333*
X192252Y125120*
X192258Y125104*
X192301Y124890*
X192302Y124880*
X192629Y135082D02*
X192552Y135237D01*
X192349Y135481*
X192024Y135643*
X191609Y135685*
X190892*
Y133050*
X191176*
Y133983*
X191226Y134033*
X191817*
X192060Y134114*
X192388Y134319*
X192589Y134600*
X192629Y134884*
Y135082*
X192302Y134880D02*
X192302D01*
X192301Y134872*
X192259Y134616*
X192252Y134598*
X192124Y134385*
X192100Y134364*
X191886Y134278*
X191875Y134275*
X191575Y134233*
X191568Y134232*
X191226*
X191176Y134282*
Y135436*
X191226Y135486*
X191611*
X191619Y135485*
X191876Y135442*
X191886Y135440*
X192100Y135354*
X192124Y135333*
X192252Y135120*
X192258Y135104*
X192301Y134890*
X192302Y134880*
X192629Y145082D02*
X192552Y145237D01*
X192349Y145481*
X192024Y145643*
X191609Y145685*
X190892*
Y143050*
X191176*
Y143983*
X191226Y144033*
X191817*
X192060Y144114*
X192388Y144319*
X192589Y144600*
X192629Y144884*
Y145082*
X192302Y144880D02*
X192302D01*
X192301Y144872*
X192259Y144616*
X192252Y144598*
X192124Y144385*
X192100Y144364*
X191886Y144278*
X191875Y144275*
X191575Y144233*
X191568Y144232*
X191226*
X191176Y144282*
Y145436*
X191226Y145486*
X191611*
X191619Y145485*
X191876Y145442*
X191886Y145440*
X192100Y145354*
X192124Y145333*
X192252Y145120*
X192258Y145104*
X192301Y144890*
X192302Y144880*
X192629Y155082D02*
X192552Y155237D01*
X192349Y155481*
X192024Y155643*
X191609Y155685*
X190892*
Y153050*
X191176*
Y153983*
X191226Y154033*
X191817*
X192060Y154114*
X192388Y154319*
X192589Y154600*
X192629Y154884*
Y155082*
X192302Y154880D02*
X192302D01*
X192301Y154872*
X192259Y154616*
X192252Y154598*
X192124Y154385*
X192100Y154364*
X191886Y154278*
X191875Y154275*
X191575Y154233*
X191568Y154232*
X191226*
X191176Y154282*
Y155436*
X191226Y155486*
X191611*
X191619Y155485*
X191876Y155442*
X191886Y155440*
X192100Y155354*
X192124Y155333*
X192252Y155120*
X192258Y155104*
X192301Y154890*
X192302Y154880*
X192629Y165082D02*
X192552Y165237D01*
X192349Y165481*
X192024Y165643*
X191609Y165685*
X190892*
Y163050*
X191176*
Y163983*
X191226Y164033*
X191817*
X192060Y164114*
X192388Y164319*
X192589Y164600*
X192629Y164884*
Y165082*
X192302Y164880D02*
X192302D01*
X192301Y164872*
X192259Y164616*
X192252Y164598*
X192124Y164385*
X192100Y164364*
X191886Y164278*
X191875Y164275*
X191575Y164233*
X191568Y164232*
X191226*
X191176Y164282*
Y165436*
X191226Y165486*
X191611*
X191619Y165485*
X191876Y165442*
X191886Y165440*
X192100Y165354*
X192124Y165333*
X192252Y165120*
X192258Y165104*
X192301Y164890*
X192302Y164880*
X192629Y175082D02*
X192552Y175237D01*
X192349Y175481*
X192024Y175643*
X191609Y175685*
X190892*
Y173050*
X191176*
Y173983*
X191226Y174033*
X191817*
X192060Y174114*
X192388Y174319*
X192589Y174600*
X192629Y174884*
Y175082*
X192302Y174880D02*
X192302D01*
X192301Y174872*
X192259Y174616*
X192252Y174598*
X192124Y174385*
X192100Y174364*
X191886Y174278*
X191875Y174275*
X191575Y174233*
X191568Y174232*
X191226*
X191176Y174282*
Y175436*
X191226Y175486*
X191611*
X191619Y175485*
X191876Y175442*
X191886Y175440*
X192100Y175354*
X192124Y175333*
X192252Y175120*
X192258Y175104*
X192301Y174890*
X192302Y174880*
X192587Y185611D02*
X192286Y185686D01*
X191953Y185727*
X191661Y185686*
X191415Y185645*
X191215Y185524*
X191052Y185362*
X190761Y184905*
X190720Y184659*
X190679Y184325*
X190762Y183739*
X190843Y183538*
X191005Y183335*
X191169Y183212*
X191376Y183088*
X191619Y183007*
X192034*
X192449Y183090*
X192587Y183159*
Y184446*
X191747*
Y184247*
X192252*
X192302Y184197*
Y183342*
X192252Y183292*
X192178*
X192104Y183254*
X192081Y183249*
X191910*
X191899Y183250*
X191515Y183336*
X191494Y183346*
X191237Y183560*
X191226Y183573*
X191055Y183873*
X191048Y183893*
X191006Y184363*
Y184368*
X191006*
Y184372*
X191006D02*
X191049Y184800D01*
X191056Y184821*
X191270Y185163*
X191280Y185175*
X191536Y185389*
X191558Y185399*
X191942Y185485*
X191959Y185486*
X192343Y185443*
X192357Y185439*
X192587Y185341*
Y185611*
X169245Y115685D02*
X167507D01*
Y115443*
X168910*
X168960Y115393*
X168955Y115371*
X167836Y113050*
X168110*
X169245Y115405*
Y115685*
X169201Y123856D02*
X169162Y124050D01*
X169045Y124246*
X168848Y124364*
X168684Y124404*
X168647Y124453*
X168667Y124493*
X168835Y124619*
X168955Y124739*
X169033Y124897*
X169073Y125095*
X169034Y125373*
X168879Y125566*
X168598Y125686*
X168266Y125728*
X168104*
X167941Y125687*
X167815Y125645*
X167811Y125644*
X167678Y125611*
Y125417*
X167914Y125484*
X167920Y125485*
X168219Y125528*
X168236*
X168450Y125485*
X168452Y125484*
X168623Y125442*
X168656Y125416*
X168741Y125245*
X168745Y125234*
X168788Y125063*
X168789Y125051*
X168788Y125041*
X168746Y124828*
X168738Y124810*
X168653Y124682*
X168633Y124665*
X168463Y124579*
X168448Y124575*
X168192Y124532*
X168184Y124531*
X167935*
Y124332*
X168184*
X168191*
X168490Y124289*
X168501Y124286*
X168715Y124200*
X168732Y124189*
X168860Y124061*
X168874Y124035*
X168917Y123822*
X168918Y123812*
X168917Y123802*
X168874Y123588*
X168868Y123573*
X168739Y123359*
X168712Y123337*
X168456Y123252*
X168446Y123250*
X168104Y123207*
X168098Y123206*
X167799*
X167791Y123207*
X167593Y123240*
Y123007*
X168094*
X168595Y123091*
X168920Y123253*
X169120Y123534*
X169201Y123856*
X169373Y133847D02*
X168996D01*
X168946Y133897*
Y135685*
X168468*
X167336Y133883*
Y133648*
X168611*
X168661Y133598*
Y133050*
X168946*
Y133598*
X168996Y133648*
X169373*
Y133847*
X168661Y135393D02*
Y133897D01*
X168611Y133847*
X167671*
X167621Y133897*
X167629Y133924*
X168569Y135420*
X168661Y135393*
X169245Y144057D02*
X169168Y144210D01*
X168924Y144454*
X168641Y144575*
X168266Y144617*
X168013*
X167963Y144667*
Y145436*
X168013Y145486*
X169074*
Y145685*
X167678*
Y144418*
X168141*
X168148Y144417*
X168447Y144374*
X168456Y144372*
X168712Y144287*
X168737Y144269*
X168865Y144098*
X168874Y144078*
X168917Y143865*
X168918Y143855*
X168917Y143846*
X168874Y143590*
X168860Y143563*
X168689Y143392*
X168680Y143384*
X168466Y143256*
X168447Y143250*
X168148Y143207*
X168141Y143206*
X167842*
X167834Y143207*
X167635Y143240*
Y143007*
X168139*
X168553Y143049*
X168921Y143253*
X169167Y143541*
X169245Y143696*
Y144057*
X169201Y153856D02*
X169162Y154050D01*
X169045Y154246*
X168848Y154364*
X168684Y154404*
X168647Y154453*
X168667Y154493*
X168835Y154619*
X168955Y154739*
X169033Y154897*
X169073Y155095*
X169034Y155373*
X168879Y155566*
X168598Y155686*
X168266Y155728*
X168104*
X167941Y155687*
X167815Y155645*
X167811Y155644*
X167678Y155611*
Y155417*
X167914Y155484*
X167920Y155485*
X168219Y155528*
X168236*
X168450Y155485*
X168452Y155484*
X168623Y155442*
X168656Y155416*
X168741Y155245*
X168745Y155234*
X168788Y155063*
X168789Y155051*
X168788Y155041*
X168746Y154828*
X168738Y154810*
X168653Y154682*
X168633Y154665*
X168463Y154579*
X168448Y154575*
X168192Y154532*
X168184Y154531*
X167935*
Y154332*
X168184*
X168191*
X168490Y154289*
X168501Y154286*
X168715Y154200*
X168732Y154189*
X168860Y154061*
X168874Y154035*
X168917Y153822*
X168918Y153812*
X168917Y153802*
X168874Y153588*
X168868Y153573*
X168739Y153359*
X168712Y153337*
X168456Y153252*
X168446Y153250*
X168104Y153207*
X168098Y153206*
X167799*
X167791Y153207*
X167593Y153240*
Y153007*
X168094*
X168595Y153091*
X168920Y153253*
X169120Y153534*
X169201Y153856*
X169373Y163847D02*
X168996D01*
X168946Y163897*
Y165685*
X168468*
X167336Y163883*
Y163648*
X168611*
X168661Y163598*
Y163050*
X168946*
Y163598*
X168996Y163648*
X169373*
Y163847*
X168661Y165393D02*
Y163897D01*
X168611Y163847*
X167671*
X167621Y163897*
X167629Y163924*
X168569Y165420*
X168661Y165393*
X169245Y174057D02*
X169168Y174210D01*
X168924Y174454*
X168641Y174575*
X168266Y174617*
X168013*
X167963Y174667*
Y175436*
X168013Y175486*
X169074*
Y175685*
X167678*
Y174418*
X168141*
X168148Y174417*
X168447Y174374*
X168456Y174372*
X168712Y174287*
X168737Y174269*
X168865Y174098*
X168874Y174078*
X168917Y173865*
X168918Y173855*
X168917Y173846*
X168874Y173590*
X168860Y173563*
X168689Y173392*
X168680Y173384*
X168466Y173256*
X168447Y173250*
X168148Y173207*
X168141Y173206*
X167842*
X167834Y173207*
X167635Y173240*
Y173007*
X168139*
X168553Y173049*
X168921Y173253*
X169167Y173541*
X169245Y173696*
Y174057*
X169373Y184409D02*
X169289Y184954D01*
X169207Y185199*
X169090Y185355*
X168679Y185602*
X168137Y185685*
X167465*
Y183050*
X168011*
X168473Y183092*
X168843Y183215*
X169085Y183417*
X169248Y183703*
X169331Y184035*
X169373Y184409*
X169046Y184667D02*
Y184368D01*
X169045Y184363*
X169003Y183935*
X168998Y183918*
X168827Y183576*
X168811Y183558*
X168512Y183344*
X168488Y183335*
X168061Y183292*
X168056*
X167799*
X167749Y183342*
Y185436*
X167799Y185486*
X168098*
X168103*
X168531Y185443*
X168558Y185432*
X168814Y185218*
X168825Y185204*
X168996Y184905*
X169002Y184890*
X169045Y184676*
X169046Y184667*
X166894Y115612D02*
X166636Y115686D01*
X166262Y115727*
X166013Y115686*
X165812Y115646*
X165445Y115360*
X165198Y114907*
X165156Y114659*
X165115Y114325*
X165198Y113739*
X165280Y113535*
X165401Y113333*
X165562Y113212*
X165769Y113088*
X166012Y113007*
X166258*
X166591Y113049*
X166894Y113163*
Y113394*
X166665Y113296*
X166652Y113292*
X166652D02*
X166310Y113250D01*
X166297*
X165955Y113292*
X165930Y113303*
X165673Y113517*
X165660Y113533*
X165489Y113875*
X165484Y113893*
X165442Y114363*
X165441Y114368*
X165441*
X165442Y114372*
X165442D02*
X165484Y114800D01*
X165489Y114817*
X165660Y115159*
X165673Y115175*
X165930Y115389*
X165949Y115399*
X166291Y115484*
X166310Y115486*
X166652Y115443*
X166652D02*
X166665Y115439D01*
X166894Y115341*
Y115612*
Y125612D02*
X166636Y125686D01*
X166262Y125727*
X166013Y125686*
X165812Y125646*
X165445Y125360*
X165198Y124907*
X165156Y124659*
X165115Y124325*
X165198Y123739*
X165280Y123535*
X165401Y123333*
X165562Y123212*
X165769Y123088*
X166012Y123007*
X166258*
X166591Y123049*
X166894Y123163*
Y123394*
X166665Y123296*
X166652Y123292*
X166652D02*
X166310Y123250D01*
X166297*
X165955Y123292*
X165930Y123303*
X165673Y123517*
X165660Y123533*
X165489Y123875*
X165484Y123893*
X165442Y124363*
X165441Y124368*
X165441*
X165442Y124372*
X165442D02*
X165484Y124800D01*
X165489Y124817*
X165660Y125159*
X165673Y125175*
X165930Y125389*
X165949Y125399*
X166291Y125484*
X166310Y125486*
X166652Y125443*
X166652D02*
X166665Y125439D01*
X166894Y125341*
Y125612*
Y135612D02*
X166636Y135686D01*
X166262Y135727*
X166013Y135686*
X165812Y135646*
X165445Y135360*
X165198Y134907*
X165156Y134659*
X165115Y134325*
X165198Y133739*
X165280Y133535*
X165401Y133333*
X165562Y133212*
X165769Y133088*
X166012Y133007*
X166258*
X166591Y133049*
X166894Y133163*
Y133394*
X166665Y133296*
X166652Y133292*
X166652D02*
X166310Y133250D01*
X166297*
X165955Y133292*
X165930Y133303*
X165673Y133517*
X165660Y133533*
X165489Y133875*
X165484Y133893*
X165442Y134363*
X165441Y134368*
X165441*
X165442Y134372*
X165442D02*
X165484Y134800D01*
X165489Y134817*
X165660Y135159*
X165673Y135175*
X165930Y135389*
X165949Y135399*
X166291Y135484*
X166310Y135486*
X166652Y135443*
X166652D02*
X166665Y135439D01*
X166894Y135341*
Y135612*
Y145612D02*
X166636Y145686D01*
X166262Y145727*
X166013Y145686*
X165812Y145646*
X165445Y145360*
X165198Y144907*
X165156Y144659*
X165115Y144325*
X165198Y143739*
X165280Y143535*
X165401Y143333*
X165562Y143212*
X165769Y143088*
X166012Y143007*
X166258*
X166591Y143049*
X166894Y143163*
Y143394*
X166665Y143296*
X166652Y143292*
X166652D02*
X166310Y143250D01*
X166297*
X165955Y143292*
X165930Y143303*
X165673Y143517*
X165660Y143533*
X165489Y143875*
X165484Y143893*
X165442Y144363*
X165441Y144368*
X165441*
X165442Y144372*
X165442D02*
X165484Y144800D01*
X165489Y144817*
X165660Y145159*
X165673Y145175*
X165930Y145389*
X165949Y145399*
X166291Y145484*
X166310Y145486*
X166652Y145443*
X166652D02*
X166665Y145439D01*
X166894Y145341*
Y145612*
X167132Y153050D02*
X166267Y155685D01*
X165827*
X164962Y153050*
X165240*
X165401Y153612*
X165449Y153648*
X166603*
X166651Y153612*
X166811Y153050*
X167132*
X166474Y153890D02*
X165577D01*
X165527Y153940*
X165527*
X165529Y153955*
X165999Y155451*
X166095Y155450*
X166522Y153954*
X166474Y153890*
X167132Y163050D02*
X166267Y165685D01*
X165827*
X164962Y163050*
X165240*
X165401Y163612*
X165449Y163648*
X166603*
X166651Y163612*
X166811Y163050*
X167132*
X166474Y163890D02*
X165577D01*
X165527Y163940*
X165527*
X165529Y163955*
X165999Y165451*
X166095Y165450*
X166522Y163954*
X166474Y163890*
X167132Y173050D02*
X166267Y175685D01*
X165827*
X164962Y173050*
X165240*
X165401Y173612*
X165449Y173648*
X166603*
X166651Y173612*
X166811Y173050*
X167132*
X166474Y173890D02*
X165577D01*
X165527Y173940*
X165527*
X165529Y173955*
X165999Y175451*
X166095Y175450*
X166522Y173954*
X166474Y173890*
X167022Y184409D02*
X166938Y184954D01*
X166857Y185199*
X166739Y185355*
X166329Y185602*
X165787Y185685*
X165114*
Y183050*
X165660*
X166122Y183092*
X166492Y183215*
X166735Y183417*
X166898Y183703*
X166981Y184035*
X167022Y184409*
X166695Y184667D02*
Y184368D01*
Y184363*
X166652Y183935*
X166647Y183918*
X166476Y183576*
X166461Y183558*
X166162Y183344*
X166137Y183335*
X165710Y183292*
X165705*
X165449*
X165399Y183342*
Y185436*
X165449Y185486*
X165748*
X165753*
X166180Y185443*
X166207Y185432*
X166464Y185218*
X166475Y185204*
X166646Y184905*
X166652Y184890*
X166694Y184676*
X166695Y184667*
X164629Y115082D02*
X164552Y115237D01*
X164349Y115481*
X164024Y115643*
X163609Y115685*
X162892*
Y113050*
X163176*
Y113983*
X163226Y114033*
X163817*
X164060Y114114*
X164388Y114319*
X164589Y114600*
X164629Y114884*
Y115082*
X164302Y114880D02*
X164302D01*
X164301Y114872*
X164259Y114616*
X164252Y114598*
X164124Y114385*
X164100Y114364*
X163886Y114278*
X163875Y114275*
X163575Y114233*
X163568Y114232*
X163226*
X163176Y114282*
Y115436*
X163226Y115486*
X163611*
X163619Y115485*
X163876Y115442*
X163886Y115440*
X164100Y115354*
X164124Y115333*
X164252Y115120*
X164258Y115104*
X164301Y114890*
X164302Y114880*
X164629Y125082D02*
X164552Y125237D01*
X164349Y125481*
X164024Y125643*
X163609Y125685*
X162892*
Y123050*
X163176*
Y123983*
X163226Y124033*
X163817*
X164060Y124114*
X164388Y124319*
X164589Y124600*
X164629Y124884*
Y125082*
X164302Y124880D02*
X164302D01*
X164301Y124872*
X164259Y124616*
X164252Y124598*
X164124Y124385*
X164100Y124364*
X163886Y124278*
X163875Y124275*
X163575Y124233*
X163568Y124232*
X163226*
X163176Y124282*
Y125436*
X163226Y125486*
X163611*
X163619Y125485*
X163876Y125442*
X163886Y125440*
X164100Y125354*
X164124Y125333*
X164252Y125120*
X164258Y125104*
X164301Y124890*
X164302Y124880*
X164629Y135082D02*
X164552Y135237D01*
X164349Y135481*
X164024Y135643*
X163609Y135685*
X162892*
Y133050*
X163176*
Y133983*
X163226Y134033*
X163817*
X164060Y134114*
X164388Y134319*
X164589Y134600*
X164629Y134884*
Y135082*
X164302Y134880D02*
X164302D01*
X164301Y134872*
X164259Y134616*
X164252Y134598*
X164124Y134385*
X164100Y134364*
X163886Y134278*
X163875Y134275*
X163575Y134233*
X163568Y134232*
X163226*
X163176Y134282*
Y135436*
X163226Y135486*
X163611*
X163619Y135485*
X163876Y135442*
X163886Y135440*
X164100Y135354*
X164124Y135333*
X164252Y135120*
X164258Y135104*
X164301Y134890*
X164302Y134880*
X164629Y145082D02*
X164552Y145237D01*
X164349Y145481*
X164024Y145643*
X163609Y145685*
X162892*
Y143050*
X163176*
Y143983*
X163226Y144033*
X163817*
X164060Y144114*
X164388Y144319*
X164589Y144600*
X164629Y144884*
Y145082*
X164302Y144880D02*
X164302D01*
X164301Y144872*
X164259Y144616*
X164252Y144598*
X164124Y144385*
X164100Y144364*
X163886Y144278*
X163875Y144275*
X163575Y144233*
X163568Y144232*
X163226*
X163176Y144282*
Y145436*
X163226Y145486*
X163611*
X163619Y145485*
X163876Y145442*
X163886Y145440*
X164100Y145354*
X164124Y145333*
X164252Y145120*
X164258Y145104*
X164301Y144890*
X164302Y144880*
X164629Y155082D02*
X164552Y155237D01*
X164349Y155481*
X164024Y155643*
X163609Y155685*
X162892*
Y153050*
X163176*
Y153983*
X163226Y154033*
X163817*
X164060Y154114*
X164388Y154319*
X164589Y154600*
X164629Y154884*
Y155082*
X164302Y154880D02*
X164302D01*
X164301Y154872*
X164259Y154616*
X164252Y154598*
X164124Y154385*
X164100Y154364*
X163886Y154278*
X163875Y154275*
X163575Y154233*
X163568Y154232*
X163226*
X163176Y154282*
Y155436*
X163226Y155486*
X163611*
X163619Y155485*
X163876Y155442*
X163886Y155440*
X164100Y155354*
X164124Y155333*
X164252Y155120*
X164258Y155104*
X164301Y154890*
X164302Y154880*
X164629Y165082D02*
X164552Y165237D01*
X164349Y165481*
X164024Y165643*
X163609Y165685*
X162892*
Y163050*
X163176*
Y163983*
X163226Y164033*
X163817*
X164060Y164114*
X164388Y164319*
X164589Y164600*
X164629Y164884*
Y165082*
X164302Y164880D02*
X164302D01*
X164301Y164872*
X164259Y164616*
X164252Y164598*
X164124Y164385*
X164100Y164364*
X163886Y164278*
X163875Y164275*
X163575Y164233*
X163568Y164232*
X163226*
X163176Y164282*
Y165436*
X163226Y165486*
X163611*
X163619Y165485*
X163876Y165442*
X163886Y165440*
X164100Y165354*
X164124Y165333*
X164252Y165120*
X164258Y165104*
X164301Y164890*
X164302Y164880*
X164629Y175082D02*
X164552Y175237D01*
X164349Y175481*
X164024Y175643*
X163609Y175685*
X162892*
Y173050*
X163176*
Y173983*
X163226Y174033*
X163817*
X164060Y174114*
X164388Y174319*
X164589Y174600*
X164629Y174884*
Y175082*
X164302Y174880D02*
X164302D01*
X164301Y174872*
X164259Y174616*
X164252Y174598*
X164124Y174385*
X164100Y174364*
X163886Y174278*
X163875Y174275*
X163575Y174233*
X163568Y174232*
X163226*
X163176Y174282*
Y175436*
X163226Y175486*
X163611*
X163619Y175485*
X163876Y175442*
X163886Y175440*
X164100Y175354*
X164124Y175333*
X164252Y175120*
X164258Y175104*
X164301Y174890*
X164302Y174880*
X164780Y185685D02*
X164459D01*
X163873Y183884*
X163745Y183331*
X163649Y183327*
X163478Y183882*
X162891Y185685*
X162611*
X163434Y183050*
X163875*
X164780Y185685*
X162994Y216892D02*
X162446D01*
X162396Y216942*
Y219285*
X162117*
X161313Y218843*
X161400Y218641*
X161991Y219035*
X162069Y218993*
Y216942*
X162019Y216892*
X161385*
Y216650*
X162994*
Y216892*
X160772Y218009D02*
X160688Y218554D01*
X160606Y218799*
X160489Y218955*
X160078Y219202*
X159536Y219285*
X158864*
Y216650*
X159410*
X159872Y216692*
X160242Y216815*
X160484Y217017*
X160647Y217303*
X160730Y217635*
X160772Y218009*
X160445Y218267D02*
Y217968D01*
Y217963*
X160402Y217535*
X160397Y217518*
X160226Y217176*
X160210Y217158*
X159911Y216944*
X159887Y216935*
X159460Y216892*
X159455*
X159198*
X159148Y216942*
Y219036*
X159198Y219086*
X159497*
X159502*
X159930Y219043*
X159957Y219032*
X160213Y218818*
X160225Y218804*
X160396Y218505*
X160401Y218490*
X160444Y218276*
X160445Y218267*
X146050Y82756D02*
X146012Y82950D01*
X145894Y83146*
X145698Y83264*
X145534Y83304*
X145496Y83353*
X145516Y83393*
X145684Y83519*
X145804Y83639*
X145883Y83797*
X145923Y83995*
X145883Y84273*
X145729Y84466*
X145447Y84586*
X145116Y84628*
X144954*
X144791Y84587*
X144665Y84545*
X144661Y84544*
X144528Y84511*
Y84317*
X144763Y84384*
X144770Y84385*
X145069Y84428*
X145086*
X145300Y84385*
X145302Y84384*
X145473Y84342*
X145505Y84316*
X145591Y84145*
X145595Y84134*
X145637Y83963*
X145639Y83951*
X145638Y83941*
X145595Y83728*
X145588Y83710*
X145502Y83582*
X145483Y83565*
X145312Y83479*
X145298Y83475*
X145042Y83432*
X145033Y83431*
X144784*
Y83232*
X145033*
X145040*
X145340Y83189*
X145351Y83186*
X145565Y83100*
X145582Y83089*
X145710Y82961*
X145723Y82935*
X145766Y82722*
X145767Y82712*
X145766Y82702*
X145723Y82488*
X145717Y82473*
X145589Y82259*
X145562Y82237*
X145306Y82152*
X145296Y82150*
X144954Y82107*
X144948Y82106*
X144649*
X144640Y82107*
X144640D02*
X144442Y82140D01*
Y81907*
X144944*
X145445Y81991*
X145769Y82153*
X145970Y82434*
X146050Y82756*
X143744Y84512D02*
X143485Y84586D01*
X143112Y84627*
X142863Y84586*
X142662Y84546*
X142294Y84260*
X142047Y83807*
X142006Y83559*
X141964Y83225*
X142048Y82639*
X142130Y82435*
X142251Y82233*
X142412Y82112*
X142618Y81988*
X142862Y81907*
X143107*
X143440Y81949*
X143744Y82063*
Y82294*
X143515Y82196*
X143501Y82192*
X143159Y82150*
X143147*
X142805Y82192*
X142779Y82203*
X142523Y82417*
X142510Y82433*
X142339Y82775*
X142334Y82793*
X142291Y83263*
Y83268*
X142291*
Y83272*
X142291D02*
X142334Y83700D01*
X142339Y83717*
X142510Y84059*
X142523Y84075*
X142779Y84289*
X142799Y84299*
X143141Y84384*
X143159Y84386*
X143501Y84343*
X143515Y84339*
X143744Y84241*
Y84512*
X133794Y228092D02*
X132562D01*
X132512Y228142*
X132527Y228177*
X132996Y228646*
X133294Y228986*
X133503Y229238*
X133625Y229482*
X133666Y229766*
X133625Y230090*
X133468Y230327*
X133187Y230487*
X132905Y230527*
X132660Y230486*
X132415Y230405*
X132122Y230185*
X132270Y230007*
X132488Y230189*
X132506Y230199*
X132805Y230284*
X132829Y230285*
X133042Y230242*
X133060Y230235*
X133188Y230149*
X133205Y230130*
X133291Y229959*
X133295Y229949*
X133337Y229778*
X133339Y229766*
Y229552*
X133335Y229534*
X133250Y229320*
X133242Y229307*
X133072Y229094*
X133068Y229089*
X132769Y228791*
X132100Y228079*
Y227850*
X133794*
Y228092*
X133494Y238792D02*
X132946D01*
X132896Y238842*
Y241185*
X132617*
X131813Y240743*
X131900Y240541*
X132491Y240935*
X132569Y240893*
Y238842*
X132519Y238792*
X131885*
Y238550*
X133494*
Y238792*
X131572Y229209D02*
X131488Y229754D01*
X131406Y229999*
X131289Y230155*
X130878Y230402*
X130336Y230485*
X129664*
Y227850*
X130210*
X130672Y227892*
X131042Y228015*
X131284Y228217*
X131447Y228503*
X131530Y228835*
X131572Y229209*
X131245Y229467D02*
Y229168D01*
Y229163*
X131202Y228735*
X131197Y228718*
X131026Y228376*
X131010Y228358*
X130711Y228144*
X130687Y228135*
X130260Y228092*
X130255*
X129998*
X129948Y228142*
Y230236*
X129998Y230286*
X130297*
X130302*
X130730Y230243*
X130757Y230232*
X131013Y230018*
X131025Y230004*
X131196Y229705*
X131201Y229690*
X131244Y229476*
X131245Y229467*
X131243Y238550D02*
X130851Y239373D01*
X130687Y239620*
X130479Y239786*
X130460Y239825*
X130494Y239872*
X130740Y239954*
X130898Y240112*
X131018Y240313*
X131058Y240510*
X131018Y240787*
X130862Y240983*
X130580Y241144*
X130166Y241185*
X129492*
Y238550*
X129776*
Y239739*
X129826Y239789*
X130168*
X130196Y239781*
X130324Y239695*
X130332Y239689*
X130417Y239604*
X130427Y239591*
X130512Y239420*
X130513Y239419*
X130926Y238550*
X131243*
X130730Y240499D02*
X130687Y240285D01*
X130674Y240260*
X130546Y240131*
X130533Y240122*
X130362Y240036*
X130349Y240032*
X130135Y239989*
X130126Y239988*
X129826*
X129776Y240038*
Y240936*
X129826Y240986*
X130168*
X130178Y240985*
X130392Y240942*
X130404Y240938*
X130575Y240852*
X130595Y240835*
X130680Y240707*
X130687Y240692*
X130730Y240521*
Y240499*
X118195Y120992D02*
X117647D01*
X117597Y121042*
Y123385*
X117318*
X116514Y122943*
X116601Y122741*
X117192Y123135*
X117270Y123093*
Y121042*
X117220Y120992*
X116586*
Y120750*
X118195*
Y120992*
X118794Y168392D02*
X118246D01*
X118196Y168442*
Y170785*
X117917*
X117113Y170343*
X117200Y170141*
X117791Y170535*
X117869Y170493*
Y168442*
X117819Y168392*
X117185*
Y168150*
X118794*
Y168392*
X118494Y181792D02*
X117946D01*
X117896Y181842*
Y184185*
X117617*
X116813Y183743*
X116900Y183541*
X117491Y183935*
X117569Y183893*
Y181842*
X117519Y181792*
X116885*
Y181550*
X118494*
Y181792*
X115845Y123312D02*
X115586Y123386D01*
X115212Y123427*
X114964Y123386*
X114762Y123346*
X114395Y123060*
X114148Y122607*
X114107Y122359*
X114065Y122025*
X114149Y121439*
X114230Y121235*
X114352Y121033*
X114513Y120912*
X114719Y120788*
X114963Y120707*
X115208*
X115541Y120749*
X115845Y120863*
Y121094*
X115615Y120996*
X115602Y120992*
X115260Y120950*
X115248*
X114906Y120992*
X114880Y121003*
X114624Y121217*
X114611Y121233*
X114440Y121575*
X114435Y121593*
X114392Y122063*
Y122068*
X114392*
Y122072*
X114392D02*
X114435Y122500D01*
X114440Y122517*
X114611Y122859*
X114624Y122875*
X114880Y123089*
X114900Y123099*
X115242Y123184*
X115260Y123186*
X115602Y123143*
X115615Y123139*
X115845Y123041*
Y123312*
X116487Y170785D02*
X116202D01*
Y168997*
X116201Y168989*
X116159Y168733*
X116156Y168722*
X116070Y168509*
X116054Y168487*
X115883Y168359*
X115860Y168350*
X115561Y168307*
X115546*
X115289Y168350*
X115267Y168359*
X115096Y168487*
X115080Y168509*
X114995Y168722*
X114992Y168733*
X114949Y168989*
X114948Y168997*
Y170785*
X114664*
Y169000*
X114705Y168629*
X114865Y168348*
X115145Y168148*
X115551Y168108*
X115963Y168190*
X116245Y168351*
X116446Y168672*
X116487Y169043*
Y170785*
X116144Y184112D02*
X115885Y184186D01*
X115512Y184227*
X115263Y184186*
X115062Y184146*
X114694Y183860*
X114447Y183407*
X114406Y183159*
X114364Y182825*
X114448Y182239*
X114530Y182035*
X114651Y181833*
X114812Y181712*
X115018Y181588*
X115262Y181507*
X115507*
X115840Y181549*
X116144Y181663*
Y181894*
X115915Y181796*
X115901Y181792*
X115559Y181750*
X115547*
X115205Y181792*
X115179Y181803*
X114923Y182017*
X114910Y182033*
X114739Y182375*
X114734Y182393*
X114691Y182863*
Y182868*
X114691*
Y182872*
X114691D02*
X114734Y183300D01*
X114739Y183317*
X114910Y183659*
X114923Y183675*
X115179Y183889*
X115199Y183899*
X115541Y183984*
X115559Y183986*
X115901Y183943*
X115915Y183939*
X116144Y183841*
Y184112*
X113494Y121429D02*
X113454Y121705D01*
X113297Y121901*
X113093Y122024*
X112840Y122150*
X112542Y122278*
X112329Y122363*
X112313Y122374*
X112142Y122545*
X112128Y122568*
X112086Y122739*
X112084Y122751*
X112086Y122763*
X112128Y122934*
X112142Y122958*
X112270Y123086*
X112293Y123099*
X112464Y123142*
X112468*
X112724Y123185*
X112739Y123186*
X113081Y123143*
X113081*
X113324Y123108*
Y123353*
X113196Y123385*
X113074*
X113062Y123387*
X112897Y123428*
X112737*
X112280Y123345*
X111994Y123181*
X111797Y122984*
X111757Y122709*
X111797Y122473*
X111956Y122274*
X112158Y122113*
X112447Y122030*
X112456Y122027*
X112712Y121899*
X112715Y121897*
X112929Y121769*
X112933Y121766*
X113104Y121637*
X113123Y121610*
X113166Y121439*
X113167Y121426*
X113166Y121414*
X113123Y121243*
X113114Y121226*
X112986Y121055*
X112958Y121036*
X112787Y120993*
X112782Y120992*
X112483Y120950*
X112472Y120949*
X112001Y120992*
X111994Y120993*
X111714Y121063*
Y120825*
X112017Y120749*
X112225Y120707*
X112431*
X112892Y120749*
X113215Y120870*
X113413Y121108*
X113494Y121429*
X111272Y122066D02*
X111230Y122652D01*
X111025Y123064*
X110742Y123346*
X110544Y123386*
X110297Y123427*
X109890Y123346*
X109890D02*
X109565Y123102D01*
X109445Y122901*
X109362Y122654*
X109320Y122402*
X109278Y122066*
X109320Y121479*
X109401Y121236*
X109649Y120907*
X109808Y120787*
X110007Y120707*
X110458*
X110661Y120788*
X110823Y120869*
X110983Y121030*
X111106Y121235*
X111189Y121443*
X111272Y121733*
Y122066*
X110988Y122068D02*
X110987Y122063D01*
X110945Y121635*
X110942Y121623*
X110813Y121281*
X110802Y121263*
X110588Y121049*
X110581Y121043*
X110453Y120958*
X110425Y120949*
X110126*
X110103Y120954*
X109932Y121040*
X109916Y121053*
X109745Y121267*
X109737Y121281*
X109609Y121623*
X109606Y121635*
X109563Y122063*
Y122068*
Y122072*
X109563D02*
X109606Y122500D01*
X109609Y122512*
X109737Y122854*
X109748Y122872*
X109962Y123086*
X109982Y123098*
X110238Y123183*
X110266Y123184*
X110608Y123099*
X110635Y123082*
X110806Y122868*
X110813Y122854*
X110942Y122512*
X110945Y122500*
X110987Y122072*
X110987D02*
X110988Y122068D01*
X108594Y81892D02*
X107362D01*
X107312Y81942*
X107327Y81977*
X107796Y82446*
X108094Y82786*
X108303Y83038*
X108425Y83282*
X108466Y83566*
X108425Y83890*
X108268Y84127*
X107987Y84287*
X107705Y84327*
X107460Y84286*
X107215Y84205*
X106922Y83985*
X107070Y83807*
X107288Y83989*
X107306Y83999*
X107605Y84084*
X107629Y84085*
X107842Y84042*
X107860Y84035*
X107988Y83949*
X108005Y83930*
X108091Y83759*
X108095Y83749*
X108137Y83578*
X108139Y83566*
Y83352*
X108135Y83334*
X108050Y83120*
X108042Y83107*
X107872Y82894*
X107868Y82889*
X107569Y82591*
X106900Y81879*
Y81650*
X108594*
Y81892*
X106244Y84212D02*
X105985Y84286D01*
X105612Y84327*
X105363Y84286*
X105162Y84246*
X104794Y83960*
X104547Y83507*
X104506Y83259*
X104464Y82925*
X104548Y82339*
X104630Y82135*
X104751Y81933*
X104912Y81812*
X105118Y81688*
X105362Y81607*
X105607*
X105940Y81649*
X106244Y81763*
Y81994*
X106015Y81896*
X106001Y81892*
X105659Y81850*
X105647*
X105305Y81892*
X105279Y81903*
X105023Y82117*
X105010Y82133*
X104839Y82475*
X104834Y82493*
X104791Y82963*
Y82968*
X104791*
Y82972*
X104791D02*
X104834Y83400D01*
X104839Y83417*
X105010Y83759*
X105023Y83775*
X105279Y83989*
X105299Y83999*
X105641Y84084*
X105659Y84086*
X106001Y84043*
X106015Y84039*
X106244Y83941*
Y84212*
X104500Y82674D02*
Y83212D01*
X104600Y82209D02*
Y83604D01*
X104700Y82018D02*
Y83787D01*
X104800Y81896D02*
Y82867D01*
Y83060D02*
Y83964D01*
X104900Y81821D02*
Y82353D01*
Y83539D02*
Y84042D01*
X105000Y81760D02*
Y82153D01*
Y83739D02*
Y84120D01*
X105100Y81700D02*
Y82053D01*
Y83840D02*
Y84198D01*
X105200Y81661D02*
Y81969D01*
Y83923D02*
Y84253D01*
X105300Y81628D02*
Y81893D01*
Y83999D02*
Y84273D01*
X105400Y81607D02*
Y81880D01*
Y84024D02*
Y84292D01*
X105500Y81607D02*
Y81868D01*
Y84049D02*
Y84309D01*
X105600Y81607D02*
Y81855D01*
Y84074D02*
Y84325D01*
X105700Y81619D02*
Y81855D01*
Y84080D02*
Y84317D01*
X105800Y81631D02*
Y81867D01*
Y84068D02*
Y84306D01*
X105900Y81644D02*
Y81880D01*
Y84055D02*
Y84295D01*
X106000Y81671D02*
Y81892D01*
Y84043D02*
Y84282D01*
X106100Y81709D02*
Y81933D01*
Y84003D02*
Y84253D01*
X106200Y81746D02*
Y81975D01*
Y83960D02*
Y84224D01*
X106900Y81650D02*
Y81880D01*
X107000Y81650D02*
Y81986D01*
Y83891D02*
Y84043D01*
X107100Y81650D02*
Y82092D01*
Y83832D02*
Y84118D01*
X107200Y81650D02*
Y82199D01*
Y83916D02*
Y84193D01*
X107300Y81650D02*
Y82305D01*
Y83996D02*
Y84233D01*
X107400Y81650D02*
Y81892D01*
Y82050D02*
Y82411D01*
Y84025D02*
Y84266D01*
X107500Y81650D02*
Y81892D01*
Y82150D02*
Y82517D01*
Y84054D02*
Y84293D01*
X107600Y81650D02*
Y81892D01*
Y82250D02*
Y82622D01*
Y84083D02*
Y84310D01*
X107700Y81650D02*
Y81892D01*
Y82350D02*
Y82722D01*
Y84071D02*
Y84326D01*
X107800Y81650D02*
Y81892D01*
Y82451D02*
Y82822D01*
Y84051D02*
Y84314D01*
X107900Y81650D02*
Y81892D01*
Y82565D02*
Y82929D01*
Y84008D02*
Y84299D01*
X108000Y81650D02*
Y81892D01*
Y82679D02*
Y83054D01*
Y83939D02*
Y84279D01*
X108100Y81650D02*
Y81892D01*
Y82794D02*
Y83245D01*
Y83728D02*
Y84222D01*
X108200Y81650D02*
Y81892D01*
Y82914D02*
Y84165D01*
X108300Y81650D02*
Y81892D01*
Y83034D02*
Y84078D01*
X108400Y81650D02*
Y81892D01*
Y83231D02*
Y83928D01*
X108500Y81650D02*
Y81892D01*
X109300Y121764D02*
Y122239D01*
X109400Y121240D02*
Y122767D01*
X109500Y121105D02*
Y122993D01*
X109600Y120971D02*
Y121693D01*
Y122442D02*
Y123128D01*
X109700Y120868D02*
Y121379D01*
Y122756D02*
Y123203D01*
X109800Y120793D02*
Y121198D01*
Y122924D02*
Y123278D01*
X109900Y120750D02*
Y121073D01*
Y123024D02*
Y123347D01*
X110000Y120710D02*
Y121006D01*
Y123104D02*
Y123367D01*
X110100Y120707D02*
Y120956D01*
Y123137D02*
Y123387D01*
X110200Y120707D02*
Y120949D01*
Y123171D02*
Y123407D01*
X110300Y120707D02*
Y120949D01*
Y123176D02*
Y123427D01*
X110400Y120707D02*
Y120949D01*
Y123151D02*
Y123410D01*
X110500Y120724D02*
Y120989D01*
Y123126D02*
Y123393D01*
X110600Y120764D02*
Y121061D01*
Y123101D02*
Y123375D01*
X110700Y120808D02*
Y121161D01*
Y123000D02*
Y123355D01*
X110800Y120858D02*
Y121261D01*
Y122875D02*
Y123288D01*
X110900Y120947D02*
Y121511D01*
Y122624D02*
Y123188D01*
X111000Y121058D02*
Y123088D01*
X111100Y121225D02*
Y122913D01*
X111200Y121480D02*
Y122713D01*
X111800Y120803D02*
Y121042D01*
Y122469D02*
Y122987D01*
X111900Y120778D02*
Y121017D01*
Y122344D02*
Y123087D01*
X112000Y120753D02*
Y120992D01*
Y122239D02*
Y123185D01*
X112100Y120732D02*
Y120983D01*
Y122159D02*
Y122682D01*
Y122821D02*
Y123242D01*
X112200Y120712D02*
Y120974D01*
Y122101D02*
Y122487D01*
Y123016D02*
Y123299D01*
X112300Y120707D02*
Y120965D01*
Y122072D02*
Y122387D01*
Y123101D02*
Y123348D01*
X112400Y120707D02*
Y120956D01*
Y122044D02*
Y122335D01*
Y123126D02*
Y123367D01*
X112500Y120714D02*
Y120952D01*
Y122005D02*
Y122295D01*
Y123148D02*
Y123385D01*
X112600Y120723D02*
Y120966D01*
Y121955D02*
Y122253D01*
Y123165D02*
Y123403D01*
X112700Y120732D02*
Y120981D01*
Y121905D02*
Y122210D01*
Y123181D02*
Y123421D01*
X112800Y120741D02*
Y120997D01*
Y121846D02*
Y122167D01*
Y123178D02*
Y123428D01*
X112900Y120752D02*
Y121022D01*
Y121786D02*
Y122120D01*
Y123165D02*
Y123427D01*
X113000Y120790D02*
Y121073D01*
Y121716D02*
Y122070D01*
Y123153D02*
Y123402D01*
X113100Y120827D02*
Y121206D01*
Y121641D02*
Y122019D01*
Y123140D02*
Y123385D01*
X113200Y120865D02*
Y121959D01*
Y123126D02*
Y123384D01*
X113300Y120972D02*
Y121898D01*
Y123111D02*
Y123359D01*
X113400Y121092D02*
Y121773D01*
X114100Y121780D02*
Y122305D01*
X114200Y121311D02*
Y122702D01*
X114300Y121119D02*
Y122885D01*
X114400Y120997D02*
Y121976D01*
Y122151D02*
Y123064D01*
Y182574D02*
Y183112D01*
X114500Y120922D02*
Y121455D01*
Y122637D02*
Y123142D01*
Y182109D02*
Y183504D01*
X114600Y120860D02*
Y121255D01*
Y122837D02*
Y123219D01*
Y181918D02*
Y183687D01*
X114700Y120800D02*
Y121153D01*
Y122939D02*
Y123297D01*
Y168673D02*
Y170785D01*
Y181796D02*
Y182767D01*
Y182960D02*
Y183864D01*
X114800Y120762D02*
Y121070D01*
Y123022D02*
Y123353D01*
Y168462D02*
Y170785D01*
Y181721D02*
Y182253D01*
Y183439D02*
Y183942D01*
X114900Y120728D02*
Y120993D01*
Y123099D02*
Y123373D01*
Y168323D02*
Y170785D01*
Y181660D02*
Y182053D01*
Y183639D02*
Y184020D01*
X115000Y120707D02*
Y120980D01*
Y123124D02*
Y123392D01*
Y168252D02*
Y168709D01*
Y181600D02*
Y181953D01*
Y183740D02*
Y184098D01*
X115100Y120707D02*
Y120968D01*
Y123149D02*
Y123409D01*
Y168180D02*
Y168485D01*
Y181561D02*
Y181869D01*
Y183823D02*
Y184153D01*
X115200Y120707D02*
Y120955D01*
Y123174D02*
Y123425D01*
Y168143D02*
Y168410D01*
Y181528D02*
Y181793D01*
Y183899D02*
Y184173D01*
X115300Y120719D02*
Y120955D01*
Y123181D02*
Y123418D01*
Y168133D02*
Y168348D01*
Y181507D02*
Y181780D01*
Y183924D02*
Y184192D01*
X115400Y120731D02*
Y120967D01*
Y123168D02*
Y123406D01*
Y168123D02*
Y168331D01*
Y181507D02*
Y181768D01*
Y183949D02*
Y184209D01*
X115500Y120744D02*
Y120980D01*
Y123156D02*
Y123395D01*
Y168113D02*
Y168315D01*
Y181507D02*
Y181755D01*
Y183974D02*
Y184225D01*
X115600Y120771D02*
Y120992D01*
Y123143D02*
Y123382D01*
Y168117D02*
Y168312D01*
Y181519D02*
Y181755D01*
Y183980D02*
Y184217D01*
X115700Y120809D02*
Y121032D01*
Y123103D02*
Y123353D01*
Y168137D02*
Y168327D01*
Y181531D02*
Y181767D01*
Y183968D02*
Y184206D01*
X115800Y120846D02*
Y121075D01*
Y123060D02*
Y123325D01*
Y168157D02*
Y168341D01*
Y181544D02*
Y181780D01*
Y183955D02*
Y184195D01*
X115900Y168177D02*
Y168372D01*
Y181571D02*
Y181792D01*
Y183943D02*
Y184182D01*
X116000Y168211D02*
Y168447D01*
Y181609D02*
Y181833D01*
Y183903D02*
Y184153D01*
X116100Y168268D02*
Y168583D01*
Y181646D02*
Y181875D01*
Y183860D02*
Y184124D01*
X116200Y168325D02*
Y168980D01*
X116300Y168439D02*
Y170785D01*
X116400Y168599D02*
Y170785D01*
X116600Y120750D02*
Y120992D01*
Y122743D02*
Y122990D01*
X116700Y120750D02*
Y120992D01*
Y122807D02*
Y123045D01*
X116800Y120750D02*
Y120992D01*
Y122873D02*
Y123100D01*
X116900Y120750D02*
Y120992D01*
Y122940D02*
Y123155D01*
Y181550D02*
Y181792D01*
Y183541D02*
Y183791D01*
X117000Y120750D02*
Y120992D01*
Y123007D02*
Y123210D01*
Y181550D02*
Y181792D01*
Y183607D02*
Y183846D01*
X117100Y120750D02*
Y120992D01*
Y123073D02*
Y123265D01*
Y181550D02*
Y181792D01*
Y183674D02*
Y183901D01*
X117200Y120750D02*
Y120992D01*
Y123139D02*
Y123320D01*
Y168150D02*
Y168392D01*
Y170141D02*
Y170391D01*
Y181550D02*
Y181792D01*
Y183741D02*
Y183956D01*
X117300Y120750D02*
Y123375D01*
Y168150D02*
Y168392D01*
Y170207D02*
Y170446D01*
Y181550D02*
Y181792D01*
Y183807D02*
Y184011D01*
X117400Y120750D02*
Y123385D01*
Y168150D02*
Y168392D01*
Y170274D02*
Y170501D01*
Y181550D02*
Y181792D01*
Y183874D02*
Y184066D01*
X117500Y120750D02*
Y123385D01*
Y168150D02*
Y168392D01*
Y170341D02*
Y170556D01*
Y181550D02*
Y181792D01*
Y183939D02*
Y184121D01*
X117600Y120750D02*
Y121025D01*
Y168150D02*
Y168392D01*
Y170407D02*
Y170611D01*
Y181550D02*
Y184176D01*
X117700Y120750D02*
Y120992D01*
Y168150D02*
Y168392D01*
Y170474D02*
Y170666D01*
Y181550D02*
Y184185D01*
X117800Y120750D02*
Y120992D01*
Y168150D02*
Y168392D01*
Y170539D02*
Y170721D01*
Y181550D02*
Y184185D01*
X117900Y120750D02*
Y120992D01*
Y168150D02*
Y170776D01*
Y181550D02*
Y181823D01*
X118000Y120750D02*
Y120992D01*
Y168150D02*
Y170785D01*
Y181550D02*
Y181792D01*
X118100Y120750D02*
Y120992D01*
Y168150D02*
Y170785D01*
Y181550D02*
Y181792D01*
X118200Y168150D02*
Y168423D01*
Y181550D02*
Y181792D01*
X118300Y168150D02*
Y168392D01*
Y181550D02*
Y181792D01*
X118400Y168150D02*
Y168392D01*
Y181550D02*
Y181792D01*
X118500Y168150D02*
Y168392D01*
X118600Y168150D02*
Y168392D01*
X118700Y168150D02*
Y168392D01*
X129500Y238550D02*
Y241185D01*
X129600Y238550D02*
Y241185D01*
X129700Y227850D02*
Y230485D01*
Y238550D02*
Y241185D01*
X129800Y227850D02*
Y230485D01*
Y239782D02*
Y239996D01*
Y240978D02*
Y241185D01*
X129900Y227850D02*
Y230485D01*
Y239789D02*
Y239988D01*
Y240986D02*
Y241185D01*
X130000Y227850D02*
Y228092D01*
Y230286D02*
Y230485D01*
Y239789D02*
Y239988D01*
Y240986D02*
Y241185D01*
X130100Y227850D02*
Y228092D01*
Y230286D02*
Y230485D01*
Y239789D02*
Y239988D01*
Y240986D02*
Y241185D01*
X130200Y227850D02*
Y228092D01*
Y230286D02*
Y230485D01*
Y239778D02*
Y240002D01*
Y240981D02*
Y241182D01*
X130300Y227858D02*
Y228096D01*
Y230286D02*
Y230485D01*
Y239712D02*
Y240022D01*
Y240961D02*
Y241172D01*
X130400Y227867D02*
Y228106D01*
Y230276D02*
Y230475D01*
Y239621D02*
Y240056D01*
Y240940D02*
Y241162D01*
X130500Y227876D02*
Y228116D01*
Y230266D02*
Y230460D01*
Y239444D02*
Y239769D01*
Y239874D02*
Y240106D01*
Y240890D02*
Y241152D01*
X130600Y227885D02*
Y228126D01*
Y230256D02*
Y230444D01*
Y239236D02*
Y239689D01*
Y239907D02*
Y240186D01*
Y240827D02*
Y241132D01*
X130700Y227901D02*
Y228138D01*
Y230246D02*
Y230429D01*
Y239026D02*
Y239600D01*
Y239941D02*
Y240348D01*
Y240639D02*
Y241075D01*
X130800Y227935D02*
Y228207D01*
Y230196D02*
Y230414D01*
Y238816D02*
Y239450D01*
Y240014D02*
Y241018D01*
X130900Y227968D02*
Y228279D01*
Y230112D02*
Y230389D01*
Y238606D02*
Y239270D01*
Y240116D02*
Y240935D01*
X131000Y228001D02*
Y228350D01*
Y230029D02*
Y230329D01*
Y238550D02*
Y239060D01*
Y240282D02*
Y240810D01*
X131100Y228064D02*
Y228524D01*
Y229872D02*
Y230269D01*
Y238550D02*
Y238850D01*
X131200Y228147D02*
Y228726D01*
Y229695D02*
Y230209D01*
Y238550D02*
Y238640D01*
X131300Y228245D02*
Y230141D01*
X131400Y228420D02*
Y230007D01*
X131500Y228714D02*
Y229676D01*
X131900Y238550D02*
Y238792D01*
Y240541D02*
Y240791D01*
X132000Y238550D02*
Y238792D01*
Y240607D02*
Y240846D01*
X132100Y227850D02*
Y228080D01*
Y238550D02*
Y238792D01*
Y240674D02*
Y240901D01*
X132200Y227850D02*
Y228186D01*
Y230091D02*
Y230243D01*
Y238550D02*
Y238792D01*
Y240741D02*
Y240956D01*
X132300Y227850D02*
Y228292D01*
Y230032D02*
Y230318D01*
Y238550D02*
Y238792D01*
Y240807D02*
Y241011D01*
X132400Y227850D02*
Y228399D01*
Y230116D02*
Y230393D01*
Y238550D02*
Y238792D01*
Y240874D02*
Y241066D01*
X132500Y227850D02*
Y228505D01*
Y230196D02*
Y230433D01*
Y238550D02*
Y238792D01*
Y240939D02*
Y241121D01*
X132600Y227850D02*
Y228092D01*
Y228250D02*
Y228611D01*
Y230225D02*
Y230466D01*
Y238550D02*
Y241176D01*
X132700Y227850D02*
Y228092D01*
Y228350D02*
Y228717D01*
Y230254D02*
Y230493D01*
Y238550D02*
Y241185D01*
X132800Y227850D02*
Y228092D01*
Y228450D02*
Y228822D01*
Y230283D02*
Y230510D01*
Y238550D02*
Y241185D01*
X132900Y227850D02*
Y228092D01*
Y228550D02*
Y228922D01*
Y230271D02*
Y230526D01*
Y238550D02*
Y238823D01*
X133000Y227850D02*
Y228092D01*
Y228651D02*
Y229022D01*
Y230251D02*
Y230514D01*
Y238550D02*
Y238792D01*
X133100Y227850D02*
Y228092D01*
Y228765D02*
Y229129D01*
Y230208D02*
Y230499D01*
Y238550D02*
Y238792D01*
X133200Y227850D02*
Y228092D01*
Y228879D02*
Y229254D01*
Y230139D02*
Y230479D01*
Y238550D02*
Y238792D01*
X133300Y227850D02*
Y228092D01*
Y228994D02*
Y229445D01*
Y229928D02*
Y230422D01*
Y238550D02*
Y238792D01*
X133400Y227850D02*
Y228092D01*
Y229114D02*
Y230365D01*
Y238550D02*
Y238792D01*
X133500Y227850D02*
Y228092D01*
Y229234D02*
Y230278D01*
X133600Y227850D02*
Y228092D01*
Y229431D02*
Y230128D01*
X133700Y227850D02*
Y228092D01*
X142000Y82974D02*
Y83512D01*
X142100Y82509D02*
Y83904D01*
X142200Y82318D02*
Y84087D01*
X142300Y82196D02*
Y83167D01*
Y83360D02*
Y84264D01*
X142400Y82121D02*
Y82653D01*
Y83839D02*
Y84342D01*
X142500Y82060D02*
Y82453D01*
Y84039D02*
Y84420D01*
X142600Y82000D02*
Y82353D01*
Y84140D02*
Y84498D01*
X142700Y81961D02*
Y82269D01*
Y84223D02*
Y84553D01*
X142800Y81928D02*
Y82193D01*
Y84299D02*
Y84573D01*
X142900Y81907D02*
Y82180D01*
Y84324D02*
Y84592D01*
X143000Y81907D02*
Y82168D01*
Y84349D02*
Y84609D01*
X143100Y81907D02*
Y82155D01*
Y84374D02*
Y84625D01*
X143200Y81919D02*
Y82155D01*
Y84380D02*
Y84617D01*
X143300Y81931D02*
Y82167D01*
Y84368D02*
Y84606D01*
X143400Y81944D02*
Y82180D01*
Y84355D02*
Y84595D01*
X143500Y81971D02*
Y82192D01*
Y84343D02*
Y84582D01*
X143600Y82009D02*
Y82233D01*
Y84303D02*
Y84553D01*
X143700Y82046D02*
Y82275D01*
Y84260D02*
Y84524D01*
X144500Y81907D02*
Y82131D01*
X144600Y81907D02*
Y82114D01*
Y84337D02*
Y84529D01*
X144700Y81907D02*
Y82106D01*
Y84366D02*
Y84557D01*
X144800Y81907D02*
Y82106D01*
Y83232D02*
Y83431D01*
Y84390D02*
Y84589D01*
X144900Y81907D02*
Y82106D01*
Y83232D02*
Y83431D01*
Y84404D02*
Y84614D01*
X145000Y81917D02*
Y82113D01*
Y83232D02*
Y83431D01*
Y84418D02*
Y84628D01*
X145100Y81933D02*
Y82125D01*
Y83223D02*
Y83442D01*
Y84425D02*
Y84628D01*
X145200Y81950D02*
Y82138D01*
Y83209D02*
Y83458D01*
Y84405D02*
Y84617D01*
X145300Y81967D02*
Y82150D01*
Y83194D02*
Y83475D01*
Y84385D02*
Y84605D01*
X145400Y81983D02*
Y82183D01*
Y83166D02*
Y83523D01*
Y84360D02*
Y84592D01*
X145500Y82018D02*
Y82217D01*
Y83126D02*
Y83334D01*
Y83372D02*
Y83579D01*
Y84324D02*
Y84564D01*
X145600Y82068D02*
Y82277D01*
Y83071D02*
Y83288D01*
Y83456D02*
Y83752D01*
Y84113D02*
Y84521D01*
X145700Y82118D02*
Y82444D01*
Y82971D02*
Y83262D01*
Y83535D02*
Y84478D01*
X145800Y82196D02*
Y83202D01*
Y83635D02*
Y84377D01*
X145900Y82336D02*
Y83136D01*
Y83881D02*
Y84155D01*
X146000Y82554D02*
Y82969D01*
X158900Y216650D02*
Y219285D01*
X159000Y216650D02*
Y219285D01*
X159100Y216650D02*
Y219285D01*
X159200Y216650D02*
Y216892D01*
Y219086D02*
Y219285D01*
X159300Y216650D02*
Y216892D01*
Y219086D02*
Y219285D01*
X159400Y216650D02*
Y216892D01*
Y219086D02*
Y219285D01*
X159500Y216658D02*
Y216896D01*
Y219086D02*
Y219285D01*
X159600Y216667D02*
Y216906D01*
Y219076D02*
Y219275D01*
X159700Y216676D02*
Y216916D01*
Y219066D02*
Y219260D01*
X159800Y216685D02*
Y216926D01*
Y219056D02*
Y219244D01*
X159900Y216701D02*
Y216938D01*
Y219046D02*
Y219229D01*
X160000Y216735D02*
Y217007D01*
Y218996D02*
Y219214D01*
X160100Y216768D02*
Y217079D01*
Y218912D02*
Y219189D01*
X160200Y216801D02*
Y217150D01*
Y218829D02*
Y219129D01*
X160300Y216864D02*
Y217324D01*
Y218672D02*
Y219069D01*
X160400Y216947D02*
Y217526D01*
Y218495D02*
Y219009D01*
X160500Y217045D02*
Y218941D01*
X160600Y217220D02*
Y218807D01*
X160700Y217514D02*
Y218476D01*
X161400Y216650D02*
Y216892D01*
Y218641D02*
Y218891D01*
X161500Y216650D02*
Y216892D01*
Y218707D02*
Y218946D01*
X161600Y216650D02*
Y216892D01*
Y218774D02*
Y219001D01*
X161700Y216650D02*
Y216892D01*
Y218841D02*
Y219056D01*
X161800Y216650D02*
Y216892D01*
Y218907D02*
Y219111D01*
X161900Y216650D02*
Y216892D01*
Y218974D02*
Y219166D01*
X162000Y216650D02*
Y216892D01*
Y219039D02*
Y219221D01*
X162100Y216650D02*
Y219276D01*
X162200Y216650D02*
Y219285D01*
X162300Y216650D02*
Y219285D01*
X162400Y216650D02*
Y216923D01*
X162500Y216650D02*
Y216892D01*
X162600Y216650D02*
Y216892D01*
X162700Y185399D02*
Y185685D01*
Y216650D02*
Y216892D01*
X162800Y185079D02*
Y185685D01*
Y216650D02*
Y216892D01*
X162900Y113050D02*
Y115685D01*
Y123050D02*
Y125685D01*
Y133050D02*
Y135685D01*
Y143050D02*
Y145685D01*
Y153050D02*
Y155685D01*
Y163050D02*
Y165685D01*
Y173050D02*
Y175685D01*
Y184759D02*
Y185658D01*
Y216650D02*
Y216892D01*
X163000Y113050D02*
Y115685D01*
Y123050D02*
Y125685D01*
Y133050D02*
Y135685D01*
Y143050D02*
Y145685D01*
Y153050D02*
Y155685D01*
Y163050D02*
Y165685D01*
Y173050D02*
Y175685D01*
Y184439D02*
Y185350D01*
X163100Y113050D02*
Y115685D01*
Y123050D02*
Y125685D01*
Y133050D02*
Y135685D01*
Y143050D02*
Y145685D01*
Y153050D02*
Y155685D01*
Y163050D02*
Y165685D01*
Y173050D02*
Y175685D01*
Y184119D02*
Y185043D01*
X163200Y114025D02*
Y114240D01*
Y115478D02*
Y115685D01*
Y124025D02*
Y124240D01*
Y125478D02*
Y125685D01*
Y134025D02*
Y134240D01*
Y135478D02*
Y135685D01*
Y144025D02*
Y144240D01*
Y145478D02*
Y145685D01*
Y154025D02*
Y154240D01*
Y155478D02*
Y155685D01*
Y164025D02*
Y164240D01*
Y165478D02*
Y165685D01*
Y174025D02*
Y174240D01*
Y175478D02*
Y175685D01*
Y183799D02*
Y184736D01*
X163300Y114033D02*
Y114232D01*
Y115486D02*
Y115685D01*
Y124033D02*
Y124232D01*
Y125486D02*
Y125685D01*
Y134033D02*
Y134232D01*
Y135486D02*
Y135685D01*
Y144033D02*
Y144232D01*
Y145486D02*
Y145685D01*
Y154033D02*
Y154232D01*
Y155486D02*
Y155685D01*
Y164033D02*
Y164232D01*
Y165486D02*
Y165685D01*
Y174033D02*
Y174232D01*
Y175486D02*
Y175685D01*
Y183479D02*
Y184429D01*
X163400Y114033D02*
Y114232D01*
Y115486D02*
Y115685D01*
Y124033D02*
Y124232D01*
Y125486D02*
Y125685D01*
Y134033D02*
Y134232D01*
Y135486D02*
Y135685D01*
Y144033D02*
Y144232D01*
Y145486D02*
Y145685D01*
Y154033D02*
Y154232D01*
Y155486D02*
Y155685D01*
Y164033D02*
Y164232D01*
Y165486D02*
Y165685D01*
Y174033D02*
Y174232D01*
Y175486D02*
Y175685D01*
Y183159D02*
Y184122D01*
X163500Y114033D02*
Y114232D01*
Y115486D02*
Y115685D01*
Y124033D02*
Y124232D01*
Y125486D02*
Y125685D01*
Y134033D02*
Y134232D01*
Y135486D02*
Y135685D01*
Y144033D02*
Y144232D01*
Y145486D02*
Y145685D01*
Y154033D02*
Y154232D01*
Y155486D02*
Y155685D01*
Y164033D02*
Y164232D01*
Y165486D02*
Y165685D01*
Y174033D02*
Y174232D01*
Y175486D02*
Y175685D01*
Y183050D02*
Y183811D01*
X163600Y114033D02*
Y114236D01*
Y115486D02*
Y115685D01*
Y124033D02*
Y124236D01*
Y125486D02*
Y125685D01*
Y134033D02*
Y134236D01*
Y135486D02*
Y135685D01*
Y144033D02*
Y144236D01*
Y145486D02*
Y145685D01*
Y154033D02*
Y154236D01*
Y155486D02*
Y155685D01*
Y164033D02*
Y164236D01*
Y165486D02*
Y165685D01*
Y174033D02*
Y174236D01*
Y175486D02*
Y175685D01*
Y183050D02*
Y183486D01*
X163700Y114033D02*
Y114250D01*
Y115472D02*
Y115676D01*
Y124033D02*
Y124250D01*
Y125472D02*
Y125676D01*
Y134033D02*
Y134250D01*
Y135472D02*
Y135676D01*
Y144033D02*
Y144250D01*
Y145472D02*
Y145676D01*
Y154033D02*
Y154250D01*
Y155472D02*
Y155676D01*
Y164033D02*
Y164250D01*
Y165472D02*
Y165676D01*
Y174033D02*
Y174250D01*
Y175472D02*
Y175676D01*
Y183050D02*
Y183292D01*
X163800Y114033D02*
Y114265D01*
Y115455D02*
Y115666D01*
Y124033D02*
Y124265D01*
Y125455D02*
Y125666D01*
Y134033D02*
Y134265D01*
Y135455D02*
Y135666D01*
Y144033D02*
Y144265D01*
Y145455D02*
Y145666D01*
Y154033D02*
Y154265D01*
Y155455D02*
Y155666D01*
Y164033D02*
Y164265D01*
Y165455D02*
Y165666D01*
Y174033D02*
Y174265D01*
Y175455D02*
Y175666D01*
Y183050D02*
Y183568D01*
X163900Y114061D02*
Y114284D01*
Y115434D02*
Y115656D01*
Y124061D02*
Y124284D01*
Y125434D02*
Y125656D01*
Y134061D02*
Y134284D01*
Y135434D02*
Y135656D01*
Y144061D02*
Y144284D01*
Y145434D02*
Y145656D01*
Y154061D02*
Y154284D01*
Y155434D02*
Y155656D01*
Y164061D02*
Y164284D01*
Y165434D02*
Y165656D01*
Y174061D02*
Y174284D01*
Y175434D02*
Y175656D01*
Y183124D02*
Y183967D01*
X164000Y114094D02*
Y114324D01*
Y115394D02*
Y115646D01*
Y124094D02*
Y124324D01*
Y125394D02*
Y125646D01*
Y134094D02*
Y134324D01*
Y135394D02*
Y135646D01*
Y144094D02*
Y144324D01*
Y145394D02*
Y145646D01*
Y154094D02*
Y154324D01*
Y155394D02*
Y155646D01*
Y164094D02*
Y164324D01*
Y165394D02*
Y165646D01*
Y174094D02*
Y174324D01*
Y175394D02*
Y175646D01*
Y183415D02*
Y184274D01*
X164100Y114139D02*
Y114364D01*
Y115354D02*
Y115606D01*
Y124139D02*
Y124364D01*
Y125354D02*
Y125606D01*
Y134139D02*
Y134364D01*
Y135354D02*
Y135606D01*
Y144139D02*
Y144364D01*
Y145354D02*
Y145606D01*
Y154139D02*
Y154364D01*
Y155354D02*
Y155606D01*
Y164139D02*
Y164364D01*
Y165354D02*
Y165606D01*
Y174139D02*
Y174364D01*
Y175354D02*
Y175606D01*
Y183706D02*
Y184581D01*
X164200Y114202D02*
Y114511D01*
Y115207D02*
Y115556D01*
Y124202D02*
Y124511D01*
Y125207D02*
Y125556D01*
Y134202D02*
Y134511D01*
Y135207D02*
Y135556D01*
Y144202D02*
Y144511D01*
Y145207D02*
Y145556D01*
Y154202D02*
Y154511D01*
Y155207D02*
Y155556D01*
Y164202D02*
Y164511D01*
Y165207D02*
Y165556D01*
Y174202D02*
Y174511D01*
Y175207D02*
Y175556D01*
Y183997D02*
Y184888D01*
X164300Y114264D02*
Y114863D01*
Y114896D02*
Y115506D01*
Y124264D02*
Y124863D01*
Y124896D02*
Y125506D01*
Y134264D02*
Y134863D01*
Y134896D02*
Y135506D01*
Y144264D02*
Y144863D01*
Y144896D02*
Y145506D01*
Y154264D02*
Y154863D01*
Y154896D02*
Y155506D01*
Y164264D02*
Y164863D01*
Y164896D02*
Y165506D01*
Y174264D02*
Y174863D01*
Y174896D02*
Y175506D01*
Y184288D02*
Y185196D01*
X164400Y114336D02*
Y115420D01*
Y124336D02*
Y125420D01*
Y134336D02*
Y135420D01*
Y144336D02*
Y145420D01*
Y154336D02*
Y155420D01*
Y164336D02*
Y165420D01*
Y174336D02*
Y175420D01*
Y184579D02*
Y185503D01*
X164500Y114476D02*
Y115300D01*
Y124476D02*
Y125300D01*
Y134476D02*
Y135300D01*
Y144476D02*
Y145300D01*
Y154476D02*
Y155300D01*
Y164476D02*
Y165300D01*
Y174476D02*
Y175300D01*
Y184869D02*
Y185685D01*
X164600Y114677D02*
Y115141D01*
Y124677D02*
Y125141D01*
Y134677D02*
Y135141D01*
Y144677D02*
Y145141D01*
Y154677D02*
Y155141D01*
Y164677D02*
Y165141D01*
Y174677D02*
Y175141D01*
Y185160D02*
Y185685D01*
X164700Y185451D02*
Y185685D01*
X165000Y153050D02*
Y153165D01*
Y163050D02*
Y163165D01*
Y173050D02*
Y173165D01*
X165100Y153050D02*
Y153470D01*
Y163050D02*
Y163470D01*
Y173050D02*
Y173470D01*
X165200Y113735D02*
Y114911D01*
Y123735D02*
Y124911D01*
Y133735D02*
Y134911D01*
Y143735D02*
Y144911D01*
Y153050D02*
Y153775D01*
Y163050D02*
Y163775D01*
Y173050D02*
Y173775D01*
Y183050D02*
Y185685D01*
X165300Y113502D02*
Y115094D01*
Y123502D02*
Y125094D01*
Y133502D02*
Y135094D01*
Y143502D02*
Y145094D01*
Y153260D02*
Y154080D01*
Y163260D02*
Y164080D01*
Y173260D02*
Y174080D01*
Y183050D02*
Y185685D01*
X165400Y113335D02*
Y115278D01*
Y123335D02*
Y125278D01*
Y133335D02*
Y135278D01*
Y143335D02*
Y145278D01*
Y153610D02*
Y154384D01*
Y163610D02*
Y164384D01*
Y173610D02*
Y174384D01*
Y183050D02*
Y183331D01*
Y185447D02*
Y185685D01*
X165500Y113259D02*
Y113854D01*
Y114838D02*
Y115403D01*
Y123259D02*
Y123854D01*
Y124838D02*
Y125403D01*
Y133259D02*
Y133854D01*
Y134838D02*
Y135403D01*
Y143259D02*
Y143854D01*
Y144838D02*
Y145403D01*
Y153648D02*
Y154689D01*
Y163648D02*
Y164689D01*
Y173648D02*
Y174689D01*
Y183050D02*
Y183292D01*
Y185486D02*
Y185685D01*
X165600Y113190D02*
Y113654D01*
Y115038D02*
Y115481D01*
Y123190D02*
Y123654D01*
Y125038D02*
Y125481D01*
Y133190D02*
Y133654D01*
Y135038D02*
Y135481D01*
Y143190D02*
Y143654D01*
Y145038D02*
Y145481D01*
Y153648D02*
Y153890D01*
Y154180D02*
Y154994D01*
Y163648D02*
Y163890D01*
Y164180D02*
Y164994D01*
Y173648D02*
Y173890D01*
Y174180D02*
Y174994D01*
Y183050D02*
Y183292D01*
Y185486D02*
Y185685D01*
X165700Y113130D02*
Y113495D01*
Y115198D02*
Y115558D01*
Y123130D02*
Y123495D01*
Y125198D02*
Y125558D01*
Y133130D02*
Y133495D01*
Y135198D02*
Y135558D01*
Y143130D02*
Y143495D01*
Y145198D02*
Y145558D01*
Y153648D02*
Y153890D01*
Y154499D02*
Y155299D01*
Y163648D02*
Y163890D01*
Y164499D02*
Y165299D01*
Y173648D02*
Y173890D01*
Y174499D02*
Y175299D01*
Y183054D02*
Y183292D01*
Y185486D02*
Y185685D01*
X165800Y113078D02*
Y113411D01*
Y115281D02*
Y115636D01*
Y123078D02*
Y123411D01*
Y125281D02*
Y125636D01*
Y133078D02*
Y133411D01*
Y135281D02*
Y135636D01*
Y143078D02*
Y143411D01*
Y145281D02*
Y145636D01*
Y153648D02*
Y153890D01*
Y154817D02*
Y155603D01*
Y163648D02*
Y163890D01*
Y164817D02*
Y165603D01*
Y173648D02*
Y173890D01*
Y174817D02*
Y175603D01*
Y183063D02*
Y183301D01*
Y185481D02*
Y185683D01*
X165900Y113045D02*
Y113328D01*
Y115364D02*
Y115663D01*
Y123045D02*
Y123328D01*
Y125364D02*
Y125663D01*
Y133045D02*
Y133328D01*
Y135364D02*
Y135663D01*
Y143045D02*
Y143328D01*
Y145364D02*
Y145663D01*
Y153648D02*
Y153890D01*
Y155135D02*
Y155685D01*
Y163648D02*
Y163890D01*
Y165135D02*
Y165685D01*
Y173648D02*
Y173890D01*
Y175135D02*
Y175685D01*
Y183072D02*
Y183311D01*
Y185471D02*
Y185668D01*
X166000Y113011D02*
Y113287D01*
Y115412D02*
Y115683D01*
Y123011D02*
Y123287D01*
Y125412D02*
Y125683D01*
Y133011D02*
Y133287D01*
Y135412D02*
Y135683D01*
Y143011D02*
Y143287D01*
Y145412D02*
Y145683D01*
Y153648D02*
Y153890D01*
Y155453D02*
Y155685D01*
Y163648D02*
Y163890D01*
Y165453D02*
Y165685D01*
Y173648D02*
Y173890D01*
Y175453D02*
Y175685D01*
Y183081D02*
Y183321D01*
Y185461D02*
Y185652D01*
X166100Y113007D02*
Y113274D01*
Y115437D02*
Y115700D01*
Y123007D02*
Y123274D01*
Y125437D02*
Y125700D01*
Y133007D02*
Y133274D01*
Y135437D02*
Y135700D01*
Y143007D02*
Y143274D01*
Y145437D02*
Y145700D01*
Y153648D02*
Y153890D01*
Y155432D02*
Y155685D01*
Y163648D02*
Y163890D01*
Y165432D02*
Y165685D01*
Y173648D02*
Y173890D01*
Y175432D02*
Y175685D01*
Y183090D02*
Y183331D01*
Y185451D02*
Y185637D01*
X166200Y113007D02*
Y113262D01*
Y115462D02*
Y115717D01*
Y123007D02*
Y123262D01*
Y125462D02*
Y125717D01*
Y133007D02*
Y133262D01*
Y135462D02*
Y135717D01*
Y143007D02*
Y143262D01*
Y145462D02*
Y145717D01*
Y153648D02*
Y153890D01*
Y155082D02*
Y155685D01*
Y163648D02*
Y163890D01*
Y165082D02*
Y165685D01*
Y173648D02*
Y173890D01*
Y175082D02*
Y175685D01*
Y183118D02*
Y183371D01*
Y185437D02*
Y185621D01*
X166300Y113013D02*
Y113249D01*
Y115486D02*
Y115723D01*
Y123013D02*
Y123249D01*
Y125486D02*
Y125723D01*
Y133013D02*
Y133249D01*
Y135486D02*
Y135723D01*
Y143013D02*
Y143249D01*
Y145486D02*
Y145723D01*
Y153648D02*
Y153890D01*
Y154732D02*
Y155585D01*
Y163648D02*
Y163890D01*
Y164732D02*
Y165585D01*
Y173648D02*
Y173890D01*
Y174732D02*
Y175585D01*
Y183151D02*
Y183443D01*
Y185354D02*
Y185606D01*
X166400Y113025D02*
Y113261D01*
Y115474D02*
Y115712D01*
Y123025D02*
Y123261D01*
Y125474D02*
Y125712D01*
Y133025D02*
Y133261D01*
Y135474D02*
Y135712D01*
Y143025D02*
Y143261D01*
Y145474D02*
Y145712D01*
Y153648D02*
Y153890D01*
Y154382D02*
Y155280D01*
Y163648D02*
Y163890D01*
Y164382D02*
Y165280D01*
Y173648D02*
Y173890D01*
Y174382D02*
Y175280D01*
Y183185D02*
Y183514D01*
Y185271D02*
Y185559D01*
X166500Y113038D02*
Y113273D01*
Y115462D02*
Y115701D01*
Y123038D02*
Y123273D01*
Y125462D02*
Y125701D01*
Y133038D02*
Y133273D01*
Y135462D02*
Y135701D01*
Y143038D02*
Y143273D01*
Y145462D02*
Y145701D01*
Y153648D02*
Y153897D01*
Y154032D02*
Y154976D01*
Y163648D02*
Y163897D01*
Y164032D02*
Y164976D01*
Y173648D02*
Y173897D01*
Y174032D02*
Y174976D01*
Y183222D02*
Y183623D01*
Y185161D02*
Y185499D01*
X166600Y113052D02*
Y113286D01*
Y115449D02*
Y115690D01*
Y123052D02*
Y123286D01*
Y125449D02*
Y125690D01*
Y133052D02*
Y133286D01*
Y135449D02*
Y135690D01*
Y143052D02*
Y143286D01*
Y145449D02*
Y145690D01*
Y153648D02*
Y154671D01*
Y163648D02*
Y164671D01*
Y173648D02*
Y174671D01*
Y183305D02*
Y183823D01*
Y184986D02*
Y185439D01*
X166700Y113090D02*
Y113311D01*
Y115424D02*
Y115667D01*
Y123090D02*
Y123311D01*
Y125424D02*
Y125667D01*
Y133090D02*
Y133311D01*
Y135424D02*
Y135667D01*
Y143090D02*
Y143311D01*
Y145424D02*
Y145667D01*
Y153439D02*
Y154366D01*
Y163439D02*
Y164366D01*
Y173439D02*
Y174366D01*
Y183388D02*
Y185379D01*
X166800Y113127D02*
Y113354D01*
Y115381D02*
Y115639D01*
Y123127D02*
Y123354D01*
Y125381D02*
Y125639D01*
Y133127D02*
Y133354D01*
Y135381D02*
Y135639D01*
Y143127D02*
Y143354D01*
Y145381D02*
Y145639D01*
Y153089D02*
Y154061D01*
Y163089D02*
Y164061D01*
Y173089D02*
Y174061D01*
Y183532D02*
Y185275D01*
X166900Y153050D02*
Y153757D01*
Y163050D02*
Y163757D01*
Y173050D02*
Y173757D01*
Y183712D02*
Y185069D01*
X167000Y153050D02*
Y153452D01*
Y163050D02*
Y163452D01*
Y173050D02*
Y173452D01*
Y184209D02*
Y184554D01*
X167100Y153050D02*
Y153147D01*
Y163050D02*
Y163147D01*
Y173050D02*
Y173147D01*
X167400Y133648D02*
Y133984D01*
Y163648D02*
Y163984D01*
X167500Y133648D02*
Y134144D01*
Y163648D02*
Y164144D01*
Y183050D02*
Y185685D01*
X167600Y115443D02*
Y115685D01*
Y123007D02*
Y123239D01*
Y133648D02*
Y134303D01*
Y153007D02*
Y153239D01*
Y163648D02*
Y164303D01*
Y183050D02*
Y185685D01*
X167700Y115443D02*
Y115685D01*
Y123007D02*
Y123222D01*
Y125423D02*
Y125616D01*
Y133648D02*
Y133847D01*
Y134038D02*
Y134462D01*
Y143007D02*
Y143229D01*
Y144418D02*
Y145685D01*
Y153007D02*
Y153222D01*
Y155423D02*
Y155616D01*
Y163648D02*
Y163847D01*
Y164038D02*
Y164462D01*
Y173007D02*
Y173229D01*
Y174418D02*
Y175685D01*
Y183050D02*
Y185685D01*
X167800Y115443D02*
Y115685D01*
Y123007D02*
Y123206D01*
Y125452D02*
Y125641D01*
Y133648D02*
Y133847D01*
Y134197D02*
Y134621D01*
Y143007D02*
Y143213D01*
Y144418D02*
Y145685D01*
Y153007D02*
Y153206D01*
Y155452D02*
Y155641D01*
Y163648D02*
Y163847D01*
Y164197D02*
Y164621D01*
Y173007D02*
Y173213D01*
Y174418D02*
Y175685D01*
Y183050D02*
Y183292D01*
Y185486D02*
Y185685D01*
X167900Y113050D02*
Y113183D01*
Y115443D02*
Y115685D01*
Y123007D02*
Y123206D01*
Y125480D02*
Y125673D01*
Y133648D02*
Y133847D01*
Y134356D02*
Y134781D01*
Y143007D02*
Y143206D01*
Y144418D02*
Y145685D01*
Y153007D02*
Y153206D01*
Y155480D02*
Y155673D01*
Y163648D02*
Y163847D01*
Y164356D02*
Y164781D01*
Y173007D02*
Y173206D01*
Y174418D02*
Y175685D01*
Y183050D02*
Y183292D01*
Y185486D02*
Y185685D01*
X168000Y113050D02*
Y113390D01*
Y115443D02*
Y115685D01*
Y123007D02*
Y123206D01*
Y124332D02*
Y124531D01*
Y125497D02*
Y125702D01*
Y133648D02*
Y133847D01*
Y134515D02*
Y134940D01*
Y143007D02*
Y143206D01*
Y144418D02*
Y144618D01*
Y145484D02*
Y145685D01*
Y153007D02*
Y153206D01*
Y154332D02*
Y154531D01*
Y155497D02*
Y155702D01*
Y163648D02*
Y163847D01*
Y164515D02*
Y164940D01*
Y173007D02*
Y173206D01*
Y174418D02*
Y174618D01*
Y175484D02*
Y175685D01*
Y183050D02*
Y183292D01*
Y185486D02*
Y185685D01*
X168100Y113050D02*
Y113598D01*
Y115443D02*
Y115685D01*
Y123008D02*
Y123206D01*
Y124332D02*
Y124531D01*
Y125511D02*
Y125727D01*
Y133648D02*
Y133847D01*
Y134674D02*
Y135099D01*
Y143007D02*
Y143206D01*
Y144418D02*
Y144617D01*
Y145486D02*
Y145685D01*
Y153008D02*
Y153206D01*
Y154332D02*
Y154531D01*
Y155511D02*
Y155727D01*
Y163648D02*
Y163847D01*
Y164674D02*
Y165099D01*
Y173007D02*
Y173206D01*
Y174418D02*
Y174617D01*
Y175486D02*
Y175685D01*
Y183058D02*
Y183296D01*
Y185486D02*
Y185685D01*
X168200Y113237D02*
Y113805D01*
Y115443D02*
Y115685D01*
Y123025D02*
Y123219D01*
Y124330D02*
Y124533D01*
Y125525D02*
Y125728D01*
Y133648D02*
Y133847D01*
Y134833D02*
Y135259D01*
Y143013D02*
Y143214D01*
Y144410D02*
Y144617D01*
Y145486D02*
Y145685D01*
Y153025D02*
Y153219D01*
Y154330D02*
Y154533D01*
Y155525D02*
Y155728D01*
Y163648D02*
Y163847D01*
Y164833D02*
Y165259D01*
Y173013D02*
Y173214D01*
Y174410D02*
Y174617D01*
Y175486D02*
Y175685D01*
Y183067D02*
Y183306D01*
Y185476D02*
Y185675D01*
X168300Y113445D02*
Y114012D01*
Y115443D02*
Y115685D01*
Y123042D02*
Y123231D01*
Y124316D02*
Y124550D01*
Y125515D02*
Y125724D01*
Y133648D02*
Y133847D01*
Y134992D02*
Y135418D01*
Y143023D02*
Y143229D01*
Y144395D02*
Y144613D01*
Y145486D02*
Y145685D01*
Y153042D02*
Y153231D01*
Y154316D02*
Y154550D01*
Y155515D02*
Y155724D01*
Y163648D02*
Y163847D01*
Y164992D02*
Y165418D01*
Y173023D02*
Y173229D01*
Y174395D02*
Y174613D01*
Y175486D02*
Y175685D01*
Y183076D02*
Y183316D01*
Y185466D02*
Y185660D01*
X168400Y113652D02*
Y114220D01*
Y115443D02*
Y115685D01*
Y123058D02*
Y123244D01*
Y124302D02*
Y124567D01*
Y125495D02*
Y125711D01*
Y133648D02*
Y133847D01*
Y135151D02*
Y135577D01*
Y143033D02*
Y143243D01*
Y144381D02*
Y144602D01*
Y145486D02*
Y145685D01*
Y153058D02*
Y153244D01*
Y154302D02*
Y154567D01*
Y155495D02*
Y155711D01*
Y163648D02*
Y163847D01*
Y165151D02*
Y165577D01*
Y173033D02*
Y173243D01*
Y174381D02*
Y174602D01*
Y175486D02*
Y175685D01*
Y183085D02*
Y183326D01*
Y185456D02*
Y185645D01*
X168500Y113860D02*
Y114427D01*
Y115443D02*
Y115685D01*
Y123075D02*
Y123266D01*
Y124286D02*
Y124598D01*
Y125472D02*
Y125699D01*
Y133648D02*
Y133847D01*
Y135310D02*
Y135685D01*
Y143043D02*
Y143277D01*
Y144358D02*
Y144591D01*
Y145486D02*
Y145685D01*
Y153075D02*
Y153266D01*
Y154286D02*
Y154598D01*
Y155472D02*
Y155699D01*
Y163648D02*
Y163847D01*
Y165310D02*
Y165685D01*
Y173043D02*
Y173277D01*
Y174358D02*
Y174591D01*
Y175486D02*
Y175685D01*
Y183101D02*
Y183338D01*
Y185446D02*
Y185629D01*
X168600Y114067D02*
Y114635D01*
Y115443D02*
Y115685D01*
Y123093D02*
Y123300D01*
Y124246D02*
Y124648D01*
Y125447D02*
Y125685D01*
Y133648D02*
Y133847D01*
Y135442D02*
Y135685D01*
Y143075D02*
Y143337D01*
Y144324D02*
Y144580D01*
Y145486D02*
Y145685D01*
Y153093D02*
Y153300D01*
Y154246D02*
Y154648D01*
Y155447D02*
Y155685D01*
Y163648D02*
Y163847D01*
Y165442D02*
Y165685D01*
Y173075D02*
Y173337D01*
Y174324D02*
Y174580D01*
Y175486D02*
Y175685D01*
Y183134D02*
Y183407D01*
Y185396D02*
Y185614D01*
X168700Y114274D02*
Y114842D01*
Y115443D02*
Y115685D01*
Y123143D02*
Y123333D01*
Y124206D02*
Y124401D01*
Y124518D02*
Y124753D01*
Y125327D02*
Y125643D01*
Y133050D02*
Y135685D01*
Y143130D02*
Y143403D01*
Y144291D02*
Y144550D01*
Y145486D02*
Y145685D01*
Y153143D02*
Y153333D01*
Y154206D02*
Y154401D01*
Y154518D02*
Y154753D01*
Y155327D02*
Y155643D01*
Y163050D02*
Y165685D01*
Y173130D02*
Y173403D01*
Y174291D02*
Y174550D01*
Y175486D02*
Y175685D01*
Y183168D02*
Y183478D01*
Y185313D02*
Y185589D01*
X168800Y114482D02*
Y115049D01*
Y115443D02*
Y115685D01*
Y123193D02*
Y123460D01*
Y124121D02*
Y124376D01*
Y124593D02*
Y125600D01*
Y133050D02*
Y135685D01*
Y143186D02*
Y143503D01*
Y144185D02*
Y144507D01*
Y145486D02*
Y145685D01*
Y153193D02*
Y153460D01*
Y154121D02*
Y154376D01*
Y154593D02*
Y155600D01*
Y163050D02*
Y165685D01*
Y173186D02*
Y173503D01*
Y174185D02*
Y174507D01*
Y175486D02*
Y175685D01*
Y183201D02*
Y183550D01*
Y185230D02*
Y185529D01*
X168900Y114689D02*
Y115257D01*
Y115443D02*
Y115685D01*
Y123243D02*
Y123719D01*
Y123905D02*
Y124332D01*
Y124684D02*
Y125540D01*
Y133050D02*
Y135685D01*
Y143241D02*
Y143745D01*
Y143947D02*
Y144464D01*
Y145486D02*
Y145685D01*
Y153243D02*
Y153719D01*
Y153905D02*
Y154332D01*
Y154684D02*
Y155540D01*
Y163050D02*
Y165685D01*
Y173241D02*
Y173745D01*
Y173947D02*
Y174464D01*
Y175486D02*
Y175685D01*
Y183263D02*
Y183722D01*
Y185074D02*
Y185469D01*
X169000Y114897D02*
Y115685D01*
Y123366D02*
Y124272D01*
Y124830D02*
Y125415D01*
Y133648D02*
Y133847D01*
Y143345D02*
Y144378D01*
Y145486D02*
Y145685D01*
Y153366D02*
Y154272D01*
Y154830D02*
Y155415D01*
Y163648D02*
Y163847D01*
Y173345D02*
Y174378D01*
Y175486D02*
Y175685D01*
Y183346D02*
Y183923D01*
Y184897D02*
Y185409D01*
X169100Y115104D02*
Y115685D01*
Y123506D02*
Y124154D01*
Y133648D02*
Y133847D01*
Y143462D02*
Y144278D01*
Y153506D02*
Y154154D01*
Y163648D02*
Y163847D01*
Y173462D02*
Y174278D01*
Y183444D02*
Y185342D01*
X169200Y115312D02*
Y115685D01*
Y123852D02*
Y123860D01*
Y133648D02*
Y133847D01*
Y143606D02*
Y144146D01*
Y153852D02*
Y153860D01*
Y163648D02*
Y163847D01*
Y173606D02*
Y174146D01*
Y183619D02*
Y185208D01*
X169300Y133648D02*
Y133847D01*
Y163648D02*
Y163847D01*
Y183910D02*
Y184881D01*
X190700Y184176D02*
Y184496D01*
X190800Y183645D02*
Y184966D01*
X190900Y113050D02*
Y115685D01*
Y123050D02*
Y125685D01*
Y133050D02*
Y135685D01*
Y143050D02*
Y145685D01*
Y153050D02*
Y155685D01*
Y163050D02*
Y165685D01*
Y173050D02*
Y175685D01*
Y183467D02*
Y185123D01*
X191000Y113050D02*
Y115685D01*
Y123050D02*
Y125685D01*
Y133050D02*
Y135685D01*
Y143050D02*
Y145685D01*
Y153050D02*
Y155685D01*
Y163050D02*
Y165685D01*
Y173050D02*
Y175685D01*
Y183342D02*
Y185280D01*
X191100Y113050D02*
Y115685D01*
Y123050D02*
Y125685D01*
Y133050D02*
Y135685D01*
Y143050D02*
Y145685D01*
Y153050D02*
Y155685D01*
Y163050D02*
Y165685D01*
Y173050D02*
Y175685D01*
Y183264D02*
Y183794D01*
Y184892D02*
Y185410D01*
X191200Y114025D02*
Y114240D01*
Y115478D02*
Y115685D01*
Y124025D02*
Y124240D01*
Y125478D02*
Y125685D01*
Y134025D02*
Y134240D01*
Y135478D02*
Y135685D01*
Y144025D02*
Y144240D01*
Y145478D02*
Y145685D01*
Y154025D02*
Y154240D01*
Y155478D02*
Y155685D01*
Y164025D02*
Y164240D01*
Y165478D02*
Y165685D01*
Y174025D02*
Y174240D01*
Y175478D02*
Y175685D01*
Y183194D02*
Y183619D01*
Y185052D02*
Y185510D01*
X191300Y114033D02*
Y114232D01*
Y115486D02*
Y115685D01*
Y124033D02*
Y124232D01*
Y125486D02*
Y125685D01*
Y134033D02*
Y134232D01*
Y135486D02*
Y135685D01*
Y144033D02*
Y144232D01*
Y145486D02*
Y145685D01*
Y154033D02*
Y154232D01*
Y155486D02*
Y155685D01*
Y164033D02*
Y164232D01*
Y165486D02*
Y165685D01*
Y174033D02*
Y174232D01*
Y175486D02*
Y175685D01*
Y183134D02*
Y183508D01*
Y185192D02*
Y185576D01*
X191400Y114033D02*
Y114232D01*
Y115486D02*
Y115685D01*
Y124033D02*
Y124232D01*
Y125486D02*
Y125685D01*
Y134033D02*
Y134232D01*
Y135486D02*
Y135685D01*
Y144033D02*
Y144232D01*
Y145486D02*
Y145685D01*
Y154033D02*
Y154232D01*
Y155486D02*
Y155685D01*
Y164033D02*
Y164232D01*
Y165486D02*
Y165685D01*
Y174033D02*
Y174232D01*
Y175486D02*
Y175685D01*
Y183080D02*
Y183424D01*
Y185275D02*
Y185636D01*
X191500Y114033D02*
Y114232D01*
Y115486D02*
Y115685D01*
Y124033D02*
Y124232D01*
Y125486D02*
Y125685D01*
Y134033D02*
Y134232D01*
Y135486D02*
Y135685D01*
Y144033D02*
Y144232D01*
Y145486D02*
Y145685D01*
Y154033D02*
Y154232D01*
Y155486D02*
Y155685D01*
Y164033D02*
Y164232D01*
Y165486D02*
Y165685D01*
Y174033D02*
Y174232D01*
Y175486D02*
Y175685D01*
Y183047D02*
Y183342D01*
Y185359D02*
Y185659D01*
X191600Y114033D02*
Y114236D01*
Y115486D02*
Y115685D01*
Y124033D02*
Y124236D01*
Y125486D02*
Y125685D01*
Y134033D02*
Y134236D01*
Y135486D02*
Y135685D01*
Y144033D02*
Y144236D01*
Y145486D02*
Y145685D01*
Y154033D02*
Y154236D01*
Y155486D02*
Y155685D01*
Y164033D02*
Y164236D01*
Y165486D02*
Y165685D01*
Y174033D02*
Y174236D01*
Y175486D02*
Y175685D01*
Y183014D02*
Y183317D01*
Y185409D02*
Y185675D01*
X191700Y114033D02*
Y114250D01*
Y115472D02*
Y115676D01*
Y124033D02*
Y124250D01*
Y125472D02*
Y125676D01*
Y134033D02*
Y134250D01*
Y135472D02*
Y135676D01*
Y144033D02*
Y144250D01*
Y145472D02*
Y145676D01*
Y154033D02*
Y154250D01*
Y155472D02*
Y155676D01*
Y164033D02*
Y164250D01*
Y165472D02*
Y165676D01*
Y174033D02*
Y174250D01*
Y175472D02*
Y175676D01*
Y183007D02*
Y183295D01*
Y185431D02*
Y185691D01*
X191800Y114033D02*
Y114265D01*
Y115455D02*
Y115666D01*
Y124033D02*
Y124265D01*
Y125455D02*
Y125666D01*
Y134033D02*
Y134265D01*
Y135455D02*
Y135666D01*
Y144033D02*
Y144265D01*
Y145455D02*
Y145666D01*
Y154033D02*
Y154265D01*
Y155455D02*
Y155666D01*
Y164033D02*
Y164265D01*
Y165455D02*
Y165666D01*
Y174033D02*
Y174265D01*
Y175455D02*
Y175666D01*
Y183007D02*
Y183272D01*
Y184247D02*
Y184446D01*
Y185453D02*
Y185705D01*
X191900Y114061D02*
Y114284D01*
Y115434D02*
Y115656D01*
Y124061D02*
Y124284D01*
Y125434D02*
Y125656D01*
Y134061D02*
Y134284D01*
Y135434D02*
Y135656D01*
Y144061D02*
Y144284D01*
Y145434D02*
Y145656D01*
Y154061D02*
Y154284D01*
Y155434D02*
Y155656D01*
Y164061D02*
Y164284D01*
Y165434D02*
Y165656D01*
Y174061D02*
Y174284D01*
Y175434D02*
Y175656D01*
Y183007D02*
Y183250D01*
Y184247D02*
Y184446D01*
Y185475D02*
Y185720D01*
X192000Y114094D02*
Y114324D01*
Y115394D02*
Y115646D01*
Y124094D02*
Y124324D01*
Y125394D02*
Y125646D01*
Y134094D02*
Y134324D01*
Y135394D02*
Y135646D01*
Y144094D02*
Y144324D01*
Y145394D02*
Y145646D01*
Y154094D02*
Y154324D01*
Y155394D02*
Y155646D01*
Y164094D02*
Y164324D01*
Y165394D02*
Y165646D01*
Y174094D02*
Y174324D01*
Y175394D02*
Y175646D01*
Y183007D02*
Y183249D01*
Y184247D02*
Y184446D01*
Y185481D02*
Y185722D01*
X192100Y114139D02*
Y114364D01*
Y115354D02*
Y115606D01*
Y124139D02*
Y124364D01*
Y125354D02*
Y125606D01*
Y134139D02*
Y134364D01*
Y135354D02*
Y135606D01*
Y144139D02*
Y144364D01*
Y145354D02*
Y145606D01*
Y154139D02*
Y154364D01*
Y155354D02*
Y155606D01*
Y164139D02*
Y164364D01*
Y165354D02*
Y165606D01*
Y174139D02*
Y174364D01*
Y175354D02*
Y175606D01*
Y183021D02*
Y183253D01*
Y184247D02*
Y184446D01*
Y185470D02*
Y185709D01*
X192200Y114202D02*
Y114511D01*
Y115207D02*
Y115556D01*
Y124202D02*
Y124511D01*
Y125207D02*
Y125556D01*
Y134202D02*
Y134511D01*
Y135207D02*
Y135556D01*
Y144202D02*
Y144511D01*
Y145207D02*
Y145556D01*
Y154202D02*
Y154511D01*
Y155207D02*
Y155556D01*
Y164202D02*
Y164511D01*
Y165207D02*
Y165556D01*
Y174202D02*
Y174511D01*
Y175207D02*
Y175556D01*
Y183041D02*
Y183292D01*
Y184247D02*
Y184446D01*
Y185459D02*
Y185697D01*
X192300Y114264D02*
Y114863D01*
Y114896D02*
Y115506D01*
Y124264D02*
Y124863D01*
Y124896D02*
Y125506D01*
Y134264D02*
Y134863D01*
Y134896D02*
Y135506D01*
Y144264D02*
Y144863D01*
Y144896D02*
Y145506D01*
Y154264D02*
Y154863D01*
Y154896D02*
Y155506D01*
Y164264D02*
Y164863D01*
Y164896D02*
Y165506D01*
Y174264D02*
Y174863D01*
Y174896D02*
Y175506D01*
Y183061D02*
Y183327D01*
Y184211D02*
Y184446D01*
Y185448D02*
Y185682D01*
X192400Y114336D02*
Y115420D01*
Y124336D02*
Y125420D01*
Y134336D02*
Y135420D01*
Y144336D02*
Y145420D01*
Y154336D02*
Y155420D01*
Y164336D02*
Y165420D01*
Y174336D02*
Y175420D01*
Y183081D02*
Y184446D01*
Y185421D02*
Y185657D01*
X192500Y114476D02*
Y115300D01*
Y124476D02*
Y125300D01*
Y134476D02*
Y135300D01*
Y144476D02*
Y145300D01*
Y154476D02*
Y155300D01*
Y164476D02*
Y165300D01*
Y174476D02*
Y175300D01*
Y183116D02*
Y184446D01*
Y185378D02*
Y185632D01*
X192600Y114677D02*
Y115141D01*
Y124677D02*
Y125141D01*
Y134677D02*
Y135141D01*
Y144677D02*
Y145141D01*
Y154677D02*
Y155141D01*
Y164677D02*
Y165141D01*
Y174677D02*
Y175141D01*
X193000Y153050D02*
Y153165D01*
Y163050D02*
Y163165D01*
Y173050D02*
Y173165D01*
X193100Y153050D02*
Y153470D01*
Y163050D02*
Y163470D01*
Y173050D02*
Y173470D01*
X193200Y113735D02*
Y114911D01*
Y123735D02*
Y124911D01*
Y133735D02*
Y134911D01*
Y143735D02*
Y144911D01*
Y153050D02*
Y153775D01*
Y163050D02*
Y163775D01*
Y173050D02*
Y173775D01*
Y183050D02*
Y185685D01*
X193300Y113502D02*
Y115094D01*
Y123502D02*
Y125094D01*
Y133502D02*
Y135094D01*
Y143502D02*
Y145094D01*
Y153260D02*
Y154080D01*
Y163260D02*
Y164080D01*
Y173260D02*
Y174080D01*
Y183050D02*
Y185685D01*
X193400Y113335D02*
Y115278D01*
Y123335D02*
Y125278D01*
Y133335D02*
Y135278D01*
Y143335D02*
Y145278D01*
Y153610D02*
Y154384D01*
Y163610D02*
Y164384D01*
Y173610D02*
Y174384D01*
Y183050D02*
Y185685D01*
X193500Y113259D02*
Y113854D01*
Y114838D02*
Y115403D01*
Y123259D02*
Y123854D01*
Y124838D02*
Y125403D01*
Y133259D02*
Y133854D01*
Y134838D02*
Y135403D01*
Y143259D02*
Y143854D01*
Y144838D02*
Y145403D01*
Y153648D02*
Y154689D01*
Y163648D02*
Y164689D01*
Y173648D02*
Y174689D01*
Y185314D02*
Y185685D01*
X193600Y113190D02*
Y113654D01*
Y115038D02*
Y115481D01*
Y123190D02*
Y123654D01*
Y125038D02*
Y125481D01*
Y133190D02*
Y133654D01*
Y135038D02*
Y135481D01*
Y143190D02*
Y143654D01*
Y145038D02*
Y145481D01*
Y153648D02*
Y153890D01*
Y154180D02*
Y154994D01*
Y163648D02*
Y163890D01*
Y164180D02*
Y164994D01*
Y173648D02*
Y173890D01*
Y174180D02*
Y174994D01*
Y185122D02*
Y185653D01*
X193700Y113130D02*
Y113495D01*
Y115198D02*
Y115558D01*
Y123130D02*
Y123495D01*
Y125198D02*
Y125558D01*
Y133130D02*
Y133495D01*
Y135198D02*
Y135558D01*
Y143130D02*
Y143495D01*
Y145198D02*
Y145558D01*
Y153648D02*
Y153890D01*
Y154499D02*
Y155299D01*
Y163648D02*
Y163890D01*
Y164499D02*
Y165299D01*
Y173648D02*
Y173890D01*
Y174499D02*
Y175299D01*
Y184862D02*
Y185415D01*
X193800Y113078D02*
Y113411D01*
Y115281D02*
Y115636D01*
Y123078D02*
Y123411D01*
Y125281D02*
Y125636D01*
Y133078D02*
Y133411D01*
Y135281D02*
Y135636D01*
Y143078D02*
Y143411D01*
Y145281D02*
Y145636D01*
Y153648D02*
Y153890D01*
Y154817D02*
Y155603D01*
Y163648D02*
Y163890D01*
Y164817D02*
Y165603D01*
Y173648D02*
Y173890D01*
Y174817D02*
Y175603D01*
Y184614D02*
Y185178D01*
X193900Y113045D02*
Y113328D01*
Y115364D02*
Y115663D01*
Y123045D02*
Y123328D01*
Y125364D02*
Y125663D01*
Y133045D02*
Y133328D01*
Y135364D02*
Y135663D01*
Y143045D02*
Y143328D01*
Y145364D02*
Y145663D01*
Y153648D02*
Y153890D01*
Y155135D02*
Y155685D01*
Y163648D02*
Y163890D01*
Y165135D02*
Y165685D01*
Y173648D02*
Y173890D01*
Y175135D02*
Y175685D01*
Y184379D02*
Y184940D01*
X194000Y113011D02*
Y113287D01*
Y115412D02*
Y115683D01*
Y123011D02*
Y123287D01*
Y125412D02*
Y125683D01*
Y133011D02*
Y133287D01*
Y135412D02*
Y135683D01*
Y143011D02*
Y143287D01*
Y145412D02*
Y145683D01*
Y153648D02*
Y153890D01*
Y155453D02*
Y155685D01*
Y163648D02*
Y163890D01*
Y165453D02*
Y165685D01*
Y173648D02*
Y173890D01*
Y175453D02*
Y175685D01*
Y184143D02*
Y184703D01*
X194100Y113007D02*
Y113274D01*
Y115437D02*
Y115700D01*
Y123007D02*
Y123274D01*
Y125437D02*
Y125700D01*
Y133007D02*
Y133274D01*
Y135437D02*
Y135700D01*
Y143007D02*
Y143274D01*
Y145437D02*
Y145700D01*
Y153648D02*
Y153890D01*
Y155432D02*
Y155685D01*
Y163648D02*
Y163890D01*
Y165432D02*
Y165685D01*
Y173648D02*
Y173890D01*
Y175432D02*
Y175685D01*
Y183908D02*
Y184465D01*
X194200Y113007D02*
Y113262D01*
Y115462D02*
Y115717D01*
Y123007D02*
Y123262D01*
Y125462D02*
Y125717D01*
Y133007D02*
Y133262D01*
Y135462D02*
Y135717D01*
Y143007D02*
Y143262D01*
Y145462D02*
Y145717D01*
Y153648D02*
Y153890D01*
Y155082D02*
Y155685D01*
Y163648D02*
Y163890D01*
Y165082D02*
Y165685D01*
Y173648D02*
Y173890D01*
Y175082D02*
Y175685D01*
Y183673D02*
Y184228D01*
X194300Y113013D02*
Y113249D01*
Y115486D02*
Y115723D01*
Y123013D02*
Y123249D01*
Y125486D02*
Y125723D01*
Y133013D02*
Y133249D01*
Y135486D02*
Y135723D01*
Y143013D02*
Y143249D01*
Y145486D02*
Y145723D01*
Y153648D02*
Y153890D01*
Y154732D02*
Y155585D01*
Y163648D02*
Y163890D01*
Y164732D02*
Y165585D01*
Y173648D02*
Y173890D01*
Y174732D02*
Y175585D01*
Y183438D02*
Y183985D01*
X194400Y113025D02*
Y113261D01*
Y115474D02*
Y115712D01*
Y123025D02*
Y123261D01*
Y125474D02*
Y125712D01*
Y133025D02*
Y133261D01*
Y135474D02*
Y135712D01*
Y143025D02*
Y143261D01*
Y145474D02*
Y145712D01*
Y153648D02*
Y153890D01*
Y154382D02*
Y155280D01*
Y163648D02*
Y163890D01*
Y164382D02*
Y165280D01*
Y173648D02*
Y173890D01*
Y174382D02*
Y175280D01*
Y183202D02*
Y183735D01*
X194500Y113038D02*
Y113273D01*
Y115462D02*
Y115701D01*
Y123038D02*
Y123273D01*
Y125462D02*
Y125701D01*
Y133038D02*
Y133273D01*
Y135462D02*
Y135701D01*
Y143038D02*
Y143273D01*
Y145462D02*
Y145701D01*
Y153648D02*
Y153897D01*
Y154032D02*
Y154976D01*
Y163648D02*
Y163897D01*
Y164032D02*
Y164976D01*
Y173648D02*
Y173897D01*
Y174032D02*
Y174976D01*
Y183050D02*
Y183485D01*
X194600Y113052D02*
Y113286D01*
Y115449D02*
Y115690D01*
Y123052D02*
Y123286D01*
Y125449D02*
Y125690D01*
Y133052D02*
Y133286D01*
Y135449D02*
Y135690D01*
Y143052D02*
Y143286D01*
Y145449D02*
Y145690D01*
Y153648D02*
Y154671D01*
Y163648D02*
Y164671D01*
Y173648D02*
Y174671D01*
Y183050D02*
Y183440D01*
X194700Y113090D02*
Y113311D01*
Y115424D02*
Y115667D01*
Y123090D02*
Y123311D01*
Y125424D02*
Y125667D01*
Y133090D02*
Y133311D01*
Y135424D02*
Y135667D01*
Y143090D02*
Y143311D01*
Y145424D02*
Y145667D01*
Y153439D02*
Y154366D01*
Y163439D02*
Y164366D01*
Y173439D02*
Y174366D01*
Y183050D02*
Y185685D01*
X194800Y113127D02*
Y113354D01*
Y115381D02*
Y115639D01*
Y123127D02*
Y123354D01*
Y125381D02*
Y125639D01*
Y133127D02*
Y133354D01*
Y135381D02*
Y135639D01*
Y143127D02*
Y143354D01*
Y145381D02*
Y145639D01*
Y153089D02*
Y154061D01*
Y163089D02*
Y164061D01*
Y173089D02*
Y174061D01*
Y183050D02*
Y185685D01*
X194900Y153050D02*
Y153757D01*
Y163050D02*
Y163757D01*
Y173050D02*
Y173757D01*
X195000Y153050D02*
Y153452D01*
Y163050D02*
Y163452D01*
Y173050D02*
Y173452D01*
X195100Y153050D02*
Y153147D01*
Y163050D02*
Y163147D01*
Y173050D02*
Y173147D01*
X195500Y143759D02*
Y144872D01*
Y173759D02*
Y174872D01*
Y183050D02*
Y185685D01*
X195600Y113526D02*
Y114775D01*
Y123050D02*
Y123332D01*
Y125351D02*
Y125406D01*
Y135159D02*
Y135263D01*
Y143467D02*
Y145169D01*
Y153050D02*
Y153332D01*
Y155351D02*
Y155406D01*
Y165159D02*
Y165263D01*
Y173467D02*
Y175169D01*
Y183050D02*
Y185685D01*
X195700Y113358D02*
Y115040D01*
Y123050D02*
Y123439D01*
Y125231D02*
Y125481D01*
Y133050D02*
Y133292D01*
Y135074D02*
Y135318D01*
Y143298D02*
Y145390D01*
Y153050D02*
Y153439D01*
Y155231D02*
Y155481D01*
Y163050D02*
Y163292D01*
Y165074D02*
Y165318D01*
Y173298D02*
Y175390D01*
Y183050D02*
Y185685D01*
X195800Y113241D02*
Y113895D01*
Y114224D02*
Y114468D01*
Y114620D02*
Y115238D01*
Y123050D02*
Y123545D01*
Y125274D02*
Y125556D01*
Y133050D02*
Y133292D01*
Y135140D02*
Y135373D01*
Y143198D02*
Y143739D01*
Y143797D02*
Y144081D01*
Y144982D02*
Y145477D01*
Y153050D02*
Y153545D01*
Y155274D02*
Y155556D01*
Y163050D02*
Y163292D01*
Y165140D02*
Y165373D01*
Y173198D02*
Y173739D01*
Y173797D02*
Y174081D01*
Y174982D02*
Y175477D01*
Y183050D02*
Y183292D01*
Y185486D02*
Y185685D01*
X195900Y113150D02*
Y113522D01*
Y114269D02*
Y114466D01*
Y114976D02*
Y115338D01*
Y123050D02*
Y123651D01*
Y125357D02*
Y125616D01*
Y133050D02*
Y133292D01*
Y135207D02*
Y135428D01*
Y143134D02*
Y143498D01*
Y143875D02*
Y144155D01*
Y145223D02*
Y145565D01*
Y153050D02*
Y153651D01*
Y155357D02*
Y155616D01*
Y163050D02*
Y163292D01*
Y165207D02*
Y165428D01*
Y173134D02*
Y173498D01*
Y173875D02*
Y174155D01*
Y175223D02*
Y175565D01*
Y183050D02*
Y183292D01*
Y185486D02*
Y185685D01*
X196000Y113088D02*
Y113382D01*
Y114319D02*
Y114509D01*
Y115151D02*
Y115438D01*
Y123050D02*
Y123294D01*
Y123400D02*
Y123757D01*
Y125411D02*
Y125650D01*
Y133050D02*
Y133292D01*
Y135274D02*
Y135483D01*
Y143087D02*
Y143335D01*
Y143949D02*
Y144229D01*
Y145323D02*
Y145648D01*
Y153050D02*
Y153294D01*
Y153400D02*
Y153757D01*
Y155411D02*
Y155650D01*
Y163050D02*
Y163292D01*
Y165274D02*
Y165483D01*
Y173087D02*
Y173335D01*
Y173949D02*
Y174229D01*
Y175323D02*
Y175648D01*
Y183050D02*
Y183292D01*
Y185486D02*
Y185685D01*
X196100Y113068D02*
Y113302D01*
Y114377D02*
Y114552D01*
Y115281D02*
Y115509D01*
Y123050D02*
Y123292D01*
Y123500D02*
Y123864D01*
Y125440D02*
Y125683D01*
Y133050D02*
Y133292D01*
Y135340D02*
Y135538D01*
Y143065D02*
Y143285D01*
Y144023D02*
Y144303D01*
Y145423D02*
Y145673D01*
Y153050D02*
Y153292D01*
Y153500D02*
Y153864D01*
Y155440D02*
Y155683D01*
Y163050D02*
Y163292D01*
Y165340D02*
Y165538D01*
Y173065D02*
Y173285D01*
Y174023D02*
Y174303D01*
Y175423D02*
Y175673D01*
Y183058D02*
Y183296D01*
Y185486D02*
Y185685D01*
X196200Y113048D02*
Y113245D01*
Y114402D02*
Y114580D01*
Y115338D02*
Y115559D01*
Y123050D02*
Y123292D01*
Y123600D02*
Y123970D01*
Y125468D02*
Y125701D01*
Y133050D02*
Y133292D01*
Y135407D02*
Y135593D01*
Y143043D02*
Y143245D01*
Y144097D02*
Y144377D01*
Y145466D02*
Y145694D01*
Y153050D02*
Y153292D01*
Y153600D02*
Y153970D01*
Y155468D02*
Y155701D01*
Y163050D02*
Y163292D01*
Y165407D02*
Y165593D01*
Y173043D02*
Y173245D01*
Y174097D02*
Y174377D01*
Y175466D02*
Y175694D01*
Y183067D02*
Y183306D01*
Y185476D02*
Y185675D01*
X196300Y113028D02*
Y113225D01*
Y114418D02*
Y114591D01*
Y115395D02*
Y115609D01*
Y123050D02*
Y123292D01*
Y123700D02*
Y124071D01*
Y125481D02*
Y125718D01*
Y133050D02*
Y133302D01*
Y135433D02*
Y135648D01*
Y143021D02*
Y143225D01*
Y144171D02*
Y144452D01*
Y145499D02*
Y145711D01*
Y153050D02*
Y153292D01*
Y153700D02*
Y154071D01*
Y155481D02*
Y155718D01*
Y163050D02*
Y163302D01*
Y165433D02*
Y165648D01*
Y173021D02*
Y173225D01*
Y174171D02*
Y174452D01*
Y175499D02*
Y175711D01*
Y183076D02*
Y183316D01*
Y185466D02*
Y185660D01*
X196400Y113009D02*
Y113206D01*
Y114418D02*
Y114602D01*
Y115444D02*
Y115646D01*
Y123050D02*
Y123292D01*
Y123800D02*
Y124171D01*
Y125461D02*
Y125721D01*
Y133050D02*
Y135685D01*
Y143016D02*
Y143206D01*
Y144245D02*
Y144526D01*
Y145529D02*
Y145726D01*
Y153050D02*
Y153292D01*
Y153800D02*
Y154171D01*
Y155461D02*
Y155721D01*
Y163050D02*
Y165685D01*
Y173016D02*
Y173206D01*
Y174245D02*
Y174526D01*
Y175529D02*
Y175726D01*
Y183085D02*
Y183326D01*
Y185456D02*
Y185645D01*
X196500Y113031D02*
Y113223D01*
Y114407D02*
Y114614D01*
Y115454D02*
Y115654D01*
Y123050D02*
Y123292D01*
Y123907D02*
Y124271D01*
Y125440D02*
Y125707D01*
Y133050D02*
Y135685D01*
Y143032D02*
Y143238D01*
Y144319D02*
Y144600D01*
Y145505D02*
Y145704D01*
Y153050D02*
Y153292D01*
Y153907D02*
Y154271D01*
Y155440D02*
Y155707D01*
Y163050D02*
Y165685D01*
Y173032D02*
Y173238D01*
Y174319D02*
Y174600D01*
Y175505D02*
Y175704D01*
Y183101D02*
Y183338D01*
Y185446D02*
Y185629D01*
X196600Y113053D02*
Y113239D01*
Y114387D02*
Y114607D01*
Y115464D02*
Y115663D01*
Y123050D02*
Y123292D01*
Y124022D02*
Y124391D01*
Y125375D02*
Y125692D01*
Y133050D02*
Y135685D01*
Y143049D02*
Y143271D01*
Y144393D02*
Y144674D01*
Y145476D02*
Y145682D01*
Y153050D02*
Y153292D01*
Y154022D02*
Y154391D01*
Y155375D02*
Y155692D01*
Y163050D02*
Y165685D01*
Y173049D02*
Y173271D01*
Y174393D02*
Y174674D01*
Y175476D02*
Y175682D01*
Y183134D02*
Y183407D01*
Y185396D02*
Y185614D01*
X196700Y113076D02*
Y113270D01*
Y114353D02*
Y114594D01*
Y115474D02*
Y115671D01*
Y123050D02*
Y123292D01*
Y124136D02*
Y124519D01*
Y125242D02*
Y125651D01*
Y133050D02*
Y133292D01*
Y143069D02*
Y143317D01*
Y144467D02*
Y144748D01*
Y145426D02*
Y145659D01*
Y153050D02*
Y153292D01*
Y154136D02*
Y154519D01*
Y155242D02*
Y155651D01*
Y163050D02*
Y163292D01*
Y173069D02*
Y173317D01*
Y174467D02*
Y174748D01*
Y175426D02*
Y175659D01*
Y183168D02*
Y183478D01*
Y185313D02*
Y185589D01*
X196800Y113111D02*
Y113336D01*
Y114278D02*
Y114582D01*
Y115484D02*
Y115679D01*
Y123050D02*
Y123292D01*
Y124253D02*
Y125594D01*
Y133050D02*
Y133292D01*
Y143089D02*
Y143417D01*
Y144541D02*
Y144822D01*
Y145341D02*
Y145616D01*
Y153050D02*
Y153292D01*
Y154253D02*
Y155594D01*
Y163050D02*
Y163292D01*
Y173089D02*
Y173417D01*
Y174541D02*
Y174822D01*
Y175341D02*
Y175616D01*
Y183201D02*
Y183550D01*
Y185230D02*
Y185529D01*
X196900Y113168D02*
Y113484D01*
Y114174D02*
Y114542D01*
Y115486D02*
Y115685D01*
Y123050D02*
Y123292D01*
Y124373D02*
Y125537D01*
Y133050D02*
Y133292D01*
Y143162D02*
Y143571D01*
Y144615D02*
Y144896D01*
Y145126D02*
Y145541D01*
Y153050D02*
Y153292D01*
Y154373D02*
Y155537D01*
Y163050D02*
Y163292D01*
Y173162D02*
Y173571D01*
Y174615D02*
Y174896D01*
Y175126D02*
Y175541D01*
Y183263D02*
Y183722D01*
Y185074D02*
Y185469D01*
X197000Y113225D02*
Y113792D01*
Y113834D02*
Y114476D01*
Y115486D02*
Y115685D01*
Y123050D02*
Y123292D01*
Y124531D02*
Y125403D01*
Y133050D02*
Y133292D01*
Y143260D02*
Y143838D01*
Y144674D02*
Y145466D01*
Y153050D02*
Y153292D01*
Y154531D02*
Y155403D01*
Y163050D02*
Y163292D01*
Y173260D02*
Y173838D01*
Y174674D02*
Y175466D01*
Y183346D02*
Y183923D01*
Y184897D02*
Y185409D01*
X197100Y113347D02*
Y114399D01*
Y123050D02*
Y123292D01*
Y124853D02*
Y125096D01*
Y133050D02*
Y133292D01*
Y143406D02*
Y145361D01*
Y153050D02*
Y153292D01*
Y154853D02*
Y155096D01*
Y163050D02*
Y163292D01*
Y173406D02*
Y175361D01*
Y183444D02*
Y185342D01*
X197200Y113522D02*
Y114249D01*
Y123050D02*
Y123292D01*
Y133050D02*
Y133292D01*
Y143606D02*
Y145111D01*
Y153050D02*
Y153292D01*
Y163050D02*
Y163292D01*
Y173606D02*
Y175111D01*
Y183619D02*
Y185208D01*
X197300Y143945D02*
Y144809D01*
Y173945D02*
Y174809D01*
Y183910D02*
Y184881D01*
*
G04 PC Custom Flashes*
G04 Layer Name ICE(for8520)-5.pcb - flashes*
%LPD*%
*
*
G04 PC Circuitry*
G04 Layer Name ICE(for8520)-5.pcb - circuitry*
%LPD*%
*
G54D10*
G54D22*
X187400Y216063D02*
X189218Y209500D01*
X191036Y216063D02*
X189218Y209500D01*
X193082Y216063D02*
Y209500D01*
Y216063D02*
X194673D01*
X194673D02*
X195355Y215750D01*
X195809Y215125*
X196036Y214500*
X196264Y213563*
X196264D02*
Y212000D01*
X196036Y211063*
X196036D02*
X195809Y210438D01*
X195809D02*
X195355Y209813D01*
X195355D02*
X194673Y209500D01*
X193082*
X198309Y216063D02*
Y209500D01*
Y216063D02*
X199900D01*
X199900D02*
X200582Y215750D01*
X201036Y215125*
X201264Y214500*
X201491Y213563*
X201491D02*
Y212000D01*
X201264Y211063*
X201264D02*
X201036Y210438D01*
X201036D02*
X200582Y209813D01*
X200582D02*
X199900Y209500D01*
X198309*
X190009Y93000D02*
X189782Y93625D01*
X189327Y94250*
X188873Y94563*
X188873D02*
X187964D01*
X187964D02*
X187509Y94250D01*
X187055Y93625*
X186827Y93000*
X186600Y92063*
X186600D02*
Y90500D01*
X186827Y89563*
X186827D02*
X187055Y88938D01*
X187055D02*
X187509Y88313D01*
X187509D02*
X187964Y88000D01*
X188873*
X189327Y88313*
X189327D02*
X189782Y88938D01*
X189782D02*
X190009Y89563D01*
X190009D02*
Y90500D01*
X188873D02*
X190009D01*
X192055Y94563D02*
Y88000D01*
Y94563D02*
X195236Y88000D01*
Y94563D02*
Y88000D01*
X197282Y94563D02*
Y88000D01*
Y94563D02*
X198873D01*
X198873D02*
X199555Y94250D01*
X200009Y93625*
X200236Y93000*
X200464Y92063*
X200464D02*
Y90500D01*
X200236Y89563*
X200236D02*
X200009Y88938D01*
X200009D02*
X199555Y88313D01*
X199555D02*
X198873Y88000D01*
X197282*
G54D23*
X159094Y235000D02*
Y248386D01*
X170906*
Y235000*
X159094D02*
Y221614D01*
X170906*
Y235000*
X76000Y235463D02*
Y228900D01*
X81455Y233900D02*
X81227Y234525D01*
X80773Y235150*
X80318Y235463*
X80318D02*
X79409D01*
X79409D02*
X78955Y235150D01*
X78500Y234525*
X78273Y233900*
X78045Y232963*
X78045D02*
Y231400D01*
X78273Y230463*
X78273D02*
X78500Y229838D01*
X78500D02*
X78955Y229213D01*
X78955D02*
X79409Y228900D01*
X80318*
X80773Y229213*
X80773D02*
X81227Y229838D01*
X81227D02*
X81455Y230463D01*
X83500Y235463D02*
Y228900D01*
Y235463D02*
X86455D01*
X83500Y232338D02*
X85318D01*
X83500Y228900D02*
X86455D01*
X94864Y235463D02*
X94182Y235150D01*
X93955Y234525*
Y233900*
X94182Y233275*
X94636Y232963*
X94636D02*
X95545Y232650D01*
X96227Y232338*
X96227D02*
X96682Y231713D01*
X96682D02*
X96909Y231088D01*
X96909D02*
Y230150D01*
X96682Y229525*
X96455Y229213*
X96455D02*
X95773Y228900D01*
X94864*
X94182Y229213*
X94182D02*
X93955Y229525D01*
X93727Y230150*
Y231088*
X93727D02*
X93955Y231713D01*
X93955D02*
X94409Y232338D01*
X94409D02*
X95091Y232650D01*
X96000Y232963*
X96000D02*
X96455Y233275D01*
X96682Y233900*
Y234525*
X96455Y235150*
X95773Y235463*
X95773D02*
X94864D01*
X101909D02*
X99636D01*
X99636D02*
X99409Y232650D01*
X99636Y232963*
X99636D02*
X100318Y233275D01*
X101000*
X101682Y232963*
X101682D02*
X102136Y232338D01*
X102136D02*
X102364Y231400D01*
X102136Y230775*
X101909Y229838*
X101909D02*
X101455Y229213D01*
X101455D02*
X100773Y228900D01*
X100091*
X99409Y229213*
X99409D02*
X99182Y229525D01*
X98955Y230150*
X104636Y233900D02*
Y234213D01*
X104636D02*
X104864Y234838D01*
X104864D02*
X105091Y235150D01*
X105545Y235463*
X105545D02*
X106455D01*
X106455D02*
X106909Y235150D01*
X107136Y234838*
X107136D02*
X107364Y234213D01*
X107364D02*
Y233588D01*
X107364D02*
X107136Y232963D01*
X107136D02*
X106682Y232025D01*
X104409Y228900*
X107591*
X111000Y235463D02*
X110318Y235150D01*
X109864Y234213*
X109864D02*
X109636Y232650D01*
Y231713*
X109636D02*
X109864Y230150D01*
X110318Y229213*
X110318D02*
X111000Y228900D01*
X111455*
X112136Y229213*
X112136D02*
X112591Y230150D01*
X112818Y231713*
X112818D02*
Y232650D01*
X112591Y234213*
X112591D02*
X112136Y235150D01*
X111455Y235463*
X111455D02*
X111000D01*
X65300Y47000D02*
X205000D01*
Y253000*
X65300*
Y47000*
X80981Y190057D02*
G75*
G03X80981I-5956J0D01*
G01X81028Y109778D02*
G03X81028I-6154J0D01*
G54D24*
G01X95000Y98976D02*
X63740D01*
Y201024*
X95000*
Y98976*
X91969Y150000D02*
X90000D01*
Y148031*
Y151969D02*
Y150000D01*
X88031*
X80512Y190000D02*
G03X80512I-5512J0D01*
G01Y110000D02*
G03X80512I-5512J0D01*
G01X146500Y225500D02*
X154500D01*
Y234500*
X146500*
X143500Y225500D02*
X135500D01*
Y234500*
X143500*
X108000Y119449D02*
Y100551D01*
X158000*
Y119449*
X108000*
X131500Y175500D02*
X139500D01*
Y184500*
X131500*
X128500Y175500D02*
X120500D01*
Y184500*
X128500*
X156600Y91700D02*
Y99700D01*
X147600*
Y91700*
X156600Y88700D02*
Y80700D01*
X147600*
Y88700*
X118800Y91700D02*
Y99700D01*
X109800*
Y91700*
X118800Y88700D02*
Y80700D01*
X109800*
Y88700*
X146500Y235500D02*
X154500D01*
Y244500*
X146500*
X143500Y235500D02*
X135500D01*
Y244500*
X143500*
G54D57*
X123504Y165000D02*
X129188D01*
Y163125*
X130812*
Y165000*
X136496*
Y135000*
X123504*
Y165000*
X114252Y166732D02*
X145748D01*
Y133268*
X114252*
Y166732*
X128031Y150000D02*
X130000D01*
Y151969*
Y148031D02*
Y150000D01*
X131969*
X190043Y250650D02*
X199906D01*
Y218965*
X190043*
Y250650*
Y85650D02*
X199906D01*
Y53965*
X190043*
Y85650*
X170276Y189724D02*
X179724D01*
Y110276*
X170276*
Y189724*
X173031Y185000D02*
X175000D01*
Y186969*
Y183031D02*
Y185000D01*
X176969*
X180276Y189724D02*
X189724D01*
Y110276*
X180276*
Y189724*
X183031Y185000D02*
X185000D01*
Y186969*
Y183031D02*
Y185000D01*
X186969*
G74*
X0Y0D02*
M02*
