M48
;FILE_FORMAT=2:4
INCH,LZ
FMAT,2
ICI,OFF
;TYPE=PLATED
T1C.01575
T2C.03
T3C.03937
%
M72
G90
G93X0Y0
T1C.01575F095S3
X00317Y00138
X00217Y0014
X004Y00572
X0026Y00583
X00337Y005935
X00348Y00633
X00202Y00783
X00425Y00852
X003855Y0086
X00357Y01044
X00202Y01117
X00212Y01167
X00189Y01303
X00179Y0149
X00453Y01486
X006365Y01273
X0059Y01228
X00662Y01181
X004906Y010774
X006479Y01055
X00513Y01044
X00618Y01029
X00594Y008915
X00598Y00852
X00578Y00639
X0065Y005944
X0051Y00407
X009006Y00147
X009Y00212
X00707Y0042
X00694Y00463
X00842Y00491
X0091Y00492
X00781Y0068
X00855Y00753
X00716Y00758
X007635Y008022
X00769Y00876
X0076Y009155
X007385Y009515
X00884Y01006
X007878Y01009
X008266Y010516
X006884Y010554
X009154Y010559
X00875Y01182
X007909Y012561
X01017Y01617
X01051Y01512
X01052Y01295
X0102Y01259
X011049Y012339
X00946Y012235
X01081Y01202
X01163Y01152
X01077Y01086
X00944Y01026
X010557Y010077
X010727Y009502
X01076Y008747
X01005Y00786
X010535Y007025
X01111Y00693
X011668Y006673
X01005Y00654
X01138Y00617
X011Y00558
X01137Y00397
X01065Y00387
X0102Y00227
X009334Y001896
X011077Y001495
X01191Y00208
X01332Y00245
X012807Y00275
X01226Y00348
X013683Y00369
X01182Y003982
X01339Y00421
X011922Y004557
X012346Y005202
X012867Y005335
X01407Y00548
X013263Y005497
X012495Y005777
X0121Y00598
X013692Y00702
X0141Y00707
X012115Y007274
X01355Y00817
X01183Y00817
X013814Y008464
X01179Y008758
X01244Y00925
X013629Y009461
X0119Y009619
X012809Y009964
X01403Y01026
X012Y01032
X012379Y0105
X01428Y01154
X013117Y011777
X01396Y011779
X012895Y012261
X012952Y012656
X01393Y01445
X01355Y01476
X0129Y01569
X013254Y015894
X01489Y01533
X01518Y01456
X01547Y01398
X016607Y01389
X01531Y01284
X01645Y01222
X015089Y012001
X016336Y01143
X01604Y01079
X01524Y01058
X014339Y01051
X01515Y00999
X01489Y007071
X014495Y00702
X015391Y006759
X015612Y006308
X014631Y005919
X01546Y00563
X01565Y00525
X01441Y00443
X01524Y00406
X01822Y00709
X017525Y01226
X01807Y01392
T2C.03F197S55
X017878Y004596
X017878Y005596
X017878Y006596
X017878Y007596
X017878Y008596
X017878Y009596
T3C.03937F197S55
X008Y013437
X009Y013437
X009Y014437
X008Y014437
X011Y014437
X01Y014437
X012Y014437
X011Y013437
X012Y013437
X01Y013437
M30
