*
*
G04 PADS VX.2.4 Build Number: 11282995 generated Gerber (RS-274-X) file*
G04 PC Version=2.1*
*
%IN "NewICE to OLDICE.pcb"*%
*
%MOIN*%
*
%FSLAX35Y35*%
*
*
*
*
G04 PC Standard Apertures*
*
*
G04 Thermal Relief Aperture macro.*
%AMTER*
1,1,$1,0,0*
1,0,$1-$2,0,0*
21,0,$3,$4,0,0,45*
21,0,$3,$4,0,0,135*
%
*
*
G04 Annular Aperture macro.*
%AMANN*
1,1,$1,0,0*
1,0,$2,0,0*
%
*
*
G04 Odd Aperture macro.*
%AMODD*
1,1,$1,0,0*
1,0,$1-0.005,0,0*
%
*
*
G04 PC Custom Aperture Macros*
*
*
*
*
*
*
G04 PC Aperture Table*
*
%ADD010C,0.001*%
%ADD023C,0.01*%
%ADD024C,0.00787*%
%ADD025C,0.005*%
*
*
*
*
G04 PC Circuitry*
G04 Layer Name NewICE to OLDICE.pcb - circuitry*
%LPD*%
*
*
G04 PC Custom Flashes*
G04 Layer Name NewICE to OLDICE.pcb - flashes*
%LPD*%
*
*
G04 PC Circuitry*
G04 Layer Name NewICE to OLDICE.pcb - circuitry*
%LPD*%
*
G54D10*
G54D23*
G01X25200Y40000D02*
X149000D01*
Y160000*
X25200*
Y40000*
X146299Y150000D02*
G75*
G03X146299I-6299J0D01*
G01Y50000D02*
G03X146299I-6299J0D01*
G01X40636Y139700D02*
G03X40636I-5636J0D01*
G01X40961Y59900D02*
G03X40961I-6061J0D01*
G54D24*
G01X55000Y151024D02*
X23740D01*
Y48976*
X55000*
Y151024*
X51969Y100000D02*
X50000D01*
Y101969*
Y98031D02*
Y100000D01*
X48031*
X40512Y60000D02*
G03X40512I-5512J0D01*
G01Y140000D02*
G03X40512I-5512J0D01*
G54D25*
G01X52797Y46903D02*
X52911Y47216D01*
X52911D02*
X53138Y47528D01*
X53366Y47684*
X53820*
X54047Y47528*
X54275Y47216*
X54275D02*
X54388Y46903D01*
X54502Y46434*
Y45653*
X54388Y45184*
X54275Y44872*
X54047Y44559*
X53820Y44403*
X53366*
X53138Y44559*
X52911Y44872*
X52797Y45184*
X51093Y47684D02*
X51320Y47528D01*
X51547Y47216*
X51547D02*
X51661Y46903D01*
X51775Y46434*
Y45653*
X51661Y45184*
X51547Y44872*
X51320Y44559*
X51093Y44403*
X50638*
X50411Y44559*
X50184Y44872*
X50070Y45184*
X49957Y45653*
Y46434*
X50070Y46903*
X50184Y47216*
X50184D02*
X50411Y47528D01*
X50638Y47684*
X51093*
X48934D02*
Y44403D01*
Y47684D02*
X47343Y44403D01*
Y47684D02*
Y44403D01*
X46320Y47059D02*
X46093Y47216D01*
X46093D02*
X45752Y47684D01*
Y44403*
G74*
X0Y0D02*
M02*
