*
*
G04 PADS VX.2.4 Build Number: 11282995 generated Gerber (RS-274-X) file*
G04 PC Version=2.1*
*
%IN "NewICE to OLDICE.pcb"*%
*
%MOIN*%
*
%FSLAX35Y35*%
*
*
*
*
G04 PC Standard Apertures*
*
*
G04 Thermal Relief Aperture macro.*
%AMTER*
1,1,$1,0,0*
1,0,$1-$2,0,0*
21,0,$3,$4,0,0,45*
21,0,$3,$4,0,0,135*
%
*
*
G04 Annular Aperture macro.*
%AMANN*
1,1,$1,0,0*
1,0,$2,0,0*
%
*
*
G04 Odd Aperture macro.*
%AMODD*
1,1,$1,0,0*
1,0,$1-0.005,0,0*
%
*
*
G04 PC Custom Aperture Macros*
*
*
*
*
*
*
G04 PC Aperture Table*
*
%ADD010C,0.001*%
%ADD023C,0.01*%
%ADD057C,0.00787*%
*
*
*
*
G04 PC Circuitry*
G04 Layer Name NewICE to OLDICE.pcb - circuitry*
%LPD*%
*
G54D10*
G01X127358Y44888D02*
X127280Y45044D01*
X126997Y45233*
X126703Y45331*
X126697Y45333*
X126507Y45428*
X126431*
X126241Y45333*
X126219Y45328*
X125421*
X124425Y45228*
X123625Y45128*
X123619*
X123223*
X122969Y45092*
Y48228*
X124014*
X125107Y48427*
X125392Y48522*
X125469Y48599*
Y48742*
X125203Y48831*
X125197Y48833*
X125007Y48928*
X124827*
X124535Y48831*
X124519Y48828*
X124327*
X124035Y48731*
X124029Y48729*
X123533Y48630*
X123038Y48432*
X123035Y48431*
X122969Y48409*
Y49278*
X122970Y49288*
X123070Y49788*
Y49790*
X123169Y50184*
Y50578*
X123174Y50600*
X123269Y50790*
Y50951*
X122994Y51135*
X122607Y51328*
X122331*
X122149Y51237*
X122080Y51168*
X122164Y51000*
X122165Y50997*
X122365Y50497*
X122369Y50483*
X122469Y49383*
Y49378*
Y49377*
X122372Y45028*
X121721*
X119724Y44828*
X119719*
X118931*
X118769Y44747*
Y44605*
X119041Y44423*
X119335Y44325*
X119341Y44323*
X119531Y44228*
X119713*
X120107Y44327*
X120109*
X120609Y44427*
X120611*
X121211Y44527*
X121213Y44528*
X122013Y44628*
X122019*
X122817*
X124315Y44728*
X125615Y44828*
X125625*
X126422Y44728*
X127107*
X127289Y44819*
X127358Y44888*
X122737Y48331D02*
X122735D01*
X122719Y48328*
X122619*
X122569Y48378*
X122654Y48413*
X122737Y48331*
X115838Y43674D02*
X115582Y44528D01*
X115419*
X115409Y44529*
X114914Y44628*
X114840*
X115749Y43719*
X115838Y43674*
X116569Y50547D02*
X116397Y50633D01*
X116391Y50636*
X116094Y50835*
X115919Y50922*
X115741Y50833*
X115727Y50829*
X115128Y50729*
X114171Y50555*
X114093Y50633*
X113725Y50725*
X113569Y50647*
Y50590*
X113664Y50400*
X113669Y50378*
Y50186*
X113766Y49894*
X113768Y49888*
X113868Y49388*
X113869Y49378*
Y47878*
Y47872*
X113769Y47072*
X113768Y47071*
X113768D02*
X113668Y46371D01*
X113668D02*
Y46368D01*
X113568Y45868*
X113564Y45856*
X113064Y44856*
X113060Y44849*
X112369Y43862*
Y43859*
X112494Y43921*
X112787Y44117*
X113281Y44611*
X113576Y45004*
X113972Y45795*
X114170Y46686*
X114208Y47028*
X114219*
X114235Y47025*
X114521Y46930*
X114907Y47027*
X114919Y47028*
X115207*
X115397Y47123*
X115419Y47128*
X115711*
X115969Y47214*
Y46378*
Y46372*
X115869Y45575*
Y44778*
X115864Y44756*
X115764Y44556*
X115719Y44528*
X115686*
X115950Y43649*
X116085Y43717*
X116273Y43999*
X116370Y44388*
X116469Y44982*
Y46373*
X116370Y46868*
X116369Y46878*
Y49078*
X116370Y49085*
X116370D02*
X116470Y49785D01*
X116470D02*
Y49790D01*
X116569Y50184*
Y50547*
X115969Y48478D02*
Y47347D01*
X115807Y47428*
X115224*
X114332Y47230*
X114226Y47194*
X114269Y47581*
Y48528*
X114913*
X115307Y48627*
X115319Y48628*
X115511*
X115803Y48725*
X115819Y48728*
X115952*
X115969Y48481*
Y48478*
X115942Y48884D02*
X115803Y48931D01*
X115797Y48933*
X115607Y49028*
X115327*
X114435Y48731*
X114419Y48728*
X114269*
Y49978*
X114274Y50000*
X114369Y50190*
Y50299*
X114384Y50313*
X114419Y50328*
X114714*
X115209Y50427*
X115219Y50428*
X115619*
X115641Y50423*
X115841Y50323*
X115869Y50278*
Y49980*
X115942Y48884*
X113169Y46166D02*
X113085Y46335D01*
X112713Y46428*
X112525*
X112131Y46329*
X112128*
X111469Y46209*
Y46278*
X111474Y46300*
X111563Y46478*
X111476Y46653*
X111280Y46946*
X111198Y47028*
X111313*
X111707Y47127*
X111719Y47128*
X112169*
Y47099*
X112233Y47035*
X112482Y47118*
X112771Y47794*
X112970Y48590*
X112972Y48594*
X113072Y48894*
X113074Y48900*
X113158Y49068*
X112992Y49234*
X112703Y49331*
X112697Y49333*
X112519Y49422*
X112341Y49333*
X112319Y49328*
X111929*
X111438Y49132*
X111425Y49128*
X109979Y48948*
X109898Y49028*
X109540*
X109490Y48978*
X109554Y48913*
X109564Y48900*
X109864Y48300*
X109869Y48278*
Y47890*
X109964Y47700*
X109969Y47678*
Y47193*
X110158Y46910*
X110219Y46849*
X110278Y46908*
X110338Y47028*
X110880*
X111059Y46134*
X111028Y46129*
X111025Y46128*
X109427Y45929*
X108935Y45830*
X108769Y45747*
Y45709*
X108940Y45624*
X109407Y45437*
X109484Y45513*
X109519Y45528*
X109913*
X111069Y45800*
Y45078*
X111066Y45062*
X110969Y44770*
Y44478*
X110964Y44456*
X110869Y44266*
Y44090*
X111160Y43508*
X111219Y43449*
X111278Y43508*
X111371Y43694*
X111469Y44180*
X111369Y45173*
Y45178*
X111369*
X111370Y45185*
X111370D02*
X111469Y45882D01*
Y45894*
X111608Y45927*
X111612*
X111612D02*
X113012Y46127D01*
X113012D02*
X113019Y46128D01*
X113169*
Y46166*
X112369Y48978D02*
Y48178D01*
X112368Y48168*
X112268Y47668*
X112266Y47662*
X112169Y47370*
Y47339*
X111813Y47428*
X111727*
X111435Y47331*
X111423Y47328*
X110369Y47240*
Y47573*
X110285Y47951*
X110331Y47928*
X111013*
X111407Y48027*
X111419Y48028*
X111711*
X112003Y48125*
X112019Y48128*
X112269*
Y48247*
X112102Y48331*
X111725Y48425*
X111541Y48333*
X111528Y48329*
X110435Y48130*
X110264Y48045*
X110170Y48467*
X110169Y48478*
Y48757*
X110098Y48828*
X110313*
X110707Y48927*
X110711*
X111911Y49127*
X111919Y49128*
X112219*
X112254Y49113*
X112354Y49013*
X112369Y48978*
X113048Y50478D02*
X112893Y50633D01*
X112513Y50728*
X112331*
X111941Y50533*
X111927Y50529*
X111669Y50486*
Y50878*
X111684Y50913*
X111773Y51003*
X111870Y51488*
X111884Y51513*
X111958Y51588*
X111882Y51741*
X111698Y51832*
X111209Y52028*
X111150*
X111080Y51888*
X111154Y51813*
X111168Y51790*
X111268Y51390*
X111269Y51378*
Y51078*
X111268Y51066*
X111169Y50672*
Y50409*
X109725Y50228*
X109719*
X109540*
X109480Y50168*
X109550Y50028*
X110714*
X111169Y50119*
Y49978*
Y49972*
X111075Y49128*
X111380*
X111570Y49888*
X111610Y50128*
X111812*
X112505Y50326*
X112507Y50327*
X112907Y50427*
X112919Y50428*
X112998*
X113048Y50478*
X102769Y51828D02*
X101469D01*
Y51628*
X101519*
X101547Y51620*
X101847Y51420*
X101866Y51394*
X101966Y51094*
X101969Y51078*
Y46078*
X101968Y46068*
X101868Y45568*
X101864Y45556*
X101664Y45156*
X101641Y45133*
X101241Y44933*
X101229Y44929*
X100729Y44829*
X100707*
X100307Y44929*
X100297Y44933*
X99897Y45133*
X99877Y45150*
X99677Y45450*
X99669Y45478*
Y51278*
X99674Y51300*
X99774Y51500*
X99797Y51523*
X99997Y51623*
X100019Y51628*
X100269*
Y51828*
X98369*
Y51628*
X98519*
X98535Y51625*
X98835Y51525*
X98864Y51500*
X98964Y51300*
X98969Y51278*
Y45982*
X99067Y45295*
X99355Y44814*
X99836Y44526*
X100519Y44429*
X101201Y44526*
X101782Y44913*
X102071Y45395*
X102169Y46082*
Y51178*
X102172Y51194*
X102272Y51494*
X102303Y51525*
X102603Y51625*
X102619Y51628*
X102769*
Y51828*
X97743Y46428D02*
X97554D01*
X97266Y45660*
X97257Y45646*
X96757Y45046*
X96741Y45033*
X96341Y44833*
X96319Y44828*
X95419*
X95397Y44833*
X94997Y45033*
X94984Y45043*
X94684Y45343*
X94676Y45352*
X94376Y45852*
X94371Y45864*
X94071Y46864*
X94069Y46874*
X93969Y48074*
Y48078*
Y48082*
X94069Y49382*
X94071Y49391*
X94371Y50491*
X94373Y50497*
X94573Y50997*
X94584Y51013*
X94884Y51313*
X94891Y51320*
X95191Y51520*
X95207Y51527*
X95607Y51627*
X95627*
X96227Y51527*
X96245Y51521*
X96745Y51221*
X96758Y51209*
X97158Y50709*
X97166Y50696*
X97446Y49948*
X97562Y50006*
X97185Y51895*
X96947Y51736*
X96941Y51733*
X96741Y51633*
X96719Y51628*
X96519*
X96497Y51633*
X96302Y51731*
X95523Y51926*
X95040Y51732*
X94451Y51438*
X93960Y50849*
X93566Y50160*
X93369Y49171*
X93269Y48078*
X93368Y46988*
X93665Y45998*
X94059Y45309*
X94550Y44818*
X95036Y44526*
X95718Y44429*
X96205Y44526*
X96691Y44721*
X97276Y45306*
X97473Y45797*
Y45798*
X97743Y46428*
X92769Y51828D02*
X91461D01*
X90468Y46469*
X90370Y46468*
X89278Y51828*
X88269*
Y51628*
X88419*
X88441Y51623*
X88641Y51523*
X88669Y51478*
Y44878*
X88641Y44833*
X88441Y44733*
X88419Y44728*
X88269*
Y44528*
X89369*
Y44728*
X89219*
X89197Y44733*
X88997Y44833*
X88974Y44856*
X88874Y45056*
X88869Y45078*
Y50378*
X88968Y50388*
X90160Y44728*
X90377*
X91470Y50787*
X91569Y50778*
Y45078*
X91564Y45056*
X91464Y44856*
X91441Y44833*
X91241Y44733*
X91219Y44728*
X91069*
Y44528*
X92769*
Y44728*
X92519*
X92497Y44733*
X92297Y44833*
X92269Y44878*
Y51478*
X92297Y51523*
X92497Y51623*
X92519Y51628*
X92769*
Y51828*
X82658Y46428D02*
X82550D01*
X82164Y45656*
X82158Y45647*
X81758Y45147*
X81741Y45133*
X81141Y44833*
X81125Y44828*
X80325Y44728*
X80309Y44729*
X79809Y44829*
X79774Y44856*
X79574Y45256*
X79569Y45278*
Y48178*
X79619Y48228*
X80719*
X80754Y48213*
X80954Y48013*
X80966Y47994*
X81066Y47694*
X81069Y47678*
Y46928*
X81269*
Y49628*
X81069*
Y48878*
X81064Y48856*
X80964Y48656*
X80941Y48633*
X80541Y48433*
X80519Y48428*
X79619*
X79569Y48478*
Y51178*
X79577Y51206*
X79777Y51506*
X79809Y51527*
X80309Y51627*
X80326*
X80326D02*
X81026Y51527D01*
X81026D02*
X81045Y51521D01*
X81545Y51221*
X81558Y51209*
X81958Y50709*
X81965Y50698*
X82252Y50028*
X82463*
X82274Y51828*
X78369*
Y51628*
X78519*
X78535Y51625*
X78835Y51525*
X78866Y51494*
X78966Y51194*
X78969Y51178*
Y45278*
X78968Y45266*
X78868Y44866*
X78835Y44831*
X78535Y44731*
X78519Y44728*
X78269*
Y44528*
X82278*
X82658Y46428*
X77743D02*
X77554D01*
X77266Y45660*
X77257Y45646*
X76757Y45046*
X76741Y45033*
X76341Y44833*
X76319Y44828*
X75419*
X75397Y44833*
X74997Y45033*
X74984Y45043*
X74684Y45343*
X74676Y45352*
X74376Y45852*
X74371Y45864*
X74071Y46864*
X74069Y46874*
X73969Y48074*
Y48078*
Y48082*
X74069Y49382*
X74071Y49391*
X74371Y50491*
X74373Y50497*
X74573Y50997*
X74584Y51013*
X74884Y51313*
X74891Y51320*
X75191Y51520*
X75207Y51527*
X75607Y51627*
X75627*
X76227Y51527*
X76245Y51521*
X76745Y51221*
X76758Y51209*
X77158Y50709*
X77166Y50696*
X77446Y49948*
X77562Y50006*
X77185Y51895*
X76947Y51736*
X76941Y51733*
X76741Y51633*
X76719Y51628*
X76519*
X76497Y51633*
X76302Y51731*
X75523Y51926*
X75040Y51732*
X74451Y51438*
X73960Y50849*
X73566Y50160*
X73369Y49171*
X73269Y48078*
X73368Y46988*
X73665Y45998*
X74059Y45309*
X74550Y44818*
X75036Y44526*
X75718Y44429*
X76205Y44526*
X76691Y44721*
X77276Y45306*
X77473Y45797*
Y45798*
X77743Y46428*
X71669Y51828D02*
X69369D01*
Y51619*
X69824Y51528*
X70019*
X70068Y51490*
X70168Y51090*
X70169Y51078*
Y45078*
X70154Y45043*
X69954Y44843*
X69941Y44833*
X69741Y44733*
X69719Y44728*
X69369*
Y44528*
X71669*
Y44728*
X71319*
X71297Y44733*
X71097Y44833*
X71084Y44843*
X70884Y45043*
X70869Y45078*
Y51078*
X70872Y51094*
X70972Y51394*
X70984Y51413*
X71084Y51513*
X71097Y51523*
X71297Y51623*
X71319Y51628*
X71669*
Y51828*
X72887Y128001D02*
X72100D01*
X72050Y128051*
Y131351*
X71634*
X70488Y130721*
X70626Y130399*
X71474Y130964*
X71551Y130922*
Y128051*
X71501Y128001*
X70594*
Y127622*
X72887*
Y128001*
X69776Y129545D02*
X69658Y130312D01*
X69542Y130660*
X69373Y130885*
X68792Y131233*
X68027Y131351*
X67064*
Y127622*
X67849*
X68500Y127681*
X69024Y127856*
X69368Y128143*
X69600Y128548*
X69717Y129017*
X69776Y129545*
X69278Y129905D02*
Y129487D01*
Y129482*
X69218Y128883*
X69213Y128866*
X68973Y128387*
X68958Y128369*
X68539Y128070*
X68515Y128061*
X67917Y128001*
X67912*
X67553*
X67503Y128051*
Y130982*
X67553Y131032*
X67971*
X67976*
X68575Y130972*
X68602Y130961*
X68961Y130662*
X68972Y130648*
X69211Y130229*
X69217Y130214*
X69277Y129915*
X69278Y129905*
X67100Y127622D02*
Y131351D01*
X67200Y127622D02*
Y131351D01*
X67300Y127622D02*
Y131351D01*
X67400Y127622D02*
Y131351D01*
X67500Y127622D02*
Y131351D01*
X67600Y127622D02*
Y128001D01*
Y131032D02*
Y131351D01*
X67700Y127622D02*
Y128001D01*
Y131032D02*
Y131351D01*
X67800Y127622D02*
Y128001D01*
Y131032D02*
Y131351D01*
X67900Y127627D02*
Y128001D01*
Y131032D02*
Y131351D01*
X68000Y127636D02*
Y128009D01*
Y131030D02*
Y131351D01*
X68100Y127645D02*
Y128019D01*
Y131020D02*
Y131340D01*
X68200Y127654D02*
Y128029D01*
Y131010D02*
Y131325D01*
X68300Y127663D02*
Y128039D01*
Y131000D02*
Y131309D01*
X68400Y127672D02*
Y128049D01*
Y130990D02*
Y131294D01*
X68500Y127681D02*
Y128059D01*
Y130980D02*
Y131278D01*
X68600Y127715D02*
Y128113D01*
Y130962D02*
Y131263D01*
X68700Y127748D02*
Y128185D01*
Y130879D02*
Y131248D01*
X68800Y127781D02*
Y128256D01*
Y130796D02*
Y131229D01*
X68900Y127815D02*
Y128328D01*
Y130712D02*
Y131169D01*
X69000Y127848D02*
Y128440D01*
Y130599D02*
Y131109D01*
X69100Y127919D02*
Y128640D01*
Y130424D02*
Y131049D01*
X69200Y128003D02*
Y128840D01*
Y130249D02*
Y130989D01*
X69300Y128086D02*
Y130929D01*
X69400Y44528D02*
Y44728D01*
Y51613D02*
Y51828D01*
Y128198D02*
Y130849D01*
X69500Y44528D02*
Y44728D01*
Y51593D02*
Y51828D01*
Y128373D02*
Y130716D01*
X69600Y44528D02*
Y44728D01*
Y51573D02*
Y51828D01*
Y128549D02*
Y130485D01*
X69700Y44528D02*
Y44728D01*
Y51553D02*
Y51828D01*
Y128949D02*
Y130037D01*
X69800Y44528D02*
Y44763D01*
Y51533D02*
Y51828D01*
X69900Y44528D02*
Y44813D01*
Y51528D02*
Y51828D01*
X70000Y44528D02*
Y44888D01*
Y51528D02*
Y51828D01*
X70100Y44528D02*
Y44988D01*
Y51360D02*
Y51828D01*
X70200Y44528D02*
Y51828D01*
X70300Y44528D02*
Y51828D01*
X70400Y44528D02*
Y51828D01*
X70500Y44528D02*
Y51828D01*
Y130693D02*
Y130727D01*
X70600Y44528D02*
Y51828D01*
Y127622D02*
Y128001D01*
Y130460D02*
Y130782D01*
X70700Y44528D02*
Y51828D01*
Y127622D02*
Y128001D01*
Y130448D02*
Y130837D01*
X70800Y44528D02*
Y51828D01*
Y127622D02*
Y128001D01*
Y130515D02*
Y130892D01*
X70900Y44528D02*
Y45026D01*
Y51179D02*
Y51828D01*
Y127622D02*
Y128001D01*
Y130582D02*
Y130947D01*
X71000Y44528D02*
Y44926D01*
Y51430D02*
Y51828D01*
Y127622D02*
Y128001D01*
Y130648D02*
Y131002D01*
X71100Y44528D02*
Y44832D01*
Y51524D02*
Y51828D01*
Y127622D02*
Y128001D01*
Y130715D02*
Y131057D01*
X71200Y44528D02*
Y44782D01*
Y51574D02*
Y51828D01*
Y127622D02*
Y128001D01*
Y130782D02*
Y131112D01*
X71300Y44528D02*
Y44732D01*
Y51624D02*
Y51828D01*
Y127622D02*
Y128001D01*
Y130848D02*
Y131167D01*
X71400Y44528D02*
Y44728D01*
Y51628D02*
Y51828D01*
Y127622D02*
Y128001D01*
Y130915D02*
Y131222D01*
X71500Y44528D02*
Y44728D01*
Y51628D02*
Y51828D01*
Y127622D02*
Y128001D01*
Y130972D02*
Y131277D01*
X71600Y44528D02*
Y44728D01*
Y51628D02*
Y51828D01*
Y127622D02*
Y131332D01*
X71700Y127622D02*
Y131351D01*
X71800Y127622D02*
Y131351D01*
X71900Y127622D02*
Y131351D01*
X72000Y127622D02*
Y131351D01*
X72100Y127622D02*
Y128001D01*
X72200Y127622D02*
Y128001D01*
X72300Y127622D02*
Y128001D01*
X72400Y127622D02*
Y128001D01*
X72500Y127622D02*
Y128001D01*
X72600Y127622D02*
Y128001D01*
X72700Y127622D02*
Y128001D01*
X72800Y127622D02*
Y128001D01*
X73300Y47739D02*
Y48417D01*
X73400Y46882D02*
Y49328D01*
X73500Y46549D02*
Y49828D01*
X73600Y46215D02*
Y50219D01*
X73700Y45937D02*
Y50394D01*
X73800Y45762D02*
Y50569D01*
X73900Y45587D02*
Y50744D01*
X74000Y45412D02*
Y47704D01*
Y48483D02*
Y50897D01*
X74100Y45268D02*
Y46767D01*
Y49498D02*
Y51017D01*
X74200Y45168D02*
Y46434D01*
Y49865D02*
Y51137D01*
X74300Y45068D02*
Y46101D01*
Y50232D02*
Y51257D01*
X74400Y44968D02*
Y45812D01*
Y50565D02*
Y51377D01*
X74500Y44868D02*
Y45646D01*
Y50815D02*
Y51463D01*
X74600Y44788D02*
Y45479D01*
Y51030D02*
Y51513D01*
X74700Y44728D02*
Y45326D01*
Y51130D02*
Y51563D01*
X74800Y44668D02*
Y45226D01*
Y51230D02*
Y51613D01*
X74900Y44608D02*
Y45126D01*
Y51325D02*
Y51663D01*
X75000Y44548D02*
Y45032D01*
Y51392D02*
Y51713D01*
X75100Y44517D02*
Y44982D01*
Y51459D02*
Y51757D01*
X75200Y44503D02*
Y44932D01*
Y51524D02*
Y51797D01*
X75300Y44488D02*
Y44882D01*
Y51550D02*
Y51837D01*
X75400Y44474D02*
Y44832D01*
Y51575D02*
Y51877D01*
X75500Y44460D02*
Y44828D01*
Y51600D02*
Y51917D01*
X75600Y44446D02*
Y44828D01*
Y51625D02*
Y51906D01*
X75700Y44431D02*
Y44828D01*
Y51615D02*
Y51881D01*
X75800Y44445D02*
Y44828D01*
Y51599D02*
Y51856D01*
X75900Y44465D02*
Y44828D01*
Y51582D02*
Y51831D01*
X76000Y44485D02*
Y44828D01*
Y51565D02*
Y51806D01*
X76100Y44505D02*
Y44828D01*
Y51549D02*
Y51781D01*
X76200Y44525D02*
Y44828D01*
Y51532D02*
Y51756D01*
X76300Y44564D02*
Y44828D01*
Y51488D02*
Y51731D01*
X76400Y44604D02*
Y44863D01*
Y51428D02*
Y51682D01*
X76500Y44644D02*
Y44913D01*
Y51368D02*
Y51632D01*
X76600Y44684D02*
Y44963D01*
Y51308D02*
Y51628D01*
X76700Y44730D02*
Y45013D01*
Y51248D02*
Y51628D01*
X76800Y44830D02*
Y45097D01*
Y51157D02*
Y51663D01*
X76900Y44930D02*
Y45217D01*
Y51032D02*
Y51713D01*
X77000Y45030D02*
Y45337D01*
Y50907D02*
Y51772D01*
X77100Y45130D02*
Y45457D01*
Y50782D02*
Y51839D01*
X77200Y45230D02*
Y45577D01*
Y50604D02*
Y51818D01*
X77300Y45365D02*
Y45752D01*
Y50338D02*
Y51318D01*
X77400Y45615D02*
Y46018D01*
Y50071D02*
Y50818D01*
X77500Y45861D02*
Y46285D01*
Y49974D02*
Y50318D01*
X77600Y46094D02*
Y46428D01*
X77700Y46327D02*
Y46428D01*
X78300Y44528D02*
Y44728D01*
X78400Y44528D02*
Y44728D01*
Y51628D02*
Y51828D01*
X78500Y44528D02*
Y44728D01*
Y51628D02*
Y51828D01*
X78600Y44528D02*
Y44752D01*
Y51604D02*
Y51828D01*
X78700Y44528D02*
Y44786D01*
Y51570D02*
Y51828D01*
X78800Y44528D02*
Y44819D01*
Y51537D02*
Y51828D01*
X78900Y44528D02*
Y44996D01*
Y51393D02*
Y51828D01*
X79000Y44528D02*
Y51828D01*
X79100Y44528D02*
Y51828D01*
X79200Y44528D02*
Y51828D01*
X79300Y44528D02*
Y51828D01*
X79400Y44528D02*
Y51828D01*
X79500Y44528D02*
Y51828D01*
X79600Y44528D02*
Y45204D01*
Y48224D02*
Y48432D01*
Y51240D02*
Y51828D01*
X79700Y44528D02*
Y45004D01*
Y48228D02*
Y48428D01*
Y51390D02*
Y51828D01*
X79800Y44528D02*
Y44832D01*
Y48228D02*
Y48428D01*
Y51524D02*
Y51828D01*
X79900Y44528D02*
Y44811D01*
Y48228D02*
Y48428D01*
Y51545D02*
Y51828D01*
X80000Y44528D02*
Y44791D01*
Y48228D02*
Y48428D01*
Y51565D02*
Y51828D01*
X80100Y44528D02*
Y44771D01*
Y48228D02*
Y48428D01*
Y51585D02*
Y51828D01*
X80200Y44528D02*
Y44751D01*
Y48228D02*
Y48428D01*
Y51605D02*
Y51828D01*
X80300Y44528D02*
Y44731D01*
Y48228D02*
Y48428D01*
Y51625D02*
Y51828D01*
X80400Y44528D02*
Y44738D01*
Y48228D02*
Y48428D01*
Y51617D02*
Y51828D01*
X80500Y44528D02*
Y44750D01*
Y48228D02*
Y48428D01*
Y51603D02*
Y51828D01*
X80600Y44528D02*
Y44763D01*
Y48228D02*
Y48463D01*
Y51588D02*
Y51828D01*
X80700Y44528D02*
Y44775D01*
Y48228D02*
Y48513D01*
Y51574D02*
Y51828D01*
X80800Y44528D02*
Y44788D01*
Y48168D02*
Y48563D01*
Y51560D02*
Y51828D01*
X80900Y44528D02*
Y44800D01*
Y48068D02*
Y48613D01*
Y51546D02*
Y51828D01*
X81000Y44528D02*
Y44813D01*
Y47893D02*
Y48728D01*
Y51531D02*
Y51828D01*
X81100Y44528D02*
Y44825D01*
Y46928D02*
Y49628D01*
Y51488D02*
Y51828D01*
X81200Y44528D02*
Y44863D01*
Y46928D02*
Y49628D01*
Y51428D02*
Y51828D01*
X81300Y44528D02*
Y44913D01*
Y51368D02*
Y51828D01*
X81400Y44528D02*
Y44963D01*
Y51308D02*
Y51828D01*
X81500Y44528D02*
Y45013D01*
Y51248D02*
Y51828D01*
X81600Y44528D02*
Y45063D01*
Y51157D02*
Y51828D01*
X81700Y44528D02*
Y45113D01*
Y51032D02*
Y51828D01*
X81800Y44528D02*
Y45199D01*
Y50907D02*
Y51828D01*
X81900Y44528D02*
Y45324D01*
Y50782D02*
Y51828D01*
X82000Y44528D02*
Y45449D01*
Y50616D02*
Y51828D01*
X82100Y44528D02*
Y45574D01*
Y50383D02*
Y51828D01*
X82200Y44528D02*
Y45728D01*
Y50149D02*
Y51828D01*
X82300Y44638D02*
Y45928D01*
Y50028D02*
Y51581D01*
X82400Y45138D02*
Y46128D01*
Y50028D02*
Y50631D01*
X82500Y45638D02*
Y46328D01*
X82600Y46138D02*
Y46428D01*
X88300Y44528D02*
Y44728D01*
Y51628D02*
Y51828D01*
X88400Y44528D02*
Y44728D01*
Y51628D02*
Y51828D01*
X88500Y44528D02*
Y44763D01*
Y51593D02*
Y51828D01*
X88600Y44528D02*
Y44813D01*
Y51543D02*
Y51828D01*
X88700Y44528D02*
Y51828D01*
X88800Y44528D02*
Y51828D01*
X88900Y44528D02*
Y45004D01*
Y50424D02*
Y51828D01*
X89000Y44528D02*
Y44832D01*
Y50236D02*
Y51828D01*
X89100Y44528D02*
Y44782D01*
Y49761D02*
Y51828D01*
X89200Y44528D02*
Y44732D01*
Y49286D02*
Y51828D01*
X89300Y44528D02*
Y44728D01*
Y48811D02*
Y51721D01*
X89400Y48336D02*
Y51230D01*
X89500Y47861D02*
Y50739D01*
X89600Y47386D02*
Y50248D01*
X89700Y46911D02*
Y49757D01*
X89800Y46436D02*
Y49266D01*
X89900Y45961D02*
Y48775D01*
X90000Y45486D02*
Y48284D01*
X90100Y45011D02*
Y47794D01*
X90200Y44728D02*
Y47303D01*
X90300Y44728D02*
Y46812D01*
X90400Y44854D02*
Y46432D01*
X90500Y45409D02*
Y46641D01*
X90600Y45963D02*
Y47181D01*
X90700Y46518D02*
Y47721D01*
X90800Y47073D02*
Y48261D01*
X90900Y47627D02*
Y48801D01*
X91000Y48182D02*
Y49341D01*
X91100Y44528D02*
Y44728D01*
Y48736D02*
Y49881D01*
X91200Y44528D02*
Y44728D01*
Y49291D02*
Y50421D01*
X91300Y44528D02*
Y44763D01*
Y49845D02*
Y50961D01*
X91400Y44528D02*
Y44813D01*
Y50400D02*
Y51501D01*
X91500Y44528D02*
Y44928D01*
Y50824D02*
Y51828D01*
X91600Y44528D02*
Y51828D01*
X91700Y44528D02*
Y51828D01*
X91800Y44528D02*
Y51828D01*
X91900Y44528D02*
Y51828D01*
X92000Y44528D02*
Y51828D01*
X92100Y44528D02*
Y51828D01*
X92200Y44528D02*
Y51828D01*
X92300Y44528D02*
Y44832D01*
Y51524D02*
Y51828D01*
X92400Y44528D02*
Y44782D01*
Y51574D02*
Y51828D01*
X92500Y44528D02*
Y44732D01*
Y51624D02*
Y51828D01*
X92600Y44528D02*
Y44728D01*
Y51628D02*
Y51828D01*
X92700Y44528D02*
Y44728D01*
Y51628D02*
Y51828D01*
X93300Y47739D02*
Y48417D01*
X93400Y46882D02*
Y49328D01*
X93500Y46549D02*
Y49828D01*
X93600Y46215D02*
Y50219D01*
X93700Y45937D02*
Y50394D01*
X93800Y45762D02*
Y50569D01*
X93900Y45587D02*
Y50744D01*
X94000Y45412D02*
Y47704D01*
Y48483D02*
Y50897D01*
X94100Y45268D02*
Y46767D01*
Y49498D02*
Y51017D01*
X94200Y45168D02*
Y46434D01*
Y49865D02*
Y51137D01*
X94300Y45068D02*
Y46101D01*
Y50232D02*
Y51257D01*
X94400Y44968D02*
Y45812D01*
Y50565D02*
Y51377D01*
X94500Y44868D02*
Y45646D01*
Y50815D02*
Y51463D01*
X94600Y44788D02*
Y45479D01*
Y51030D02*
Y51513D01*
X94700Y44728D02*
Y45326D01*
Y51130D02*
Y51563D01*
X94800Y44668D02*
Y45226D01*
Y51230D02*
Y51613D01*
X94900Y44608D02*
Y45126D01*
Y51325D02*
Y51663D01*
X95000Y44548D02*
Y45032D01*
Y51392D02*
Y51713D01*
X95100Y44517D02*
Y44982D01*
Y51459D02*
Y51757D01*
X95200Y44503D02*
Y44932D01*
Y51524D02*
Y51797D01*
X95300Y44488D02*
Y44882D01*
Y51550D02*
Y51837D01*
X95400Y44474D02*
Y44832D01*
Y51575D02*
Y51877D01*
X95500Y44460D02*
Y44828D01*
Y51600D02*
Y51917D01*
X95600Y44446D02*
Y44828D01*
Y51625D02*
Y51906D01*
X95700Y44431D02*
Y44828D01*
Y51615D02*
Y51881D01*
X95800Y44445D02*
Y44828D01*
Y51599D02*
Y51856D01*
X95900Y44465D02*
Y44828D01*
Y51582D02*
Y51831D01*
X96000Y44485D02*
Y44828D01*
Y51565D02*
Y51806D01*
X96100Y44505D02*
Y44828D01*
Y51549D02*
Y51781D01*
X96200Y44525D02*
Y44828D01*
Y51532D02*
Y51756D01*
X96300Y44564D02*
Y44828D01*
Y51488D02*
Y51731D01*
X96400Y44604D02*
Y44863D01*
Y51428D02*
Y51682D01*
X96500Y44644D02*
Y44913D01*
Y51368D02*
Y51632D01*
X96600Y44684D02*
Y44963D01*
Y51308D02*
Y51628D01*
X96700Y44730D02*
Y45013D01*
Y51248D02*
Y51628D01*
X96800Y44830D02*
Y45097D01*
Y51157D02*
Y51663D01*
X96900Y44930D02*
Y45217D01*
Y51032D02*
Y51713D01*
X97000Y45030D02*
Y45337D01*
Y50907D02*
Y51772D01*
X97100Y45130D02*
Y45457D01*
Y50782D02*
Y51839D01*
X97200Y45230D02*
Y45577D01*
Y50604D02*
Y51818D01*
X97300Y45365D02*
Y45752D01*
Y50338D02*
Y51318D01*
X97400Y45615D02*
Y46018D01*
Y50071D02*
Y50818D01*
X97500Y45861D02*
Y46285D01*
Y49974D02*
Y50318D01*
X97600Y46094D02*
Y46428D01*
X97700Y46327D02*
Y46428D01*
X98400Y51628D02*
Y51828D01*
X98500Y51628D02*
Y51828D01*
X98600Y51604D02*
Y51828D01*
X98700Y51570D02*
Y51828D01*
X98800Y51537D02*
Y51828D01*
X98900Y51428D02*
Y51828D01*
X99000Y45765D02*
Y51828D01*
X99100Y45240D02*
Y51828D01*
X99200Y45074D02*
Y51828D01*
X99300Y44907D02*
Y51828D01*
X99400Y44788D02*
Y51828D01*
X99500Y44728D02*
Y51828D01*
X99600Y44668D02*
Y51828D01*
X99700Y44608D02*
Y45416D01*
Y51352D02*
Y51828D01*
X99800Y44548D02*
Y45266D01*
Y51524D02*
Y51828D01*
X99900Y44517D02*
Y45132D01*
Y51574D02*
Y51828D01*
X100000Y44503D02*
Y45082D01*
Y51624D02*
Y51828D01*
X100100Y44488D02*
Y45032D01*
Y51628D02*
Y51828D01*
X100200Y44474D02*
Y44982D01*
Y51628D02*
Y51828D01*
X100300Y44460D02*
Y44932D01*
X100400Y44446D02*
Y44906D01*
X100500Y44431D02*
Y44881D01*
X100600Y44440D02*
Y44856D01*
X100700Y44454D02*
Y44831D01*
X100800Y44469D02*
Y44843D01*
X100900Y44483D02*
Y44863D01*
X101000Y44497D02*
Y44883D01*
X101100Y44512D02*
Y44903D01*
X101200Y44526D02*
Y44923D01*
X101300Y44592D02*
Y44963D01*
X101400Y44659D02*
Y45013D01*
X101500Y44725D02*
Y45063D01*
Y51628D02*
Y51828D01*
X101600Y44792D02*
Y45113D01*
Y51584D02*
Y51828D01*
X101700Y44859D02*
Y45228D01*
Y51517D02*
Y51828D01*
X101800Y44944D02*
Y45428D01*
Y51451D02*
Y51828D01*
X101900Y45110D02*
Y45728D01*
Y51293D02*
Y51828D01*
X102000Y45277D02*
Y51828D01*
X102100Y45599D02*
Y51828D01*
X102200Y51279D02*
Y51828D01*
X102300Y51524D02*
Y51828D01*
X102400Y51558D02*
Y51828D01*
X102500Y51591D02*
Y51828D01*
X102600Y51624D02*
Y51828D01*
X102700Y51628D02*
Y51828D01*
X108800Y45693D02*
Y45763D01*
X108900Y45643D02*
Y45813D01*
X109000Y45599D02*
Y45843D01*
X109100Y45559D02*
Y45863D01*
X109200Y45519D02*
Y45883D01*
X109300Y45479D02*
Y45903D01*
X109400Y45439D02*
Y45923D01*
X109500Y45524D02*
Y45938D01*
Y48968D02*
Y48988D01*
Y50128D02*
Y50188D01*
X109600Y45528D02*
Y45950D01*
Y48828D02*
Y49028D01*
Y50028D02*
Y50228D01*
X109700Y45528D02*
Y45963D01*
Y48628D02*
Y49028D01*
Y50028D02*
Y50228D01*
X109800Y45528D02*
Y45975D01*
Y48428D02*
Y49028D01*
Y50028D02*
Y50238D01*
X109900Y45528D02*
Y45988D01*
Y47828D02*
Y49026D01*
Y50028D02*
Y50250D01*
X110000Y45548D02*
Y46000D01*
Y47147D02*
Y48950D01*
Y50028D02*
Y50263D01*
X110100Y45572D02*
Y46013D01*
Y46997D02*
Y48826D01*
Y48828D02*
Y48963D01*
Y50028D02*
Y50275D01*
X110200Y45595D02*
Y46025D01*
Y46868D02*
Y48333D01*
Y48828D02*
Y48975D01*
Y50028D02*
Y50288D01*
X110300Y45619D02*
Y46038D01*
Y46952D02*
Y47883D01*
Y47943D02*
Y48063D01*
Y48828D02*
Y48988D01*
Y50028D02*
Y50300D01*
X110400Y45643D02*
Y46050D01*
Y47028D02*
Y47243D01*
Y47928D02*
Y48113D01*
Y48850D02*
Y49000D01*
Y50028D02*
Y50313D01*
X110500Y45666D02*
Y46063D01*
Y47028D02*
Y47251D01*
Y47928D02*
Y48142D01*
Y48875D02*
Y49013D01*
Y50028D02*
Y50325D01*
X110600Y45690D02*
Y46075D01*
Y47028D02*
Y47260D01*
Y47928D02*
Y48160D01*
Y48900D02*
Y49025D01*
Y50028D02*
Y50338D01*
X110700Y45713D02*
Y46088D01*
Y47028D02*
Y47268D01*
Y47928D02*
Y48178D01*
Y48925D02*
Y49038D01*
Y50028D02*
Y50350D01*
X110800Y45737D02*
Y46100D01*
Y47028D02*
Y47276D01*
Y47928D02*
Y48196D01*
Y48942D02*
Y49050D01*
Y50045D02*
Y50363D01*
X110900Y44028D02*
Y44328D01*
Y45760D02*
Y46113D01*
Y46928D02*
Y47285D01*
Y47928D02*
Y48215D01*
Y48959D02*
Y49063D01*
Y50065D02*
Y50375D01*
X111000Y43828D02*
Y44863D01*
Y45784D02*
Y46125D01*
Y46428D02*
Y47293D01*
Y47928D02*
Y48233D01*
Y48976D02*
Y49075D01*
Y50085D02*
Y50388D01*
X111100Y43628D02*
Y47301D01*
Y47950D02*
Y48251D01*
Y48992D02*
Y49088D01*
Y49128D02*
Y49354D01*
Y50105D02*
Y50400D01*
Y51868D02*
Y51928D01*
X111200Y43468D02*
Y47026D01*
Y47028D02*
Y47310D01*
Y47975D02*
Y48269D01*
Y49009D02*
Y49100D01*
Y49128D02*
Y50796D01*
Y51660D02*
Y52028D01*
X111300Y43552D02*
Y46916D01*
Y47028D02*
Y47318D01*
Y48000D02*
Y48287D01*
Y49026D02*
Y49113D01*
Y49128D02*
Y51992D01*
X111400Y43838D02*
Y44866D01*
Y45399D02*
Y46766D01*
Y47050D02*
Y47326D01*
Y48025D02*
Y48306D01*
Y49042D02*
Y49125D01*
Y49208D02*
Y51952D01*
X111500Y45901D02*
Y46215D01*
Y46352D02*
Y46604D01*
Y47075D02*
Y47352D01*
Y48028D02*
Y48324D01*
Y49059D02*
Y49157D01*
Y49608D02*
Y51912D01*
X111600Y45925D02*
Y46233D01*
Y47100D02*
Y47386D01*
Y48028D02*
Y48363D01*
Y49076D02*
Y49197D01*
Y50068D02*
Y51872D01*
X111700Y45940D02*
Y46251D01*
Y47125D02*
Y47419D01*
Y48028D02*
Y48413D01*
Y49092D02*
Y49237D01*
Y50128D02*
Y50491D01*
Y50930D02*
Y51832D01*
X111800Y45954D02*
Y46269D01*
Y47128D02*
Y47428D01*
Y48058D02*
Y48406D01*
Y49109D02*
Y49277D01*
Y50128D02*
Y50507D01*
Y51138D02*
Y51782D01*
X111900Y45969D02*
Y46287D01*
Y47128D02*
Y47406D01*
Y48091D02*
Y48381D01*
Y49126D02*
Y49317D01*
Y50153D02*
Y50524D01*
Y51530D02*
Y51704D01*
X112000Y45983D02*
Y46306D01*
Y47128D02*
Y47381D01*
Y48124D02*
Y48356D01*
Y49128D02*
Y49328D01*
Y50182D02*
Y50563D01*
X112100Y45997D02*
Y46324D01*
Y47128D02*
Y47356D01*
Y48128D02*
Y48331D01*
Y49128D02*
Y49328D01*
Y50210D02*
Y50613D01*
X112200Y46012D02*
Y46347D01*
Y47068D02*
Y47463D01*
Y48128D02*
Y48282D01*
Y49128D02*
Y49328D01*
Y50239D02*
Y50663D01*
X112300Y46026D02*
Y46372D01*
Y47058D02*
Y47828D01*
Y49068D02*
Y49328D01*
Y50267D02*
Y50713D01*
X112400Y43874D02*
Y43907D01*
Y46040D02*
Y46397D01*
Y47091D02*
Y49363D01*
Y50296D02*
Y50728D01*
X112500Y43925D02*
Y44049D01*
Y46054D02*
Y46422D01*
Y47161D02*
Y49413D01*
Y50325D02*
Y50728D01*
X112600Y43992D02*
Y44192D01*
Y46069D02*
Y46428D01*
Y47394D02*
Y49382D01*
Y50350D02*
Y50706D01*
X112700Y44059D02*
Y44335D01*
Y46083D02*
Y46428D01*
Y47627D02*
Y49332D01*
Y50375D02*
Y50681D01*
X112800Y44130D02*
Y44478D01*
Y46097D02*
Y46406D01*
Y47908D02*
Y49298D01*
Y50400D02*
Y50656D01*
X112900Y44230D02*
Y44621D01*
Y46112D02*
Y46381D01*
Y48308D02*
Y49265D01*
Y50425D02*
Y50626D01*
X113000Y44330D02*
Y44764D01*
Y46126D02*
Y46356D01*
Y48679D02*
Y49226D01*
Y50430D02*
Y50526D01*
X113100Y44430D02*
Y44928D01*
Y46128D02*
Y46304D01*
Y48952D02*
Y49126D01*
X113200Y44530D02*
Y45128D01*
X113300Y44636D02*
Y45328D01*
X113400Y44769D02*
Y45528D01*
X113500Y44903D02*
Y45728D01*
X113600Y45052D02*
Y46028D01*
Y50528D02*
Y50663D01*
X113700Y45252D02*
Y46591D01*
Y50093D02*
Y50713D01*
X113800Y45452D02*
Y47323D01*
Y49728D02*
Y50706D01*
X113900Y45652D02*
Y50681D01*
X114000Y45923D02*
Y50656D01*
X114100Y46373D02*
Y50626D01*
X114200Y46960D02*
Y50560D01*
X114300Y47004D02*
Y47219D01*
Y48528D02*
Y48728D01*
Y50052D02*
Y50578D01*
X114400Y46970D02*
Y47245D01*
Y48528D02*
Y48728D01*
Y50324D02*
Y50596D01*
X114500Y46937D02*
Y47267D01*
Y48528D02*
Y48752D01*
Y50328D02*
Y50615D01*
X114600Y46950D02*
Y47289D01*
Y48528D02*
Y48786D01*
Y50328D02*
Y50633D01*
X114700Y46975D02*
Y47311D01*
Y48528D02*
Y48819D01*
Y50328D02*
Y50651D01*
X114800Y47000D02*
Y47334D01*
Y48528D02*
Y48852D01*
Y50345D02*
Y50669D01*
X114900Y44568D02*
Y44628D01*
Y47025D02*
Y47356D01*
Y48528D02*
Y48886D01*
Y50365D02*
Y50687D01*
X115000Y44468D02*
Y44611D01*
Y47028D02*
Y47378D01*
Y48550D02*
Y48919D01*
Y50385D02*
Y50706D01*
X115100Y44368D02*
Y44591D01*
Y47028D02*
Y47400D01*
Y48575D02*
Y48952D01*
Y50405D02*
Y50724D01*
X115200Y44268D02*
Y44571D01*
Y47028D02*
Y47423D01*
Y48600D02*
Y48986D01*
Y50425D02*
Y50741D01*
X115300Y44168D02*
Y44551D01*
Y47074D02*
Y47428D01*
Y48625D02*
Y49019D01*
Y50428D02*
Y50757D01*
X115400Y44068D02*
Y44531D01*
Y47124D02*
Y47428D01*
Y48628D02*
Y49028D01*
Y50428D02*
Y50774D01*
X115500Y43968D02*
Y44528D01*
Y47128D02*
Y47428D01*
Y48628D02*
Y49028D01*
Y50428D02*
Y50791D01*
X115600Y43868D02*
Y44467D01*
Y47128D02*
Y47428D01*
Y48658D02*
Y49028D01*
Y50428D02*
Y50807D01*
X115700Y43768D02*
Y44134D01*
Y44482D02*
Y44528D01*
Y47128D02*
Y47428D01*
Y48691D02*
Y48982D01*
Y50393D02*
Y50824D01*
X115800Y43693D02*
Y43801D01*
Y44149D02*
Y44628D01*
Y47158D02*
Y47428D01*
Y48724D02*
Y48932D01*
Y50343D02*
Y50863D01*
X115900Y43815D02*
Y45823D01*
Y47191D02*
Y47382D01*
Y48728D02*
Y48898D01*
Y49515D02*
Y50913D01*
X116000Y43674D02*
Y50882D01*
X116100Y43740D02*
Y50831D01*
X116200Y43890D02*
Y50764D01*
X116300Y44108D02*
Y50697D01*
X116400Y44568D02*
Y46718D01*
Y49299D02*
Y50632D01*
X116500Y49908D02*
Y50582D01*
X118800Y44584D02*
Y44763D01*
X118900Y44517D02*
Y44813D01*
X119000Y44451D02*
Y44828D01*
X119100Y44404D02*
Y44828D01*
X119200Y44370D02*
Y44828D01*
X119300Y44337D02*
Y44828D01*
X119400Y44293D02*
Y44828D01*
X119500Y44243D02*
Y44828D01*
X119600Y44228D02*
Y44828D01*
X119700Y44228D02*
Y44828D01*
X119800Y44250D02*
Y44836D01*
X119900Y44275D02*
Y44846D01*
X120000Y44300D02*
Y44856D01*
X120100Y44325D02*
Y44866D01*
X120200Y44345D02*
Y44876D01*
X120300Y44365D02*
Y44886D01*
X120400Y44385D02*
Y44896D01*
X120500Y44405D02*
Y44906D01*
X120600Y44425D02*
Y44916D01*
X120700Y44442D02*
Y44926D01*
X120800Y44459D02*
Y44936D01*
X120900Y44476D02*
Y44946D01*
X121000Y44492D02*
Y44956D01*
X121100Y44509D02*
Y44966D01*
X121200Y44526D02*
Y44976D01*
X121300Y44539D02*
Y44986D01*
X121400Y44551D02*
Y44996D01*
X121500Y44564D02*
Y45006D01*
X121600Y44576D02*
Y45016D01*
X121700Y44589D02*
Y45026D01*
X121800Y44601D02*
Y45028D01*
X121900Y44614D02*
Y45028D01*
X122000Y44626D02*
Y45028D01*
X122100Y44628D02*
Y45028D01*
Y51128D02*
Y51188D01*
X122200Y44628D02*
Y45028D01*
Y50910D02*
Y51263D01*
X122300Y44628D02*
Y45028D01*
Y50660D02*
Y51313D01*
X122400Y44628D02*
Y46272D01*
Y50139D02*
Y51328D01*
X122500Y44628D02*
Y51328D01*
X122600Y44628D02*
Y48332D01*
Y48424D02*
Y51328D01*
X122700Y44628D02*
Y48328D01*
Y48368D02*
Y51282D01*
X122800Y44628D02*
Y51232D01*
X122900Y44634D02*
Y51182D01*
X123000Y44640D02*
Y45096D01*
Y48228D02*
Y48419D01*
Y49438D02*
Y51131D01*
X123100Y44647D02*
Y45110D01*
Y48228D02*
Y48457D01*
Y49908D02*
Y51064D01*
X123200Y44654D02*
Y45125D01*
Y48228D02*
Y48497D01*
Y50652D02*
Y50997D01*
X123300Y44660D02*
Y45128D01*
Y48228D02*
Y48537D01*
X123400Y44667D02*
Y45128D01*
Y48228D02*
Y48577D01*
X123500Y44674D02*
Y45128D01*
Y48228D02*
Y48617D01*
X123600Y44680D02*
Y45128D01*
Y48228D02*
Y48643D01*
X123700Y44687D02*
Y45138D01*
Y48228D02*
Y48663D01*
X123800Y44694D02*
Y45150D01*
Y48228D02*
Y48683D01*
X123900Y44700D02*
Y45163D01*
Y48228D02*
Y48703D01*
X124000Y44707D02*
Y45175D01*
Y48228D02*
Y48723D01*
X124100Y44714D02*
Y45188D01*
Y48244D02*
Y48752D01*
X124200Y44720D02*
Y45200D01*
Y48262D02*
Y48786D01*
X124300Y44727D02*
Y45213D01*
Y48280D02*
Y48819D01*
X124400Y44734D02*
Y45225D01*
Y48298D02*
Y48828D01*
X124500Y44742D02*
Y45236D01*
Y48316D02*
Y48828D01*
X124600Y44750D02*
Y45246D01*
Y48334D02*
Y48852D01*
X124700Y44757D02*
Y45256D01*
Y48353D02*
Y48886D01*
X124800Y44765D02*
Y45266D01*
Y48371D02*
Y48919D01*
X124900Y44773D02*
Y45276D01*
Y48389D02*
Y48928D01*
X125000Y44781D02*
Y45286D01*
Y48407D02*
Y48928D01*
X125100Y44788D02*
Y45296D01*
Y48425D02*
Y48882D01*
X125200Y44796D02*
Y45306D01*
Y48458D02*
Y48832D01*
X125300Y44804D02*
Y45316D01*
Y48491D02*
Y48798D01*
X125400Y44811D02*
Y45326D01*
Y48530D02*
Y48765D01*
X125500Y44819D02*
Y45328D01*
X125600Y44827D02*
Y45328D01*
X125700Y44818D02*
Y45328D01*
X125800Y44806D02*
Y45328D01*
X125900Y44793D02*
Y45328D01*
X126000Y44781D02*
Y45328D01*
X126100Y44768D02*
Y45328D01*
X126200Y44756D02*
Y45328D01*
X126300Y44743D02*
Y45363D01*
X126400Y44731D02*
Y45413D01*
X126500Y44728D02*
Y45428D01*
X126600Y44728D02*
Y45382D01*
X126700Y44728D02*
Y45332D01*
X126800Y44728D02*
Y45298D01*
X126900Y44728D02*
Y45265D01*
X127000Y44728D02*
Y45231D01*
X127100Y44728D02*
Y45164D01*
X127200Y44774D02*
Y45097D01*
X127300Y44830D02*
Y45004D01*
*
G04 PC Custom Flashes*
G04 Layer Name NewICE to OLDICE.pcb - flashes*
%LPD*%
*
*
G04 PC Circuitry*
G04 Layer Name NewICE to OLDICE.pcb - circuitry*
%LPD*%
*
G54D10*
G54D23*
X80000Y114094D02*
X66614D01*
Y125906*
X80000*
Y114094D02*
X93386D01*
Y125906*
X80000*
X64264Y155863D02*
X63809Y155550D01*
X63355Y154925*
X63127Y154300*
X62900Y153363*
X62900D02*
Y151800D01*
X63127Y150863*
X63127D02*
X63355Y150238D01*
X63355D02*
X63809Y149613D01*
X63809D02*
X64264Y149300D01*
X65173*
X65627Y149613*
X65627D02*
X66082Y150238D01*
X66082D02*
X66309Y150863D01*
X66309D02*
X66536Y151800D01*
Y153363*
X66536D02*
X66309Y154300D01*
X66082Y154925*
X65627Y155550*
X65173Y155863*
X65173D02*
X64264D01*
X68582D02*
Y149300D01*
X73355Y155863D02*
Y149300D01*
Y152738D02*
X72900Y153363D01*
X72900D02*
X72445Y153675D01*
X71764*
X71309Y153363*
X71309D02*
X70855Y152738D01*
X70855D02*
X70627Y151800D01*
Y151175*
X70855Y150238*
X70855D02*
X71309Y149613D01*
X71309D02*
X71764Y149300D01*
X72445*
X72900Y149613*
X72900D02*
X73355Y150238D01*
X75400Y155863D02*
Y149300D01*
Y155863D02*
X78355D01*
X75400Y152738D02*
X77218D01*
X75400Y149300D02*
X78355D01*
X80400Y155863D02*
X82218Y149300D01*
X84036Y155863D02*
X82218Y149300D01*
X87673Y155863D02*
Y149300D01*
X86082Y155863D02*
X89264D01*
X92445Y153675D02*
X91991Y153363D01*
X91991D02*
X91536Y152738D01*
X91536D02*
X91309Y151800D01*
Y151175*
X91536Y150238*
X91536D02*
X91991Y149613D01*
X91991D02*
X92445Y149300D01*
X93127*
X93582Y149613*
X93582D02*
X94036Y150238D01*
X94036D02*
X94264Y151175D01*
Y151800*
X94036Y152738*
X94036D02*
X93582Y153363D01*
X93582D02*
X93127Y153675D01*
X92445*
X96309Y155863D02*
Y149300D01*
Y155863D02*
X99491Y149300D01*
Y155863D02*
Y149300D01*
X101536Y151800D02*
X104264D01*
Y152425*
X104036Y153050*
X103809Y153363*
X103809D02*
X103355Y153675D01*
X102673*
X102218Y153363*
X102218D02*
X101764Y152738D01*
X101764D02*
X101536Y151800D01*
Y151175*
X101764Y150238*
X101764D02*
X102218Y149613D01*
X102218D02*
X102673Y149300D01*
X103355*
X103809Y149613*
X103809D02*
X104264Y150238D01*
X106309Y153675D02*
X107218Y149300D01*
X108127Y153675D02*
X107218Y149300D01*
X108127Y153675D02*
X109036Y149300D01*
X109945Y153675D02*
X109036Y149300D01*
X111991Y155863D02*
Y149300D01*
X117445Y154300D02*
X117218Y154925D01*
X116764Y155550*
X116309Y155863*
X116309D02*
X115400D01*
X115400D02*
X114945Y155550D01*
X114491Y154925*
X114264Y154300*
X114036Y153363*
X114036D02*
Y151800D01*
X114264Y150863*
X114264D02*
X114491Y150238D01*
X114491D02*
X114945Y149613D01*
X114945D02*
X115400Y149300D01*
X116309*
X116764Y149613*
X116764D02*
X117218Y150238D01*
X117218D02*
X117445Y150863D01*
X119491Y155863D02*
Y149300D01*
Y155863D02*
X122445D01*
X119491Y152738D02*
X121309D01*
X119491Y149300D02*
X122445D01*
X116066Y122039D02*
X117339Y117445D01*
X118611Y122039D02*
X117339Y117445D01*
X120043Y122039D02*
Y117445D01*
Y122039D02*
X121157D01*
X121634Y121820*
X121952Y121383*
X121952D02*
X122111Y120945D01*
X122271Y120289*
Y119195*
X122111Y118539*
X121952Y118101*
X121634Y117664*
X121157Y117445*
X120043*
X123702Y122039D02*
Y117445D01*
Y122039D02*
X124816D01*
X125293Y121820*
X125611Y121383*
X125611D02*
X125771Y120945D01*
X125930Y120289*
Y119195*
X125771Y118539*
X125611Y118101*
X125293Y117664*
X124816Y117445*
X123702*
X119076Y101557D02*
X118758Y101994D01*
X118281Y102213*
X117644*
X117167Y101994*
X116849Y101557*
X116849D02*
Y101119D01*
X117008Y100682*
X117008D02*
X117167Y100463D01*
X117485Y100244*
X118440Y99807*
X118440D02*
X118758Y99588D01*
X118917Y99369*
X119076Y98932*
X119076D02*
Y98275D01*
X118758Y97838*
X118281Y97619*
X117644*
X117167Y97838*
X116849Y98275*
X122894Y101119D02*
X122735Y101557D01*
X122735D02*
X122417Y101994D01*
X122099Y102213*
X121463*
X121144Y101994*
X120826Y101557*
X120826D02*
X120667Y101119D01*
X120508Y100463*
Y99369*
X120667Y98713*
X120826Y98275*
X121144Y97838*
X121463Y97619*
X122099*
X122417Y97838*
X122735Y98275*
X122894Y98713*
X124326Y102213D02*
Y97619D01*
X126554Y102213D02*
X124326Y99150D01*
X125122Y100244D02*
X126554Y97619D01*
X118554Y111731D02*
X118236Y112168D01*
X117759Y112387*
X117122*
X116645Y112168*
X116327Y111731*
X116327D02*
Y111293D01*
X116486Y110856*
X116486D02*
X116645Y110637D01*
X116963Y110418*
X117918Y109981*
X117918D02*
X118236Y109762D01*
X118395Y109543*
X118554Y109106*
X118554D02*
Y108449D01*
X118236Y108012*
X117759Y107793*
X117122*
X116645Y108012*
X116327Y108449*
X119986Y112387D02*
Y107793D01*
Y112387D02*
X121100D01*
X121577Y112168*
X121895Y111731*
X121895D02*
X122054Y111293D01*
X122213Y110637*
Y109543*
X122054Y108887*
X121895Y108449*
X121577Y108012*
X121100Y107793*
X119986*
X124918Y112387D02*
X123645Y107793D01*
X124918Y112387D02*
X126191Y107793D01*
X124122Y109324D02*
X125713D01*
X118713Y80772D02*
X118554Y81210D01*
X118554D02*
X118236Y81647D01*
X117918Y81866*
X117282*
X116963Y81647*
X116645Y81210*
X116645D02*
X116486Y80772D01*
X116327Y80116*
Y79022*
X116486Y78366*
X116645Y77928*
X116963Y77491*
X117282Y77272*
X117918*
X118236Y77491*
X118554Y77928*
X118713Y78366*
Y79022*
X117918D02*
X118713D01*
X120145Y81866D02*
Y77272D01*
Y81866D02*
X122372Y77272D01*
Y81866D02*
Y77272D01*
X123804Y81866D02*
Y77272D01*
Y81866D02*
X124918D01*
X125395Y81647*
X125713Y81210*
X125713D02*
X125872Y80772D01*
X126032Y80116*
Y79022*
X125872Y78366*
X125713Y77928*
X125395Y77491*
X124918Y77272*
X123804*
X25200Y40000D02*
X149000D01*
Y160000*
X25200*
Y40000*
X146299Y150000D02*
G75*
G03X146299I-6299J0D01*
G01Y50000D02*
G03X146299I-6299J0D01*
G01X40636Y139700D02*
G03X40636I-5636J0D01*
G01X40961Y59900D02*
G03X40961I-6061J0D01*
G54D57*
G01X127594Y125591D02*
X142077D01*
Y74409*
X127594*
Y125591*
X133031Y120000D02*
X135000D01*
Y121969*
Y118031D02*
Y120000D01*
X136969*
G74*
X0Y0D02*
M02*
