*
*
G04 PADS VX.2.4 Build Number: 11282995 generated Gerber (RS-274-X) file*
G04 PC Version=2.1*
*
%IN "ICE + WriterV1.02-3.pcb"*%
*
%MOIN*%
*
%FSLAX35Y35*%
*
*
*
*
G04 PC Standard Apertures*
*
*
G04 Thermal Relief Aperture macro.*
%AMTER*
1,1,$1,0,0*
1,0,$1-$2,0,0*
21,0,$3,$4,0,0,45*
21,0,$3,$4,0,0,135*
%
*
*
G04 Annular Aperture macro.*
%AMANN*
1,1,$1,0,0*
1,0,$2,0,0*
%
*
*
G04 Odd Aperture macro.*
%AMODD*
1,1,$1,0,0*
1,0,$1-0.005,0,0*
%
*
*
G04 PC Custom Aperture Macros*
*
*
*
*
*
*
G04 PC Aperture Table*
*
%ADD010C,0.001*%
%ADD011C,0.07874*%
%ADD014C,0.06*%
%ADD018R,0.05X0.06*%
%ADD019R,0.06X0.05*%
%ADD020R,0.06X0.06*%
%ADD021C,0.012*%
%ADD022C,0.02*%
%ADD023C,0.01*%
%ADD034C,0.0315*%
%ADD035R,0.07087X0.07087*%
%ADD036C,0.07087*%
%ADD052C,0.015*%
%ADD079R,0.06102X0.01417*%
%ADD080R,0.09055X0.07874*%
%ADD081R,0.21654X0.07874*%
%ADD082C,0.03*%
*
*
*
*
G04 PC Circuitry*
G04 Layer Name ICE + WriterV1.02-3.pcb - circuitry*
%LPD*%
*
*
G04 PC Custom Flashes*
G04 Layer Name ICE + WriterV1.02-3.pcb - flashes*
%LPD*%
*
*
G04 PC Circuitry*
G04 Layer Name ICE + WriterV1.02-3.pcb - circuitry*
%LPD*%
*
G54D10*
G54D11*
G01X125900Y103664D03*
X145900D03*
G54D14*
X180000Y85000D03*
Y75000D03*
Y215000D03*
Y205000D03*
G54D18*
X158995Y85235D03*
Y76235D03*
X114798Y84902D03*
Y75902D03*
G54D19*
X138500Y208000D03*
X147500D03*
Y218000D03*
X138500D03*
X139500Y180000D03*
X130500D03*
G54D20*
X180000Y95000D03*
Y225000D03*
G54D21*
X108000Y69100D02*
X192000D01*
X100500Y71500D02*
X104902Y75902D01*
X114798*
X136730*
X137063Y76235*
X158995*
X172800Y104400D02*
X181050D01*
X182050Y105400*
X190300*
X158995Y76235D02*
X168665D01*
X169900Y75000*
X180000*
X154601Y103664D02*
Y103200D01*
X168100*
X135445Y153245D02*
X139940Y148750D01*
X145925*
X135445Y153245D02*
X135700Y153500D01*
X108000Y158200D02*
X118400D01*
X133400Y163300D02*
Y163100D01*
X138357*
X140207Y161250*
X145925*
X130800Y118100D02*
X165173D01*
X168273Y115000*
X175000*
X114900Y123100D02*
X143016D01*
X144916Y125000*
X175000*
X118400Y154000D02*
X121624Y153859D01*
X124075*
Y153750*
X112700Y163800D02*
X117624D01*
X117674Y163750*
X124075*
X112700Y111600D02*
Y103664D01*
X117199*
X135500Y170500D02*
X136500Y171500D01*
X143175*
X145925Y168750*
X130500Y180000D02*
X131479D01*
X132900Y178100*
X134381Y176119*
X134600Y175900*
X145165*
X145265Y176000*
X166000*
X175000Y185000*
X139500Y180000D02*
Y179200D01*
X150100*
X95000Y150000D02*
X105334D01*
X108734Y146600*
X118100*
X95000Y160000D02*
X100718Y154282D01*
X104753*
X108734Y150300*
X118946*
X120496Y148750*
X124075*
X95000Y170000D02*
X109158D01*
X110408Y168750*
X124075*
Y151250D02*
X128950D01*
X129800Y150400*
X124075Y156250D02*
X128726D01*
X130600Y154376*
Y154100*
X137100Y147600*
Y144053*
X146153Y135000*
X175000*
X124075Y158750D02*
X129717D01*
X131767Y156700*
X139300*
Y157100*
X124075Y161250D02*
X130707D01*
X132057Y159900*
X136000*
X124075Y163750D02*
X129349D01*
X132099Y166500*
X136300*
Y166300*
X124075Y166250D02*
X128726D01*
X130500Y168024*
Y169990*
X134210Y173700*
X148043*
X148143Y173800*
X167784*
X168984Y175000*
X175000*
X124075Y168750D02*
Y174075D01*
X130000Y180000*
X130500*
X152000Y189100D02*
X163501D01*
X164601Y190200*
X187074*
X190143Y187130*
Y180143*
X140200Y168300D02*
Y167324D01*
X141274Y166250*
X145925*
X159500Y110200D02*
Y109600D01*
X166546*
X168546Y107600*
X187985*
X192343Y111958*
Y137657*
X151600Y156300D02*
X156892D01*
X160992Y160400*
X166258*
X166658Y160000*
X170400*
X164400Y112800D02*
X167600Y112511D01*
X170311Y109800*
X187074*
X190143Y112870*
Y119857*
X140200Y153000D02*
Y152324D01*
X141274Y151250*
X145925*
X152000Y143100D02*
X161566D01*
X163466Y145000*
X175000*
X155500Y149600D02*
X169600D01*
X175000Y155000*
X154700Y164900D02*
X156945Y162655D01*
X167512*
X169857Y165000*
X175000*
X185000Y125000D02*
X190143Y119857D01*
X185000Y145000D02*
X192343Y137657D01*
X185000Y175000D02*
X190143Y180143D01*
X145925Y168750D02*
X148188D01*
X151400Y170600*
X145925Y163750D02*
X149448D01*
X151100Y165402*
Y165790*
X153455Y168145*
X156655*
X158900Y165900*
X145925Y158750D02*
X149504D01*
X151454Y160700*
X153100*
X145925Y156250D02*
X151600D01*
Y156300*
X145925Y153750D02*
X149554D01*
X150204Y153100*
X160300*
X164400Y157200*
X147500Y193400D02*
X180200D01*
X174500Y200600D02*
X174683Y200783D01*
X164000Y205339D02*
X170128D01*
X174683Y200783*
G54D22*
X183575Y60000D02*
G75*
G03X183575I-3575J0D01*
G01X133575D02*
G03X133575I-3575J0D01*
G01X183575Y240000D02*
G03X183575I-3575J0D01*
G01X133575D02*
G03X133575I-3575J0D01*
G01X83575D02*
G03X83575I-3575J0D01*
G01Y60000D02*
G03X83575I-3575J0D01*
G01X203000Y234896D02*
G03X201355Y235660I-1000J-0D01*
G01X191769Y249140D02*
G03X201355Y235660I4231J-7140D01*
G01X191769Y249140D02*
G03X192260Y250000I-509J860D01*
X191260Y251000I-1000J-0*
G01X68300*
G03X67300Y250000I0J-1000*
G01Y195972*
G03X69051Y195312I1000J0*
G01Y184802D02*
G03Y195312I5974J5255D01*
G01Y184802D02*
G03X67300Y184142I-751J-660D01*
G01Y116148*
G03X69018Y115452I1000J-0*
G01Y104104D02*
G03Y115452I5856J5674D01*
G01Y104104D02*
G03X67300Y103408I-718J-696D01*
G01Y50000*
G03X68300Y49000I1000J0*
G01X191260*
G03X192260Y50000I-0J1000*
X191769Y50860I-1000J0*
G01X190567Y64273D02*
G03X191769Y50860I5433J-6273D01*
G01X190567Y64273D02*
G03X190369Y65919I-655J756D01*
G01X189794Y66287D02*
G03X190369Y65919I2206J2813D01*
G01X189794Y66287D02*
G03X189177Y66500I-617J-787D01*
G01X110823*
G03X110206Y66287I-0J-1000*
G01X104515Y68304D02*
G03X110206Y66287I3485J796D01*
G01X104515Y68304D02*
G03X102876Y68829I-975J-223D01*
G01X103985Y72296D02*
G03X102876Y68829I-3485J-796D01*
G01X103985Y72296D02*
G03X105624Y71771I975J223D01*
G01X109014Y72528D02*
G03X105624Y71771I-1014J-3428D01*
G01X109014Y72528D02*
G03X110298Y73487I284J959D01*
G01Y78902*
X110566Y79902D02*
G03X110298Y78902I1732J-1000D01*
G01X110566Y79902D02*
G03Y80902I-866J500D01*
G01X110298Y81902D02*
G03X110566Y80902I2000J-0D01*
G01X110298Y81902D02*
Y87902D01*
X110965Y89392D02*
G03X110298Y87902I1333J-1490D01*
G01X110965Y89392D02*
G03X111298Y90138I-667J746D01*
G01Y92614*
X112323Y95088D02*
G03X111298Y92614I2475J-2474D01*
G01X112323Y95088D02*
X113255Y96020D01*
G03X112547Y97727I-708J707*
G01X106373*
X104373Y99727D02*
G03X106373Y97727I2000J0D01*
G01X104373Y99727D02*
Y107601D01*
X106373Y109601D02*
G03X104373Y107601I-0J-2000D01*
G01X106373Y109601D02*
X108236D01*
G03X109211Y110819I-0J1000*
G01X109125Y111600D02*
G03X109211Y110819I3575J-0D01*
G01X109125Y111600D02*
X109125D01*
X116275D02*
G03X109125I-3575J0D01*
G01X116275D02*
X116275D01*
X116189Y110819D02*
G03X116275Y111600I-3489J781D01*
G01X116189Y110819D02*
G03X117164Y109601I975J-218D01*
G01X128026*
X129939Y108186D02*
G03X128026Y109601I-1913J-585D01*
G01X129939Y108186D02*
G03X130175Y107784I956J292D01*
G01Y99544D02*
G03Y107784I-4275J4120D01*
G01Y99544D02*
G03X129939Y99143I720J-694D01*
G01X128026Y97727D02*
G03X129939Y99143I0J2000D01*
G01X128026Y97727D02*
X121699D01*
G03X120699Y96727I0J-1000*
G01Y95015*
X119674Y92540D02*
G03X120699Y95015I-2475J2475D01*
G01X119674Y92540D02*
X118591Y91457D01*
G03X118298Y90750I707J-707*
G01Y90138*
G03X118631Y89392I1000J-0*
G01X119298Y87902D02*
G03X118631Y89392I-2000J-0D01*
G01X119298Y87902D02*
Y81902D01*
X119030Y80902D02*
G03X119298Y81902I-1732J1000D01*
G01X119030Y80902D02*
G03Y79902I866J-500D01*
G01X119298Y78902D02*
G03X119030Y79902I-2000J-0D01*
G01X119298Y78902D02*
Y72902D01*
X119293Y72767D02*
G03X119298Y72902I-1995J135D01*
G01X119293Y72767D02*
G03X120291Y71700I998J-67D01*
G01X153543*
G03X154543Y72700I-0J1000*
X154527Y72878I-1000J0*
G01X154495Y73235D02*
G03X154527Y72878I2000J-0D01*
G01X154495Y73235D02*
Y79235D01*
X154763Y80235D02*
G03X154495Y79235I1732J-1000D01*
G01X154763Y80235D02*
G03Y81235I-866J500D01*
G01X154495Y82235D02*
G03X154763Y81235I2000J-0D01*
G01X154495Y82235D02*
Y88235D01*
X154986Y89548D02*
G03X154495Y88235I1509J-1313D01*
G01X154986Y89548D02*
G03X154939Y90911I-754J656D01*
G01X152126Y93724*
X151101Y96199D02*
G03X152126Y93724I3500J-0D01*
G01X151101Y96199D02*
Y96727D01*
G03X150101Y97727I-1000J0*
G01X143774*
X141862Y99143D02*
G03X143774Y97727I1912J584D01*
G01X141862Y99143D02*
G03X141625Y99544I-957J-293D01*
G01Y107784D02*
G03Y99544I4275J-4120D01*
G01Y107784D02*
G03X141862Y108186I-720J694D01*
G01X143774Y109601D02*
G03X141862Y108186I0J-2000D01*
G01X143774Y109601D02*
X154943D01*
G03X155939Y110513I-0J1000*
G01X158280Y113560D02*
G03X155939Y110513I1220J-3360D01*
G01X158280Y113560D02*
G03X157938Y115500I-342J940D01*
G01X133623*
G03X133006Y115287I-0J-1000*
G01X127397Y119194D02*
G03X133006Y115287I3403J-1094D01*
G01X127397Y119194D02*
G03X126445Y120500I-952J306D01*
G01X117723*
G03X117106Y120287I-0J-1000*
G01Y125913D02*
G03Y120287I-2206J-2813D01*
G01Y125913D02*
G03X117723Y125700I617J787D01*
G01X141525*
G03X142232Y125993I-0J1000*
G01X143077Y126838*
X144916Y127600D02*
G03X143077Y126838I-0J-2600D01*
G01X144916Y127600D02*
X169536D01*
G03X170371Y128050I0J1000*
G01X171424Y129236D02*
G03X170371Y128050I3576J-4236D01*
G01X171424Y129236D02*
G03Y130764I-645J764D01*
G01X170371Y131950D02*
G03X171424Y130764I4629J3050D01*
G01X170371Y131950D02*
G03X169536Y132400I-835J-550D01*
G01X146153*
X144314Y133162D02*
G03X146153Y132400I1839J1838D01*
G01X144314Y133162D02*
X135262Y142214D01*
X134500Y144053D02*
G03X135262Y142214I2600J-0D01*
G01X134500Y144053D02*
Y146109D01*
G03X134207Y146816I-1000J-0*
G01X133433Y147590*
G03X132086Y147652I-707J-707*
G01X130055Y146834D02*
G03X132086Y147652I-255J3566D01*
G01X130055Y146834D02*
G03X129126Y145837I71J-997D01*
G01Y145541*
X129093Y145180D02*
G03X129126Y145541I-1967J361D01*
G01X129093Y145180D02*
G03Y144820I984J-180D01*
G01X129126Y144459D02*
G03X129093Y144820I-2000J-0D01*
G01X129126Y144459D02*
Y143041D01*
X129093Y142680D02*
G03X129126Y143041I-1967J361D01*
G01X129093Y142680D02*
G03Y142320I984J-180D01*
G01X129126Y141959D02*
G03X129093Y142320I-2000J-0D01*
G01X129126Y141959D02*
Y140541D01*
X127126Y138541D02*
G03X129126Y140541I-0J2000D01*
G01X127126Y138541D02*
X121024D01*
X119024Y140541D02*
G03X121024Y138541I2000J0D01*
G01X119024Y140541D02*
Y141959D01*
Y142003D02*
G03Y141959I2000J-44D01*
G01Y142003D02*
G03Y142026I-1000J23D01*
G01X119024*
G03X118041Y143026I-1000J-0*
G01X115894Y143787D02*
G03X118041Y143026I2206J2813D01*
G01X115894Y143787D02*
G03X115277Y144000I-617J-787D01*
G01X108734*
X106896Y144762D02*
G03X108734Y144000I1838J1838D01*
G01X106896Y144762D02*
X104550Y147107D01*
G03X103843Y147400I-707J-707*
G01X100464*
G03X99629Y146950I-0J-1000*
G01X98576Y145764D02*
G03X99629Y146950I-3576J4236D01*
G01X98576Y145764D02*
G03Y144236I645J-764D01*
G01Y135764D02*
G03Y144236I-3576J4236D01*
G01Y135764D02*
G03Y134236I645J-764D01*
G01X100543Y130000D02*
G03X98576Y134236I-5543J0D01*
G01X90764Y126424D02*
G03X100543Y130000I4236J3576D01*
G01X90764Y126424D02*
G03X89236I-764J-645D01*
G01X79457Y130000D02*
G03X89236Y126424I5543J0D01*
G01X81424Y134236D02*
G03X79457Y130000I3576J-4236D01*
G01X81424Y134236D02*
G03Y135764I-645J764D01*
G01Y144236D02*
G03Y135764I3576J-4236D01*
G01Y144236D02*
G03Y145764I-645J764D01*
G01Y154236D02*
G03Y145764I3576J-4236D01*
G01Y154236D02*
G03Y155764I-645J764D01*
G01Y164236D02*
G03Y155764I3576J-4236D01*
G01Y164236D02*
G03Y165764I-645J764D01*
G01X79457Y170000D02*
G03X81424Y165764I5543J0D01*
G01X88356Y174412D02*
G03X79457Y170000I-3356J-4412D01*
G01X88356Y174412D02*
G03X89793Y174653I605J796D01*
G01X91457Y175543D02*
G03X89793Y174653I-0J-2000D01*
G01X91457Y175543D02*
X98543D01*
X100543Y173581D02*
G03X98543Y175543I-2000J-38D01*
G01X100543Y173581D02*
G03X101543Y172600I1000J19D01*
G01X109158*
X110997Y171838D02*
G03X109158Y172600I-1839J-1838D01*
G01X110997Y171838D02*
X111193Y171643D01*
G03X111900Y171350I707J707*
G01X120224*
G03X120490Y171386I-0J1000*
G01X120658Y171425D02*
G03X120490Y171386I366J-1966D01*
G01X120658Y171425D02*
G03X121475Y172408I-183J983D01*
G01Y174075*
X122236Y175913D02*
G03X121475Y174075I1839J-1838D01*
G01X122236Y175913D02*
X125207Y178884D01*
G03X125500Y179591I-707J707*
G01Y182500*
X127500Y184500D02*
G03X125500Y182500I0J-2000D01*
G01X127500Y184500D02*
X133500D01*
X134500Y184232D02*
G03X133500Y184500I-1000J-1732D01*
G01X134500Y184232D02*
G03X135500I500J866D01*
G01X136500Y184500D02*
G03X135500Y184232I0J-2000D01*
G01X136500Y184500D02*
X142500D01*
X144500Y182500D02*
G03X142500Y184500I-2000J0D01*
G01X144500Y182500D02*
Y179600D01*
G03X145500Y178600I1000J0*
G01X145543*
G03X146539Y179513I-0J1000*
G01X153661D02*
G03X146539I-3561J-313D01*
G01X153661D02*
G03X154657Y178600I996J87D01*
G01X164509*
G03X165216Y178893I-0J1000*
G01X169298Y182975*
G03X169591Y183682I-707J707*
G01X169591*
G03X169570Y183883I-1000J-0*
G01X169457Y185000D02*
G03X169570Y183883I5543J0D01*
G01X169625Y186355D02*
G03X169457Y185000I5375J-1355D01*
G01X169625Y186355D02*
G03X168655Y187600I-970J245D01*
G01X166092*
G03X165385Y187307I-0J-1000*
G01X165339Y187262*
X163501Y186500D02*
G03X165339Y187262I-0J2600D01*
G01X163501Y186500D02*
X154823D01*
G03X154206Y186287I-0J-1000*
G01Y191913D02*
G03Y186287I-2206J-2813D01*
G01Y191913D02*
G03X154823Y191700I617J787D01*
G01X162009*
G03X162716Y191993I0J1000*
G01X162762Y192038*
X164601Y192800D02*
G03X162762Y192038I-0J-2600D01*
G01X164601Y192800D02*
X175643D01*
G03X176639Y193713I-0J1000*
G01X183761D02*
G03X176639I-3561J-313D01*
G01X183761D02*
G03X184757Y192800I996J87D01*
G01X187074*
X188912Y192038D02*
G03X187074Y192800I-1838J-1838D01*
G01X188912Y192038D02*
X191982Y188969D01*
X192743Y187130D02*
G03X191982Y188969I-2600J0D01*
G01X192743Y187130D02*
Y180143D01*
X191980Y178303D02*
G03X192743Y180143I-1837J1840D01*
G01X191980Y178303D02*
X190702Y177025D01*
G03X190409Y176318I707J-707*
G01X190409*
G03X190430Y176117I1000J0*
G01X190543Y175000D02*
G03X190430Y176117I-5543J-0D01*
G01X188576Y170764D02*
G03X190543Y175000I-3576J4236D01*
G01X188576Y170764D02*
G03Y169236I645J-764D01*
G01Y160764D02*
G03Y169236I-3576J4236D01*
G01Y160764D02*
G03Y159236I645J-764D01*
G01Y150764D02*
G03Y159236I-3576J4236D01*
G01Y150764D02*
G03Y149236I645J-764D01*
G01X190543Y145000D02*
G03X188576Y149236I-5543J0D01*
G01X190430Y143883D02*
G03X190543Y145000I-5430J1117D01*
G01X190430Y143883D02*
G03X190409Y143682I979J-201D01*
G01X190409*
G03X190702Y142975I1000J-0*
G01X194180Y139497*
X194943Y137657D02*
G03X194180Y139497I-2600J-0D01*
G01X194943Y137657D02*
Y111958D01*
X194182Y110120D02*
G03X194943Y111958I-1839J1838D01*
G01X194182Y110120D02*
X193103Y109041D01*
G03X193043Y107693I707J-707*
G01X188094Y102587D02*
G03X193043Y107693I2206J2813D01*
G01X188094Y102587D02*
G03X187477Y102800I-617J-787D01*
G01X183540*
G03X182848Y102522I-0J-1000*
G01X181905Y101944D02*
G03X182848Y102522I-855J2456D01*
G01X181905Y101944D02*
G03X182233Y100000I328J-944D01*
G01X183000*
X185000Y98000D02*
G03X183000Y100000I-2000J0D01*
G01X185000Y98000D02*
Y92000D01*
X183816Y90174D02*
G03X185000Y92000I-816J1826D01*
G01X183816Y90174D02*
G03X183520Y88551I408J-913D01*
G01X185000Y85000D02*
G03X183520Y88551I-5000J-0D01*
G01X182764Y80833D02*
G03X185000Y85000I-2764J4167D01*
G01X182764Y80833D02*
G03Y79167I553J-833D01*
G01X185000Y75000D02*
G03X182764Y79167I-5000J0D01*
G01X185000Y75000D02*
X185000D01*
X184618Y73083D02*
G03X185000Y75000I-4618J1917D01*
G01X184618Y73083D02*
G03X185542Y71700I924J-383D01*
G01X189177*
G03X189794Y71913I0J1000*
G01X195285Y67691D02*
G03X189794Y71913I-3285J1409D01*
G01X195285Y67691D02*
G03X196182Y66297I919J-394D01*
G01X201355Y64340D02*
G03X196182Y66297I-5355J-6340D01*
G01X201355Y64340D02*
G03X203000Y65104I645J764D01*
G01Y234896*
X175000Y85000D02*
G03X177236Y80833I5000J0D01*
G01X176480Y88551D02*
G03X175000Y85000I3520J-3551D01*
G01X176480Y88551D02*
G03X176184Y90174I-704J710D01*
G01X175000Y92000D02*
G03X176184Y90174I2000J0D01*
G01X175000Y92000D02*
Y98000D01*
X176282Y99867D02*
G03X175000Y98000I718J-1867D01*
G01X176282Y99867D02*
G03X175923Y101800I-359J933D01*
G01X175623*
G03X175006Y101587I-0J-1000*
G01X171714Y100994D02*
G03X175006Y101587I1086J3406D01*
G01X171714Y100994D02*
G03X170686Y100732I-304J-952D01*
G01X168193Y99626D02*
G03X170686Y100732I-93J3574D01*
G01X168193Y99626D02*
G03X167288Y98993I26J-999D01*
G01X165428Y97727D02*
G03X167288Y98993I-0J2000D01*
G01X165428Y97727D02*
X160437D01*
G03X159730Y96020I-0J-1000*
G01X161470Y94280*
X162495Y91805D02*
G03X161470Y94280I-3500J0D01*
G01X162495Y91805D02*
Y90471D01*
G03X162828Y89726I1000J-0*
G01X163495Y88235D02*
G03X162828Y89726I-2000J-0D01*
G01X163495Y88235D02*
Y82235D01*
X163227Y81235D02*
G03X163495Y82235I-1732J1000D01*
G01X163227Y81235D02*
G03Y80235I866J-500D01*
G01X163495Y79235D02*
G03X163227Y80235I-2000J-0D01*
G01X163495Y79235D02*
Y73235D01*
X163463Y72878D02*
G03X163495Y73235I-1968J357D01*
G01X163463Y72878D02*
G03X163447Y72700I984J-178D01*
X164447Y71700I1000J0*
G01X174458*
G03X175382Y73083I0J1000*
G01X175000Y75000D02*
G03X175382Y73083I5000J-0D01*
G01X175000Y75000D02*
X175000D01*
X177236Y79167D02*
G03X175000Y75000I2764J-4167D01*
G01X177236Y79167D02*
G03Y80833I-553J833D01*
G01X183575Y60000D02*
G03X183575I-3575J0D01*
G01X133575D02*
G03X133575I-3575J0D01*
G01X185000Y228000D02*
Y222000D01*
X184000Y220268D02*
G03X185000Y222000I-1000J1732D01*
G01X184000Y220268D02*
G03X183500Y219402I500J-866D01*
G01Y218969*
G03X183750Y218307I1000J-0*
G01X185000Y215000D02*
G03X183750Y218307I-5000J0D01*
G01X185000Y215000D02*
X185000D01*
X183750Y211693D02*
G03X185000Y215000I-3750J3307D01*
G01X183750Y211693D02*
G03X183500Y211031I750J-662D01*
G01Y208969*
G03X183750Y208307I1000J-0*
G01X179023Y200096D02*
G03X183750Y208307I977J4904D01*
G01X179023Y200096D02*
G03X177881Y199440I-196J-980D01*
G01X171170Y199301D02*
G03X177881Y199440I3330J1299D01*
G01X171170Y199301D02*
G03X169668Y199759I-932J-364D01*
G01X168528Y199402D02*
G03X169668Y199759I-0J2000D01*
G01X168528Y199402D02*
X159472D01*
X157472Y201402D02*
G03X159472Y199402I2000J-0D01*
G01X157472Y201402D02*
Y204497D01*
G03X157180Y205204I-1000J0*
G01X154207Y208177*
G03X152500Y207470I-707J-707*
G01Y205500*
X150500Y203500D02*
G03X152500Y205500I0J2000D01*
G01X150500Y203500D02*
X144500D01*
X143500Y203768D02*
G03X144500Y203500I1000J1732D01*
G01X143500Y203768D02*
G03X142500I-500J-866D01*
G01X141500Y203500D02*
G03X142500Y203768I0J2000D01*
G01X141500Y203500D02*
X135500D01*
X133500Y205500D02*
G03X135500Y203500I2000J0D01*
G01X133500Y205500D02*
Y210500D01*
X134394Y212167D02*
G03X133500Y210500I1106J-1667D01*
G01X134394Y212167D02*
G03Y213833I-552J833D01*
G01X133500Y215500D02*
G03X134394Y213833I2000J0D01*
G01X133500Y215500D02*
Y220500D01*
X135500Y222500D02*
G03X133500Y220500I0J-2000D01*
G01X135500Y222500D02*
X141500D01*
X142500Y222232D02*
G03X141500Y222500I-1000J-1732D01*
G01X142500Y222232D02*
G03X143500I500J866D01*
G01X144500Y222500D02*
G03X143500Y222232I0J-2000D01*
G01X144500Y222500D02*
X150500D01*
X152500Y220500D02*
G03X150500Y222500I-2000J0D01*
G01X152500Y220500D02*
Y220198D01*
G03X152793Y219490I1000J-0*
G01X160715Y211569*
G03X161422Y211276I707J707*
G01X168528*
X170528Y209276D02*
G03X168528Y211276I-2000J-0D01*
G01X170528Y209276D02*
Y208655D01*
G03X171139Y207734I1000J0*
G01X171966Y207177D02*
G03X171139Y207734I-1838J-1838D01*
G01X171966Y207177D02*
X173457Y205686D01*
G03X175137Y206161I707J707*
G01X176250Y208307D02*
G03X175137Y206161I3750J-3307D01*
G01X176250Y208307D02*
G03X176500Y208969I-750J662D01*
G01Y211031*
G03X176250Y211693I-1000J0*
G01X175000Y215000D02*
G03X176250Y211693I5000J-0D01*
G01X175000Y215000D02*
X175000D01*
X176250Y218307D02*
G03X175000Y215000I3750J-3307D01*
G01X176250Y218307D02*
G03X176500Y218969I-750J662D01*
G01Y219000*
G03X175500Y220000I-1000J-0*
G01X171528*
G03X170528Y219000I-0J-1000*
G01Y218724*
X168528Y216724D02*
G03X170528Y218724I-0J2000D01*
G01X168528Y216724D02*
X159472D01*
X157472Y218724D02*
G03X159472Y216724I2000J0D01*
G01X157472Y218724D02*
Y226598D01*
X159472Y228598D02*
G03X157472Y226598I0J-2000D01*
G01X159472Y228598D02*
X168528D01*
X170296Y227533D02*
G03X168528Y228598I-1768J-935D01*
G01X170296Y227533D02*
G03X171180Y227000I884J467D01*
G01X174000*
G03X175000Y228000I-0J1000*
G01X177000Y230000D02*
G03X175000Y228000I0J-2000D01*
G01X177000Y230000D02*
X183000D01*
X185000Y228000D02*
G03X183000Y230000I-2000J0D01*
G01X183575Y240000D02*
G03X183575I-3575J0D01*
G01X133575D02*
G03X133575I-3575J0D01*
G01X83575D02*
G03X83575I-3575J0D01*
G01Y60000D02*
G03X83575I-3575J0D01*
G01X199331Y234399D02*
X203000D01*
X67300Y232599D02*
X203000D01*
X67300Y230799D02*
X203000D01*
X184733Y228999D02*
X203000D01*
X185000Y227199D02*
X203000D01*
X185000Y225399D02*
X203000D01*
X185000Y223599D02*
X203000D01*
X184990Y221799D02*
X203000D01*
X183698Y219999D02*
X203000D01*
X183843Y218199D02*
X203000D01*
X184800Y216399D02*
X203000D01*
X184984Y214599D02*
X203000D01*
X184489Y212799D02*
X203000D01*
X183500Y210999D02*
X203000D01*
X183500Y209199D02*
X203000D01*
X184387Y207399D02*
X203000D01*
X184964Y205599D02*
X203000D01*
X184854Y203799D02*
X203000D01*
X183999Y201999D02*
X203000D01*
X181396Y200199D02*
X203000D01*
X177317Y198399D02*
X203000D01*
X181796Y196599D02*
X203000D01*
X183490Y194799D02*
X203000D01*
X184159Y192999D02*
X203000D01*
X189752Y191199D02*
X203000D01*
X191552Y189399D02*
X203000D01*
X192701Y187599D02*
X203000D01*
X192743Y185799D02*
X203000D01*
X192743Y183999D02*
X203000D01*
X192743Y182199D02*
X203000D01*
X192743Y180399D02*
X203000D01*
X192235Y178599D02*
X203000D01*
X190532Y176799D02*
X203000D01*
X190543Y174999D02*
X203000D01*
X190243Y173199D02*
X203000D01*
X189214Y171399D02*
X203000D01*
X188305Y169599D02*
X203000D01*
X189785Y167799D02*
X203000D01*
X190453Y165999D02*
X203000D01*
X190485Y164199D02*
X203000D01*
X189895Y162399D02*
X203000D01*
X188420Y160599D02*
X203000D01*
X189037Y158799D02*
X203000D01*
X190170Y156999D02*
X203000D01*
X190540Y155199D02*
X203000D01*
X190307Y153399D02*
X203000D01*
X189377Y151599D02*
X203000D01*
X188241Y149799D02*
X203000D01*
X189662Y147999D02*
X203000D01*
X190412Y146199D02*
X203000D01*
X190511Y144399D02*
X203000D01*
X191078Y142599D02*
X203000D01*
X192878Y140799D02*
X203000D01*
X194570Y138999D02*
X203000D01*
X194943Y137199D02*
X203000D01*
X194943Y135399D02*
X203000D01*
X194943Y133599D02*
X203000D01*
X194943Y131799D02*
X203000D01*
X194943Y129999D02*
X203000D01*
X194943Y128199D02*
X203000D01*
X194943Y126399D02*
X203000D01*
X194943Y124599D02*
X203000D01*
X194943Y122799D02*
X203000D01*
X194943Y120999D02*
X203000D01*
X194943Y119199D02*
X203000D01*
X194943Y117399D02*
X203000D01*
X194943Y115599D02*
X203000D01*
X194943Y113799D02*
X203000D01*
X194943Y111999D02*
X203000D01*
X194257Y110199D02*
X203000D01*
X192812Y108399D02*
X203000D01*
X193668Y106599D02*
X203000D01*
X193824Y104799D02*
X203000D01*
X192948Y102999D02*
X203000D01*
X181253Y101199D02*
X203000D01*
X184430Y99399D02*
X203000D01*
X185000Y97599D02*
X203000D01*
X185000Y95799D02*
X203000D01*
X185000Y93999D02*
X203000D01*
X185000Y92199D02*
X203000D01*
X184198Y90399D02*
X203000D01*
X183475Y88599D02*
X203000D01*
X184665Y86799D02*
X203000D01*
X185000Y84999D02*
X203000D01*
X184664Y83199D02*
X203000D01*
X183469Y81399D02*
X203000D01*
X182401Y79599D02*
X203000D01*
X184143Y77799D02*
X203000D01*
X184899Y75999D02*
X203000D01*
X184935Y74199D02*
X203000D01*
X193378Y72399D02*
X203000D01*
X195245Y70599D02*
X203000D01*
X195562Y68799D02*
X203000D01*
X195250Y66999D02*
X203000D01*
X200129Y65199D02*
X203000D01*
X67300Y234399D02*
X192669D01*
X67499Y250599D02*
X192060D01*
X67300Y50799D02*
X191861D01*
X67300Y248799D02*
X191241D01*
X67300Y65199D02*
X190898D01*
X184588Y72399D02*
X190622D01*
X67300Y236199D02*
X190065D01*
X67300Y52599D02*
X189699D01*
X181108Y63399D02*
X189697D01*
X67300Y246999D02*
X189375D01*
X182962Y237999D02*
X188729D01*
X67300Y54399D02*
X188523D01*
X183197Y61599D02*
X188522D01*
X67300Y245199D02*
X188342D01*
X183569Y239799D02*
X187998D01*
X67300Y56199D02*
X187899D01*
X183569Y59799D02*
X187898D01*
X181108Y243399D02*
X187820D01*
X183197Y241599D02*
X187711D01*
X182962Y57999D02*
X187701D01*
X131108Y243399D02*
X178892D01*
X131108Y63399D02*
X178892D01*
X79554Y196599D02*
X178604D01*
X132962Y237999D02*
X177038D01*
X132962Y57999D02*
X177038D01*
X81414Y194799D02*
X176910D01*
X133197Y241599D02*
X176803D01*
X133197Y61599D02*
X176803D01*
X169543Y210999D02*
X176500D01*
X170528Y209199D02*
X176500D01*
X133569Y239799D02*
X176431D01*
X133569Y59799D02*
X176431D01*
X82417Y192999D02*
X176241D01*
X170457Y218199D02*
X176157D01*
X171714Y207399D02*
X175613D01*
X171477Y219999D02*
X175550D01*
X159485Y212799D02*
X175511D01*
X67300Y228999D02*
X175267D01*
X155885Y216399D02*
X175200D01*
X157685Y214599D02*
X175016D01*
X173557Y205599D02*
X174771D01*
X170582Y227199D02*
X174598D01*
X100543Y129999D02*
X171779D01*
X67300Y198399D02*
X171683D01*
X100243Y131799D02*
X170474D01*
X100243Y128199D02*
X170473D01*
X143824Y183999D02*
X169548D01*
X153371Y185799D02*
X169515D01*
X166041Y187599D02*
X168706D01*
X152046Y182199D02*
X168522D01*
X153468Y180399D02*
X166722D01*
X115519Y113799D02*
X158651D01*
X67300Y200199D02*
X157875D01*
X67300Y227199D02*
X157565D01*
X154085Y218199D02*
X157543D01*
X67300Y225399D02*
X157472D01*
X67300Y223599D02*
X157472D01*
X152021Y221799D02*
X157472D01*
X152520Y219999D02*
X157472D01*
X151552Y203799D02*
X157472D01*
X67300Y201999D02*
X157472D01*
X152500Y205599D02*
X156785D01*
X116253Y111999D02*
X156411D01*
X116249Y110199D02*
X155858D01*
X118298Y90399D02*
X155213D01*
X152500Y207399D02*
X154985D01*
X119234Y81399D02*
X154678D01*
X119173Y88599D02*
X154528D01*
X119173Y79599D02*
X154528D01*
X119338Y72399D02*
X154496D01*
X119298Y86799D02*
X154495D01*
X119298Y84999D02*
X154495D01*
X119298Y83199D02*
X154495D01*
X119298Y77799D02*
X154495D01*
X119298Y75999D02*
X154495D01*
X119298Y74199D02*
X154495D01*
X119333Y92199D02*
X153652D01*
X120549Y93999D02*
X151879D01*
X120699Y95799D02*
X151124D01*
X81746Y185799D02*
X150629D01*
X121209Y97599D02*
X150591D01*
X82899Y191199D02*
X149106D01*
X82592Y187599D02*
X148756D01*
X82954Y189399D02*
X148438D01*
X144500Y182199D02*
X148154D01*
X144500Y180399D02*
X146732D01*
X99216Y133599D02*
X143877D01*
X142558Y203799D02*
X143442D01*
X116278Y126399D02*
X142637D01*
X98304Y135399D02*
X142077D01*
X129860Y108399D02*
X141940D01*
X130059Y99399D02*
X141741D01*
X131061Y106599D02*
X140739D01*
X131301Y101199D02*
X140499D01*
X99783Y137199D02*
X140277D01*
X131728Y104799D02*
X140073D01*
X131800Y102999D02*
X140001D01*
X128399Y138999D02*
X138477D01*
X129126Y140799D02*
X136677D01*
X129082Y142599D02*
X134944D01*
X67300Y212799D02*
X134821D01*
X129126Y144399D02*
X134500D01*
X129194Y146199D02*
X134496D01*
X67300Y203799D02*
X134448D01*
X67300Y221799D02*
X133979D01*
X67300Y214599D02*
X133715D01*
X67300Y210999D02*
X133563D01*
X67300Y219999D02*
X133500D01*
X67300Y218199D02*
X133500D01*
X67300Y216399D02*
X133500D01*
X67300Y209199D02*
X133500D01*
X67300Y207399D02*
X133500D01*
X67300Y205599D02*
X133500D01*
X81108Y243399D02*
X128892D01*
X81108Y63399D02*
X128892D01*
X80584Y115599D02*
X128246D01*
X67300Y119199D02*
X127398D01*
X77774Y117399D02*
X127295D01*
X82962Y237999D02*
X127038D01*
X82962Y57999D02*
X127038D01*
X83197Y241599D02*
X126803D01*
X83197Y61599D02*
X126803D01*
X83569Y239799D02*
X126431D01*
X83569Y59799D02*
X126431D01*
X80182Y183999D02*
X126176D01*
X76270Y182199D02*
X125500D01*
X67300Y180399D02*
X125500D01*
X67300Y178599D02*
X124922D01*
X67300Y176799D02*
X123122D01*
X99915Y174999D02*
X121644D01*
X100627Y173199D02*
X121475D01*
X111591Y171399D02*
X120538D01*
X100452Y138999D02*
X119751D01*
X100485Y140799D02*
X119024D01*
X99896Y142599D02*
X118844D01*
X99214Y126399D02*
X113522D01*
X67300Y97599D02*
X113037D01*
X67300Y95799D02*
X113033D01*
X67300Y120999D02*
X112008D01*
X96247Y124599D02*
X111655D01*
X67300Y93999D02*
X111584D01*
X67300Y122799D02*
X111338D01*
X67300Y92199D02*
X111298D01*
X67300Y90399D02*
X111298D01*
X67300Y88599D02*
X110423D01*
X67300Y79599D02*
X110423D01*
X67300Y81399D02*
X110362D01*
X67300Y86799D02*
X110298D01*
X67300Y84999D02*
X110298D01*
X67300Y83199D02*
X110298D01*
X67300Y77799D02*
X110298D01*
X67300Y75999D02*
X110298D01*
X102844Y74199D02*
X110298D01*
X81967Y113799D02*
X109881D01*
X83017Y110199D02*
X109151D01*
X82719Y111999D02*
X109147D01*
X98422Y144399D02*
X107351D01*
X103960Y72399D02*
X106622D01*
X99035Y146199D02*
X105459D01*
X67300Y66999D02*
X105108D01*
X82910Y108399D02*
X104539D01*
X67300Y99399D02*
X104400D01*
X82382Y106599D02*
X104373D01*
X81331Y104799D02*
X104373D01*
X79404Y102999D02*
X104373D01*
X67300Y101199D02*
X104373D01*
X102841Y68799D02*
X104237D01*
X67300D02*
X98159D01*
X67300Y74199D02*
X98156D01*
X67300Y70599D02*
X97041D01*
X67300Y72399D02*
X97040D01*
X86247Y124599D02*
X93753D01*
X89214Y126399D02*
X90786D01*
X87396Y174999D02*
X90085D01*
X67300Y124599D02*
X83753D01*
X67300Y174999D02*
X82604D01*
X67300Y155199D02*
X81759D01*
X67300Y135399D02*
X81696D01*
X67300Y144399D02*
X81578D01*
X67300Y164199D02*
X81381D01*
X67300Y165999D02*
X81164D01*
X67300Y146199D02*
X80965D01*
X67300Y126399D02*
X80786D01*
X67300Y133599D02*
X80784D01*
X67300Y153399D02*
X80621D01*
X67300Y173199D02*
X80473D01*
X67300Y156999D02*
X80339D01*
X67300Y137199D02*
X80217D01*
X67300Y142599D02*
X80104D01*
X67300Y162399D02*
X80003D01*
X67300Y167799D02*
X79912D01*
X67300Y147999D02*
X79831D01*
X67300Y128199D02*
X79757D01*
X67300Y131799D02*
X79757D01*
X67300Y151599D02*
X79692D01*
X67300Y171399D02*
X79636D01*
X67300Y158799D02*
X79588D01*
X67300Y138999D02*
X79548D01*
X67300Y140799D02*
X79515D01*
X67300Y160599D02*
X79489D01*
X67300Y169599D02*
X79471D01*
X67300Y149799D02*
X79460D01*
X67300Y129999D02*
X79457D01*
X67300Y243399D02*
X78892D01*
X67300Y63399D02*
X78892D01*
X67300Y237999D02*
X77038D01*
X67300Y57999D02*
X77038D01*
X67300Y241599D02*
X76803D01*
X67300Y61599D02*
X76803D01*
X67300Y239799D02*
X76431D01*
X67300Y59799D02*
X76431D01*
X67300Y182199D02*
X73780D01*
X67300Y117399D02*
X71974D01*
X67300Y196599D02*
X70496D01*
X67300Y102999D02*
X70344D01*
X67300Y183999D02*
X69868D01*
X67464Y115599D02*
X69164D01*
X163461Y79599D02*
X177599D01*
X174391Y101199D02*
X176840D01*
X163312Y81399D02*
X176531D01*
X163461Y88599D02*
X176525D01*
X163495Y77799D02*
X175857D01*
X162497Y90399D02*
X175802D01*
X167583Y99399D02*
X175570D01*
X163493Y72399D02*
X175412D01*
X163495Y83199D02*
X175336D01*
X163495Y86799D02*
X175335D01*
X163495Y75999D02*
X175101D01*
X163495Y74199D02*
X175065D01*
X159947Y97599D02*
X175000D01*
X159951Y95799D02*
X175000D01*
X161722Y93999D02*
X175000D01*
X162473Y92199D02*
X175000D01*
X163495Y84999D02*
X175000D01*
G54D23*
X65300Y47000D02*
X205000D01*
Y253000*
X65300*
Y47000*
X202299Y242000D02*
G03X202299I-6299J0D01*
G01Y58000D02*
G03X202299I-6299J0D01*
G01X80981Y190057D02*
G03X80981I-5956J0D01*
G01X81028Y109778D02*
G03X81028I-6154J0D01*
G54D34*
G01X130000Y60000D03*
X80000D03*
X108000Y69100D03*
X100500Y71500D03*
X180000Y60000D03*
X192000Y69100D03*
X190300Y105400D03*
X172800Y104400D03*
X168100Y103200D03*
X135700Y153500D03*
X118100Y146600D03*
X108000Y158200D03*
X118400D03*
X133400Y163300D03*
X130800Y118100D03*
X129800Y150400D03*
X114900Y123100D03*
X118400Y154000D03*
X139300Y157100D03*
X136000Y159900D03*
X112700Y163800D03*
Y111600D03*
X136300Y166300D03*
X135500Y170500D03*
X152000Y189100D03*
X140200Y168300D03*
X158900Y165900D03*
X159500Y110200D03*
X153100Y160700D03*
X170400Y160000D03*
X151600Y156300D03*
X164400Y112800D03*
Y157200D03*
X140200Y153000D03*
X152000Y143100D03*
X155500Y149600D03*
X154700Y164900D03*
X151400Y170600D03*
X150100Y179200D03*
X80000Y240000D03*
X130000D03*
X180000D03*
X180200Y193400D03*
X174500Y200600D03*
G54D35*
X95000Y170000D03*
G54D36*
Y160000D03*
Y150000D03*
Y140000D03*
Y130000D03*
X85000D03*
Y140000D03*
Y150000D03*
Y160000D03*
Y170000D03*
X175000Y185000D03*
Y175000D03*
Y165000D03*
Y155000D03*
Y145000D03*
Y135000D03*
Y125000D03*
Y115000D03*
X185000Y185000D03*
Y175000D03*
Y165000D03*
Y155000D03*
Y145000D03*
Y135000D03*
Y125000D03*
Y115000D03*
G54D52*
X182528Y62528D02*
X181114Y61114D01*
X177472Y62528D02*
X178886Y61114D01*
X177472Y57472D02*
X178886Y58886D01*
X182528Y57472D02*
X181114Y58886D01*
X132528Y62528D02*
X131114Y61114D01*
X127472Y62528D02*
X128886Y61114D01*
X127472Y57472D02*
X128886Y58886D01*
X132528Y57472D02*
X131114Y58886D01*
X82528Y62528D02*
X81114Y61114D01*
X77472Y62528D02*
X78886Y61114D01*
X77472Y57472D02*
X78886Y58886D01*
X82528Y57472D02*
X81114Y58886D01*
X82528Y242528D02*
X81114Y241114D01*
X77472Y242528D02*
X78886Y241114D01*
X77472Y237472D02*
X78886Y238886D01*
X82528Y237472D02*
X81114Y238886D01*
X132528Y242528D02*
X131114Y241114D01*
X127472Y242528D02*
X128886Y241114D01*
X127472Y237472D02*
X128886Y238886D01*
X132528Y237472D02*
X131114Y238886D01*
X182528Y242528D02*
X181114Y241114D01*
X177472Y242528D02*
X178886Y241114D01*
X177472Y237472D02*
X178886Y238886D01*
X182528Y237472D02*
X181114Y238886D01*
X182728Y195928D02*
X181314Y194514D01*
X177672Y195928D02*
X179086Y194514D01*
X152628Y181728D02*
X151214Y180314D01*
X147572Y181728D02*
X148986Y180314D01*
X103028Y74028D02*
X101614Y72614D01*
X97972Y74028D02*
X99386Y72614D01*
X97972Y68972D02*
X99386Y70386D01*
X103028Y68972D02*
X101614Y70386D01*
G54D79*
X124075Y168750D03*
Y166250D03*
Y163750D03*
Y161250D03*
Y158750D03*
Y156250D03*
Y153750D03*
Y151250D03*
Y148750D03*
Y146250D03*
Y143750D03*
Y141250D03*
X145925D03*
Y143750D03*
Y146250D03*
Y148750D03*
Y151250D03*
Y153750D03*
Y156250D03*
Y158750D03*
Y161250D03*
Y163750D03*
Y166250D03*
Y168750D03*
G54D80*
X164000Y222661D03*
Y205339D03*
G54D81*
X117199Y103664D03*
X154601D03*
G54D82*
X114798Y84902D02*
Y92614D01*
X117199Y95015*
Y103664*
X154601D02*
Y96199D01*
X158995Y91805*
Y85235*
X139500Y180000D02*
Y185400D01*
X147500Y193400*
X138500Y218000D02*
X140000D01*
X138500Y208000D02*
X140000D01*
Y218000*
X147500Y193400D02*
Y208000D01*
Y218000D02*
Y218667D01*
X148667*
X162702Y204631*
X164000*
Y205339*
X180000Y205000D02*
Y215000D01*
Y225000*
X164000Y222661D02*
Y223500D01*
X180000*
Y225000*
G74*
X0Y0D02*
M02*
