*
*
G04 PADS VX.2.4 Build Number: 11282995 generated Gerber (RS-274-X) file*
G04 PC Version=2.1*
*
%IN "ICE + WriterV1.02-3.pcb"*%
*
%MOIN*%
*
%FSLAX35Y35*%
*
*
*
*
G04 PC Standard Apertures*
*
*
G04 Thermal Relief Aperture macro.*
%AMTER*
1,1,$1,0,0*
1,0,$1-$2,0,0*
21,0,$3,$4,0,0,45*
21,0,$3,$4,0,0,135*
%
*
*
G04 Annular Aperture macro.*
%AMANN*
1,1,$1,0,0*
1,0,$2,0,0*
%
*
*
G04 Odd Aperture macro.*
%AMODD*
1,1,$1,0,0*
1,0,$1-0.005,0,0*
%
*
*
G04 PC Custom Aperture Macros*
*
*
*
*
*
*
G04 PC Aperture Table*
*
%ADD010C,0.001*%
%ADD023C,0.01*%
*
*
*
*
G04 PC Circuitry*
G04 Layer Name ICE + WriterV1.02-3.pcb - circuitry*
%LPD*%
*
*
G04 PC Custom Flashes*
G04 Layer Name ICE + WriterV1.02-3.pcb - flashes*
%LPD*%
*
*
G04 PC Circuitry*
G04 Layer Name ICE + WriterV1.02-3.pcb - circuitry*
%LPD*%
*
G54D10*
G54D23*
G01X91000Y170000D02*
X99000D01*
X95000Y166000D02*
Y174000D01*
X91000Y160000D02*
X99000D01*
X95000Y156000D02*
Y164000D01*
X91000Y150000D02*
X99000D01*
X95000Y146000D02*
Y154000D01*
X91000Y140000D02*
X99000D01*
X95000Y136000D02*
Y144000D01*
X91000Y130000D02*
X99000D01*
X95000Y126000D02*
Y134000D01*
X81000Y130000D02*
X89000D01*
X85000Y126000D02*
Y134000D01*
X81000Y140000D02*
X89000D01*
X85000Y136000D02*
Y144000D01*
X81000Y150000D02*
X89000D01*
X85000Y146000D02*
Y154000D01*
X81000Y160000D02*
X89000D01*
X85000Y156000D02*
Y164000D01*
X81000Y170000D02*
X89000D01*
X85000Y166000D02*
Y174000D01*
X176000Y91000D02*
X184000Y99000D01*
X176000D02*
X184000Y91000D01*
X176000Y81000D02*
X184000Y89000D01*
X176000D02*
X184000Y81000D01*
X176000Y71000D02*
X184000Y79000D01*
X176000D02*
X184000Y71000D01*
X176000Y221000D02*
X184000Y229000D01*
X176000D02*
X184000Y221000D01*
X176000Y211000D02*
X184000Y219000D01*
X176000D02*
X184000Y211000D01*
X176000Y201000D02*
X184000Y209000D01*
X176000D02*
X184000Y201000D01*
X171000Y181000D02*
X179000D01*
Y189000*
X171000*
Y181000*
X175000Y185000D02*
Y189000D01*
X171000Y171000D02*
X179000D01*
Y179000*
X171000*
Y171000*
X175000Y175000D02*
Y179000D01*
X171000Y161000D02*
X179000D01*
Y169000*
X171000*
Y161000*
X175000Y165000D02*
Y169000D01*
X171000Y151000D02*
X179000D01*
Y159000*
X171000*
Y151000*
X175000Y155000D02*
Y159000D01*
X171000Y141000D02*
X179000D01*
Y149000*
X171000*
Y141000*
X175000Y145000D02*
Y149000D01*
X171000Y131000D02*
X179000D01*
Y139000*
X171000*
Y131000*
X175000Y135000D02*
Y139000D01*
X171000Y121000D02*
X179000D01*
Y129000*
X171000*
Y121000*
X175000Y125000D02*
Y129000D01*
X171000Y111000D02*
X179000D01*
Y119000*
X171000*
Y111000*
X175000Y115000D02*
Y119000D01*
X181000Y181000D02*
X189000D01*
Y189000*
X181000*
Y181000*
X185000Y185000D02*
Y189000D01*
X181000Y171000D02*
X189000D01*
Y179000*
X181000*
Y171000*
X185000Y175000D02*
Y179000D01*
X181000Y161000D02*
X189000D01*
Y169000*
X181000*
Y161000*
X185000Y165000D02*
Y169000D01*
X181000Y151000D02*
X189000D01*
Y159000*
X181000*
Y151000*
X185000Y155000D02*
Y159000D01*
X181000Y141000D02*
X189000D01*
Y149000*
X181000*
Y141000*
X185000Y145000D02*
Y149000D01*
X181000Y131000D02*
X189000D01*
Y139000*
X181000*
Y131000*
X185000Y135000D02*
Y139000D01*
X181000Y121000D02*
X189000D01*
Y129000*
X181000*
Y121000*
X185000Y125000D02*
Y129000D01*
X181000Y111000D02*
X189000D01*
Y119000*
X181000*
Y111000*
X185000Y115000D02*
Y119000D01*
X125900Y99664D02*
X129900Y103664D01*
X125900Y107664*
X121900Y103664*
X125900Y99664*
Y103664D02*
Y107664D01*
X145900Y99664D02*
X149900Y103664D01*
X145900Y107664*
X141900Y103664*
X145900Y99664*
Y103664D02*
Y107664D01*
X126000Y56000D02*
X134000D01*
X126000Y64000*
X134000*
X126000Y56000*
X76000D02*
X84000D01*
X76000Y64000*
X84000*
X76000Y56000*
X104000Y65100D02*
X112000D01*
X104000Y73100*
X112000*
X104000Y65100*
X96500Y67500D02*
X104500D01*
X96500Y75500*
X104500*
X96500Y67500*
X176000Y56000D02*
X184000D01*
X176000Y64000*
X184000*
X176000Y56000*
X188000Y65100D02*
X196000D01*
X188000Y73100*
X196000*
X188000Y65100*
X186300Y101400D02*
X194300D01*
X186300Y109400*
X194300*
X186300Y101400*
X168800Y100400D02*
X176800D01*
X168800Y108400*
X176800*
X168800Y100400*
X164100Y99200D02*
X172100D01*
X164100Y107200*
X172100*
X164100Y99200*
X131700Y149500D02*
X139700D01*
X131700Y157500*
X139700*
X131700Y149500*
X114100Y142600D02*
X122100D01*
X114100Y150600*
X122100*
X114100Y142600*
X104000Y154200D02*
X112000D01*
X104000Y162200*
X112000*
X104000Y154200*
X114400D02*
X122400D01*
X114400Y162200*
X122400*
X114400Y154200*
X129400Y159300D02*
X137400D01*
X129400Y167300*
X137400*
X129400Y159300*
X126800Y114100D02*
X134800D01*
X126800Y122100*
X134800*
X126800Y114100*
X125800Y146400D02*
X133800D01*
X125800Y154400*
X133800*
X125800Y146400*
X110900Y119100D02*
X118900D01*
X110900Y127100*
X118900*
X110900Y119100*
X114400Y150000D02*
X122400D01*
X114400Y158000*
X122400*
X114400Y150000*
X135300Y153100D02*
X143300D01*
X135300Y161100*
X143300*
X135300Y153100*
X132000Y155900D02*
X140000D01*
X132000Y163900*
X140000*
X132000Y155900*
X108700Y159800D02*
X116700D01*
X108700Y167800*
X116700*
X108700Y159800*
Y107600D02*
X116700D01*
X108700Y115600*
X116700*
X108700Y107600*
X132300Y162300D02*
X140300D01*
X132300Y170300*
X140300*
X132300Y162300*
X131500Y166500D02*
X139500D01*
X131500Y174500*
X139500*
X131500Y166500*
X148000Y185100D02*
X156000D01*
X148000Y193100*
X156000*
X148000Y185100*
X136200Y164300D02*
X144200D01*
X136200Y172300*
X144200*
X136200Y164300*
X154900Y161900D02*
X162900D01*
X154900Y169900*
X162900*
X154900Y161900*
X155500Y106200D02*
X163500D01*
X155500Y114200*
X163500*
X155500Y106200*
X149100Y156700D02*
X157100D01*
X149100Y164700*
X157100*
X149100Y156700*
X166400Y156000D02*
X174400D01*
X166400Y164000*
X174400*
X166400Y156000*
X147600Y152300D02*
X155600D01*
X147600Y160300*
X155600*
X147600Y152300*
X160400Y108800D02*
X168400D01*
X160400Y116800*
X168400*
X160400Y108800*
Y153200D02*
X168400D01*
X160400Y161200*
X168400*
X160400Y153200*
X136200Y149000D02*
X144200D01*
X136200Y157000*
X144200*
X136200Y149000*
X148000Y139100D02*
X156000D01*
X148000Y147100*
X156000*
X148000Y139100*
X151500Y145600D02*
X159500D01*
X151500Y153600*
X159500*
X151500Y145600*
X150700Y160900D02*
X158700D01*
X150700Y168900*
X158700*
X150700Y160900*
X147400Y166600D02*
X155400D01*
X147400Y174600*
X155400*
X147400Y166600*
X146100Y175200D02*
X154100D01*
X146100Y183200*
X154100*
X146100Y175200*
X76000Y236000D02*
X84000D01*
X76000Y244000*
X84000*
X76000Y236000*
X126000D02*
X134000D01*
X126000Y244000*
X134000*
X126000Y236000*
X176000D02*
X184000D01*
X176000Y244000*
X184000*
X176000Y236000*
X176200Y189400D02*
X184200D01*
X176200Y197400*
X184200*
X176200Y189400*
X170500Y196600D02*
X178500D01*
X170500Y204600*
X178500*
X170500Y196600*
X65300Y47000D02*
X205000D01*
Y253000*
X65300*
Y47000*
X202299Y242000D02*
G75*
G03X202299I-6299J0D01*
G01Y58000D02*
G03X202299I-6299J0D01*
G01X80981Y190057D02*
G03X80981I-5956J0D01*
G01X81028Y109778D02*
G03X81028I-6154J0D01*
G01X100000Y294000D02*
X358000D01*
X100000Y270000D02*
X358000D01*
X100000Y246000D02*
X358000D01*
X100000Y222000D02*
X358000D01*
X100000Y198000D02*
X358000D01*
X100000Y174000D02*
X358000D01*
X100000Y150000D02*
X358000D01*
X100000Y294000D02*
Y150000D01*
X184000Y294000D02*
Y150000D01*
X220000Y294000D02*
Y150000D01*
X256000Y294000D02*
Y150000D01*
X310000Y294000D02*
Y150000D01*
X358000Y294000D02*
Y150000D01*
X135500Y282750D02*
X134955Y283500D01*
X134136Y283875*
X133045*
X132227Y283500*
X131682Y282750*
Y282000*
X131955Y281250*
X132227Y280875*
X132773Y280500*
X134409Y279750*
X134955Y279375*
X135227Y279000*
X135500Y278250*
Y277125*
X134955Y276375*
X134136Y276000*
X133045*
X132227Y276375*
X131682Y277125*
X137955Y283875D02*
Y276000D01*
X144227Y283875D02*
X140409Y276000D01*
Y283875D02*
X144227D01*
X140409Y276000D02*
X144227D01*
X146682Y283875D02*
Y276000D01*
Y283875D02*
X150227D01*
X146682Y280125D02*
X148864D01*
X146682Y276000D02*
X150227D01*
X193864Y283875D02*
X193318Y283500D01*
X192773Y282750*
X192500Y282000*
X192227Y280875*
Y279000*
X192500Y277875*
X192773Y277125*
X193318Y276375*
X193864Y276000*
X194955*
X195500Y276375*
X196045Y277125*
X196318Y277875*
X196591Y279000*
Y280875*
X196318Y282000*
X196045Y282750*
X195500Y283500*
X194955Y283875*
X193864*
X194682Y277500D02*
X196318Y275250D01*
X200955Y283875D02*
Y276000D01*
X199045Y283875D02*
X202864D01*
X205318D02*
X207500Y280125D01*
Y276000*
X209682Y283875D02*
X207500Y280125D01*
X232045Y282750D02*
X231500Y283500D01*
X230682Y283875*
X229591*
X228773Y283500*
X228227Y282750*
Y282000*
X228500Y281250*
X228773Y280875*
X229318Y280500*
X230955Y279750*
X231500Y279375*
X231773Y279000*
X232045Y278250*
Y277125*
X231500Y276375*
X230682Y276000*
X229591*
X228773Y276375*
X228227Y277125*
X234500Y283875D02*
X236682Y280125D01*
Y276000*
X238864Y283875D02*
X236682Y280125D01*
X241318Y283875D02*
Y276000D01*
Y283875D02*
X243500Y276000D01*
X245682Y283875D02*
X243500Y276000D01*
X245682Y283875D02*
Y276000D01*
X267500Y283875D02*
Y276000D01*
Y283875D02*
X269955D01*
X270773Y283500*
X271045Y283125*
X271318Y282375*
Y281250*
X271045Y280500*
X270773Y280125*
X269955Y279750*
X267500*
X273773Y283875D02*
Y276000D01*
X277045*
X281682Y283875D02*
X279500Y276000D01*
X281682Y283875D02*
X283864Y276000D01*
X280318Y278625D02*
X283045D01*
X288227Y283875D02*
Y276000D01*
X286318Y283875D02*
X290136D01*
X292591D02*
Y276000D01*
Y283875D02*
X296136D01*
X292591Y280125D02*
X294773D01*
X292591Y276000D02*
X296136D01*
X298591Y283875D02*
Y276000D01*
Y283875D02*
X300500D01*
X301318Y283500*
X301864Y282750*
X302136Y282000*
X302409Y280875*
Y279000*
X302136Y277875*
X301864Y277125*
X301318Y276375*
X300500Y276000*
X298591*
X326682Y283875D02*
Y276000D01*
X324773Y283875D02*
X328591D01*
X332682D02*
X332136Y283500D01*
X331591Y282750*
X331318Y282000*
X331045Y280875*
Y279000*
X331318Y277875*
X331591Y277125*
X332136Y276375*
X332682Y276000*
X333773*
X334318Y276375*
X334864Y277125*
X335136Y277875*
X335409Y279000*
Y280875*
X335136Y282000*
X334864Y282750*
X334318Y283500*
X333773Y283875*
X332682*
X337864D02*
Y276000D01*
X341136*
X106545Y259875D02*
X109545D01*
X107909Y256875*
X108727*
X109273Y256500*
X109545Y256125*
X109818Y255000*
Y254250*
X109545Y253125*
X109000Y252375*
X108182Y252000*
X107364*
X106545Y252375*
X106273Y252750*
X106000Y253500*
X115818Y257250D02*
X115545Y256125D01*
X115000Y255375*
X114182Y255000*
X113909*
X113091Y255375*
X112545Y256125*
X112273Y257250*
Y257625*
X112545Y258750*
X113091Y259500*
X113909Y259875*
X114182*
X115000Y259500*
X115545Y258750*
X115818Y257250*
Y255375*
X115545Y253500*
X115000Y252375*
X114182Y252000*
X113636*
X112818Y252375*
X112545Y253125*
X118545Y252750D02*
X118273Y252375D01*
X118545Y252000*
X118818Y252375*
X118545Y252750*
X121818Y259875D02*
X124818D01*
X123182Y256875*
X124000*
X124545Y256500*
X124818Y256125*
X125091Y255000*
Y254250*
X124818Y253125*
X124273Y252375*
X123455Y252000*
X122636*
X121818Y252375*
X121545Y252750*
X121273Y253500*
X131364Y259875D02*
X128636Y252000D01*
X127545Y259875D02*
X131364D01*
X197136Y258375D02*
X197682Y258750D01*
X198500Y259875*
Y252000*
X202591Y259875D02*
X201773Y259500D01*
X201227Y258375*
X200955Y256500*
Y255375*
X201227Y253500*
X201773Y252375*
X202591Y252000*
X203136*
X203955Y252375*
X204500Y253500*
X204773Y255375*
Y256500*
X204500Y258375*
X203955Y259500*
X203136Y259875*
X202591*
X232000Y258000D02*
X244000D01*
X238000Y252000D02*
Y264000D01*
X264636Y259875D02*
X266818Y256125D01*
Y252000*
X269000Y259875D02*
X266818Y256125D01*
X271455Y259875D02*
Y252000D01*
Y259875D02*
X275000D01*
X271455Y256125D02*
X273636D01*
X271455Y252000D02*
X275000D01*
X281273Y258750D02*
X280727Y259500D01*
X279909Y259875*
X278818*
X278000Y259500*
X277455Y258750*
Y258000*
X277727Y257250*
X278000Y256875*
X278545Y256500*
X280182Y255750*
X280727Y255375*
X281000Y255000*
X281273Y254250*
Y253125*
X280727Y252375*
X279909Y252000*
X278818*
X278000Y252375*
X277455Y253125*
X317818Y258750D02*
Y252000D01*
X315364Y255375D02*
X320273D01*
X327636Y261375D02*
X322727Y249375D01*
X330091Y255375D02*
X335000D01*
X339091Y259875D02*
X338273Y259500D01*
X337727Y258375*
X337455Y256500*
Y255375*
X337727Y253500*
X338273Y252375*
X339091Y252000*
X339636*
X340455Y252375*
X341000Y253500*
X341273Y255375*
Y256500*
X341000Y258375*
X340455Y259500*
X339636Y259875*
X339091*
X344000Y252750D02*
X343727Y252375D01*
X344000Y252000*
X344273Y252375*
X344000Y252750*
X348364Y259875D02*
X347545Y259500D01*
X347000Y258375*
X346727Y256500*
Y255375*
X347000Y253500*
X347545Y252375*
X348364Y252000*
X348909*
X349727Y252375*
X350273Y253500*
X350545Y255375*
Y256500*
X350273Y258375*
X349727Y259500*
X348909Y259875*
X348364*
X106545Y235875D02*
X109545D01*
X107909Y232875*
X108727*
X109273Y232500*
X109545Y232125*
X109818Y231000*
Y230250*
X109545Y229125*
X109000Y228375*
X108182Y228000*
X107364*
X106545Y228375*
X106273Y228750*
X106000Y229500*
X115818Y235875D02*
X113091D01*
X112818Y232500*
X113091Y232875*
X113909Y233250*
X114727*
X115545Y232875*
X116091Y232125*
X116364Y231000*
X116091Y230250*
X115818Y229125*
X115273Y228375*
X114455Y228000*
X113636*
X112818Y228375*
X112545Y228750*
X112273Y229500*
X202455Y234750D02*
X202182Y235500D01*
X201364Y235875*
X200818*
X200000Y235500*
X199455Y234375*
X199182Y232500*
Y230625*
X199455Y229125*
X200000Y228375*
X200818Y228000*
X201091*
X201909Y228375*
X202455Y229125*
X202727Y230250*
Y230625*
X202455Y231750*
X201909Y232500*
X201091Y232875*
X200818*
X200000Y232500*
X199455Y231750*
X199182Y230625*
X232000Y228000D02*
X244000Y240000D01*
X232000D02*
X244000Y228000D01*
X264636Y235875D02*
X266818Y232125D01*
Y228000*
X269000Y235875D02*
X266818Y232125D01*
X271455Y235875D02*
Y228000D01*
Y235875D02*
X275000D01*
X271455Y232125D02*
X273636D01*
X271455Y228000D02*
X275000D01*
X281273Y234750D02*
X280727Y235500D01*
X279909Y235875*
X278818*
X278000Y235500*
X277455Y234750*
Y234000*
X277727Y233250*
X278000Y232875*
X278545Y232500*
X280182Y231750*
X280727Y231375*
X281000Y231000*
X281273Y230250*
Y229125*
X280727Y228375*
X279909Y228000*
X278818*
X278000Y228375*
X277455Y229125*
X317818Y234750D02*
Y228000D01*
X315364Y231375D02*
X320273D01*
X327636Y237375D02*
X322727Y225375D01*
X330091Y231375D02*
X335000D01*
X339091Y235875D02*
X338273Y235500D01*
X337727Y234375*
X337455Y232500*
Y231375*
X337727Y229500*
X338273Y228375*
X339091Y228000*
X339636*
X340455Y228375*
X341000Y229500*
X341273Y231375*
Y232500*
X341000Y234375*
X340455Y235500*
X339636Y235875*
X339091*
X344000Y228750D02*
X343727Y228375D01*
X344000Y228000*
X344273Y228375*
X344000Y228750*
X348364Y235875D02*
X347545Y235500D01*
X347000Y234375*
X346727Y232500*
Y231375*
X347000Y229500*
X347545Y228375*
X348364Y228000*
X348909*
X349727Y228375*
X350273Y229500*
X350545Y231375*
Y232500*
X350273Y234375*
X349727Y235500*
X348909Y235875*
X348364*
X108727Y211875D02*
X106000Y206625D01*
X110091*
X108727Y211875D02*
Y204000D01*
X116364Y211875D02*
X113636Y204000D01*
X112545Y211875D02*
X116364D01*
X119091Y204750D02*
X118818Y204375D01*
X119091Y204000*
X119364Y204375*
X119091Y204750*
X122091Y210000D02*
Y210375D01*
X122364Y211125*
X122636Y211500*
X123182Y211875*
X124273*
X124818Y211500*
X125091Y211125*
X125364Y210375*
Y209625*
X125091Y208875*
X124545Y207750*
X121818Y204000*
X125636*
X130818Y211875D02*
X128091Y206625D01*
X132182*
X130818Y211875D02*
Y204000D01*
X197273Y210375D02*
X197818Y210750D01*
X198636Y211875*
Y204000*
X204364Y210750D02*
X204091Y211500D01*
X203273Y211875*
X202727*
X201909Y211500*
X201364Y210375*
X201091Y208500*
Y206625*
X201364Y205125*
X201909Y204375*
X202727Y204000*
X203000*
X203818Y204375*
X204364Y205125*
X204636Y206250*
Y206625*
X204364Y207750*
X203818Y208500*
X203000Y208875*
X202727*
X201909Y208500*
X201364Y207750*
X201091Y206625*
X232000Y204000D02*
X244000D01*
Y216000*
X232000*
Y204000*
X238000Y210000D02*
Y216000D01*
X267636Y211875D02*
Y204000D01*
Y211875D02*
X271455Y204000D01*
Y211875D02*
Y204000D01*
X275545Y211875D02*
X275000Y211500D01*
X274455Y210750*
X274182Y210000*
X273909Y208875*
Y207000*
X274182Y205875*
X274455Y205125*
X275000Y204375*
X275545Y204000*
X276636*
X277182Y204375*
X277727Y205125*
X278000Y205875*
X278273Y207000*
Y208875*
X278000Y210000*
X277727Y210750*
X277182Y211500*
X276636Y211875*
X275545*
X317818Y210750D02*
Y204000D01*
X315364Y207375D02*
X320273D01*
X327636Y213375D02*
X322727Y201375D01*
X330091Y207375D02*
X335000D01*
X339091Y211875D02*
X338273Y211500D01*
X337727Y210375*
X337455Y208500*
Y207375*
X337727Y205500*
X338273Y204375*
X339091Y204000*
X339636*
X340455Y204375*
X341000Y205500*
X341273Y207375*
Y208500*
X341000Y210375*
X340455Y211500*
X339636Y211875*
X339091*
X344000Y204750D02*
X343727Y204375D01*
X344000Y204000*
X344273Y204375*
X344000Y204750*
X348364Y211875D02*
X347545Y211500D01*
X347000Y210375*
X346727Y208500*
Y207375*
X347000Y205500*
X347545Y204375*
X348364Y204000*
X348909*
X349727Y204375*
X350273Y205500*
X350545Y207375*
Y208500*
X350273Y210375*
X349727Y211500*
X348909Y211875*
X348364*
X106545Y187875D02*
X109545D01*
X107909Y184875*
X108727*
X109273Y184500*
X109545Y184125*
X109818Y183000*
Y182250*
X109545Y181125*
X109000Y180375*
X108182Y180000*
X107364*
X106545Y180375*
X106273Y180750*
X106000Y181500*
X115818Y185250D02*
X115545Y184125D01*
X115000Y183375*
X114182Y183000*
X113909*
X113091Y183375*
X112545Y184125*
X112273Y185250*
Y185625*
X112545Y186750*
X113091Y187500*
X113909Y187875*
X114182*
X115000Y187500*
X115545Y186750*
X115818Y185250*
Y183375*
X115545Y181500*
X115000Y180375*
X114182Y180000*
X113636*
X112818Y180375*
X112545Y181125*
X118545Y180750D02*
X118273Y180375D01*
X118545Y180000*
X118818Y180375*
X118545Y180750*
X121818Y187875D02*
X124818D01*
X123182Y184875*
X124000*
X124545Y184500*
X124818Y184125*
X125091Y183000*
Y182250*
X124818Y181125*
X124273Y180375*
X123455Y180000*
X122636*
X121818Y180375*
X121545Y180750*
X121273Y181500*
X131364Y187875D02*
X128636Y180000D01*
X127545Y187875D02*
X131364D01*
X199318Y186000D02*
Y186375D01*
X199591Y187125*
X199864Y187500*
X200409Y187875*
X201500*
X202045Y187500*
X202318Y187125*
X202591Y186375*
Y185625*
X202318Y184875*
X201773Y183750*
X199045Y180000*
X202864*
X238000D02*
X244000Y186000D01*
X238000Y192000*
X232000Y186000*
X238000Y180000*
Y186000D02*
Y192000D01*
X267636Y187875D02*
Y180000D01*
Y187875D02*
X271455Y180000D01*
Y187875D02*
Y180000D01*
X275545Y187875D02*
X275000Y187500D01*
X274455Y186750*
X274182Y186000*
X273909Y184875*
Y183000*
X274182Y181875*
X274455Y181125*
X275000Y180375*
X275545Y180000*
X276636*
X277182Y180375*
X277727Y181125*
X278000Y181875*
X278273Y183000*
Y184875*
X278000Y186000*
X277727Y186750*
X277182Y187500*
X276636Y187875*
X275545*
X317818Y186750D02*
Y180000D01*
X315364Y183375D02*
X320273D01*
X327636Y189375D02*
X322727Y177375D01*
X330091Y183375D02*
X335000D01*
X339091Y187875D02*
X338273Y187500D01*
X337727Y186375*
X337455Y184500*
Y183375*
X337727Y181500*
X338273Y180375*
X339091Y180000*
X339636*
X340455Y180375*
X341000Y181500*
X341273Y183375*
Y184500*
X341000Y186375*
X340455Y187500*
X339636Y187875*
X339091*
X344000Y180750D02*
X343727Y180375D01*
X344000Y180000*
X344273Y180375*
X344000Y180750*
X348364Y187875D02*
X347545Y187500D01*
X347000Y186375*
X346727Y184500*
Y183375*
X347000Y181500*
X347545Y180375*
X348364Y180000*
X348909*
X349727Y180375*
X350273Y181500*
X350545Y183375*
Y184500*
X350273Y186375*
X349727Y187500*
X348909Y187875*
X348364*
X106000Y162375D02*
X106545Y162750D01*
X107364Y163875*
Y156000*
X113364Y163875D02*
X110636D01*
X110364Y160500*
X110636Y160875*
X111455Y161250*
X112273*
X113091Y160875*
X113636Y160125*
X113909Y159000*
X113636Y158250*
X113364Y157125*
X112818Y156375*
X112000Y156000*
X111182*
X110364Y156375*
X110091Y156750*
X109818Y157500*
X116636Y156750D02*
X116364Y156375D01*
X116636Y156000*
X116909Y156375*
X116636Y156750*
X123182Y163875D02*
X120455Y156000D01*
X119364Y163875D02*
X123182D01*
X129182D02*
X126455D01*
X126182Y160500*
X126455Y160875*
X127273Y161250*
X128091*
X128909Y160875*
X129455Y160125*
X129727Y159000*
X129455Y158250*
X129182Y157125*
X128636Y156375*
X127818Y156000*
X127000*
X126182Y156375*
X125909Y156750*
X125636Y157500*
X198364Y163875D02*
X195636Y158625D01*
X199727*
X198364Y163875D02*
Y156000D01*
X204909Y163875D02*
X202182Y158625D01*
X206273*
X204909Y163875D02*
Y156000D01*
X232000D02*
X244000D01*
X232000Y168000*
X244000*
X232000Y156000*
X264636Y163875D02*
X266818Y160125D01*
Y156000*
X269000Y163875D02*
X266818Y160125D01*
X271455Y163875D02*
Y156000D01*
Y163875D02*
X275000D01*
X271455Y160125D02*
X273636D01*
X271455Y156000D02*
X275000D01*
X281273Y162750D02*
X280727Y163500D01*
X279909Y163875*
X278818*
X278000Y163500*
X277455Y162750*
Y162000*
X277727Y161250*
X278000Y160875*
X278545Y160500*
X280182Y159750*
X280727Y159375*
X281000Y159000*
X281273Y158250*
Y157125*
X280727Y156375*
X279909Y156000*
X278818*
X278000Y156375*
X277455Y157125*
X317818Y162750D02*
Y156000D01*
X315364Y159375D02*
X320273D01*
X327636Y165375D02*
X322727Y153375D01*
X330091Y159375D02*
X335000D01*
X339091Y163875D02*
X338273Y163500D01*
X337727Y162375*
X337455Y160500*
Y159375*
X337727Y157500*
X338273Y156375*
X339091Y156000*
X339636*
X340455Y156375*
X341000Y157500*
X341273Y159375*
Y160500*
X341000Y162375*
X340455Y163500*
X339636Y163875*
X339091*
X344000Y156750D02*
X343727Y156375D01*
X344000Y156000*
X344273Y156375*
X344000Y156750*
X348364Y163875D02*
X347545Y163500D01*
X347000Y162375*
X346727Y160500*
Y159375*
X347000Y157500*
X347545Y156375*
X348364Y156000*
X348909*
X349727Y156375*
X350273Y157500*
X350545Y159375*
Y160500*
X350273Y162375*
X349727Y163500*
X348909Y163875*
X348364*
G74*
X0Y0D02*
M02*
