M48
;FILE_FORMAT=2:4
INCH,LZ
FMAT,2
ICI,OFF
;TYPE=PLATED
T1C.01575
T2C.035
T3C.03937
;TYPE=NON_PLATED
T4C.03937
T5C.04724
%
M72
G90
G93X0Y0
T1C.01575F095S3
X008Y006
X01005Y00715
X0108Y00691
X013Y006
X018Y006
X0192Y00691
X01903Y01054
X01728Y01044
X01681Y01032
X01644Y01128
X01595Y01102
X01308Y01181
X01149Y01231
X01127Y01116
X0108Y01582
X01181Y01466
X01184Y0154
X01184Y01582
X01298Y01504
X01357Y01535
X0136Y01599
X01393Y01571
X01402Y0153
X01516Y01563
X0152Y01431
X01555Y01496
X01644Y01572
X01704Y016
X01589Y01659
X01547Y01649
X01531Y01607
X01514Y01706
X01501Y01792
X01402Y01683
X01363Y01663
X01355Y01705
X01334Y01633
X01127Y01638
X0152Y01891
X01745Y02006
X01802Y01934
X018Y024
X013Y024
X008Y024
T2C.035F197S55
X018Y0075
X018Y0085
X018Y0095
X018Y0205
X018Y0215
X018Y0225
T3C.03937F197S55
X0085Y013
X0095Y013
X0095Y015
X0095Y014
X0095Y017
X0095Y016
X0085Y014
X0085Y015
X0085Y016
X0085Y017
T4C.03937F197S55
X01259Y010366
X01459Y010366
T5C.04724F139S55
X0175Y0125
X0175Y0115
X0185Y0125
X0185Y0115
X0185Y0155
X0185Y0145
X0185Y0135
X0175Y0135
X0175Y0145
X0175Y0155
X0175Y0175
X0175Y0165
X0175Y0185
X0185Y0175
X0185Y0165
X0185Y0185
M30
