*
*
G04 PADS VX.2.4 Build Number: 11282995 generated Gerber (RS-274-X) file*
G04 PC Version=2.1*
*
%IN "ICE + WriterV1.02-3.pcb"*%
*
%MOIN*%
*
%FSLAX35Y35*%
*
*
*
*
G04 PC Standard Apertures*
*
*
G04 Thermal Relief Aperture macro.*
%AMTER*
1,1,$1,0,0*
1,0,$1-$2,0,0*
21,0,$3,$4,0,0,45*
21,0,$3,$4,0,0,135*
%
*
*
G04 Annular Aperture macro.*
%AMANN*
1,1,$1,0,0*
1,0,$2,0,0*
%
*
*
G04 Odd Aperture macro.*
%AMODD*
1,1,$1,0,0*
1,0,$1-0.005,0,0*
%
*
*
G04 PC Custom Aperture Macros*
*
*
*
*
*
*
G04 PC Aperture Table*
*
%ADD010C,0.001*%
%ADD023C,0.01*%
%ADD024C,0.00787*%
*
*
*
*
G04 PC Circuitry*
G04 Layer Name ICE + WriterV1.02-3.pcb - circuitry*
%LPD*%
*
G54D10*
G01X95095Y96292D02*
X94547D01*
X94497Y96342*
Y98685*
X94218*
X93414Y98243*
X93501Y98041*
X94092Y98435*
X94170Y98393*
Y96342*
X94120Y96292*
X93486*
Y96050*
X95095*
Y96292*
X92745Y98685D02*
X92460D01*
Y96470*
X92364Y96452*
X92108Y97092*
X91437Y98685*
X91007*
Y96050*
X91292*
Y98265*
X91389Y98283*
X91602Y97728*
X92315Y96050*
X92745*
Y98685*
X90523Y97366D02*
X90481Y97952D01*
X90275Y98364*
X89992Y98646*
X89794Y98686*
X89548Y98727*
X89141Y98646*
X89141D02*
X88816Y98402D01*
X88695Y98201*
X88613Y97954*
X88571Y97702*
X88529Y97366*
X88571Y96779*
X88652Y96536*
X88899Y96207*
X89059Y96087*
X89257Y96007*
X89708*
X89911Y96088*
X90073Y96169*
X90234Y96330*
X90357Y96535*
X90440Y96743*
X90523Y97033*
Y97366*
X90238Y97368D02*
Y97363D01*
X90195Y96935*
X90192Y96923*
X90064Y96581*
X90052Y96563*
X89839Y96349*
X89831Y96343*
X89703Y96258*
X89675Y96249*
X89376*
X89354Y96254*
X89183Y96340*
X89166Y96353*
X88995Y96567*
X88987Y96581*
X88859Y96923*
X88856Y96935*
X88813Y97363*
Y97368*
Y97372*
X88813D02*
X88856Y97800D01*
X88859Y97812*
X88987Y98154*
X88999Y98172*
X89213Y98386*
X89232Y98398*
X89488Y98483*
X89516Y98484*
X89858Y98399*
X89885Y98382*
X90056Y98168*
X90064Y98154*
X90192Y97812*
X90195Y97800*
X90238Y97372*
X90238D02*
Y97368D01*
X88044Y98612D02*
X87785Y98686D01*
X87412Y98727*
X87163Y98686*
X86962Y98646*
X86594Y98360*
X86347Y97907*
X86306Y97659*
X86264Y97325*
X86348Y96739*
X86430Y96535*
X86551Y96333*
X86712Y96212*
X86918Y96088*
X87162Y96007*
X87407*
X87740Y96049*
X88044Y96163*
Y96394*
X87815Y96296*
X87801Y96292*
X87459Y96250*
X87447*
X87105Y96292*
X87079Y96303*
X86823Y96517*
X86810Y96533*
X86639Y96875*
X86634Y96893*
X86591Y97363*
Y97368*
X86591*
Y97372*
X86591D02*
X86634Y97800D01*
X86639Y97817*
X86810Y98159*
X86823Y98175*
X87079Y98389*
X87099Y98399*
X87441Y98484*
X87459Y98486*
X87801Y98443*
X87815Y98439*
X88044Y98341*
Y98612*
X86300Y97074D02*
Y97612D01*
X86400Y96609D02*
Y98004D01*
X86500Y96418D02*
Y98187D01*
X86600Y96296D02*
Y97267D01*
Y97460D02*
Y98364D01*
X86700Y96221D02*
Y96753D01*
Y97939D02*
Y98442D01*
X86800Y96160D02*
Y96553D01*
Y98139D02*
Y98520D01*
X86900Y96100D02*
Y96453D01*
Y98240D02*
Y98598D01*
X87000Y96061D02*
Y96369D01*
Y98323D02*
Y98653D01*
X87100Y96028D02*
Y96293D01*
Y98399D02*
Y98673D01*
X87200Y96007D02*
Y96280D01*
Y98424D02*
Y98692D01*
X87300Y96007D02*
Y96268D01*
Y98449D02*
Y98709D01*
X87400Y96007D02*
Y96255D01*
Y98474D02*
Y98725D01*
X87500Y96019D02*
Y96255D01*
Y98480D02*
Y98717D01*
X87600Y96031D02*
Y96267D01*
Y98468D02*
Y98706D01*
X87700Y96044D02*
Y96280D01*
Y98455D02*
Y98695D01*
X87800Y96071D02*
Y96292D01*
Y98443D02*
Y98682D01*
X87900Y96109D02*
Y96333D01*
Y98403D02*
Y98653D01*
X88000Y96146D02*
Y96375D01*
Y98360D02*
Y98624D01*
X88600Y96691D02*
Y97877D01*
X88700Y96472D02*
Y98209D01*
X88800Y96339D02*
Y98376D01*
X88900Y96206D02*
Y96814D01*
Y97921D02*
Y98465D01*
X89000Y96131D02*
Y96561D01*
Y98173D02*
Y98540D01*
X89100Y96070D02*
Y96436D01*
Y98273D02*
Y98615D01*
X89200Y96030D02*
Y96331D01*
Y98373D02*
Y98657D01*
X89300Y96007D02*
Y96281D01*
Y98421D02*
Y98677D01*
X89400Y96007D02*
Y96249D01*
Y98454D02*
Y98697D01*
X89500Y96007D02*
Y96249D01*
Y98486D02*
Y98717D01*
X89600Y96007D02*
Y96249D01*
Y98464D02*
Y98718D01*
X89700Y96007D02*
Y96256D01*
Y98439D02*
Y98702D01*
X89800Y96044D02*
Y96322D01*
Y98414D02*
Y98685D01*
X89900Y96084D02*
Y96410D01*
Y98363D02*
Y98665D01*
X90000Y96133D02*
Y96510D01*
Y98238D02*
Y98639D01*
X90100Y96196D02*
Y96677D01*
Y98058D02*
Y98539D01*
X90200Y96296D02*
Y96985D01*
Y97750D02*
Y98439D01*
X90300Y96440D02*
Y98314D01*
X90400Y96643D02*
Y98114D01*
X90500Y96953D02*
Y97683D01*
X91100Y96050D02*
Y98685D01*
X91200Y96050D02*
Y98685D01*
X91300Y98292D02*
Y98685D01*
X91400Y98253D02*
Y98685D01*
X91500Y97993D02*
Y98535D01*
X91600Y97733D02*
Y98298D01*
X91700Y97497D02*
Y98060D01*
X91800Y97262D02*
Y97823D01*
X91900Y97027D02*
Y97585D01*
X92000Y96791D02*
Y97348D01*
X92100Y96556D02*
Y97110D01*
X92200Y96321D02*
Y96861D01*
X92300Y96086D02*
Y96611D01*
X92400Y96050D02*
Y96421D01*
X92500Y96050D02*
Y98685D01*
X92600Y96050D02*
Y98685D01*
X92700Y96050D02*
Y98685D01*
X93500Y96050D02*
Y96292D01*
Y98043D02*
Y98290D01*
X93600Y96050D02*
Y96292D01*
Y98107D02*
Y98345D01*
X93700Y96050D02*
Y96292D01*
Y98173D02*
Y98400D01*
X93800Y96050D02*
Y96292D01*
Y98240D02*
Y98455D01*
X93900Y96050D02*
Y96292D01*
Y98307D02*
Y98510D01*
X94000Y96050D02*
Y96292D01*
Y98373D02*
Y98565D01*
X94100Y96050D02*
Y96292D01*
Y98439D02*
Y98620D01*
X94200Y96050D02*
Y98675D01*
X94300Y96050D02*
Y98685D01*
X94400Y96050D02*
Y98685D01*
X94500Y96050D02*
Y96325D01*
X94600Y96050D02*
Y96292D01*
X94700Y96050D02*
Y96292D01*
X94800Y96050D02*
Y96292D01*
X94900Y96050D02*
Y96292D01*
X95000Y96050D02*
Y96292D01*
*
G04 PC Custom Flashes*
G04 Layer Name ICE + WriterV1.02-3.pcb - flashes*
%LPD*%
*
*
G04 PC Circuitry*
G04 Layer Name ICE + WriterV1.02-3.pcb - circuitry*
%LPD*%
*
G54D10*
G54D23*
X65300Y47000D02*
X205000D01*
Y253000*
X65300*
Y47000*
X202299Y242000D02*
G75*
G03X202299I-6299J0D01*
G01Y58000D02*
G03X202299I-6299J0D01*
G01X80981Y190057D02*
G03X80981I-5956J0D01*
G01X81028Y109778D02*
G03X81028I-6154J0D01*
G54D24*
G01X95000Y201024D02*
X63740D01*
Y98976*
X95000*
Y201024*
X91969Y150000D02*
X90000D01*
Y151969*
Y148031D02*
Y150000D01*
X88031*
X80512Y110000D02*
G03X80512I-5512J0D01*
G01Y190000D02*
G03X80512I-5512J0D01*
G74*
G01X0Y0D02*
M02*
