*
*
G04 PADS VX.2.4 Build Number: 11282995 generated Gerber (RS-274-X) file*
G04 PC Version=2.1*
*
%IN "WriterTranBo(Empty).pcb"*%
*
%MOIN*%
*
%FSLAX35Y35*%
*
*
*
*
G04 PC Standard Apertures*
*
*
G04 Thermal Relief Aperture macro.*
%AMTER*
1,1,$1,0,0*
1,0,$1-$2,0,0*
21,0,$3,$4,0,0,45*
21,0,$3,$4,0,0,135*
%
*
*
G04 Annular Aperture macro.*
%AMANN*
1,1,$1,0,0*
1,0,$2,0,0*
%
*
*
G04 Odd Aperture macro.*
%AMODD*
1,1,$1,0,0*
1,0,$1-0.005,0,0*
%
*
*
G04 PC Custom Aperture Macros*
*
*
*
*
*
*
G04 PC Aperture Table*
*
%ADD010C,0.001*%
%ADD011C,0.07874*%
%ADD012R,0.07874X0.07874*%
%ADD019R,0.06X0.05*%
%ADD022C,0.02*%
%ADD035R,0.07087X0.07087*%
%ADD036C,0.07087*%
%ADD052C,0.015*%
%ADD079C,0.03*%
%ADD083R,0.08661X0.07874*%
%ADD084C,0.0315*%
*
*
*
*
G04 PC Circuitry*
G04 Layer Name WriterTranBo(Empty).pcb - circuitry*
%LPD*%
*
*
G04 PC Custom Flashes*
G04 Layer Name WriterTranBo(Empty).pcb - flashes*
%LPD*%
*
*
G04 PC Circuitry*
G04 Layer Name WriterTranBo(Empty).pcb - circuitry*
%LPD*%
*
G54D10*
G54D11*
G01X240000Y285000D03*
Y275000D03*
Y265000D03*
Y255000D03*
Y245000D03*
Y235000D03*
Y225000D03*
Y215000D03*
Y205000D03*
Y195000D03*
Y185000D03*
Y175000D03*
Y165000D03*
Y155000D03*
Y145000D03*
Y135000D03*
Y125000D03*
Y115000D03*
Y105000D03*
X300000D03*
Y115000D03*
Y125000D03*
Y135000D03*
Y145000D03*
Y155000D03*
Y165000D03*
Y175000D03*
Y185000D03*
Y195000D03*
Y205000D03*
Y215000D03*
Y225000D03*
Y235000D03*
Y245000D03*
Y255000D03*
Y265000D03*
Y275000D03*
Y285000D03*
Y295000D03*
G54D12*
X240000D03*
G54D19*
X204500Y310000D03*
X195500D03*
G54D22*
X130000Y210000D02*
X136000D01*
X138000Y208000*
X152000*
X130000Y200000D02*
X137000D01*
X138000Y199000*
X147000*
X300000Y285000D02*
X325000D01*
X292000Y301000D02*
Y292000D01*
X306000*
Y301000*
X292000*
X113000Y86000D02*
Y75000D01*
X155000*
Y86000*
X113000*
X135000Y226000D02*
Y217000D01*
X126000*
Y226000*
X135000*
X197753Y312992D02*
Y289423D01*
X187680*
Y313505*
X197696*
Y312992*
X197753*
X292000Y300999D02*
X306000D01*
X292000Y299199D02*
X306000D01*
X292000Y297399D02*
X306000D01*
X292000Y295599D02*
X306000D01*
X292000Y293799D02*
X306000D01*
X113000Y85799D02*
X155000D01*
X113000Y83999D02*
X155000D01*
X113000Y82199D02*
X155000D01*
X113000Y80399D02*
X155000D01*
X113000Y78599D02*
X155000D01*
X113000Y76799D02*
X155000D01*
X126000Y225999D02*
X135000D01*
X126000Y224199D02*
X135000D01*
X126000Y222399D02*
X135000D01*
X126000Y220599D02*
X135000D01*
X126000Y218799D02*
X135000D01*
X187680Y312822D02*
X197753D01*
X187680Y311022D02*
X197753D01*
X187680Y309222D02*
X197753D01*
X187680Y307422D02*
X197753D01*
X187680Y305622D02*
X197753D01*
X187680Y303822D02*
X197753D01*
X187680Y302022D02*
X197753D01*
X187680Y300222D02*
X197753D01*
X187680Y298422D02*
X197753D01*
X187680Y296622D02*
X197753D01*
X187680Y294822D02*
X197753D01*
X187680Y293022D02*
X197753D01*
X187680Y291222D02*
X197753D01*
X313575Y80000D02*
G75*
G03X313575I-3575J0D01*
G01X263575D02*
G03X263575I-3575J0D01*
G01Y140000D02*
G03X263575I-3575J0D01*
G01Y180000D02*
G03X263575I-3575J0D01*
G01Y230000D02*
G03X263575I-3575J0D01*
G01Y280000D02*
G03X263575I-3575J0D01*
G01Y300000D02*
G03X263575I-3575J0D01*
G01X213575Y80000D02*
G03X213575I-3575J0D01*
G01Y140000D02*
G03X213575I-3575J0D01*
G01Y180000D02*
G03X213575I-3575J0D01*
G01X123575Y280000D02*
G03X123575I-3575J0D01*
G01Y300000D02*
G03X123575I-3575J0D01*
G01X163575Y230000D02*
G03X163575I-3575J0D01*
G01Y280000D02*
G03X163575I-3575J0D01*
G01Y300000D02*
G03X163575I-3575J0D01*
G01Y140000D02*
G03X163575I-3575J0D01*
G01X328000Y327000D02*
G03X327000Y328000I-1000J-0D01*
G01X103000*
G03X102000Y327000I0J-1000*
G01Y244860*
G03X103821Y244290I1000J0*
G01Y235710D02*
G03Y244290I6179J4290D01*
G01Y235710D02*
G03X102000Y235140I-821J-570D01*
G01Y164461*
G03X103847Y163929I1000J0*
G01Y156071D02*
G03Y163929I6253J3929D01*
G01Y156071D02*
G03X102000Y155539I-847J-532D01*
G01Y73000*
G03X103000Y72000I1000J0*
G01X327000*
G03X328000Y73000I-0J1000*
G01Y280885*
G03X326563Y281785I-1000J0*
G01X323265Y281874D02*
G03X326563Y281785I1735J3126D01*
G01X323265Y281874D02*
G03X322779Y282000I-486J-874D01*
G01X305668*
G03X304851Y281577I-0J-1000*
G01X304115Y280721D02*
G03X304851Y281577I-4115J4279D01*
G01X304115Y280721D02*
G03Y279279I694J-721D01*
G01Y270721D02*
G03Y279279I-4115J4279D01*
G01Y270721D02*
G03Y269279I694J-721D01*
G01Y260721D02*
G03Y269279I-4115J4279D01*
G01Y260721D02*
G03Y259279I694J-721D01*
G01Y250721D02*
G03Y259279I-4115J4279D01*
G01Y250721D02*
G03Y249279I694J-721D01*
G01Y240721D02*
G03Y249279I-4115J4279D01*
G01Y240721D02*
G03Y239279I694J-721D01*
G01X305937Y235000D02*
G03X304115Y239279I-5937J0D01*
G01X305937Y235000D02*
X305937D01*
X305723Y233421D02*
G03X305937Y235000I-5723J1579D01*
G01X305723Y233421D02*
G03X307411Y232466I964J-266D01*
G01Y227534D02*
G03Y232466I2589J2466D01*
G01Y227534D02*
G03X305723Y226579I-724J-689D01*
G01X305937Y225000D02*
G03X305723Y226579I-5937J0D01*
G01X305937Y225000D02*
X305937D01*
X304115Y220721D02*
G03X305937Y225000I-4115J4279D01*
G01X304115Y220721D02*
G03Y219279I694J-721D01*
G01Y210721D02*
G03Y219279I-4115J4279D01*
G01Y210721D02*
G03Y209279I694J-721D01*
G01Y200721D02*
G03Y209279I-4115J4279D01*
G01Y200721D02*
G03Y199279I694J-721D01*
G01Y190721D02*
G03Y199279I-4115J4279D01*
G01Y190721D02*
G03Y189279I694J-721D01*
G01X305937Y185000D02*
G03X304115Y189279I-5937J0D01*
G01X305937Y185000D02*
X305937D01*
X305723Y183421D02*
G03X305937Y185000I-5723J1579D01*
G01X305723Y183421D02*
G03X307411Y182466I964J-266D01*
G01Y177534D02*
G03Y182466I2589J2466D01*
G01Y177534D02*
G03X305723Y176579I-724J-689D01*
G01X305937Y175000D02*
G03X305723Y176579I-5937J0D01*
G01X305937Y175000D02*
X305937D01*
X304115Y170721D02*
G03X305937Y175000I-4115J4279D01*
G01X304115Y170721D02*
G03Y169279I694J-721D01*
G01Y160721D02*
G03Y169279I-4115J4279D01*
G01Y160721D02*
G03Y159279I694J-721D01*
G01Y150721D02*
G03Y159279I-4115J4279D01*
G01Y150721D02*
G03Y149279I694J-721D01*
G01X305937Y145000D02*
G03X304115Y149279I-5937J0D01*
G01X305937Y145000D02*
X305937D01*
X305723Y143421D02*
G03X305937Y145000I-5723J1579D01*
G01X305723Y143421D02*
G03X307411Y142466I964J-266D01*
G01Y137534D02*
G03Y142466I2589J2466D01*
G01Y137534D02*
G03X305723Y136579I-724J-689D01*
G01X305937Y135000D02*
G03X305723Y136579I-5937J0D01*
G01X305937Y135000D02*
X305937D01*
X304115Y130721D02*
G03X305937Y135000I-4115J4279D01*
G01X304115Y130721D02*
G03Y129279I694J-721D01*
G01Y120721D02*
G03Y129279I-4115J4279D01*
G01Y120721D02*
G03Y119279I694J-721D01*
G01Y110721D02*
G03Y119279I-4115J4279D01*
G01Y110721D02*
G03Y109279I694J-721D01*
G01X295885D02*
G03X304115I4115J-4279D01*
G01X295885D02*
G03Y110721I-694J721D01*
G01Y119279D02*
G03Y110721I4115J-4279D01*
G01Y119279D02*
G03Y120721I-694J721D01*
G01Y129279D02*
G03Y120721I4115J-4279D01*
G01Y129279D02*
G03Y130721I-694J721D01*
G01Y139279D02*
G03Y130721I4115J-4279D01*
G01Y139279D02*
G03Y140721I-694J721D01*
G01Y149279D02*
G03Y140721I4115J-4279D01*
G01Y149279D02*
G03Y150721I-694J721D01*
G01Y159279D02*
G03Y150721I4115J-4279D01*
G01Y159279D02*
G03Y160721I-694J721D01*
G01Y169279D02*
G03Y160721I4115J-4279D01*
G01Y169279D02*
G03Y170721I-694J721D01*
G01Y179279D02*
G03Y170721I4115J-4279D01*
G01Y179279D02*
G03Y180721I-694J721D01*
G01Y189279D02*
G03Y180721I4115J-4279D01*
G01Y189279D02*
G03Y190721I-694J721D01*
G01Y199279D02*
G03Y190721I4115J-4279D01*
G01Y199279D02*
G03Y200721I-694J721D01*
G01Y209279D02*
G03Y200721I4115J-4279D01*
G01Y209279D02*
G03Y210721I-694J721D01*
G01Y219279D02*
G03Y210721I4115J-4279D01*
G01Y219279D02*
G03Y220721I-694J721D01*
G01Y229279D02*
G03Y220721I4115J-4279D01*
G01Y229279D02*
G03Y230721I-694J721D01*
G01Y239279D02*
G03Y230721I4115J-4279D01*
G01Y239279D02*
G03Y240721I-694J721D01*
G01Y249279D02*
G03Y240721I4115J-4279D01*
G01Y249279D02*
G03Y250721I-694J721D01*
G01Y259279D02*
G03Y250721I4115J-4279D01*
G01Y259279D02*
G03Y260721I-694J721D01*
G01Y269279D02*
G03Y260721I4115J-4279D01*
G01Y269279D02*
G03Y270721I-694J721D01*
G01Y279279D02*
G03Y270721I4115J-4279D01*
G01Y279279D02*
G03Y280721I-694J721D01*
G01Y289279D02*
G03Y280721I4115J-4279D01*
G01Y289279D02*
G03Y290721I-694J721D01*
G01X304115D02*
G03X295885I-4115J4279D01*
G01X304115D02*
G03Y289279I694J-721D01*
G01X304851Y288423D02*
G03X304115Y289279I-4851J-3423D01*
G01X304851Y288423D02*
G03X305668Y288000I817J577D01*
G01X322779*
G03X323265Y288126I0J1000*
G01X326563Y288215D02*
G03X323265Y288126I-1563J-3215D01*
G01X326563Y288215D02*
G03X328000Y289115I437J900D01*
G01Y327000*
X125764Y216424D02*
G03X126424Y215764I4236J3576D01*
G01X125764Y216424D02*
G03X124236I-764J-645D01*
G01X123576Y215764D02*
G03X124236Y216424I-3576J4236D01*
G01X123576Y215764D02*
G03Y214236I645J-764D01*
G01X124236Y213576D02*
G03X123576Y214236I-4236J-3576D01*
G01X124236Y213576D02*
G03X125764I764J645D01*
G01X126424Y214236D02*
G03X125764Y213576I3576J-4236D01*
G01X126424Y214236D02*
G03Y215764I-645J764D01*
G01X306488Y140757D02*
G03X304697Y141369I-1000J-0D01*
G01X304115Y140721D02*
G03X304697Y141369I-4115J4279D01*
G01X304115Y140721D02*
G03Y139279I694J-721D01*
G01X304697Y138631D02*
G03X304115Y139279I-4697J-3631D01*
G01X304697Y138631D02*
G03X306488Y139243I791J612D01*
G01X306488*
G03X306474Y139409I-1000J0*
G01Y140591D02*
G03Y139409I3526J-591D01*
G01Y140591D02*
G03X306488Y140757I-986J166D01*
G01X306488*
Y180757D02*
G03X304697Y181369I-1000J-0D01*
G01X304115Y180721D02*
G03X304697Y181369I-4115J4279D01*
G01X304115Y180721D02*
G03Y179279I694J-721D01*
G01X304697Y178631D02*
G03X304115Y179279I-4697J-3631D01*
G01X304697Y178631D02*
G03X306488Y179243I791J612D01*
G01X306488*
G03X306474Y179409I-1000J0*
G01Y180591D02*
G03Y179409I3526J-591D01*
G01Y180591D02*
G03X306488Y180757I-986J166D01*
G01X306488*
Y230757D02*
G03X304697Y231369I-1000J-0D01*
G01X304115Y230721D02*
G03X304697Y231369I-4115J4279D01*
G01X304115Y230721D02*
G03Y229279I694J-721D01*
G01X304697Y228631D02*
G03X304115Y229279I-4697J-3631D01*
G01X304697Y228631D02*
G03X306488Y229243I791J612D01*
G01X306488*
G03X306474Y229409I-1000J0*
G01Y230591D02*
G03Y229409I3526J-591D01*
G01Y230591D02*
G03X306488Y230757I-986J166D01*
G01X306488*
X313575Y80000D02*
G03X313575I-3575J0D01*
G01X263575D02*
G03X263575I-3575J0D01*
G01Y140000D02*
G03X263575I-3575J0D01*
G01Y180000D02*
G03X263575I-3575J0D01*
G01Y230000D02*
G03X263575I-3575J0D01*
G01Y280000D02*
G03X263575I-3575J0D01*
G01Y300000D02*
G03X263575I-3575J0D01*
G01X245937Y298937D02*
Y291063D01*
X245206Y289517D02*
G03X245937Y291063I-1269J1546D01*
G01X245206Y289517D02*
G03X244840Y288744I634J-773D01*
X244998Y288204I1000J-0*
G01X245937Y285000D02*
G03X244998Y288204I-5937J0D01*
G01X244115Y280721D02*
G03X245937Y285000I-4115J4279D01*
G01X244115Y280721D02*
G03Y279279I694J-721D01*
G01Y270721D02*
G03Y279279I-4115J4279D01*
G01Y270721D02*
G03Y269279I694J-721D01*
G01Y260721D02*
G03Y269279I-4115J4279D01*
G01Y260721D02*
G03Y259279I694J-721D01*
G01Y250721D02*
G03Y259279I-4115J4279D01*
G01Y250721D02*
G03Y249279I694J-721D01*
G01Y240721D02*
G03Y249279I-4115J4279D01*
G01Y240721D02*
G03Y239279I694J-721D01*
G01Y230721D02*
G03Y239279I-4115J4279D01*
G01Y230721D02*
G03Y229279I694J-721D01*
G01Y220721D02*
G03Y229279I-4115J4279D01*
G01Y220721D02*
G03Y219279I694J-721D01*
G01Y210721D02*
G03Y219279I-4115J4279D01*
G01Y210721D02*
G03Y209279I694J-721D01*
G01Y200721D02*
G03Y209279I-4115J4279D01*
G01Y200721D02*
G03Y199279I694J-721D01*
G01Y190721D02*
G03Y199279I-4115J4279D01*
G01Y190721D02*
G03Y189279I694J-721D01*
G01Y180721D02*
G03Y189279I-4115J4279D01*
G01Y180721D02*
G03Y179279I694J-721D01*
G01Y170721D02*
G03Y179279I-4115J4279D01*
G01Y170721D02*
G03Y169279I694J-721D01*
G01Y160721D02*
G03Y169279I-4115J4279D01*
G01Y160721D02*
G03Y159279I694J-721D01*
G01Y150721D02*
G03Y159279I-4115J4279D01*
G01Y150721D02*
G03Y149279I694J-721D01*
G01Y140721D02*
G03Y149279I-4115J4279D01*
G01Y140721D02*
G03Y139279I694J-721D01*
G01Y130721D02*
G03Y139279I-4115J4279D01*
G01Y130721D02*
G03Y129279I694J-721D01*
G01Y120721D02*
G03Y129279I-4115J4279D01*
G01Y120721D02*
G03Y119279I694J-721D01*
G01Y110721D02*
G03Y119279I-4115J4279D01*
G01Y110721D02*
G03Y109279I694J-721D01*
G01X235885D02*
G03X244115I4115J-4279D01*
G01X235885D02*
G03Y110721I-694J721D01*
G01Y119279D02*
G03Y110721I4115J-4279D01*
G01Y119279D02*
G03Y120721I-694J721D01*
G01Y129279D02*
G03Y120721I4115J-4279D01*
G01Y129279D02*
G03Y130721I-694J721D01*
G01Y139279D02*
G03Y130721I4115J-4279D01*
G01Y139279D02*
G03Y140721I-694J721D01*
G01Y149279D02*
G03Y140721I4115J-4279D01*
G01Y149279D02*
G03Y150721I-694J721D01*
G01Y159279D02*
G03Y150721I4115J-4279D01*
G01Y159279D02*
G03Y160721I-694J721D01*
G01Y169279D02*
G03Y160721I4115J-4279D01*
G01Y169279D02*
G03Y170721I-694J721D01*
G01Y179279D02*
G03Y170721I4115J-4279D01*
G01Y179279D02*
G03Y180721I-694J721D01*
G01Y189279D02*
G03Y180721I4115J-4279D01*
G01Y189279D02*
G03Y190721I-694J721D01*
G01Y199279D02*
G03Y190721I4115J-4279D01*
G01Y199279D02*
G03Y200721I-694J721D01*
G01Y209279D02*
G03Y200721I4115J-4279D01*
G01Y209279D02*
G03Y210721I-694J721D01*
G01Y219279D02*
G03Y210721I4115J-4279D01*
G01Y219279D02*
G03Y220721I-694J721D01*
G01Y229279D02*
G03Y220721I4115J-4279D01*
G01Y229279D02*
G03Y230721I-694J721D01*
G01Y239279D02*
G03Y230721I4115J-4279D01*
G01Y239279D02*
G03Y240721I-694J721D01*
G01Y249279D02*
G03Y240721I4115J-4279D01*
G01Y249279D02*
G03Y250721I-694J721D01*
G01Y259279D02*
G03Y250721I4115J-4279D01*
G01Y259279D02*
G03X236191Y260000I-694J721D01*
X235885Y260721I-1000J0*
G01X235482Y261149D02*
G03X235885Y260721I4518J3851D01*
G01X235482Y261149D02*
G03X234721Y261500I-761J-649D01*
G01X226864*
G03X226157Y261207I-0J-1000*
G01X220793Y255843*
G03X220500Y255136I707J-707*
G01Y189825*
G03X220516Y189645I1000J0*
G01X213484D02*
G03X220516I3516J-645D01*
G01X213484D02*
G03X213500Y189825I-984J180D01*
G01Y257000*
X214525Y259475D02*
G03X213500Y257000I2475J-2475D01*
G01X214525Y259475D02*
X222525Y267475D01*
X225000Y268500D02*
G03X222525Y267475I0J-3500D01*
G01X225000Y268500D02*
X234721D01*
G03X235482Y268851I-0J1000*
G01X235885Y269279D02*
G03X235482Y268851I4115J-4279D01*
G01X235885Y269279D02*
G03X236191Y270000I-694J721D01*
X235885Y270721I-1000J0*
G01Y279279D02*
G03Y270721I4115J-4279D01*
G01Y279279D02*
G03Y280721I-694J721D01*
G01X234063Y285000D02*
G03X235885Y280721I5937J0D01*
G01X235002Y288204D02*
G03X234063Y285000I4998J-3204D01*
G01X235002Y288204D02*
G03X235160Y288744I-842J540D01*
X234794Y289517I-1000J-0*
G01X234099Y290688D02*
G03X234794Y289517I1964J375D01*
G01X234099Y290688D02*
G03X233116Y291500I-983J-188D01*
G01X213970*
G03X212988Y290688I0J-1000*
G01X211136Y289066D02*
G03X212988Y290688I-112J1997D01*
G01X211136Y289066D02*
G03X210193Y288068I57J-998D01*
G01Y201634*
G03X210261Y201271I1000J-0*
G01X210500Y200000D02*
G03X210261Y201271I-3500J0D01*
G01X209474Y197524D02*
G03X210500Y200000I-2474J2476D01*
G01X209474Y197524D02*
X189475Y177525D01*
X187000Y176500D02*
G03X189475Y177525I-0J3500D01*
G01X187000Y176500D02*
X136387D01*
G03X135439Y175819I-0J-1000*
G01X133543Y174457D02*
G03X135439Y175819I0J2000D01*
G01X133543Y174457D02*
X126457D01*
X124793Y175347D02*
G03X126457Y174457I1664J1110D01*
G01X124793Y175347D02*
G03X123356Y175588I-832J-555D01*
G01X114457Y180000D02*
G03X123356Y175588I5543J0D01*
G01X116424Y184236D02*
G03X114457Y180000I3576J-4236D01*
G01X116424Y184236D02*
G03Y185764I-645J764D01*
G01Y194236D02*
G03Y185764I3576J-4236D01*
G01Y194236D02*
G03Y195764I-645J764D01*
G01Y204236D02*
G03Y195764I3576J-4236D01*
G01Y204236D02*
G03Y205764I-645J764D01*
G01Y214236D02*
G03Y205764I3576J-4236D01*
G01Y214236D02*
G03Y215764I-645J764D01*
G01X114457Y220000D02*
G03X116424Y215764I5543J0D01*
G01X124236Y223576D02*
G03X114457Y220000I-4236J-3576D01*
G01X124236Y223576D02*
G03X125764I764J645D01*
G01X135543Y220000D02*
G03X125764Y223576I-5543J0D01*
G01X133576Y215764D02*
G03X135543Y220000I-3576J4236D01*
G01X133576Y215764D02*
G03Y214236I645J-764D01*
G01X134387Y213389D02*
G03X133576Y214236I-4387J-3389D01*
G01X134387Y213389D02*
G03X135178Y213000I791J611D01*
G01X136000*
X138121Y212121D02*
G03X136000Y213000I-2121J-2121D01*
G01X138121Y212121D02*
X138950Y211293D01*
G03X139657Y211000I707J707*
G01X149779*
G03X150265Y211126I0J1000*
G01Y204874D02*
G03Y211126I1735J3126D01*
G01Y204874D02*
G03X149779Y205000I-486J-874D01*
G01X138000*
X135879Y205879D02*
G03X138000Y205000I2121J2121D01*
G01X135879Y205879D02*
X135502Y206255D01*
G03X134062Y206228I-707J-707*
G01X133576Y205764D02*
G03X134062Y206228I-3576J4236D01*
G01X133576Y205764D02*
G03X133221Y205000I645J-764D01*
X133576Y204236I1000J0*
G01X134387Y203389D02*
G03X133576Y204236I-4387J-3389D01*
G01X134387Y203389D02*
G03X135178Y203000I791J611D01*
G01X137000*
X138984Y202250D02*
G03X137000Y203000I-1984J-2250D01*
G01X138984Y202250D02*
G03X139646Y202000I662J750D01*
G01X144779*
G03X145265Y202126I0J1000*
G01X147645Y195484D02*
G03X145265Y202126I-645J3516D01*
G01X147645Y195484D02*
G03X147000Y195065I180J-984D01*
X146355Y195484I-825J-565*
G01X145265Y195874D02*
G03X146355Y195484I1735J3126D01*
G01X145265Y195874D02*
G03X144779Y196000I-486J-874D01*
G01X138000*
X136016Y196750D02*
G03X138000Y196000I1984J2250D01*
G01X136016Y196750D02*
G03X135354Y197000I-662J-750D01*
G01X135178*
G03X134387Y196611I0J-1000*
G01X133576Y195764D02*
G03X134387Y196611I-3576J4236D01*
G01X133576Y195764D02*
G03Y194236I645J-764D01*
G01X134024Y193812D02*
G03X133576Y194236I-4024J-3812D01*
G01X134024Y193812D02*
G03X134750Y193500I726J688D01*
G01X146175*
G03X147000Y193935I-0J1000*
X147825Y193500I825J565*
G01X154172*
G03X154800Y193722I-0J1000*
G01X157000Y194500D02*
G03X154800Y193722I0J-3500D01*
G01X157000Y194500D02*
X179175D01*
G03X179355Y194516I-0J1000*
G01Y187484D02*
G03Y194516I645J3516D01*
G01Y187484D02*
G03X179175Y187500I-180J-984D01*
G01X158828*
G03X158200Y187278I0J-1000*
G01X156000Y186500D02*
G03X158200Y187278I-0J3500D01*
G01X156000Y186500D02*
X135817D01*
G03X135059Y184848I0J-1000*
G01X135439Y184181D02*
G03X135059Y184848I-1896J-638D01*
G01X135439Y184181D02*
G03X136387Y183500I948J319D01*
G01X185136*
G03X185843Y183793I0J1000*
G01X202900Y200850*
G03X203193Y201557I-707J707*
G01Y288068*
G03X202249Y289066I-1000J-0*
G01X200787Y289830D02*
G03X202249Y289066I1575J1233D01*
G01X200787Y289830D02*
G03X199213I-787J-616D01*
G01X197638Y289063D02*
G03X199213Y289830I-0J2000D01*
G01X197638Y289063D02*
X188976D01*
X186976Y291063D02*
G03X188976Y289063I2000J-0D01*
G01X186976Y291063D02*
Y298937D01*
X188976Y300937D02*
G03X186976Y298937I0J-2000D01*
G01X188976Y300937D02*
X197638D01*
X199213Y300170D02*
G03X197638Y300937I-1575J-1233D01*
G01X199213Y300170D02*
G03X200787I787J616D01*
G01X201478Y300731D02*
G03X200787Y300170I884J-1794D01*
G01X201478Y300731D02*
G03X201806Y302266I-442J897D01*
G01X201000Y304500D02*
G03X201806Y302266I3500J0D01*
G01X201000Y304500D02*
Y304902D01*
G03X199500Y305768I-1000J-0*
G01X198500Y305500D02*
G03X199500Y305768I0J2000D01*
G01X198500Y305500D02*
X192500D01*
X190500Y307500D02*
G03X192500Y305500I2000J0D01*
G01X190500Y307500D02*
Y312500D01*
X192500Y314500D02*
G03X190500Y312500I0J-2000D01*
G01X192500Y314500D02*
X198500D01*
X199500Y314232D02*
G03X198500Y314500I-1000J-1732D01*
G01X199500Y314232D02*
G03X200500I500J866D01*
G01X201500Y314500D02*
G03X200500Y314232I0J-2000D01*
G01X201500Y314500D02*
X207500D01*
X209500Y312500D02*
G03X207500Y314500I-2000J0D01*
G01X209500Y312500D02*
Y307500D01*
X209030Y306212D02*
G03X209500Y307500I-1530J1288D01*
G01X209030Y306212D02*
G03X208796Y305568I766J-644D01*
X209088Y304861I1000J0*
G01X209168Y304782*
X210193Y302307D02*
G03X209168Y304782I-3500J0D01*
G01X210193Y302307D02*
Y301932D01*
G03X211136Y300934I1000J0*
G01X212988Y299312D02*
G03X211136Y300934I-1964J-375D01*
G01X212988Y299312D02*
G03X213970Y298500I982J188D01*
G01X215452*
G03X216446Y299609I0J1000*
G01X216425Y300000D02*
G03X216446Y299609I3575J-0D01*
G01X216425Y300000D02*
X216425D01*
X223575D02*
G03X216425I-3575J0D01*
G01X223575D02*
X223575D01*
X223554Y299609D02*
G03X223575Y300000I-3554J391D01*
G01X223554Y299609D02*
G03X224548Y298500I994J-109D01*
G01X233116*
G03X234099Y299312I0J1000*
G01X236063Y300937D02*
G03X234099Y299312I-0J-2000D01*
G01X236063Y300937D02*
X243937D01*
X245937Y298937D02*
G03X243937Y300937I-2000J0D01*
G01X213575Y80000D02*
G03X213575I-3575J0D01*
G01Y140000D02*
G03X213575I-3575J0D01*
G01Y180000D02*
G03X213575I-3575J0D01*
G01X123575Y280000D02*
G03X123575I-3575J0D01*
G01Y300000D02*
G03X123575I-3575J0D01*
G01X163575Y230000D02*
G03X163575I-3575J0D01*
G01Y280000D02*
G03X163575I-3575J0D01*
G01Y300000D02*
G03X163575I-3575J0D01*
G01X156948Y78138D02*
G03X155163Y77982I-854J-520D01*
G01X145764Y76424D02*
G03X155163Y77982I4236J3576D01*
G01X145764Y76424D02*
G03X144236I-764J-645D01*
G01X135764D02*
G03X144236I4236J3576D01*
G01X135764D02*
G03X134236I-764J-645D01*
G01X125764D02*
G03X134236I4236J3576D01*
G01X125764D02*
G03X124236I-764J-645D01*
G01Y83576D02*
G03Y76424I-4236J-3576D01*
G01Y83576D02*
G03X125764I764J645D01*
G01X134236D02*
G03X125764I-4236J-3576D01*
G01X134236D02*
G03X135764I764J645D01*
G01X144236D02*
G03X135764I-4236J-3576D01*
G01X144236D02*
G03X145764I764J645D01*
G01X155163Y82018D02*
G03X145764Y83576I-5163J-2018D01*
G01X155163Y82018D02*
G03X156948Y81862I931J364D01*
G01Y78138D02*
G03Y81862I3052J1862D01*
G01X163575Y140000D02*
G03X163575I-3575J0D01*
G01X102000Y325799D02*
X328000D01*
X102000Y323999D02*
X328000D01*
X102000Y322199D02*
X328000D01*
X102000Y320399D02*
X328000D01*
X102000Y318599D02*
X328000D01*
X102000Y316799D02*
X328000D01*
X102000Y314999D02*
X328000D01*
X209374Y313199D02*
X328000D01*
X209500Y311399D02*
X328000D01*
X209500Y309599D02*
X328000D01*
X209500Y307799D02*
X328000D01*
X208893Y305999D02*
X328000D01*
X209638Y304199D02*
X328000D01*
X262651Y302399D02*
X328000D01*
X301976Y300599D02*
X328000D01*
X304563Y298799D02*
X328000D01*
X305590Y296999D02*
X328000D01*
X305934Y295199D02*
X328000D01*
X305717Y293399D02*
X328000D01*
X304866Y291599D02*
X328000D01*
X303829Y289799D02*
X328000D01*
X304195Y280799D02*
X328000D01*
X304388Y278999D02*
X328000D01*
X305515Y277199D02*
X328000D01*
X305924Y275399D02*
X328000D01*
X305769Y273599D02*
X328000D01*
X305000Y271799D02*
X328000D01*
X303809Y269999D02*
X328000D01*
X305002Y268199D02*
X328000D01*
X305770Y266399D02*
X328000D01*
X305923Y264599D02*
X328000D01*
X305514Y262799D02*
X328000D01*
X304386Y260999D02*
X328000D01*
X304198Y259199D02*
X328000D01*
X305431Y257399D02*
X328000D01*
X305907Y255599D02*
X328000D01*
X305814Y253799D02*
X328000D01*
X305123Y251999D02*
X328000D01*
X303829Y250199D02*
X328000D01*
X304868Y248399D02*
X328000D01*
X305718Y246599D02*
X328000D01*
X305934Y244799D02*
X328000D01*
X305590Y242999D02*
X328000D01*
X304561Y241199D02*
X328000D01*
X304010Y239399D02*
X328000D01*
X305338Y237599D02*
X328000D01*
X305883Y235799D02*
X328000D01*
X305852Y233999D02*
X328000D01*
X312819Y232199D02*
X328000D01*
X313553Y230399D02*
X328000D01*
X313289Y228599D02*
X328000D01*
X311591Y226799D02*
X328000D01*
X305937Y224999D02*
X328000D01*
X305657Y223199D02*
X328000D01*
X304720Y221399D02*
X328000D01*
X303893Y219599D02*
X328000D01*
X305236Y217799D02*
X328000D01*
X305852Y215999D02*
X328000D01*
X305883Y214199D02*
X328000D01*
X305337Y212399D02*
X328000D01*
X304008Y210599D02*
X328000D01*
X304563Y208799D02*
X328000D01*
X305590Y206999D02*
X328000D01*
X305934Y205199D02*
X328000D01*
X305717Y203399D02*
X328000D01*
X304866Y201599D02*
X328000D01*
X303829Y199799D02*
X328000D01*
X305124Y197999D02*
X328000D01*
X305815Y196199D02*
X328000D01*
X305907Y194399D02*
X328000D01*
X305430Y192599D02*
X328000D01*
X304195Y190799D02*
X328000D01*
X304388Y188999D02*
X328000D01*
X305515Y187199D02*
X328000D01*
X305924Y185399D02*
X328000D01*
X305769Y183599D02*
X328000D01*
X313090Y181799D02*
X328000D01*
X313575Y179999D02*
X328000D01*
X313088Y178199D02*
X328000D01*
X305770Y176399D02*
X328000D01*
X305923Y174599D02*
X328000D01*
X305514Y172799D02*
X328000D01*
X304386Y170999D02*
X328000D01*
X304198Y169199D02*
X328000D01*
X305431Y167399D02*
X328000D01*
X305907Y165599D02*
X328000D01*
X305814Y163799D02*
X328000D01*
X305123Y161999D02*
X328000D01*
X303829Y160199D02*
X328000D01*
X304868Y158399D02*
X328000D01*
X305718Y156599D02*
X328000D01*
X305934Y154799D02*
X328000D01*
X305590Y152999D02*
X328000D01*
X304561Y151199D02*
X328000D01*
X304010Y149399D02*
X328000D01*
X305338Y147599D02*
X328000D01*
X305883Y145799D02*
X328000D01*
X305852Y143999D02*
X328000D01*
X312819Y142199D02*
X328000D01*
X313553Y140399D02*
X328000D01*
X313289Y138599D02*
X328000D01*
X311591Y136799D02*
X328000D01*
X305937Y134999D02*
X328000D01*
X305657Y133199D02*
X328000D01*
X304720Y131399D02*
X328000D01*
X303893Y129599D02*
X328000D01*
X305236Y127799D02*
X328000D01*
X305852Y125999D02*
X328000D01*
X305883Y124199D02*
X328000D01*
X305337Y122399D02*
X328000D01*
X304008Y120599D02*
X328000D01*
X304563Y118799D02*
X328000D01*
X305590Y116999D02*
X328000D01*
X305934Y115199D02*
X328000D01*
X305717Y113399D02*
X328000D01*
X304866Y111599D02*
X328000D01*
X303829Y109799D02*
X328000D01*
X305124Y107999D02*
X328000D01*
X305815Y106199D02*
X328000D01*
X305907Y104399D02*
X328000D01*
X305430Y102599D02*
X328000D01*
X304195Y100799D02*
X328000D01*
X102000Y98999D02*
X328000D01*
X102000Y97199D02*
X328000D01*
X102000Y95399D02*
X328000D01*
X102000Y93599D02*
X328000D01*
X102000Y91799D02*
X328000D01*
X102000Y89999D02*
X328000D01*
X102000Y88199D02*
X328000D01*
X102000Y86399D02*
X328000D01*
X153095Y84599D02*
X328000D01*
X312224Y82799D02*
X328000D01*
X313433Y80999D02*
X328000D01*
X313484Y79199D02*
X328000D01*
X312452Y77399D02*
X328000D01*
X153370Y75599D02*
X328000D01*
X102000Y73799D02*
X328000D01*
X102199Y327599D02*
X327801D01*
X305688Y226799D02*
X308409D01*
X305688Y136799D02*
X308409D01*
X262224Y82799D02*
X307776D01*
X262452Y77399D02*
X307548D01*
X306396Y232199D02*
X306978D01*
X306396Y142199D02*
X306978D01*
X263433Y80999D02*
X306567D01*
X263484Y79199D02*
X306516D01*
X263525Y300599D02*
X298024D01*
X243809Y269999D02*
X296191D01*
X263575Y179999D02*
X296191D01*
X243829Y250199D02*
X296171D01*
X243829Y160199D02*
X296171D01*
X245487Y289799D02*
X296171D01*
X243829Y199799D02*
X296171D01*
X243829Y109799D02*
X296171D01*
X263553Y230399D02*
X296109D01*
X263553Y140399D02*
X296109D01*
X243893Y219599D02*
X296107D01*
X243893Y129599D02*
X296107D01*
X244008Y210599D02*
X295992D01*
X244008Y120599D02*
X295992D01*
X244010Y239399D02*
X295990D01*
X244010Y149399D02*
X295990D01*
X263485Y280799D02*
X295805D01*
X244195Y190799D02*
X295805D01*
X244195Y100799D02*
X295805D01*
X244198Y259199D02*
X295802D01*
X244198Y169199D02*
X295802D01*
X244386Y260999D02*
X295614D01*
X244386Y170999D02*
X295614D01*
X263432Y278999D02*
X295612D01*
X244388Y188999D02*
X295612D01*
X244561Y241199D02*
X295439D01*
X244561Y151199D02*
X295439D01*
X263367Y298799D02*
X295437D01*
X244563Y208799D02*
X295437D01*
X244563Y118799D02*
X295437D01*
X244720Y221399D02*
X295280D01*
X244720Y131399D02*
X295280D01*
X263289Y228599D02*
X295278D01*
X263289Y138599D02*
X295278D01*
X245937Y291599D02*
X295134D01*
X244866Y201599D02*
X295134D01*
X244866Y111599D02*
X295134D01*
X244868Y248399D02*
X295132D01*
X244868Y158399D02*
X295132D01*
X245000Y271799D02*
X295000D01*
X263090Y181799D02*
X295000D01*
X245002Y268199D02*
X294998D01*
X263088Y178199D02*
X294998D01*
X245123Y251999D02*
X294877D01*
X245123Y161999D02*
X294877D01*
X245124Y287999D02*
X294876D01*
X245124Y197999D02*
X294876D01*
X245124Y107999D02*
X294876D01*
X262819Y232199D02*
X294765D01*
X262819Y142199D02*
X294765D01*
X245236Y217799D02*
X294764D01*
X245236Y127799D02*
X294764D01*
X245337Y212399D02*
X294663D01*
X245337Y122399D02*
X294663D01*
X245338Y237599D02*
X294662D01*
X245338Y147599D02*
X294662D01*
X262455Y282599D02*
X294570D01*
X245430Y192599D02*
X294570D01*
X245430Y102599D02*
X294570D01*
X245431Y257399D02*
X294569D01*
X245431Y167399D02*
X294569D01*
X245514Y262799D02*
X294486D01*
X245514Y172799D02*
X294486D01*
X262221Y277199D02*
X294485D01*
X245515Y187199D02*
X294485D01*
X245590Y242999D02*
X294410D01*
X245590Y152999D02*
X294410D01*
X261942Y296999D02*
X294410D01*
X245590Y206999D02*
X294410D01*
X245590Y116999D02*
X294410D01*
X245657Y223199D02*
X294343D01*
X245657Y133199D02*
X294343D01*
X261591Y226799D02*
X294342D01*
X261591Y136799D02*
X294342D01*
X245937Y293399D02*
X294283D01*
X245717Y203399D02*
X294283D01*
X245717Y113399D02*
X294283D01*
X245718Y246599D02*
X294282D01*
X245718Y156599D02*
X294282D01*
X245769Y273599D02*
X294231D01*
X245769Y183599D02*
X294231D01*
X245770Y266399D02*
X294230D01*
X245770Y176399D02*
X294230D01*
X245814Y253799D02*
X294186D01*
X245814Y163799D02*
X294186D01*
X245815Y286199D02*
X294185D01*
X245815Y196199D02*
X294185D01*
X245815Y106199D02*
X294185D01*
X245852Y233999D02*
X294148D01*
X245852Y143999D02*
X294148D01*
X245852Y215999D02*
X294148D01*
X245852Y125999D02*
X294148D01*
X245883Y214199D02*
X294117D01*
X245883Y124199D02*
X294117D01*
X245883Y235799D02*
X294117D01*
X245883Y145799D02*
X294117D01*
X245907Y284399D02*
X294093D01*
X245907Y194399D02*
X294093D01*
X245907Y104399D02*
X294093D01*
X245907Y255599D02*
X294093D01*
X245907Y165599D02*
X294093D01*
X245923Y264599D02*
X294077D01*
X245923Y174599D02*
X294077D01*
X245924Y275399D02*
X294076D01*
X245924Y185399D02*
X294076D01*
X245934Y244799D02*
X294066D01*
X245934Y154799D02*
X294066D01*
X245937Y295199D02*
X294066D01*
X245934Y205199D02*
X294066D01*
X245934Y115199D02*
X294066D01*
X245937Y224999D02*
X294063D01*
X245937Y134999D02*
X294063D01*
X245658Y226799D02*
X258409D01*
X245658Y136799D02*
X258409D01*
X245937Y296999D02*
X258058D01*
X245515Y277199D02*
X257779D01*
X212224Y82799D02*
X257776D01*
X212452Y77399D02*
X257548D01*
X245430Y282599D02*
X257545D01*
X222651Y302399D02*
X257349D01*
X245235Y232199D02*
X257181D01*
X245235Y142199D02*
X257181D01*
X245002Y178199D02*
X256912D01*
X245000Y181799D02*
X256910D01*
X244722Y228599D02*
X256711D01*
X244722Y138599D02*
X256711D01*
X245937Y298799D02*
X256633D01*
X244388Y278999D02*
X256568D01*
X213433Y80999D02*
X256567D01*
X213484Y79199D02*
X256516D01*
X244195Y280799D02*
X256515D01*
X245050Y300599D02*
X256475D01*
X243891Y230399D02*
X256447D01*
X243891Y140399D02*
X256447D01*
X243809Y179999D02*
X256425D01*
X210193Y269999D02*
X236191D01*
X213575Y179999D02*
X236191D01*
X220500Y250199D02*
X236171D01*
X117483Y160199D02*
X236171D01*
X220500Y199799D02*
X236171D01*
X102000Y109799D02*
X236171D01*
X220500Y230399D02*
X236109D01*
X213553Y140399D02*
X236109D01*
X220500Y219599D02*
X236107D01*
X102000Y129599D02*
X236107D01*
X220500Y210599D02*
X235992D01*
X102000Y120599D02*
X235992D01*
X220500Y239399D02*
X235990D01*
X102000Y149399D02*
X235990D01*
X210193Y280799D02*
X235805D01*
X220500Y190799D02*
X235805D01*
X102000Y100799D02*
X235805D01*
X224148Y259199D02*
X235802D01*
X102000Y169199D02*
X235802D01*
X225948Y260999D02*
X235614D01*
X102000Y170999D02*
X235614D01*
X210193Y278999D02*
X235612D01*
X220575Y188999D02*
X235612D01*
X220500Y241199D02*
X235439D01*
X102000Y151199D02*
X235439D01*
X220500Y208799D02*
X235437D01*
X102000Y118799D02*
X235437D01*
X220500Y221399D02*
X235280D01*
X102000Y131399D02*
X235280D01*
X220500Y228599D02*
X235278D01*
X213289Y138599D02*
X235278D01*
X220500Y201599D02*
X235134D01*
X102000Y111599D02*
X235134D01*
X220500Y248399D02*
X235132D01*
X117309Y158399D02*
X235132D01*
X210193Y271799D02*
X235000D01*
X213090Y181799D02*
X235000D01*
X213088Y178199D02*
X234998D01*
X223525Y300599D02*
X234950D01*
X220500Y251999D02*
X234877D01*
X117210Y161999D02*
X234877D01*
X220500Y197999D02*
X234876D01*
X102000Y107999D02*
X234876D01*
X210193Y287999D02*
X234876D01*
X220500Y232199D02*
X234765D01*
X212819Y142199D02*
X234765D01*
X220500Y217799D02*
X234764D01*
X102000Y127799D02*
X234764D01*
X220500Y212399D02*
X234663D01*
X102000Y122399D02*
X234663D01*
X220500Y237599D02*
X234662D01*
X102000Y147599D02*
X234662D01*
X210193Y282599D02*
X234570D01*
X220500Y192599D02*
X234570D01*
X102000Y102599D02*
X234570D01*
X222348Y257399D02*
X234569D01*
X102000Y167399D02*
X234569D01*
X212573Y289799D02*
X234513D01*
X102000Y172799D02*
X234486D01*
X210193Y277199D02*
X234485D01*
X220088Y187199D02*
X234485D01*
X220500Y242999D02*
X234410D01*
X112450Y152999D02*
X234410D01*
X220500Y206999D02*
X234410D01*
X102000Y116999D02*
X234410D01*
X220500Y223199D02*
X234343D01*
X102000Y133199D02*
X234343D01*
X220500Y226799D02*
X234342D01*
X211591Y136799D02*
X234342D01*
X220500Y203399D02*
X234283D01*
X102000Y113399D02*
X234283D01*
X220500Y246599D02*
X234282D01*
X116655Y156599D02*
X234282D01*
X210193Y273599D02*
X234231D01*
X195548Y183599D02*
X234231D01*
X135948Y176399D02*
X234230D01*
X220500Y253799D02*
X234186D01*
X116433Y163799D02*
X234186D01*
X210193Y286199D02*
X234185D01*
X220500Y196199D02*
X234185D01*
X102000Y106199D02*
X234185D01*
X220500Y233999D02*
X234148D01*
X102000Y143999D02*
X234148D01*
X220500Y215999D02*
X234148D01*
X102000Y125999D02*
X234148D01*
X220500Y214199D02*
X234117D01*
X102000Y124199D02*
X234117D01*
X220500Y235799D02*
X234117D01*
X102000Y145799D02*
X234117D01*
X210193Y284399D02*
X234093D01*
X220500Y194399D02*
X234093D01*
X102000Y104399D02*
X234093D01*
X220613Y255599D02*
X234093D01*
X114916Y165599D02*
X234093D01*
X134284Y174599D02*
X234077D01*
X210193Y275399D02*
X234076D01*
X197348Y185399D02*
X234076D01*
X220500Y244799D02*
X234066D01*
X115343Y154799D02*
X234066D01*
X220500Y205199D02*
X234066D01*
X102000Y115199D02*
X234066D01*
X220500Y224999D02*
X234063D01*
X102000Y134999D02*
X234063D01*
X223835Y298799D02*
X233829D01*
X210193Y268199D02*
X223579D01*
X210193Y266399D02*
X221449D01*
X210193Y264599D02*
X219649D01*
X210193Y262799D02*
X217849D01*
X210192Y302399D02*
X217349D01*
X212137Y300599D02*
X216475D01*
X213257Y298799D02*
X216165D01*
X210193Y260999D02*
X216049D01*
X210193Y259199D02*
X214277D01*
X199148Y187199D02*
X213912D01*
X210193Y257399D02*
X213523D01*
X210193Y255599D02*
X213500D01*
X210193Y253799D02*
X213500D01*
X210193Y251999D02*
X213500D01*
X210193Y250199D02*
X213500D01*
X210193Y248399D02*
X213500D01*
X210193Y246599D02*
X213500D01*
X210193Y244799D02*
X213500D01*
X210193Y242999D02*
X213500D01*
X210193Y241199D02*
X213500D01*
X210193Y239399D02*
X213500D01*
X210193Y237599D02*
X213500D01*
X210193Y235799D02*
X213500D01*
X210193Y233999D02*
X213500D01*
X210193Y232199D02*
X213500D01*
X210193Y230399D02*
X213500D01*
X210193Y228599D02*
X213500D01*
X210193Y226799D02*
X213500D01*
X210193Y224999D02*
X213500D01*
X210193Y223199D02*
X213500D01*
X210193Y221399D02*
X213500D01*
X210193Y219599D02*
X213500D01*
X210193Y217799D02*
X213500D01*
X210193Y215999D02*
X213500D01*
X210193Y214199D02*
X213500D01*
X210193Y212399D02*
X213500D01*
X210193Y210599D02*
X213500D01*
X210193Y208799D02*
X213500D01*
X210193Y206999D02*
X213500D01*
X210193Y205199D02*
X213500D01*
X210193Y203399D02*
X213500D01*
X210194Y201599D02*
X213500D01*
X210494Y199799D02*
X213500D01*
X209871Y197999D02*
X213500D01*
X208148Y196199D02*
X213500D01*
X206348Y194399D02*
X213500D01*
X204548Y192599D02*
X213500D01*
X202748Y190799D02*
X213500D01*
X200948Y188999D02*
X213425D01*
X161591Y136799D02*
X208409D01*
X162224Y82799D02*
X207776D01*
X162452Y77399D02*
X207548D01*
X162819Y142199D02*
X207181D01*
X190148Y178199D02*
X206912D01*
X193748Y181799D02*
X206910D01*
X163289Y138599D02*
X206711D01*
X163433Y80999D02*
X206567D01*
X163484Y79199D02*
X206516D01*
X163553Y140399D02*
X206447D01*
X191948Y179999D02*
X206425D01*
X102000Y287999D02*
X203193D01*
X102000Y286199D02*
X203193D01*
X102000Y284399D02*
X203193D01*
X162455Y282599D02*
X203193D01*
X163485Y280799D02*
X203193D01*
X163432Y278999D02*
X203193D01*
X162221Y277199D02*
X203193D01*
X102000Y275399D02*
X203193D01*
X102000Y273599D02*
X203193D01*
X102000Y271799D02*
X203193D01*
X102000Y269999D02*
X203193D01*
X102000Y268199D02*
X203193D01*
X102000Y266399D02*
X203193D01*
X102000Y264599D02*
X203193D01*
X102000Y262799D02*
X203193D01*
X102000Y260999D02*
X203193D01*
X102000Y259199D02*
X203193D01*
X102000Y257399D02*
X203193D01*
X102000Y255599D02*
X203193D01*
X102000Y253799D02*
X203193D01*
X102000Y251999D02*
X203193D01*
X102000Y250199D02*
X203193D01*
X102000Y248399D02*
X203193D01*
X113610Y246599D02*
X203193D01*
X115792Y244799D02*
X203193D01*
X116898Y242999D02*
X203193D01*
X117426Y241199D02*
X203193D01*
X117498Y239399D02*
X203193D01*
X117128Y237599D02*
X203193D01*
X116239Y235799D02*
X203193D01*
X114535Y233999D02*
X203193D01*
X162819Y232199D02*
X203193D01*
X163553Y230399D02*
X203193D01*
X163289Y228599D02*
X203193D01*
X161591Y226799D02*
X203193D01*
X132396Y224999D02*
X203193D01*
X134527Y223199D02*
X203193D01*
X135364Y221399D02*
X203193D01*
X135529Y219599D02*
X203193D01*
X135088Y217799D02*
X203193D01*
X133836Y215999D02*
X203193D01*
X133619Y214199D02*
X203193D01*
X137802Y212399D02*
X203193D01*
X154455Y210599D02*
X203193D01*
X155485Y208799D02*
X203193D01*
X155432Y206999D02*
X203193D01*
X154221Y205199D02*
X203193D01*
X134379Y203399D02*
X203193D01*
X149455Y201599D02*
X203193D01*
X150485Y199799D02*
X201849D01*
X162651Y302399D02*
X201701D01*
X198751Y300599D02*
X201249D01*
X102000Y304199D02*
X201013D01*
X199188Y289799D02*
X200812D01*
X150432Y197999D02*
X200049D01*
X149221Y196199D02*
X198249D01*
X181109Y194399D02*
X196449D01*
X183198Y192599D02*
X194649D01*
X183569Y190799D02*
X192849D01*
X102000Y305999D02*
X191179D01*
X182962Y188999D02*
X191049D01*
X102000Y313199D02*
X190626D01*
X102000Y311399D02*
X190500D01*
X102000Y309599D02*
X190500D01*
X102000Y307799D02*
X190500D01*
X158098Y187199D02*
X189249D01*
X163525Y300599D02*
X187863D01*
X134823Y185399D02*
X187449D01*
X102000Y289799D02*
X187427D01*
X163367Y298799D02*
X186976D01*
X161942Y296999D02*
X186976D01*
X102000Y295199D02*
X186976D01*
X102000Y293399D02*
X186976D01*
X102000Y291599D02*
X186976D01*
X135954Y183599D02*
X185569D01*
X102000Y226799D02*
X158409D01*
X102000Y136799D02*
X158409D01*
X121942Y296999D02*
X158058D01*
X122221Y277199D02*
X157779D01*
X154785Y82799D02*
X157776D01*
X154895Y77399D02*
X157548D01*
X122455Y282599D02*
X157545D01*
X122651Y302399D02*
X157349D01*
X102000Y232199D02*
X157181D01*
X102000Y142199D02*
X157181D01*
X102000Y228599D02*
X156711D01*
X102000Y138599D02*
X156711D01*
X123367Y298799D02*
X156633D01*
X123432Y278999D02*
X156568D01*
X123485Y280799D02*
X156515D01*
X123525Y300599D02*
X156475D01*
X102000Y230399D02*
X156447D01*
X102000Y140399D02*
X156447D01*
X133422Y194399D02*
X156164D01*
X143095Y84599D02*
X146905D01*
X143370Y75599D02*
X146630D01*
X133241Y205199D02*
X136926D01*
X134035Y196199D02*
X136926D01*
X133095Y84599D02*
X136905D01*
X133370Y75599D02*
X136630D01*
X122396Y224999D02*
X127604D01*
X123095Y84599D02*
X126905D01*
X123370Y75599D02*
X126630D01*
X121247Y174599D02*
X125716D01*
X102000D02*
X118753D01*
X102000Y296999D02*
X118058D01*
X102000Y277199D02*
X117779D01*
X102000Y224999D02*
X117604D01*
X102000Y282599D02*
X117545D01*
X102000Y302399D02*
X117349D01*
X102000Y84599D02*
X116905D01*
X102000Y205199D02*
X116759D01*
X102000Y185399D02*
X116696D01*
X102000Y298799D02*
X116633D01*
X102000Y75599D02*
X116630D01*
X102000Y194399D02*
X116578D01*
X102000Y278999D02*
X116568D01*
X102000Y280799D02*
X116515D01*
X102000Y300599D02*
X116475D01*
X102000Y214199D02*
X116381D01*
X102000Y215999D02*
X116164D01*
X102000Y196199D02*
X115965D01*
X102000Y176399D02*
X115786D01*
X102000Y183599D02*
X115784D01*
X102000Y203399D02*
X115621D01*
X102000Y223199D02*
X115473D01*
X102000Y206999D02*
X115339D01*
X102000Y187199D02*
X115217D01*
X102000Y82799D02*
X115215D01*
X102000Y77399D02*
X115105D01*
X102000Y192599D02*
X115104D01*
X102000Y212399D02*
X115003D01*
X102000Y217799D02*
X114912D01*
X102000Y197999D02*
X114831D01*
X102000Y178199D02*
X114757D01*
X102000Y181799D02*
X114757D01*
X102000Y201599D02*
X114692D01*
X102000Y221399D02*
X114636D01*
X102000Y208799D02*
X114588D01*
X102000Y188999D02*
X114548D01*
X102000Y80999D02*
X114547D01*
X102000Y79199D02*
X114515D01*
X102000Y190799D02*
X114515D01*
X102000Y210599D02*
X114489D01*
X102000Y219599D02*
X114471D01*
X102000Y199799D02*
X114460D01*
X102000Y179999D02*
X114457D01*
X102000Y152999D02*
X107750D01*
X102000Y246599D02*
X106390D01*
X102000Y233999D02*
X105465D01*
X102000Y165599D02*
X105284D01*
X102000Y154799D02*
X104857D01*
X102002Y244799D02*
X104208D01*
X102248Y235799D02*
X103752D01*
X102251Y163799D02*
X103749D01*
X123619Y214199D02*
X126381D01*
X123836Y215999D02*
X126164D01*
X303891Y140399D02*
X306447D01*
X304723Y138599D02*
X306253D01*
X303809Y179999D02*
X306425D01*
X303891Y230399D02*
X306447D01*
X304723Y228599D02*
X306253D01*
X100000Y70000D02*
X330000D01*
Y330000*
X100000*
Y70000*
X115522Y240000D02*
G03X115522I-5522J0D01*
G01X115485Y160000D02*
G03X115485I-5385J0D01*
G54D35*
G01X130000Y180000D03*
G54D36*
Y190000D03*
Y200000D03*
Y210000D03*
Y220000D03*
X120000D03*
Y210000D03*
Y200000D03*
Y190000D03*
Y180000D03*
Y80000D03*
X130000D03*
X140000D03*
X150000D03*
G54D52*
X312528Y232528D02*
X311114Y231114D01*
X307472Y232528D02*
X308886Y231114D01*
X307472Y227472D02*
X308886Y228886D01*
X312528Y227472D02*
X311114Y228886D01*
X312528Y182528D02*
X311114Y181114D01*
X307472Y182528D02*
X308886Y181114D01*
X307472Y177472D02*
X308886Y178886D01*
X312528Y177472D02*
X311114Y178886D01*
X312528Y142528D02*
X311114Y141114D01*
X307472Y142528D02*
X308886Y141114D01*
X307472Y137472D02*
X308886Y138886D01*
X312528Y137472D02*
X311114Y138886D01*
X212528Y182528D02*
X211114Y181114D01*
X207472Y182528D02*
X208886Y181114D01*
X207472Y177472D02*
X208886Y178886D01*
X212528Y177472D02*
X211114Y178886D01*
X212528Y142528D02*
X211114Y141114D01*
X207472Y142528D02*
X208886Y141114D01*
X207472Y137472D02*
X208886Y138886D01*
X212528Y137472D02*
X211114Y138886D01*
X262528Y182528D02*
X261114Y181114D01*
X257472Y182528D02*
X258886Y181114D01*
X257472Y177472D02*
X258886Y178886D01*
X262528Y177472D02*
X261114Y178886D01*
X262528Y142528D02*
X261114Y141114D01*
X257472Y142528D02*
X258886Y141114D01*
X257472Y137472D02*
X258886Y138886D01*
X262528Y137472D02*
X261114Y138886D01*
X262528Y232528D02*
X261114Y231114D01*
X257472Y232528D02*
X258886Y231114D01*
X257472Y227472D02*
X258886Y228886D01*
X262528Y227472D02*
X261114Y228886D01*
X262528Y302528D02*
X261114Y301114D01*
X257472Y302528D02*
X258886Y301114D01*
X257472Y297472D02*
X258886Y298886D01*
X262528Y297472D02*
X261114Y298886D01*
X262528Y282528D02*
X261114Y281114D01*
X257472Y282528D02*
X258886Y281114D01*
X257472Y277472D02*
X258886Y278886D01*
X262528Y277472D02*
X261114Y278886D01*
X222528Y302528D02*
X221114Y301114D01*
X217472Y302528D02*
X218886Y301114D01*
X122528Y282528D02*
X121114Y281114D01*
X117472Y282528D02*
X118886Y281114D01*
X117472Y277472D02*
X118886Y278886D01*
X122528Y277472D02*
X121114Y278886D01*
X162528Y302528D02*
X161114Y301114D01*
X157472Y302528D02*
X158886Y301114D01*
X157472Y297472D02*
X158886Y298886D01*
X162528Y297472D02*
X161114Y298886D01*
X162528Y232528D02*
X161114Y231114D01*
X157472Y232528D02*
X158886Y231114D01*
X157472Y227472D02*
X158886Y228886D01*
X162528Y227472D02*
X161114Y228886D01*
X122528Y302528D02*
X121114Y301114D01*
X117472Y302528D02*
X118886Y301114D01*
X117472Y297472D02*
X118886Y298886D01*
X122528Y297472D02*
X121114Y298886D01*
X162528Y282528D02*
X161114Y281114D01*
X157472Y282528D02*
X158886Y281114D01*
X157472Y277472D02*
X158886Y278886D01*
X162528Y277472D02*
X161114Y278886D01*
X162528Y142528D02*
X161114Y141114D01*
X157472Y142528D02*
X158886Y141114D01*
X157472Y137472D02*
X158886Y138886D01*
X162528Y137472D02*
X161114Y138886D01*
X162528Y82528D02*
X161114Y81114D01*
X157472Y82528D02*
X158886Y81114D01*
X157472Y77472D02*
X158886Y78886D01*
X162528Y77472D02*
X161114Y78886D01*
X212528Y82528D02*
X211114Y81114D01*
X207472Y82528D02*
X208886Y81114D01*
X207472Y77472D02*
X208886Y78886D01*
X212528Y77472D02*
X211114Y78886D01*
X262528Y82528D02*
X261114Y81114D01*
X257472Y82528D02*
X258886Y81114D01*
X257472Y77472D02*
X258886Y78886D01*
X262528Y77472D02*
X261114Y78886D01*
X312528Y82528D02*
X311114Y81114D01*
X307472Y82528D02*
X308886Y81114D01*
X307472Y77472D02*
X308886Y78886D01*
X312528Y77472D02*
X311114Y78886D01*
G54D79*
X150000Y80000D02*
X140000D01*
X130000*
X120000D02*
X130000D01*
X114000Y220000D02*
Y222000D01*
X118000Y226000*
X124000*
X130000Y220000*
X114000D02*
Y172272D01*
X120000Y166272*
Y80000*
X130000Y220000D02*
X185000D01*
X194000Y229000*
X130000Y190000D02*
X156000D01*
X157000Y191000*
X180000*
X130000Y180000D02*
X187000D01*
X207000Y200000*
X217000Y189000D02*
Y257000D01*
X225000Y265000*
X240000*
X204500Y310000D02*
Y304500D01*
X206693Y302307*
Y295000*
X194000Y294307D02*
X193307Y295000D01*
Y302307*
X195500Y304500*
Y310000*
X206693Y295000D02*
Y200307D01*
X207000Y200000*
X206693Y295000D02*
X240000D01*
X194000Y294307D02*
Y229000D01*
X195000Y322000D02*
X198000Y325000D01*
X268000*
X272000Y321000*
Y301000*
X278000Y295000*
X300000*
X195000Y322000D02*
Y310000D01*
X195500*
G54D83*
X206693Y295000D03*
X193307D03*
G54D84*
X210000Y80000D03*
X160000D03*
Y140000D03*
X210000D03*
X310000Y80000D03*
X260000D03*
Y140000D03*
X310000D03*
X147000Y199000D03*
X152000Y208000D03*
X160000Y230000D03*
X210000Y180000D03*
X217000Y189000D03*
X180000Y191000D03*
X260000Y230000D03*
Y180000D03*
X310000D03*
Y230000D03*
X120000Y300000D03*
Y280000D03*
X160000D03*
Y300000D03*
X220000D03*
X260000D03*
Y280000D03*
X325000Y285000D03*
G74*
X0Y0D02*
M02*
