M48
;FILE_FORMAT=2:4
INCH,LZ
FMAT,2
ICI,OFF
;TYPE=PLATED
T1C.01575
T2C.03937
T4C.04724
;TYPE=NON_PLATED
T3C.03937
%
M72
G90
G93X0Y0
T1C.01575F095S3
X016Y008
X016Y014
X0147Y0199
X0152Y0208
X016Y023
X012Y028
X016Y028
X012Y03
X016Y03
X018Y0191
X0217Y0189
X021Y018
X021Y014
X021Y008
X026Y008
X026Y014
X026Y018
X026Y023
X026Y028
X026Y03
X022Y03
X0325Y0285
X031Y023
X031Y018
X031Y014
X031Y008
T2C.03937F197S55
X013Y018
X012Y018
X012Y019
X013Y019
X012Y02
X013Y02
X012Y021
X013Y021
X012Y022
X013Y022
T3C.03937F197S55
X012Y008
X013Y008
X014Y008
X015Y008
T4C.04724F139S55
X024Y0105
X024Y0115
X024Y0125
X024Y0135
X024Y0145
X024Y0155
X024Y0165
X024Y0175
X024Y0185
X024Y0195
X024Y0205
X024Y0215
X024Y0225
X024Y0235
X024Y0245
X024Y0255
X024Y0265
X024Y0275
X024Y0285
X024Y0295
X03Y0295
X03Y0285
X03Y0275
X03Y0265
X03Y0255
X03Y0245
X03Y0235
X03Y0225
X03Y0215
X03Y0205
X03Y0195
X03Y0185
X03Y0175
X03Y0165
X03Y0155
X03Y0145
X03Y0135
X03Y0125
X03Y0115
X03Y0105
M30
