M48
;FILE_FORMAT=2:4
INCH,LZ
FMAT,2
ICI,OFF
;TYPE=PLATED
T1C.01575
T2C.03
T3C.03937
%
M72
G90
G93X0Y0
T1C.01575F095S3
X00215Y00138
X00419Y0056
X00344Y00589
X004143Y006022
X00409Y00866
X0035Y01069
X00178Y01339
X00531Y01611
X00436Y0109
X00676Y01074
X00567Y01061
X00676Y0102
X00579Y010035
X005715Y009555
X00551Y009201
X005845Y00708
X00672Y0064
X005448Y00418
X005053Y004155
X009274Y001652
X00826Y002105
X00826Y0025
X00704Y00417
X00875Y00426
X00694Y00463
X00842Y00491
X0091Y00492
X00691Y00586
X00906Y00665
X008741Y00702
X00901Y00731
X00772Y00731
X00696Y008565
X00906Y009
X00853Y00905
X00718Y00914
X00831Y009625
X00794Y00982
X008584Y010164
X0091Y01055
X008Y010849
X00823Y01196
X01152Y01595
X00996Y01541
X010623Y012723
X011605Y012665
X01086Y01205
X00948Y01185
X011675Y011565
X01057Y01102
X01172Y01049
X01076Y01004
X009957Y00925
X01076Y008847
X01022Y0087
X01045Y007945
X010752Y007688
X009457Y00757
X010032Y00755
X011585Y006905
X01152Y00651
X01112Y00637
X01177Y00586
X00958Y00557
X01018Y00538
X01165Y00459
X0097Y00405
X010565Y00397
X011355Y00397
X011731Y002388
X010868Y001646
X012745Y002425
X01267Y00282
X013101Y004381
X01374Y00443
X012645Y00451
X01339Y00465
X01189Y00491
X012423Y005445
X013445Y005615
X012616Y005811
X012241Y00598
X013245Y00598
X012529Y00702
X01417Y00702
X0132Y0072
X013595Y00724
X01226Y00731
X01179Y00791
X012017Y00866
X012Y00906
X01274Y00977
X013135Y00986
X01344Y01051
X01226Y01154
X013456Y01155
X01403Y01179
X01339Y012215
X01218Y012665
X01339Y01279
X01263Y01398
X01249Y01491
X01295Y0152
X01217Y01617
X0163Y01476
X01607Y01388
X01436Y01351
X01524Y012815
X01512Y01242
X014339Y01154
X01643Y01062
X01673Y010361
X01512Y00945
X01632Y00916
X0165Y00817
X01555Y00637
X01442Y00567
X01565Y00525
X01516Y00464
X014405Y004425
X01457Y00406
X01507Y00406
X014652Y002457
X01451Y00202
X01822Y00709
X01739Y00954
X01721Y01097
X01751Y01192
X01822Y01394
X01807Y01617
T2C.03F197S55
X017878Y004596
X017878Y005596
X017878Y006596
X017878Y007596
X017878Y008596
X017878Y009596
T3C.03937F197S55
X009Y013437
X008Y013437
X008Y014437
X009Y014437
X01Y014437
X011Y014437
X012Y014437
X01Y013437
X012Y013437
X011Y013437
M30
