*
*
G04 PADS VX.2.4 Build Number: 11282995 generated Gerber (RS-274-X) file*
G04 PC Version=2.1*
*
%IN "NewICE to OLDICE.pcb"*%
*
%MOIN*%
*
%FSLAX35Y35*%
*
*
*
*
G04 PC Standard Apertures*
*
*
G04 Thermal Relief Aperture macro.*
%AMTER*
1,1,$1,0,0*
1,0,$1-$2,0,0*
21,0,$3,$4,0,0,45*
21,0,$3,$4,0,0,135*
%
*
*
G04 Annular Aperture macro.*
%AMANN*
1,1,$1,0,0*
1,0,$2,0,0*
%
*
*
G04 Odd Aperture macro.*
%AMODD*
1,1,$1,0,0*
1,0,$1-0.005,0,0*
%
*
*
G04 PC Custom Aperture Macros*
*
*
*
*
*
*
G04 PC Aperture Table*
*
%ADD010C,0.001*%
%ADD023C,0.01*%
%ADD034C,0.0315*%
%ADD035R,0.07087X0.07087*%
%ADD036C,0.07087*%
%ADD052C,0.015*%
%ADD080C,0.03*%
%ADD083C,0.025*%
*
*
*
*
G04 PC Circuitry*
G04 Layer Name NewICE to OLDICE.pcb - circuitry*
%LPD*%
*
*
G04 PC Custom Flashes*
G04 Layer Name NewICE to OLDICE.pcb - flashes*
%LPD*%
*
*
G04 PC Circuitry*
G04 Layer Name NewICE to OLDICE.pcb - circuitry*
%LPD*%
*
G54D10*
G54D23*
G01X125200Y140000D02*
X249000D01*
Y260000*
X125200*
Y140000*
X140636Y239700D02*
G75*
G03X140636I-5636J0D01*
G01X140961Y159900D02*
G03X140961I-6061J0D01*
G54D34*
G01X135000Y175000D03*
Y225000D03*
X150000Y160000D03*
X170000D03*
X200000D03*
X230000D03*
X150000Y240000D03*
X230000D03*
X170000D03*
X200000D03*
G54D35*
X155000Y180000D03*
X240000Y220000D03*
G54D36*
X155000Y190000D03*
Y200000D03*
Y210000D03*
Y220000D03*
X145000D03*
Y210000D03*
Y200000D03*
Y190000D03*
Y180000D03*
X240000Y210000D03*
Y200000D03*
Y190000D03*
Y180000D03*
G54D52*
X137881Y177881D02*
X136114Y176114D01*
X132119Y177881D02*
X133886Y176114D01*
X132119Y172119D02*
X133886Y173886D01*
X137881Y172119D02*
X136114Y173886D01*
X202881Y162881D02*
X201114Y161114D01*
X197119Y162881D02*
X198886Y161114D01*
X197119Y157119D02*
X198886Y158886D01*
X202881Y157119D02*
X201114Y158886D01*
X137881Y227881D02*
X136114Y226114D01*
X132119Y227881D02*
X133886Y226114D01*
X132119Y222119D02*
X133886Y223886D01*
X137881Y222119D02*
X136114Y223886D01*
X232881Y242881D02*
X231114Y241114D01*
X227119Y242881D02*
X228886Y241114D01*
X227119Y237119D02*
X228886Y238886D01*
X232881Y237119D02*
X231114Y238886D01*
X172881Y242881D02*
X171114Y241114D01*
X167119Y242881D02*
X168886Y241114D01*
X167119Y237119D02*
X168886Y238886D01*
X172881Y237119D02*
X171114Y238886D01*
X152881Y162881D02*
X151114Y161114D01*
X147119Y162881D02*
X148886Y161114D01*
X147119Y157119D02*
X148886Y158886D01*
X152881Y157119D02*
X151114Y158886D01*
X202881Y242881D02*
X201114Y241114D01*
X197119Y242881D02*
X198886Y241114D01*
X197119Y237119D02*
X198886Y238886D01*
X202881Y237119D02*
X201114Y238886D01*
X152881Y242881D02*
X151114Y241114D01*
X147119Y242881D02*
X148886Y241114D01*
X147119Y237119D02*
X148886Y238886D01*
X152881Y237119D02*
X151114Y238886D01*
X172881Y162881D02*
X171114Y161114D01*
X167119Y162881D02*
X168886Y161114D01*
X167119Y157119D02*
X168886Y158886D01*
X172881Y157119D02*
X171114Y158886D01*
X232881Y162881D02*
X231114Y161114D01*
X227119Y162881D02*
X228886Y161114D01*
X227119Y157119D02*
X228886Y158886D01*
X232881Y157119D02*
X231114Y158886D01*
G54D80*
X152300Y192200D02*
X189300D01*
Y212400*
X242800*
Y207800*
X193600*
Y187900*
X152300*
Y192200*
X189300Y212199D02*
X242800D01*
X189300Y209499D02*
X242800D01*
X189300Y206799D02*
X193600D01*
X189300Y204099D02*
X193600D01*
X189300Y201399D02*
X193600D01*
X189300Y198699D02*
X193600D01*
X189300Y195999D02*
X193600D01*
X189300Y193299D02*
X193600D01*
X152300Y190599D02*
X193600D01*
X234075Y160000D02*
G03X234075I-4075J0D01*
G01X204075D02*
G03X204075I-4075J0D01*
G01X174075D02*
G03X174075I-4075J0D01*
G01X234075Y240000D02*
G03X234075I-4075J0D01*
G01X204075D02*
G03X204075I-4075J0D01*
G01X174075D02*
G03X174075I-4075J0D01*
G01X246500Y174352D02*
G03X244006Y175475I-1500J-0D01*
G01X235475Y184006D02*
G03X244006Y175475I4525J-4006D01*
G01X235475Y184006D02*
G03Y185994I-1123J994D01*
G01Y194006D02*
G03Y185994I4525J-4006D01*
G01Y194006D02*
G03Y195994I-1123J994D01*
G01X233957Y200000D02*
G03X235475Y195994I6043J0D01*
G01X234244Y201843D02*
G03X233957Y200000I5756J-1843D01*
G01X234244Y201843D02*
G03X232816Y203800I-1428J457D01*
G01X199100*
G03X197600Y202300I0J-1500*
G01Y187900*
X193600Y183900D02*
G03X197600Y187900I0J4000D01*
G01X193600Y183900D02*
X162543D01*
G03X161043Y182400I0J-1500*
G01Y176457*
X158543Y173957D02*
G03X161043Y176457I0J2500D01*
G01X158543Y173957D02*
X151457D01*
X149789Y174594D02*
G03X151457Y173957I1668J1863D01*
G01X149789Y174594D02*
G03X148035Y174774I-1001J-1117D01*
G01X141377Y175163D02*
G03X148035Y174774I3623J4837D01*
G01X141377Y175163D02*
G03X139004Y174242I-900J-1200D01*
G01X136390Y171170D02*
G03X139004Y174242I-1390J3830D01*
G01X136390Y171170D02*
G03X136603Y168289I511J-1411D01*
G01X143289Y161603D02*
G03X136603Y168289I-8389J-1703D01*
G01X143289Y161603D02*
G03X146170Y161390I1470J298D01*
G01X146188Y158560D02*
G03X146170Y161390I3812J1440D01*
G01X146188Y158560D02*
G03X143311Y158308I-1403J-531D01*
G01X130050Y152846D02*
G03X143311Y158308I4850J7054D01*
G01X130050Y152846D02*
G03X127700Y151610I-850J-1236D01*
G01Y144000*
G03X129200Y142500I1500J0*
G01X245000*
G03X246500Y144000I-0J1500*
G01Y174352*
Y256000D02*
G03X245000Y257500I-1500J-0D01*
G01X129200*
G03X127700Y256000I0J-1500*
G01Y247395*
G03X130103Y246197I1500J-0*
G01X143050Y240879D02*
G03X130103Y246197I-8050J-1179D01*
G01X143050Y240879D02*
G03X143665Y239873I1484J217D01*
X143090Y238844I917J-1187*
G01X136585Y231720D02*
G03X143090Y238844I-1585J7980D01*
G01X136585Y231720D02*
G03X136372Y228837I293J-1471D01*
G01X139004Y225758D02*
G03X136372Y228837I-4004J-758D01*
G01X139004Y225758D02*
G03X141377Y224837I1473J279D01*
G01X149006Y224525D02*
G03X141377Y224837I-4006J-4525D01*
G01X149006Y224525D02*
G03X150994I994J1123D01*
G01X159525Y215994D02*
G03X150994Y224525I-4525J4006D01*
G01X159525Y215994D02*
G03Y214006I1123J-994D01*
G01Y205994D02*
G03Y214006I-4525J4006D01*
G01Y205994D02*
G03Y204006I1123J-994D01*
G01X161043Y200000D02*
G03X159525Y204006I-6043J0D01*
G01X160756Y198157D02*
G03X161043Y200000I-5756J1843D01*
G01X160756Y198157D02*
G03X162184Y196200I1428J-457D01*
G01X183800*
G03X185300Y197700I-0J1500*
G01Y212400*
X189300Y216400D02*
G03X185300Y212400I0J-4000D01*
G01X189300Y216400D02*
X232457D01*
G03X233957Y217900I-0J1500*
G01Y223543*
X236457Y226043D02*
G03X233957Y223543I-0J-2500D01*
G01X236457Y226043D02*
X243543D01*
X244454Y225872D02*
G03X243543Y226043I-911J-2329D01*
G01X244454Y225872D02*
G03X246500Y227269I546J1397D01*
G01Y256000*
X138957Y219997D02*
G03X140475Y215994I6043J3D01*
G01X138957Y219997D02*
G03X136796Y221342I-1500J-1D01*
G01X133628Y228837D02*
G03X136796Y221342I1372J-3837D01*
G01X133628Y228837D02*
G03X133415Y231720I-506J1412D01*
G01X130103Y233203D02*
G03X133415Y231720I4897J6497D01*
G01X130103Y233203D02*
G03X127700Y232005I-903J-1198D01*
G01Y168190*
G03X130050Y166954I1500J0*
G01X133308Y168311D02*
G03X130050Y166954I1592J-8411D01*
G01X133308Y168311D02*
G03X133560Y171188I-279J1474D01*
G01X136796Y178658D02*
G03X133560Y171188I-1796J-3658D01*
G01X136796Y178658D02*
G03X138957Y180003I661J1346D01*
G01X140475Y184006D02*
G03X138957Y180003I4525J-4006D01*
G01X140475Y184006D02*
G03Y185994I-1123J994D01*
G01Y194006D02*
G03Y185994I4525J-4006D01*
G01Y194006D02*
G03Y195994I-1123J994D01*
G01Y204006D02*
G03Y195994I4525J-4006D01*
G01Y204006D02*
G03Y205994I-1123J994D01*
G01Y214006D02*
G03Y205994I4525J-4006D01*
G01Y214006D02*
G03Y215994I-1123J994D01*
G01X234075Y160000D02*
G03X234075I-4075J0D01*
G01X204075D02*
G03X204075I-4075J0D01*
G01X174075D02*
G03X174075I-4075J0D01*
G01X234075Y240000D02*
G03X234075I-4075J0D01*
G01X204075D02*
G03X204075I-4075J0D01*
G01X174075D02*
G03X174075I-4075J0D01*
G01X146040Y239040D02*
G03X145451Y239909I-1458J-354D01*
X146005Y240801I-917J1187*
G01X146040Y239040D02*
G03X146005Y240801I3960J960D01*
G01X137959Y172199D02*
X246500D01*
X135424Y169499D02*
X246500D01*
X139969Y166799D02*
X246500D01*
X142360Y164099D02*
X246500D01*
X233827Y161399D02*
X246500D01*
X233861Y158699D02*
X246500D01*
X230771Y155999D02*
X246500D01*
X140350Y153299D02*
X246500D01*
X127700Y150599D02*
X246500D01*
X127700Y147899D02*
X246500D01*
X127700Y145199D02*
X246500D01*
X243240Y174899D02*
X246397D01*
X160499D02*
X236760D01*
X196940Y185699D02*
X235679D01*
X197600Y193799D02*
X235300D01*
X197600Y196499D02*
X235074D01*
X161168Y182999D02*
X234753D01*
X161043Y177599D02*
X234454D01*
X197600Y201899D02*
X234261D01*
X197600Y188399D02*
X234173D01*
X197600Y191099D02*
X234057D01*
X197600Y199199D02*
X234010D01*
X161043Y180299D02*
X233964D01*
X200771Y155999D02*
X229229D01*
X203827Y161399D02*
X226173D01*
X203861Y158699D02*
X226139D01*
X170771Y155999D02*
X199229D01*
X173827Y161399D02*
X196173D01*
X173861Y158699D02*
X196139D01*
X150771Y155999D02*
X169229D01*
X153827Y161399D02*
X166173D01*
X153861Y158699D02*
X166139D01*
X148310Y174899D02*
X149266D01*
X142520Y155999D02*
X149229D01*
X143346Y161399D02*
X146173D01*
X143443Y158699D02*
X146127D01*
X139305Y174899D02*
X141760D01*
X127700Y255899D02*
X246500D01*
X127700Y253199D02*
X246500D01*
X127700Y250499D02*
X246500D01*
X135774Y247799D02*
X246500D01*
X141086Y245099D02*
X246500D01*
X233294Y242399D02*
X246500D01*
X234064Y239699D02*
X246500D01*
X232756Y236999D02*
X246500D01*
X141084Y234299D02*
X246500D01*
X136223Y231599D02*
X246500D01*
X136225Y228899D02*
X246500D01*
X138895Y226199D02*
X246051D01*
X159928Y223499D02*
X233957D01*
X160990Y220799D02*
X233957D01*
X160736Y218099D02*
X233957D01*
X202756Y236999D02*
X227244D01*
X203294Y242399D02*
X226706D01*
X204064Y239699D02*
X225936D01*
X172756Y236999D02*
X197244D01*
X173294Y242399D02*
X196706D01*
X174064Y239699D02*
X195936D01*
X159202Y215399D02*
X186653D01*
X160407Y212699D02*
X185311D01*
X161043Y209999D02*
X185300D01*
X160406Y207299D02*
X185300D01*
X159203Y204599D02*
X185300D01*
X160737Y201899D02*
X185300D01*
X160990Y199199D02*
X185300D01*
X161286Y196499D02*
X184698D01*
X152756Y236999D02*
X167244D01*
X153294Y242399D02*
X166706D01*
X154064Y239699D02*
X165936D01*
X142674Y236999D02*
X147244D01*
X142675Y242399D02*
X146706D01*
X143475Y239699D02*
X145689D01*
X127700Y247799D02*
X134226D01*
X127700Y215399D02*
X140798D01*
X127700Y204599D02*
X140797D01*
X127700Y185699D02*
X140679D01*
X127700Y193799D02*
X140300D01*
X127700Y196499D02*
X140074D01*
X127700Y182999D02*
X139753D01*
X127700Y207299D02*
X139594D01*
X127700Y212699D02*
X139593D01*
X127700Y218099D02*
X139264D01*
X127700Y201899D02*
X139263D01*
X127700Y188399D02*
X139173D01*
X127700Y191099D02*
X139057D01*
X127700Y199199D02*
X139010D01*
X127700Y180299D02*
X138964D01*
X127700Y209999D02*
X138957D01*
X127700Y220799D02*
X138724D01*
X127700Y169499D02*
X134502D01*
X127700Y231599D02*
X133777D01*
X127700Y228899D02*
X133775D01*
X127700Y172199D02*
X132041D01*
X127700Y177599D02*
X131861D01*
X127700Y223499D02*
X131212D01*
X127700Y226199D02*
X131105D01*
X127700Y174899D02*
X130926D01*
X128640Y166799D02*
X129761D01*
G54D83*
X155000Y190000D02*
X186400D01*
X191900Y195500*
Y205200*
X196700Y210000*
X240000*
G74*
X0Y0D02*
M02*
