*
*
G04 PADS VX.2.4 Build Number: 11282995 generated Gerber (RS-274-X) file*
G04 PC Version=2.1*
*
%IN "NewICE to OLDICE.pcb"*%
*
%MOIN*%
*
%FSLAX35Y35*%
*
*
*
*
G04 PC Standard Apertures*
*
*
G04 Thermal Relief Aperture macro.*
%AMTER*
1,1,$1,0,0*
1,0,$1-$2,0,0*
21,0,$3,$4,0,0,45*
21,0,$3,$4,0,0,135*
%
*
*
G04 Annular Aperture macro.*
%AMANN*
1,1,$1,0,0*
1,0,$2,0,0*
%
*
*
G04 Odd Aperture macro.*
%AMODD*
1,1,$1,0,0*
1,0,$1-0.005,0,0*
%
*
*
G04 PC Custom Aperture Macros*
*
*
*
*
*
*
G04 PC Aperture Table*
*
%ADD010C,0.001*%
%ADD023C,0.01*%
*
*
*
*
G04 PC Circuitry*
G04 Layer Name NewICE to OLDICE.pcb - circuitry*
%LPD*%
*
*
G04 PC Custom Flashes*
G04 Layer Name NewICE to OLDICE.pcb - flashes*
%LPD*%
*
*
G04 PC Circuitry*
G04 Layer Name NewICE to OLDICE.pcb - circuitry*
%LPD*%
*
G54D10*
G54D23*
G01X151000Y180000D02*
X159000D01*
X155000Y176000D02*
Y184000D01*
X151000Y190000D02*
X159000D01*
X155000Y186000D02*
Y194000D01*
X151000Y200000D02*
X159000D01*
X155000Y196000D02*
Y204000D01*
X151000Y210000D02*
X159000D01*
X155000Y206000D02*
Y214000D01*
X151000Y220000D02*
X159000D01*
X155000Y216000D02*
Y224000D01*
X141000Y220000D02*
X149000D01*
X145000Y216000D02*
Y224000D01*
X141000Y210000D02*
X149000D01*
X145000Y206000D02*
Y214000D01*
X141000Y200000D02*
X149000D01*
X145000Y196000D02*
Y204000D01*
X141000Y190000D02*
X149000D01*
X145000Y186000D02*
Y194000D01*
X141000Y180000D02*
X149000D01*
X145000Y176000D02*
Y184000D01*
X236000Y220000D02*
X244000D01*
X240000Y216000D02*
Y224000D01*
X236000Y210000D02*
X244000D01*
X240000Y206000D02*
Y214000D01*
X236000Y200000D02*
X244000D01*
X240000Y196000D02*
Y204000D01*
X236000Y190000D02*
X244000D01*
X240000Y186000D02*
Y194000D01*
X236000Y180000D02*
X244000D01*
X240000Y176000D02*
Y184000D01*
X131000Y171000D02*
X139000Y179000D01*
X131000D02*
X139000Y171000D01*
X131000Y221000D02*
X139000Y229000D01*
X131000D02*
X139000Y221000D01*
X146000Y156000D02*
X154000Y164000D01*
X146000D02*
X154000Y156000D01*
X166000D02*
X174000Y164000D01*
X166000D02*
X174000Y156000D01*
X196000D02*
X204000Y164000D01*
X196000D02*
X204000Y156000D01*
X226000D02*
X234000Y164000D01*
X226000D02*
X234000Y156000D01*
X146000Y236000D02*
X154000Y244000D01*
X146000D02*
X154000Y236000D01*
X226000D02*
X234000Y244000D01*
X226000D02*
X234000Y236000D01*
X166000D02*
X174000Y244000D01*
X166000D02*
X174000Y236000D01*
X196000D02*
X204000Y244000D01*
X196000D02*
X204000Y236000D01*
X125200Y140000D02*
X249000D01*
Y260000*
X125200*
Y140000*
X140636Y239700D02*
G75*
G03X140636I-5636J0D01*
G01X140961Y159900D02*
G03X140961I-6061J0D01*
G01X200000Y272000D02*
X458000D01*
X200000Y248000D02*
X458000D01*
X200000Y224000D02*
X458000D01*
X200000Y200000D02*
X458000D01*
X200000Y272000D02*
Y200000D01*
X284000Y272000D02*
Y200000D01*
X320000Y272000D02*
Y200000D01*
X356000Y272000D02*
Y200000D01*
X410000Y272000D02*
Y200000D01*
X458000Y272000D02*
Y200000D01*
X235500Y260750D02*
X234955Y261500D01*
X234136Y261875*
X233045*
X232227Y261500*
X231682Y260750*
Y260000*
X231955Y259250*
X232227Y258875*
X232773Y258500*
X234409Y257750*
X234955Y257375*
X235227Y257000*
X235500Y256250*
Y255125*
X234955Y254375*
X234136Y254000*
X233045*
X232227Y254375*
X231682Y255125*
X237955Y261875D02*
Y254000D01*
X244227Y261875D02*
X240409Y254000D01*
Y261875D02*
X244227D01*
X240409Y254000D02*
X244227D01*
X246682Y261875D02*
Y254000D01*
Y261875D02*
X250227D01*
X246682Y258125D02*
X248864D01*
X246682Y254000D02*
X250227D01*
X293864Y261875D02*
X293318Y261500D01*
X292773Y260750*
X292500Y260000*
X292227Y258875*
Y257000*
X292500Y255875*
X292773Y255125*
X293318Y254375*
X293864Y254000*
X294955*
X295500Y254375*
X296045Y255125*
X296318Y255875*
X296591Y257000*
Y258875*
X296318Y260000*
X296045Y260750*
X295500Y261500*
X294955Y261875*
X293864*
X294682Y255500D02*
X296318Y253250D01*
X300955Y261875D02*
Y254000D01*
X299045Y261875D02*
X302864D01*
X305318D02*
X307500Y258125D01*
Y254000*
X309682Y261875D02*
X307500Y258125D01*
X332045Y260750D02*
X331500Y261500D01*
X330682Y261875*
X329591*
X328773Y261500*
X328227Y260750*
Y260000*
X328500Y259250*
X328773Y258875*
X329318Y258500*
X330955Y257750*
X331500Y257375*
X331773Y257000*
X332045Y256250*
Y255125*
X331500Y254375*
X330682Y254000*
X329591*
X328773Y254375*
X328227Y255125*
X334500Y261875D02*
X336682Y258125D01*
Y254000*
X338864Y261875D02*
X336682Y258125D01*
X341318Y261875D02*
Y254000D01*
Y261875D02*
X343500Y254000D01*
X345682Y261875D02*
X343500Y254000D01*
X345682Y261875D02*
Y254000D01*
X367500Y261875D02*
Y254000D01*
Y261875D02*
X369955D01*
X370773Y261500*
X371045Y261125*
X371318Y260375*
Y259250*
X371045Y258500*
X370773Y258125*
X369955Y257750*
X367500*
X373773Y261875D02*
Y254000D01*
X377045*
X381682Y261875D02*
X379500Y254000D01*
X381682Y261875D02*
X383864Y254000D01*
X380318Y256625D02*
X383045D01*
X388227Y261875D02*
Y254000D01*
X386318Y261875D02*
X390136D01*
X392591D02*
Y254000D01*
Y261875D02*
X396136D01*
X392591Y258125D02*
X394773D01*
X392591Y254000D02*
X396136D01*
X398591Y261875D02*
Y254000D01*
Y261875D02*
X400500D01*
X401318Y261500*
X401864Y260750*
X402136Y260000*
X402409Y258875*
Y257000*
X402136Y255875*
X401864Y255125*
X401318Y254375*
X400500Y254000*
X398591*
X426682Y261875D02*
Y254000D01*
X424773Y261875D02*
X428591D01*
X432682D02*
X432136Y261500D01*
X431591Y260750*
X431318Y260000*
X431045Y258875*
Y257000*
X431318Y255875*
X431591Y255125*
X432136Y254375*
X432682Y254000*
X433773*
X434318Y254375*
X434864Y255125*
X435136Y255875*
X435409Y257000*
Y258875*
X435136Y260000*
X434864Y260750*
X434318Y261500*
X433773Y261875*
X432682*
X437864D02*
Y254000D01*
X441136*
X206545Y237875D02*
X209545D01*
X207909Y234875*
X208727*
X209273Y234500*
X209545Y234125*
X209818Y233000*
Y232250*
X209545Y231125*
X209000Y230375*
X208182Y230000*
X207364*
X206545Y230375*
X206273Y230750*
X206000Y231500*
X215818Y235250D02*
X215545Y234125D01*
X215000Y233375*
X214182Y233000*
X213909*
X213091Y233375*
X212545Y234125*
X212273Y235250*
Y235625*
X212545Y236750*
X213091Y237500*
X213909Y237875*
X214182*
X215000Y237500*
X215545Y236750*
X215818Y235250*
Y233375*
X215545Y231500*
X215000Y230375*
X214182Y230000*
X213636*
X212818Y230375*
X212545Y231125*
X218545Y230750D02*
X218273Y230375D01*
X218545Y230000*
X218818Y230375*
X218545Y230750*
X221818Y237875D02*
X224818D01*
X223182Y234875*
X224000*
X224545Y234500*
X224818Y234125*
X225091Y233000*
Y232250*
X224818Y231125*
X224273Y230375*
X223455Y230000*
X222636*
X221818Y230375*
X221545Y230750*
X221273Y231500*
X231364Y237875D02*
X228636Y230000D01*
X227545Y237875D02*
X231364D01*
X297000Y236375D02*
X297545Y236750D01*
X298364Y237875*
Y230000*
X304364Y237875D02*
X301636D01*
X301364Y234500*
X301636Y234875*
X302455Y235250*
X303273*
X304091Y234875*
X304636Y234125*
X304909Y233000*
X304636Y232250*
X304364Y231125*
X303818Y230375*
X303000Y230000*
X302182*
X301364Y230375*
X301091Y230750*
X300818Y231500*
X332000Y236000D02*
X344000D01*
X338000Y230000D02*
Y242000D01*
X364636Y237875D02*
X366818Y234125D01*
Y230000*
X369000Y237875D02*
X366818Y234125D01*
X371455Y237875D02*
Y230000D01*
Y237875D02*
X375000D01*
X371455Y234125D02*
X373636D01*
X371455Y230000D02*
X375000D01*
X381273Y236750D02*
X380727Y237500D01*
X379909Y237875*
X378818*
X378000Y237500*
X377455Y236750*
Y236000*
X377727Y235250*
X378000Y234875*
X378545Y234500*
X380182Y233750*
X380727Y233375*
X381000Y233000*
X381273Y232250*
Y231125*
X380727Y230375*
X379909Y230000*
X378818*
X378000Y230375*
X377455Y231125*
X417818Y236750D02*
Y230000D01*
X415364Y233375D02*
X420273D01*
X427636Y239375D02*
X422727Y227375D01*
X430091Y233375D02*
X435000D01*
X439091Y237875D02*
X438273Y237500D01*
X437727Y236375*
X437455Y234500*
Y233375*
X437727Y231500*
X438273Y230375*
X439091Y230000*
X439636*
X440455Y230375*
X441000Y231500*
X441273Y233375*
Y234500*
X441000Y236375*
X440455Y237500*
X439636Y237875*
X439091*
X444000Y230750D02*
X443727Y230375D01*
X444000Y230000*
X444273Y230375*
X444000Y230750*
X448364Y237875D02*
X447545Y237500D01*
X447000Y236375*
X446727Y234500*
Y233375*
X447000Y231500*
X447545Y230375*
X448364Y230000*
X448909*
X449727Y230375*
X450273Y231500*
X450545Y233375*
Y234500*
X450273Y236375*
X449727Y237500*
X448909Y237875*
X448364*
X206000Y212375D02*
X206545Y212750D01*
X207364Y213875*
Y206000*
X213364Y213875D02*
X210636D01*
X210364Y210500*
X210636Y210875*
X211455Y211250*
X212273*
X213091Y210875*
X213636Y210125*
X213909Y209000*
X213636Y208250*
X213364Y207125*
X212818Y206375*
X212000Y206000*
X211182*
X210364Y206375*
X210091Y206750*
X209818Y207500*
X216636Y206750D02*
X216364Y206375D01*
X216636Y206000*
X216909Y206375*
X216636Y206750*
X223182Y213875D02*
X220455Y206000D01*
X219364Y213875D02*
X223182D01*
X229182D02*
X226455D01*
X226182Y210500*
X226455Y210875*
X227273Y211250*
X228091*
X228909Y210875*
X229455Y210125*
X229727Y209000*
X229455Y208250*
X229182Y207125*
X228636Y206375*
X227818Y206000*
X227000*
X226182Y206375*
X225909Y206750*
X225636Y207500*
X297136Y212375D02*
X297682Y212750D01*
X298500Y213875*
Y206000*
X302591Y213875D02*
X301773Y213500D01*
X301227Y212375*
X300955Y210500*
Y209375*
X301227Y207500*
X301773Y206375*
X302591Y206000*
X303136*
X303955Y206375*
X304500Y207500*
X304773Y209375*
Y210500*
X304500Y212375*
X303955Y213500*
X303136Y213875*
X302591*
X332000Y206000D02*
X344000Y218000D01*
X332000D02*
X344000Y206000D01*
X364636Y213875D02*
X366818Y210125D01*
Y206000*
X369000Y213875D02*
X366818Y210125D01*
X371455Y213875D02*
Y206000D01*
Y213875D02*
X375000D01*
X371455Y210125D02*
X373636D01*
X371455Y206000D02*
X375000D01*
X381273Y212750D02*
X380727Y213500D01*
X379909Y213875*
X378818*
X378000Y213500*
X377455Y212750*
Y212000*
X377727Y211250*
X378000Y210875*
X378545Y210500*
X380182Y209750*
X380727Y209375*
X381000Y209000*
X381273Y208250*
Y207125*
X380727Y206375*
X379909Y206000*
X378818*
X378000Y206375*
X377455Y207125*
X417818Y212750D02*
Y206000D01*
X415364Y209375D02*
X420273D01*
X427636Y215375D02*
X422727Y203375D01*
X430091Y209375D02*
X435000D01*
X439091Y213875D02*
X438273Y213500D01*
X437727Y212375*
X437455Y210500*
Y209375*
X437727Y207500*
X438273Y206375*
X439091Y206000*
X439636*
X440455Y206375*
X441000Y207500*
X441273Y209375*
Y210500*
X441000Y212375*
X440455Y213500*
X439636Y213875*
X439091*
X444000Y206750D02*
X443727Y206375D01*
X444000Y206000*
X444273Y206375*
X444000Y206750*
X448364Y213875D02*
X447545Y213500D01*
X447000Y212375*
X446727Y210500*
Y209375*
X447000Y207500*
X447545Y206375*
X448364Y206000*
X448909*
X449727Y206375*
X450273Y207500*
X450545Y209375*
Y210500*
X450273Y212375*
X449727Y213500*
X448909Y213875*
X448364*
G74*
X0Y0D02*
M02*
