M48
;FILE_FORMAT=2:4
INCH,LZ
FMAT,2
ICI,OFF
;TYPE=PLATED
T1C.01575
T2C.03937
%
M72
G90
G93X0Y0
T1C.01575F095S3
X015Y016
X0135Y0175
X0135Y0225
X015Y024
X017Y024
X02Y024
X02Y016
X017Y016
X023Y016
X023Y024
T2C.03937F197S55
X0155Y018
X0145Y018
X0145Y019
X0155Y019
X0145Y02
X0155Y02
X0145Y021
X0155Y021
X0145Y022
X0155Y022
X024Y022
X024Y021
X024Y02
X024Y019
X024Y018
M30
