*
*
G04 PADS VX.2.4 Build Number: 11282995 generated Gerber (RS-274-X) file*
G04 PC Version=2.1*
*
%IN "WriterTranBo(Empty).pcb"*%
*
%MOIN*%
*
%FSLAX35Y35*%
*
*
*
*
G04 PC Standard Apertures*
*
*
G04 Thermal Relief Aperture macro.*
%AMTER*
1,1,$1,0,0*
1,0,$1-$2,0,0*
21,0,$3,$4,0,0,45*
21,0,$3,$4,0,0,135*
%
*
*
G04 Annular Aperture macro.*
%AMANN*
1,1,$1,0,0*
1,0,$2,0,0*
%
*
*
G04 Odd Aperture macro.*
%AMODD*
1,1,$1,0,0*
1,0,$1-0.005,0,0*
%
*
*
G04 PC Custom Aperture Macros*
*
*
*
*
*
*
G04 PC Aperture Table*
*
%ADD010C,0.001*%
%ADD014C,0.06*%
%ADD019R,0.06X0.05*%
%ADD022C,0.02*%
%ADD035R,0.07087X0.07087*%
%ADD036C,0.07087*%
%ADD052C,0.015*%
%ADD081R,0.03543X0.0315*%
%ADD084C,0.0315*%
%ADD086C,0.025*%
*
*
*
*
G04 PC Circuitry*
G04 Layer Name WriterTranBo(Empty).pcb - circuitry*
%LPD*%
*
*
G04 PC Custom Flashes*
G04 Layer Name WriterTranBo(Empty).pcb - flashes*
%LPD*%
*
*
G04 PC Circuitry*
G04 Layer Name WriterTranBo(Empty).pcb - circuitry*
%LPD*%
*
G54D10*
G54D14*
G01X240000Y295000D03*
Y285000D03*
Y275000D03*
Y265000D03*
Y255000D03*
Y245000D03*
Y235000D03*
Y225000D03*
Y215000D03*
Y205000D03*
Y195000D03*
Y185000D03*
Y175000D03*
Y165000D03*
Y155000D03*
Y145000D03*
Y135000D03*
Y125000D03*
Y115000D03*
Y105000D03*
X300000D03*
Y115000D03*
Y125000D03*
Y135000D03*
Y145000D03*
Y155000D03*
Y165000D03*
Y175000D03*
Y185000D03*
Y195000D03*
Y205000D03*
Y215000D03*
Y225000D03*
Y235000D03*
Y245000D03*
Y255000D03*
Y265000D03*
Y275000D03*
Y285000D03*
Y295000D03*
G54D19*
X204500D03*
X195500D03*
G54D22*
X114000Y94000D02*
X124000D01*
Y180000*
Y94000D02*
X134000D01*
X144000*
X124000Y220000D02*
Y290500D01*
X128500Y295000*
X195500*
X124000Y200000D02*
X257000D01*
X262000Y205000*
Y275000*
X272000Y285000*
X300000*
X124000Y190000D02*
X257000D01*
X270000Y203000*
Y266000*
X279000Y275000*
X300000*
X196457Y310000D02*
Y315100D01*
X200200Y318843*
X235900*
X240043Y314700*
X203543Y310000D02*
X204500Y309043D01*
Y295000*
X195500D02*
Y309043D01*
X196457Y310000*
X204500Y286700D02*
Y295000D01*
X240000D02*
X240043Y295043D01*
Y314700*
X121000Y217000D02*
Y296000D01*
X191000*
Y320000*
X243000*
Y293000*
X237000*
Y316600*
X197400*
Y291000*
X127000*
Y217000*
X121000*
X202600Y310900D02*
Y285800D01*
X207000*
Y310900*
X202600*
X121000Y212300D02*
Y207500D01*
X148400*
Y263000*
X241800*
Y266900*
X141700*
Y212300*
X121000*
X110300Y89400D02*
X147600D01*
Y98700*
X110300*
Y89400*
X296000Y293000D02*
X304000D01*
Y299000*
X296000*
Y293000*
X121000Y183000D02*
X128000D01*
Y175000*
X121000*
Y183000*
X191000Y319599D02*
X243000D01*
X191000Y317799D02*
X243000D01*
X237000Y315999D02*
X243000D01*
X237000Y314199D02*
X243000D01*
X237000Y312399D02*
X243000D01*
X237000Y310599D02*
X243000D01*
X237000Y308799D02*
X243000D01*
X237000Y306999D02*
X243000D01*
X237000Y305199D02*
X243000D01*
X237000Y303399D02*
X243000D01*
X237000Y301599D02*
X243000D01*
X237000Y299799D02*
X243000D01*
X237000Y297999D02*
X243000D01*
X237000Y296199D02*
X243000D01*
X237000Y294399D02*
X243000D01*
X191000Y315999D02*
X197400D01*
X191000Y314199D02*
X197400D01*
X191000Y312399D02*
X197400D01*
X191000Y310599D02*
X197400D01*
X191000Y308799D02*
X197400D01*
X191000Y306999D02*
X197400D01*
X191000Y305199D02*
X197400D01*
X191000Y303399D02*
X197400D01*
X191000Y301599D02*
X197400D01*
X191000Y299799D02*
X197400D01*
X191000Y297999D02*
X197400D01*
X191000Y296199D02*
X197400D01*
X121000Y294399D02*
X197400D01*
X121000Y292599D02*
X197400D01*
X121000Y290799D02*
X127000D01*
X121000Y288999D02*
X127000D01*
X121000Y287199D02*
X127000D01*
X121000Y285399D02*
X127000D01*
X121000Y283599D02*
X127000D01*
X121000Y281799D02*
X127000D01*
X121000Y279999D02*
X127000D01*
X121000Y278199D02*
X127000D01*
X121000Y276399D02*
X127000D01*
X121000Y274599D02*
X127000D01*
X121000Y272799D02*
X127000D01*
X121000Y270999D02*
X127000D01*
X121000Y269199D02*
X127000D01*
X121000Y267399D02*
X127000D01*
X121000Y265599D02*
X127000D01*
X121000Y263799D02*
X127000D01*
X121000Y261999D02*
X127000D01*
X121000Y260199D02*
X127000D01*
X121000Y258399D02*
X127000D01*
X121000Y256599D02*
X127000D01*
X121000Y254799D02*
X127000D01*
X121000Y252999D02*
X127000D01*
X121000Y251199D02*
X127000D01*
X121000Y249399D02*
X127000D01*
X121000Y247599D02*
X127000D01*
X121000Y245799D02*
X127000D01*
X121000Y243999D02*
X127000D01*
X121000Y242199D02*
X127000D01*
X121000Y240399D02*
X127000D01*
X121000Y238599D02*
X127000D01*
X121000Y236799D02*
X127000D01*
X121000Y234999D02*
X127000D01*
X121000Y233199D02*
X127000D01*
X121000Y231399D02*
X127000D01*
X121000Y229599D02*
X127000D01*
X121000Y227799D02*
X127000D01*
X121000Y225999D02*
X127000D01*
X121000Y224199D02*
X127000D01*
X121000Y222399D02*
X127000D01*
X121000Y220599D02*
X127000D01*
X121000Y218799D02*
X127000D01*
X202600Y309199D02*
X207000D01*
X202600Y307399D02*
X207000D01*
X202600Y305599D02*
X207000D01*
X202600Y303799D02*
X207000D01*
X202600Y301999D02*
X207000D01*
X202600Y300199D02*
X207000D01*
X202600Y298399D02*
X207000D01*
X202600Y296599D02*
X207000D01*
X202600Y294799D02*
X207000D01*
X202600Y292999D02*
X207000D01*
X202600Y291199D02*
X207000D01*
X202600Y289399D02*
X207000D01*
X202600Y287599D02*
X207000D01*
X141700Y266899D02*
X241800D01*
X141700Y265099D02*
X241800D01*
X141700Y263299D02*
X241800D01*
X141700Y261499D02*
X148400D01*
X141700Y259699D02*
X148400D01*
X141700Y257899D02*
X148400D01*
X141700Y256099D02*
X148400D01*
X141700Y254299D02*
X148400D01*
X141700Y252499D02*
X148400D01*
X141700Y250699D02*
X148400D01*
X141700Y248899D02*
X148400D01*
X141700Y247099D02*
X148400D01*
X141700Y245299D02*
X148400D01*
X141700Y243499D02*
X148400D01*
X141700Y241699D02*
X148400D01*
X141700Y239899D02*
X148400D01*
X141700Y238099D02*
X148400D01*
X141700Y236299D02*
X148400D01*
X141700Y234499D02*
X148400D01*
X141700Y232699D02*
X148400D01*
X141700Y230899D02*
X148400D01*
X141700Y229099D02*
X148400D01*
X141700Y227299D02*
X148400D01*
X141700Y225499D02*
X148400D01*
X141700Y223699D02*
X148400D01*
X141700Y221899D02*
X148400D01*
X141700Y220099D02*
X148400D01*
X141700Y218299D02*
X148400D01*
X141700Y216499D02*
X148400D01*
X141700Y214699D02*
X148400D01*
X141700Y212899D02*
X148400D01*
X121000Y211099D02*
X148400D01*
X121000Y209299D02*
X148400D01*
X110300Y98399D02*
X147600D01*
X110300Y96599D02*
X147600D01*
X110300Y94799D02*
X147600D01*
X110300Y92999D02*
X147600D01*
X110300Y91199D02*
X147600D01*
X296000Y298399D02*
X304000D01*
X296000Y296599D02*
X304000D01*
X296000Y294799D02*
X304000D01*
X121000Y182199D02*
X128000D01*
X121000Y180399D02*
X128000D01*
X121000Y178599D02*
X128000D01*
X121000Y176799D02*
X128000D01*
X323575Y110000D02*
G75*
G03X323575I-3575J0D01*
G01Y140000D02*
G03X323575I-3575J0D01*
G01Y170000D02*
G03X323575I-3575J0D01*
G01Y200000D02*
G03X323575I-3575J0D01*
G01Y230000D02*
G03X323575I-3575J0D01*
G01Y270000D02*
G03X323575I-3575J0D01*
G01Y310000D02*
G03X323575I-3575J0D01*
G01X263575Y110000D02*
G03X263575I-3575J0D01*
G01Y140000D02*
G03X263575I-3575J0D01*
G01Y170000D02*
G03X263575I-3575J0D01*
G01X203575Y110000D02*
G03X203575I-3575J0D01*
G01Y140000D02*
G03X203575I-3575J0D01*
G01Y170000D02*
G03X203575I-3575J0D01*
G01X173575Y110000D02*
G03X173575I-3575J0D01*
G01Y140000D02*
G03X173575I-3575J0D01*
G01Y170000D02*
G03X173575I-3575J0D01*
G01Y310000D02*
G03X173575I-3575J0D01*
G01X143575D02*
G03X143575I-3575J0D01*
G01Y110000D02*
G03X143575I-3575J0D01*
G01Y140000D02*
G03X143575I-3575J0D01*
G01Y170000D02*
G03X143575I-3575J0D01*
G01X173575Y280000D02*
G03X173575I-3575J0D01*
G01X143575D02*
G03X143575I-3575J0D01*
G01X173575Y210000D02*
G03X173575I-3575J0D01*
G01Y230000D02*
G03X173575I-3575J0D01*
G01Y250000D02*
G03X173575I-3575J0D01*
G01X328000Y327000D02*
G03X327000Y328000I-1000J-0D01*
G01X96000*
G03X95000Y327000I0J-1000*
G01Y243432*
G03X96915Y243030I1000J0*
G01Y236970D02*
G03Y243030I6885J3030D01*
G01Y236970D02*
G03X95000Y236568I-915J-402D01*
G01Y162268*
G03X96966Y162010I1000J0*
G01Y158190D02*
G03Y162010I7134J1910D01*
G01Y158190D02*
G03X95000Y157932I-966J-258D01*
G01Y73000*
G03X96000Y72000I1000J0*
G01X327000*
G03X328000Y73000I-0J1000*
G01Y327000*
X235000Y285000D02*
G03X237236Y280833I5000J0D01*
G01X236437Y288507D02*
G03X235000Y285000I3563J-3507D01*
G01X236437Y288507D02*
G03X236724Y289209I-713J702D01*
X236043Y290157I-1000J-0*
G01X234000Y293000D02*
G03X236043Y290157I3000J0D01*
G01X234000Y293000D02*
Y312600D01*
G03X233000Y313600I-1000J-0*
G01X208134*
G03X207195Y312258I0J-1000*
G01X207315Y311575D02*
G03X207195Y312258I-2000J-0D01*
G01X207315Y311575D02*
Y308425D01*
X205315Y306425D02*
G03X207315Y308425I-0J2000D01*
G01X205315Y306425D02*
X201772D01*
X201524Y306441D02*
G03X201772Y306425I248J1984D01*
G01X201524Y306441D02*
G03X200400Y305448I-124J-993D01*
G01Y300498*
G03X201433Y299499I1000J0*
G01X201500Y299500D02*
G03X201433Y299499I-0J-2000D01*
G01X201500Y299500D02*
X207500D01*
X209500Y297500D02*
G03X207500Y299500I-2000J0D01*
G01X209500Y297500D02*
Y292500D01*
X207883Y290537D02*
G03X209500Y292500I-383J1963D01*
G01X207883Y290537D02*
G03X207293Y288931I191J-982D01*
G01X208075Y286700D02*
G03X207293Y288931I-3575J0D01*
G01X200925Y286700D02*
G03X208075I3575J0D01*
G01X200925D02*
X200925D01*
X201093Y287783D02*
G03X200925Y286700I3407J-1083D01*
G01X201093Y287783D02*
G03X199455Y288814I-953J303D01*
G01X197400Y288000D02*
G03X199455Y288814I-0J3000D01*
G01X197400Y288000D02*
X131000D01*
G03X130000Y287000I0J-1000*
G01Y217000*
X129954Y216475D02*
G03X130000Y217000I-2954J525D01*
G01X129954Y216475D02*
G03X130938Y215300I984J-175D01*
G01X137700*
G03X138700Y216300I-0J1000*
G01Y266900*
X141700Y269900D02*
G03X138700Y266900I0J-3000D01*
G01X141700Y269900D02*
X235619D01*
G03X236619Y270900I0J1000*
X236349Y271583I-1000J0*
G01X235000Y275000D02*
G03X236349Y271583I5000J0D01*
G01X237236Y279167D02*
G03X235000Y275000I2764J-4167D01*
G01X237236Y279167D02*
G03Y280833I-553J833D01*
G01X235000Y255000D02*
G03X237236Y250833I5000J0D01*
G01X236273Y258333D02*
G03X235000Y255000I3727J-3333D01*
G01X236273Y258333D02*
G03X235528Y260000I-745J667D01*
G01X152400*
G03X151400Y259000I0J-1000*
G01Y207500*
X149852Y204875D02*
G03X151400Y207500I-1452J2625D01*
G01X149852Y204875D02*
G03X150337Y203000I485J-875D01*
G01X234084*
G03X235070Y204167I-0J1000*
G01X235000Y205000D02*
G03X235070Y204167I5000J-0D01*
G01X235000Y205000D02*
X235000D01*
X237236Y209167D02*
G03X235000Y205000I2764J-4167D01*
G01X237236Y209167D02*
G03Y210833I-553J833D01*
G01Y219167D02*
G03Y210833I2764J-4167D01*
G01Y219167D02*
G03Y220833I-553J833D01*
G01Y229167D02*
G03Y220833I2764J-4167D01*
G01Y229167D02*
G03Y230833I-553J833D01*
G01Y239167D02*
G03Y230833I2764J-4167D01*
G01Y239167D02*
G03Y240833I-553J833D01*
G01Y249167D02*
G03Y240833I2764J-4167D01*
G01Y249167D02*
G03Y250833I-553J833D01*
G01X323575Y110000D02*
G03X323575I-3575J0D01*
G01Y140000D02*
G03X323575I-3575J0D01*
G01Y170000D02*
G03X323575I-3575J0D01*
G01Y200000D02*
G03X323575I-3575J0D01*
G01Y230000D02*
G03X323575I-3575J0D01*
G01Y270000D02*
G03X323575I-3575J0D01*
G01Y310000D02*
G03X323575I-3575J0D01*
G01X302764Y290833D02*
G03Y289167I553J-833D01*
G01Y280833D02*
G03Y289167I-2764J4167D01*
G01Y280833D02*
G03Y279167I553J-833D01*
G01Y270833D02*
G03Y279167I-2764J4167D01*
G01Y270833D02*
G03Y269167I553J-833D01*
G01Y260833D02*
G03Y269167I-2764J4167D01*
G01Y260833D02*
G03Y259167I553J-833D01*
G01Y250833D02*
G03Y259167I-2764J4167D01*
G01Y250833D02*
G03Y249167I553J-833D01*
G01Y240833D02*
G03Y249167I-2764J4167D01*
G01Y240833D02*
G03Y239167I553J-833D01*
G01Y230833D02*
G03Y239167I-2764J4167D01*
G01Y230833D02*
G03Y229167I553J-833D01*
G01Y220833D02*
G03Y229167I-2764J4167D01*
G01Y220833D02*
G03Y219167I553J-833D01*
G01Y210833D02*
G03Y219167I-2764J4167D01*
G01Y210833D02*
G03Y209167I553J-833D01*
G01Y200833D02*
G03Y209167I-2764J4167D01*
G01Y200833D02*
G03Y199167I553J-833D01*
G01Y190833D02*
G03Y199167I-2764J4167D01*
G01Y190833D02*
G03Y189167I553J-833D01*
G01Y180833D02*
G03Y189167I-2764J4167D01*
G01Y180833D02*
G03Y179167I553J-833D01*
G01Y170833D02*
G03Y179167I-2764J4167D01*
G01Y170833D02*
G03Y169167I553J-833D01*
G01Y160833D02*
G03Y169167I-2764J4167D01*
G01Y160833D02*
G03Y159167I553J-833D01*
G01Y150833D02*
G03Y159167I-2764J4167D01*
G01Y150833D02*
G03Y149167I553J-833D01*
G01Y140833D02*
G03Y149167I-2764J4167D01*
G01Y140833D02*
G03Y139167I553J-833D01*
G01Y130833D02*
G03Y139167I-2764J4167D01*
G01Y130833D02*
G03Y129167I553J-833D01*
G01Y120833D02*
G03Y129167I-2764J4167D01*
G01Y120833D02*
G03Y119167I553J-833D01*
G01Y110833D02*
G03Y119167I-2764J4167D01*
G01Y110833D02*
G03Y109167I553J-833D01*
G01X305000Y105000D02*
G03X302764Y109167I-5000J0D01*
G01X295000Y105000D02*
G03X305000I5000J0D01*
G01X297236Y109167D02*
G03X295000Y105000I2764J-4167D01*
G01X297236Y109167D02*
G03Y110833I-553J833D01*
G01Y119167D02*
G03Y110833I2764J-4167D01*
G01Y119167D02*
G03Y120833I-553J833D01*
G01Y129167D02*
G03Y120833I2764J-4167D01*
G01Y129167D02*
G03Y130833I-553J833D01*
G01Y139167D02*
G03Y130833I2764J-4167D01*
G01Y139167D02*
G03Y140833I-553J833D01*
G01Y149167D02*
G03Y140833I2764J-4167D01*
G01Y149167D02*
G03Y150833I-553J833D01*
G01Y159167D02*
G03Y150833I2764J-4167D01*
G01Y159167D02*
G03Y160833I-553J833D01*
G01Y169167D02*
G03Y160833I2764J-4167D01*
G01Y169167D02*
G03Y170833I-553J833D01*
G01Y179167D02*
G03Y170833I2764J-4167D01*
G01Y179167D02*
G03Y180833I-553J833D01*
G01Y189167D02*
G03Y180833I2764J-4167D01*
G01Y189167D02*
G03Y190833I-553J833D01*
G01Y199167D02*
G03Y190833I2764J-4167D01*
G01Y199167D02*
G03Y200833I-553J833D01*
G01Y209167D02*
G03Y200833I2764J-4167D01*
G01Y209167D02*
G03Y210833I-553J833D01*
G01Y219167D02*
G03Y210833I2764J-4167D01*
G01Y219167D02*
G03Y220833I-553J833D01*
G01Y229167D02*
G03Y220833I2764J-4167D01*
G01Y229167D02*
G03Y230833I-553J833D01*
G01Y239167D02*
G03Y230833I2764J-4167D01*
G01Y239167D02*
G03Y240833I-553J833D01*
G01Y249167D02*
G03Y240833I2764J-4167D01*
G01Y249167D02*
G03Y250833I-553J833D01*
G01Y259167D02*
G03Y250833I2764J-4167D01*
G01Y259167D02*
G03Y260833I-553J833D01*
G01Y269167D02*
G03Y260833I2764J-4167D01*
G01Y269167D02*
G03X297683Y270000I-553J833D01*
X297236Y270833I-1000J0*
G01X296273Y271667D02*
G03X297236Y270833I3727J3333D01*
G01X296273Y271667D02*
G03X295528Y272000I-745J-667D01*
G01X280657*
G03X279950Y271707I-0J-1000*
G01X273293Y265050*
G03X273000Y264343I707J-707*
G01Y203000*
X272121Y200879D02*
G03X273000Y203000I-2121J2121D01*
G01X272121Y200879D02*
X259121Y187879D01*
X257000Y187000D02*
G03X259121Y187879I-0J3000D01*
G01X257000Y187000D02*
X245916D01*
G03X244930Y185833I0J-1000*
G01X245000Y185000D02*
G03X244930Y185833I-5000J0D01*
G01X245000Y185000D02*
X245000D01*
X242764Y180833D02*
G03X245000Y185000I-2764J4167D01*
G01X242764Y180833D02*
G03Y179167I553J-833D01*
G01Y170833D02*
G03Y179167I-2764J4167D01*
G01Y170833D02*
G03Y169167I553J-833D01*
G01Y160833D02*
G03Y169167I-2764J4167D01*
G01Y160833D02*
G03Y159167I553J-833D01*
G01Y150833D02*
G03Y159167I-2764J4167D01*
G01Y150833D02*
G03Y149167I553J-833D01*
G01Y140833D02*
G03Y149167I-2764J4167D01*
G01Y140833D02*
G03Y139167I553J-833D01*
G01Y130833D02*
G03Y139167I-2764J4167D01*
G01Y130833D02*
G03Y129167I553J-833D01*
G01Y120833D02*
G03Y129167I-2764J4167D01*
G01Y120833D02*
G03Y119167I553J-833D01*
G01Y110833D02*
G03Y119167I-2764J4167D01*
G01Y110833D02*
G03Y109167I553J-833D01*
G01X245000Y105000D02*
G03X242764Y109167I-5000J0D01*
G01X235000Y105000D02*
G03X245000I5000J0D01*
G01X237236Y109167D02*
G03X235000Y105000I2764J-4167D01*
G01X237236Y109167D02*
G03Y110833I-553J833D01*
G01Y119167D02*
G03Y110833I2764J-4167D01*
G01Y119167D02*
G03Y120833I-553J833D01*
G01Y129167D02*
G03Y120833I2764J-4167D01*
G01Y129167D02*
G03Y130833I-553J833D01*
G01Y139167D02*
G03Y130833I2764J-4167D01*
G01Y139167D02*
G03Y140833I-553J833D01*
G01Y149167D02*
G03Y140833I2764J-4167D01*
G01Y149167D02*
G03Y150833I-553J833D01*
G01Y159167D02*
G03Y150833I2764J-4167D01*
G01Y159167D02*
G03Y160833I-553J833D01*
G01Y169167D02*
G03Y160833I2764J-4167D01*
G01Y169167D02*
G03Y170833I-553J833D01*
G01Y179167D02*
G03Y170833I2764J-4167D01*
G01Y179167D02*
G03Y180833I-553J833D01*
G01X235000Y185000D02*
G03X237236Y180833I5000J0D01*
G01X235000Y185000D02*
X235000D01*
X235070Y185833D02*
G03X235000Y185000I4930J-833D01*
G01X235070Y185833D02*
G03X234084Y187000I-986J167D01*
G01X129265*
G03X128691Y185181I0J-1000*
G01X129543Y183543D02*
G03X128691Y185181I-2000J0D01*
G01X129543Y183543D02*
Y176457D01*
X127543Y174457D02*
G03X129543Y176457I0J2000D01*
G01X127543Y174457D02*
X120457D01*
X118793Y175347D02*
G03X120457Y174457I1664J1110D01*
G01X118793Y175347D02*
G03X117356Y175588I-832J-555D01*
G01X108457Y180000D02*
G03X117356Y175588I5543J0D01*
G01X110424Y184236D02*
G03X108457Y180000I3576J-4236D01*
G01X110424Y184236D02*
G03Y185764I-645J764D01*
G01Y194236D02*
G03Y185764I3576J-4236D01*
G01Y194236D02*
G03Y195764I-645J764D01*
G01Y204236D02*
G03Y195764I3576J-4236D01*
G01Y204236D02*
G03Y205764I-645J764D01*
G01Y214236D02*
G03Y205764I3576J-4236D01*
G01Y214236D02*
G03Y215764I-645J764D01*
G01X108457Y220000D02*
G03X110424Y215764I5543J0D01*
G01X116541Y224926D02*
G03X108457Y220000I-2541J-4926D01*
G01X116542Y224926D02*
G03X118000Y225815I458J889D01*
G01Y296000*
X121000Y299000D02*
G03X118000Y296000I0J-3000D01*
G01X121000Y299000D02*
X187000D01*
G03X188000Y300000I-0J1000*
G01Y320000*
X191000Y323000D02*
G03X188000Y320000I0J-3000D01*
G01X191000Y323000D02*
X243000D01*
X246000Y320000D02*
G03X243000Y323000I-3000J0D01*
G01X246000Y320000D02*
Y293000D01*
X243957Y290157D02*
G03X246000Y293000I-957J2843D01*
G01X243957Y290157D02*
G03X243276Y289209I319J-948D01*
X243563Y288507I1000J-0*
G01X245000Y285000D02*
G03X243563Y288507I-5000J0D01*
G01X242764Y280833D02*
G03X245000Y285000I-2764J4167D01*
G01X242764Y280833D02*
G03Y279167I553J-833D01*
G01X245000Y275000D02*
G03X242764Y279167I-5000J0D01*
G01X243171Y271134D02*
G03X245000Y275000I-3171J3866D01*
G01X243171Y271134D02*
G03X243304Y269496I634J-773D01*
G01X244800Y266900D02*
G03X243304Y269496I-3000J0D01*
G01X244800Y266900D02*
Y266536D01*
G03X244833Y266280I1000J0*
G01Y263720D02*
G03Y266280I-4833J1280D01*
G01Y263720D02*
G03X244800Y263464I967J-256D01*
G01Y263000*
X243357Y260435D02*
G03X244800Y263000I-1557J2565D01*
G01X243357Y260435D02*
G03X242875Y259581I518J-854D01*
X243230Y258817I1000J-0*
G01X245000Y255000D02*
G03X243230Y258817I-5000J0D01*
G01X242764Y250833D02*
G03X245000Y255000I-2764J4167D01*
G01X242764Y250833D02*
G03Y249167I553J-833D01*
G01Y240833D02*
G03Y249167I-2764J4167D01*
G01Y240833D02*
G03Y239167I553J-833D01*
G01Y230833D02*
G03Y239167I-2764J4167D01*
G01Y230833D02*
G03Y229167I553J-833D01*
G01Y220833D02*
G03Y229167I-2764J4167D01*
G01Y220833D02*
G03Y219167I553J-833D01*
G01Y210833D02*
G03Y219167I-2764J4167D01*
G01Y210833D02*
G03Y209167I553J-833D01*
G01X245000Y205000D02*
G03X242764Y209167I-5000J0D01*
G01X245000Y205000D02*
X245000D01*
X244930Y204167D02*
G03X245000Y205000I-4930J833D01*
G01X244930Y204167D02*
G03X245916Y203000I986J-167D01*
G01X255343*
G03X256050Y203293I0J1000*
G01X258707Y205950*
G03X259000Y206657I-707J707*
G01Y275000*
X259879Y277121D02*
G03X259000Y275000I2121J-2121D01*
G01X259879Y277121D02*
X269879Y287121D01*
X272000Y288000D02*
G03X269879Y287121I0J-3000D01*
G01X272000Y288000D02*
X295528D01*
G03X296273Y288333I-0J1000*
G01X297236Y289167D02*
G03X296273Y288333I2764J-4167D01*
G01X297236Y289167D02*
G03X297683Y290000I-553J833D01*
X297236Y290833I-1000J0*
G01X295000Y295000D02*
G03X297236Y290833I5000J0D01*
G01X302764D02*
G03X295000Y295000I-2764J4167D01*
G01X263575Y110000D02*
G03X263575I-3575J0D01*
G01Y140000D02*
G03X263575I-3575J0D01*
G01Y170000D02*
G03X263575I-3575J0D01*
G01X203575Y110000D02*
G03X203575I-3575J0D01*
G01Y140000D02*
G03X203575I-3575J0D01*
G01Y170000D02*
G03X203575I-3575J0D01*
G01X173575Y110000D02*
G03X173575I-3575J0D01*
G01Y140000D02*
G03X173575I-3575J0D01*
G01Y170000D02*
G03X173575I-3575J0D01*
G01Y310000D02*
G03X173575I-3575J0D01*
G01X143575D02*
G03X143575I-3575J0D01*
G01X149543Y97543D02*
Y90457D01*
X147543Y88457D02*
G03X149543Y90457I0J2000D01*
G01X147543Y88457D02*
X140457D01*
X138793Y89347D02*
G03X140457Y88457I1664J1110D01*
G01X138793Y89347D02*
G03X137356Y89588I-832J-555D01*
G01X129764Y90424D02*
G03X137356Y89588I4236J3576D01*
G01X129764Y90424D02*
G03X128236I-764J-645D01*
G01X119764D02*
G03X128236I4236J3576D01*
G01X119764D02*
G03X118236I-764J-645D01*
G01Y97576D02*
G03Y90424I-4236J-3576D01*
G01Y97576D02*
G03X119764I764J645D01*
G01X128236D02*
G03X119764I-4236J-3576D01*
G01X128236D02*
G03X129764I764J645D01*
G01X137356Y98412D02*
G03X129764Y97576I-3356J-4412D01*
G01X137356Y98412D02*
G03X138793Y98653I605J796D01*
G01X140457Y99543D02*
G03X138793Y98653I-0J-2000D01*
G01X140457Y99543D02*
X147543D01*
X149543Y97543D02*
G03X147543Y99543I-2000J0D01*
G01X143575Y110000D02*
G03X143575I-3575J0D01*
G01Y140000D02*
G03X143575I-3575J0D01*
G01Y170000D02*
G03X143575I-3575J0D01*
G01X173575Y280000D02*
G03X173575I-3575J0D01*
G01X143575D02*
G03X143575I-3575J0D01*
G01X173575Y210000D02*
G03X173575I-3575J0D01*
G01Y230000D02*
G03X173575I-3575J0D01*
G01Y250000D02*
G03X173575I-3575J0D01*
G01X95000Y325799D02*
X328000D01*
X95000Y323999D02*
X328000D01*
X245041Y322199D02*
X328000D01*
X245973Y320399D02*
X328000D01*
X246000Y318599D02*
X328000D01*
X246000Y316799D02*
X328000D01*
X246000Y314999D02*
X328000D01*
X321597Y313199D02*
X328000D01*
X323290Y311399D02*
X328000D01*
X323552Y309599D02*
X328000D01*
X322817Y307799D02*
X328000D01*
X246000Y305999D02*
X328000D01*
X246000Y304199D02*
X328000D01*
X246000Y302399D02*
X328000D01*
X246000Y300599D02*
X328000D01*
X303251Y298799D02*
X328000D01*
X304583Y296999D02*
X328000D01*
X304996Y295199D02*
X328000D01*
X304737Y293399D02*
X328000D01*
X303665Y291599D02*
X328000D01*
X302337Y289799D02*
X328000D01*
X304001Y287999D02*
X328000D01*
X304854Y286199D02*
X328000D01*
X304964Y284399D02*
X328000D01*
X304386Y282599D02*
X328000D01*
X302715Y280799D02*
X328000D01*
X303002Y278999D02*
X328000D01*
X304491Y277199D02*
X328000D01*
X304984Y275399D02*
X328000D01*
X304800Y273599D02*
X328000D01*
X323090Y271799D02*
X328000D01*
X323575Y269999D02*
X328000D01*
X323088Y268199D02*
X328000D01*
X304800Y266399D02*
X328000D01*
X304984Y264599D02*
X328000D01*
X304489Y262799D02*
X328000D01*
X302998Y260999D02*
X328000D01*
X302718Y259199D02*
X328000D01*
X304387Y257399D02*
X328000D01*
X304964Y255599D02*
X328000D01*
X304854Y253799D02*
X328000D01*
X303999Y251999D02*
X328000D01*
X302337Y250199D02*
X328000D01*
X303667Y248399D02*
X328000D01*
X304738Y246599D02*
X328000D01*
X304996Y244799D02*
X328000D01*
X304582Y242999D02*
X328000D01*
X303248Y241199D02*
X328000D01*
X302518Y239399D02*
X328000D01*
X304272Y237599D02*
X328000D01*
X304936Y235799D02*
X328000D01*
X304899Y233999D02*
X328000D01*
X322819Y232199D02*
X328000D01*
X323553Y230399D02*
X328000D01*
X323289Y228599D02*
X328000D01*
X321591Y226799D02*
X328000D01*
X305000Y224999D02*
X328000D01*
X304664Y223199D02*
X328000D01*
X303469Y221399D02*
X328000D01*
X302401Y219599D02*
X328000D01*
X304143Y217799D02*
X328000D01*
X304899Y215999D02*
X328000D01*
X304935Y214199D02*
X328000D01*
X304270Y212399D02*
X328000D01*
X302516Y210599D02*
X328000D01*
X303251Y208799D02*
X328000D01*
X304583Y206999D02*
X328000D01*
X304996Y205199D02*
X328000D01*
X321109Y203399D02*
X328000D01*
X323198Y201599D02*
X328000D01*
X323569Y199799D02*
X328000D01*
X322962Y197999D02*
X328000D01*
X304854Y196199D02*
X328000D01*
X304964Y194399D02*
X328000D01*
X304386Y192599D02*
X328000D01*
X302715Y190799D02*
X328000D01*
X303002Y188999D02*
X328000D01*
X304491Y187199D02*
X328000D01*
X304984Y185399D02*
X328000D01*
X304800Y183599D02*
X328000D01*
X303841Y181799D02*
X328000D01*
X302317Y179999D02*
X328000D01*
X303843Y178199D02*
X328000D01*
X304800Y176399D02*
X328000D01*
X304984Y174599D02*
X328000D01*
X322224Y172799D02*
X328000D01*
X323433Y170999D02*
X328000D01*
X323484Y169199D02*
X328000D01*
X322452Y167399D02*
X328000D01*
X304964Y165599D02*
X328000D01*
X304854Y163799D02*
X328000D01*
X303999Y161999D02*
X328000D01*
X302337Y160199D02*
X328000D01*
X303667Y158399D02*
X328000D01*
X304738Y156599D02*
X328000D01*
X304996Y154799D02*
X328000D01*
X304582Y152999D02*
X328000D01*
X303248Y151199D02*
X328000D01*
X302518Y149399D02*
X328000D01*
X304272Y147599D02*
X328000D01*
X304936Y145799D02*
X328000D01*
X304899Y143999D02*
X328000D01*
X322819Y142199D02*
X328000D01*
X323553Y140399D02*
X328000D01*
X323289Y138599D02*
X328000D01*
X321591Y136799D02*
X328000D01*
X305000Y134999D02*
X328000D01*
X304664Y133199D02*
X328000D01*
X303469Y131399D02*
X328000D01*
X302401Y129599D02*
X328000D01*
X304143Y127799D02*
X328000D01*
X304899Y125999D02*
X328000D01*
X304935Y124199D02*
X328000D01*
X304270Y122399D02*
X328000D01*
X302516Y120599D02*
X328000D01*
X303251Y118799D02*
X328000D01*
X304583Y116999D02*
X328000D01*
X304996Y115199D02*
X328000D01*
X321109Y113399D02*
X328000D01*
X323198Y111599D02*
X328000D01*
X323569Y109799D02*
X328000D01*
X322962Y107999D02*
X328000D01*
X304854Y106199D02*
X328000D01*
X304964Y104399D02*
X328000D01*
X304386Y102599D02*
X328000D01*
X302711Y100799D02*
X328000D01*
X148915Y98999D02*
X328000D01*
X149543Y97199D02*
X328000D01*
X149543Y95399D02*
X328000D01*
X149543Y93599D02*
X328000D01*
X149543Y91799D02*
X328000D01*
X149490Y89999D02*
X328000D01*
X95000Y88199D02*
X328000D01*
X95000Y86399D02*
X328000D01*
X95000Y84599D02*
X328000D01*
X95000Y82799D02*
X328000D01*
X95000Y80999D02*
X328000D01*
X95000Y79199D02*
X328000D01*
X95000Y77399D02*
X328000D01*
X95000Y75599D02*
X328000D01*
X95000Y73799D02*
X328000D01*
X95199Y327599D02*
X327801D01*
X304737Y203399D02*
X318891D01*
X304737Y113399D02*
X318891D01*
X304665Y226799D02*
X318409D01*
X304665Y136799D02*
X318409D01*
X246000Y313199D02*
X318403D01*
X304489Y172799D02*
X317776D01*
X304387Y167399D02*
X317548D01*
X246000Y307799D02*
X317183D01*
X304142Y232199D02*
X317181D01*
X304142Y142199D02*
X317181D01*
X304001Y197999D02*
X317038D01*
X304001Y107999D02*
X317038D01*
X303843Y268199D02*
X316912D01*
X303841Y271799D02*
X316910D01*
X303665Y201599D02*
X316802D01*
X303665Y111599D02*
X316802D01*
X303471Y228599D02*
X316711D01*
X303471Y138599D02*
X316711D01*
X246000Y311399D02*
X316710D01*
X302998Y170999D02*
X316567D01*
X302718Y169199D02*
X316516D01*
X246000Y309599D02*
X316448D01*
X302400Y230399D02*
X316447D01*
X302400Y140399D02*
X316447D01*
X302337Y199799D02*
X316431D01*
X302337Y109799D02*
X316431D01*
X302317Y269999D02*
X316425D01*
X278241D02*
X297683D01*
X242317Y179999D02*
X297683D01*
X273000Y250199D02*
X297663D01*
X242337Y160199D02*
X297663D01*
X243468Y289799D02*
X297663D01*
X271041Y199799D02*
X297663D01*
X263569Y109799D02*
X297663D01*
X273000Y230399D02*
X297600D01*
X263553Y140399D02*
X297600D01*
X273000Y219599D02*
X297599D01*
X242401Y129599D02*
X297599D01*
X273000Y210599D02*
X297484D01*
X242516Y120599D02*
X297484D01*
X273000Y239399D02*
X297482D01*
X242518Y149399D02*
X297482D01*
X242711Y100799D02*
X297289D01*
X262041Y190799D02*
X297285D01*
X273000Y259199D02*
X297282D01*
X263484Y169199D02*
X297282D01*
X273000Y260999D02*
X297002D01*
X263433Y170999D02*
X297002D01*
X260241Y188999D02*
X296998D01*
X273000Y241199D02*
X296752D01*
X243248Y151199D02*
X296752D01*
X246000Y298799D02*
X296749D01*
X273000Y208799D02*
X296749D01*
X243251Y118799D02*
X296749D01*
X273000Y221399D02*
X296531D01*
X243469Y131399D02*
X296531D01*
X273000Y228599D02*
X296529D01*
X263289Y138599D02*
X296529D01*
X245653Y291599D02*
X296335D01*
X272653Y201599D02*
X296335D01*
X263198Y111599D02*
X296335D01*
X273000Y248399D02*
X296333D01*
X243667Y158399D02*
X296333D01*
X243841Y181799D02*
X296159D01*
X276441Y268199D02*
X296157D01*
X243843Y178199D02*
X296157D01*
X280055Y271799D02*
X296130D01*
X273000Y251999D02*
X296001D01*
X243999Y161999D02*
X296001D01*
X269241Y197999D02*
X295999D01*
X262962Y107999D02*
X295999D01*
X273000Y232199D02*
X295858D01*
X262819Y142199D02*
X295858D01*
X273000Y217799D02*
X295857D01*
X244143Y127799D02*
X295857D01*
X273000Y212399D02*
X295730D01*
X244270Y122399D02*
X295730D01*
X273000Y237599D02*
X295728D01*
X244272Y147599D02*
X295728D01*
X263841Y192599D02*
X295614D01*
X244386Y102599D02*
X295614D01*
X273000Y257399D02*
X295613D01*
X262452Y167399D02*
X295613D01*
X273000Y262799D02*
X295511D01*
X262224Y172799D02*
X295511D01*
X258074Y187199D02*
X295509D01*
X273000Y242999D02*
X295418D01*
X244582Y152999D02*
X295418D01*
X246000Y296999D02*
X295417D01*
X273000Y206999D02*
X295417D01*
X244583Y116999D02*
X295417D01*
X273000Y223199D02*
X295336D01*
X244664Y133199D02*
X295336D01*
X273000Y226799D02*
X295335D01*
X261591Y136799D02*
X295335D01*
X246000Y293399D02*
X295263D01*
X273000Y203399D02*
X295263D01*
X261109Y113399D02*
X295263D01*
X273000Y246599D02*
X295262D01*
X244738Y156599D02*
X295262D01*
X244800Y183599D02*
X295200D01*
X274641Y266399D02*
X295200D01*
X244800Y176399D02*
X295200D01*
X273000Y253799D02*
X295146D01*
X244854Y163799D02*
X295146D01*
X267441Y196199D02*
X295146D01*
X244854Y106199D02*
X295146D01*
X273000Y233999D02*
X295101D01*
X244899Y143999D02*
X295101D01*
X273000Y215999D02*
X295101D01*
X244899Y125999D02*
X295101D01*
X273000Y214199D02*
X295065D01*
X244935Y124199D02*
X295065D01*
X273000Y235799D02*
X295064D01*
X244936Y145799D02*
X295064D01*
X265641Y194399D02*
X295036D01*
X244964Y104399D02*
X295036D01*
X273000Y255599D02*
X295036D01*
X244964Y165599D02*
X295036D01*
X273033Y264599D02*
X295016D01*
X244984Y174599D02*
X295016D01*
X244984Y185399D02*
X295016D01*
X273000Y244799D02*
X295004D01*
X244996Y154799D02*
X295004D01*
X246000Y295199D02*
X295004D01*
X273000Y205199D02*
X295004D01*
X244996Y115199D02*
X295004D01*
X273000Y224999D02*
X295000D01*
X245000Y134999D02*
X295000D01*
X244001Y287999D02*
X271911D01*
X244854Y286199D02*
X268956D01*
X244964Y284399D02*
X267156D01*
X244386Y282599D02*
X265356D01*
X242715Y280799D02*
X263556D01*
X243002Y278999D02*
X261756D01*
X244491Y277199D02*
X259956D01*
X244984Y275399D02*
X259027D01*
X244800Y273599D02*
X259000D01*
X243841Y271799D02*
X259000D01*
X242873Y269999D02*
X259000D01*
X244504Y268199D02*
X259000D01*
X244810Y266399D02*
X259000D01*
X244984Y264599D02*
X259000D01*
X244793Y262799D02*
X259000D01*
X244035Y260999D02*
X259000D01*
X242951Y259199D02*
X259000D01*
X244387Y257399D02*
X259000D01*
X244964Y255599D02*
X259000D01*
X244854Y253799D02*
X259000D01*
X243999Y251999D02*
X259000D01*
X242337Y250199D02*
X259000D01*
X243667Y248399D02*
X259000D01*
X244738Y246599D02*
X259000D01*
X244996Y244799D02*
X259000D01*
X244582Y242999D02*
X259000D01*
X243248Y241199D02*
X259000D01*
X242518Y239399D02*
X259000D01*
X244272Y237599D02*
X259000D01*
X244936Y235799D02*
X259000D01*
X244899Y233999D02*
X259000D01*
X244142Y232199D02*
X259000D01*
X242400Y230399D02*
X259000D01*
X243471Y228599D02*
X259000D01*
X244665Y226799D02*
X259000D01*
X245000Y224999D02*
X259000D01*
X244664Y223199D02*
X259000D01*
X243469Y221399D02*
X259000D01*
X242401Y219599D02*
X259000D01*
X244143Y217799D02*
X259000D01*
X244899Y215999D02*
X259000D01*
X244935Y214199D02*
X259000D01*
X244270Y212399D02*
X259000D01*
X242516Y210599D02*
X259000D01*
X243251Y208799D02*
X259000D01*
X244583Y206999D02*
X259000D01*
X244737Y113399D02*
X258891D01*
X244665Y136799D02*
X258409D01*
X244996Y205199D02*
X257956D01*
X244489Y172799D02*
X257776D01*
X244387Y167399D02*
X257548D01*
X244142Y142199D02*
X257181D01*
X244001Y107999D02*
X257038D01*
X243665Y111599D02*
X256802D01*
X243471Y138599D02*
X256711D01*
X242998Y170999D02*
X256567D01*
X242718Y169199D02*
X256516D01*
X242400Y140399D02*
X256447D01*
X242337Y109799D02*
X256431D01*
X245117Y203399D02*
X256156D01*
X129543Y179999D02*
X237683D01*
X111485Y160199D02*
X237663D01*
X203569Y109799D02*
X237663D01*
X203553Y140399D02*
X237600D01*
X95000Y129599D02*
X237599D01*
X95000Y120599D02*
X237484D01*
X95000Y149399D02*
X237482D01*
X95000Y100799D02*
X237289D01*
X203484Y169199D02*
X237282D01*
X203433Y170999D02*
X237002D01*
X95000Y151199D02*
X236752D01*
X95000Y118799D02*
X236749D01*
X95000Y131399D02*
X236531D01*
X203289Y138599D02*
X236529D01*
X203198Y111599D02*
X236335D01*
X111287Y158399D02*
X236333D01*
X129543Y181799D02*
X236159D01*
X129543Y178199D02*
X236157D01*
X111237Y161999D02*
X236001D01*
X202962Y107999D02*
X235999D01*
X202819Y142199D02*
X235858D01*
X95000Y127799D02*
X235857D01*
X95000Y122399D02*
X235730D01*
X95000Y147599D02*
X235728D01*
X95000Y102599D02*
X235614D01*
X202452Y167399D02*
X235613D01*
X202224Y172799D02*
X235511D01*
X106128Y152999D02*
X235418D01*
X95000Y116999D02*
X235417D01*
X95000Y133199D02*
X235336D01*
X201591Y136799D02*
X235335D01*
X201109Y113399D02*
X235263D01*
X110602Y156599D02*
X235262D01*
X129543Y183599D02*
X235200D01*
X129542Y176399D02*
X235200D01*
X110492Y163799D02*
X235146D01*
X95000Y106199D02*
X235146D01*
X95000Y143999D02*
X235101D01*
X95000Y125999D02*
X235101D01*
X95000Y124199D02*
X235065D01*
X95000Y145799D02*
X235064D01*
X95000Y104399D02*
X235036D01*
X109030Y165599D02*
X235036D01*
X128284Y174599D02*
X235016D01*
X128466Y185399D02*
X235016D01*
X109242Y154799D02*
X235004D01*
X95000Y115199D02*
X235004D01*
X95000Y134999D02*
X235000D01*
X171109Y113399D02*
X198891D01*
X171591Y136799D02*
X198409D01*
X172224Y172799D02*
X197776D01*
X172452Y167399D02*
X197548D01*
X172819Y142199D02*
X197181D01*
X172962Y107999D02*
X197038D01*
X173198Y111599D02*
X196802D01*
X173289Y138599D02*
X196711D01*
X173433Y170999D02*
X196567D01*
X173484Y169199D02*
X196516D01*
X173553Y140399D02*
X196447D01*
X173569Y109799D02*
X196431D01*
X95000Y322199D02*
X188959D01*
X95000Y320399D02*
X188027D01*
X95000Y318599D02*
X188000D01*
X95000Y316799D02*
X188000D01*
X95000Y314999D02*
X188000D01*
X171597Y313199D02*
X188000D01*
X173290Y311399D02*
X188000D01*
X173552Y309599D02*
X188000D01*
X172817Y307799D02*
X188000D01*
X95000Y305999D02*
X188000D01*
X95000Y304199D02*
X188000D01*
X95000Y302399D02*
X188000D01*
X95000Y300599D02*
X188000D01*
X141109Y113399D02*
X168891D01*
X141591Y136799D02*
X168409D01*
X141597Y313199D02*
X168403D01*
X142224Y172799D02*
X167776D01*
X142452Y167399D02*
X167548D01*
X142817Y307799D02*
X167183D01*
X142819Y142199D02*
X167181D01*
X142962Y107999D02*
X167038D01*
X143198Y111599D02*
X166802D01*
X143289Y138599D02*
X166711D01*
X143290Y311399D02*
X166710D01*
X143433Y170999D02*
X166567D01*
X143484Y169199D02*
X166516D01*
X143552Y309599D02*
X166448D01*
X143553Y140399D02*
X166447D01*
X143569Y109799D02*
X166431D01*
X136396Y98999D02*
X139085D01*
X95000Y113399D02*
X138891D01*
X95000Y136799D02*
X138409D01*
X95000Y313199D02*
X138403D01*
X95000Y172799D02*
X137776D01*
X105227Y167399D02*
X137548D01*
X95000Y307799D02*
X137183D01*
X95000Y142199D02*
X137181D01*
X95000Y107999D02*
X137038D01*
X95000Y111599D02*
X136802D01*
X95000Y138599D02*
X136711D01*
X95000Y311399D02*
X136710D01*
X95000Y170999D02*
X136567D01*
X95000Y169199D02*
X136516D01*
X95000Y309599D02*
X136448D01*
X95000Y140399D02*
X136447D01*
X95000Y109799D02*
X136431D01*
X126396Y98999D02*
X131604D01*
X127836Y89999D02*
X130164D01*
X116396Y98999D02*
X121604D01*
X117836Y89999D02*
X120164D01*
X95000Y298799D02*
X119920D01*
X115247Y174599D02*
X119716D01*
X95000Y296999D02*
X118171D01*
X95000Y295199D02*
X118000D01*
X95000Y293399D02*
X118000D01*
X95000Y291599D02*
X118000D01*
X95000Y289799D02*
X118000D01*
X95000Y287999D02*
X118000D01*
X95000Y286199D02*
X118000D01*
X95000Y284399D02*
X118000D01*
X95000Y282599D02*
X118000D01*
X95000Y280799D02*
X118000D01*
X95000Y278999D02*
X118000D01*
X95000Y277199D02*
X118000D01*
X95000Y275399D02*
X118000D01*
X95000Y273599D02*
X118000D01*
X95000Y271799D02*
X118000D01*
X95000Y269999D02*
X118000D01*
X95000Y268199D02*
X118000D01*
X95000Y266399D02*
X118000D01*
X95000Y264599D02*
X118000D01*
X95000Y262799D02*
X118000D01*
X95000Y260999D02*
X118000D01*
X95000Y259199D02*
X118000D01*
X95000Y257399D02*
X118000D01*
X95000Y255599D02*
X118000D01*
X95000Y253799D02*
X118000D01*
X95000Y251999D02*
X118000D01*
X95000Y250199D02*
X118000D01*
X95000Y248399D02*
X118000D01*
X107410Y246599D02*
X118000D01*
X109592Y244799D02*
X118000D01*
X110698Y242999D02*
X118000D01*
X111226Y241199D02*
X118000D01*
X111298Y239399D02*
X118000D01*
X110928Y237599D02*
X118000D01*
X110039Y235799D02*
X118000D01*
X108335Y233999D02*
X118000D01*
X95000Y232199D02*
X118000D01*
X95000Y230399D02*
X118000D01*
X95000Y228599D02*
X118000D01*
X95000Y226799D02*
X118000D01*
X116396Y224999D02*
X117577D01*
X95000Y174599D02*
X112753D01*
X95000Y224999D02*
X111604D01*
X95000Y98999D02*
X111604D01*
X95000Y205199D02*
X110759D01*
X95000Y185399D02*
X110696D01*
X95000Y194399D02*
X110578D01*
X95000Y214199D02*
X110381D01*
X95000Y215999D02*
X110164D01*
X95000Y89999D02*
X110164D01*
X95000Y196199D02*
X109965D01*
X95000Y176399D02*
X109786D01*
X95000Y183599D02*
X109784D01*
X95000Y203399D02*
X109621D01*
X95000Y223199D02*
X109473D01*
X95000Y97199D02*
X109473D01*
X95000Y206999D02*
X109339D01*
X95000Y187199D02*
X109217D01*
X95000Y192599D02*
X109104D01*
X95000Y212399D02*
X109003D01*
X95000Y217799D02*
X108912D01*
X95000Y91799D02*
X108912D01*
X95000Y197999D02*
X108831D01*
X95000Y178199D02*
X108757D01*
X95000Y181799D02*
X108757D01*
X95000Y201599D02*
X108692D01*
X95000Y221399D02*
X108636D01*
X95000Y95399D02*
X108636D01*
X95000Y208799D02*
X108588D01*
X95000Y188999D02*
X108548D01*
X95000Y190799D02*
X108515D01*
X95000Y210599D02*
X108489D01*
X95000Y219599D02*
X108471D01*
X95000Y93599D02*
X108471D01*
X95000Y199799D02*
X108460D01*
X95000Y179999D02*
X108457D01*
X95000Y167399D02*
X102973D01*
X95000Y152999D02*
X102072D01*
X95000Y246599D02*
X100190D01*
X95000Y233999D02*
X99265D01*
X95000Y165599D02*
X99170D01*
X95000Y154799D02*
X98958D01*
X95000Y244799D02*
X98008D01*
X95000Y163799D02*
X97708D01*
X95000Y156599D02*
X97598D01*
X95000Y235799D02*
X97561D01*
X95037Y161999D02*
X96963D01*
X95099Y242999D02*
X96901D01*
X95116Y158399D02*
X96884D01*
X173485Y280799D02*
X237285D01*
X173432Y278999D02*
X236998D01*
X207105Y289799D02*
X236532D01*
X130000Y271799D02*
X236159D01*
X130000Y269999D02*
X236052D01*
X207831Y287999D02*
X235999D01*
X172455Y282599D02*
X235614D01*
X172221Y277199D02*
X235509D01*
X130000Y273599D02*
X235200D01*
X208040Y286199D02*
X235146D01*
X207236Y284399D02*
X235036D01*
X130000Y275399D02*
X235016D01*
X209285Y291599D02*
X234347D01*
X207315Y311399D02*
X234000D01*
X207315Y309599D02*
X234000D01*
X207214Y307799D02*
X234000D01*
X200565Y305999D02*
X234000D01*
X200400Y304199D02*
X234000D01*
X200400Y302399D02*
X234000D01*
X200400Y300599D02*
X234000D01*
X209021Y298799D02*
X234000D01*
X209500Y296999D02*
X234000D01*
X209500Y295199D02*
X234000D01*
X209500Y293399D02*
X234000D01*
X207333Y313199D02*
X233801D01*
X130000Y284399D02*
X201764D01*
X130950Y287999D02*
X201136D01*
X130000Y286199D02*
X200960D01*
X142221Y277199D02*
X167779D01*
X142455Y282599D02*
X167545D01*
X143432Y278999D02*
X166568D01*
X143485Y280799D02*
X166515D01*
X130000Y268199D02*
X138996D01*
X130000Y266399D02*
X138700D01*
X130000Y264599D02*
X138700D01*
X130000Y262799D02*
X138700D01*
X130000Y260999D02*
X138700D01*
X130000Y259199D02*
X138700D01*
X130000Y257399D02*
X138700D01*
X130000Y255599D02*
X138700D01*
X130000Y253799D02*
X138700D01*
X130000Y251999D02*
X138700D01*
X130000Y250199D02*
X138700D01*
X130000Y248399D02*
X138700D01*
X130000Y246599D02*
X138700D01*
X130000Y244799D02*
X138700D01*
X130000Y242999D02*
X138700D01*
X130000Y241199D02*
X138700D01*
X130000Y239399D02*
X138700D01*
X130000Y237599D02*
X138700D01*
X130000Y235799D02*
X138700D01*
X130000Y233999D02*
X138700D01*
X130000Y232199D02*
X138700D01*
X130000Y230399D02*
X138700D01*
X130000Y228599D02*
X138700D01*
X130000Y226799D02*
X138700D01*
X130000Y224999D02*
X138700D01*
X130000Y223199D02*
X138700D01*
X130000Y221399D02*
X138700D01*
X130000Y219599D02*
X138700D01*
X130000Y217799D02*
X138700D01*
X129985Y215999D02*
X138654D01*
X130000Y277199D02*
X137779D01*
X130000Y282599D02*
X137545D01*
X130000Y278999D02*
X136568D01*
X130000Y280799D02*
X136515D01*
X173569Y250199D02*
X237663D01*
X173553Y230399D02*
X237600D01*
X151400Y219599D02*
X237599D01*
X173525Y210599D02*
X237484D01*
X151400Y239399D02*
X237482D01*
X151400Y241199D02*
X236752D01*
X173367Y208799D02*
X236749D01*
X151400Y221399D02*
X236531D01*
X173289Y228599D02*
X236529D01*
X151420Y259199D02*
X236508D01*
X173196Y248399D02*
X236333D01*
X172964Y251999D02*
X236001D01*
X172819Y232199D02*
X235858D01*
X151400Y217799D02*
X235857D01*
X172651Y212399D02*
X235730D01*
X151400Y237599D02*
X235728D01*
X151400Y257399D02*
X235613D01*
X151400Y242999D02*
X235418D01*
X171942Y206999D02*
X235417D01*
X151400Y223199D02*
X235336D01*
X171591Y226799D02*
X235335D01*
X171101Y246599D02*
X235262D01*
X151400Y253799D02*
X235146D01*
X151400Y233999D02*
X235101D01*
X151400Y215999D02*
X235101D01*
X151400Y214199D02*
X235065D01*
X151400Y235799D02*
X235064D01*
X151400Y255599D02*
X235036D01*
X151400Y244799D02*
X235004D01*
X150325Y205199D02*
X235004D01*
X151400Y224999D02*
X235000D01*
X149538Y203399D02*
X234883D01*
X151400Y246599D02*
X168899D01*
X151400Y226799D02*
X168409D01*
X151358Y206999D02*
X168058D01*
X151400Y212399D02*
X167349D01*
X151400Y232199D02*
X167181D01*
X151400Y251999D02*
X167036D01*
X151400Y248399D02*
X166804D01*
X151400Y228599D02*
X166711D01*
X151400Y208799D02*
X166633D01*
X151400Y210599D02*
X166475D01*
X151400Y230399D02*
X166447D01*
X151400Y250199D02*
X166431D01*
X93000Y70000D02*
X330000D01*
Y330000*
X93000*
Y70000*
X109322Y240000D02*
G03X109322I-5522J0D01*
G01X109485Y160100D02*
G03X109485I-5385J0D01*
G54D35*
G01X124000Y180000D03*
X144000Y94000D03*
G54D36*
X124000Y190000D03*
Y200000D03*
Y210000D03*
Y220000D03*
X114000D03*
Y210000D03*
Y200000D03*
Y190000D03*
Y180000D03*
X134000Y94000D03*
X124000D03*
X114000D03*
G54D52*
X322528Y312528D02*
X321114Y311114D01*
X317472Y312528D02*
X318886Y311114D01*
X317472Y307472D02*
X318886Y308886D01*
X322528Y307472D02*
X321114Y308886D01*
X172528Y312528D02*
X171114Y311114D01*
X167472Y312528D02*
X168886Y311114D01*
X167472Y307472D02*
X168886Y308886D01*
X172528Y307472D02*
X171114Y308886D01*
X322528Y272528D02*
X321114Y271114D01*
X317472Y272528D02*
X318886Y271114D01*
X317472Y267472D02*
X318886Y268886D01*
X322528Y267472D02*
X321114Y268886D01*
X322528Y232528D02*
X321114Y231114D01*
X317472Y232528D02*
X318886Y231114D01*
X317472Y227472D02*
X318886Y228886D01*
X322528Y227472D02*
X321114Y228886D01*
X322528Y202528D02*
X321114Y201114D01*
X317472Y202528D02*
X318886Y201114D01*
X317472Y197472D02*
X318886Y198886D01*
X322528Y197472D02*
X321114Y198886D01*
X322528Y172528D02*
X321114Y171114D01*
X317472Y172528D02*
X318886Y171114D01*
X317472Y167472D02*
X318886Y168886D01*
X322528Y167472D02*
X321114Y168886D01*
X322528Y142528D02*
X321114Y141114D01*
X317472Y142528D02*
X318886Y141114D01*
X317472Y137472D02*
X318886Y138886D01*
X322528Y137472D02*
X321114Y138886D01*
X322528Y112528D02*
X321114Y111114D01*
X317472Y112528D02*
X318886Y111114D01*
X317472Y107472D02*
X318886Y108886D01*
X322528Y107472D02*
X321114Y108886D01*
X262528Y172528D02*
X261114Y171114D01*
X257472Y172528D02*
X258886Y171114D01*
X257472Y167472D02*
X258886Y168886D01*
X262528Y167472D02*
X261114Y168886D01*
X262528Y142528D02*
X261114Y141114D01*
X257472Y142528D02*
X258886Y141114D01*
X257472Y137472D02*
X258886Y138886D01*
X262528Y137472D02*
X261114Y138886D01*
X262528Y112528D02*
X261114Y111114D01*
X257472Y112528D02*
X258886Y111114D01*
X257472Y107472D02*
X258886Y108886D01*
X262528Y107472D02*
X261114Y108886D01*
X142528Y282528D02*
X141114Y281114D01*
X137472Y282528D02*
X138886Y281114D01*
X137472Y277472D02*
X138886Y278886D01*
X142528Y277472D02*
X141114Y278886D01*
X142528Y312528D02*
X141114Y311114D01*
X137472Y312528D02*
X138886Y311114D01*
X137472Y307472D02*
X138886Y308886D01*
X142528Y307472D02*
X141114Y308886D01*
X172528Y282528D02*
X171114Y281114D01*
X167472Y282528D02*
X168886Y281114D01*
X167472Y277472D02*
X168886Y278886D01*
X172528Y277472D02*
X171114Y278886D01*
X172528Y252528D02*
X171114Y251114D01*
X167472Y252528D02*
X168886Y251114D01*
X167472Y247472D02*
X168886Y248886D01*
X172528Y247472D02*
X171114Y248886D01*
X172528Y232528D02*
X171114Y231114D01*
X167472Y232528D02*
X168886Y231114D01*
X167472Y227472D02*
X168886Y228886D01*
X172528Y227472D02*
X171114Y228886D01*
X172528Y212528D02*
X171114Y211114D01*
X167472Y212528D02*
X168886Y211114D01*
X167472Y207472D02*
X168886Y208886D01*
X172528Y207472D02*
X171114Y208886D01*
X202528Y172528D02*
X201114Y171114D01*
X197472Y172528D02*
X198886Y171114D01*
X197472Y167472D02*
X198886Y168886D01*
X202528Y167472D02*
X201114Y168886D01*
X172528Y172528D02*
X171114Y171114D01*
X167472Y172528D02*
X168886Y171114D01*
X167472Y167472D02*
X168886Y168886D01*
X172528Y167472D02*
X171114Y168886D01*
X142528Y142528D02*
X141114Y141114D01*
X137472Y142528D02*
X138886Y141114D01*
X137472Y137472D02*
X138886Y138886D01*
X142528Y137472D02*
X141114Y138886D01*
X142528Y172528D02*
X141114Y171114D01*
X137472Y172528D02*
X138886Y171114D01*
X137472Y167472D02*
X138886Y168886D01*
X142528Y167472D02*
X141114Y168886D01*
X172528Y112528D02*
X171114Y111114D01*
X167472Y112528D02*
X168886Y111114D01*
X167472Y107472D02*
X168886Y108886D01*
X172528Y107472D02*
X171114Y108886D01*
X172528Y142528D02*
X171114Y141114D01*
X167472Y142528D02*
X168886Y141114D01*
X167472Y137472D02*
X168886Y138886D01*
X172528Y137472D02*
X171114Y138886D01*
X202528Y142528D02*
X201114Y141114D01*
X197472Y142528D02*
X198886Y141114D01*
X197472Y137472D02*
X198886Y138886D01*
X202528Y137472D02*
X201114Y138886D01*
X202528Y112528D02*
X201114Y111114D01*
X197472Y112528D02*
X198886Y111114D01*
X197472Y107472D02*
X198886Y108886D01*
X202528Y107472D02*
X201114Y108886D01*
X142528Y112528D02*
X141114Y111114D01*
X137472Y112528D02*
X138886Y111114D01*
X137472Y107472D02*
X138886Y108886D01*
X142528Y107472D02*
X141114Y108886D01*
X207028Y289228D02*
X205614Y287814D01*
X201972Y284172D02*
X203386Y285586D01*
X207028Y284172D02*
X205614Y285586D01*
G54D81*
X203543Y310000D03*
X196457D03*
G54D84*
X140000Y110000D03*
Y140000D03*
X170000Y110000D03*
X200000D03*
Y140000D03*
X170000D03*
X260000Y110000D03*
Y140000D03*
X320000Y110000D03*
Y140000D03*
X140000Y170000D03*
X170000D03*
X200000D03*
X170000Y210000D03*
Y230000D03*
X260000Y170000D03*
X320000D03*
Y200000D03*
Y230000D03*
X140000Y310000D03*
Y280000D03*
X170000Y250000D03*
Y280000D03*
Y310000D03*
X204500Y286700D03*
X320000Y270000D03*
Y310000D03*
G54D86*
X124000Y210000D02*
X140000D01*
X144000Y214000*
Y259000*
X150000Y265000*
X240000*
G74*
X0Y0D02*
M02*
