M48
;FILE_FORMAT=2:4
INCH,LZ
FMAT,2
ICI,OFF
;TYPE=PLATED
T1C.01575
T2C.035
T3C.03937
%
M72
G90
G93X0Y0
T1C.01575F095S3
X014Y011
X014Y014
X014Y017
X014Y028
X014Y031
X017Y031
X02045Y02867
X017Y028
X017Y025
X017Y023
X017Y021
X017Y017
X02Y017
X02Y014
X017Y014
X02Y011
X017Y011
X026Y011
X026Y014
X026Y017
X032Y031
X032Y027
X032Y023
X032Y02
X032Y017
X032Y014
X032Y011
T2C.035F197S55
X024Y0105
X024Y0115
X024Y0125
X024Y0135
X024Y0145
X024Y0155
X024Y0165
X024Y0175
X024Y0185
X024Y0195
X024Y0205
X024Y0215
X024Y0225
X024Y0235
X024Y0245
X024Y0255
X024Y0265
X024Y0275
X024Y0285
X024Y0295
X03Y0295
X03Y0285
X03Y0275
X03Y0265
X03Y0255
X03Y0245
X03Y0235
X03Y0225
X03Y0215
X03Y0205
X03Y0195
X03Y0185
X03Y0175
X03Y0165
X03Y0155
X03Y0145
X03Y0135
X03Y0125
X03Y0115
X03Y0105
T3C.03937F197S55
X0134Y0094
X0124Y0094
X0114Y0094
X0114Y018
X0124Y018
X0114Y019
X0124Y019
X0114Y02
X0124Y02
X0124Y021
X0114Y021
X0124Y022
X0114Y022
X0144Y0094
M30
