M48
;FILE_FORMAT=2:4
INCH,LZ
FMAT,2
ICI,OFF
;TYPE=PLATED
T1C.035
T2C.037
T3C.03937
;TYPE=NON_PLATED
T4C.03937
%
M72
G90
G93X0Y0
T1C.035F197S55
X018Y0105
X017Y0105
X018Y0115
X017Y0115
X018Y0125
X017Y0125
X018Y0135
X017Y0135
X018Y0145
X017Y0145
X018Y0155
X017Y0155
X018Y0165
X017Y0165
X018Y0175
X017Y0175
X018Y0185
X017Y0185
X018Y0195
X017Y0195
X018Y0205
X017Y0205
X018Y0215
X017Y0215
X018Y0225
X017Y0225
X018Y0235
X017Y0235
X018Y0245
X017Y0245
X018Y0255
X017Y0255
X018Y0265
X017Y0265
X018Y0275
X017Y0275
X018Y0285
X017Y0285
X018Y0295
X017Y0295
X0236Y0295
X0236Y0285
X0236Y0275
X0236Y0265
X0236Y0255
X0236Y0245
X0236Y0235
X0236Y0225
X0236Y0215
X0236Y0205
X0236Y0195
X0236Y0185
X0236Y0175
X0236Y0165
X0236Y0155
X0236Y0145
X0236Y0135
X0236Y0125
X0236Y0115
X0236Y0105
X0296Y0105
X0296Y0115
X0296Y0125
X0296Y0135
X0296Y0145
X0296Y0155
X0296Y0165
X0296Y0175
X0296Y0185
X0296Y0195
X0296Y0205
X0296Y0215
X0296Y0225
X0296Y0235
X0296Y0245
X0296Y0255
X0296Y0265
X0296Y0275
X0296Y0285
X0296Y0295
T2C.037F197S55
X017Y0085
X012Y013
X012Y027
X017Y0325
X0296Y0325
X0296Y0085
T3C.03937F197S55
X0125Y018
X0115Y018
X0115Y019
X0125Y019
X0115Y02
X0125Y02
X0115Y021
X0125Y021
X0115Y022
X0125Y022
T4C.03937F197S55
X015Y018
X015Y019
X015Y02
X015Y021
X015Y022
X011Y031
X014Y031
X012Y031
X013Y031
M30
