*
*
G04 PADS VX.2.4 Build Number: 11282995 generated Gerber (RS-274-X) file*
G04 PC Version=2.1*
*
%IN "WriterTranBo(Empty).pcb"*%
*
%MOIN*%
*
%FSLAX35Y35*%
*
*
*
*
G04 PC Standard Apertures*
*
*
G04 Thermal Relief Aperture macro.*
%AMTER*
1,1,$1,0,0*
1,0,$1-$2,0,0*
21,0,$3,$4,0,0,45*
21,0,$3,$4,0,0,135*
%
*
*
G04 Annular Aperture macro.*
%AMANN*
1,1,$1,0,0*
1,0,$2,0,0*
%
*
*
G04 Odd Aperture macro.*
%AMODD*
1,1,$1,0,0*
1,0,$1-0.005,0,0*
%
*
*
G04 PC Custom Aperture Macros*
*
*
*
*
*
*
G04 PC Aperture Table*
*
%ADD010C,0.001*%
%ADD014C,0.06*%
%ADD022C,0.02*%
%ADD035R,0.07087X0.07087*%
%ADD036C,0.07087*%
%ADD052C,0.015*%
%ADD079C,0.03*%
%ADD080C,0.055*%
*
*
*
*
G04 PC Circuitry*
G04 Layer Name WriterTranBo(Empty).pcb - circuitry*
%LPD*%
*
*
G04 PC Custom Flashes*
G04 Layer Name WriterTranBo(Empty).pcb - flashes*
%LPD*%
*
*
G04 PC Circuitry*
G04 Layer Name WriterTranBo(Empty).pcb - circuitry*
%LPD*%
*
G54D10*
G54D14*
G01X236000Y105000D03*
Y115000D03*
Y125000D03*
Y135000D03*
Y145000D03*
Y155000D03*
Y165000D03*
Y175000D03*
Y185000D03*
Y195000D03*
Y205000D03*
Y215000D03*
Y225000D03*
Y235000D03*
Y245000D03*
Y255000D03*
Y265000D03*
Y275000D03*
Y285000D03*
Y295000D03*
X296000D03*
Y285000D03*
Y275000D03*
Y265000D03*
Y255000D03*
Y245000D03*
Y235000D03*
Y225000D03*
Y215000D03*
Y205000D03*
Y195000D03*
Y185000D03*
Y175000D03*
Y165000D03*
Y155000D03*
Y145000D03*
Y135000D03*
Y125000D03*
Y115000D03*
Y105000D03*
G54D22*
X300750Y85000D02*
G75*
G03X300750I-4750J0D01*
G01Y325000D02*
G03X300750I-4750J0D01*
G01X174750Y85000D02*
G03X174750I-4750J0D01*
G01Y220000D02*
G03X174750I-4750J0D01*
G01Y325000D02*
G03X174750I-4750J0D01*
G01X124750Y130000D02*
G03X124750I-4750J0D01*
G01Y270000D02*
G03X124750I-4750J0D01*
G01X330000Y326879D02*
G03X328247Y327537I-1000J-0D01*
G01X317585Y340027D02*
G03X328247Y327537I4415J-7027D01*
G01X317585Y340027D02*
G03X317053Y341874I-532J847D01*
G01X96583*
G03X95583Y340874I-0J-1000*
G01Y242671*
G03X97536Y242369I1000J0*
G01Y237631D02*
G03Y242369I7464J2369D01*
G01Y237631D02*
G03X95583Y237329I-953J-302D01*
G01Y162671*
G03X97536Y162369I1000J0*
G01Y157631D02*
G03Y162369I7464J2369D01*
G01Y157631D02*
G03X95583Y157329I-953J-302D01*
G01Y72126*
G03X96583Y71126I1000J0*
G01X329000*
G03X330000Y72126I-0J1000*
G01Y75879*
G03X328247Y76537I-1000J-0*
G01Y87463D02*
G03Y76537I-6247J-5463D01*
G01Y87463D02*
G03X330000Y88121I753J658D01*
G01Y326879*
X300750Y85000D02*
G03X300750I-4750J0D01*
G01X298764Y290833D02*
G03Y289167I553J-833D01*
G01Y280833D02*
G03Y289167I-2764J4167D01*
G01Y280833D02*
G03Y279167I553J-833D01*
G01Y270833D02*
G03Y279167I-2764J4167D01*
G01Y270833D02*
G03Y269167I553J-833D01*
G01Y260833D02*
G03Y269167I-2764J4167D01*
G01Y260833D02*
G03Y259167I553J-833D01*
G01Y250833D02*
G03Y259167I-2764J4167D01*
G01Y250833D02*
G03Y249167I553J-833D01*
G01Y240833D02*
G03Y249167I-2764J4167D01*
G01Y240833D02*
G03Y239167I553J-833D01*
G01Y230833D02*
G03Y239167I-2764J4167D01*
G01Y230833D02*
G03Y229167I553J-833D01*
G01Y220833D02*
G03Y229167I-2764J4167D01*
G01Y220833D02*
G03Y219167I553J-833D01*
G01Y210833D02*
G03Y219167I-2764J4167D01*
G01Y210833D02*
G03Y209167I553J-833D01*
G01Y200833D02*
G03Y209167I-2764J4167D01*
G01Y200833D02*
G03Y199167I553J-833D01*
G01Y190833D02*
G03Y199167I-2764J4167D01*
G01Y190833D02*
G03Y189167I553J-833D01*
G01Y180833D02*
G03Y189167I-2764J4167D01*
G01Y180833D02*
G03Y179167I553J-833D01*
G01Y170833D02*
G03Y179167I-2764J4167D01*
G01Y170833D02*
G03Y169167I553J-833D01*
G01Y160833D02*
G03Y169167I-2764J4167D01*
G01Y160833D02*
G03Y159167I553J-833D01*
G01Y150833D02*
G03Y159167I-2764J4167D01*
G01Y150833D02*
G03Y149167I553J-833D01*
G01Y140833D02*
G03Y149167I-2764J4167D01*
G01Y140833D02*
G03Y139167I553J-833D01*
G01Y130833D02*
G03Y139167I-2764J4167D01*
G01Y130833D02*
G03Y129167I553J-833D01*
G01Y120833D02*
G03Y129167I-2764J4167D01*
G01Y120833D02*
G03Y119167I553J-833D01*
G01Y110833D02*
G03Y119167I-2764J4167D01*
G01Y110833D02*
G03Y109167I553J-833D01*
G01X301000Y105000D02*
G03X298764Y109167I-5000J0D01*
G01X291000Y105000D02*
G03X301000I5000J0D01*
G01X293236Y109167D02*
G03X291000Y105000I2764J-4167D01*
G01X293236Y109167D02*
G03Y110833I-553J833D01*
G01Y119167D02*
G03Y110833I2764J-4167D01*
G01Y119167D02*
G03Y120833I-553J833D01*
G01Y129167D02*
G03Y120833I2764J-4167D01*
G01Y129167D02*
G03Y130833I-553J833D01*
G01Y139167D02*
G03Y130833I2764J-4167D01*
G01Y139167D02*
G03Y140833I-553J833D01*
G01Y149167D02*
G03Y140833I2764J-4167D01*
G01Y149167D02*
G03Y150833I-553J833D01*
G01Y159167D02*
G03Y150833I2764J-4167D01*
G01Y159167D02*
G03Y160833I-553J833D01*
G01Y169167D02*
G03Y160833I2764J-4167D01*
G01Y169167D02*
G03Y170833I-553J833D01*
G01Y179167D02*
G03Y170833I2764J-4167D01*
G01Y179167D02*
G03Y180833I-553J833D01*
G01Y189167D02*
G03Y180833I2764J-4167D01*
G01Y189167D02*
G03Y190833I-553J833D01*
G01Y199167D02*
G03Y190833I2764J-4167D01*
G01Y199167D02*
G03Y200833I-553J833D01*
G01Y209167D02*
G03Y200833I2764J-4167D01*
G01Y209167D02*
G03Y210833I-553J833D01*
G01Y219167D02*
G03Y210833I2764J-4167D01*
G01Y219167D02*
G03Y220833I-553J833D01*
G01Y229167D02*
G03Y220833I2764J-4167D01*
G01Y229167D02*
G03Y230833I-553J833D01*
G01Y239167D02*
G03Y230833I2764J-4167D01*
G01Y239167D02*
G03Y240833I-553J833D01*
G01Y249167D02*
G03Y240833I2764J-4167D01*
G01Y249167D02*
G03Y250833I-553J833D01*
G01Y259167D02*
G03Y250833I2764J-4167D01*
G01Y259167D02*
G03Y260833I-553J833D01*
G01Y269167D02*
G03Y260833I2764J-4167D01*
G01Y269167D02*
G03Y270833I-553J833D01*
G01Y279167D02*
G03Y270833I2764J-4167D01*
G01Y279167D02*
G03Y280833I-553J833D01*
G01Y289167D02*
G03Y280833I2764J-4167D01*
G01Y289167D02*
G03Y290833I-553J833D01*
G01X291000Y295000D02*
G03X293236Y290833I5000J0D01*
G01X298764D02*
G03X291000Y295000I-2764J4167D01*
G01X300750Y325000D02*
G03X300750I-4750J0D01*
G01X238764Y290833D02*
G03Y289167I553J-833D01*
G01Y280833D02*
G03Y289167I-2764J4167D01*
G01Y280833D02*
G03Y279167I553J-833D01*
G01Y270833D02*
G03Y279167I-2764J4167D01*
G01Y270833D02*
G03Y269167I553J-833D01*
G01Y260833D02*
G03Y269167I-2764J4167D01*
G01Y260833D02*
G03Y259167I553J-833D01*
G01Y250833D02*
G03Y259167I-2764J4167D01*
G01Y250833D02*
G03Y249167I553J-833D01*
G01Y240833D02*
G03Y249167I-2764J4167D01*
G01Y240833D02*
G03Y239167I553J-833D01*
G01Y230833D02*
G03Y239167I-2764J4167D01*
G01Y230833D02*
G03Y229167I553J-833D01*
G01Y220833D02*
G03Y229167I-2764J4167D01*
G01Y220833D02*
G03Y219167I553J-833D01*
G01Y210833D02*
G03Y219167I-2764J4167D01*
G01Y210833D02*
G03Y209167I553J-833D01*
G01Y200833D02*
G03Y209167I-2764J4167D01*
G01Y200833D02*
G03Y199167I553J-833D01*
G01Y190833D02*
G03Y199167I-2764J4167D01*
G01Y190833D02*
G03Y189167I553J-833D01*
G01Y180833D02*
G03Y189167I-2764J4167D01*
G01Y180833D02*
G03Y179167I553J-833D01*
G01Y170833D02*
G03Y179167I-2764J4167D01*
G01Y170833D02*
G03Y169167I553J-833D01*
G01Y160833D02*
G03Y169167I-2764J4167D01*
G01Y160833D02*
G03Y159167I553J-833D01*
G01Y150833D02*
G03Y159167I-2764J4167D01*
G01Y150833D02*
G03Y149167I553J-833D01*
G01Y140833D02*
G03Y149167I-2764J4167D01*
G01Y140833D02*
G03Y139167I553J-833D01*
G01Y130833D02*
G03Y139167I-2764J4167D01*
G01Y130833D02*
G03Y129167I553J-833D01*
G01Y120833D02*
G03Y129167I-2764J4167D01*
G01Y120833D02*
G03Y119167I553J-833D01*
G01Y110833D02*
G03Y119167I-2764J4167D01*
G01Y110833D02*
G03Y109167I553J-833D01*
G01X241000Y105000D02*
G03X238764Y109167I-5000J0D01*
G01X231000Y105000D02*
G03X241000I5000J0D01*
G01X233236Y109167D02*
G03X231000Y105000I2764J-4167D01*
G01X233236Y109167D02*
G03Y110833I-553J833D01*
G01Y119167D02*
G03Y110833I2764J-4167D01*
G01Y119167D02*
G03Y120833I-553J833D01*
G01Y129167D02*
G03Y120833I2764J-4167D01*
G01Y129167D02*
G03Y130833I-553J833D01*
G01Y139167D02*
G03Y130833I2764J-4167D01*
G01Y139167D02*
G03Y140833I-553J833D01*
G01Y149167D02*
G03Y140833I2764J-4167D01*
G01Y149167D02*
G03Y150833I-553J833D01*
G01Y159167D02*
G03Y150833I2764J-4167D01*
G01Y159167D02*
G03Y160833I-553J833D01*
G01Y169167D02*
G03Y160833I2764J-4167D01*
G01Y169167D02*
G03Y170833I-553J833D01*
G01Y179167D02*
G03Y170833I2764J-4167D01*
G01Y179167D02*
G03Y180833I-553J833D01*
G01Y189167D02*
G03Y180833I2764J-4167D01*
G01Y189167D02*
G03Y190833I-553J833D01*
G01Y199167D02*
G03Y190833I2764J-4167D01*
G01Y199167D02*
G03Y200833I-553J833D01*
G01Y209167D02*
G03Y200833I2764J-4167D01*
G01Y209167D02*
G03Y210833I-553J833D01*
G01Y219167D02*
G03Y210833I2764J-4167D01*
G01Y219167D02*
G03Y220833I-553J833D01*
G01Y229167D02*
G03Y220833I2764J-4167D01*
G01Y229167D02*
G03Y230833I-553J833D01*
G01Y239167D02*
G03Y230833I2764J-4167D01*
G01Y239167D02*
G03Y240833I-553J833D01*
G01Y249167D02*
G03Y240833I2764J-4167D01*
G01Y249167D02*
G03Y250833I-553J833D01*
G01Y259167D02*
G03Y250833I2764J-4167D01*
G01Y259167D02*
G03Y260833I-553J833D01*
G01Y269167D02*
G03Y260833I2764J-4167D01*
G01Y269167D02*
G03Y270833I-553J833D01*
G01Y279167D02*
G03Y270833I2764J-4167D01*
G01Y279167D02*
G03Y280833I-553J833D01*
G01Y289167D02*
G03Y280833I2764J-4167D01*
G01Y289167D02*
G03Y290833I-553J833D01*
G01X231000Y295000D02*
G03X233236Y290833I5000J0D01*
G01X238764D02*
G03X231000Y295000I-2764J4167D01*
G01X174750Y85000D02*
G03X174750I-4750J0D01*
G01Y220000D02*
G03X174750I-4750J0D01*
G01Y325000D02*
G03X174750I-4750J0D01*
G01X124750Y130000D02*
G03X124750I-4750J0D01*
G01X135764Y306424D02*
G03X134236I-764J-645D01*
G01X125764D02*
G03X134236I4236J3576D01*
G01X125764D02*
G03X124236I-764J-645D01*
G01X115764D02*
G03X124236I4236J3576D01*
G01X115764D02*
G03X114236I-764J-645D01*
G01Y313576D02*
G03Y306424I-4236J-3576D01*
G01Y313576D02*
G03X115764I764J645D01*
G01X124236D02*
G03X115764I-4236J-3576D01*
G01X124236D02*
G03X125764I764J645D01*
G01X134236D02*
G03X125764I-4236J-3576D01*
G01X134236D02*
G03X135764I764J645D01*
G01Y306424D02*
G03Y313576I4236J3576D01*
G01X128576Y215764D02*
G03Y214236I645J-764D01*
G01Y205764D02*
G03Y214236I-3576J4236D01*
G01Y205764D02*
G03Y204236I645J-764D01*
G01Y195764D02*
G03Y204236I-3576J4236D01*
G01Y195764D02*
G03Y194236I645J-764D01*
G01X130543Y190000D02*
G03X128576Y194236I-5543J0D01*
G01X129412Y186644D02*
G03X130543Y190000I-4412J3356D01*
G01X129412Y186644D02*
G03X129208Y186039I796J-605D01*
X129653Y185207I1000J-0*
G01X130543Y183543D02*
G03X129653Y185207I-2000J0D01*
G01X130543Y183543D02*
Y176457D01*
X128543Y174457D02*
G03X130543Y176457I0J2000D01*
G01X128543Y174457D02*
X121457D01*
X119793Y175347D02*
G03X121457Y174457I1664J1110D01*
G01X119793Y175347D02*
G03X118356Y175588I-832J-555D01*
G01X109457Y180000D02*
G03X118356Y175588I5543J0D01*
G01X111424Y184236D02*
G03X109457Y180000I3576J-4236D01*
G01X111424Y184236D02*
G03Y185764I-645J764D01*
G01Y194236D02*
G03Y185764I3576J-4236D01*
G01Y194236D02*
G03Y195764I-645J764D01*
G01Y204236D02*
G03Y195764I3576J-4236D01*
G01Y204236D02*
G03Y205764I-645J764D01*
G01Y214236D02*
G03Y205764I3576J-4236D01*
G01Y214236D02*
G03Y215764I-645J764D01*
G01X109457Y220000D02*
G03X111424Y215764I5543J0D01*
G01X119236Y223576D02*
G03X109457Y220000I-4236J-3576D01*
G01X119236Y223576D02*
G03X120764I764J645D01*
G01X128576Y215764D02*
G03X120764Y223576I-3576J4236D01*
G01X124750Y270000D02*
G03X124750I-4750J0D01*
G01X327431Y326725D02*
X330000D01*
X323914Y324925D02*
X330000D01*
X300364Y323125D02*
X330000D01*
X299009Y321325D02*
X330000D01*
X95583Y319525D02*
X330000D01*
X95583Y317725D02*
X330000D01*
X95583Y315925D02*
X330000D01*
X143703Y314125D02*
X330000D01*
X145032Y312325D02*
X330000D01*
X145518Y310525D02*
X330000D01*
X145395Y308725D02*
X330000D01*
X144612Y306925D02*
X330000D01*
X142638Y305125D02*
X330000D01*
X95583Y303325D02*
X330000D01*
X95583Y301525D02*
X330000D01*
X297636Y299725D02*
X330000D01*
X300055Y297925D02*
X330000D01*
X300872Y296125D02*
X330000D01*
X300954Y294325D02*
X330000D01*
X300344Y292525D02*
X330000D01*
X298628Y290725D02*
X330000D01*
X299098Y288925D02*
X330000D01*
X300526Y287125D02*
X330000D01*
X300989Y285325D02*
X330000D01*
X300777Y283525D02*
X330000D01*
X299778Y281725D02*
X330000D01*
X298320Y279925D02*
X330000D01*
X299903Y278125D02*
X330000D01*
X300821Y276325D02*
X330000D01*
X300977Y274525D02*
X330000D01*
X300452Y272725D02*
X330000D01*
X298897Y270925D02*
X330000D01*
X298826Y269125D02*
X330000D01*
X300427Y267325D02*
X330000D01*
X300972Y265525D02*
X330000D01*
X300835Y263725D02*
X330000D01*
X299942Y261925D02*
X330000D01*
X298324Y260125D02*
X330000D01*
X299735Y258325D02*
X330000D01*
X300762Y256525D02*
X330000D01*
X300992Y254725D02*
X330000D01*
X300549Y252925D02*
X330000D01*
X299159Y251125D02*
X330000D01*
X298579Y249325D02*
X330000D01*
X300316Y247525D02*
X330000D01*
X300947Y245725D02*
X330000D01*
X300883Y243925D02*
X330000D01*
X300091Y242125D02*
X330000D01*
X298371Y240325D02*
X330000D01*
X299546Y238525D02*
X330000D01*
X300693Y236725D02*
X330000D01*
X300999Y234925D02*
X330000D01*
X300635Y233125D02*
X330000D01*
X299390Y231325D02*
X330000D01*
X298437Y229525D02*
X330000D01*
X300192Y227725D02*
X330000D01*
X300914Y225925D02*
X330000D01*
X300923Y224125D02*
X330000D01*
X300224Y222325D02*
X330000D01*
X298465Y220525D02*
X330000D01*
X299336Y218725D02*
X330000D01*
X300615Y216925D02*
X330000D01*
X300998Y215125D02*
X330000D01*
X300711Y213325D02*
X330000D01*
X299595Y211525D02*
X330000D01*
X298355Y209725D02*
X330000D01*
X300055Y207925D02*
X330000D01*
X300872Y206125D02*
X330000D01*
X300954Y204325D02*
X330000D01*
X300344Y202525D02*
X330000D01*
X298628Y200725D02*
X330000D01*
X299098Y198925D02*
X330000D01*
X300526Y197125D02*
X330000D01*
X300989Y195325D02*
X330000D01*
X300777Y193525D02*
X330000D01*
X299778Y191725D02*
X330000D01*
X298320Y189925D02*
X330000D01*
X299903Y188125D02*
X330000D01*
X300821Y186325D02*
X330000D01*
X300977Y184525D02*
X330000D01*
X300452Y182725D02*
X330000D01*
X298897Y180925D02*
X330000D01*
X298826Y179125D02*
X330000D01*
X300427Y177325D02*
X330000D01*
X300972Y175525D02*
X330000D01*
X300835Y173725D02*
X330000D01*
X299942Y171925D02*
X330000D01*
X298324Y170125D02*
X330000D01*
X299735Y168325D02*
X330000D01*
X300762Y166525D02*
X330000D01*
X300992Y164725D02*
X330000D01*
X300549Y162925D02*
X330000D01*
X299159Y161125D02*
X330000D01*
X298579Y159325D02*
X330000D01*
X300316Y157525D02*
X330000D01*
X300947Y155725D02*
X330000D01*
X300883Y153925D02*
X330000D01*
X300091Y152125D02*
X330000D01*
X298371Y150325D02*
X330000D01*
X299546Y148525D02*
X330000D01*
X300693Y146725D02*
X330000D01*
X300999Y144925D02*
X330000D01*
X300635Y143125D02*
X330000D01*
X299390Y141325D02*
X330000D01*
X298437Y139525D02*
X330000D01*
X300192Y137725D02*
X330000D01*
X300914Y135925D02*
X330000D01*
X300923Y134125D02*
X330000D01*
X300224Y132325D02*
X330000D01*
X298465Y130525D02*
X330000D01*
X299336Y128725D02*
X330000D01*
X300615Y126925D02*
X330000D01*
X300998Y125125D02*
X330000D01*
X300711Y123325D02*
X330000D01*
X299595Y121525D02*
X330000D01*
X298355Y119725D02*
X330000D01*
X300055Y117925D02*
X330000D01*
X300872Y116125D02*
X330000D01*
X300954Y114325D02*
X330000D01*
X300344Y112525D02*
X330000D01*
X298628Y110725D02*
X330000D01*
X299098Y108925D02*
X330000D01*
X300526Y107125D02*
X330000D01*
X300989Y105325D02*
X330000D01*
X300777Y103525D02*
X330000D01*
X299778Y101725D02*
X330000D01*
X95583Y99925D02*
X330000D01*
X95583Y98125D02*
X330000D01*
X95583Y96325D02*
X330000D01*
X95583Y94525D02*
X330000D01*
X95583Y92725D02*
X330000D01*
X95583Y90925D02*
X330000D01*
X326256Y89125D02*
X330000D01*
X325993Y74725D02*
X330000D01*
X95583Y72925D02*
X330000D01*
X328237Y76525D02*
X329763D01*
X328396Y87325D02*
X329604D01*
X300749Y324925D02*
X320086D01*
X95615Y341125D02*
X318021D01*
X95583Y74725D02*
X318007D01*
X298356Y89125D02*
X317744D01*
X95583Y339325D02*
X316627D01*
X300426Y326725D02*
X316569D01*
X95583Y76525D02*
X315763D01*
X300142Y87325D02*
X315634D01*
X95583Y337525D02*
X315043D01*
X299184Y328525D02*
X315011D01*
X95583Y78325D02*
X314559D01*
X300721Y85525D02*
X314487D01*
X95583Y335725D02*
X314161D01*
X95583Y330325D02*
X314144D01*
X95583Y80125D02*
X313916D01*
X300576Y83725D02*
X313882D01*
X95583Y333925D02*
X313753D01*
X95583Y332125D02*
X313747D01*
X299620Y81925D02*
X313701D01*
X237636Y299725D02*
X294364D01*
X238320Y279925D02*
X293680D01*
X238320Y189925D02*
X293680D01*
X238324Y260125D02*
X293676D01*
X238324Y170125D02*
X293676D01*
X238355Y209725D02*
X293645D01*
X238355Y119725D02*
X293645D01*
X172356Y89125D02*
X293644D01*
X238371Y240325D02*
X293629D01*
X238371Y150325D02*
X293629D01*
X238437Y229525D02*
X293563D01*
X238437Y139525D02*
X293563D01*
X238465Y220525D02*
X293535D01*
X238465Y130525D02*
X293535D01*
X238579Y249325D02*
X293421D01*
X238579Y159325D02*
X293421D01*
X238628Y290725D02*
X293372D01*
X238628Y200725D02*
X293372D01*
X238628Y110725D02*
X293372D01*
X238826Y269125D02*
X293174D01*
X238826Y179125D02*
X293174D01*
X238897Y270925D02*
X293103D01*
X238897Y180925D02*
X293103D01*
X173009Y321325D02*
X292991D01*
X239098Y288925D02*
X292902D01*
X239098Y198925D02*
X292902D01*
X239098Y108925D02*
X292902D01*
X239159Y251125D02*
X292841D01*
X239159Y161125D02*
X292841D01*
X173184Y328525D02*
X292816D01*
X239336Y218725D02*
X292664D01*
X239336Y128725D02*
X292664D01*
X239390Y231325D02*
X292610D01*
X239390Y141325D02*
X292610D01*
X239546Y238525D02*
X292454D01*
X239546Y148525D02*
X292454D01*
X239595Y211525D02*
X292405D01*
X239595Y121525D02*
X292405D01*
X173620Y81925D02*
X292380D01*
X239735Y258325D02*
X292265D01*
X239735Y168325D02*
X292265D01*
X239778Y281725D02*
X292222D01*
X239778Y191725D02*
X292222D01*
X239778Y101725D02*
X292222D01*
X239903Y278125D02*
X292097D01*
X239903Y188125D02*
X292097D01*
X239942Y261925D02*
X292058D01*
X239942Y171925D02*
X292058D01*
X240055Y297925D02*
X291945D01*
X240055Y207925D02*
X291945D01*
X240055Y117925D02*
X291945D01*
X240091Y242125D02*
X291909D01*
X240091Y152125D02*
X291909D01*
X174142Y87325D02*
X291858D01*
X240192Y227725D02*
X291808D01*
X240192Y137725D02*
X291808D01*
X240224Y222325D02*
X291776D01*
X240224Y132325D02*
X291776D01*
X240316Y247525D02*
X291684D01*
X240316Y157525D02*
X291684D01*
X240344Y292525D02*
X291656D01*
X240344Y202525D02*
X291656D01*
X240344Y112525D02*
X291656D01*
X174364Y323125D02*
X291636D01*
X174426Y326725D02*
X291574D01*
X240427Y267325D02*
X291573D01*
X240427Y177325D02*
X291573D01*
X240452Y272725D02*
X291548D01*
X240452Y182725D02*
X291548D01*
X240526Y287125D02*
X291474D01*
X240526Y197125D02*
X291474D01*
X240526Y107125D02*
X291474D01*
X240549Y252925D02*
X291451D01*
X240549Y162925D02*
X291451D01*
X174576Y83725D02*
X291424D01*
X240615Y216925D02*
X291385D01*
X240615Y126925D02*
X291385D01*
X240635Y233125D02*
X291365D01*
X240635Y143125D02*
X291365D01*
X240693Y236725D02*
X291307D01*
X240693Y146725D02*
X291307D01*
X240711Y213325D02*
X291289D01*
X240711Y123325D02*
X291289D01*
X174721Y85525D02*
X291279D01*
X174749Y324925D02*
X291251D01*
X240762Y256525D02*
X291238D01*
X240762Y166525D02*
X291238D01*
X240777Y283525D02*
X291223D01*
X240777Y193525D02*
X291223D01*
X240777Y103525D02*
X291223D01*
X240821Y276325D02*
X291179D01*
X240821Y186325D02*
X291179D01*
X240835Y263725D02*
X291165D01*
X240835Y173725D02*
X291165D01*
X240872Y296125D02*
X291128D01*
X240872Y206125D02*
X291128D01*
X240872Y116125D02*
X291128D01*
X240883Y243925D02*
X291117D01*
X240883Y153925D02*
X291117D01*
X240914Y225925D02*
X291086D01*
X240914Y135925D02*
X291086D01*
X240923Y224125D02*
X291077D01*
X240923Y134125D02*
X291077D01*
X240947Y245725D02*
X291053D01*
X240947Y155725D02*
X291053D01*
X240954Y294325D02*
X291046D01*
X240954Y204325D02*
X291046D01*
X240954Y114325D02*
X291046D01*
X240972Y265525D02*
X291028D01*
X240972Y175525D02*
X291028D01*
X240977Y274525D02*
X291023D01*
X240977Y184525D02*
X291023D01*
X240989Y285325D02*
X291011D01*
X240989Y195325D02*
X291011D01*
X240989Y105325D02*
X291011D01*
X240992Y254725D02*
X291008D01*
X240992Y164725D02*
X291008D01*
X240998Y215125D02*
X291002D01*
X240998Y125125D02*
X291002D01*
X240999Y234925D02*
X291001D01*
X240999Y144925D02*
X291001D01*
X95583Y299725D02*
X234364D01*
X95583Y279925D02*
X233680D01*
X130543Y189925D02*
X233680D01*
X95583Y260125D02*
X233676D01*
X95583Y170125D02*
X233676D01*
X130536Y209725D02*
X233645D01*
X95583Y119725D02*
X233645D01*
X112824Y240325D02*
X233629D01*
X95583Y150325D02*
X233629D01*
X95583Y229525D02*
X233563D01*
X95583Y139525D02*
X233563D01*
X174721Y220525D02*
X233535D01*
X124721Y130525D02*
X233535D01*
X95583Y249325D02*
X233421D01*
X112802Y159325D02*
X233421D01*
X95583Y290725D02*
X233372D01*
X130496Y200725D02*
X233372D01*
X95583Y110725D02*
X233372D01*
X124669Y269125D02*
X233174D01*
X130543Y179125D02*
X233174D01*
X124659Y270925D02*
X233103D01*
X130543Y180925D02*
X233103D01*
X95583Y288925D02*
X232902D01*
X130438Y198925D02*
X232902D01*
X95583Y108925D02*
X232902D01*
X95583Y251125D02*
X232841D01*
X112750Y161125D02*
X232841D01*
X174576Y218725D02*
X232664D01*
X124576Y128725D02*
X232664D01*
X95583Y231325D02*
X232610D01*
X95583Y141325D02*
X232610D01*
X112691Y238525D02*
X232454D01*
X95583Y148525D02*
X232454D01*
X130330Y211525D02*
X232405D01*
X95583Y121525D02*
X232405D01*
X95583Y258325D02*
X232265D01*
X95583Y168325D02*
X232265D01*
X95583Y281725D02*
X232222D01*
X130268Y191725D02*
X232222D01*
X95583Y101725D02*
X232222D01*
X95583Y278125D02*
X232097D01*
X130216Y188125D02*
X232097D01*
X95583Y261925D02*
X232058D01*
X95583Y171925D02*
X232058D01*
X95583Y297925D02*
X231945D01*
X130140Y207925D02*
X231945D01*
X95583Y117925D02*
X231945D01*
X112537Y242125D02*
X231909D01*
X95583Y152125D02*
X231909D01*
X95583Y227725D02*
X231808D01*
X95583Y137725D02*
X231808D01*
X174142Y222325D02*
X231776D01*
X124142Y132325D02*
X231776D01*
X107169Y247525D02*
X231684D01*
X112429Y157525D02*
X231684D01*
X95583Y292525D02*
X231656D01*
X129935Y202525D02*
X231656D01*
X95583Y112525D02*
X231656D01*
X123925Y267325D02*
X231573D01*
X130543Y177325D02*
X231573D01*
X123891Y272725D02*
X231548D01*
X130543Y182725D02*
X231548D01*
X95583Y287125D02*
X231474D01*
X129739Y197125D02*
X231474D01*
X95583Y107125D02*
X231474D01*
X95583Y252925D02*
X231451D01*
X112264Y162925D02*
X231451D01*
X173620Y216925D02*
X231385D01*
X123620Y126925D02*
X231385D01*
X108749Y233125D02*
X231365D01*
X95583Y143125D02*
X231365D01*
X112113Y236725D02*
X231307D01*
X95583Y146725D02*
X231307D01*
X129436Y213325D02*
X231289D01*
X95583Y123325D02*
X231289D01*
X95583Y256525D02*
X231238D01*
X109330Y166525D02*
X231238D01*
X95583Y283525D02*
X231223D01*
X129278Y193525D02*
X231223D01*
X95583Y103525D02*
X231223D01*
X95583Y276325D02*
X231179D01*
X129250Y186325D02*
X231179D01*
X95583Y263725D02*
X231165D01*
X95583Y173725D02*
X231165D01*
X95583Y296125D02*
X231128D01*
X128964Y206125D02*
X231128D01*
X95583Y116125D02*
X231128D01*
X111776Y243925D02*
X231117D01*
X109941Y153925D02*
X231117D01*
X95583Y225925D02*
X231086D01*
X95583Y135925D02*
X231086D01*
X172356Y224125D02*
X231077D01*
X122356Y134125D02*
X231077D01*
X110343Y245725D02*
X231053D01*
X111561Y155725D02*
X231053D01*
X95583Y294325D02*
X231046D01*
X128483Y204325D02*
X231046D01*
X95583Y114325D02*
X231046D01*
X121592Y265525D02*
X231028D01*
X130313Y175525D02*
X231028D01*
X121446Y274525D02*
X231023D01*
X130286Y184525D02*
X231023D01*
X95583Y285325D02*
X231011D01*
X128275Y195325D02*
X231011D01*
X95583Y105325D02*
X231011D01*
X95583Y254725D02*
X231008D01*
X111245Y164725D02*
X231008D01*
X128229Y215125D02*
X231002D01*
X95583Y125125D02*
X231002D01*
X110964Y234925D02*
X231001D01*
X95583Y144925D02*
X231001D01*
X128703Y224125D02*
X167644D01*
X95583Y89125D02*
X167644D01*
X95583Y321325D02*
X166991D01*
X95583Y328525D02*
X166816D01*
X129612Y216925D02*
X166380D01*
X95583Y81925D02*
X166380D01*
X130032Y222325D02*
X165858D01*
X95583Y87325D02*
X165858D01*
X95583Y323125D02*
X165636D01*
X95583Y326725D02*
X165574D01*
X130395Y218725D02*
X165424D01*
X95583Y83725D02*
X165424D01*
X130518Y220525D02*
X165279D01*
X95583Y85525D02*
X165279D01*
X95583Y324925D02*
X165251D01*
X132638Y305125D02*
X137362D01*
X133703Y314125D02*
X136297D01*
X122638Y305125D02*
X127362D01*
X123703Y314125D02*
X126297D01*
X118703Y224125D02*
X121297D01*
X118271Y175525D02*
X119641D01*
X95583Y274525D02*
X118554D01*
X95583Y265525D02*
X118408D01*
X95583Y134125D02*
X117644D01*
X112638Y305125D02*
X117362D01*
X95583Y126925D02*
X116380D01*
X113703Y314125D02*
X116297D01*
X95583Y272725D02*
X116109D01*
X95583Y267325D02*
X116075D01*
X95583Y132325D02*
X115858D01*
X95583Y128725D02*
X115424D01*
X95583Y270925D02*
X115341D01*
X95583Y269125D02*
X115331D01*
X95583Y130525D02*
X115279D01*
X95583Y215125D02*
X111771D01*
X95583Y175525D02*
X111729D01*
X95583Y195325D02*
X111725D01*
X95583Y184525D02*
X111659D01*
X95583Y204325D02*
X111517D01*
X95583Y224125D02*
X111297D01*
X95583Y206125D02*
X111036D01*
X95583Y186325D02*
X110850D01*
X95583Y193525D02*
X110722D01*
X95583Y213325D02*
X110564D01*
X95583Y216925D02*
X110388D01*
X95583Y197125D02*
X110261D01*
X95583Y182725D02*
X110173D01*
X95583Y177325D02*
X110145D01*
X95583Y202525D02*
X110065D01*
X95583Y222325D02*
X109968D01*
X95583Y207925D02*
X109860D01*
X95583Y188125D02*
X109784D01*
X95583Y191725D02*
X109732D01*
X95583Y211525D02*
X109670D01*
X95583Y218725D02*
X109605D01*
X95583Y198925D02*
X109562D01*
X95583Y180925D02*
X109534D01*
X95583Y179125D02*
X109526D01*
X95583Y200725D02*
X109504D01*
X95583Y220525D02*
X109482D01*
X95583Y209725D02*
X109464D01*
X95583Y189925D02*
X109457D01*
X95583Y305125D02*
X107362D01*
X95583Y314125D02*
X106297D01*
X95583Y306925D02*
X105388D01*
X95583Y312325D02*
X104968D01*
X95583Y308725D02*
X104605D01*
X95583Y310525D02*
X104482D01*
X95583Y247525D02*
X102831D01*
X95583Y233125D02*
X101251D01*
X95583Y166525D02*
X100670D01*
X95583Y153925D02*
X100059D01*
X95583Y245725D02*
X99657D01*
X95583Y234925D02*
X99036D01*
X95583Y164725D02*
X98755D01*
X95583Y155725D02*
X98439D01*
X95583Y243925D02*
X98224D01*
X95583Y236725D02*
X97887D01*
X95583Y162925D02*
X97736D01*
X95602Y157525D02*
X97571D01*
X95745Y242125D02*
X97420D01*
X93583Y69126D02*
X332000D01*
Y343874*
X93583*
Y69126*
X110831Y240000D02*
G03X110831I-5831J0D01*
G01Y160000D02*
G03X110831I-5831J0D01*
G01X328299Y333000D02*
G03X328299I-6299J0D01*
G01Y82000D02*
G03X328299I-6299J0D01*
G54D35*
G01X125000Y180000D03*
G54D36*
Y190000D03*
Y200000D03*
Y210000D03*
Y220000D03*
X115000D03*
Y210000D03*
Y200000D03*
Y190000D03*
Y180000D03*
X110000Y310000D03*
X140000D03*
X120000D03*
X130000D03*
G54D52*
X123359Y133359D02*
X121945Y131945D01*
X116641Y133359D02*
X118055Y131945D01*
X116641Y126641D02*
X118055Y128055D01*
X123359Y126641D02*
X121945Y128055D01*
X123359Y273359D02*
X121945Y271945D01*
X116641Y273359D02*
X118055Y271945D01*
X116641Y266641D02*
X118055Y268055D01*
X123359Y266641D02*
X121945Y268055D01*
X299359Y88359D02*
X297945Y86945D01*
X292641Y88359D02*
X294055Y86945D01*
X292641Y81641D02*
X294055Y83055D01*
X299359Y81641D02*
X297945Y83055D01*
X173359Y223359D02*
X171945Y221945D01*
X166641Y223359D02*
X168055Y221945D01*
X166641Y216641D02*
X168055Y218055D01*
X173359Y216641D02*
X171945Y218055D01*
X173359Y328359D02*
X171945Y326945D01*
X166641Y328359D02*
X168055Y326945D01*
X166641Y321641D02*
X168055Y323055D01*
X173359Y321641D02*
X171945Y323055D01*
X173359Y88359D02*
X171945Y86945D01*
X166641Y88359D02*
X168055Y86945D01*
X166641Y81641D02*
X168055Y83055D01*
X173359Y81641D02*
X171945Y83055D01*
X299359Y328359D02*
X297945Y326945D01*
X292641Y328359D02*
X294055Y326945D01*
X292641Y321641D02*
X294055Y323055D01*
X299359Y321641D02*
X297945Y323055D01*
G54D79*
X125000Y220000D02*
X139000D01*
X150000Y231000*
Y300000*
X140000Y310000D02*
X130000D01*
X120000*
X140000D02*
X150000Y300000D01*
X110000Y310000D02*
X120000D01*
G54D80*
Y130000D03*
X170000Y85000D03*
X296000D03*
X170000Y220000D03*
X120000Y270000D03*
X170000Y325000D03*
X296000D03*
G74*
X0Y0D02*
M02*
