*
*
G04 PADS VX.2.4 Build Number: 11282995 generated Gerber (RS-274-X) file*
G04 PC Version=2.1*
*
%IN "WriterTranBo(Empty).pcb"*%
*
%MOIN*%
*
%FSLAX35Y35*%
*
*
*
*
G04 PC Standard Apertures*
*
*
G04 Thermal Relief Aperture macro.*
%AMTER*
1,1,$1,0,0*
1,0,$1-$2,0,0*
21,0,$3,$4,0,0,45*
21,0,$3,$4,0,0,135*
%
*
*
G04 Annular Aperture macro.*
%AMANN*
1,1,$1,0,0*
1,0,$2,0,0*
%
*
*
G04 Odd Aperture macro.*
%AMODD*
1,1,$1,0,0*
1,0,$1-0.005,0,0*
%
*
*
G04 PC Custom Aperture Macros*
*
*
*
*
*
*
G04 PC Aperture Table*
*
%ADD010C,0.001*%
%ADD022C,0.02*%
%ADD023C,0.01*%
%ADD024C,0.00787*%
%ADD025C,0.005*%
%ADD057C,0.00787*%
*
*
*
*
G04 PC Circuitry*
G04 Layer Name WriterTranBo(Empty).pcb - circuitry*
%LPD*%
*
G54D10*
G01X162776Y84420D02*
X162108D01*
X161939Y80708*
Y79684*
X161841Y79669*
X161585Y80523*
X160913Y82540*
X160472*
X160472D02*
X159714Y80351D01*
X159713Y80350*
X159457Y79666*
X159361Y79678*
X159275Y80361*
Y80365*
X159106Y84420*
X158523*
X158859Y79050*
X159802*
X160474Y80981*
X160644Y81578*
X160741Y81576*
X160911Y80895*
X161582Y79050*
X162440*
X162776Y84420*
X157394Y83138D02*
X156811D01*
Y82419*
X156729Y82380*
X156302Y82722*
X156298Y82725*
X155966Y83057*
X155639Y83139*
X155221Y83223*
X154730Y83141*
X154322Y82814*
X154074Y82319*
X153996Y81614*
X154659*
Y82077*
X154665Y82099*
X154836Y82441*
X154845Y82454*
X155016Y82625*
X155039Y82638*
X155381Y82724*
X155409Y82723*
X155665Y82637*
X155672Y82634*
X156014Y82464*
X156027Y82454*
X156369Y82112*
X156372Y82108*
X156714Y81681*
X156725Y81650*
Y79050*
X157394*
Y83138*
X152865Y79548D02*
X151547D01*
X151497Y79598*
Y82590*
X151547Y82640*
X152694*
Y83138*
X150828*
Y79598*
X150778Y79548*
X149631*
Y79050*
X152865*
Y79548*
X151835Y84303D02*
X151757Y84536D01*
X151681Y84689*
X151528Y84766*
X151291Y84845*
X151053Y84766*
X150901Y84689*
X150824Y84536*
X150746Y84303*
X150904Y83987*
X151055Y83836*
X151526*
X151677Y83987*
X151835Y84303*
X148591Y83138D02*
X147444D01*
X147394Y83188*
Y84345*
X146725Y84493*
Y83188*
X146675Y83138*
X144930*
Y82640*
X146675*
X146725Y82590*
Y80026*
X146717Y79998*
X146546Y79741*
X146527Y79725*
X146185Y79554*
X146175Y79550*
X145833Y79464*
X145821Y79463*
X145393*
X145377Y79465*
X144930Y79614*
Y79122*
X145401Y78965*
X145903*
X146575Y79049*
X147067Y79295*
X147311Y79700*
X147394Y80371*
Y82590*
X147444Y82640*
X148591*
Y83138*
X143633Y81049D02*
X143465Y81890D01*
X143131Y82558*
X142550Y83056*
X141718Y83222*
X140969Y83056*
X140471Y82724*
X140057Y82144*
X139973Y81305*
Y80930*
X142915*
X142965Y80880*
X142965*
X142964Y80873*
X142879Y80275*
X142872Y80256*
X142616Y79829*
X142598Y79812*
X142171Y79555*
X142152Y79549*
X141554Y79463*
X141547*
X141120*
X141108Y79464*
X140772Y79548*
X140436*
X140420Y79551*
X140229Y79614*
Y79125*
X140869Y78965*
X141628*
X142553Y79133*
X143134Y79548*
X143550Y80213*
X143633Y81049*
X142965Y81479D02*
X142965D01*
X142915Y81429*
X140692*
X140642Y81479*
X140643Y81487*
X140728Y82000*
X140733Y82014*
X140904Y82356*
X140919Y82373*
X141261Y82630*
X141282Y82639*
X141795Y82725*
X141813Y82724*
X142241Y82639*
X142261Y82630*
X142603Y82373*
X142613Y82363*
X142869Y82021*
X142878Y82000*
X142964Y81487*
X142965Y81479*
X141642Y180027D02*
X141583Y180555D01*
X141466Y181024*
X141235Y181429*
X140890Y181716*
X140366Y181891*
X139716Y181950*
X138930*
Y178221*
X139894*
X140658Y178339*
X141239Y178687*
X141408Y178912*
X141524Y179260*
X141642Y180027*
X141144Y180085D02*
Y179667D01*
X141143Y179657*
X141083Y179358*
X141078Y179343*
X140838Y178924*
X140827Y178910*
X140468Y178611*
X140441Y178600*
X139843Y178540*
X139838*
X139419*
X139369Y178590*
Y181521*
X139419Y181571*
X139778*
X139783*
X140381Y181511*
X140405Y181502*
X140824Y181203*
X140840Y181185*
X141079Y180706*
X141084Y180689*
X141144Y180090*
Y180085*
X141582Y189364D02*
X141525Y189767D01*
X141239Y190168*
X140773Y190459*
X140428Y190574*
X139598*
X139548Y190624*
Y191950*
X139110*
Y188221*
X140134*
X140721Y188280*
X141182Y188510*
X141471Y188857*
X141582Y189080*
Y189364*
X141084Y189368D02*
X141084D01*
X141083Y189358*
X141023Y189059*
X141017Y189043*
X140838Y188744*
X140813Y188723*
X140514Y188603*
X140504Y188600*
X140145Y188540*
X140137*
X139598*
X139548Y188590*
Y190205*
X139598Y190255*
X140077*
X140084*
X140503Y190195*
X140514Y190192*
X140813Y190072*
X140838Y190051*
X141017Y189752*
X141024Y189735*
X141084Y189376*
Y189368*
X141532Y200950D02*
X141000D01*
X139638Y199116*
X139548Y199145*
Y200950*
X139110*
Y197221*
X139548*
Y198966*
X139638Y198996*
X140999Y197221*
X141471*
X140097Y198995*
X140087Y199026*
X140097Y199056*
X141532Y200950*
X141803Y211950D02*
X141311D01*
X141082Y211149*
X141034Y211112*
X139419*
X139371Y211149*
X139142Y211950*
X138710*
X139934Y208221*
X140579*
X141803Y211950*
X140903Y210670D02*
X140304Y208576D01*
X140209Y208575*
X139551Y210669*
X139548Y210684*
X139548*
X139598Y210734*
X140855*
X140903Y210670*
X141642Y220027D02*
X141583Y220555D01*
X141466Y221024*
X141235Y221429*
X140890Y221716*
X140366Y221891*
X139716Y221950*
X138930*
Y218221*
X139894*
X140658Y218339*
X141239Y218687*
X141408Y218912*
X141524Y219260*
X141642Y220027*
X141144Y220085D02*
Y219667D01*
X141143Y219657*
X141083Y219358*
X141078Y219343*
X140838Y218924*
X140827Y218910*
X140468Y218611*
X140441Y218600*
X139843Y218540*
X139838*
X139419*
X139369Y218590*
Y221521*
X139419Y221571*
X139778*
X139783*
X140381Y221511*
X140405Y221502*
X140824Y221203*
X140840Y221185*
X141079Y220706*
X141084Y220689*
X141144Y220090*
Y220085*
X138591Y83138D02*
X138007D01*
Y82419*
X137926Y82380*
X137499Y82722*
X137495Y82725*
X137162Y83057*
X136835Y83139*
X136418Y83223*
X135927Y83141*
X135518Y82814*
X135271Y82319*
X135193Y81614*
X135856*
Y82077*
X135861Y82099*
X136032Y82441*
X136042Y82454*
X136213Y82625*
X136236Y82638*
X136578Y82724*
X136606Y82723*
X136862Y82637*
X136869Y82634*
X137210Y82464*
X137223Y82454*
X137565Y82112*
X137569Y82108*
X137911Y81681*
X137922Y81650*
Y79050*
X138591*
Y83138*
X138351Y180027D02*
X138293Y180555D01*
X138175Y181024*
X137944Y181429*
X137599Y181716*
X137075Y181891*
X136425Y181950*
X135640*
Y178221*
X136603*
X137367Y178339*
X137949Y178687*
X138118Y178912*
X138233Y179260*
X138351Y180027*
X137853Y180085D02*
Y179667D01*
X137852Y179657*
X137793Y179358*
X137787Y179343*
X137548Y178924*
X137536Y178910*
X137177Y178611*
X137150Y178600*
X136552Y178540*
X136547*
X136128*
X136078Y178590*
Y181521*
X136128Y181571*
X136487*
X136492*
X137090Y181511*
X137115Y181502*
X137533Y181203*
X137549Y181185*
X137788Y180706*
X137793Y180689*
X137853Y180090*
Y180085*
X138292Y189364D02*
X138234Y189767D01*
X137948Y190168*
X137483Y190459*
X137137Y190574*
X136308*
X136258Y190624*
Y191950*
X135819*
Y188221*
X136844*
X137430Y188280*
X137891Y188510*
X138180Y188857*
X138292Y189080*
Y189364*
X137794Y189368D02*
X137794D01*
X137793Y189358*
X137733Y189059*
X137727Y189043*
X137547Y188744*
X137523Y188723*
X137224Y188603*
X137213Y188600*
X136854Y188540*
X136846*
X136308*
X136258Y188590*
Y190205*
X136308Y190255*
X136786*
X136793*
X137212Y190195*
X137224Y190192*
X137523Y190072*
X137547Y190051*
X137727Y189752*
X137733Y189735*
X137793Y189376*
X137794Y189368*
X138172Y200786D02*
X137732Y200951D01*
X137262Y201010*
X136914*
X136568Y200894*
X136276Y200719*
X136046Y200547*
X135874Y200260*
X135758Y199970*
X135640Y199145*
X135699Y198674*
X135757Y198324*
X136107Y197683*
X136628Y197277*
X136915Y197220*
X137266Y197162*
X137794Y197220*
X138172Y197328*
Y197753*
X137823Y197604*
X137810Y197600*
X137331Y197540*
X137313Y197541*
X136834Y197661*
X136814Y197671*
X136455Y197970*
X136442Y197986*
X136203Y198465*
X136198Y198482*
X136138Y199080*
Y199085*
X136138*
Y199090*
X136198Y199748*
X136203Y199766*
X136442Y200245*
X136455Y200261*
X136814Y200560*
X136840Y200571*
X137319Y200631*
X137331*
X137810Y200571*
X137823Y200567*
X138172Y200418*
Y200786*
X138351Y210027D02*
X138293Y210555D01*
X138175Y211024*
X137944Y211429*
X137599Y211716*
X137075Y211891*
X136425Y211950*
X135640*
Y208221*
X136603*
X137367Y208339*
X137949Y208687*
X138118Y208912*
X138233Y209260*
X138351Y210027*
X137853Y210085D02*
Y209667D01*
X137852Y209657*
X137793Y209358*
X137787Y209343*
X137548Y208924*
X137536Y208910*
X137177Y208611*
X137150Y208600*
X136552Y208540*
X136547*
X136128*
X136078Y208590*
Y211521*
X136128Y211571*
X136487*
X136492*
X137090Y211511*
X137115Y211502*
X137533Y211203*
X137549Y211185*
X137788Y210706*
X137793Y210689*
X137853Y210090*
Y210085*
X138172Y221950D02*
X137537D01*
X136534Y219588*
X136235Y218811*
X136138Y218829*
Y221950*
X135700*
Y218221*
X136334*
X137279Y220463*
X137637Y221360*
X137734Y221342*
Y218221*
X138172*
Y221950*
X135221Y178221D02*
X133939Y181950D01*
X133293*
X132128Y178221*
X132562*
X133388Y180759*
X133627Y181536*
X133724Y181533*
X133903Y180757*
X134729Y178221*
X135221*
Y188221D02*
X133939Y191950D01*
X133293*
X132128Y188221*
X132562*
X133388Y190759*
X133627Y191536*
X133724Y191533*
X133903Y190757*
X134729Y188221*
X135221*
X134881Y199980D02*
X134766Y200438D01*
X134483Y200778*
X134023Y200951*
X133374Y201010*
X133082*
X132789Y200951*
X132349Y200841*
Y200466*
X132766Y200570*
X132773Y200571*
X133431Y200631*
X133443*
X133862Y200571*
X133867Y200570*
X134106Y200510*
X134134Y200492*
X134314Y200252*
X134322Y200234*
X134382Y199995*
X134383Y199983*
X134382Y199971*
X134322Y199731*
X134304Y199704*
X134064Y199524*
X134060Y199521*
X133761Y199342*
X133757Y199340*
X133398Y199160*
X133390Y199157*
X132981Y199040*
X132694Y198811*
X132466Y198526*
X132410Y198187*
X132466Y197793*
X132749Y197510*
X133154Y197278*
X133799Y197161*
X134028*
X134261Y197219*
X134274Y197221*
X134447*
X134642Y197270*
Y197652*
X134281Y197600*
X134280*
X133801Y197540*
X133787*
X133428Y197600*
X133424Y197601*
X133184Y197661*
X133161Y197674*
X132982Y197854*
X132969Y197877*
X132909Y198116*
X132907Y198128*
X132909Y198140*
X132969Y198380*
X132982Y198403*
X133221Y198642*
X133238Y198653*
X133536Y198773*
X133953Y198951*
X134309Y199129*
X134599Y199303*
X134824Y199585*
X134881Y199980*
Y210980D02*
X134766Y211438D01*
X134483Y211778*
X134023Y211951*
X133374Y212010*
X133082*
X132789Y211951*
X132349Y211841*
Y211466*
X132766Y211570*
X132773Y211571*
X133431Y211631*
X133443*
X133862Y211571*
X133867Y211570*
X134106Y211510*
X134134Y211492*
X134314Y211252*
X134322Y211234*
X134382Y210995*
X134383Y210983*
X134382Y210971*
X134322Y210731*
X134304Y210704*
X134064Y210524*
X134060Y210521*
X133761Y210342*
X133757Y210340*
X133398Y210160*
X133390Y210157*
X132981Y210040*
X132694Y209811*
X132466Y209526*
X132410Y209187*
X132466Y208793*
X132749Y208510*
X133154Y208278*
X133799Y208161*
X134028*
X134261Y208219*
X134274Y208221*
X134447*
X134642Y208270*
Y208652*
X134281Y208600*
X134280*
X133801Y208540*
X133787*
X133428Y208600*
X133424Y208601*
X133184Y208661*
X133161Y208674*
X132982Y208854*
X132969Y208877*
X132909Y209116*
X132907Y209128*
X132909Y209140*
X132969Y209380*
X132982Y209403*
X133221Y209642*
X133238Y209653*
X133536Y209773*
X133953Y209951*
X134309Y210129*
X134599Y210303*
X134824Y210585*
X134881Y210980*
X134941Y221790D02*
X134736Y221892D01*
X134149Y222010*
X133564*
X133218Y221894*
X132925Y221719*
X132693Y221545*
X132462Y221257*
X132348Y220970*
X132230Y220145*
X132289Y219674*
X132347Y219326*
X132757Y218681*
X132988Y218450*
X133274Y218279*
X133623Y218220*
X134035Y218162*
X134504Y218220*
X134941Y218330*
Y218753*
X134592Y218604*
X134578Y218600*
X134040Y218540*
X134023Y218541*
X133485Y218661*
X133464Y218671*
X133105Y218970*
X133094Y218982*
X132795Y219461*
X132788Y219482*
X132728Y220080*
Y220085*
X132728*
Y220090*
X132788Y220748*
X132794Y220768*
X133034Y221187*
X133045Y221201*
X133404Y221500*
X133425Y221510*
X133964Y221630*
X133974Y221631*
X134214*
X134236Y221626*
X134345Y221571*
X134453*
X134503Y221521*
Y220325*
X134453Y220275*
X133725*
Y219956*
X134941*
Y221790*
X129617Y79791D02*
X128995Y79635D01*
X128987Y79634*
X128047Y79548*
X128036Y79549*
X127437Y79634*
X127432Y79635*
X127090Y79721*
X127063Y79739*
X126806Y80081*
X126798Y80099*
X126712Y80441*
X126711Y80453*
X126712Y80465*
X126798Y80807*
X126816Y80835*
X127158Y81091*
X127162Y81094*
X127590Y81351*
X127593Y81352*
X128106Y81609*
X128114Y81612*
X128703Y81780*
X129118Y82112*
X129449Y82525*
X129531Y83018*
X129449Y83592*
X129038Y84003*
X128453Y84337*
X127525Y84506*
X127194*
X126858Y84422*
X126846Y84420*
X126596*
X126298Y84346*
Y83759*
X126839Y83836*
X126840*
X127524Y83921*
X127538*
X128051Y83836*
X128055Y83835*
X128397Y83749*
X128420Y83736*
X128676Y83480*
X128690Y83457*
X128775Y83115*
X128776Y83103*
X128775Y83090*
X128690Y82749*
X128676Y82725*
X128334Y82383*
X128334D02*
X128318Y82372D01*
X127891Y82202*
X127295Y81946*
X126785Y81691*
X126367Y81440*
X126039Y81031*
X125957Y80456*
X126123Y79792*
X126534Y79299*
X127199Y79049*
X128130Y78965*
X128551*
X128972Y79049*
X129617Y79210*
Y79791*
X125001Y84420D02*
X121084D01*
Y83922*
X122658*
X122708Y83872*
Y79050*
X123377*
Y83872*
X123427Y83922*
X125001*
Y84420*
X120215D02*
X118816D01*
X117718Y84251*
X116880Y83748*
X116635Y83421*
X116468Y82920*
X116298Y81819*
X116383Y81060*
X116551Y80386*
X116885Y79802*
X117384Y79386*
X118139Y79135*
X119071Y79050*
X120215*
Y84420*
X119546Y83872D02*
Y79684D01*
X119496Y79634*
X118983*
X118978*
X118123Y79719*
X118099Y79729*
X117501Y80156*
X117485Y80174*
X117143Y80858*
X117138Y80875*
X117053Y81730*
Y81735*
Y82333*
X117054Y82343*
X117139Y82770*
X117145Y82785*
X117487Y83384*
X117487D02*
X117498Y83397D01*
X118011Y83825*
X118038Y83836*
X118892Y83922*
X118897*
X119496*
X119546Y83872*
X110557Y84420D02*
X109071D01*
X108228Y84336*
X107562Y84003*
X107145Y83502*
X106982Y83176*
Y82764*
X107065Y82182*
X107479Y81601*
X108150Y81182*
X108649Y81016*
X109838*
X109888Y80966*
Y79050*
X110557*
Y84420*
X109888Y83872D02*
Y81564D01*
X109838Y81514*
X109154*
X109147Y81515*
X108548Y81600*
X108537Y81603*
X108110Y81774*
X108085Y81795*
X107829Y82222*
X107822Y82240*
X107737Y82752*
X107736Y82761*
X107737Y82770*
X107823Y83198*
X107829Y83214*
X108085Y83641*
X108110Y83662*
X108537Y83833*
X108547Y83836*
X109060Y83921*
X109068Y83922*
X109838*
X109888Y83872*
X105856Y84420D02*
X102623D01*
Y83922*
X103855*
X103905Y83872*
Y79598*
X103855Y79548*
X102623*
Y79050*
X105856*
Y79548*
X104624*
X104574Y79598*
Y83872*
X104624Y83922*
X105856*
Y84420*
X101326D02*
X100384D01*
X99029Y81203*
X98517Y79922*
X98420Y79940*
Y84420*
X97751*
Y79050*
X98693*
X100133Y82438*
X100560Y83548*
X100657Y83530*
Y79050*
X101326*
Y84420*
X97800Y79050D02*
Y84420D01*
X97900Y79050D02*
Y84420D01*
X98000Y79050D02*
Y84420D01*
X98100Y79050D02*
Y84420D01*
X98200Y79050D02*
Y84420D01*
X98300Y79050D02*
Y84420D01*
X98400Y79050D02*
Y84420D01*
X98500Y79050D02*
Y79900D01*
X98600Y79050D02*
Y80130D01*
X98700Y79065D02*
Y80380D01*
X98800Y79301D02*
Y80630D01*
X98900Y79536D02*
Y80880D01*
X99000Y79771D02*
Y81130D01*
X99100Y80007D02*
Y81371D01*
X99200Y80242D02*
Y81609D01*
X99300Y80477D02*
Y81846D01*
X99400Y80713D02*
Y82084D01*
X99500Y80948D02*
Y82321D01*
X99600Y81183D02*
Y82559D01*
X99700Y81418D02*
Y82796D01*
X99800Y81654D02*
Y83034D01*
X99900Y81889D02*
Y83271D01*
X100000Y82124D02*
Y83509D01*
X100100Y82360D02*
Y83746D01*
X100200Y82611D02*
Y83984D01*
X100300Y82871D02*
Y84221D01*
X100400Y83131D02*
Y84420D01*
X100500Y83391D02*
Y84420D01*
X100600Y83579D02*
Y84420D01*
X100700Y79050D02*
Y84420D01*
X100800Y79050D02*
Y84420D01*
X100900Y79050D02*
Y84420D01*
X101000Y79050D02*
Y84420D01*
X101100Y79050D02*
Y84420D01*
X101200Y79050D02*
Y84420D01*
X101300Y79050D02*
Y84420D01*
X102700Y79050D02*
Y79548D01*
Y83922D02*
Y84420D01*
X102800Y79050D02*
Y79548D01*
Y83922D02*
Y84420D01*
X102900Y79050D02*
Y79548D01*
Y83922D02*
Y84420D01*
X103000Y79050D02*
Y79548D01*
Y83922D02*
Y84420D01*
X103100Y79050D02*
Y79548D01*
Y83922D02*
Y84420D01*
X103200Y79050D02*
Y79548D01*
Y83922D02*
Y84420D01*
X103300Y79050D02*
Y79548D01*
Y83922D02*
Y84420D01*
X103400Y79050D02*
Y79548D01*
Y83922D02*
Y84420D01*
X103500Y79050D02*
Y79548D01*
Y83922D02*
Y84420D01*
X103600Y79050D02*
Y79548D01*
Y83922D02*
Y84420D01*
X103700Y79050D02*
Y79548D01*
Y83922D02*
Y84420D01*
X103800Y79050D02*
Y79548D01*
Y83922D02*
Y84420D01*
X103900Y79050D02*
Y79577D01*
Y83893D02*
Y84420D01*
X104000Y79050D02*
Y84420D01*
X104100Y79050D02*
Y84420D01*
X104200Y79050D02*
Y84420D01*
X104300Y79050D02*
Y84420D01*
X104400Y79050D02*
Y84420D01*
X104500Y79050D02*
Y84420D01*
X104600Y79050D02*
Y79554D01*
Y83916D02*
Y84420D01*
X104700Y79050D02*
Y79548D01*
Y83922D02*
Y84420D01*
X104800Y79050D02*
Y79548D01*
Y83922D02*
Y84420D01*
X104900Y79050D02*
Y79548D01*
Y83922D02*
Y84420D01*
X105000Y79050D02*
Y79548D01*
Y83922D02*
Y84420D01*
X105100Y79050D02*
Y79548D01*
Y83922D02*
Y84420D01*
X105200Y79050D02*
Y79548D01*
Y83922D02*
Y84420D01*
X105300Y79050D02*
Y79548D01*
Y83922D02*
Y84420D01*
X105400Y79050D02*
Y79548D01*
Y83922D02*
Y84420D01*
X105500Y79050D02*
Y79548D01*
Y83922D02*
Y84420D01*
X105600Y79050D02*
Y79548D01*
Y83922D02*
Y84420D01*
X105700Y79050D02*
Y79548D01*
Y83922D02*
Y84420D01*
X105800Y79050D02*
Y79548D01*
Y83922D02*
Y84420D01*
X107000Y82636D02*
Y83213D01*
X107100Y82132D02*
Y83413D01*
X107200Y81992D02*
Y83569D01*
X107300Y81852D02*
Y83689D01*
X107400Y81712D02*
Y83809D01*
X107500Y81588D02*
Y83929D01*
X107600Y81526D02*
Y84022D01*
X107700Y81463D02*
Y84072D01*
X107800Y81401D02*
Y82374D01*
Y83084D02*
Y84122D01*
X107900Y81338D02*
Y82104D01*
Y83332D02*
Y84172D01*
X108000Y81276D02*
Y81937D01*
Y83499D02*
Y84222D01*
X108100Y81213D02*
Y81779D01*
Y83657D02*
Y84272D01*
X108200Y81166D02*
Y81738D01*
Y83698D02*
Y84322D01*
X108300Y81132D02*
Y81698D01*
Y83738D02*
Y84343D01*
X108400Y81099D02*
Y81658D01*
Y83778D02*
Y84353D01*
X108500Y81066D02*
Y81618D01*
Y83818D02*
Y84363D01*
X108600Y81032D02*
Y81593D01*
Y83844D02*
Y84373D01*
X108700Y81016D02*
Y81578D01*
Y83861D02*
Y84383D01*
X108800Y81016D02*
Y81564D01*
Y83878D02*
Y84393D01*
X108900Y81016D02*
Y81550D01*
Y83894D02*
Y84403D01*
X109000Y81016D02*
Y81536D01*
Y83911D02*
Y84413D01*
X109100Y81016D02*
Y81521D01*
Y83922D02*
Y84420D01*
X109200Y81016D02*
Y81514D01*
Y83922D02*
Y84420D01*
X109300Y81016D02*
Y81514D01*
Y83922D02*
Y84420D01*
X109400Y81016D02*
Y81514D01*
Y83922D02*
Y84420D01*
X109500Y81016D02*
Y81514D01*
Y83922D02*
Y84420D01*
X109600Y81016D02*
Y81514D01*
Y83922D02*
Y84420D01*
X109700Y81016D02*
Y81514D01*
Y83922D02*
Y84420D01*
X109800Y81016D02*
Y81514D01*
Y83922D02*
Y84420D01*
X109900Y79050D02*
Y84420D01*
X110000Y79050D02*
Y84420D01*
X110100Y79050D02*
Y84420D01*
X110200Y79050D02*
Y84420D01*
X110300Y79050D02*
Y84420D01*
X110400Y79050D02*
Y84420D01*
X110500Y79050D02*
Y84420D01*
X116300Y81804D02*
Y81831D01*
X116400Y80991D02*
Y82481D01*
X116500Y80591D02*
Y83017D01*
X116600Y80301D02*
Y83317D01*
X116700Y80126D02*
Y83508D01*
X116800Y79951D02*
Y83641D01*
X116900Y79789D02*
Y83760D01*
X117000Y79706D02*
Y83820D01*
X117100Y79623D02*
Y81258D01*
Y82575D02*
Y83880D01*
X117200Y79539D02*
Y80745D01*
Y82882D02*
Y83940D01*
X117300Y79456D02*
Y80545D01*
Y83057D02*
Y84000D01*
X117400Y79381D02*
Y80345D01*
Y83232D02*
Y84060D01*
X117500Y79348D02*
Y80157D01*
Y83399D02*
Y84120D01*
X117600Y79314D02*
Y80085D01*
Y83482D02*
Y84180D01*
X117700Y79281D02*
Y80014D01*
Y83566D02*
Y84240D01*
X117800Y79248D02*
Y79942D01*
Y83649D02*
Y84264D01*
X117900Y79214D02*
Y79871D01*
Y83732D02*
Y84279D01*
X118000Y79181D02*
Y79799D01*
Y83816D02*
Y84295D01*
X118100Y79148D02*
Y79728D01*
Y83842D02*
Y84310D01*
X118200Y79129D02*
Y79712D01*
Y83852D02*
Y84325D01*
X118300Y79120D02*
Y79702D01*
Y83862D02*
Y84341D01*
X118400Y79111D02*
Y79692D01*
Y83872D02*
Y84356D01*
X118500Y79102D02*
Y79682D01*
Y83882D02*
Y84372D01*
X118600Y79093D02*
Y79672D01*
Y83892D02*
Y84387D01*
X118700Y79084D02*
Y79662D01*
Y83902D02*
Y84402D01*
X118800Y79075D02*
Y79652D01*
Y83912D02*
Y84418D01*
X118900Y79066D02*
Y79642D01*
Y83922D02*
Y84420D01*
X119000Y79056D02*
Y79634D01*
Y83922D02*
Y84420D01*
X119100Y79050D02*
Y79634D01*
Y83922D02*
Y84420D01*
X119200Y79050D02*
Y79634D01*
Y83922D02*
Y84420D01*
X119300Y79050D02*
Y79634D01*
Y83922D02*
Y84420D01*
X119400Y79050D02*
Y79634D01*
Y83922D02*
Y84420D01*
X119500Y79050D02*
Y79634D01*
Y83922D02*
Y84420D01*
X119600Y79050D02*
Y84420D01*
X119700Y79050D02*
Y84420D01*
X119800Y79050D02*
Y84420D01*
X119900Y79050D02*
Y84420D01*
X120000Y79050D02*
Y84420D01*
X120100Y79050D02*
Y84420D01*
X120200Y79050D02*
Y84420D01*
X121100Y83922D02*
Y84420D01*
X121200Y83922D02*
Y84420D01*
X121300Y83922D02*
Y84420D01*
X121400Y83922D02*
Y84420D01*
X121500Y83922D02*
Y84420D01*
X121600Y83922D02*
Y84420D01*
X121700Y83922D02*
Y84420D01*
X121800Y83922D02*
Y84420D01*
X121900Y83922D02*
Y84420D01*
X122000Y83922D02*
Y84420D01*
X122100Y83922D02*
Y84420D01*
X122200Y83922D02*
Y84420D01*
X122300Y83922D02*
Y84420D01*
X122400Y83922D02*
Y84420D01*
X122500Y83922D02*
Y84420D01*
X122600Y83922D02*
Y84420D01*
X122700Y83899D02*
Y84420D01*
X122800Y79050D02*
Y84420D01*
X122900Y79050D02*
Y84420D01*
X123000Y79050D02*
Y84420D01*
X123100Y79050D02*
Y84420D01*
X123200Y79050D02*
Y84420D01*
X123300Y79050D02*
Y84420D01*
X123400Y83914D02*
Y84420D01*
X123500Y83922D02*
Y84420D01*
X123600Y83922D02*
Y84420D01*
X123700Y83922D02*
Y84420D01*
X123800Y83922D02*
Y84420D01*
X123900Y83922D02*
Y84420D01*
X124000Y83922D02*
Y84420D01*
X124100Y83922D02*
Y84420D01*
X124200Y83922D02*
Y84420D01*
X124300Y83922D02*
Y84420D01*
X124400Y83922D02*
Y84420D01*
X124500Y83922D02*
Y84420D01*
X124600Y83922D02*
Y84420D01*
X124700Y83922D02*
Y84420D01*
X124800Y83922D02*
Y84420D01*
X124900Y83922D02*
Y84420D01*
X125000Y83922D02*
Y84420D01*
X126000Y80283D02*
Y80758D01*
X126100Y79883D02*
Y81107D01*
X126200Y79700D02*
Y81232D01*
X126300Y79580D02*
Y81357D01*
Y83759D02*
Y84346D01*
X126400Y79460D02*
Y81460D01*
Y83773D02*
Y84371D01*
X126500Y79340D02*
Y81520D01*
Y83787D02*
Y84396D01*
X126600Y79274D02*
Y81580D01*
Y83802D02*
Y84420D01*
X126700Y79236D02*
Y81640D01*
Y83816D02*
Y84420D01*
X126800Y79199D02*
Y80092D01*
Y80814D02*
Y81699D01*
Y83830D02*
Y84420D01*
X126900Y79161D02*
Y79956D01*
Y80898D02*
Y81749D01*
Y83843D02*
Y84432D01*
X127000Y79124D02*
Y79823D01*
Y80973D02*
Y81799D01*
Y83856D02*
Y84457D01*
X127100Y79086D02*
Y79718D01*
Y81048D02*
Y81849D01*
Y83868D02*
Y84482D01*
X127200Y79049D02*
Y79693D01*
Y81117D02*
Y81899D01*
Y83881D02*
Y84506D01*
X127300Y79040D02*
Y79668D01*
Y81177D02*
Y81948D01*
Y83893D02*
Y84506D01*
X127400Y79031D02*
Y79643D01*
Y81237D02*
Y81991D01*
Y83906D02*
Y84506D01*
X127500Y79022D02*
Y79625D01*
Y81297D02*
Y82034D01*
Y83918D02*
Y84506D01*
X127600Y79013D02*
Y79611D01*
Y81356D02*
Y82077D01*
Y83911D02*
Y84492D01*
X127700Y79004D02*
Y79597D01*
Y81406D02*
Y82120D01*
Y83894D02*
Y84474D01*
X127800Y78995D02*
Y79582D01*
Y81456D02*
Y82163D01*
Y83877D02*
Y84456D01*
X127900Y78985D02*
Y79568D01*
Y81506D02*
Y82205D01*
Y83861D02*
Y84437D01*
X128000Y78976D02*
Y79554D01*
Y81556D02*
Y82245D01*
Y83844D02*
Y84419D01*
X128100Y78967D02*
Y79553D01*
Y81606D02*
Y82285D01*
Y83824D02*
Y84401D01*
X128200Y78965D02*
Y79562D01*
Y81637D02*
Y82325D01*
Y83799D02*
Y84383D01*
X128300Y78965D02*
Y79571D01*
Y81665D02*
Y82365D01*
Y83774D02*
Y84365D01*
X128400Y78965D02*
Y79581D01*
Y81694D02*
Y82449D01*
Y83748D02*
Y84347D01*
X128500Y78965D02*
Y79590D01*
Y81722D02*
Y82549D01*
Y83656D02*
Y84310D01*
X128600Y78974D02*
Y79599D01*
Y81751D02*
Y82649D01*
Y83556D02*
Y84253D01*
X128700Y78994D02*
Y79608D01*
Y81779D02*
Y82790D01*
Y83415D02*
Y84196D01*
X128800Y79014D02*
Y79617D01*
Y81858D02*
Y84139D01*
X128900Y79034D02*
Y79626D01*
Y81938D02*
Y84081D01*
X129000Y79056D02*
Y79636D01*
Y82018D02*
Y84024D01*
X129100Y79081D02*
Y79661D01*
Y82098D02*
Y83940D01*
X129200Y79106D02*
Y79686D01*
Y82215D02*
Y83840D01*
X129300Y79131D02*
Y79711D01*
Y82340D02*
Y83740D01*
X129400Y79156D02*
Y79736D01*
Y82465D02*
Y83640D01*
X129500Y79181D02*
Y79761D01*
Y82834D02*
Y83232D01*
X129600Y79206D02*
Y79786D01*
X132200Y178221D02*
Y178452D01*
Y188221D02*
Y188452D01*
X132300Y178221D02*
Y178772D01*
Y188221D02*
Y188772D01*
Y219607D02*
Y220635D01*
X132400Y178221D02*
Y179092D01*
Y188221D02*
Y189092D01*
Y200478D02*
Y200854D01*
Y211478D02*
Y211854D01*
Y219242D02*
Y221100D01*
X132500Y178221D02*
Y179412D01*
Y188221D02*
Y189412D01*
Y197759D02*
Y198568D01*
Y200503D02*
Y200879D01*
Y208759D02*
Y209568D01*
Y211503D02*
Y211879D01*
Y219085D02*
Y221304D01*
X132600Y178338D02*
Y179732D01*
Y188338D02*
Y189732D01*
Y197659D02*
Y198693D01*
Y200528D02*
Y200904D01*
Y208659D02*
Y209693D01*
Y211528D02*
Y211904D01*
Y218928D02*
Y221429D01*
X132700Y178645D02*
Y180052D01*
Y188645D02*
Y190052D01*
Y197559D02*
Y198816D01*
Y200553D02*
Y200929D01*
Y208559D02*
Y209816D01*
Y211553D02*
Y211929D01*
Y218771D02*
Y221550D01*
X132800Y178952D02*
Y180372D01*
Y188952D02*
Y190372D01*
Y197481D02*
Y198896D01*
Y200574D02*
Y200953D01*
Y208481D02*
Y209896D01*
Y211574D02*
Y211953D01*
Y218638D02*
Y219453D01*
Y220779D02*
Y221625D01*
X132900Y179259D02*
Y180692D01*
Y189259D02*
Y190692D01*
Y197424D02*
Y198976D01*
Y200583D02*
Y200973D01*
Y208424D02*
Y209976D01*
Y211583D02*
Y211973D01*
Y218538D02*
Y219293D01*
Y220954D02*
Y221700D01*
X133000Y179566D02*
Y181012D01*
Y189566D02*
Y191012D01*
Y197367D02*
Y197835D01*
Y198421D02*
Y199046D01*
Y200592D02*
Y200993D01*
Y208367D02*
Y208835D01*
Y209421D02*
Y210046D01*
Y211592D02*
Y211993D01*
Y218443D02*
Y219133D01*
Y221129D02*
Y221764D01*
X133100Y179873D02*
Y181332D01*
Y189873D02*
Y191332D01*
Y197309D02*
Y197735D01*
Y198521D02*
Y199074D01*
Y200601D02*
Y201010D01*
Y208309D02*
Y208735D01*
Y209521D02*
Y210074D01*
Y211601D02*
Y212010D01*
Y218383D02*
Y218975D01*
Y221247D02*
Y221824D01*
X133200Y180181D02*
Y181652D01*
Y190181D02*
Y191652D01*
Y197270D02*
Y197657D01*
Y198621D02*
Y199103D01*
Y200610D02*
Y201010D01*
Y208270D02*
Y208657D01*
Y209621D02*
Y210103D01*
Y211610D02*
Y212010D01*
Y218323D02*
Y218891D01*
Y221330D02*
Y221884D01*
X133300Y180488D02*
Y181950D01*
Y190488D02*
Y191950D01*
Y197252D02*
Y197632D01*
Y198678D02*
Y199131D01*
Y200619D02*
Y201010D01*
Y208252D02*
Y208632D01*
Y209678D02*
Y210131D01*
Y211619D02*
Y212010D01*
Y218274D02*
Y218807D01*
Y221413D02*
Y221922D01*
X133400Y180797D02*
Y181950D01*
Y190797D02*
Y191950D01*
Y197234D02*
Y197607D01*
Y198718D02*
Y199161D01*
Y200628D02*
Y201007D01*
Y208234D02*
Y208607D01*
Y209718D02*
Y210161D01*
Y211628D02*
Y212007D01*
Y218258D02*
Y218724D01*
Y221497D02*
Y221955D01*
X133500Y181122D02*
Y181950D01*
Y191122D02*
Y191950D01*
Y197216D02*
Y197588D01*
Y198758D02*
Y199211D01*
Y200623D02*
Y200998D01*
Y208216D02*
Y208588D01*
Y209758D02*
Y210211D01*
Y211623D02*
Y211998D01*
Y218241D02*
Y218657D01*
Y221527D02*
Y221989D01*
X133600Y181447D02*
Y181950D01*
Y191447D02*
Y191950D01*
Y197197D02*
Y197572D01*
Y198800D02*
Y199261D01*
Y200608D02*
Y200989D01*
Y208197D02*
Y208572D01*
Y209800D02*
Y210261D01*
Y211608D02*
Y211989D01*
Y218224D02*
Y218635D01*
Y221549D02*
Y222010D01*
X133700Y181565D02*
Y181950D01*
Y191565D02*
Y191950D01*
Y197179D02*
Y197555D01*
Y198843D02*
Y199311D01*
Y200594D02*
Y200980D01*
Y208179D02*
Y208555D01*
Y209843D02*
Y210311D01*
Y211594D02*
Y211980D01*
Y218209D02*
Y218613D01*
Y221571D02*
Y222010D01*
X133800Y181203D02*
Y181950D01*
Y191203D02*
Y191950D01*
Y197161D02*
Y197540D01*
Y198886D02*
Y199365D01*
Y200580D02*
Y200971D01*
Y208161D02*
Y208540D01*
Y209886D02*
Y210365D01*
Y211580D02*
Y211971D01*
Y218195D02*
Y218591D01*
Y219956D02*
Y220275D01*
Y221594D02*
Y222010D01*
X133900Y180770D02*
Y181950D01*
Y190770D02*
Y191950D01*
Y197161D02*
Y197552D01*
Y198929D02*
Y199425D01*
Y200562D02*
Y200962D01*
Y208161D02*
Y208552D01*
Y209929D02*
Y210425D01*
Y211562D02*
Y211962D01*
Y218181D02*
Y218568D01*
Y219956D02*
Y220275D01*
Y221616D02*
Y222010D01*
X134000Y180459D02*
Y181772D01*
Y190459D02*
Y191772D01*
Y197161D02*
Y197565D01*
Y198975D02*
Y199485D01*
Y200537D02*
Y200953D01*
Y208161D02*
Y208565D01*
Y209975D02*
Y210485D01*
Y211537D02*
Y211953D01*
Y218167D02*
Y218546D01*
Y219956D02*
Y220275D01*
Y221631D02*
Y222010D01*
X134100Y180152D02*
Y181481D01*
Y190152D02*
Y191481D01*
Y197179D02*
Y197577D01*
Y199025D02*
Y199551D01*
Y200512D02*
Y200922D01*
Y208179D02*
Y208577D01*
Y210025D02*
Y210551D01*
Y211512D02*
Y211922D01*
Y218170D02*
Y218547D01*
Y219956D02*
Y220275D01*
Y221631D02*
Y222010D01*
X134200Y179845D02*
Y181190D01*
Y189845D02*
Y191190D01*
Y197204D02*
Y197590D01*
Y199075D02*
Y199626D01*
Y200404D02*
Y200884D01*
Y208204D02*
Y208590D01*
Y210075D02*
Y210626D01*
Y211404D02*
Y211884D01*
Y218182D02*
Y218558D01*
Y219956D02*
Y220275D01*
Y221631D02*
Y222000D01*
X134300Y179537D02*
Y180899D01*
Y189537D02*
Y190899D01*
Y197221D02*
Y197603D01*
Y199125D02*
Y199701D01*
Y200270D02*
Y200847D01*
Y208221D02*
Y208603D01*
Y210125D02*
Y210701D01*
Y211270D02*
Y211847D01*
Y218195D02*
Y218569D01*
Y219956D02*
Y220275D01*
Y221594D02*
Y221980D01*
X134400Y179230D02*
Y180608D01*
Y189230D02*
Y190608D01*
Y197221D02*
Y197617D01*
Y199184D02*
Y200809D01*
Y208221D02*
Y208617D01*
Y210184D02*
Y211809D01*
Y218207D02*
Y218580D01*
Y219956D02*
Y220275D01*
Y221571D02*
Y221960D01*
X134500Y178923D02*
Y180317D01*
Y188923D02*
Y190317D01*
Y197234D02*
Y197631D01*
Y199244D02*
Y200758D01*
Y208234D02*
Y208631D01*
Y210244D02*
Y211758D01*
Y218220D02*
Y218591D01*
Y219956D02*
Y220308D01*
Y221538D02*
Y221940D01*
X134600Y178616D02*
Y180026D01*
Y188616D02*
Y190026D01*
Y197259D02*
Y197646D01*
Y199304D02*
Y200638D01*
Y208259D02*
Y208646D01*
Y210304D02*
Y211638D01*
Y218244D02*
Y218607D01*
Y219956D02*
Y221920D01*
X134700Y178309D02*
Y179735D01*
Y188309D02*
Y189735D01*
Y199429D02*
Y200518D01*
Y210429D02*
Y211518D01*
Y218269D02*
Y218650D01*
Y219956D02*
Y221900D01*
X134800Y178221D02*
Y179444D01*
Y188221D02*
Y189444D01*
Y199554D02*
Y200303D01*
Y210554D02*
Y211303D01*
Y218294D02*
Y218693D01*
Y219956D02*
Y221860D01*
X134900Y178221D02*
Y179153D01*
Y188221D02*
Y189153D01*
Y218319D02*
Y218735D01*
Y219956D02*
Y221810D01*
X135000Y178221D02*
Y178863D01*
Y188221D02*
Y188863D01*
X135100Y178221D02*
Y178572D01*
Y188221D02*
Y188572D01*
X135200Y81614D02*
Y81681D01*
Y178221D02*
Y178281D01*
Y188221D02*
Y188281D01*
X135300Y81614D02*
Y82377D01*
X135400Y81614D02*
Y82577D01*
X135500Y81614D02*
Y82777D01*
X135600Y81614D02*
Y82879D01*
X135700Y81614D02*
Y82959D01*
Y178221D02*
Y181950D01*
Y198668D02*
Y199564D01*
Y208221D02*
Y211950D01*
Y218221D02*
Y221950D01*
X135800Y81614D02*
Y83039D01*
Y178221D02*
Y181950D01*
Y198246D02*
Y200075D01*
Y208221D02*
Y211950D01*
Y218221D02*
Y221950D01*
X135900Y82177D02*
Y83119D01*
Y178221D02*
Y181950D01*
Y188221D02*
Y191950D01*
Y198063D02*
Y200303D01*
Y208221D02*
Y211950D01*
Y218221D02*
Y221950D01*
X136000Y82377D02*
Y83153D01*
Y178221D02*
Y181950D01*
Y188221D02*
Y191950D01*
Y197879D02*
Y200470D01*
Y208221D02*
Y211950D01*
Y218221D02*
Y221950D01*
X136100Y82513D02*
Y83170D01*
Y178221D02*
Y178548D01*
Y181563D02*
Y181950D01*
Y188221D02*
Y191950D01*
Y197696D02*
Y200587D01*
Y208221D02*
Y208548D01*
Y211563D02*
Y211950D01*
Y218221D02*
Y221950D01*
X136200Y82613D02*
Y83186D01*
Y178221D02*
Y178540D01*
Y181571D02*
Y181950D01*
Y188221D02*
Y191950D01*
Y197611D02*
Y198473D01*
Y199758D02*
Y200662D01*
Y208221D02*
Y208540D01*
Y211571D02*
Y211950D01*
Y218221D02*
Y218781D01*
X136300Y82654D02*
Y83203D01*
Y178221D02*
Y178540D01*
Y181571D02*
Y181950D01*
Y188221D02*
Y188540D01*
Y190255D02*
Y190575D01*
Y197533D02*
Y198271D01*
Y199960D02*
Y200734D01*
Y208221D02*
Y208540D01*
Y211571D02*
Y211950D01*
Y218221D02*
Y218981D01*
X136400Y82679D02*
Y83220D01*
Y178221D02*
Y178540D01*
Y181571D02*
Y181950D01*
Y188221D02*
Y188540D01*
Y190255D02*
Y190574D01*
Y197455D02*
Y198071D01*
Y200160D02*
Y200794D01*
Y208221D02*
Y208540D01*
Y211571D02*
Y211950D01*
Y218377D02*
Y219241D01*
X136500Y82704D02*
Y83206D01*
Y178221D02*
Y178540D01*
Y181570D02*
Y181943D01*
Y188221D02*
Y188540D01*
Y190255D02*
Y190574D01*
Y197377D02*
Y197933D01*
Y200298D02*
Y200854D01*
Y208221D02*
Y208540D01*
Y211570D02*
Y211943D01*
Y218614D02*
Y219501D01*
X136600Y82724D02*
Y83186D01*
Y178221D02*
Y178545D01*
Y181560D02*
Y181934D01*
Y188221D02*
Y188540D01*
Y190255D02*
Y190574D01*
Y197299D02*
Y197849D01*
Y200381D02*
Y200905D01*
Y208221D02*
Y208545D01*
Y211560D02*
Y211934D01*
Y218852D02*
Y219744D01*
X136700Y82691D02*
Y83166D01*
Y178236D02*
Y178555D01*
Y181550D02*
Y181925D01*
Y188221D02*
Y188540D01*
Y190255D02*
Y190574D01*
Y197263D02*
Y197766D01*
Y200465D02*
Y200938D01*
Y208236D02*
Y208555D01*
Y211550D02*
Y211925D01*
Y219089D02*
Y219980D01*
X136800Y82658D02*
Y83146D01*
Y178251D02*
Y178565D01*
Y181540D02*
Y181916D01*
Y188221D02*
Y188540D01*
Y190254D02*
Y190574D01*
Y197243D02*
Y197683D01*
Y200548D02*
Y200972D01*
Y208251D02*
Y208565D01*
Y211540D02*
Y211916D01*
Y219327D02*
Y220215D01*
X136900Y82619D02*
Y83123D01*
Y178267D02*
Y178575D01*
Y181530D02*
Y181907D01*
Y188227D02*
Y188548D01*
Y190239D02*
Y190574D01*
Y197223D02*
Y197644D01*
Y200578D02*
Y201005D01*
Y208267D02*
Y208575D01*
Y211530D02*
Y211907D01*
Y219564D02*
Y220450D01*
X137000Y82569D02*
Y83098D01*
Y178282D02*
Y178585D01*
Y181520D02*
Y181898D01*
Y188237D02*
Y188565D01*
Y190225D02*
Y190574D01*
Y197206D02*
Y197619D01*
Y200591D02*
Y201010D01*
Y208282D02*
Y208585D01*
Y211520D02*
Y211898D01*
Y219802D02*
Y220686D01*
X137100Y82519D02*
Y83073D01*
Y178297D02*
Y178595D01*
Y181509D02*
Y181883D01*
Y188247D02*
Y188581D01*
Y190211D02*
Y190574D01*
Y197189D02*
Y197594D01*
Y200603D02*
Y201010D01*
Y208297D02*
Y208595D01*
Y211509D02*
Y211883D01*
Y220039D02*
Y220921D01*
X137200Y82469D02*
Y83020D01*
Y178313D02*
Y178630D01*
Y181441D02*
Y181849D01*
Y188257D02*
Y188598D01*
Y190197D02*
Y190553D01*
Y197173D02*
Y197569D01*
Y200616D02*
Y201010D01*
Y208313D02*
Y208630D01*
Y211441D02*
Y211849D01*
Y220277D02*
Y221156D01*
X137300Y82378D02*
Y82920D01*
Y178328D02*
Y178713D01*
Y181370D02*
Y181816D01*
Y188267D02*
Y188634D01*
Y190161D02*
Y190520D01*
Y197165D02*
Y197544D01*
Y200628D02*
Y201005D01*
Y208328D02*
Y208713D01*
Y211370D02*
Y211816D01*
Y220517D02*
Y221392D01*
X137400Y82278D02*
Y82820D01*
Y178358D02*
Y178797D01*
Y181298D02*
Y181783D01*
Y188277D02*
Y188674D01*
Y190121D02*
Y190486D01*
Y197176D02*
Y197549D01*
Y200622D02*
Y200993D01*
Y208358D02*
Y208797D01*
Y211298D02*
Y211783D01*
Y220767D02*
Y221627D01*
X137500Y82178D02*
Y82721D01*
Y178418D02*
Y178880D01*
Y181227D02*
Y181749D01*
Y188314D02*
Y188714D01*
Y190081D02*
Y190448D01*
Y197188D02*
Y197561D01*
Y200610D02*
Y200980D01*
Y208418D02*
Y208880D01*
Y211227D02*
Y211749D01*
Y221017D02*
Y221862D01*
X137600Y82069D02*
Y82641D01*
Y178478D02*
Y179015D01*
Y181083D02*
Y181716D01*
Y188364D02*
Y188832D01*
Y189963D02*
Y190385D01*
Y197199D02*
Y197574D01*
Y200597D02*
Y200968D01*
Y208478D02*
Y209015D01*
Y211083D02*
Y211716D01*
Y221267D02*
Y221950D01*
X137700Y81944D02*
Y82561D01*
Y178538D02*
Y179190D01*
Y180883D02*
Y181632D01*
Y188414D02*
Y188998D01*
Y189797D02*
Y190323D01*
Y197210D02*
Y197586D01*
Y200585D02*
Y200955D01*
Y208538D02*
Y209190D01*
Y210883D02*
Y211632D01*
Y221389D02*
Y221950D01*
X137800Y81819D02*
Y82481D01*
Y178598D02*
Y179395D01*
Y180622D02*
Y181549D01*
Y188464D02*
Y190260D01*
Y197222D02*
Y197599D01*
Y200572D02*
Y200925D01*
Y208598D02*
Y209395D01*
Y210622D02*
Y211549D01*
Y218221D02*
Y221950D01*
X137900Y81694D02*
Y82401D01*
Y178658D02*
Y181466D01*
Y188521D02*
Y190198D01*
Y197251D02*
Y197637D01*
Y200534D02*
Y200888D01*
Y208658D02*
Y211466D01*
Y218221D02*
Y221950D01*
X138000Y79050D02*
Y82393D01*
Y178756D02*
Y181331D01*
Y188640D02*
Y190095D01*
Y197279D02*
Y197679D01*
Y200492D02*
Y200850D01*
Y208756D02*
Y211331D01*
Y218221D02*
Y221950D01*
X138100Y79050D02*
Y83138D01*
Y178889D02*
Y181156D01*
Y188760D02*
Y189955D01*
Y197308D02*
Y197722D01*
Y200449D02*
Y200813D01*
Y208889D02*
Y211156D01*
Y218221D02*
Y221950D01*
X138200Y79050D02*
Y83138D01*
Y179160D02*
Y180925D01*
Y188896D02*
Y189815D01*
Y209160D02*
Y210925D01*
X138300Y79050D02*
Y83138D01*
Y179693D02*
Y180488D01*
Y209693D02*
Y210488D01*
X138400Y79050D02*
Y83138D01*
X138500Y79050D02*
Y83138D01*
X138800Y211676D02*
Y211950D01*
X138900Y211371D02*
Y211950D01*
X139000Y178221D02*
Y181950D01*
Y211066D02*
Y211950D01*
Y218221D02*
Y221950D01*
X139100Y178221D02*
Y181950D01*
Y210762D02*
Y211950D01*
Y218221D02*
Y221950D01*
X139200Y178221D02*
Y181950D01*
Y188221D02*
Y191950D01*
Y197221D02*
Y200950D01*
Y210457D02*
Y211746D01*
Y218221D02*
Y221950D01*
X139300Y178221D02*
Y181950D01*
Y188221D02*
Y191950D01*
Y197221D02*
Y200950D01*
Y210152D02*
Y211396D01*
Y218221D02*
Y221950D01*
X139400Y178221D02*
Y178543D01*
Y181568D02*
Y181950D01*
Y188221D02*
Y191950D01*
Y197221D02*
Y200950D01*
Y209847D02*
Y211116D01*
Y218221D02*
Y218543D01*
Y221568D02*
Y221950D01*
X139500Y178221D02*
Y178540D01*
Y181571D02*
Y181950D01*
Y188221D02*
Y191950D01*
Y197221D02*
Y200950D01*
Y209543D02*
Y211112D01*
Y218221D02*
Y218540D01*
Y221571D02*
Y221950D01*
X139600Y178221D02*
Y178540D01*
Y181571D02*
Y181950D01*
Y188221D02*
Y188540D01*
Y190255D02*
Y190574D01*
Y199016D02*
Y199095D01*
Y209238D02*
Y210512D01*
Y210734D02*
Y211112D01*
Y218221D02*
Y218540D01*
Y221571D02*
Y221950D01*
X139700Y178221D02*
Y178540D01*
Y181571D02*
Y181950D01*
Y188221D02*
Y188540D01*
Y190255D02*
Y190574D01*
Y198915D02*
Y199198D01*
Y208933D02*
Y210193D01*
Y210734D02*
Y211112D01*
Y218221D02*
Y218540D01*
Y221571D02*
Y221950D01*
X139800Y178221D02*
Y178540D01*
Y181569D02*
Y181942D01*
Y188221D02*
Y188540D01*
Y190255D02*
Y190574D01*
Y198785D02*
Y199333D01*
Y208628D02*
Y209875D01*
Y210734D02*
Y211112D01*
Y218221D02*
Y218540D01*
Y221569D02*
Y221942D01*
X139900Y178222D02*
Y178546D01*
Y181559D02*
Y181933D01*
Y188221D02*
Y188540D01*
Y190255D02*
Y190574D01*
Y198654D02*
Y199468D01*
Y208324D02*
Y209557D01*
Y210734D02*
Y211112D01*
Y218222D02*
Y218546D01*
Y221559D02*
Y221933D01*
X140000Y80930D02*
Y81574D01*
Y178237D02*
Y178556D01*
Y181549D02*
Y181924D01*
Y188221D02*
Y188540D01*
Y190255D02*
Y190574D01*
Y198524D02*
Y199603D01*
Y208221D02*
Y209239D01*
Y210734D02*
Y211112D01*
Y218237D02*
Y218556D01*
Y221549D02*
Y221924D01*
X140100Y80930D02*
Y82204D01*
Y178253D02*
Y178566D01*
Y181539D02*
Y181915D01*
Y188221D02*
Y188540D01*
Y190252D02*
Y190574D01*
Y198394D02*
Y198991D01*
Y199060D02*
Y199738D01*
Y208221D02*
Y208921D01*
Y210734D02*
Y211112D01*
Y218253D02*
Y218566D01*
Y221539D02*
Y221915D01*
X140200Y80930D02*
Y82344D01*
Y178268D02*
Y178576D01*
Y181529D02*
Y181906D01*
Y188228D02*
Y188550D01*
Y190238D02*
Y190574D01*
Y198263D02*
Y198862D01*
Y199192D02*
Y199872D01*
Y208221D02*
Y208602D01*
Y210734D02*
Y211112D01*
Y218268D02*
Y218576D01*
Y221529D02*
Y221906D01*
X140300Y79107D02*
Y79591D01*
Y80930D02*
Y82484D01*
Y178283D02*
Y178586D01*
Y181519D02*
Y181897D01*
Y188238D02*
Y188566D01*
Y190224D02*
Y190574D01*
Y198133D02*
Y198733D01*
Y199324D02*
Y200007D01*
Y208221D02*
Y208565D01*
Y210734D02*
Y211112D01*
Y218283D02*
Y218586D01*
Y221519D02*
Y221897D01*
X140400Y79082D02*
Y79558D01*
Y80930D02*
Y82624D01*
Y178299D02*
Y178596D01*
Y181505D02*
Y181879D01*
Y188248D02*
Y188583D01*
Y190209D02*
Y190574D01*
Y198002D02*
Y198604D01*
Y199456D02*
Y200142D01*
Y208221D02*
Y208910D01*
Y210734D02*
Y211112D01*
Y218299D02*
Y218596D01*
Y221505D02*
Y221879D01*
X140500Y79057D02*
Y79548D01*
Y80930D02*
Y82743D01*
Y178314D02*
Y178638D01*
Y181434D02*
Y181846D01*
Y188258D02*
Y188600D01*
Y190195D02*
Y190550D01*
Y197872D02*
Y198475D01*
Y199588D02*
Y200277D01*
Y208221D02*
Y209260D01*
Y210734D02*
Y211112D01*
Y218314D02*
Y218638D01*
Y221434D02*
Y221846D01*
X140600Y79032D02*
Y79548D01*
Y80930D02*
Y82810D01*
Y178330D02*
Y178721D01*
Y181363D02*
Y181813D01*
Y188268D02*
Y188637D01*
Y190157D02*
Y190517D01*
Y197741D02*
Y198346D01*
Y199720D02*
Y200412D01*
Y208284D02*
Y209610D01*
Y210734D02*
Y211112D01*
Y218330D02*
Y218721D01*
Y221363D02*
Y221813D01*
X140700Y79007D02*
Y79548D01*
Y80930D02*
Y81429D01*
Y81829D02*
Y82877D01*
Y178364D02*
Y178805D01*
Y181292D02*
Y181779D01*
Y188278D02*
Y188677D01*
Y190117D02*
Y190483D01*
Y197611D02*
Y198216D01*
Y199852D02*
Y200546D01*
Y208589D02*
Y209960D01*
Y210734D02*
Y211112D01*
Y218364D02*
Y218805D01*
Y221292D02*
Y221779D01*
X140800Y78982D02*
Y79541D01*
Y80930D02*
Y81429D01*
Y82148D02*
Y82943D01*
Y178424D02*
Y178888D01*
Y181220D02*
Y181746D01*
Y188319D02*
Y188717D01*
Y190077D02*
Y190442D01*
Y197481D02*
Y198087D01*
Y199984D02*
Y200681D01*
Y208894D02*
Y210310D01*
Y210734D02*
Y211112D01*
Y218424D02*
Y218888D01*
Y221220D02*
Y221746D01*
X140900Y78965D02*
Y79516D01*
Y80930D02*
Y81429D01*
Y82348D02*
Y83010D01*
Y178484D02*
Y179032D01*
Y181064D02*
Y181708D01*
Y188369D02*
Y188847D01*
Y189948D02*
Y190380D01*
Y197350D02*
Y197958D01*
Y200116D02*
Y200816D01*
Y209199D02*
Y210660D01*
Y210705D02*
Y211112D01*
Y218484D02*
Y219032D01*
Y221064D02*
Y221708D01*
X141000Y78965D02*
Y79491D01*
Y80930D02*
Y81429D01*
Y82434D02*
Y83063D01*
Y178544D02*
Y179207D01*
Y180864D02*
Y181624D01*
Y188419D02*
Y189014D01*
Y189781D02*
Y190317D01*
Y197221D02*
Y197829D01*
Y200248D02*
Y200950D01*
Y209503D02*
Y211112D01*
Y218544D02*
Y219207D01*
Y220864D02*
Y221624D01*
X141100Y78965D02*
Y79466D01*
Y80930D02*
Y81429D01*
Y82509D02*
Y83085D01*
Y178604D02*
Y179442D01*
Y180528D02*
Y181541D01*
Y188469D02*
Y190255D01*
Y197221D02*
Y197700D01*
Y200380D02*
Y200950D01*
Y209808D02*
Y211211D01*
Y218604D02*
Y219442D01*
Y220528D02*
Y221541D01*
X141200Y78965D02*
Y79463D01*
Y80930D02*
Y81429D01*
Y82584D02*
Y83107D01*
Y178664D02*
Y181458D01*
Y188532D02*
Y190192D01*
Y197221D02*
Y197571D01*
Y200512D02*
Y200950D01*
Y210113D02*
Y211561D01*
Y218664D02*
Y221458D01*
X141300Y78965D02*
Y79463D01*
Y80930D02*
Y81429D01*
Y82642D02*
Y83129D01*
Y178768D02*
Y181314D01*
Y188652D02*
Y190082D01*
Y197221D02*
Y197441D01*
Y200644D02*
Y200950D01*
Y210418D02*
Y211911D01*
Y218768D02*
Y221314D01*
X141400Y78965D02*
Y79463D01*
Y80930D02*
Y81429D01*
Y82659D02*
Y83152D01*
Y178902D02*
Y181139D01*
Y188772D02*
Y189942D01*
Y197221D02*
Y197312D01*
Y200776D02*
Y200950D01*
Y210723D02*
Y211950D01*
Y218902D02*
Y221139D01*
X141500Y78965D02*
Y79463D01*
Y80930D02*
Y81429D01*
Y82675D02*
Y83174D01*
Y179188D02*
Y180888D01*
Y188915D02*
Y189802D01*
Y200908D02*
Y200950D01*
Y211027D02*
Y211950D01*
Y219188D02*
Y220888D01*
X141600Y78965D02*
Y79470D01*
Y80930D02*
Y81429D01*
Y82692D02*
Y83196D01*
Y179754D02*
Y180404D01*
Y211332D02*
Y211950D01*
Y219754D02*
Y220404D01*
X141700Y78978D02*
Y79484D01*
Y80930D02*
Y81429D01*
Y82709D02*
Y83218D01*
Y211637D02*
Y211950D01*
X141800Y78996D02*
Y79498D01*
Y80930D02*
Y81429D01*
Y82725D02*
Y83206D01*
Y211942D02*
Y211950D01*
X141900Y79014D02*
Y79513D01*
Y80930D02*
Y81429D01*
Y82707D02*
Y83186D01*
X142000Y79032D02*
Y79527D01*
Y80930D02*
Y81429D01*
Y82687D02*
Y83166D01*
X142100Y79050D02*
Y79541D01*
Y80930D02*
Y81429D01*
Y82667D02*
Y83146D01*
X142200Y79069D02*
Y79573D01*
Y80930D02*
Y81429D01*
Y82647D02*
Y83126D01*
X142300Y79087D02*
Y79633D01*
Y80930D02*
Y81429D01*
Y82600D02*
Y83106D01*
X142400Y79105D02*
Y79693D01*
Y80930D02*
Y81429D01*
Y82525D02*
Y83086D01*
X142500Y79123D02*
Y79753D01*
Y80930D02*
Y81429D01*
Y82450D02*
Y83066D01*
X142600Y79166D02*
Y79813D01*
Y80930D02*
Y81429D01*
Y82375D02*
Y83013D01*
X142700Y79238D02*
Y79970D01*
Y80930D02*
Y81429D01*
Y82247D02*
Y82928D01*
X142800Y79309D02*
Y80136D01*
Y80930D02*
Y81429D01*
Y82114D02*
Y82842D01*
X142900Y79381D02*
Y80425D01*
Y80930D02*
Y81429D01*
Y81870D02*
Y82756D01*
X143000Y79452D02*
Y82670D01*
X143100Y79524D02*
Y82585D01*
X143200Y79654D02*
Y82420D01*
X143300Y79814D02*
Y82220D01*
X143400Y79974D02*
Y82020D01*
X143500Y80134D02*
Y81715D01*
X143600Y80716D02*
Y81215D01*
X145000Y79098D02*
Y79591D01*
Y82640D02*
Y83138D01*
X145100Y79065D02*
Y79558D01*
Y82640D02*
Y83138D01*
X145200Y79032D02*
Y79525D01*
Y82640D02*
Y83138D01*
X145300Y78998D02*
Y79491D01*
Y82640D02*
Y83138D01*
X145400Y78965D02*
Y79463D01*
Y82640D02*
Y83138D01*
X145500Y78965D02*
Y79463D01*
Y82640D02*
Y83138D01*
X145600Y78965D02*
Y79463D01*
Y82640D02*
Y83138D01*
X145700Y78965D02*
Y79463D01*
Y82640D02*
Y83138D01*
X145800Y78965D02*
Y79463D01*
Y82640D02*
Y83138D01*
X145900Y78965D02*
Y79481D01*
Y82640D02*
Y83138D01*
X146000Y78977D02*
Y79506D01*
Y82640D02*
Y83138D01*
X146100Y78989D02*
Y79531D01*
Y82640D02*
Y83138D01*
X146200Y79002D02*
Y79561D01*
Y82640D02*
Y83138D01*
X146300Y79014D02*
Y79611D01*
Y82640D02*
Y83138D01*
X146400Y79027D02*
Y79661D01*
Y82640D02*
Y83138D01*
X146500Y79039D02*
Y79711D01*
Y82640D02*
Y83138D01*
X146600Y79061D02*
Y79823D01*
Y82640D02*
Y83138D01*
X146700Y79111D02*
Y79973D01*
Y82633D02*
Y83145D01*
X146800Y79161D02*
Y84477D01*
X146900Y79211D02*
Y84454D01*
X147000Y79261D02*
Y84432D01*
X147100Y79349D02*
Y84410D01*
X147200Y79516D02*
Y84388D01*
X147300Y79683D02*
Y84365D01*
X147400Y82613D02*
Y83165D01*
X147500Y82640D02*
Y83138D01*
X147600Y82640D02*
Y83138D01*
X147700Y82640D02*
Y83138D01*
X147800Y82640D02*
Y83138D01*
X147900Y82640D02*
Y83138D01*
X148000Y82640D02*
Y83138D01*
X148100Y82640D02*
Y83138D01*
X148200Y82640D02*
Y83138D01*
X148300Y82640D02*
Y83138D01*
X148400Y82640D02*
Y83138D01*
X148500Y82640D02*
Y83138D01*
X149700Y79050D02*
Y79548D01*
X149800Y79050D02*
Y79548D01*
X149900Y79050D02*
Y79548D01*
X150000Y79050D02*
Y79548D01*
X150100Y79050D02*
Y79548D01*
X150200Y79050D02*
Y79548D01*
X150300Y79050D02*
Y79548D01*
X150400Y79050D02*
Y79548D01*
X150500Y79050D02*
Y79548D01*
X150600Y79050D02*
Y79548D01*
X150700Y79050D02*
Y79548D01*
X150800Y79050D02*
Y79554D01*
Y84196D02*
Y84464D01*
X150900Y79050D02*
Y83138D01*
Y83996D02*
Y84688D01*
X151000Y79050D02*
Y83138D01*
Y83891D02*
Y84739D01*
X151100Y79050D02*
Y83138D01*
Y83836D02*
Y84781D01*
X151200Y79050D02*
Y83138D01*
Y83836D02*
Y84815D01*
X151300Y79050D02*
Y83138D01*
Y83836D02*
Y84842D01*
X151400Y79050D02*
Y83138D01*
Y83836D02*
Y84808D01*
X151500Y79050D02*
Y79581D01*
Y82607D02*
Y83138D01*
Y83836D02*
Y84775D01*
X151600Y79050D02*
Y79548D01*
Y82640D02*
Y83138D01*
Y83910D02*
Y84730D01*
X151700Y79050D02*
Y79548D01*
Y82640D02*
Y83138D01*
Y84033D02*
Y84651D01*
X151800Y79050D02*
Y79548D01*
Y82640D02*
Y83138D01*
Y84233D02*
Y84408D01*
X151900Y79050D02*
Y79548D01*
Y82640D02*
Y83138D01*
X152000Y79050D02*
Y79548D01*
Y82640D02*
Y83138D01*
X152100Y79050D02*
Y79548D01*
Y82640D02*
Y83138D01*
X152200Y79050D02*
Y79548D01*
Y82640D02*
Y83138D01*
X152300Y79050D02*
Y79548D01*
Y82640D02*
Y83138D01*
X152400Y79050D02*
Y79548D01*
Y82640D02*
Y83138D01*
X152500Y79050D02*
Y79548D01*
Y82640D02*
Y83138D01*
X152600Y79050D02*
Y79548D01*
Y82640D02*
Y83138D01*
X152700Y79050D02*
Y79548D01*
X152800Y79050D02*
Y79548D01*
X154000Y81614D02*
Y81650D01*
X154100Y81614D02*
Y82370D01*
X154200Y81614D02*
Y82570D01*
X154300Y81614D02*
Y82770D01*
X154400Y81614D02*
Y82876D01*
X154500Y81614D02*
Y82956D01*
X154600Y81614D02*
Y83036D01*
X154700Y82170D02*
Y83116D01*
X154800Y82370D02*
Y83152D01*
X154900Y82509D02*
Y83169D01*
X155000Y82609D02*
Y83186D01*
X155100Y82653D02*
Y83202D01*
X155200Y82678D02*
Y83219D01*
X155300Y82703D02*
Y83207D01*
X155400Y82725D02*
Y83187D01*
X155500Y82692D02*
Y83167D01*
X155600Y82659D02*
Y83147D01*
X155700Y82620D02*
Y83124D01*
X155800Y82570D02*
Y83099D01*
X155900Y82520D02*
Y83074D01*
X156000Y82470D02*
Y83023D01*
X156100Y82381D02*
Y82923D01*
X156200Y82281D02*
Y82823D01*
X156300Y82181D02*
Y82723D01*
X156400Y82074D02*
Y82643D01*
X156500Y81949D02*
Y82563D01*
X156600Y81824D02*
Y82483D01*
X156700Y81699D02*
Y82403D01*
X156800Y79050D02*
Y82388D01*
X156900Y79050D02*
Y83138D01*
X157000Y79050D02*
Y83138D01*
X157100Y79050D02*
Y83138D01*
X157200Y79050D02*
Y83138D01*
X157300Y79050D02*
Y83138D01*
X158600Y83193D02*
Y84420D01*
X158700Y81593D02*
Y84420D01*
X158800Y79993D02*
Y84420D01*
X158900Y79050D02*
Y84420D01*
X159000Y79050D02*
Y84420D01*
X159100Y79050D02*
Y84420D01*
X159200Y79050D02*
Y82161D01*
X159300Y79050D02*
Y80163D01*
X159400Y79050D02*
Y79635D01*
X159500Y79050D02*
Y79781D01*
X159600Y79050D02*
Y80047D01*
X159700Y79050D02*
Y80314D01*
X159800Y79050D02*
Y80600D01*
X159900Y79332D02*
Y80889D01*
X160000Y79619D02*
Y81178D01*
X160100Y79907D02*
Y81467D01*
X160200Y80194D02*
Y81755D01*
X160300Y80482D02*
Y82044D01*
X160400Y80769D02*
Y82333D01*
X160500Y81073D02*
Y82540D01*
X160600Y81423D02*
Y82540D01*
X160700Y81614D02*
Y82540D01*
X160800Y81339D02*
Y82540D01*
X160900Y80939D02*
Y82540D01*
X161000Y80651D02*
Y82278D01*
X161100Y80376D02*
Y81978D01*
X161200Y80101D02*
Y81678D01*
X161300Y79826D02*
Y81378D01*
X161400Y79551D02*
Y81078D01*
X161500Y79276D02*
Y80778D01*
X161600Y79050D02*
Y80473D01*
X161700Y79050D02*
Y80139D01*
X161800Y79050D02*
Y79806D01*
X161900Y79050D02*
Y79635D01*
X162000Y79050D02*
Y82053D01*
X162100Y79050D02*
Y84253D01*
X162200Y79050D02*
Y84420D01*
X162300Y79050D02*
Y84420D01*
X162400Y79050D02*
Y84420D01*
X162500Y80007D02*
Y84420D01*
X162600Y81607D02*
Y84420D01*
X162700Y83207D02*
Y84420D01*
*
G04 PC Custom Flashes*
G04 Layer Name WriterTranBo(Empty).pcb - flashes*
%LPD*%
*
*
G04 PC Circuitry*
G04 Layer Name WriterTranBo(Empty).pcb - circuitry*
%LPD*%
*
G54D10*
G54D22*
X93583Y69126D02*
X332000D01*
Y343874*
X93583*
Y69126*
X110831Y240000D02*
G75*
G03X110831I-5831J0D01*
G01Y160000D02*
G03X110831I-5831J0D01*
G01X328299Y333000D02*
G03X328299I-6299J0D01*
G01Y82000D02*
G03X328299I-6299J0D01*
G01X104000Y304000D02*
X144000D01*
Y317000*
X104000*
Y304000*
G54D23*
X305991Y89956D02*
X226022D01*
Y310025*
X305991*
Y89956*
X311000Y306719D02*
Y309062D01*
X311000D02*
X310886Y309531D01*
X310659Y309844*
X310318Y310000*
X310091*
X309750Y309844*
X309523Y309531*
X309409Y309062*
X309409D02*
Y306719D01*
X308386Y307344D02*
X308159Y307187D01*
X308159D02*
X307818Y306719D01*
Y310000*
X106705Y320500D02*
X106591Y320187D01*
X106591D02*
X106364Y319875D01*
X106136Y319719*
X105682*
X105455Y319875*
X105227Y320187*
X105227D02*
X105114Y320500D01*
X105000Y320969*
Y321750*
X105114Y322219*
X105227Y322531*
X105455Y322844*
X105682Y323000*
X106136*
X106364Y322844*
X106591Y322531*
X106705Y322219*
Y321750*
X106136D02*
X106705D01*
X107727Y319719D02*
Y323000D01*
Y319719D02*
X109318Y323000D01*
Y319719D02*
Y323000D01*
X110341Y319719D02*
Y323000D01*
Y319719D02*
X111136D01*
X111477Y319875*
X111705Y320187*
X111705D02*
X111818Y320500D01*
X111932Y320969*
Y321750*
X111818Y322219*
X111705Y322531*
X111477Y322844*
X111136Y323000*
X110341*
G54D24*
X200104Y102415D02*
X208104D01*
Y93415*
X200104*
X197104Y102415D02*
X189104D01*
Y93415*
X197104*
X192095Y82042D02*
X205481D01*
Y89522*
X192095*
Y82042*
G54D25*
X186295Y101500D02*
X186409Y101813D01*
X186409D02*
X186636Y102125D01*
X186864Y102281*
X187318*
X187545Y102125*
X187773Y101813*
X187773D02*
X187886Y101500D01*
X188000Y101031*
Y100250*
X187886Y99781*
X187773Y99469*
X187545Y99156*
X187318Y99000*
X186864*
X186636Y99156*
X186409Y99469*
X186295Y99781*
X185273Y101656D02*
X185045Y101813D01*
X185045D02*
X184705Y102281D01*
Y99000*
X188295Y84500D02*
X188409Y84813D01*
X188636Y85125*
X188864Y85281*
X189318*
X189545Y85125*
X189773Y84813*
X189886Y84500*
X190000Y84031*
Y83250*
X189886Y82781*
X189773Y82469*
X189545Y82156*
X189318Y82000*
X188864*
X188636Y82156*
X188409Y82469*
X188295Y82781*
X187159Y84500D02*
Y84656D01*
X187045Y84969*
X186932Y85125*
X186705Y85281*
X186250*
X186023Y85125*
X185909Y84969*
X185795Y84656*
Y84344*
X185909Y84031*
X186136Y83563*
X187273Y82000*
X185682*
G54D57*
X241315Y100000D02*
X262914D01*
Y112500*
X269086*
Y100000*
X290685*
Y300000*
X241315*
Y100000*
G74*
X0Y0D02*
M02*
