*
*
G04 PADS VX.2.4 Build Number: 11282995 generated Gerber (RS-274-X) file*
G04 PC Version=2.1*
*
%IN "NewICE to OLDICE.pcb"*%
*
%MOIN*%
*
%FSLAX35Y35*%
*
*
*
*
G04 PC Standard Apertures*
*
*
G04 Thermal Relief Aperture macro.*
%AMTER*
1,1,$1,0,0*
1,0,$1-$2,0,0*
21,0,$3,$4,0,0,45*
21,0,$3,$4,0,0,135*
%
*
*
G04 Annular Aperture macro.*
%AMANN*
1,1,$1,0,0*
1,0,$2,0,0*
%
*
*
G04 Odd Aperture macro.*
%AMODD*
1,1,$1,0,0*
1,0,$1-0.005,0,0*
%
*
*
G04 PC Custom Aperture Macros*
*
*
*
*
*
*
G04 PC Aperture Table*
*
%ADD010C,0.001*%
%ADD023C,0.01*%
%ADD024C,0.00787*%
%ADD057C,0.00787*%
%ADD080C,0.03*%
*
*
*
*
G04 PC Circuitry*
G04 Layer Name NewICE to OLDICE.pcb - circuitry*
%LPD*%
*
G54D10*
G01X239039Y146810D02*
X238961Y146966D01*
X238678Y147155*
X238384Y147253*
X238378Y147255*
X238188Y147350*
X238112*
X237922Y147255*
X237900Y147250*
X237102*
X236106Y147150*
X235306Y147050*
X235300*
X234904*
X234650Y147014*
Y150150*
X235695*
X236788Y150349*
X237073Y150444*
X237150Y150521*
Y150664*
X236884Y150753*
X236878Y150755*
X236688Y150850*
X236508*
X236216Y150753*
X236200Y150750*
X236008*
X235716Y150653*
X235710Y150651*
X235214Y150552*
X234719Y150354*
X234716Y150353*
X234650Y150331*
Y151200*
X234651Y151210*
X234751Y151710*
Y151712*
X234850Y152106*
Y152500*
X234855Y152522*
X234950Y152712*
Y152873*
X234675Y153057*
X234288Y153250*
X234012*
X233830Y153159*
X233761Y153090*
X233845Y152922*
X233846Y152919*
X234046Y152419*
X234050Y152405*
X234150Y151305*
Y151300*
Y151299*
X234053Y146950*
X233402*
X231405Y146750*
X231400*
X230612*
X230450Y146669*
Y146527*
X230722Y146345*
X231016Y146247*
X231022Y146245*
X231212Y146150*
X231394*
X231788Y146249*
X231790*
X232290Y146349*
X232292*
X232892Y146449*
X232894Y146450*
X233694Y146550*
X233700*
X234498*
X235996Y146650*
X237296Y146750*
X237306*
X238103Y146650*
X238788*
X238970Y146741*
X239039Y146810*
X234418Y150253D02*
X234416D01*
X234400Y150250*
X234300*
X234250Y150300*
X234335Y150335*
X234418Y150253*
X233039Y248350D02*
X232931D01*
X232545Y247578*
X232539Y247569*
X232139Y247069*
X232122Y247055*
X231522Y246755*
X231506Y246750*
X230706Y246650*
X230690Y246651*
X230190Y246751*
X230155Y246778*
X229955Y247178*
X229950Y247200*
Y250100*
X230000Y250150*
X231100*
X231135Y250135*
X231335Y249935*
X231347Y249916*
X231447Y249616*
X231450Y249600*
Y248850*
X231650*
Y251550*
X231450*
Y250800*
X231445Y250778*
X231345Y250578*
X231322Y250555*
X230922Y250355*
X230900Y250350*
X230000*
X229950Y250400*
Y253100*
X229958Y253128*
X230158Y253428*
X230190Y253449*
X230690Y253549*
X230707*
X230707D02*
X231407Y253449D01*
X231407D02*
X231426Y253443D01*
X231926Y253143*
X231939Y253131*
X232339Y252631*
X232346Y252620*
X232633Y251950*
X232844*
X232655Y253750*
X228750*
Y253550*
X228900*
X228916Y253547*
X229216Y253447*
X229247Y253416*
X229347Y253116*
X229350Y253100*
Y247200*
X229349Y247188*
X229249Y246788*
X229216Y246753*
X228916Y246653*
X228900Y246650*
X228650*
Y246450*
X232659*
X233039Y248350*
X227519Y145596D02*
X227263Y146450D01*
X227100*
X227090Y146451*
X226595Y146550*
X226521*
X227430Y145641*
X227519Y145596*
X228250Y152469D02*
X228078Y152555D01*
X228072Y152558*
X227775Y152757*
X227600Y152844*
X227422Y152755*
X227408Y152751*
X226809Y152651*
X225852Y152477*
X225774Y152555*
X225406Y152647*
X225250Y152569*
Y152512*
X225345Y152322*
X225350Y152300*
Y152108*
X225447Y151816*
X225449Y151810*
X225549Y151310*
X225550Y151300*
Y149800*
Y149794*
X225450Y148994*
X225449Y148993*
X225449D02*
X225349Y148293D01*
X225349D02*
Y148290D01*
X225249Y147790*
X225245Y147778*
X224745Y146778*
X224741Y146771*
X224050Y145784*
Y145781*
X224175Y145843*
X224468Y146039*
X224962Y146533*
X225257Y146926*
X225653Y147717*
X225851Y148608*
X225889Y148950*
X225900*
X225916Y148947*
X226202Y148852*
X226588Y148949*
X226600Y148950*
X226888*
X227078Y149045*
X227100Y149050*
X227392*
X227650Y149136*
Y148300*
Y148294*
X227550Y147497*
Y146700*
X227545Y146678*
X227445Y146478*
X227400Y146450*
X227367*
X227631Y145571*
X227766Y145639*
X227954Y145921*
X228051Y146310*
X228150Y146904*
Y148295*
X228051Y148790*
X228050Y148800*
Y151000*
X228051Y151007*
X228051D02*
X228151Y151707D01*
X228151D02*
Y151712D01*
X228250Y152106*
Y152469*
X227650Y150400D02*
Y149269D01*
X227488Y149350*
X226905*
X226013Y149152*
X225907Y149116*
X225950Y149503*
Y150450*
X226594*
X226988Y150549*
X227000Y150550*
X227192*
X227484Y150647*
X227500Y150650*
X227633*
X227650Y150403*
Y150400*
X227623Y150806D02*
X227484Y150853D01*
X227478Y150855*
X227288Y150950*
X227008*
X226116Y150653*
X226100Y150650*
X225950*
Y151900*
X225955Y151922*
X226050Y152112*
Y152221*
X226065Y152235*
X226100Y152250*
X226395*
X226890Y152349*
X226900Y152350*
X227300*
X227322Y152345*
X227522Y152245*
X227550Y152200*
Y151902*
X227623Y150806*
X224850Y148088D02*
X224766Y148257D01*
X224394Y148350*
X224206*
X223812Y148251*
X223809*
X223150Y148131*
Y148200*
X223155Y148222*
X223244Y148400*
X223157Y148575*
X222961Y148868*
X222879Y148950*
X222994*
X223388Y149049*
X223400Y149050*
X223850*
Y149021*
X223914Y148957*
X224163Y149040*
X224452Y149716*
X224651Y150512*
X224653Y150516*
X224753Y150816*
X224755Y150822*
X224839Y150990*
X224673Y151156*
X224384Y151253*
X224378Y151255*
X224200Y151344*
X224022Y151255*
X224000Y151250*
X223610*
X223119Y151054*
X223106Y151050*
X221660Y150870*
X221579Y150950*
X221221*
X221171Y150900*
X221235Y150835*
X221245Y150822*
X221545Y150222*
X221550Y150200*
Y149812*
X221645Y149622*
X221650Y149600*
Y149115*
X221839Y148832*
X221900Y148771*
X221959Y148830*
X222019Y148950*
X222561*
X222740Y148056*
X222709Y148051*
X222706Y148050*
X221108Y147851*
X220616Y147752*
X220450Y147669*
Y147631*
X220621Y147546*
X221088Y147359*
X221165Y147435*
X221200Y147450*
X221594*
X222750Y147722*
Y147000*
X222747Y146984*
X222650Y146692*
Y146400*
X222645Y146378*
X222550Y146188*
Y146012*
X222841Y145430*
X222900Y145371*
X222959Y145430*
X223052Y145616*
X223150Y146102*
X223050Y147095*
Y147100*
X223050*
X223051Y147107*
X223051D02*
X223150Y147804D01*
Y147816*
X223289Y147849*
X223293*
X223293D02*
X224693Y148049D01*
X224693D02*
X224700Y148050D01*
X224850*
Y148088*
X224050Y150900D02*
Y150100D01*
X224049Y150090*
X223949Y149590*
X223947Y149584*
X223850Y149292*
Y149261*
X223494Y149350*
X223408*
X223116Y149253*
X223104Y149250*
X222050Y149162*
Y149495*
X221966Y149873*
X222012Y149850*
X222694*
X223088Y149949*
X223100Y149950*
X223392*
X223684Y150047*
X223700Y150050*
X223950*
Y150169*
X223783Y150253*
X223406Y150347*
X223222Y150255*
X223209Y150251*
X222116Y150052*
X221945Y149967*
X221851Y150389*
X221850Y150400*
Y150679*
X221779Y150750*
X221994*
X222388Y150849*
X222392*
X223592Y151049*
X223600Y151050*
X223900*
X223935Y151035*
X224035Y150935*
X224050Y150900*
X224729Y152400D02*
X224574Y152555D01*
X224194Y152650*
X224012*
X223622Y152455*
X223608Y152451*
X223350Y152408*
Y152800*
X223365Y152835*
X223454Y152925*
X223551Y153410*
X223565Y153435*
X223639Y153510*
X223563Y153663*
X223379Y153754*
X222890Y153950*
X222831*
X222761Y153810*
X222835Y153735*
X222849Y153712*
X222949Y153312*
X222950Y153300*
Y153000*
X222949Y152988*
X222850Y152594*
Y152331*
X221406Y152150*
X221400*
X221221*
X221161Y152090*
X221231Y151950*
X222395*
X222850Y152041*
Y151900*
Y151894*
X222756Y151050*
X223061*
X223251Y151810*
X223291Y152050*
X223493*
X224186Y152248*
X224188Y152249*
X224588Y152349*
X224600Y152350*
X224679*
X224729Y152400*
X228124Y248350D02*
X227935D01*
X227647Y247582*
X227638Y247568*
X227138Y246968*
X227122Y246955*
X226722Y246755*
X226700Y246750*
X225800*
X225778Y246755*
X225378Y246955*
X225365Y246965*
X225065Y247265*
X225057Y247274*
X224757Y247774*
X224752Y247786*
X224452Y248786*
X224450Y248796*
X224350Y249996*
Y250000*
Y250004*
X224450Y251304*
X224452Y251313*
X224752Y252413*
X224754Y252419*
X224954Y252919*
X224965Y252935*
X225265Y253235*
X225272Y253242*
X225572Y253442*
X225588Y253449*
X225988Y253549*
X226008*
X226608Y253449*
X226626Y253443*
X227126Y253143*
X227139Y253131*
X227539Y252631*
X227547Y252618*
X227827Y251870*
X227943Y251928*
X227566Y253817*
X227328Y253658*
X227322Y253655*
X227122Y253555*
X227100Y253550*
X226900*
X226878Y253555*
X226683Y253653*
X225904Y253848*
X225421Y253654*
X224832Y253360*
X224341Y252771*
X223947Y252082*
X223750Y251093*
X223650Y250000*
X223749Y248910*
X224046Y247920*
X224440Y247231*
X224931Y246740*
X225417Y246448*
X226099Y246351*
X226586Y246448*
X227072Y246643*
X227657Y247228*
X227854Y247719*
Y247720*
X228124Y248350*
X222050Y253750D02*
X219750D01*
Y253541*
X220205Y253450*
X220400*
X220449Y253412*
X220549Y253012*
X220550Y253000*
Y247000*
X220535Y246965*
X220335Y246765*
X220322Y246755*
X220122Y246655*
X220100Y246650*
X219750*
Y246450*
X222050*
Y246650*
X221700*
X221678Y246655*
X221478Y246755*
X221465Y246765*
X221265Y246965*
X221250Y247000*
Y253000*
X221253Y253016*
X221353Y253316*
X221365Y253335*
X221465Y253435*
X221478Y253445*
X221678Y253545*
X221700Y253550*
X222050*
Y253750*
X218732Y151420D02*
X218063D01*
Y147795*
X218062Y147787*
X217977Y147274*
X217974Y147263*
X217803Y146836*
X217786Y146815*
X217445Y146558*
X217422Y146549*
X216823Y146463*
X216808Y146464*
X216808D02*
X216295Y146549D01*
X216273Y146558*
X215932Y146815*
X215915Y146836*
X215744Y147263*
X215741Y147274*
X215656Y147787*
X215655Y147795*
Y151420*
X214986*
Y147798*
X215070Y147041*
X215401Y146462*
X215980Y146048*
X216814Y145965*
X217653Y146133*
X218234Y146465*
X218234D02*
X218648Y147128D01*
X218732Y147883*
Y151420*
X213946Y151261D02*
X213388Y151421D01*
X212630Y151505*
X212124Y151421*
X211709Y151338*
X210958Y150753*
X210454Y149830*
X210370Y149326*
X210285Y148650*
X210455Y147466*
X210622Y147048*
X210871Y146632*
X211203Y146383*
X211624Y146131*
X212123Y145965*
X212625*
X213300Y146049*
X213946Y146291*
Y146864*
X213417Y146638*
X213404Y146634*
X212720Y146549*
X212707*
X212024Y146634*
X211998Y146645*
X211485Y147073*
X211472Y147089*
X211130Y147773*
X211125Y147790*
X211040Y148731*
Y148735*
X211040*
Y148740*
X211125Y149595*
X211130Y149612*
X211472Y150296*
X211485Y150312*
X211998Y150739*
X212018Y150749*
X212702Y150920*
X212720Y150921*
X213404Y150836*
X213417Y150832*
X213946Y150606*
Y151261*
X218250Y251350D02*
X217150D01*
Y251150*
X217300*
X217335Y251135*
X217535Y250935*
X217550Y250900*
Y250500*
X217549Y250490*
X216949Y247490*
X216851*
X216851D02*
X216252Y250587D01*
X216153Y250884*
X216150Y250900*
X216165Y250935*
X216265Y251035*
X216278Y251045*
X216450Y251131*
Y251350*
X215250*
Y251150*
X215400*
X215435Y251135*
X215535Y251035*
X215545Y251022*
X215645Y250822*
X215649Y250812*
X215749Y250412*
Y250390*
X215149Y247490*
X215051Y247491*
X214451Y250891*
X214450Y250900*
Y251000*
X214478Y251045*
X214650Y251131*
Y251350*
X213550*
Y251150*
X213600*
X213622Y251145*
X213822Y251045*
X213850Y251000*
Y250805*
X214741Y246450*
X215259*
X215851Y249510*
X215851D02*
X215949D01*
X215949D02*
X216541Y246450D01*
X216959*
X217851Y250810*
X217855Y250822*
X217955Y251022*
X217984Y251047*
X218250Y251136*
Y251350*
X209584Y146050D02*
X209333Y151420D01*
X208475*
X207718Y149316*
X207461Y148632*
X207368*
X207111Y149316*
X206354Y151420*
X205582*
X205330Y146050*
X205913*
X205997Y149420*
Y149422*
X206083Y150704*
X206180Y150717*
X206436Y149948*
X207193Y147845*
X207635*
X208393Y150033*
X208395Y150039*
X208737Y150723*
X208832Y150701*
Y149505*
X208916Y146050*
X209584*
X212939Y249250D02*
X212753Y250182D01*
X212362Y250865*
X211782Y251252*
X211000Y251350*
X210315Y251252*
X209733Y250961*
X209441Y250571*
X209048Y249981*
X208851Y248799*
X208949Y248110*
X209146Y247423*
X209438Y247033*
X209827Y246644*
X210412Y246449*
X210999Y246351*
X211486Y246448*
X211974Y246643*
X212562Y247134*
X212927Y247681*
X212810Y247739*
X212135Y247065*
X212119Y247054*
X211619Y246854*
X211610Y246851*
X211110Y246751*
X211086Y246752*
X210386Y246952*
X210370Y246960*
X209970Y247260*
X209960Y247270*
X209660Y247670*
X209651Y247690*
X209551Y248190*
Y248192*
X209451Y248792*
X209450Y248800*
Y249200*
X209500Y249250*
X212939*
X212350Y249500D02*
X212350D01*
X212300Y249450*
X209600*
X209550Y249500*
X209553Y249516*
X209653Y249816*
X209654Y249819*
X209854Y250319*
X209860Y250330*
X210160Y250730*
X210170Y250740*
X210570Y251040*
X210588Y251049*
X210988Y251149*
X211010*
X211510Y251049*
X211530Y251040*
X211930Y250740*
X211943Y250726*
X212243Y250226*
X212249Y250207*
X212249D02*
X212349Y249507D01*
X212349D02*
X212350Y249500D01*
X208050Y253750D02*
X206750D01*
Y253550*
X207000*
X207022Y253545*
X207222Y253445*
X207247Y253416*
X207347Y253116*
X207350Y253100*
Y248000*
X207254Y247981*
X204867Y253750*
X203850*
Y253536*
X204116Y253447*
X204147Y253416*
X204247Y253116*
X204250Y253100*
Y246800*
X204216Y246753*
X203916Y246653*
X203900Y246650*
X203850*
Y246450*
X205050*
Y246650*
X204800*
X204778Y246655*
X204578Y246755*
X204555Y246778*
X204455Y246978*
X204450Y247000*
Y252800*
X204546Y252819*
X207233Y246450*
X207550*
Y253100*
X207553Y253116*
X207653Y253416*
X207678Y253445*
X207878Y253545*
X207900Y253550*
X208050*
Y253750*
X199587Y151420D02*
X196610D01*
Y146050*
X199587*
Y146548*
X197329*
X197279Y146598*
Y148479*
X197329Y148529*
X199501*
Y149027*
X197329*
X197279Y149077*
Y150872*
X197329Y150922*
X199587*
Y151420*
X203149Y248899D02*
X202952Y249784D01*
X202561Y250666*
X201781Y251153*
X200897Y251349*
X200021Y251252*
X199338Y250667*
X198847Y249881*
X198651Y248899*
X198848Y247718*
X199336Y246937*
X200018Y246547*
X200900Y246351*
X201782Y246547*
X202464Y246937*
X202952Y247718*
X203149Y248899*
X202550Y248900D02*
X202550D01*
X202549Y248891*
X202349Y247791*
X202346Y247780*
X202046Y247080*
X202026Y247057*
X201526Y246757*
X201508Y246751*
X200908Y246651*
X200893*
X200893D02*
X200193Y246751D01*
X200193D02*
X200162Y246768D01*
X199662Y247368*
X199655Y247378*
X199355Y247978*
X199350Y247994*
X199250Y248894*
Y248900*
Y248906*
X199350Y249706*
X199354Y249720*
X199654Y250420*
X199665Y250435*
X200165Y250935*
X200186Y250948*
X200886Y251148*
X200914*
X201614Y250948*
X201631Y250939*
X202131Y250539*
X202146Y250520*
X202446Y249820*
X202450Y249806*
X202550Y248906*
Y248900*
X195142Y151261D02*
X194584Y151421D01*
X193826Y151505*
X193321Y151421*
X192906Y151338*
X192154Y150753*
X191650Y149830*
X191650D02*
X191567Y149326D01*
X191482Y148650*
X191651Y147466*
X191818Y147048*
X192068Y146632*
X192400Y146383*
X192820Y146131*
X193320Y145965*
X193822*
X194497Y146049*
X195142Y146291*
Y146864*
X194614Y146638*
X194600Y146634*
X193916Y146549*
X193904*
X193220Y146634*
X193194Y146645*
X192682Y147073*
X192669Y147089*
X192327Y147773*
X192322Y147790*
X192237Y148731*
X192236Y148735*
X192236*
X192237Y148740*
X192322Y149595*
X192327Y149612*
X192669Y150296*
X192682Y150312*
X193194Y150739*
X193214Y150749*
X193898Y150920*
X193916Y150921*
X194600Y150836*
X194614Y150832*
X195142Y150606*
Y151261*
X198144Y252050D02*
X197955Y253750D01*
X193845*
X193656Y252050*
X193869*
X194155Y252622*
X194157Y252626*
X194457Y253126*
X194465Y253135*
X194765Y253435*
X194788Y253449*
X195188Y253549*
X195216Y253547*
X195516Y253447*
X195550Y253400*
Y246800*
X195516Y246753*
X195216Y246653*
X195200Y246650*
X194750*
Y246450*
X196950*
Y246650*
X196600*
X196578Y246655*
X196378Y246755*
X196355Y246778*
X196255Y246978*
X196250Y247000*
Y253100*
X196253Y253116*
X196353Y253416*
X196384Y253447*
X196684Y253547*
X196716*
X197016Y253447*
X197035Y253435*
X197335Y253135*
X197343Y253126*
X197643Y252626*
X197645Y252622*
X197931Y252050*
X198144*
X190271Y151420D02*
X187037D01*
Y150922*
X188269*
X188319Y150872*
Y146598*
X188269Y146548*
X187037*
Y146050*
X190271*
Y146548*
X189038*
X188988Y146598*
Y150872*
X189038Y150922*
X190271*
Y151420*
X193039Y248350D02*
X192931D01*
X192545Y247578*
X192539Y247569*
X192139Y247069*
X192122Y247055*
X191522Y246755*
X191506Y246750*
X190706Y246650*
X190690Y246651*
X190190Y246751*
X190155Y246778*
X189955Y247178*
X189950Y247200*
Y250100*
X190000Y250150*
X191100*
X191135Y250135*
X191335Y249935*
X191347Y249916*
X191447Y249616*
X191450Y249600*
Y248850*
X191650*
Y251550*
X191450*
Y250800*
X191445Y250778*
X191345Y250578*
X191322Y250555*
X190922Y250355*
X190900Y250350*
X190000*
X189950Y250400*
Y253100*
X189958Y253128*
X190158Y253428*
X190190Y253449*
X190690Y253549*
X190707*
X190707D02*
X191407Y253449D01*
X191407D02*
X191426Y253443D01*
X191926Y253143*
X191939Y253131*
X192339Y252631*
X192346Y252620*
X192633Y251950*
X192844*
X192655Y253750*
X188750*
Y253550*
X188900*
X188916Y253547*
X189216Y253447*
X189247Y253416*
X189347Y253116*
X189350Y253100*
Y247200*
X189349Y247188*
X189249Y246788*
X189216Y246753*
X188916Y246653*
X188900Y246650*
X188650*
Y246450*
X192659*
X193039Y248350*
X188124D02*
X187935D01*
X187647Y247582*
X187638Y247568*
X187138Y246968*
X187122Y246955*
X186722Y246755*
X186700Y246750*
X185800*
X185778Y246755*
X185378Y246955*
X185365Y246965*
X185065Y247265*
X185057Y247274*
X184757Y247774*
X184752Y247786*
X184452Y248786*
X184450Y248796*
X184350Y249996*
Y250000*
Y250004*
X184450Y251304*
X184452Y251313*
X184752Y252413*
X184754Y252419*
X184954Y252919*
X184965Y252935*
X185265Y253235*
X185272Y253242*
X185572Y253442*
X185588Y253449*
X185988Y253549*
X186008*
X186608Y253449*
X186626Y253443*
X187126Y253143*
X187139Y253131*
X187539Y252631*
X187547Y252618*
X187827Y251870*
X187943Y251928*
X187566Y253817*
X187328Y253658*
X187322Y253655*
X187122Y253555*
X187100Y253550*
X186900*
X186878Y253555*
X186683Y253653*
X185904Y253848*
X185421Y253654*
X184832Y253360*
X184341Y252771*
X183947Y252082*
X183750Y251093*
X183650Y250000*
X183749Y248910*
X184046Y247920*
X184440Y247231*
X184931Y246740*
X185417Y246448*
X186099Y246351*
X186586Y246448*
X187072Y246643*
X187657Y247228*
X187854Y247719*
Y247720*
X188124Y248350*
X180869Y151847D02*
X180200D01*
Y150188*
X180137Y150140*
X179802Y150224*
X179385*
X178546Y150056*
X177964Y149640*
X177547Y148973*
X177379Y148049*
X177464Y147124*
X177712Y146544*
X178208Y146131*
X178784Y145966*
X179198Y146049*
X179526Y146131*
X180200Y146805*
X180285Y146769*
Y146050*
X180869*
Y151847*
X180200Y149504D02*
Y147538D01*
X180191Y147511*
X179849Y146998*
X179843Y146990*
X179587Y146734*
X179574Y146725*
X179232Y146554*
X179225Y146551*
X178969Y146465*
X178941Y146464*
X178599Y146550*
X178576Y146563*
X178319Y146819*
X178307Y146839*
X178136Y147352*
X178134Y147361*
X178049Y148045*
X178048Y148051*
X178048*
X178049Y148057*
X178134Y148741*
X178139Y148757*
X178395Y149270*
X178405Y149283*
X178747Y149625*
X178774Y149639*
X179287Y149725*
X179305Y149724*
X180159Y149553*
X180200Y149504*
X182050Y253750D02*
X179750D01*
Y253541*
X180205Y253450*
X180400*
X180449Y253412*
X180549Y253012*
X180550Y253000*
Y247000*
X180535Y246965*
X180335Y246765*
X180322Y246755*
X180122Y246655*
X180100Y246650*
X179750*
Y246450*
X182050*
Y246650*
X181700*
X181678Y246655*
X181478Y246755*
X181465Y246765*
X181265Y246965*
X181250Y247000*
Y253000*
X181253Y253016*
X181353Y253316*
X181365Y253335*
X181465Y253435*
X181478Y253445*
X181678Y253545*
X181700Y253550*
X182050*
Y253750*
X178150Y246650D02*
X177800D01*
X177765Y246665*
X177565Y246865*
X177551Y246888*
X177451Y247288*
X177450Y247300*
Y253828*
X176718Y253553*
X176700Y253550*
X176050*
Y253250*
X176400*
X176416Y253247*
X176716Y253147*
X176747Y253116*
X176847Y252816*
X176850Y252800*
Y250900*
X176772Y250858*
X176182Y251252*
X175500Y251349*
X174821Y251253*
X174241Y250769*
X173848Y249885*
X173651Y248899*
X173848Y247718*
X174338Y246934*
X174823Y246545*
X175503Y246351*
X176086Y246448*
X176572Y246643*
X176765Y246835*
X176850Y246800*
Y246450*
X178150*
Y246650*
X176850Y250300D02*
Y247400D01*
X176840Y247370*
X176540Y246970*
X176522Y246955*
X176122Y246755*
X176112Y246751*
X175712Y246651*
X175686Y246652*
X174986Y246852*
X174958Y246872*
X174558Y247472*
X174553Y247484*
X174353Y248084*
X174350Y248094*
X174250Y248894*
Y248900*
Y248906*
X174350Y249806*
X174354Y249820*
X174654Y250520*
X174665Y250535*
X175065Y250935*
X175081Y250946*
X175581Y251146*
X175614Y251148*
X176314Y250948*
X176338Y250932*
X176838Y250332*
X176850Y250300*
X176168Y146548D02*
X175021D01*
X174971Y146598*
Y151847*
X173106*
Y151349*
X174252*
X174302Y151299*
Y146598*
X174252Y146548*
X172935*
Y146050*
X176168*
Y146548*
X171894Y148733D02*
X171810Y149918D01*
X171391Y150757*
X170809Y151339*
X170397Y151421*
X169894Y151505*
X169059Y151338*
X168393Y150838*
X168144Y150423*
X167976Y149920*
X167891Y149412*
X167807Y148734*
X167891Y147548*
X168058Y147049*
X168561Y146378*
X168892Y146129*
X169304Y145965*
X169304D02*
X170225D01*
X170642Y146131*
X170975Y146298*
X171306Y146629*
X171558Y147048*
X171726Y147469*
X171894Y148058*
Y148733*
X171225Y148735D02*
Y148730D01*
X171139Y147875*
X171137Y147863*
X170880Y147179*
X170869Y147161*
X170441Y146734*
X170434Y146728*
X170177Y146557*
X170150Y146548*
X169551*
X169529Y146554*
X169187Y146725*
X169170Y146738*
X168828Y147165*
X168821Y147179*
X168564Y147863*
X168561Y147875*
X168476Y148730*
Y148735*
Y148740*
X168561Y149595*
X168564Y149607*
X168821Y150291*
X168832Y150309*
X169260Y150736*
X169279Y150748*
X169792Y150919*
X169820Y150920*
X170504Y150749*
X170530Y150732*
X170530D02*
X170872Y150305D01*
X170880Y150291*
X171137Y149607*
X171139Y149595*
X171225Y148740*
Y148735*
X172050Y246650D02*
X171700D01*
X171678Y246655*
X171478Y246755*
X171465Y246765*
X171265Y246965*
X171253Y246984*
X171153Y247284*
X171150Y247300*
Y253828*
X170418Y253553*
X170407Y253551*
X170407D02*
X169750Y253457D01*
Y253239*
X170106Y253150*
X170300*
X170335Y253135*
X170535Y252935*
X170550Y252900*
Y247300*
X170549Y247288*
X170449Y246888*
X170416Y246853*
X170116Y246753*
X170112Y246751*
X169750Y246661*
Y246450*
X172050*
Y246650*
X168150Y250099D02*
X167951Y251488D01*
X167554Y252679*
X167260Y253169*
X166870Y253559*
X166484Y253752*
X165900Y253849*
X165318Y253752*
X164835Y253462*
X164344Y252775*
X163948Y251884*
X163749Y250992*
X163650Y250099*
X163749Y248909*
X164047Y247918*
X164342Y247327*
X164736Y246836*
X165221Y246447*
X165800Y246351*
X166381Y246448*
X166968Y246839*
X167459Y247330*
X167753Y247918*
X168051Y249009*
X168150Y250099*
X167450Y251000D02*
Y250100D01*
Y250097*
X167350Y248497*
X167347Y248483*
X166947Y247383*
X166942Y247372*
X166542Y246772*
X166507Y246751*
X166507D02*
X165807Y246651D01*
X165807D02*
X165800Y246650D01*
X165500*
X165472Y246658*
X165172Y246858*
X165165Y246865*
X164965Y247065*
X164955Y247078*
X164755Y247478*
X164754Y247481*
X164554Y247981*
X164551Y247992*
X164451Y248592*
Y248593*
X164451D02*
X164351Y249293D01*
X164351D02*
X164350Y249300D01*
Y251000*
X164351Y251007*
X164351D02*
X164451Y251707D01*
X164451D02*
X164453Y251716D01*
X164653Y252316*
X164654Y252319*
X164854Y252819*
X164865Y252835*
X165365Y253335*
X165381Y253346*
X165881Y253546*
X165908Y253549*
X166508Y253449*
X166539Y253431*
X166939Y252931*
X166946Y252919*
X167146Y252419*
X167148Y252414*
X167348Y251714*
X167349Y251707*
X167349D02*
X167449Y251007D01*
X167449D02*
X167450Y251000D01*
X163700Y249502D02*
Y250547D01*
X163800Y248741D02*
Y251220D01*
X163900Y248407D02*
Y251670D01*
X164000Y248074D02*
Y252002D01*
X164100Y247812D02*
Y252227D01*
X164200Y247612D02*
Y252452D01*
X164300Y247412D02*
Y252677D01*
X164400Y247255D02*
Y248946D01*
Y251354D02*
Y252854D01*
X164500Y247130D02*
Y248296D01*
Y251858D02*
Y252994D01*
X164600Y247005D02*
Y247865D01*
Y252158D02*
Y253134D01*
X164700Y246880D02*
Y247615D01*
Y252435D02*
Y253274D01*
X164800Y246784D02*
Y247388D01*
Y252685D02*
Y253414D01*
X164900Y246704D02*
Y247188D01*
Y252871D02*
Y253502D01*
X165000Y246624D02*
Y247029D01*
Y252971D02*
Y253562D01*
X165100Y246544D02*
Y246929D01*
Y253071D02*
Y253622D01*
X165200Y246464D02*
Y246840D01*
Y253171D02*
Y253682D01*
X165300Y246434D02*
Y246773D01*
Y253271D02*
Y253742D01*
X165400Y246417D02*
Y246707D01*
Y253354D02*
Y253766D01*
X165500Y246401D02*
Y246650D01*
Y253394D02*
Y253783D01*
X165600Y246384D02*
Y246650D01*
Y253434D02*
Y253799D01*
X165700Y246367D02*
Y246650D01*
Y253474D02*
Y253816D01*
X165800Y246351D02*
Y246650D01*
Y253514D02*
Y253833D01*
X165900Y246367D02*
Y246664D01*
Y253550D02*
Y253849D01*
X166000Y246384D02*
Y246678D01*
Y253534D02*
Y253833D01*
X166100Y246401D02*
Y246692D01*
Y253517D02*
Y253816D01*
X166200Y246417D02*
Y246707D01*
Y253501D02*
Y253799D01*
X166300Y246434D02*
Y246721D01*
Y253484D02*
Y253783D01*
X166400Y246460D02*
Y246735D01*
Y253467D02*
Y253766D01*
X166500Y246527D02*
Y246749D01*
Y253451D02*
Y253744D01*
X166600Y246593D02*
Y246860D01*
Y253355D02*
Y253694D01*
X166700Y246660D02*
Y247010D01*
Y253230D02*
Y253644D01*
X166800Y246727D02*
Y247160D01*
Y253105D02*
Y253594D01*
X166900Y246793D02*
Y247310D01*
Y252980D02*
Y253529D01*
X167000Y246871D02*
Y247529D01*
Y252785D02*
Y253429D01*
X167100Y246971D02*
Y247804D01*
Y252535D02*
Y253329D01*
X167200Y247071D02*
Y248079D01*
Y252232D02*
Y253229D01*
X167300Y247171D02*
Y248354D01*
Y251882D02*
Y253103D01*
X167400Y247271D02*
Y249298D01*
Y251354D02*
Y252936D01*
X167500Y247412D02*
Y252769D01*
X167600Y247612D02*
Y252542D01*
X167700Y247812D02*
Y252242D01*
X167800Y248090D02*
Y251942D01*
X167900Y147522D02*
Y149463D01*
Y248457D02*
Y251642D01*
X168000Y147222D02*
Y149991D01*
Y248823D02*
Y251146D01*
X168100Y146993D02*
Y150291D01*
Y249552D02*
Y250446D01*
X168200Y146859D02*
Y150517D01*
X168300Y146726D02*
Y150683D01*
X168400Y146593D02*
Y150843D01*
X168500Y146459D02*
Y148489D01*
Y148981D02*
Y150918D01*
X168600Y146349D02*
Y147768D01*
Y149703D02*
Y150993D01*
X168700Y146274D02*
Y147501D01*
Y149969D02*
Y151068D01*
X168800Y146199D02*
Y147234D01*
Y150236D02*
Y151143D01*
X168900Y146126D02*
Y147076D01*
Y150377D02*
Y151218D01*
X169000Y146086D02*
Y146951D01*
Y150477D02*
Y151293D01*
X169100Y146046D02*
Y146826D01*
Y150577D02*
Y151346D01*
X169200Y146006D02*
Y146718D01*
Y150677D02*
Y151366D01*
X169300Y145966D02*
Y146668D01*
Y150755D02*
Y151386D01*
X169400Y145965D02*
Y146618D01*
Y150789D02*
Y151406D01*
X169500Y145965D02*
Y146568D01*
Y150822D02*
Y151426D01*
X169600Y145965D02*
Y146548D01*
Y150855D02*
Y151446D01*
X169700Y145965D02*
Y146548D01*
Y150889D02*
Y151466D01*
X169800Y145965D02*
Y146548D01*
Y150921D02*
Y151486D01*
Y246450D02*
Y246673D01*
Y253227D02*
Y253464D01*
X169900Y145965D02*
Y146548D01*
Y150900D02*
Y151504D01*
Y246450D02*
Y246698D01*
Y253202D02*
Y253478D01*
X170000Y145965D02*
Y146548D01*
Y150875D02*
Y151487D01*
Y246450D02*
Y246723D01*
Y253177D02*
Y253492D01*
X170100Y145965D02*
Y146548D01*
Y150850D02*
Y151470D01*
Y246450D02*
Y246748D01*
Y253152D02*
Y253507D01*
X170200Y145965D02*
Y146572D01*
Y150825D02*
Y151454D01*
Y246450D02*
Y246781D01*
Y253150D02*
Y253521D01*
X170300Y145994D02*
Y146638D01*
Y150800D02*
Y151437D01*
Y246450D02*
Y246814D01*
Y253150D02*
Y253535D01*
X170400Y146034D02*
Y146705D01*
Y150775D02*
Y151420D01*
Y246450D02*
Y246847D01*
Y253071D02*
Y253549D01*
X170500Y146074D02*
Y146793D01*
Y150750D02*
Y151400D01*
Y246450D02*
Y247094D01*
Y252971D02*
Y253584D01*
X170600Y146114D02*
Y146893D01*
Y150645D02*
Y151380D01*
Y246450D02*
Y253622D01*
X170700Y146160D02*
Y146993D01*
Y150520D02*
Y151360D01*
Y246450D02*
Y253659D01*
X170800Y146210D02*
Y147093D01*
Y150395D02*
Y151340D01*
Y246450D02*
Y253697D01*
X170900Y146260D02*
Y147232D01*
Y150238D02*
Y151247D01*
Y246450D02*
Y253734D01*
X171000Y146323D02*
Y147499D01*
Y149971D02*
Y151147D01*
Y246450D02*
Y253772D01*
X171100Y146423D02*
Y147765D01*
Y149705D02*
Y151047D01*
Y246450D02*
Y253809D01*
X171200Y146523D02*
Y148480D01*
Y148990D02*
Y150947D01*
Y246450D02*
Y247142D01*
X171300Y146623D02*
Y150847D01*
Y246450D02*
Y246929D01*
X171400Y146785D02*
Y150738D01*
Y246450D02*
Y246829D01*
X171500Y146952D02*
Y150538D01*
Y246450D02*
Y246744D01*
X171600Y147154D02*
Y150338D01*
Y246450D02*
Y246694D01*
X171700Y147404D02*
Y150138D01*
Y246450D02*
Y246650D01*
X171800Y147728D02*
Y149938D01*
Y246450D02*
Y246650D01*
X171900Y246450D02*
Y246650D01*
X172000Y246450D02*
Y246650D01*
X173000Y146050D02*
Y146548D01*
X173100Y146050D02*
Y146548D01*
X173200Y146050D02*
Y146548D01*
Y151349D02*
Y151847D01*
X173300Y146050D02*
Y146548D01*
Y151349D02*
Y151847D01*
X173400Y146050D02*
Y146548D01*
Y151349D02*
Y151847D01*
X173500Y146050D02*
Y146548D01*
Y151349D02*
Y151847D01*
X173600Y146050D02*
Y146548D01*
Y151349D02*
Y151847D01*
X173700Y146050D02*
Y146548D01*
Y151349D02*
Y151847D01*
Y248604D02*
Y249145D01*
X173800Y146050D02*
Y146548D01*
Y151349D02*
Y151847D01*
Y248004D02*
Y249645D01*
X173900Y146050D02*
Y146548D01*
Y151349D02*
Y151847D01*
Y247634D02*
Y250002D01*
X174000Y146050D02*
Y146548D01*
Y151349D02*
Y151847D01*
Y247474D02*
Y250227D01*
X174100Y146050D02*
Y146548D01*
Y151349D02*
Y151847D01*
Y247314D02*
Y250452D01*
X174200Y146050D02*
Y146548D01*
Y151349D02*
Y151847D01*
Y247154D02*
Y250677D01*
X174300Y146050D02*
Y146584D01*
Y151314D02*
Y151847D01*
Y246994D02*
Y248497D01*
Y249353D02*
Y250818D01*
X174400Y146050D02*
Y151847D01*
Y246884D02*
Y247942D01*
Y249927D02*
Y250902D01*
X174500Y146050D02*
Y151847D01*
Y246804D02*
Y247642D01*
Y250160D02*
Y250985D01*
X174600Y146050D02*
Y151847D01*
Y246724D02*
Y247410D01*
Y250394D02*
Y251068D01*
X174700Y146050D02*
Y151847D01*
Y246644D02*
Y247260D01*
Y250571D02*
Y251152D01*
X174800Y146050D02*
Y151847D01*
Y246564D02*
Y247110D01*
Y250671D02*
Y251235D01*
X174900Y146050D02*
Y151847D01*
Y246523D02*
Y246960D01*
Y250771D02*
Y251264D01*
X175000Y146050D02*
Y146553D01*
Y246495D02*
Y246848D01*
Y250871D02*
Y251278D01*
X175100Y146050D02*
Y146548D01*
Y246466D02*
Y246819D01*
Y250954D02*
Y251292D01*
X175200Y146050D02*
Y146548D01*
Y246438D02*
Y246791D01*
Y250994D02*
Y251307D01*
X175300Y146050D02*
Y146548D01*
Y246409D02*
Y246762D01*
Y251034D02*
Y251321D01*
X175400Y146050D02*
Y146548D01*
Y246381D02*
Y246734D01*
Y251074D02*
Y251335D01*
X175500Y146050D02*
Y146548D01*
Y246352D02*
Y246705D01*
Y251114D02*
Y251349D01*
X175600Y146050D02*
Y146548D01*
Y246367D02*
Y246677D01*
Y251150D02*
Y251335D01*
X175700Y146050D02*
Y146548D01*
Y246384D02*
Y246650D01*
Y251123D02*
Y251321D01*
X175800Y146050D02*
Y146548D01*
Y246401D02*
Y246673D01*
Y251095D02*
Y251307D01*
X175900Y146050D02*
Y146548D01*
Y246417D02*
Y246698D01*
Y251066D02*
Y251292D01*
X176000Y146050D02*
Y146548D01*
Y246434D02*
Y246723D01*
Y251038D02*
Y251278D01*
X176100Y146050D02*
Y146548D01*
Y246454D02*
Y246748D01*
Y251009D02*
Y251264D01*
Y253250D02*
Y253550D01*
X176200Y246494D02*
Y246794D01*
Y250981D02*
Y251240D01*
Y253250D02*
Y253550D01*
X176300Y246534D02*
Y246844D01*
Y250952D02*
Y251173D01*
Y253250D02*
Y253550D01*
X176400Y246574D02*
Y246894D01*
Y250858D02*
Y251107D01*
Y253250D02*
Y253550D01*
X176500Y246614D02*
Y246944D01*
Y250738D02*
Y251040D01*
Y253219D02*
Y253550D01*
X176600Y246671D02*
Y247050D01*
Y250618D02*
Y250973D01*
Y253186D02*
Y253550D01*
X176700Y246771D02*
Y247183D01*
Y250498D02*
Y250907D01*
Y253153D02*
Y253550D01*
X176800Y246850D02*
Y247317D01*
Y250378D02*
Y250850D01*
Y252958D02*
Y253584D01*
X176900Y246450D02*
Y253622D01*
X177000Y246450D02*
Y253659D01*
X177100Y246450D02*
Y253697D01*
X177200Y246450D02*
Y253734D01*
X177300Y246450D02*
Y253772D01*
X177400Y147823D02*
Y148162D01*
Y246450D02*
Y253809D01*
X177500Y147039D02*
Y148712D01*
Y246450D02*
Y247094D01*
X177600Y146805D02*
Y149057D01*
Y246450D02*
Y246829D01*
X177700Y146572D02*
Y149217D01*
Y246450D02*
Y246729D01*
X177800Y146470D02*
Y149377D01*
Y246450D02*
Y246650D01*
X177900Y146387D02*
Y149537D01*
Y246450D02*
Y246650D01*
X178000Y146304D02*
Y149666D01*
Y246450D02*
Y246650D01*
X178100Y146220D02*
Y147634D01*
Y148468D02*
Y149737D01*
Y246450D02*
Y246650D01*
X178200Y146137D02*
Y147161D01*
Y148879D02*
Y149809D01*
X178300Y146104D02*
Y146861D01*
Y149079D02*
Y149880D01*
X178400Y146076D02*
Y146739D01*
Y149278D02*
Y149951D01*
X178500Y146047D02*
Y146639D01*
Y149378D02*
Y150023D01*
X178600Y146019D02*
Y146550D01*
Y149478D02*
Y150066D01*
X178700Y145990D02*
Y146525D01*
Y149578D02*
Y150086D01*
X178800Y145969D02*
Y146500D01*
Y149643D02*
Y150106D01*
X178900Y145989D02*
Y146475D01*
Y149660D02*
Y150126D01*
X179000Y146009D02*
Y146476D01*
Y149677D02*
Y150146D01*
X179100Y146029D02*
Y146509D01*
Y149693D02*
Y150166D01*
X179200Y146049D02*
Y146542D01*
Y149710D02*
Y150186D01*
X179300Y146074D02*
Y146588D01*
Y149725D02*
Y150206D01*
X179400Y146099D02*
Y146638D01*
Y149705D02*
Y150224D01*
X179500Y146124D02*
Y146688D01*
Y149685D02*
Y150224D01*
X179600Y146205D02*
Y146747D01*
Y149665D02*
Y150224D01*
X179700Y146305D02*
Y146847D01*
Y149645D02*
Y150224D01*
X179800Y146405D02*
Y146947D01*
Y149625D02*
Y150224D01*
Y246450D02*
Y246650D01*
Y253531D02*
Y253750D01*
X179900Y146505D02*
Y147074D01*
Y149605D02*
Y150199D01*
Y246450D02*
Y246650D01*
Y253511D02*
Y253750D01*
X180000Y146605D02*
Y147224D01*
Y149585D02*
Y150174D01*
Y246450D02*
Y246650D01*
Y253491D02*
Y253750D01*
X180100Y146705D02*
Y147374D01*
Y149565D02*
Y150149D01*
Y246450D02*
Y246650D01*
Y253471D02*
Y253750D01*
X180200Y146805D02*
Y151847D01*
Y246450D02*
Y246694D01*
Y253451D02*
Y253750D01*
X180300Y146050D02*
Y151847D01*
Y246450D02*
Y246744D01*
Y253450D02*
Y253750D01*
X180400Y146050D02*
Y151847D01*
Y246450D02*
Y246829D01*
Y253450D02*
Y253750D01*
X180500Y146050D02*
Y151847D01*
Y246450D02*
Y246929D01*
Y253206D02*
Y253750D01*
X180600Y146050D02*
Y151847D01*
Y246450D02*
Y253750D01*
X180700Y146050D02*
Y151847D01*
Y246450D02*
Y253750D01*
X180800Y146050D02*
Y151847D01*
Y246450D02*
Y253750D01*
X180900Y246450D02*
Y253750D01*
X181000Y246450D02*
Y253750D01*
X181100Y246450D02*
Y253750D01*
X181200Y246450D02*
Y253750D01*
X181300Y246450D02*
Y246929D01*
Y253158D02*
Y253750D01*
X181400Y246450D02*
Y246829D01*
Y253371D02*
Y253750D01*
X181500Y246450D02*
Y246744D01*
Y253456D02*
Y253750D01*
X181600Y246450D02*
Y246694D01*
Y253506D02*
Y253750D01*
X181700Y246450D02*
Y246650D01*
Y253550D02*
Y253750D01*
X181800Y246450D02*
Y246650D01*
Y253550D02*
Y253750D01*
X181900Y246450D02*
Y246650D01*
Y253550D02*
Y253750D01*
X182000Y246450D02*
Y246650D01*
Y253550D02*
Y253750D01*
X183700Y249452D02*
Y250548D01*
X183800Y248741D02*
Y251345D01*
X183900Y248407D02*
Y251845D01*
X184000Y248074D02*
Y252174D01*
X184100Y247826D02*
Y252349D01*
X184200Y247651D02*
Y252524D01*
X184300Y247476D02*
Y252699D01*
X184400Y247301D02*
Y249398D01*
Y250652D02*
Y252842D01*
X184500Y247171D02*
Y248626D01*
Y251490D02*
Y252962D01*
X184600Y247071D02*
Y248293D01*
Y251857D02*
Y253082D01*
X184700Y246971D02*
Y247959D01*
Y252223D02*
Y253202D01*
X184800Y246871D02*
Y247703D01*
Y252535D02*
Y253322D01*
X184900Y246771D02*
Y247536D01*
Y252785D02*
Y253394D01*
X185000Y246698D02*
Y247369D01*
Y252971D02*
Y253444D01*
X185100Y246638D02*
Y247229D01*
Y253071D02*
Y253494D01*
X185200Y246578D02*
Y247129D01*
Y253171D02*
Y253544D01*
X185300Y246518D02*
Y247029D01*
Y253260D02*
Y253594D01*
X185400Y246458D02*
Y246944D01*
Y253327D02*
Y253644D01*
X185500Y246436D02*
Y246894D01*
Y253393D02*
Y253686D01*
X185600Y246422D02*
Y246844D01*
Y253452D02*
Y253726D01*
X185700Y246408D02*
Y246794D01*
Y253477D02*
Y253766D01*
X185800Y246393D02*
Y246750D01*
Y253502D02*
Y253806D01*
X185900Y246379D02*
Y246750D01*
Y253527D02*
Y253846D01*
X186000Y246365D02*
Y246750D01*
Y253550D02*
Y253823D01*
X186100Y246351D02*
Y246750D01*
Y253534D02*
Y253798D01*
X186200Y246371D02*
Y246750D01*
Y253517D02*
Y253773D01*
X186300Y246391D02*
Y246750D01*
Y253501D02*
Y253748D01*
X186400Y246411D02*
Y246750D01*
Y253484D02*
Y253723D01*
X186500Y246431D02*
Y246750D01*
Y253467D02*
Y253698D01*
X186600Y246454D02*
Y246750D01*
Y253451D02*
Y253673D01*
X186700Y246494D02*
Y246750D01*
Y253398D02*
Y253644D01*
X186800Y246534D02*
Y246794D01*
Y253338D02*
Y253594D01*
X186900Y246574D02*
Y246844D01*
Y253278D02*
Y253550D01*
X187000Y246614D02*
Y246894D01*
Y253218D02*
Y253550D01*
X187100Y146050D02*
Y146548D01*
Y150922D02*
Y151420D01*
Y246671D02*
Y246944D01*
Y253158D02*
Y253550D01*
X187200Y146050D02*
Y146548D01*
Y150922D02*
Y151420D01*
Y246771D02*
Y247042D01*
Y253055D02*
Y253594D01*
X187300Y146050D02*
Y146548D01*
Y150922D02*
Y151420D01*
Y246871D02*
Y247162D01*
Y252930D02*
Y253644D01*
X187400Y146050D02*
Y146548D01*
Y150922D02*
Y151420D01*
Y246971D02*
Y247282D01*
Y252805D02*
Y253707D01*
X187500Y146050D02*
Y146548D01*
Y150922D02*
Y151420D01*
Y247071D02*
Y247402D01*
Y252680D02*
Y253773D01*
X187600Y146050D02*
Y146548D01*
Y150922D02*
Y151420D01*
Y247171D02*
Y247522D01*
Y252476D02*
Y253645D01*
X187700Y146050D02*
Y146548D01*
Y150922D02*
Y151420D01*
Y247335D02*
Y247724D01*
Y252209D02*
Y253145D01*
X187800Y146050D02*
Y146548D01*
Y150922D02*
Y151420D01*
Y247585D02*
Y247991D01*
Y251942D02*
Y252645D01*
X187900Y146050D02*
Y146548D01*
Y150922D02*
Y151420D01*
Y247827D02*
Y248258D01*
Y251906D02*
Y252145D01*
X188000Y146050D02*
Y146548D01*
Y150922D02*
Y151420D01*
Y248060D02*
Y248350D01*
X188100Y146050D02*
Y146548D01*
Y150922D02*
Y151420D01*
Y248294D02*
Y248350D01*
X188200Y146050D02*
Y146548D01*
Y150922D02*
Y151420D01*
X188300Y146050D02*
Y146559D01*
Y150911D02*
Y151420D01*
X188400Y146050D02*
Y151420D01*
X188500Y146050D02*
Y151420D01*
X188600Y146050D02*
Y151420D01*
X188700Y146050D02*
Y151420D01*
Y246450D02*
Y246650D01*
X188800Y146050D02*
Y151420D01*
Y246450D02*
Y246650D01*
Y253550D02*
Y253750D01*
X188900Y146050D02*
Y151420D01*
Y246450D02*
Y246650D01*
Y253550D02*
Y253750D01*
X189000Y146050D02*
Y146566D01*
Y150904D02*
Y151420D01*
Y246450D02*
Y246681D01*
Y253519D02*
Y253750D01*
X189100Y146050D02*
Y146548D01*
Y150922D02*
Y151420D01*
Y246450D02*
Y246714D01*
Y253486D02*
Y253750D01*
X189200Y146050D02*
Y146548D01*
Y150922D02*
Y151420D01*
Y246450D02*
Y246747D01*
Y253453D02*
Y253750D01*
X189300Y146050D02*
Y146548D01*
Y150922D02*
Y151420D01*
Y246450D02*
Y246994D01*
Y253258D02*
Y253750D01*
X189400Y146050D02*
Y146548D01*
Y150922D02*
Y151420D01*
Y246450D02*
Y253750D01*
X189500Y146050D02*
Y146548D01*
Y150922D02*
Y151420D01*
Y246450D02*
Y253750D01*
X189600Y146050D02*
Y146548D01*
Y150922D02*
Y151420D01*
Y246450D02*
Y253750D01*
X189700Y146050D02*
Y146548D01*
Y150922D02*
Y151420D01*
Y246450D02*
Y253750D01*
X189800Y146050D02*
Y146548D01*
Y150922D02*
Y151420D01*
Y246450D02*
Y253750D01*
X189900Y146050D02*
Y146548D01*
Y150922D02*
Y151420D01*
Y246450D02*
Y253750D01*
X190000Y146050D02*
Y146548D01*
Y150922D02*
Y151420D01*
Y246450D02*
Y247088D01*
Y250150D02*
Y250350D01*
Y253190D02*
Y253750D01*
X190100Y146050D02*
Y146548D01*
Y150922D02*
Y151420D01*
Y246450D02*
Y246888D01*
Y250150D02*
Y250350D01*
Y253340D02*
Y253750D01*
X190200Y146050D02*
Y146548D01*
Y150922D02*
Y151420D01*
Y246450D02*
Y246749D01*
Y250150D02*
Y250350D01*
Y253451D02*
Y253750D01*
X190300Y246450D02*
Y246729D01*
Y250150D02*
Y250350D01*
Y253471D02*
Y253750D01*
X190400Y246450D02*
Y246709D01*
Y250150D02*
Y250350D01*
Y253491D02*
Y253750D01*
X190500Y246450D02*
Y246689D01*
Y250150D02*
Y250350D01*
Y253511D02*
Y253750D01*
X190600Y246450D02*
Y246669D01*
Y250150D02*
Y250350D01*
Y253531D02*
Y253750D01*
X190700Y246450D02*
Y246650D01*
Y250150D02*
Y250350D01*
Y253550D02*
Y253750D01*
X190800Y246450D02*
Y246662D01*
Y250150D02*
Y250350D01*
Y253536D02*
Y253750D01*
X190900Y246450D02*
Y246675D01*
Y250150D02*
Y250350D01*
Y253522D02*
Y253750D01*
X191000Y246450D02*
Y246687D01*
Y250150D02*
Y250394D01*
Y253508D02*
Y253750D01*
X191100Y246450D02*
Y246700D01*
Y250150D02*
Y250444D01*
Y253493D02*
Y253750D01*
X191200Y246450D02*
Y246712D01*
Y250071D02*
Y250494D01*
Y253479D02*
Y253750D01*
X191300Y246450D02*
Y246725D01*
Y249971D02*
Y250544D01*
Y253465D02*
Y253750D01*
X191400Y246450D02*
Y246737D01*
Y249758D02*
Y250688D01*
Y253451D02*
Y253750D01*
X191500Y148525D02*
Y148793D01*
Y246450D02*
Y246750D01*
Y248850D02*
Y251550D01*
Y253398D02*
Y253750D01*
X191600Y147825D02*
Y149527D01*
Y246450D02*
Y246794D01*
Y248850D02*
Y251550D01*
Y253338D02*
Y253750D01*
X191700Y147344D02*
Y149920D01*
Y246450D02*
Y246844D01*
Y253278D02*
Y253750D01*
X191800Y147094D02*
Y150104D01*
Y246450D02*
Y246894D01*
Y253218D02*
Y253750D01*
X191900Y146912D02*
Y150287D01*
Y246450D02*
Y246944D01*
Y253158D02*
Y253750D01*
X192000Y146745D02*
Y150470D01*
Y246450D02*
Y246994D01*
Y253055D02*
Y253750D01*
X192100Y146608D02*
Y150654D01*
Y246450D02*
Y247044D01*
Y252930D02*
Y253750D01*
X192200Y146533D02*
Y150789D01*
Y246450D02*
Y247145D01*
Y252805D02*
Y253750D01*
X192300Y146458D02*
Y148032D01*
Y149374D02*
Y150867D01*
Y246450D02*
Y247270D01*
Y252680D02*
Y253750D01*
X192400Y146383D02*
Y147627D01*
Y149758D02*
Y150944D01*
Y246450D02*
Y247395D01*
Y252494D02*
Y253750D01*
X192500Y146323D02*
Y147427D01*
Y149958D02*
Y151022D01*
Y246450D02*
Y247520D01*
Y252260D02*
Y253750D01*
X192600Y146263D02*
Y147227D01*
Y150158D02*
Y151100D01*
Y246450D02*
Y247688D01*
Y252027D02*
Y253750D01*
X192700Y146203D02*
Y147057D01*
Y150327D02*
Y151178D01*
Y246655D02*
Y247888D01*
Y251950D02*
Y253322D01*
X192800Y146143D02*
Y146974D01*
Y150411D02*
Y151255D01*
Y247155D02*
Y248088D01*
Y251950D02*
Y252372D01*
X192900Y146105D02*
Y146891D01*
Y150494D02*
Y151333D01*
Y247655D02*
Y248288D01*
X193000Y146071D02*
Y146807D01*
Y150577D02*
Y151357D01*
Y248155D02*
Y248350D01*
X193100Y146038D02*
Y146724D01*
Y150661D02*
Y151377D01*
X193200Y146005D02*
Y146641D01*
Y150743D02*
Y151397D01*
X193300Y145971D02*
Y146624D01*
Y150771D02*
Y151417D01*
X193400Y145965D02*
Y146612D01*
Y150796D02*
Y151434D01*
X193500Y145965D02*
Y146599D01*
Y150821D02*
Y151451D01*
X193600Y145965D02*
Y146587D01*
Y150846D02*
Y151467D01*
X193700Y145965D02*
Y146574D01*
Y150871D02*
Y151484D01*
Y252050D02*
Y252447D01*
X193800Y145965D02*
Y146562D01*
Y150896D02*
Y151501D01*
Y252050D02*
Y253347D01*
X193900Y145974D02*
Y146549D01*
Y150921D02*
Y151497D01*
Y252112D02*
Y253750D01*
X194000Y145987D02*
Y146559D01*
Y150911D02*
Y151486D01*
Y252312D02*
Y253750D01*
X194100Y145999D02*
Y146572D01*
Y150898D02*
Y151475D01*
Y252512D02*
Y253750D01*
X194200Y146012D02*
Y146584D01*
Y150886D02*
Y151464D01*
Y252697D02*
Y253750D01*
X194300Y146024D02*
Y146597D01*
Y150873D02*
Y151452D01*
Y252864D02*
Y253750D01*
X194400Y146037D02*
Y146609D01*
Y150861D02*
Y151441D01*
Y253031D02*
Y253750D01*
X194500Y146050D02*
Y146622D01*
Y150848D02*
Y151430D01*
Y253171D02*
Y253750D01*
X194600Y146088D02*
Y146634D01*
Y150836D02*
Y151416D01*
Y253271D02*
Y253750D01*
X194700Y146125D02*
Y146675D01*
Y150795D02*
Y151388D01*
Y253371D02*
Y253750D01*
X194800Y146163D02*
Y146718D01*
Y150752D02*
Y151359D01*
Y246450D02*
Y246650D01*
Y253452D02*
Y253750D01*
X194900Y146200D02*
Y146760D01*
Y150710D02*
Y151331D01*
Y246450D02*
Y246650D01*
Y253477D02*
Y253750D01*
X195000Y146238D02*
Y146803D01*
Y150667D02*
Y151302D01*
Y246450D02*
Y246650D01*
Y253502D02*
Y253750D01*
X195100Y146275D02*
Y146846D01*
Y150624D02*
Y151274D01*
Y246450D02*
Y246650D01*
Y253527D02*
Y253750D01*
X195200Y246450D02*
Y246650D01*
Y253550D02*
Y253750D01*
X195300Y246450D02*
Y246681D01*
Y253519D02*
Y253750D01*
X195400Y246450D02*
Y246714D01*
Y253486D02*
Y253750D01*
X195500Y246450D02*
Y246747D01*
Y253453D02*
Y253750D01*
X195600Y246450D02*
Y253750D01*
X195700Y246450D02*
Y253750D01*
X195800Y246450D02*
Y253750D01*
X195900Y246450D02*
Y253750D01*
X196000Y246450D02*
Y253750D01*
X196100Y246450D02*
Y253750D01*
X196200Y246450D02*
Y253750D01*
X196300Y246450D02*
Y246888D01*
Y253258D02*
Y253750D01*
X196400Y246450D02*
Y246744D01*
Y253453D02*
Y253750D01*
X196500Y246450D02*
Y246694D01*
Y253486D02*
Y253750D01*
X196600Y246450D02*
Y246650D01*
Y253519D02*
Y253750D01*
X196700Y146050D02*
Y151420D01*
Y246450D02*
Y246650D01*
Y253550D02*
Y253750D01*
X196800Y146050D02*
Y151420D01*
Y246450D02*
Y246650D01*
Y253519D02*
Y253750D01*
X196900Y146050D02*
Y151420D01*
Y246450D02*
Y246650D01*
Y253486D02*
Y253750D01*
X197000Y146050D02*
Y151420D01*
Y253453D02*
Y253750D01*
X197100Y146050D02*
Y151420D01*
Y253371D02*
Y253750D01*
X197200Y146050D02*
Y151420D01*
Y253271D02*
Y253750D01*
X197300Y146050D02*
Y146558D01*
Y148519D02*
Y149036D01*
Y150912D02*
Y151420D01*
Y253171D02*
Y253750D01*
X197400Y146050D02*
Y146548D01*
Y148529D02*
Y149027D01*
Y150922D02*
Y151420D01*
Y253031D02*
Y253750D01*
X197500Y146050D02*
Y146548D01*
Y148529D02*
Y149027D01*
Y150922D02*
Y151420D01*
Y252864D02*
Y253750D01*
X197600Y146050D02*
Y146548D01*
Y148529D02*
Y149027D01*
Y150922D02*
Y151420D01*
Y252697D02*
Y253750D01*
X197700Y146050D02*
Y146548D01*
Y148529D02*
Y149027D01*
Y150922D02*
Y151420D01*
Y252512D02*
Y253750D01*
X197800Y146050D02*
Y146548D01*
Y148529D02*
Y149027D01*
Y150922D02*
Y151420D01*
Y252312D02*
Y253750D01*
X197900Y146050D02*
Y146548D01*
Y148529D02*
Y149027D01*
Y150922D02*
Y151420D01*
Y252112D02*
Y253750D01*
X198000Y146050D02*
Y146548D01*
Y148529D02*
Y149027D01*
Y150922D02*
Y151420D01*
Y252050D02*
Y253347D01*
X198100Y146050D02*
Y146548D01*
Y148529D02*
Y149027D01*
Y150922D02*
Y151420D01*
Y252050D02*
Y252447D01*
X198200Y146050D02*
Y146548D01*
Y148529D02*
Y149027D01*
Y150922D02*
Y151420D01*
X198300Y146050D02*
Y146548D01*
Y148529D02*
Y149027D01*
Y150922D02*
Y151420D01*
X198400Y146050D02*
Y146548D01*
Y148529D02*
Y149027D01*
Y150922D02*
Y151420D01*
X198500Y146050D02*
Y146548D01*
Y148529D02*
Y149027D01*
Y150922D02*
Y151420D01*
X198600Y146050D02*
Y146548D01*
Y148529D02*
Y149027D01*
Y150922D02*
Y151420D01*
X198700Y146050D02*
Y146548D01*
Y148529D02*
Y149027D01*
Y150922D02*
Y151420D01*
Y248604D02*
Y249145D01*
X198800Y146050D02*
Y146548D01*
Y148529D02*
Y149027D01*
Y150922D02*
Y151420D01*
Y248004D02*
Y249645D01*
X198900Y146050D02*
Y146548D01*
Y148529D02*
Y149027D01*
Y150922D02*
Y151420D01*
Y247634D02*
Y249966D01*
X199000Y146050D02*
Y146548D01*
Y148529D02*
Y149027D01*
Y150922D02*
Y151420D01*
Y247474D02*
Y250126D01*
X199100Y146050D02*
Y146548D01*
Y148529D02*
Y149027D01*
Y150922D02*
Y151420D01*
Y247314D02*
Y250286D01*
X199200Y146050D02*
Y146548D01*
Y148529D02*
Y149027D01*
Y150922D02*
Y151420D01*
Y247154D02*
Y250446D01*
X199300Y146050D02*
Y146548D01*
Y148529D02*
Y149027D01*
Y150922D02*
Y151420D01*
Y246994D02*
Y248447D01*
Y249303D02*
Y250606D01*
X199400Y146050D02*
Y146548D01*
Y148529D02*
Y149027D01*
Y150922D02*
Y151420D01*
Y246900D02*
Y247888D01*
Y249827D02*
Y250720D01*
X199500Y146050D02*
Y146548D01*
Y148529D02*
Y149027D01*
Y150922D02*
Y151420D01*
Y246843D02*
Y247688D01*
Y250060D02*
Y250806D01*
X199600Y246786D02*
Y247488D01*
Y250294D02*
Y250891D01*
X199700Y246729D02*
Y247322D01*
Y250471D02*
Y250977D01*
X199800Y246672D02*
Y247202D01*
Y250571D02*
Y251063D01*
X199900Y246615D02*
Y247082D01*
Y250671D02*
Y251148D01*
X200000Y246558D02*
Y246962D01*
Y250771D02*
Y251234D01*
X200100Y246529D02*
Y246842D01*
Y250871D02*
Y251261D01*
X200200Y246507D02*
Y246749D01*
Y250952D02*
Y251272D01*
X200300Y246485D02*
Y246735D01*
Y250981D02*
Y251283D01*
X200400Y246462D02*
Y246721D01*
Y251009D02*
Y251294D01*
X200500Y246440D02*
Y246707D01*
Y251038D02*
Y251305D01*
X200600Y246418D02*
Y246692D01*
Y251066D02*
Y251316D01*
X200700Y246396D02*
Y246678D01*
Y251095D02*
Y251327D01*
X200800Y246373D02*
Y246664D01*
Y251123D02*
Y251339D01*
X200900Y246351D02*
Y246650D01*
Y251150D02*
Y251349D01*
X201000Y246373D02*
Y246666D01*
Y251123D02*
Y251327D01*
X201100Y246396D02*
Y246683D01*
Y251095D02*
Y251304D01*
X201200Y246418D02*
Y246699D01*
Y251066D02*
Y251282D01*
X201300Y246440D02*
Y246716D01*
Y251038D02*
Y251260D01*
X201400Y246462D02*
Y246733D01*
Y251009D02*
Y251238D01*
X201500Y246485D02*
Y246749D01*
Y250981D02*
Y251215D01*
X201600Y246507D02*
Y246802D01*
Y250952D02*
Y251193D01*
X201700Y246529D02*
Y246862D01*
Y250884D02*
Y251171D01*
X201800Y246558D02*
Y246922D01*
Y250804D02*
Y251141D01*
X201900Y246615D02*
Y246982D01*
Y250724D02*
Y251079D01*
X202000Y246672D02*
Y247042D01*
Y250644D02*
Y251016D01*
X202100Y246729D02*
Y247206D01*
Y250564D02*
Y250954D01*
X202200Y246786D02*
Y247440D01*
Y250394D02*
Y250891D01*
X202300Y246843D02*
Y247673D01*
Y250160D02*
Y250829D01*
X202400Y246900D02*
Y248070D01*
Y249927D02*
Y250766D01*
X202500Y246994D02*
Y248620D01*
Y249353D02*
Y250704D01*
X202600Y247154D02*
Y250577D01*
X202700Y247314D02*
Y250352D01*
X202800Y247474D02*
Y250127D01*
X202900Y247634D02*
Y249902D01*
X203000Y248004D02*
Y249570D01*
X203100Y248604D02*
Y249120D01*
X203900Y246450D02*
Y246650D01*
Y253519D02*
Y253750D01*
X204000Y246450D02*
Y246681D01*
Y253486D02*
Y253750D01*
X204100Y246450D02*
Y246714D01*
Y253453D02*
Y253750D01*
X204200Y246450D02*
Y246747D01*
Y253258D02*
Y253750D01*
X204300Y246450D02*
Y253750D01*
X204400Y246450D02*
Y253750D01*
X204500Y246450D02*
Y246888D01*
Y252850D02*
Y253750D01*
X204600Y246450D02*
Y246744D01*
Y252692D02*
Y253750D01*
X204700Y246450D02*
Y246694D01*
Y252455D02*
Y253750D01*
X204800Y246450D02*
Y246650D01*
Y252218D02*
Y253750D01*
X204900Y246450D02*
Y246650D01*
Y251980D02*
Y253669D01*
X205000Y246450D02*
Y246650D01*
Y251743D02*
Y253428D01*
X205100Y251506D02*
Y253186D01*
X205200Y251269D02*
Y252944D01*
X205300Y251032D02*
Y252703D01*
X205400Y146050D02*
Y147540D01*
Y250795D02*
Y252461D01*
X205500Y146050D02*
Y149673D01*
Y250558D02*
Y252219D01*
X205600Y146050D02*
Y151420D01*
Y250321D02*
Y251978D01*
X205700Y146050D02*
Y151420D01*
Y250084D02*
Y251736D01*
X205800Y146050D02*
Y151420D01*
Y249847D02*
Y251494D01*
X205900Y146050D02*
Y151420D01*
Y249610D02*
Y251253D01*
X206000Y149465D02*
Y151420D01*
Y249373D02*
Y251011D01*
X206100Y150739D02*
Y151420D01*
Y249136D02*
Y250769D01*
X206200Y150656D02*
Y151420D01*
Y248899D02*
Y250528D01*
X206300Y150356D02*
Y151420D01*
Y248662D02*
Y250286D01*
X206400Y150056D02*
Y151292D01*
Y248425D02*
Y250044D01*
X206500Y149771D02*
Y151014D01*
Y248188D02*
Y249803D01*
X206600Y149493D02*
Y150736D01*
Y247951D02*
Y249561D01*
X206700Y149215D02*
Y150458D01*
Y247714D02*
Y249319D01*
X206800Y148937D02*
Y150180D01*
Y247477D02*
Y249078D01*
Y253550D02*
Y253750D01*
X206900Y148659D02*
Y149903D01*
Y247240D02*
Y248836D01*
Y253550D02*
Y253750D01*
X207000Y148382D02*
Y149625D01*
Y247003D02*
Y248594D01*
Y253550D02*
Y253750D01*
X207100Y148104D02*
Y149347D01*
Y246766D02*
Y248353D01*
Y253506D02*
Y253750D01*
X207200Y147845D02*
Y149079D01*
Y246529D02*
Y248111D01*
Y253456D02*
Y253750D01*
X207300Y147845D02*
Y148813D01*
Y246450D02*
Y247950D01*
Y253258D02*
Y253750D01*
X207400Y147845D02*
Y148602D01*
Y246450D02*
Y253750D01*
X207500Y147845D02*
Y148735D01*
Y246450D02*
Y253750D01*
X207600Y147845D02*
Y149002D01*
Y253258D02*
Y253750D01*
X207700Y148032D02*
Y149268D01*
Y253456D02*
Y253750D01*
X207800Y148321D02*
Y149544D01*
Y253506D02*
Y253750D01*
X207900Y148609D02*
Y149822D01*
Y253550D02*
Y253750D01*
X208000Y148898D02*
Y150100D01*
Y253550D02*
Y253750D01*
X208100Y149187D02*
Y150378D01*
X208200Y149476D02*
Y150655D01*
X208300Y149765D02*
Y150933D01*
X208400Y150049D02*
Y151211D01*
X208500Y150249D02*
Y151420D01*
X208600Y150449D02*
Y151420D01*
X208700Y150649D02*
Y151420D01*
X208800Y150748D02*
Y151420D01*
X208900Y146719D02*
Y151420D01*
Y248454D02*
Y249096D01*
X209000Y146050D02*
Y151420D01*
Y247932D02*
Y249696D01*
X209100Y146050D02*
Y151420D01*
Y247582D02*
Y250060D01*
X209200Y146050D02*
Y151420D01*
Y247350D02*
Y250210D01*
X209300Y146050D02*
Y151420D01*
Y247217D02*
Y250360D01*
X209400Y146050D02*
Y149983D01*
Y247083D02*
Y250510D01*
X209500Y146050D02*
Y147850D01*
Y246971D02*
Y248496D01*
Y249250D02*
Y250650D01*
X209600Y246871D02*
Y247945D01*
Y249250D02*
Y249450D01*
Y249658D02*
Y250783D01*
X209700Y246771D02*
Y247617D01*
Y249250D02*
Y249450D01*
Y249935D02*
Y250917D01*
X209800Y246671D02*
Y247483D01*
Y249250D02*
Y249450D01*
Y250185D02*
Y250994D01*
X209900Y246619D02*
Y247350D01*
Y249250D02*
Y249450D01*
Y250383D02*
Y251044D01*
X210000Y246586D02*
Y247238D01*
Y249250D02*
Y249450D01*
Y250517D02*
Y251094D01*
X210100Y246553D02*
Y247163D01*
Y249250D02*
Y249450D01*
Y250650D02*
Y251144D01*
X210200Y246519D02*
Y247088D01*
Y249250D02*
Y249450D01*
Y250763D02*
Y251194D01*
X210300Y148548D02*
Y148766D01*
Y246486D02*
Y247013D01*
Y249250D02*
Y249450D01*
Y250838D02*
Y251244D01*
X210400Y147848D02*
Y149506D01*
Y246453D02*
Y246948D01*
Y249250D02*
Y249450D01*
Y250913D02*
Y251264D01*
X210500Y147353D02*
Y149914D01*
Y246434D02*
Y246919D01*
Y249250D02*
Y249450D01*
Y250988D02*
Y251278D01*
X210600Y147103D02*
Y150097D01*
Y246417D02*
Y246891D01*
Y249250D02*
Y249450D01*
Y251052D02*
Y251292D01*
X210700Y146918D02*
Y150281D01*
Y246401D02*
Y246862D01*
Y249250D02*
Y249450D01*
Y251077D02*
Y251307D01*
X210800Y146751D02*
Y150464D01*
Y246384D02*
Y246834D01*
Y249250D02*
Y249450D01*
Y251102D02*
Y251321D01*
X210900Y146611D02*
Y150647D01*
Y246367D02*
Y246805D01*
Y249250D02*
Y249450D01*
Y251127D02*
Y251335D01*
X211000Y146536D02*
Y150786D01*
Y246351D02*
Y246777D01*
Y249250D02*
Y249450D01*
Y251150D02*
Y251349D01*
X211100Y146461D02*
Y148070D01*
Y149340D02*
Y150864D01*
Y246371D02*
Y246750D01*
Y249250D02*
Y249450D01*
Y251131D02*
Y251337D01*
X211200Y146386D02*
Y147633D01*
Y149751D02*
Y150942D01*
Y246391D02*
Y246769D01*
Y249250D02*
Y249450D01*
Y251111D02*
Y251325D01*
X211300Y146325D02*
Y147433D01*
Y149951D02*
Y151019D01*
Y246411D02*
Y246789D01*
Y249250D02*
Y249450D01*
Y251091D02*
Y251312D01*
X211400Y146265D02*
Y147233D01*
Y150151D02*
Y151097D01*
Y246431D02*
Y246809D01*
Y249250D02*
Y249450D01*
Y251071D02*
Y251300D01*
X211500Y146205D02*
Y147060D01*
Y150324D02*
Y151175D01*
Y246454D02*
Y246829D01*
Y249250D02*
Y249450D01*
Y251051D02*
Y251287D01*
X211600Y146145D02*
Y146977D01*
Y150408D02*
Y151253D01*
Y246494D02*
Y246849D01*
Y249250D02*
Y249450D01*
Y250988D02*
Y251275D01*
X211700Y146106D02*
Y146894D01*
Y150491D02*
Y151331D01*
Y246534D02*
Y246886D01*
Y249250D02*
Y249450D01*
Y250913D02*
Y251262D01*
X211800Y146072D02*
Y146810D01*
Y150574D02*
Y151356D01*
Y246574D02*
Y246926D01*
Y249250D02*
Y249450D01*
Y250838D02*
Y251240D01*
X211900Y146039D02*
Y146727D01*
Y150658D02*
Y151376D01*
Y246614D02*
Y246966D01*
Y249250D02*
Y249450D01*
Y250763D02*
Y251173D01*
X212000Y146006D02*
Y146644D01*
Y150741D02*
Y151396D01*
Y246665D02*
Y247006D01*
Y249250D02*
Y249450D01*
Y250631D02*
Y251107D01*
X212100Y145972D02*
Y146625D01*
Y150770D02*
Y151416D01*
Y246748D02*
Y247046D01*
Y249250D02*
Y249450D01*
Y250464D02*
Y251040D01*
X212200Y145965D02*
Y146612D01*
Y150795D02*
Y151433D01*
Y246832D02*
Y247129D01*
Y249250D02*
Y249450D01*
Y250297D02*
Y250973D01*
X212300Y145965D02*
Y146600D01*
Y150820D02*
Y151450D01*
Y246915D02*
Y247229D01*
Y249250D02*
Y249450D01*
Y249854D02*
Y250907D01*
X212400Y145965D02*
Y146587D01*
Y150845D02*
Y151467D01*
Y246998D02*
Y247329D01*
Y249250D02*
Y250799D01*
X212500Y145965D02*
Y146575D01*
Y150870D02*
Y151483D01*
Y247082D02*
Y247429D01*
Y249250D02*
Y250624D01*
X212600Y145965D02*
Y146562D01*
Y150895D02*
Y151500D01*
Y247190D02*
Y247529D01*
Y249250D02*
Y250449D01*
X212700Y145974D02*
Y146550D01*
Y150920D02*
Y151497D01*
Y247340D02*
Y247629D01*
Y249250D02*
Y250274D01*
X212800Y145986D02*
Y146559D01*
Y150911D02*
Y151486D01*
Y247490D02*
Y247729D01*
Y249250D02*
Y249945D01*
X212900Y145999D02*
Y146571D01*
Y150899D02*
Y151475D01*
Y247640D02*
Y247694D01*
Y249250D02*
Y249445D01*
X213000Y146011D02*
Y146584D01*
Y150886D02*
Y151464D01*
X213100Y146024D02*
Y146596D01*
Y150874D02*
Y151453D01*
X213200Y146036D02*
Y146609D01*
Y150861D02*
Y151442D01*
X213300Y146049D02*
Y146621D01*
Y150849D02*
Y151431D01*
X213400Y146086D02*
Y146634D01*
Y150836D02*
Y151417D01*
X213500Y146124D02*
Y146673D01*
Y150797D02*
Y151389D01*
X213600Y146161D02*
Y146716D01*
Y150754D02*
Y151360D01*
Y251150D02*
Y251350D01*
X213700Y146199D02*
Y146759D01*
Y150711D02*
Y151332D01*
Y251106D02*
Y251350D01*
X213800Y146236D02*
Y146802D01*
Y150668D02*
Y151303D01*
Y251056D02*
Y251350D01*
X213900Y146274D02*
Y146845D01*
Y150625D02*
Y151274D01*
Y250561D02*
Y251350D01*
X214000Y250072D02*
Y251350D01*
X214100Y249583D02*
Y251350D01*
X214200Y249094D02*
Y251350D01*
X214300Y248605D02*
Y251350D01*
X214400Y248116D02*
Y251350D01*
X214500Y247627D02*
Y250612D01*
Y251056D02*
Y251350D01*
X214600Y247138D02*
Y250046D01*
Y251106D02*
Y251350D01*
X214700Y246650D02*
Y249479D01*
X214800Y246450D02*
Y248912D01*
X214900Y246450D02*
Y248346D01*
X215000Y147671D02*
Y151420D01*
Y246450D02*
Y247779D01*
X215100Y146989D02*
Y151420D01*
Y246450D02*
Y247450D01*
X215200Y146814D02*
Y151420D01*
Y246450D02*
Y247737D01*
X215300Y146639D02*
Y151420D01*
Y246663D02*
Y248220D01*
Y251150D02*
Y251350D01*
X215400Y146464D02*
Y151420D01*
Y247180D02*
Y248703D01*
Y251150D02*
Y251350D01*
X215500Y146391D02*
Y151420D01*
Y247696D02*
Y249187D01*
Y251071D02*
Y251350D01*
X215600Y146320D02*
Y151420D01*
Y248213D02*
Y249670D01*
Y250912D02*
Y251350D01*
X215700Y146248D02*
Y147522D01*
Y248730D02*
Y250153D01*
Y250606D02*
Y251350D01*
X215800Y146177D02*
Y147124D01*
Y249246D02*
Y251350D01*
X215900Y146105D02*
Y146874D01*
Y249550D02*
Y251350D01*
X216000Y146046D02*
Y146763D01*
Y249246D02*
Y251350D01*
X216100Y146036D02*
Y146688D01*
Y248730D02*
Y251350D01*
X216200Y146026D02*
Y146613D01*
Y248213D02*
Y250742D01*
Y250971D02*
Y251350D01*
X216300Y146016D02*
Y146548D01*
Y247696D02*
Y250337D01*
Y251056D02*
Y251350D01*
X216400Y146006D02*
Y146532D01*
Y247180D02*
Y249820D01*
Y251106D02*
Y251350D01*
X216500Y145996D02*
Y146515D01*
Y246663D02*
Y249304D01*
X216600Y145986D02*
Y146498D01*
Y246450D02*
Y248787D01*
X216700Y145976D02*
Y146482D01*
Y246450D02*
Y248270D01*
X216800Y145966D02*
Y146465D01*
Y246450D02*
Y247754D01*
X216900Y145982D02*
Y146474D01*
Y246450D02*
Y247450D01*
X217000Y146002D02*
Y146489D01*
Y246650D02*
Y247745D01*
X217100Y146022D02*
Y146503D01*
Y247138D02*
Y248245D01*
X217200Y146042D02*
Y146517D01*
Y247627D02*
Y248745D01*
Y251150D02*
Y251350D01*
X217300Y146062D02*
Y146531D01*
Y248116D02*
Y249245D01*
Y251150D02*
Y251350D01*
X217400Y146082D02*
Y146546D01*
Y248605D02*
Y249745D01*
Y251071D02*
Y251350D01*
X217500Y146102D02*
Y146600D01*
Y249094D02*
Y250245D01*
Y250971D02*
Y251350D01*
X217600Y146122D02*
Y146675D01*
Y249583D02*
Y251350D01*
X217700Y146160D02*
Y146750D01*
Y250072D02*
Y251350D01*
X217800Y146217D02*
Y146830D01*
Y250561D02*
Y251350D01*
X217900Y146274D02*
Y147079D01*
Y250912D02*
Y251350D01*
X218000Y146331D02*
Y147414D01*
Y251053D02*
Y251350D01*
X218100Y146388D02*
Y151420D01*
Y251086D02*
Y251350D01*
X218200Y146445D02*
Y151420D01*
Y251119D02*
Y251350D01*
X218300Y146571D02*
Y151420D01*
X218400Y146731D02*
Y151420D01*
X218500Y146891D02*
Y151420D01*
X218600Y147051D02*
Y151420D01*
X218700Y147595D02*
Y151420D01*
X219800Y246450D02*
Y246650D01*
Y253531D02*
Y253750D01*
X219900Y246450D02*
Y246650D01*
Y253511D02*
Y253750D01*
X220000Y246450D02*
Y246650D01*
Y253491D02*
Y253750D01*
X220100Y246450D02*
Y246650D01*
Y253471D02*
Y253750D01*
X220200Y246450D02*
Y246694D01*
Y253451D02*
Y253750D01*
X220300Y246450D02*
Y246744D01*
Y253450D02*
Y253750D01*
X220400Y246450D02*
Y246829D01*
Y253450D02*
Y253750D01*
X220500Y147606D02*
Y147694D01*
Y246450D02*
Y246929D01*
Y253206D02*
Y253750D01*
X220600Y147556D02*
Y147744D01*
Y246450D02*
Y253750D01*
X220700Y147514D02*
Y147769D01*
Y246450D02*
Y253750D01*
X220800Y147474D02*
Y147789D01*
Y246450D02*
Y253750D01*
X220900Y147434D02*
Y147809D01*
Y246450D02*
Y253750D01*
X221000Y147394D02*
Y147829D01*
Y246450D02*
Y253750D01*
X221100Y147371D02*
Y147849D01*
Y246450D02*
Y253750D01*
X221200Y147450D02*
Y147862D01*
Y150871D02*
Y150929D01*
Y152012D02*
Y152129D01*
Y246450D02*
Y253750D01*
X221300Y147450D02*
Y147875D01*
Y150712D02*
Y150950D01*
Y151950D02*
Y152150D01*
Y246450D02*
Y246929D01*
Y253158D02*
Y253750D01*
X221400Y147450D02*
Y147887D01*
Y150512D02*
Y150950D01*
Y151950D02*
Y152150D01*
Y246450D02*
Y246829D01*
Y253371D02*
Y253750D01*
X221500Y147450D02*
Y147900D01*
Y150312D02*
Y150950D01*
Y151950D02*
Y152162D01*
Y246450D02*
Y246744D01*
Y253456D02*
Y253750D01*
X221600Y147451D02*
Y147912D01*
Y149712D02*
Y150929D01*
Y151950D02*
Y152175D01*
Y246450D02*
Y246694D01*
Y253506D02*
Y253750D01*
X221700Y147475D02*
Y147925D01*
Y149040D02*
Y150875D01*
Y151950D02*
Y152187D01*
Y246450D02*
Y246650D01*
Y253550D02*
Y253750D01*
X221800Y147498D02*
Y147937D01*
Y148890D02*
Y150729D01*
Y150750D02*
Y150887D01*
Y151950D02*
Y152200D01*
Y246450D02*
Y246650D01*
Y253550D02*
Y253750D01*
X221900Y147522D02*
Y147950D01*
Y148771D02*
Y150170D01*
Y150750D02*
Y150900D01*
Y151950D02*
Y152212D01*
Y246450D02*
Y246650D01*
Y253550D02*
Y253750D01*
X222000Y147545D02*
Y147962D01*
Y148912D02*
Y149720D01*
Y149856D02*
Y149994D01*
Y150752D02*
Y150912D01*
Y151950D02*
Y152225D01*
Y246450D02*
Y246650D01*
Y253550D02*
Y253750D01*
X222100Y147569D02*
Y147975D01*
Y148950D02*
Y149166D01*
Y149850D02*
Y150044D01*
Y150777D02*
Y150925D01*
Y151950D02*
Y152237D01*
X222200Y147593D02*
Y147987D01*
Y148950D02*
Y149175D01*
Y149850D02*
Y150067D01*
Y150802D02*
Y150937D01*
Y151950D02*
Y152250D01*
X222300Y147616D02*
Y148000D01*
Y148950D02*
Y149183D01*
Y149850D02*
Y150086D01*
Y150827D02*
Y150950D01*
Y151950D02*
Y152262D01*
X222400Y147640D02*
Y148012D01*
Y148950D02*
Y149191D01*
Y149850D02*
Y150104D01*
Y150851D02*
Y150962D01*
Y151951D02*
Y152275D01*
X222500Y147663D02*
Y148025D01*
Y148950D02*
Y149200D01*
Y149850D02*
Y150122D01*
Y150867D02*
Y150975D01*
Y151971D02*
Y152287D01*
X222600Y145912D02*
Y146288D01*
Y147687D02*
Y148037D01*
Y148755D02*
Y149208D01*
Y149850D02*
Y150140D01*
Y150884D02*
Y150987D01*
Y151991D02*
Y152300D01*
X222700Y145712D02*
Y146842D01*
Y147710D02*
Y148050D01*
Y148255D02*
Y149216D01*
Y149852D02*
Y150158D01*
Y150901D02*
Y151000D01*
Y152011D02*
Y152312D01*
X222800Y145512D02*
Y149225D01*
Y149877D02*
Y150176D01*
Y150917D02*
Y151012D01*
Y151050D02*
Y151447D01*
Y152031D02*
Y152325D01*
Y153771D02*
Y153888D01*
X222900Y145371D02*
Y148929D01*
Y148950D02*
Y149233D01*
Y149902D02*
Y150195D01*
Y150934D02*
Y151025D01*
Y151050D02*
Y152794D01*
Y153506D02*
Y153946D01*
X223000Y145512D02*
Y148810D01*
Y148952D02*
Y149241D01*
Y149927D02*
Y150213D01*
Y150951D02*
Y151037D01*
Y151050D02*
Y153906D01*
X223100Y145855D02*
Y146598D01*
Y147454D02*
Y148660D01*
Y148977D02*
Y149250D01*
Y149950D02*
Y150231D01*
Y150967D02*
Y151050D01*
Y151206D02*
Y153866D01*
X223200Y147828D02*
Y148140D01*
Y148312D02*
Y148488D01*
Y149002D02*
Y149281D01*
Y149950D02*
Y150249D01*
Y150984D02*
Y151086D01*
Y151606D02*
Y153826D01*
X223300Y147851D02*
Y148158D01*
Y149027D02*
Y149314D01*
Y149950D02*
Y150294D01*
Y151001D02*
Y151126D01*
Y152050D02*
Y153786D01*
X223400Y147865D02*
Y148176D01*
Y149050D02*
Y149347D01*
Y149953D02*
Y150344D01*
Y151017D02*
Y151166D01*
Y152050D02*
Y152416D01*
Y152871D02*
Y153744D01*
X223500Y147879D02*
Y148195D01*
Y149050D02*
Y149348D01*
Y149986D02*
Y150323D01*
Y151034D02*
Y151206D01*
Y152052D02*
Y152433D01*
Y153155D02*
Y153694D01*
X223600Y147893D02*
Y148213D01*
Y149050D02*
Y149323D01*
Y150019D02*
Y150298D01*
Y151050D02*
Y151246D01*
Y152081D02*
Y152449D01*
Y153471D02*
Y153588D01*
X223700Y147908D02*
Y148231D01*
Y149050D02*
Y149298D01*
Y150050D02*
Y150273D01*
Y151050D02*
Y151250D01*
Y152109D02*
Y152494D01*
Y249452D02*
Y250548D01*
X223800Y147922D02*
Y148249D01*
Y149050D02*
Y149273D01*
Y150050D02*
Y150244D01*
Y151050D02*
Y151250D01*
Y152138D02*
Y152544D01*
Y248741D02*
Y251345D01*
X223900Y147936D02*
Y148273D01*
Y148971D02*
Y149442D01*
Y150050D02*
Y150194D01*
Y151050D02*
Y151250D01*
Y152166D02*
Y152594D01*
Y248407D02*
Y251845D01*
X224000Y147951D02*
Y148298D01*
Y148986D02*
Y149845D01*
Y150971D02*
Y151250D01*
Y152195D02*
Y152644D01*
Y248074D02*
Y252174D01*
X224100Y145806D02*
Y145856D01*
Y147965D02*
Y148323D01*
Y149019D02*
Y151294D01*
Y152223D02*
Y152650D01*
Y247826D02*
Y252349D01*
X224200Y145860D02*
Y145999D01*
Y147979D02*
Y148348D01*
Y149127D02*
Y151344D01*
Y152252D02*
Y152648D01*
Y247651D02*
Y252524D01*
X224300Y145927D02*
Y146141D01*
Y147993D02*
Y148350D01*
Y149360D02*
Y151294D01*
Y152277D02*
Y152623D01*
Y247476D02*
Y252699D01*
X224400Y145993D02*
Y146284D01*
Y148008D02*
Y148348D01*
Y149594D02*
Y151247D01*
Y152302D02*
Y152598D01*
Y247301D02*
Y249398D01*
Y250652D02*
Y252842D01*
X224500Y146071D02*
Y146427D01*
Y148022D02*
Y148323D01*
Y149906D02*
Y151214D01*
Y152327D02*
Y152573D01*
Y247171D02*
Y248626D01*
Y251490D02*
Y252962D01*
X224600Y146171D02*
Y146570D01*
Y148036D02*
Y148298D01*
Y150306D02*
Y151181D01*
Y152350D02*
Y152529D01*
Y247071D02*
Y248293D01*
Y251857D02*
Y253082D01*
X224700Y146271D02*
Y146713D01*
Y148050D02*
Y148273D01*
Y150658D02*
Y151129D01*
Y152371D02*
Y152429D01*
Y246971D02*
Y247959D01*
Y252223D02*
Y253202D01*
X224800Y146371D02*
Y146888D01*
Y148050D02*
Y148188D01*
Y150912D02*
Y151029D01*
Y246871D02*
Y247703D01*
Y252535D02*
Y253322D01*
X224900Y146471D02*
Y147088D01*
Y246771D02*
Y247536D01*
Y252785D02*
Y253394D01*
X225000Y146583D02*
Y147288D01*
Y246698D02*
Y247369D01*
Y252971D02*
Y253444D01*
X225100Y146717D02*
Y147488D01*
Y246638D02*
Y247229D01*
Y253071D02*
Y253494D01*
X225200Y146850D02*
Y147688D01*
Y246578D02*
Y247129D01*
Y253171D02*
Y253544D01*
X225300Y147012D02*
Y148045D01*
Y152412D02*
Y152594D01*
Y246518D02*
Y247029D01*
Y253260D02*
Y253594D01*
X225400Y147212D02*
Y148646D01*
Y151958D02*
Y152644D01*
Y246458D02*
Y246944D01*
Y253327D02*
Y253644D01*
X225500Y147412D02*
Y149397D01*
Y151555D02*
Y152623D01*
Y246436D02*
Y246894D01*
Y253393D02*
Y253686D01*
X225600Y147612D02*
Y152598D01*
Y246422D02*
Y246844D01*
Y253452D02*
Y253726D01*
X225700Y147930D02*
Y152573D01*
Y246408D02*
Y246794D01*
Y253477D02*
Y253766D01*
X225800Y148380D02*
Y152529D01*
Y246393D02*
Y246750D01*
Y253502D02*
Y253806D01*
X225900Y148950D02*
Y152486D01*
Y246379D02*
Y246750D01*
Y253527D02*
Y253846D01*
X226000Y148919D02*
Y149147D01*
Y150450D02*
Y150650D01*
Y152012D02*
Y152504D01*
Y246365D02*
Y246750D01*
Y253550D02*
Y253823D01*
X226100Y148886D02*
Y149171D01*
Y150450D02*
Y150650D01*
Y152250D02*
Y152522D01*
Y246351D02*
Y246750D01*
Y253534D02*
Y253798D01*
X226200Y148853D02*
Y149193D01*
Y150450D02*
Y150681D01*
Y152250D02*
Y152540D01*
Y246371D02*
Y246750D01*
Y253517D02*
Y253773D01*
X226300Y148877D02*
Y149215D01*
Y150450D02*
Y150714D01*
Y152250D02*
Y152558D01*
Y246391D02*
Y246750D01*
Y253501D02*
Y253748D01*
X226400Y148902D02*
Y149238D01*
Y150450D02*
Y150747D01*
Y152251D02*
Y152576D01*
Y246411D02*
Y246750D01*
Y253484D02*
Y253723D01*
X226500Y148927D02*
Y149260D01*
Y150450D02*
Y150781D01*
Y152271D02*
Y152595D01*
Y246431D02*
Y246750D01*
Y253467D02*
Y253698D01*
X226600Y146471D02*
Y146549D01*
Y148950D02*
Y149282D01*
Y150452D02*
Y150814D01*
Y152291D02*
Y152613D01*
Y246454D02*
Y246750D01*
Y253451D02*
Y253673D01*
X226700Y146371D02*
Y146529D01*
Y148950D02*
Y149304D01*
Y150477D02*
Y150847D01*
Y152311D02*
Y152631D01*
Y246494D02*
Y246750D01*
Y253398D02*
Y253644D01*
X226800Y146271D02*
Y146509D01*
Y148950D02*
Y149327D01*
Y150502D02*
Y150881D01*
Y152331D02*
Y152649D01*
Y246534D02*
Y246794D01*
Y253338D02*
Y253594D01*
X226900Y146171D02*
Y146489D01*
Y148956D02*
Y149349D01*
Y150527D02*
Y150914D01*
Y152350D02*
Y152666D01*
Y246574D02*
Y246844D01*
Y253278D02*
Y253550D01*
X227000Y146071D02*
Y146469D01*
Y149006D02*
Y149350D01*
Y150550D02*
Y150947D01*
Y152350D02*
Y152683D01*
Y246614D02*
Y246894D01*
Y253218D02*
Y253550D01*
X227100Y145971D02*
Y146450D01*
Y149050D02*
Y149350D01*
Y150550D02*
Y150950D01*
Y152350D02*
Y152699D01*
Y246671D02*
Y246944D01*
Y253158D02*
Y253550D01*
X227200Y145871D02*
Y146450D01*
Y149050D02*
Y149350D01*
Y150553D02*
Y150950D01*
Y152350D02*
Y152716D01*
Y246771D02*
Y247042D01*
Y253055D02*
Y253594D01*
X227300Y145771D02*
Y146326D01*
Y149050D02*
Y149350D01*
Y150586D02*
Y150944D01*
Y152350D02*
Y152733D01*
Y246871D02*
Y247162D01*
Y252930D02*
Y253644D01*
X227400Y145671D02*
Y145993D01*
Y146341D02*
Y146450D01*
Y149053D02*
Y149350D01*
Y150619D02*
Y150894D01*
Y152306D02*
Y152749D01*
Y246971D02*
Y247282D01*
Y252805D02*
Y253707D01*
X227500Y145606D02*
Y145659D01*
Y146007D02*
Y146588D01*
Y149086D02*
Y149344D01*
Y150650D02*
Y150847D01*
Y152256D02*
Y152794D01*
Y247071D02*
Y247402D01*
Y252680D02*
Y253773D01*
X227600Y145674D02*
Y147897D01*
Y149119D02*
Y149294D01*
Y150650D02*
Y150814D01*
Y151152D02*
Y152844D01*
Y247171D02*
Y247522D01*
Y252476D02*
Y253645D01*
X227700Y145606D02*
Y152794D01*
Y247335D02*
Y247724D01*
Y252209D02*
Y253145D01*
X227800Y145690D02*
Y152740D01*
Y247585D02*
Y247991D01*
Y251942D02*
Y252645D01*
X227900Y145840D02*
Y152673D01*
Y247827D02*
Y248258D01*
Y251906D02*
Y252145D01*
X228000Y146106D02*
Y152607D01*
Y248060D02*
Y248350D01*
X228100Y146604D02*
Y148545D01*
Y151354D02*
Y152544D01*
Y248294D02*
Y248350D01*
X228200Y151906D02*
Y152494D01*
X228700Y246450D02*
Y246650D01*
X228800Y246450D02*
Y246650D01*
Y253550D02*
Y253750D01*
X228900Y246450D02*
Y246650D01*
Y253550D02*
Y253750D01*
X229000Y246450D02*
Y246681D01*
Y253519D02*
Y253750D01*
X229100Y246450D02*
Y246714D01*
Y253486D02*
Y253750D01*
X229200Y246450D02*
Y246747D01*
Y253453D02*
Y253750D01*
X229300Y246450D02*
Y246994D01*
Y253258D02*
Y253750D01*
X229400Y246450D02*
Y253750D01*
X229500Y246450D02*
Y253750D01*
X229600Y246450D02*
Y253750D01*
X229700Y246450D02*
Y253750D01*
X229800Y246450D02*
Y253750D01*
X229900Y246450D02*
Y253750D01*
X230000Y246450D02*
Y247088D01*
Y250150D02*
Y250350D01*
Y253190D02*
Y253750D01*
X230100Y246450D02*
Y246888D01*
Y250150D02*
Y250350D01*
Y253340D02*
Y253750D01*
X230200Y246450D02*
Y246749D01*
Y250150D02*
Y250350D01*
Y253451D02*
Y253750D01*
X230300Y246450D02*
Y246729D01*
Y250150D02*
Y250350D01*
Y253471D02*
Y253750D01*
X230400Y246450D02*
Y246709D01*
Y250150D02*
Y250350D01*
Y253491D02*
Y253750D01*
X230500Y146493D02*
Y146694D01*
Y246450D02*
Y246689D01*
Y250150D02*
Y250350D01*
Y253511D02*
Y253750D01*
X230600Y146427D02*
Y146744D01*
Y246450D02*
Y246669D01*
Y250150D02*
Y250350D01*
Y253531D02*
Y253750D01*
X230700Y146360D02*
Y146750D01*
Y246450D02*
Y246650D01*
Y250150D02*
Y250350D01*
Y253550D02*
Y253750D01*
X230800Y146319D02*
Y146750D01*
Y246450D02*
Y246662D01*
Y250150D02*
Y250350D01*
Y253536D02*
Y253750D01*
X230900Y146286D02*
Y146750D01*
Y246450D02*
Y246675D01*
Y250150D02*
Y250350D01*
Y253522D02*
Y253750D01*
X231000Y146253D02*
Y146750D01*
Y246450D02*
Y246687D01*
Y250150D02*
Y250394D01*
Y253508D02*
Y253750D01*
X231100Y146206D02*
Y146750D01*
Y246450D02*
Y246700D01*
Y250150D02*
Y250444D01*
Y253493D02*
Y253750D01*
X231200Y146156D02*
Y146750D01*
Y246450D02*
Y246712D01*
Y250071D02*
Y250494D01*
Y253479D02*
Y253750D01*
X231300Y146150D02*
Y146750D01*
Y246450D02*
Y246725D01*
Y249971D02*
Y250544D01*
Y253465D02*
Y253750D01*
X231400Y146152D02*
Y146750D01*
Y246450D02*
Y246737D01*
Y249758D02*
Y250688D01*
Y253451D02*
Y253750D01*
X231500Y146177D02*
Y146760D01*
Y246450D02*
Y246750D01*
Y248850D02*
Y251550D01*
Y253398D02*
Y253750D01*
X231600Y146202D02*
Y146770D01*
Y246450D02*
Y246794D01*
Y248850D02*
Y251550D01*
Y253338D02*
Y253750D01*
X231700Y146227D02*
Y146780D01*
Y246450D02*
Y246844D01*
Y253278D02*
Y253750D01*
X231800Y146251D02*
Y146790D01*
Y246450D02*
Y246894D01*
Y253218D02*
Y253750D01*
X231900Y146271D02*
Y146800D01*
Y246450D02*
Y246944D01*
Y253158D02*
Y253750D01*
X232000Y146291D02*
Y146810D01*
Y246450D02*
Y246994D01*
Y253055D02*
Y253750D01*
X232100Y146311D02*
Y146820D01*
Y246450D02*
Y247044D01*
Y252930D02*
Y253750D01*
X232200Y146331D02*
Y146830D01*
Y246450D02*
Y247145D01*
Y252805D02*
Y253750D01*
X232300Y146351D02*
Y146840D01*
Y246450D02*
Y247270D01*
Y252680D02*
Y253750D01*
X232400Y146367D02*
Y146850D01*
Y246450D02*
Y247395D01*
Y252494D02*
Y253750D01*
X232500Y146384D02*
Y146860D01*
Y246450D02*
Y247520D01*
Y252260D02*
Y253750D01*
X232600Y146401D02*
Y146870D01*
Y246450D02*
Y247688D01*
Y252027D02*
Y253750D01*
X232700Y146417D02*
Y146880D01*
Y246655D02*
Y247888D01*
Y251950D02*
Y253322D01*
X232800Y146434D02*
Y146890D01*
Y247155D02*
Y248088D01*
Y251950D02*
Y252372D01*
X232900Y146450D02*
Y146900D01*
Y247655D02*
Y248288D01*
X233000Y146463D02*
Y146910D01*
Y248155D02*
Y248350D01*
X233100Y146475D02*
Y146920D01*
X233200Y146488D02*
Y146930D01*
X233300Y146500D02*
Y146940D01*
X233400Y146513D02*
Y146950D01*
X233500Y146525D02*
Y146950D01*
X233600Y146538D02*
Y146950D01*
X233700Y146550D02*
Y146950D01*
X233800Y146550D02*
Y146950D01*
Y153012D02*
Y153129D01*
X233900Y146550D02*
Y146950D01*
Y152785D02*
Y153194D01*
X234000Y146550D02*
Y146950D01*
Y152535D02*
Y153244D01*
X234100Y146550D02*
Y149049D01*
Y151852D02*
Y153250D01*
X234200Y146550D02*
Y153250D01*
X234300Y146550D02*
Y150250D01*
Y150350D02*
Y153244D01*
X234400Y146550D02*
Y150250D01*
Y150271D02*
Y153194D01*
X234500Y146550D02*
Y153144D01*
X234600Y146557D02*
Y153094D01*
X234700Y146563D02*
Y147021D01*
Y150150D02*
Y150347D01*
Y151455D02*
Y153040D01*
X234800Y146570D02*
Y147035D01*
Y150150D02*
Y150386D01*
Y151906D02*
Y152973D01*
X234900Y146577D02*
Y147049D01*
Y150150D02*
Y150426D01*
Y152612D02*
Y152907D01*
X235000Y146583D02*
Y147050D01*
Y150150D02*
Y150466D01*
X235100Y146590D02*
Y147050D01*
Y150150D02*
Y150506D01*
X235200Y146597D02*
Y147050D01*
Y150150D02*
Y150546D01*
X235300Y146603D02*
Y147050D01*
Y150150D02*
Y150569D01*
X235400Y146610D02*
Y147062D01*
Y150150D02*
Y150589D01*
X235500Y146617D02*
Y147075D01*
Y150150D02*
Y150609D01*
X235600Y146623D02*
Y147087D01*
Y150150D02*
Y150629D01*
X235700Y146630D02*
Y147100D01*
Y150151D02*
Y150649D01*
X235800Y146637D02*
Y147112D01*
Y150169D02*
Y150681D01*
X235900Y146643D02*
Y147125D01*
Y150187D02*
Y150714D01*
X236000Y146650D02*
Y147137D01*
Y150205D02*
Y150747D01*
X236100Y146658D02*
Y147150D01*
Y150224D02*
Y150750D01*
X236200Y146666D02*
Y147160D01*
Y150242D02*
Y150750D01*
X236300Y146673D02*
Y147170D01*
Y150260D02*
Y150781D01*
X236400Y146681D02*
Y147180D01*
Y150278D02*
Y150814D01*
X236500Y146689D02*
Y147190D01*
Y150296D02*
Y150847D01*
X236600Y146696D02*
Y147200D01*
Y150314D02*
Y150850D01*
X236700Y146704D02*
Y147210D01*
Y150333D02*
Y150844D01*
X236800Y146712D02*
Y147220D01*
Y150353D02*
Y150794D01*
X236900Y146719D02*
Y147230D01*
Y150386D02*
Y150747D01*
X237000Y146727D02*
Y147240D01*
Y150419D02*
Y150714D01*
X237100Y146735D02*
Y147250D01*
Y150471D02*
Y150681D01*
X237200Y146742D02*
Y147250D01*
X237300Y146750D02*
Y147250D01*
X237400Y146738D02*
Y147250D01*
X237500Y146725D02*
Y147250D01*
X237600Y146713D02*
Y147250D01*
X237700Y146700D02*
Y147250D01*
X237800Y146688D02*
Y147250D01*
X237900Y146675D02*
Y147250D01*
X238000Y146663D02*
Y147294D01*
X238100Y146650D02*
Y147344D01*
X238200Y146650D02*
Y147344D01*
X238300Y146650D02*
Y147294D01*
X238400Y146650D02*
Y147247D01*
X238500Y146650D02*
Y147214D01*
X238600Y146650D02*
Y147181D01*
X238700Y146650D02*
Y147140D01*
X238800Y146656D02*
Y147073D01*
X238900Y146706D02*
Y147007D01*
X239000Y146771D02*
Y146888D01*
*
G04 PC Custom Flashes*
G04 Layer Name NewICE to OLDICE.pcb - flashes*
%LPD*%
*
*
G04 PC Circuitry*
G04 Layer Name NewICE to OLDICE.pcb - circuitry*
%LPD*%
*
G54D10*
G54D23*
X200000Y214094D02*
X186614D01*
Y225906*
X200000*
Y214094D02*
X213386D01*
Y225906*
X200000*
X179600Y226481D02*
Y223200D01*
Y226481D02*
X180395D01*
X180736Y226325*
X180964Y226013*
X180964D02*
X181077Y225700D01*
X181191Y225231*
Y224450*
X181077Y223981*
X180964Y223669*
X180736Y223356*
X180395Y223200*
X179600*
X182214Y225856D02*
X182441Y226013D01*
X182441D02*
X182782Y226481D01*
Y223200*
X133805Y146700D02*
X133691Y147013D01*
X133691D02*
X133464Y147325D01*
X133236Y147481*
X132782*
X132555Y147325*
X132327Y147013*
X132327D02*
X132214Y146700D01*
X132100Y146231*
Y145450*
X132214Y144981*
X132327Y144669*
X132555Y144356*
X132782Y144200*
X133236*
X133464Y144356*
X133691Y144669*
X133805Y144981*
X135509Y147481D02*
X135282Y147325D01*
X135055Y147013*
X135055D02*
X134941Y146700D01*
X134827Y146231*
Y145450*
X134941Y144981*
X135055Y144669*
X135282Y144356*
X135509Y144200*
X135964*
X136191Y144356*
X136418Y144669*
X136532Y144981*
X136645Y145450*
Y146231*
X136532Y146700*
X136418Y147013*
X136418D02*
X136191Y147325D01*
X135964Y147481*
X135509*
X137668D02*
Y144200D01*
Y147481D02*
X139259Y144200D01*
Y147481D02*
Y144200D01*
X140282Y146856D02*
X140509Y147013D01*
X140509D02*
X140850Y147481D01*
Y144200*
X237736Y230681D02*
Y228181D01*
X237623Y227713*
X237623D02*
X237509Y227556D01*
X237282Y227400*
X237055*
X236827Y227556*
X236714Y227713*
X236714D02*
X236600Y228181D01*
Y228494*
X238759Y230056D02*
X238986Y230213D01*
X238986D02*
X239327Y230681D01*
Y227400*
X125200Y140000D02*
X249000D01*
Y260000*
X125200*
Y140000*
X140636Y239700D02*
G75*
G03X140636I-5636J0D01*
G01X140961Y159900D02*
G03X140961I-6061J0D01*
G54D24*
G01X155000Y148976D02*
X123740D01*
Y251024*
X155000*
Y148976*
X151969Y200000D02*
X150000D01*
Y198031*
Y201969D02*
Y200000D01*
X148031*
X140512Y240000D02*
G03X140512I-5512J0D01*
G01Y160000D02*
G03X140512I-5512J0D01*
G54D57*
G01X232594Y225591D02*
X247077D01*
Y174409*
X232594*
Y225591*
X238031Y220000D02*
X240000D01*
Y221969*
Y218031D02*
Y220000D01*
X241969*
G54D80*
X232500Y225500D02*
X246800D01*
Y173900*
X232500*
Y225500*
X186400Y226200D02*
X213400D01*
Y214200*
X186400*
Y226200*
G74*
X0Y0D02*
M02*
