*
*
G04 PADS VX.2.4 Build Number: 11282995 generated Gerber (RS-274-X) file*
G04 PC Version=2.1*
*
%IN "ICE(for8520)-5.pcb"*%
*
%MOIN*%
*
%FSLAX35Y35*%
*
*
*
*
G04 PC Standard Apertures*
*
*
G04 Thermal Relief Aperture macro.*
%AMTER*
1,1,$1,0,0*
1,0,$1-$2,0,0*
21,0,$3,$4,0,0,45*
21,0,$3,$4,0,0,135*
%
*
*
G04 Annular Aperture macro.*
%AMANN*
1,1,$1,0,0*
1,0,$2,0,0*
%
*
*
G04 Odd Aperture macro.*
%AMODD*
1,1,$1,0,0*
1,0,$1-0.005,0,0*
%
*
*
G04 PC Custom Aperture Macros*
*
*
*
*
*
*
G04 PC Aperture Table*
*
%ADD010C,0.001*%
%ADD011C,0.07874*%
%ADD014C,0.06*%
%ADD020R,0.06X0.06*%
%ADD023C,0.01*%
%ADD034C,0.0315*%
%ADD035R,0.07087X0.07087*%
%ADD036C,0.07087*%
%ADD052C,0.015*%
%ADD089C,0.025*%
*
*
*
*
G04 PC Circuitry*
G04 Layer Name ICE(for8520)-5.pcb - circuitry*
%LPD*%
*
*
G04 PC Custom Flashes*
G04 Layer Name ICE(for8520)-5.pcb - flashes*
%LPD*%
*
*
G04 PC Circuitry*
G04 Layer Name ICE(for8520)-5.pcb - circuitry*
%LPD*%
*
G54D10*
G54D11*
G01X123000Y110000D03*
X143000D03*
G54D14*
X195000Y235000D03*
Y225000D03*
Y70000D03*
Y60000D03*
G54D20*
Y245000D03*
Y80000D03*
G54D23*
X103575Y81200D02*
G75*
G03X103575I-3075J0D01*
G01X138775Y225600D02*
G03X138775I-3075J0D01*
G01X203500Y251000D02*
G03X203000Y251500I-500J-0D01*
G01X190924*
G03X190424Y251000I0J-500*
G01X190424*
G03X190431Y250916I500J-0*
G01X190410Y249772D02*
G03X190431Y250916I-3010J628D01*
G01X190410Y249772D02*
G03X191175Y249253I490J-102D01*
G01X192000Y249500D02*
G03X191175Y249253I-0J-1500D01*
G01X192000Y249500D02*
X198000D01*
X199500Y248000D02*
G03X198000Y249500I-1500J0D01*
G01X199500Y248000D02*
Y242000D01*
X198000Y240500D02*
G03X199500Y242000I0J1500D01*
G01X198000Y240500D02*
X195020D01*
G03X195000I0J-500*
X194980I-20J-500*
G01X192000*
X190988Y240893D02*
G03X192000Y240500I1012J1107D01*
G01X190988Y240893D02*
G03X190150Y240524I-338J-369D01*
G01Y237465*
G03X191085Y237219I500J0*
G01X194982Y239500D02*
G03X191085Y237219I18J-4500D01*
G01X194982Y239500D02*
G03X195000I-2J500D01*
X195018I20J500*
G01X195013Y230500D02*
G03X195018Y239500I-13J4500D01*
G01X195013Y230500D02*
G03X195000I1J-500D01*
X194987I-14J-500*
G01X191085Y232781D02*
G03X194987Y230500I3915J2219D01*
G01X191085Y232781D02*
G03X190150Y232535I-435J-246D01*
G01Y227465*
G03X191085Y227219I500J0*
G01X194987Y229500D02*
G03X191085Y227219I13J-4500D01*
G01X194987Y229500D02*
G03X195000I-1J500D01*
X195013I14J500*
G01X191085Y222781D02*
G03X195013Y229500I3915J2219D01*
G01X191085Y222781D02*
G03X190150Y222535I-435J-246D01*
G01Y209330*
G03X190296Y208977I500J0*
G01X192738Y206535*
X193543Y204591D02*
G03X192738Y206535I-2750J-0D01*
G01X193543Y204591D02*
Y160793D01*
X192738Y158849D02*
G03X193543Y160793I-1945J1944D01*
G01X192738Y158849D02*
X190120Y156231D01*
G03X189973Y155877I353J-354*
X189980Y155798I500J0*
G01X190043Y155000D02*
G03X189980Y155798I-5043J0D01*
G01X190043Y155000D02*
X190043D01*
X187178Y150451D02*
G03X190043Y155000I-2178J4549D01*
G01X187178Y150451D02*
G03Y149549I215J-451D01*
G01X190043Y145000D02*
G03X187178Y149549I-5043J0D01*
G01X190043Y145000D02*
X190043D01*
X189980Y144202D02*
G03X190043Y145000I-4980J798D01*
G01X189980Y144202D02*
G03X189973Y144123I493J-79D01*
X190120Y143769I500J-0*
G01X192738Y141151*
X193543Y139207D02*
G03X192738Y141151I-2750J-0D01*
G01X193543Y139207D02*
Y112600D01*
X192738Y110656D02*
G03X193543Y112600I-1945J1944D01*
G01X192738Y110656D02*
X175838Y93755D01*
X173891Y92950D02*
G03X175838Y93755I2J2750D01*
G01X173891Y92950D02*
X146291D01*
X144346Y93755D02*
G03X146291Y92950I1945J1945D01*
G01X144346Y93755D02*
X142031Y96071D01*
X141225Y98016D02*
G03X142031Y96071I2750J-0D01*
G01X141225Y98016D02*
Y101705D01*
X142031Y103649D02*
G03X141225Y101705I1944J-1944D01*
G01X142031Y103649D02*
X142203Y103822D01*
G03X141946Y104666I-353J353*
G01X138455Y107016D02*
G03X141946Y104666I4545J2984D01*
G01X138455Y107016D02*
G03X137684Y107095I-418J-275D01*
G01X128944Y98355*
X126998Y97550D02*
G03X128944Y98355I1J2750D01*
G01X126998Y97550D02*
X119001D01*
X117056Y98355D02*
G03X119000Y97550I1944J1945D01*
G01X117056Y98355D02*
X104631Y110781D01*
X103825Y112725D02*
G03X104631Y110781I2750J0D01*
G01X103825Y112725D02*
Y149660D01*
X104631Y151605D02*
G03X103825Y149660I1944J-1945D01*
G01X104631Y151605D02*
X106970Y153945D01*
X107523Y154372D02*
G03X106970Y153945I1392J-2372D01*
G01X107523Y154372D02*
X109682Y155639D01*
G03X109859Y156326I-253J431*
G01X109425Y157900D02*
G03X109859Y156326I3075J-0D01*
G01X109425Y157900D02*
X109425D01*
X109705Y159181D02*
G03X109425Y157900I2795J-1281D01*
G01X109705Y159181D02*
G03X109750Y159389I-455J208D01*
G01Y191211*
G03X109705Y191419I-500J0*
G01X115295D02*
G03X109705I-2795J1281D01*
G01X115295D02*
G03X115250Y191211I455J-208D01*
G01Y160637*
G03X115396Y160284I500J0*
G01X120545Y155135*
X121350Y153191D02*
G03X120545Y155135I-2750J-0D01*
G01X121350Y153191D02*
Y148319D01*
G03X122263Y148037I500J0*
G01X127113Y148326D02*
G03X122263Y148037I-2313J-2026D01*
G01X127113Y148326D02*
G03X127876Y148337I377J329D01*
G01X128055Y148535D02*
G03X127876Y148337I1945J-1944D01*
G01X128055Y148535D02*
X132460Y152940D01*
X133135Y153435D02*
G03X132460Y152940I1270J-2440D01*
G01X133135Y153435D02*
G03X132911Y154378I-231J443D01*
G01X127653Y154450*
X125647Y155361D02*
G03X127653Y154450I2044J1839D01*
G01X125647Y155361D02*
X122056Y159352D01*
X121350Y161191D02*
G03X122056Y159352I2750J-0D01*
G01X121350Y161191D02*
Y247611D01*
G03X121305Y247819I-500J0*
G01X121495Y250734D02*
G03X121305Y247819I2605J-1634D01*
G01X121495Y250734D02*
G03X121572Y251000I-423J266D01*
X121072Y251500I-500J-0*
G01X67300*
G03X66800Y251000I0J-500*
G01Y191961*
G03X67785Y191842I500J0*
G01Y188272D02*
G03Y191842I7240J1785D01*
G01Y188272D02*
G03X66800Y188153I-485J-119D01*
G01Y112797*
G03X67764Y112612I500J0*
G01Y106944D02*
G03Y112612I7110J2834D01*
G01Y106944D02*
G03X66800Y106759I-464J-185D01*
G01Y49000*
G03X67300Y48500I500J0*
G01X203000*
G03X203500Y49000I-0J500*
G01Y251000*
X188043Y203245D02*
G03X187897Y203598I-500J-0D01*
G01X185455Y206040*
X184650Y207984D02*
G03X185455Y206040I2750J0D01*
G01X184650Y207984D02*
Y248911D01*
G03X184605Y249119I-500J0*
G01X184369Y250916D02*
G03X184605Y249119I3031J-516D01*
G01X184369Y250916D02*
G03X184376Y251000I-493J84D01*
G01X184376*
G03X183876Y251500I-500J-0*
G01X127128*
G03X126628Y251000I0J-500*
X126705Y250734I500J-0*
G01X126895Y247819D02*
G03X126705Y250734I-2795J1281D01*
G01X126895Y247819D02*
G03X126850Y247611I455J-208D01*
G01Y171810*
G03X127539Y171347I500J0*
G01X129259Y171524D02*
G03X127539Y171347I-559J-3024D01*
G01X129259Y171524D02*
G03X129850Y172015I91J491D01*
G01Y186762*
X130655Y188707D02*
G03X129850Y186762I1945J-1945D01*
G01X130655Y188707D02*
X130704Y188755D01*
G03X130850Y189109I-354J354*
G01Y199911*
G03X130805Y200119I-500J0*
G01X136395D02*
G03X130805I-2795J1281D01*
G01X136395D02*
G03X136350Y199911I455J-208D01*
G01Y188615*
G03X136941Y188124I500J0*
G01X136081Y182372D02*
G03X136941Y188124I1419J2728D01*
G01X136081Y182372D02*
G03X135350Y181929I-231J-443D01*
G01Y171215*
G03X135941Y170724I500J0*
G01X136199Y164640D02*
G03X135941Y170724I301J3060D01*
G01X136199Y164640D02*
G03X135650Y164142I-49J-498D01*
G01Y163584*
G03X135765Y163265I500J0*
G01X136475Y161300D02*
G03X135765Y163265I-3075J0D01*
G01X136475Y161300D02*
X136475D01*
X136323Y160345D02*
G03X136475Y161300I-2923J955D01*
G01X136323Y160345D02*
G03X136547Y159758I475J-155D01*
G01X136073Y154219D02*
G03X136547Y159758I-1073J2881D01*
G01X136073Y154219D02*
G03Y153281I175J-469D01*
G01X137570Y148712D02*
G03X136073Y153281I-2570J1688D01*
G01X137570Y148712D02*
G03X137488Y148438I418J-274D01*
X137598Y148125I500J-0*
G01X137995Y144919D02*
G03X137598Y148125I-2795J1281D01*
G01X137995Y144919D02*
G03X137950Y144711I455J-208D01*
G01Y123777*
G03X138804Y123424I500J0*
G01X144604Y129224*
G03X144750Y129577I-354J353*
G01Y141011*
G03X144705Y141219I-500J0*
G01X147913Y145547D02*
G03X144705Y141219I-413J-3047D01*
G01X147913Y145547D02*
G03X148459Y145897I68J495D01*
G01X154195Y143719D02*
G03X148459Y145897I-2795J1281D01*
G01X154195Y143719D02*
G03X154150Y143511I455J-208D01*
G01Y133010*
G03X154839Y132547I500J0*
G01X156494Y132735D02*
G03X154839Y132547I-494J-3035D01*
G01X156494Y132735D02*
G03X157075Y133228I81J493D01*
G01Y145588*
G03X156928Y145941I-500J-0*
G01X151166Y151704*
G03X150813Y151850I-353J-354*
G01X147500*
X145818Y152425D02*
G03X147500Y151850I1682J2175D01*
G01X145818Y152425D02*
G03X145790Y152445I-306J-396D01*
G01X145177Y157015D02*
G03X145790Y152445I2323J-2015D01*
G01X145177Y157015D02*
G03X145300Y157342I-377J327D01*
X145187Y157659I-500J0*
G01X144603Y158950D02*
G03X145187Y157659I2712J450D01*
G01X144603Y158950D02*
G03X144584Y159026I-494J-82D01*
G01X147269Y163066D02*
G03X144584Y159026I231J-3066D01*
G01X147269Y163066D02*
G03X147716Y163444I-38J499D01*
G01X147905Y163981D02*
G03X147716Y163444I2795J-1281D01*
G01X147905Y163981D02*
G03X147950Y164189I-455J208D01*
G01Y172385*
G03X147804Y172739I-500J0*
G01X145055Y175487*
X144250Y177431D02*
G03X145055Y175487I2750J0D01*
G01X144250Y177431D02*
Y191211D01*
G03X144205Y191419I-500J0*
G01X149340Y194694D02*
G03X144205Y191419I-2340J-1994D01*
G01X149340Y194694D02*
G03X150123Y194722I381J325D01*
G01X155395Y191619D02*
G03X150123Y194722I-2795J1281D01*
G01X155395Y191619D02*
G03X155350Y191411I455J-208D01*
G01Y184274*
G03X155496Y183921I500J0*
G01X156469Y182948*
X157275Y181003D02*
G03X156469Y182948I-2750J0D01*
G01X157275Y181003D02*
Y161116D01*
X156469Y159171D02*
G03X157275Y161116I-1944J1945D01*
G01X156469Y159171D02*
X154327Y157028D01*
G03Y156321I353J-353*
G01X157819Y152829*
G03X158666Y153101I354J353*
G01X158905Y153881D02*
G03X158666Y153101I2795J-1281D01*
G01X158905Y153881D02*
G03X158950Y154089I-455J208D01*
G01Y160250*
X159755Y162195D02*
G03X158950Y160250I1945J-1945D01*
G01X159755Y162195D02*
X159904Y162343D01*
G03X160050Y162696I-354J353*
G01Y167511*
G03X160005Y167719I-500J0*
G01X165552Y170372D02*
G03X160005Y167719I-2752J-1372D01*
G01X165552Y170372D02*
G03X166353Y170242I447J223D01*
G01X169880Y173769*
G03X170027Y174123I-353J354*
X170020Y174202I-500J-0*
G01X169957Y175000D02*
G03X170020Y174202I5043J-0D01*
G01X169957Y175000D02*
X169957D01*
X172822Y179549D02*
G03X169957Y175000I2178J-4549D01*
G01X172822Y179549D02*
G03Y180451I-215J451D01*
G01X179549Y187178D02*
G03X172822Y180451I-4549J-2178D01*
G01X179549Y187178D02*
G03X180451I451J215D01*
G01X187314Y189481D02*
G03X180451Y187178I-2314J-4481D01*
G01X187314Y189481D02*
G03X188043Y189925I229J444D01*
G01Y203245*
X194987Y64500D02*
G03X195000I-1J500D01*
X195013I14J500*
G01X194987D02*
G03X195013I13J-4500D01*
G01Y65500D02*
G03X195000I1J-500D01*
X194987I-14J-500*
G01X194982Y74500D02*
G03X194987Y65500I18J-4500D01*
G01X194982Y74500D02*
G03X195000I-2J500D01*
X195018I20J500*
G01X195013Y65500D02*
G03X195018Y74500I-13J4500D01*
G01X199500Y83000D02*
Y77000D01*
X198000Y75500D02*
G03X199500Y77000I0J1500D01*
G01X198000Y75500D02*
X195020D01*
G03X195000I0J-500*
X194980I-20J-500*
G01X192000*
X190500Y77000D02*
G03X192000Y75500I1500J0D01*
G01X190500Y77000D02*
Y83000D01*
X192000Y84500D02*
G03X190500Y83000I0J-1500D01*
G01X192000Y84500D02*
X198000D01*
X199500Y83000D02*
G03X198000Y84500I-1500J0D01*
G01X103575Y81200D02*
G03X103575I-3075J0D01*
G01X97178Y165451D02*
G03Y164549I215J-451D01*
G01Y155451D02*
G03Y164549I-2178J4549D01*
G01Y155451D02*
G03Y154549I215J-451D01*
G01Y145451D02*
G03Y154549I-2178J4549D01*
G01Y145451D02*
G03Y144549I215J-451D01*
G01X100043Y140000D02*
G03X97178Y144549I-5043J0D01*
G01X97999Y135945D02*
G03X100043Y140000I-2999J4055D01*
G01X97999Y135945D02*
G03X98296Y135043I297J-402D01*
G01X98543*
X100043Y133543D02*
G03X98543Y135043I-1500J0D01*
G01X100043Y133543D02*
Y126457D01*
X98543Y124957D02*
G03X100043Y126457I0J1500D01*
G01X98543Y124957D02*
X91457D01*
X89957Y126457D02*
G03X91457Y124957I1500J-0D01*
G01X89957Y126457D02*
Y126704D01*
G03X89055Y127001I-500J-0*
G01X82822Y134549D02*
G03X89055Y127001I2178J-4549D01*
G01X82822Y134549D02*
G03Y135451I-215J451D01*
G01Y144549D02*
G03Y135451I2178J-4549D01*
G01Y144549D02*
G03Y145451I-215J451D01*
G01Y154549D02*
G03Y145451I2178J-4549D01*
G01Y154549D02*
G03Y155451I-215J451D01*
G01Y164549D02*
G03Y155451I2178J-4549D01*
G01Y164549D02*
G03Y165451I-215J451D01*
G01X89549Y172178D02*
G03X82822Y165451I-4549J-2178D01*
G01X89549Y172178D02*
G03X90451I451J215D01*
G01X97178Y165451D02*
G03X90451Y172178I-2178J4549D01*
G01X178006Y202307D02*
G03X177628Y201734I115J-486D01*
G01X177675Y201200D02*
G03X177628Y201734I-3075J0D01*
G01X177675Y201200D02*
X177675D01*
X173319Y198405D02*
G03X177675Y201200I1281J2795D01*
G01X173319Y198405D02*
G03X173111Y198450I-208J-455D01*
G01X156989*
G03X156781Y198405I-0J-500*
G01X152490Y201830D02*
G03X156781Y198405I3010J-630D01*
G01X152490Y201830D02*
G03X152501Y201932I-489J102D01*
X152169Y202403I-500J0*
G01X154481Y208095D02*
G03X152169Y202403I-1281J-2795D01*
G01X154481Y208095D02*
G03X154689Y208050I208J455D01*
G01X175811*
G03X176019Y208095I0J500*
G01X178006Y202307D02*
G03X176019Y208095I-706J2993D01*
G01X138775Y225600D02*
G03X138775I-3075J0D01*
G01X190424Y250999D02*
X203500D01*
X190460Y250099D02*
X203500D01*
X198902Y249199D02*
X203500D01*
X199470Y248299D02*
X203500D01*
X199500Y247399D02*
X203500D01*
X199500Y246499D02*
X203500D01*
X199500Y245599D02*
X203500D01*
X199500Y244699D02*
X203500D01*
X199500Y243799D02*
X203500D01*
X199500Y242899D02*
X203500D01*
X199500Y241999D02*
X203500D01*
X199199Y241099D02*
X203500D01*
X190150Y240199D02*
X203500D01*
X196331Y239299D02*
X203500D01*
X197949Y238399D02*
X203500D01*
X198743Y237499D02*
X203500D01*
X199206Y236599D02*
X203500D01*
X199445Y235699D02*
X203500D01*
X199496Y234799D02*
X203500D01*
X199363Y233899D02*
X203500D01*
X199031Y232999D02*
X203500D01*
X198440Y232099D02*
X203500D01*
X197408Y231199D02*
X203500D01*
X190150Y230299D02*
X203500D01*
X195950Y229399D02*
X203500D01*
X197830Y228499D02*
X203500D01*
X198674Y227599D02*
X203500D01*
X199167Y226699D02*
X203500D01*
X199429Y225799D02*
X203500D01*
X199499Y224899D02*
X203500D01*
X199387Y223999D02*
X203500D01*
X199079Y223099D02*
X203500D01*
X198522Y222199D02*
X203500D01*
X197559Y221299D02*
X203500D01*
X190150Y220399D02*
X203500D01*
X190150Y219499D02*
X203500D01*
X190150Y218599D02*
X203500D01*
X190150Y217699D02*
X203500D01*
X190150Y216799D02*
X203500D01*
X190150Y215899D02*
X203500D01*
X190150Y214999D02*
X203500D01*
X190150Y214099D02*
X203500D01*
X190150Y213199D02*
X203500D01*
X190150Y212299D02*
X203500D01*
X190150Y211399D02*
X203500D01*
X190150Y210499D02*
X203500D01*
X190150Y209599D02*
X203500D01*
X190575Y208699D02*
X203500D01*
X191475Y207799D02*
X203500D01*
X192375Y206899D02*
X203500D01*
X193156Y205999D02*
X203500D01*
X193496Y205099D02*
X203500D01*
X193543Y204199D02*
X203500D01*
X193543Y203299D02*
X203500D01*
X193543Y202399D02*
X203500D01*
X193543Y201499D02*
X203500D01*
X193543Y200599D02*
X203500D01*
X193543Y199699D02*
X203500D01*
X193543Y198799D02*
X203500D01*
X193543Y197899D02*
X203500D01*
X193543Y196999D02*
X203500D01*
X193543Y196099D02*
X203500D01*
X193543Y195199D02*
X203500D01*
X193543Y194299D02*
X203500D01*
X193543Y193399D02*
X203500D01*
X193543Y192499D02*
X203500D01*
X193543Y191599D02*
X203500D01*
X193543Y190699D02*
X203500D01*
X193543Y189799D02*
X203500D01*
X193543Y188899D02*
X203500D01*
X193543Y187999D02*
X203500D01*
X193543Y187099D02*
X203500D01*
X193543Y186199D02*
X203500D01*
X193543Y185299D02*
X203500D01*
X193543Y184399D02*
X203500D01*
X193543Y183499D02*
X203500D01*
X193543Y182599D02*
X203500D01*
X193543Y181699D02*
X203500D01*
X193543Y180799D02*
X203500D01*
X193543Y179899D02*
X203500D01*
X193543Y178999D02*
X203500D01*
X193543Y178099D02*
X203500D01*
X193543Y177199D02*
X203500D01*
X193543Y176299D02*
X203500D01*
X193543Y175399D02*
X203500D01*
X193543Y174499D02*
X203500D01*
X193543Y173599D02*
X203500D01*
X193543Y172699D02*
X203500D01*
X193543Y171799D02*
X203500D01*
X193543Y170899D02*
X203500D01*
X193543Y169999D02*
X203500D01*
X193543Y169099D02*
X203500D01*
X193543Y168199D02*
X203500D01*
X193543Y167299D02*
X203500D01*
X193543Y166399D02*
X203500D01*
X193543Y165499D02*
X203500D01*
X193543Y164599D02*
X203500D01*
X193543Y163699D02*
X203500D01*
X193543Y162799D02*
X203500D01*
X193543Y161899D02*
X203500D01*
X193543Y160999D02*
X203500D01*
X193454Y160099D02*
X203500D01*
X193034Y159199D02*
X203500D01*
X192188Y158299D02*
X203500D01*
X191288Y157399D02*
X203500D01*
X190388Y156499D02*
X203500D01*
X190008Y155599D02*
X203500D01*
X190034Y154699D02*
X203500D01*
X189898Y153799D02*
X203500D01*
X189585Y152899D02*
X203500D01*
X189053Y151999D02*
X203500D01*
X188196Y151099D02*
X203500D01*
X186935Y150199D02*
X203500D01*
X187637Y149299D02*
X203500D01*
X188726Y148399D02*
X203500D01*
X189381Y147499D02*
X203500D01*
X189783Y146599D02*
X203500D01*
X189995Y145699D02*
X203500D01*
X190039Y144799D02*
X203500D01*
X190026Y143899D02*
X203500D01*
X190890Y142999D02*
X203500D01*
X191790Y142099D02*
X203500D01*
X192690Y141199D02*
X203500D01*
X193317Y140299D02*
X203500D01*
X193537Y139399D02*
X203500D01*
X193543Y138499D02*
X203500D01*
X193543Y137599D02*
X203500D01*
X193543Y136699D02*
X203500D01*
X193543Y135799D02*
X203500D01*
X193543Y134899D02*
X203500D01*
X193543Y133999D02*
X203500D01*
X193543Y133099D02*
X203500D01*
X193543Y132199D02*
X203500D01*
X193543Y131299D02*
X203500D01*
X193543Y130399D02*
X203500D01*
X193543Y129499D02*
X203500D01*
X193543Y128599D02*
X203500D01*
X193543Y127699D02*
X203500D01*
X193543Y126799D02*
X203500D01*
X193543Y125899D02*
X203500D01*
X193543Y124999D02*
X203500D01*
X193543Y124099D02*
X203500D01*
X193543Y123199D02*
X203500D01*
X193543Y122299D02*
X203500D01*
X193543Y121399D02*
X203500D01*
X193543Y120499D02*
X203500D01*
X193543Y119599D02*
X203500D01*
X193543Y118699D02*
X203500D01*
X193543Y117799D02*
X203500D01*
X193543Y116899D02*
X203500D01*
X193543Y115999D02*
X203500D01*
X193543Y115099D02*
X203500D01*
X193543Y114199D02*
X203500D01*
X193543Y113299D02*
X203500D01*
X193536Y112399D02*
X203500D01*
X193313Y111499D02*
X203500D01*
X192681Y110599D02*
X203500D01*
X191781Y109699D02*
X203500D01*
X190881Y108799D02*
X203500D01*
X189981Y107899D02*
X203500D01*
X189081Y106999D02*
X203500D01*
X188181Y106099D02*
X203500D01*
X187281Y105199D02*
X203500D01*
X186381Y104299D02*
X203500D01*
X185481Y103399D02*
X203500D01*
X184581Y102499D02*
X203500D01*
X183681Y101599D02*
X203500D01*
X182781Y100699D02*
X203500D01*
X181881Y99799D02*
X203500D01*
X180981Y98899D02*
X203500D01*
X180081Y97999D02*
X203500D01*
X179181Y97099D02*
X203500D01*
X178281Y96199D02*
X203500D01*
X177381Y95299D02*
X203500D01*
X176481Y94399D02*
X203500D01*
X175541Y93499D02*
X203500D01*
X66800Y92599D02*
X203500D01*
X66800Y91699D02*
X203500D01*
X66800Y90799D02*
X203500D01*
X66800Y89899D02*
X203500D01*
X66800Y88999D02*
X203500D01*
X66800Y88099D02*
X203500D01*
X66800Y87199D02*
X203500D01*
X66800Y86299D02*
X203500D01*
X66800Y85399D02*
X203500D01*
X198063Y84499D02*
X203500D01*
X199375Y83599D02*
X203500D01*
X199500Y82699D02*
X203500D01*
X199500Y81799D02*
X203500D01*
X199500Y80899D02*
X203500D01*
X199500Y79999D02*
X203500D01*
X199500Y79099D02*
X203500D01*
X199500Y78199D02*
X203500D01*
X199500Y77299D02*
X203500D01*
X199374Y76399D02*
X203500D01*
X66800Y75499D02*
X203500D01*
X66800Y74599D02*
X203500D01*
X197563Y73699D02*
X203500D01*
X198524Y72799D02*
X203500D01*
X199080Y71899D02*
X203500D01*
X199388Y70999D02*
X203500D01*
X199499Y70099D02*
X203500D01*
X199428Y69199D02*
X203500D01*
X199166Y68299D02*
X203500D01*
X198672Y67399D02*
X203500D01*
X197827Y66499D02*
X203500D01*
X195937Y65599D02*
X203500D01*
X66800Y64699D02*
X203500D01*
X197412Y63799D02*
X203500D01*
X198442Y62899D02*
X203500D01*
X199032Y61999D02*
X203500D01*
X199364Y61099D02*
X203500D01*
X199496Y60199D02*
X203500D01*
X199445Y59299D02*
X203500D01*
X199205Y58399D02*
X203500D01*
X198741Y57499D02*
X203500D01*
X197946Y56599D02*
X203500D01*
X196323Y55699D02*
X203500D01*
X66800Y54799D02*
X203500D01*
X66800Y53899D02*
X203500D01*
X66800Y52999D02*
X203500D01*
X66800Y52099D02*
X203500D01*
X66800Y51199D02*
X203500D01*
X66800Y50299D02*
X203500D01*
X66800Y49399D02*
X203500D01*
X66800Y65599D02*
X194063D01*
X190150Y229399D02*
X194050D01*
X66800Y55699D02*
X193677D01*
X190150Y239299D02*
X193669D01*
X190150Y231199D02*
X192592D01*
X66800Y63799D02*
X192588D01*
X190150Y221299D02*
X192441D01*
X66800Y73699D02*
X192437D01*
X66800Y66499D02*
X192173D01*
X190150Y228499D02*
X192170D01*
X66800Y56599D02*
X192054D01*
X190150Y238399D02*
X192051D01*
X66800Y84499D02*
X191937D01*
X190150Y232099D02*
X191560D01*
X66800Y62899D02*
X191558D01*
X190150Y222199D02*
X191478D01*
X66800Y72799D02*
X191476D01*
X66800Y67399D02*
X191328D01*
X190150Y227599D02*
X191326D01*
X66800Y57499D02*
X191259D01*
X190150Y237499D02*
X191257D01*
X190733Y249199D02*
X191066D01*
X66800Y61999D02*
X190968D01*
X66800Y71899D02*
X190920D01*
X190464Y232999D02*
X190836D01*
X66800Y68299D02*
X190834D01*
X66800Y58399D02*
X190795D01*
X66800Y61099D02*
X190636D01*
X66800Y76399D02*
X190626D01*
X102424Y83599D02*
X190625D01*
X66800Y70999D02*
X190612D01*
X66800Y69199D02*
X190572D01*
X66800Y59299D02*
X190555D01*
X66800Y60199D02*
X190504D01*
X66800Y70099D02*
X190501D01*
X103185Y82699D02*
X190500D01*
X103516Y81799D02*
X190500D01*
X103560Y80899D02*
X190500D01*
X103330Y79999D02*
X190500D01*
X102745Y79099D02*
X190500D01*
X101168Y78199D02*
X190500D01*
X66800Y77299D02*
X190500D01*
X66800Y93499D02*
X144643D01*
X66800Y94399D02*
X143703D01*
X66800Y95299D02*
X142803D01*
X134887Y104299D02*
X142334D01*
X66800Y96199D02*
X141911D01*
X133987Y103399D02*
X141809D01*
X66800Y97099D02*
X141383D01*
X133087Y102499D02*
X141342D01*
X128505Y97999D02*
X141225D01*
X132187Y101599D02*
X141225D01*
X131287Y100699D02*
X141225D01*
X130387Y99799D02*
X141225D01*
X129487Y98899D02*
X141225D01*
X135787Y105199D02*
X140449D01*
X136687Y106099D02*
X139213D01*
X137587Y106999D02*
X138466D01*
X121282Y153799D02*
X133398D01*
X121350Y152899D02*
X132419D01*
X121350Y151999D02*
X131519D01*
X121350Y151099D02*
X130619D01*
X121350Y150199D02*
X129719D01*
X125480Y149299D02*
X128819D01*
X127047Y148399D02*
X127928D01*
X120900Y154699D02*
X126548D01*
X120081Y155599D02*
X125432D01*
X119181Y156499D02*
X124623D01*
X121350Y149299D02*
X124120D01*
X118281Y157399D02*
X123813D01*
X117381Y158299D02*
X123003D01*
X121350Y148399D02*
X122553D01*
X116481Y159199D02*
X122193D01*
X115581Y160099D02*
X121576D01*
X66800Y250999D02*
X121572D01*
X115250Y160999D02*
X121357D01*
X66800Y247399D02*
X121350D01*
X66800Y246499D02*
X121350D01*
X66800Y245599D02*
X121350D01*
X66800Y244699D02*
X121350D01*
X66800Y243799D02*
X121350D01*
X66800Y242899D02*
X121350D01*
X66800Y241999D02*
X121350D01*
X66800Y241099D02*
X121350D01*
X66800Y240199D02*
X121350D01*
X66800Y239299D02*
X121350D01*
X66800Y238399D02*
X121350D01*
X66800Y237499D02*
X121350D01*
X66800Y236599D02*
X121350D01*
X66800Y235699D02*
X121350D01*
X66800Y234799D02*
X121350D01*
X66800Y233899D02*
X121350D01*
X66800Y232999D02*
X121350D01*
X66800Y232099D02*
X121350D01*
X66800Y231199D02*
X121350D01*
X66800Y230299D02*
X121350D01*
X66800Y229399D02*
X121350D01*
X66800Y228499D02*
X121350D01*
X66800Y227599D02*
X121350D01*
X66800Y226699D02*
X121350D01*
X66800Y225799D02*
X121350D01*
X66800Y224899D02*
X121350D01*
X66800Y223999D02*
X121350D01*
X66800Y223099D02*
X121350D01*
X66800Y222199D02*
X121350D01*
X66800Y221299D02*
X121350D01*
X66800Y220399D02*
X121350D01*
X66800Y219499D02*
X121350D01*
X66800Y218599D02*
X121350D01*
X66800Y217699D02*
X121350D01*
X66800Y216799D02*
X121350D01*
X66800Y215899D02*
X121350D01*
X66800Y214999D02*
X121350D01*
X66800Y214099D02*
X121350D01*
X66800Y213199D02*
X121350D01*
X66800Y212299D02*
X121350D01*
X66800Y211399D02*
X121350D01*
X66800Y210499D02*
X121350D01*
X66800Y209599D02*
X121350D01*
X66800Y208699D02*
X121350D01*
X66800Y207799D02*
X121350D01*
X66800Y206899D02*
X121350D01*
X66800Y205999D02*
X121350D01*
X66800Y205099D02*
X121350D01*
X66800Y204199D02*
X121350D01*
X66800Y203299D02*
X121350D01*
X66800Y202399D02*
X121350D01*
X66800Y201499D02*
X121350D01*
X66800Y200599D02*
X121350D01*
X66800Y199699D02*
X121350D01*
X66800Y198799D02*
X121350D01*
X66800Y197899D02*
X121350D01*
X77747Y196999D02*
X121350D01*
X79395Y196099D02*
X121350D01*
X114292Y195199D02*
X121350D01*
X115127Y194299D02*
X121350D01*
X115494Y193399D02*
X121350D01*
X115568Y192499D02*
X121350D01*
X115371Y191599D02*
X121350D01*
X115250Y190699D02*
X121350D01*
X115250Y189799D02*
X121350D01*
X115250Y188899D02*
X121350D01*
X115250Y187999D02*
X121350D01*
X115250Y187099D02*
X121350D01*
X115250Y186199D02*
X121350D01*
X115250Y185299D02*
X121350D01*
X115250Y184399D02*
X121350D01*
X115250Y183499D02*
X121350D01*
X115250Y182599D02*
X121350D01*
X115250Y181699D02*
X121350D01*
X115250Y180799D02*
X121350D01*
X115250Y179899D02*
X121350D01*
X115250Y178999D02*
X121350D01*
X115250Y178099D02*
X121350D01*
X115250Y177199D02*
X121350D01*
X115250Y176299D02*
X121350D01*
X115250Y175399D02*
X121350D01*
X115250Y174499D02*
X121350D01*
X115250Y173599D02*
X121350D01*
X115250Y172699D02*
X121350D01*
X115250Y171799D02*
X121350D01*
X115250Y170899D02*
X121350D01*
X115250Y169999D02*
X121350D01*
X115250Y169099D02*
X121350D01*
X115250Y168199D02*
X121350D01*
X115250Y167299D02*
X121350D01*
X115250Y166399D02*
X121350D01*
X115250Y165499D02*
X121350D01*
X115250Y164599D02*
X121350D01*
X115250Y163699D02*
X121350D01*
X115250Y162799D02*
X121350D01*
X115250Y161899D02*
X121350D01*
X66800Y250099D02*
X121192D01*
X66800Y248299D02*
X121131D01*
X66800Y249199D02*
X121027D01*
X66800Y97999D02*
X117495D01*
X66800Y98899D02*
X116513D01*
X66800Y99799D02*
X115613D01*
X66800Y100699D02*
X114713D01*
X66800Y101599D02*
X113813D01*
X77238Y102499D02*
X112913D01*
X79103Y103399D02*
X112013D01*
X80218Y104299D02*
X111113D01*
X80425Y195199D02*
X110708D01*
X81007Y105199D02*
X110213D01*
X81157Y194299D02*
X109873D01*
X98630Y156499D02*
X109763D01*
X82454Y190699D02*
X109750D01*
X82477Y189799D02*
X109750D01*
X82391Y188899D02*
X109750D01*
X82192Y187999D02*
X109750D01*
X81869Y187099D02*
X109750D01*
X81405Y186199D02*
X109750D01*
X80766Y185299D02*
X109750D01*
X79881Y184399D02*
X109750D01*
X78572Y183499D02*
X109750D01*
X66800Y182599D02*
X109750D01*
X66800Y181699D02*
X109750D01*
X66800Y180799D02*
X109750D01*
X66800Y179899D02*
X109750D01*
X66800Y178999D02*
X109750D01*
X66800Y178099D02*
X109750D01*
X66800Y177199D02*
X109750D01*
X66800Y176299D02*
X109750D01*
X66800Y175399D02*
X109750D01*
X97280Y174499D02*
X109750D01*
X98533Y173599D02*
X109750D01*
X99261Y172699D02*
X109750D01*
X99712Y171799D02*
X109750D01*
X99963Y170899D02*
X109750D01*
X100043Y169999D02*
X109750D01*
X99962Y169099D02*
X109750D01*
X99711Y168199D02*
X109750D01*
X99259Y167299D02*
X109750D01*
X98531Y166399D02*
X109750D01*
X97275Y165499D02*
X109750D01*
X97095Y164599D02*
X109750D01*
X98429Y163699D02*
X109750D01*
X99196Y162799D02*
X109750D01*
X99672Y161899D02*
X109750D01*
X99943Y160999D02*
X109750D01*
X100042Y160099D02*
X109750D01*
X99979Y159199D02*
X109712D01*
X82320Y191599D02*
X109629D01*
X97462Y155599D02*
X109614D01*
X81690Y193399D02*
X109506D01*
X99321Y157399D02*
X109466D01*
X99748Y158299D02*
X109451D01*
X82070Y192499D02*
X109432D01*
X81585Y106099D02*
X109313D01*
X82005Y106999D02*
X108413D01*
X96994Y154699D02*
X108080D01*
X82293Y107899D02*
X107513D01*
X98317Y153799D02*
X106824D01*
X82465Y108799D02*
X106613D01*
X99127Y152899D02*
X105924D01*
X82527Y109699D02*
X105713D01*
X99630Y151999D02*
X105025D01*
X82484Y110599D02*
X104813D01*
X99922Y151099D02*
X104231D01*
X82332Y111499D02*
X104114D01*
X100039Y150199D02*
X103878D01*
X82065Y112399D02*
X103845D01*
X99994Y149299D02*
X103825D01*
X99782Y148399D02*
X103825D01*
X99379Y147499D02*
X103825D01*
X98724Y146599D02*
X103825D01*
X97633Y145699D02*
X103825D01*
X96936Y144799D02*
X103825D01*
X98199Y143899D02*
X103825D01*
X99055Y142999D02*
X103825D01*
X99586Y142099D02*
X103825D01*
X99899Y141199D02*
X103825D01*
X100034Y140299D02*
X103825D01*
X100007Y139399D02*
X103825D01*
X99815Y138499D02*
X103825D01*
X99435Y137599D02*
X103825D01*
X98813Y136699D02*
X103825D01*
X97867Y135799D02*
X103825D01*
X99186Y134899D02*
X103825D01*
X99973Y133999D02*
X103825D01*
X100043Y133099D02*
X103825D01*
X100043Y132199D02*
X103825D01*
X100043Y131299D02*
X103825D01*
X100043Y130399D02*
X103825D01*
X100043Y129499D02*
X103825D01*
X100043Y128599D02*
X103825D01*
X100043Y127699D02*
X103825D01*
X100043Y126799D02*
X103825D01*
X99936Y125899D02*
X103825D01*
X98896Y124999D02*
X103825D01*
X66800Y124099D02*
X103825D01*
X66800Y123199D02*
X103825D01*
X66800Y122299D02*
X103825D01*
X66800Y121399D02*
X103825D01*
X66800Y120499D02*
X103825D01*
X66800Y119599D02*
X103825D01*
X66800Y118699D02*
X103825D01*
X66800Y117799D02*
X103825D01*
X77680Y116899D02*
X103825D01*
X79333Y115999D02*
X103825D01*
X80376Y115099D02*
X103825D01*
X81122Y114199D02*
X103825D01*
X81670Y113299D02*
X103825D01*
X66800Y78199D02*
X99832D01*
X66800Y83599D02*
X98576D01*
X66800Y79099D02*
X98255D01*
X66800Y82699D02*
X97815D01*
X66800Y79999D02*
X97670D01*
X66800Y81799D02*
X97484D01*
X66800Y80899D02*
X97440D01*
X87280Y174499D02*
X92720D01*
X88533Y173599D02*
X91467D01*
X85650Y124999D02*
X91104D01*
X89261Y172699D02*
X90739D01*
X87935Y125899D02*
X90064D01*
X88897Y126799D02*
X89948D01*
X66800Y124999D02*
X84350D01*
X66800Y134899D02*
X83096D01*
X66800Y144799D02*
X83064D01*
X66800Y154699D02*
X83006D01*
X66800Y164599D02*
X82905D01*
X66800Y165499D02*
X82725D01*
X66800Y174499D02*
X82720D01*
X66800Y155599D02*
X82538D01*
X66800Y145699D02*
X82367D01*
X66800Y135799D02*
X82210D01*
X66800Y125899D02*
X82065D01*
X66800Y133999D02*
X81927D01*
X66800Y143899D02*
X81801D01*
X66800Y153799D02*
X81683D01*
X66800Y163699D02*
X81571D01*
X66800Y166399D02*
X81469D01*
X66800Y173599D02*
X81467D01*
X66800Y156499D02*
X81370D01*
X66800Y146599D02*
X81276D01*
X66800Y136699D02*
X81187D01*
X66800Y126799D02*
X81103D01*
X66800Y133099D02*
X81021D01*
X66800Y142999D02*
X80945D01*
X66800Y152899D02*
X80873D01*
X66800Y162799D02*
X80804D01*
X66800Y167299D02*
X80741D01*
X66800Y172699D02*
X80739D01*
X66800Y157399D02*
X80679D01*
X66800Y147499D02*
X80621D01*
X66800Y137599D02*
X80565D01*
X66800Y127699D02*
X80512D01*
X66800Y132199D02*
X80461D01*
X66800Y142099D02*
X80414D01*
X66800Y151999D02*
X80370D01*
X66800Y161899D02*
X80328D01*
X66800Y168199D02*
X80289D01*
X66800Y171799D02*
X80288D01*
X66800Y158299D02*
X80252D01*
X66800Y148399D02*
X80218D01*
X66800Y138499D02*
X80185D01*
X66800Y128599D02*
X80155D01*
X66800Y131299D02*
X80127D01*
X66800Y141199D02*
X80101D01*
X66800Y151099D02*
X80078D01*
X66800Y160999D02*
X80057D01*
X66800Y169099D02*
X80038D01*
X66800Y170899D02*
X80037D01*
X66800Y159199D02*
X80021D01*
X66800Y149299D02*
X80006D01*
X66800Y139399D02*
X79993D01*
X66800Y129499D02*
X79982D01*
X66800Y130399D02*
X79972D01*
X66800Y140299D02*
X79966D01*
X66800Y150199D02*
X79961D01*
X66800Y160099D02*
X79958D01*
X66800Y169999D02*
X79957D01*
X66800Y102499D02*
X72510D01*
X66800Y196999D02*
X72303D01*
X66800Y116899D02*
X72068D01*
X66800Y183499D02*
X71478D01*
X66800Y196099D02*
X70655D01*
X66800Y103399D02*
X70645D01*
X66800Y115999D02*
X70415D01*
X66800Y184399D02*
X70169D01*
X66800Y195199D02*
X69625D01*
X66800Y104299D02*
X69530D01*
X66800Y115099D02*
X69372D01*
X66800Y185299D02*
X69284D01*
X66800Y194299D02*
X68893D01*
X66800Y105199D02*
X68741D01*
X66800Y186199D02*
X68645D01*
X66800Y114199D02*
X68626D01*
X66800Y193399D02*
X68360D01*
X66800Y187099D02*
X68181D01*
X66800Y106099D02*
X68163D01*
X66800Y113299D02*
X68078D01*
X66800Y192499D02*
X67980D01*
X66800Y187999D02*
X67858D01*
X66861Y106999D02*
X67739D01*
X66956Y191599D02*
X67644D01*
X66998Y112399D02*
X67602D01*
X178318Y202399D02*
X188043D01*
X177660Y201499D02*
X188043D01*
X177615Y200599D02*
X188043D01*
X177283Y199699D02*
X188043D01*
X176521Y198799D02*
X188043D01*
X136350Y197899D02*
X188043D01*
X136350Y196999D02*
X188043D01*
X136350Y196099D02*
X188043D01*
X154642Y195199D02*
X188043D01*
X155338Y194299D02*
X188043D01*
X155634Y193399D02*
X188043D01*
X155649Y192499D02*
X188043D01*
X155387Y191599D02*
X188043D01*
X155350Y190699D02*
X188043D01*
X179634Y203299D02*
X188040D01*
X186552Y189799D02*
X188027D01*
X180171Y204199D02*
X187296D01*
X180368Y205099D02*
X186396D01*
X180294Y205999D02*
X185496D01*
X179927Y206899D02*
X184873D01*
X179092Y207799D02*
X184656D01*
X127069Y248299D02*
X184650D01*
X126850Y247399D02*
X184650D01*
X126850Y246499D02*
X184650D01*
X126850Y245599D02*
X184650D01*
X126850Y244699D02*
X184650D01*
X126850Y243799D02*
X184650D01*
X126850Y242899D02*
X184650D01*
X126850Y241999D02*
X184650D01*
X126850Y241099D02*
X184650D01*
X126850Y240199D02*
X184650D01*
X126850Y239299D02*
X184650D01*
X126850Y238399D02*
X184650D01*
X126850Y237499D02*
X184650D01*
X126850Y236599D02*
X184650D01*
X126850Y235699D02*
X184650D01*
X126850Y234799D02*
X184650D01*
X126850Y233899D02*
X184650D01*
X126850Y232999D02*
X184650D01*
X126850Y232099D02*
X184650D01*
X126850Y231199D02*
X184650D01*
X126850Y230299D02*
X184650D01*
X126850Y229399D02*
X184650D01*
X136726Y228499D02*
X184650D01*
X138037Y227599D02*
X184650D01*
X138572Y226699D02*
X184650D01*
X138768Y225799D02*
X184650D01*
X138694Y224899D02*
X184650D01*
X138325Y223999D02*
X184650D01*
X137488Y223099D02*
X184650D01*
X126850Y222199D02*
X184650D01*
X126850Y221299D02*
X184650D01*
X126850Y220399D02*
X184650D01*
X126850Y219499D02*
X184650D01*
X126850Y218599D02*
X184650D01*
X126850Y217699D02*
X184650D01*
X126850Y216799D02*
X184650D01*
X126850Y215899D02*
X184650D01*
X126850Y214999D02*
X184650D01*
X126850Y214099D02*
X184650D01*
X126850Y213199D02*
X184650D01*
X126850Y212299D02*
X184650D01*
X126850Y211399D02*
X184650D01*
X126850Y210499D02*
X184650D01*
X126850Y209599D02*
X184650D01*
X126850Y208699D02*
X184650D01*
X127173Y249199D02*
X184570D01*
X126628Y250999D02*
X184376D01*
X127008Y250099D02*
X184340D01*
X176552Y189799D02*
X183448D01*
X178199Y188899D02*
X181801D01*
X179055Y187999D02*
X180945D01*
X179596Y187099D02*
X180404D01*
X155350Y189799D02*
X173448D01*
X157275Y179899D02*
X173096D01*
X157275Y180799D02*
X172210D01*
X157275Y178999D02*
X171927D01*
X155350Y188899D02*
X171801D01*
X157185Y181699D02*
X171187D01*
X157275Y178099D02*
X171021D01*
X155350Y187999D02*
X170945D01*
X156765Y182599D02*
X170565D01*
X157275Y177199D02*
X170461D01*
X155350Y187099D02*
X170414D01*
X155919Y183499D02*
X170185D01*
X157275Y176299D02*
X170127D01*
X155350Y186199D02*
X170101D01*
X155350Y184399D02*
X169993D01*
X157275Y174499D02*
X169982D01*
X157275Y175399D02*
X169972D01*
X155350Y185299D02*
X169966D01*
X157275Y173599D02*
X169710D01*
X157275Y172699D02*
X168810D01*
X164073Y171799D02*
X167910D01*
X165219Y170899D02*
X167010D01*
X157275Y171799D02*
X161527D01*
X157275Y170899D02*
X160381D01*
X157275Y167299D02*
X160050D01*
X157275Y166399D02*
X160050D01*
X157275Y165499D02*
X160050D01*
X157275Y164599D02*
X160050D01*
X157275Y163699D02*
X160050D01*
X157275Y162799D02*
X160050D01*
X157275Y169999D02*
X159892D01*
X157275Y168199D02*
X159831D01*
X157275Y169099D02*
X159727D01*
X157275Y161899D02*
X159499D01*
X157272Y160999D02*
X159054D01*
X157080Y160099D02*
X158950D01*
X156497Y159199D02*
X158950D01*
X155597Y158299D02*
X158950D01*
X154697Y157399D02*
X158950D01*
X154212Y156499D02*
X158950D01*
X155049Y155599D02*
X158950D01*
X155949Y154699D02*
X158950D01*
X156849Y153799D02*
X158868D01*
X157749Y152899D02*
X158585D01*
X154468Y144799D02*
X157075D01*
X154271Y143899D02*
X157075D01*
X154150Y142999D02*
X157075D01*
X154150Y142099D02*
X157075D01*
X154150Y141199D02*
X157075D01*
X154150Y140299D02*
X157075D01*
X154150Y139399D02*
X157075D01*
X154150Y138499D02*
X157075D01*
X154150Y137599D02*
X157075D01*
X154150Y136699D02*
X157075D01*
X154150Y135799D02*
X157075D01*
X154150Y134899D02*
X157075D01*
X154150Y133999D02*
X157075D01*
X154394Y145699D02*
X157062D01*
X154150Y133099D02*
X157058D01*
X154027Y146599D02*
X156271D01*
X153192Y147499D02*
X155371D01*
X137489Y148399D02*
X154471D01*
X136350Y198799D02*
X153579D01*
X137871Y149299D02*
X153571D01*
X136350Y199699D02*
X152817D01*
X138068Y150199D02*
X152671D01*
X136569Y200599D02*
X152485D01*
X136673Y201499D02*
X152440D01*
X136508Y202399D02*
X152181D01*
X137994Y151099D02*
X151771D01*
X126850Y207799D02*
X151408D01*
X136019Y203299D02*
X150866D01*
X126850Y206899D02*
X150573D01*
X148792Y195199D02*
X150558D01*
X134873Y204199D02*
X150329D01*
X126850Y205999D02*
X150206D01*
X126850Y205099D02*
X150132D01*
X137987Y147499D02*
X149608D01*
X138249Y146599D02*
X148773D01*
X138234Y145699D02*
X148344D01*
X135350Y171799D02*
X147950D01*
X135463Y170899D02*
X147950D01*
X138542Y169999D02*
X147950D01*
X139238Y169099D02*
X147950D01*
X139534Y168199D02*
X147950D01*
X139549Y167299D02*
X147950D01*
X139286Y166399D02*
X147950D01*
X138647Y165499D02*
X147950D01*
X135946Y164599D02*
X147950D01*
X135350Y172699D02*
X147839D01*
X135650Y163699D02*
X147792D01*
X135350Y173599D02*
X146943D01*
X137627Y151999D02*
X146608D01*
X136085Y162799D02*
X146227D01*
X135350Y174499D02*
X146043D01*
X137958Y144799D02*
X145458D01*
X138060Y157399D02*
X145296D01*
X136792Y152899D02*
X145255D01*
X136350Y195199D02*
X145208D01*
X135350Y175399D02*
X145143D01*
X136416Y161899D02*
X145081D01*
X138015Y156499D02*
X144815D01*
X137832Y158299D02*
X144796D01*
X137950Y143899D02*
X144762D01*
X137950Y140299D02*
X144750D01*
X137950Y139399D02*
X144750D01*
X137950Y138499D02*
X144750D01*
X137950Y137599D02*
X144750D01*
X137950Y136699D02*
X144750D01*
X137950Y135799D02*
X144750D01*
X137950Y134899D02*
X144750D01*
X137950Y133999D02*
X144750D01*
X137950Y133099D02*
X144750D01*
X137950Y132199D02*
X144750D01*
X137950Y131299D02*
X144750D01*
X137950Y130399D02*
X144750D01*
X137950Y129499D02*
X144744D01*
X137950Y141199D02*
X144713D01*
X135750Y153799D02*
X144670D01*
X136460Y160999D02*
X144592D01*
X137247Y159199D02*
X144531D01*
X135350Y176299D02*
X144494D01*
X137683Y155599D02*
X144484D01*
X137950Y142999D02*
X144466D01*
X137950Y142099D02*
X144451D01*
X136921Y154699D02*
X144440D01*
X136306Y160099D02*
X144427D01*
X136350Y194299D02*
X144373D01*
X135350Y177199D02*
X144260D01*
X136350Y190699D02*
X144250D01*
X136350Y189799D02*
X144250D01*
X136350Y188899D02*
X144250D01*
X138526Y187999D02*
X144250D01*
X139837Y187099D02*
X144250D01*
X140372Y186199D02*
X144250D01*
X140568Y185299D02*
X144250D01*
X140494Y184399D02*
X144250D01*
X140125Y183499D02*
X144250D01*
X139288Y182599D02*
X144250D01*
X135350Y181699D02*
X144250D01*
X135350Y180799D02*
X144250D01*
X135350Y179899D02*
X144250D01*
X135350Y178999D02*
X144250D01*
X135350Y178099D02*
X144250D01*
X136350Y191599D02*
X144129D01*
X136350Y193399D02*
X144006D01*
X137950Y128599D02*
X143979D01*
X136350Y192499D02*
X143932D01*
X137950Y127699D02*
X143079D01*
X137950Y126799D02*
X142179D01*
X137950Y125899D02*
X141279D01*
X137950Y124999D02*
X140379D01*
X137950Y124099D02*
X139479D01*
X126850Y228499D02*
X134674D01*
X126850Y223099D02*
X133912D01*
X126850Y227599D02*
X133363D01*
X126850Y223999D02*
X133075D01*
X126850Y226699D02*
X132828D01*
X126850Y224899D02*
X132706D01*
X126850Y225799D02*
X132632D01*
X126850Y204199D02*
X132327D01*
X126850Y203299D02*
X131181D01*
X126850Y199699D02*
X130850D01*
X126850Y198799D02*
X130850D01*
X126850Y197899D02*
X130850D01*
X126850Y196999D02*
X130850D01*
X126850Y196099D02*
X130850D01*
X126850Y195199D02*
X130850D01*
X126850Y194299D02*
X130850D01*
X126850Y193399D02*
X130850D01*
X126850Y192499D02*
X130850D01*
X126850Y191599D02*
X130850D01*
X126850Y190699D02*
X130850D01*
X126850Y189799D02*
X130850D01*
X126850Y188899D02*
X130804D01*
X126850Y202399D02*
X130692D01*
X126850Y200599D02*
X130631D01*
X126850Y201499D02*
X130527D01*
X126850Y187999D02*
X130144D01*
X126850Y187099D02*
X129871D01*
X126850Y186199D02*
X129850D01*
X126850Y185299D02*
X129850D01*
X126850Y184399D02*
X129850D01*
X126850Y183499D02*
X129850D01*
X126850Y182599D02*
X129850D01*
X126850Y181699D02*
X129850D01*
X126850Y180799D02*
X129850D01*
X126850Y179899D02*
X129850D01*
X126850Y178999D02*
X129850D01*
X126850Y178099D02*
X129850D01*
X126850Y177199D02*
X129850D01*
X126850Y176299D02*
X129850D01*
X126850Y175399D02*
X129850D01*
X126850Y174499D02*
X129850D01*
X126850Y173599D02*
X129850D01*
X126850Y172699D02*
X129850D01*
X126850Y171799D02*
X129801D01*
X65300Y47000D02*
X205000D01*
Y253000*
X65300*
Y47000*
X80981Y190057D02*
G03X80981I-5956J0D01*
G01X81028Y109778D02*
G03X81028I-6154J0D01*
G54D34*
G01X100500Y81200D03*
X166600Y106100D03*
X147800Y99600D03*
X110400Y121500D03*
X133400Y161300D03*
X135000Y157100D03*
X125900Y116600D03*
X135000Y150400D03*
X129400Y113100D03*
X135200Y146200D03*
X122000Y121300D03*
X124800Y146300D03*
X114700Y128100D03*
X111400Y148600D03*
X112500Y153700D03*
X128700Y168500D03*
Y162000D03*
X136500Y167700D03*
X137500Y185100D03*
X117300Y117500D03*
X112500Y157900D03*
X147500Y142500D03*
Y160000D03*
Y155000D03*
X159900Y116600D03*
X169400Y110000D03*
X169100Y149000D03*
X151400Y145000D03*
X161700Y152600D03*
X162800Y169000D03*
X156000Y129700D03*
X165200Y110300D03*
X150700Y162700D03*
X133600Y201400D03*
X124100Y249100D03*
X135700Y225600D03*
X112500Y192700D03*
X155500Y201200D03*
X174600D03*
X153200Y205300D03*
X177300D03*
X152600Y192900D03*
X187400Y250400D03*
X147000Y192700D03*
G54D35*
X95000Y130000D03*
G54D36*
Y140000D03*
Y150000D03*
Y160000D03*
Y170000D03*
X85000D03*
Y160000D03*
Y150000D03*
Y140000D03*
Y130000D03*
X175000Y185000D03*
Y175000D03*
Y165000D03*
Y155000D03*
Y145000D03*
Y135000D03*
Y125000D03*
Y115000D03*
X185000Y185000D03*
Y175000D03*
Y165000D03*
Y155000D03*
Y145000D03*
Y135000D03*
Y125000D03*
Y115000D03*
G54D52*
X138674Y169874D02*
X137614Y168814D01*
X138674Y165526D02*
X137614Y166586D01*
X137874Y227774D02*
X136814Y226714D01*
X133526Y227774D02*
X134586Y226714D01*
X133526Y223426D02*
X134586Y224486D01*
X137874Y223426D02*
X136814Y224486D01*
X139674Y187274D02*
X138614Y186214D01*
X139674Y182926D02*
X138614Y183986D01*
X102674Y83374D02*
X101614Y82314D01*
X98326Y83374D02*
X99386Y82314D01*
X98326Y79026D02*
X99386Y80086D01*
X102674Y79026D02*
X101614Y80086D01*
G54D89*
X126999Y100300D02*
X136800Y110101D01*
X136800D02*
Y112562D01*
X151400Y127162*
Y145000*
X126999Y100300D02*
X119001D01*
X119001D02*
X106575Y112725D01*
Y149660*
X108915Y152000*
X112324Y154000*
X125550Y103800D02*
X133300Y111550D01*
Y114031*
X147500Y128231*
Y142500*
X125550Y103800D02*
X120450D01*
X110400Y113850*
Y121500*
X100500Y81200D02*
Y101866D01*
X95000Y107366*
Y130000*
X173893Y95700D02*
X190793Y112600D01*
Y139207*
X185000Y145000*
X173893Y95700D02*
X146291D01*
X143975Y98016*
Y101705*
X152600Y110330*
Y117800*
X159825Y125025*
Y146934*
X152159Y154600*
X147500*
Y155000*
X166600Y106100D02*
X162775D01*
X159900Y108975*
Y116600*
X147800Y99600D02*
X169600D01*
X185000Y115000*
X195000Y60000D02*
Y70000D01*
Y80000*
X133400Y161300D02*
X132900D01*
Y165500*
X132600Y165800*
Y186762*
X133600Y187762*
Y201400*
X135000Y157100D02*
X127691Y157200D01*
X124100Y161191*
Y249100*
X125900Y116600D02*
X130000Y120700D01*
Y146591*
X134405Y150995*
X135000Y150400*
X129400Y113100D02*
X129800Y113500D01*
Y115500*
X135200Y120900*
Y146200*
X122000Y121300D02*
X122200D01*
Y132500*
X124800Y135100*
Y146300*
X114700Y128100D02*
Y136700D01*
X111400Y140000*
Y148600*
X112500Y153700D02*
X112324Y154000D01*
X128700Y162000D02*
Y168500D01*
X136500Y167700D02*
Y175900D01*
X137500Y176900*
Y185100*
Y197800*
X117300Y117500D02*
Y123650D01*
X118600Y124950*
Y153191*
X113195Y158595*
X112500Y157900*
Y192700*
X151609Y158200D02*
X151215D01*
X147315Y159400*
X147500Y160000*
X151609Y158200D02*
X154525Y161116D01*
Y181003*
X152600Y182928*
Y192900*
X169400Y110000D02*
X169200D01*
Y129400*
X169100Y129500*
Y149000*
X161700Y152600D02*
Y160250D01*
X162800Y161350*
Y169000*
X156000Y129700D02*
Y145809D01*
X151809Y150000*
X147045*
X141200Y155845*
Y159042*
X136500Y163742*
Y167700*
X165200Y110300D02*
Y150600D01*
X167400Y152800*
Y167400*
X175000Y175000*
X150700Y162700D02*
Y173731D01*
X147000Y177431*
Y192700*
X185000Y155000D02*
X190793Y160793D01*
Y204591*
X187400Y207984*
Y250400*
X185000Y185000D02*
X176000Y194000D01*
X159200*
X155400Y197800*
X137500*
Y211442*
X135700Y213242*
Y225600*
X155500Y205300D02*
X177300D01*
X155500Y201200D02*
X174600D01*
X153200Y205300D02*
X155500D01*
G74*
X0Y0D02*
M02*
