M48
;FILE_FORMAT=2:4
INCH,LZ
FMAT,2
ICI,OFF
;TYPE=PLATED
T1C.01575
T2C.03
T3C.03937
%
M72
G90
G93X0Y0
T1C.01575F095S3
X00217Y0014
X0037Y00265
X00402Y00543
X00215Y00594
X00337Y00602
X00341Y00645
X003796Y006654
X00432Y00859
X00436Y0109
X00212Y01167
X00189Y01303
X00513Y0146
X006365Y01273
X005795Y010685
X00533Y01067
X006884Y010554
X00637Y01055
X00447Y01045
X006629Y01025
X00558Y01011
X00594Y008915
X00598Y00852
X00589Y00803
X00583Y00643
X00512Y00628
X005515Y006186
X0065Y005944
X00531Y005431
X005061Y00407
X00703Y00418
X0084Y00491
X0091Y00492
X00781Y0068
X00855Y00753
X00694Y00787
X007335Y00797
X00769Y008689
X0076Y009084
X00825Y0105
X009145Y01055
X00778Y010625
X00789Y01102
X00736Y01112
X00875Y01182
X00837Y01196
X00694Y01274
X007878Y01279
X01017Y01617
X01051Y01486
X010995Y012285
X00946Y01216
X01163Y01152
X011695Y01049
X00944Y01026
X010727Y009502
X00944Y009482
X01179Y008758
X01076Y008747
X01183Y00817
X011755Y007075
X010535Y007025
X01111Y00693
X011668Y006673
X01005Y00654
X01167Y00625
X00939Y00587
X011Y00558
X009581Y004019
X01182Y003982
X011034Y00387
X010534Y002094
X009467Y001852
X0127Y00179
X01332Y00245
X012807Y00275
X01216Y00348
X013683Y00369
X01339Y00421
X011922Y004557
X012346Y005202
X012867Y005335
X01407Y00548
X013263Y005497
X012495Y005777
X0121Y00598
X013692Y00702
X0141Y00707
X012115Y007274
X01355Y00817
X013814Y008464
X012295Y009321
X01359Y0095
X0119Y009619
X012655Y00981
X012Y010211
X01403Y01026
X01227Y0105
X014339Y01051
X01227Y01154
X01428Y01154
X01396Y011779
X01328Y01194
X013043Y012261
X012952Y012656
X01356Y01445
X013165Y01445
X0129Y01569
X013254Y015894
X01489Y01533
X01528Y014555
X01547Y01398
X016607Y01389
X01528Y01274
X01645Y01222
X01506Y01203
X016336Y01143
X01604Y01079
X01524Y01058
X01526Y00999
X014495Y00702
X01532Y00683
X015612Y006308
X01526Y00605
X014631Y005919
X01565Y00525
X01441Y00443
X01554Y00412
X01822Y00709
X017525Y01226
X01807Y01392
T2C.03F197S55
X017878Y004596
X017878Y005596
X017878Y006596
X017878Y007596
X017878Y008596
X017878Y009596
T3C.03937F197S55
X008Y013437
X009Y013437
X009Y014437
X008Y014437
X011Y014437
X01Y014437
X012Y014437
X011Y013437
X012Y013437
X01Y013437
M30
