*
*
G04 PADS VX.2.4 Build Number: 11282995 generated Gerber (RS-274-X) file*
G04 PC Version=2.1*
*
%IN "WriterTranBo(Empty).pcb"*%
*
%MOIN*%
*
%FSLAX35Y35*%
*
*
*
*
G04 PC Standard Apertures*
*
*
G04 Thermal Relief Aperture macro.*
%AMTER*
1,1,$1,0,0*
1,0,$1-$2,0,0*
21,0,$3,$4,0,0,45*
21,0,$3,$4,0,0,135*
%
*
*
G04 Annular Aperture macro.*
%AMANN*
1,1,$1,0,0*
1,0,$2,0,0*
%
*
*
G04 Odd Aperture macro.*
%AMODD*
1,1,$1,0,0*
1,0,$1-0.005,0,0*
%
*
*
G04 PC Custom Aperture Macros*
*
*
*
*
*
*
G04 PC Aperture Table*
*
%ADD010C,0.001*%
%ADD022C,0.02*%
%ADD023C,0.01*%
*
*
*
*
G04 PC Circuitry*
G04 Layer Name WriterTranBo(Empty).pcb - circuitry*
%LPD*%
*
*
G04 PC Custom Flashes*
G04 Layer Name WriterTranBo(Empty).pcb - flashes*
%LPD*%
*
*
G04 PC Circuitry*
G04 Layer Name WriterTranBo(Empty).pcb - circuitry*
%LPD*%
*
G54D10*
G54D22*
G01X93583Y69126D02*
X332000D01*
Y343874*
X93583*
Y69126*
X110831Y240000D02*
G75*
G03X110831I-5831J0D01*
G01Y160000D02*
G03X110831I-5831J0D01*
G01X328299Y333000D02*
G03X328299I-6299J0D01*
G01Y82000D02*
G03X328299I-6299J0D01*
G54D23*
G01X121000Y180000D02*
X129000D01*
X125000Y176000D02*
Y184000D01*
X121000Y190000D02*
X129000D01*
X125000Y186000D02*
Y194000D01*
X121000Y200000D02*
X129000D01*
X125000Y196000D02*
Y204000D01*
X121000Y210000D02*
X129000D01*
X125000Y206000D02*
Y214000D01*
X121000Y220000D02*
X129000D01*
X125000Y216000D02*
Y224000D01*
X111000Y220000D02*
X119000D01*
X115000Y216000D02*
Y224000D01*
X111000Y210000D02*
X119000D01*
X115000Y206000D02*
Y214000D01*
X111000Y200000D02*
X119000D01*
X115000Y196000D02*
Y204000D01*
X111000Y190000D02*
X119000D01*
X115000Y186000D02*
Y194000D01*
X111000Y180000D02*
X119000D01*
X115000Y176000D02*
Y184000D01*
X232000Y101000D02*
X240000Y109000D01*
X232000D02*
X240000Y101000D01*
X232000Y111000D02*
X240000Y119000D01*
X232000D02*
X240000Y111000D01*
X232000Y121000D02*
X240000Y129000D01*
X232000D02*
X240000Y121000D01*
X232000Y131000D02*
X240000Y139000D01*
X232000D02*
X240000Y131000D01*
X232000Y141000D02*
X240000Y149000D01*
X232000D02*
X240000Y141000D01*
X232000Y151000D02*
X240000Y159000D01*
X232000D02*
X240000Y151000D01*
X232000Y161000D02*
X240000Y169000D01*
X232000D02*
X240000Y161000D01*
X232000Y171000D02*
X240000Y179000D01*
X232000D02*
X240000Y171000D01*
X232000Y181000D02*
X240000Y189000D01*
X232000D02*
X240000Y181000D01*
X232000Y191000D02*
X240000Y199000D01*
X232000D02*
X240000Y191000D01*
X232000Y201000D02*
X240000Y209000D01*
X232000D02*
X240000Y201000D01*
X232000Y211000D02*
X240000Y219000D01*
X232000D02*
X240000Y211000D01*
X232000Y221000D02*
X240000Y229000D01*
X232000D02*
X240000Y221000D01*
X232000Y231000D02*
X240000Y239000D01*
X232000D02*
X240000Y231000D01*
X232000Y241000D02*
X240000Y249000D01*
X232000D02*
X240000Y241000D01*
X232000Y251000D02*
X240000Y259000D01*
X232000D02*
X240000Y251000D01*
X232000Y261000D02*
X240000Y269000D01*
X232000D02*
X240000Y261000D01*
X232000Y271000D02*
X240000Y279000D01*
X232000D02*
X240000Y271000D01*
X232000Y281000D02*
X240000Y289000D01*
X232000D02*
X240000Y281000D01*
X232000Y291000D02*
X240000Y299000D01*
X232000D02*
X240000Y291000D01*
X292000D02*
X300000Y299000D01*
X292000D02*
X300000Y291000D01*
X292000Y281000D02*
X300000Y289000D01*
X292000D02*
X300000Y281000D01*
X292000Y271000D02*
X300000Y279000D01*
X292000D02*
X300000Y271000D01*
X292000Y261000D02*
X300000Y269000D01*
X292000D02*
X300000Y261000D01*
X292000Y251000D02*
X300000Y259000D01*
X292000D02*
X300000Y251000D01*
X292000Y241000D02*
X300000Y249000D01*
X292000D02*
X300000Y241000D01*
X292000Y231000D02*
X300000Y239000D01*
X292000D02*
X300000Y231000D01*
X292000Y221000D02*
X300000Y229000D01*
X292000D02*
X300000Y221000D01*
X292000Y211000D02*
X300000Y219000D01*
X292000D02*
X300000Y211000D01*
X292000Y201000D02*
X300000Y209000D01*
X292000D02*
X300000Y201000D01*
X292000Y191000D02*
X300000Y199000D01*
X292000D02*
X300000Y191000D01*
X292000Y181000D02*
X300000Y189000D01*
X292000D02*
X300000Y181000D01*
X292000Y171000D02*
X300000Y179000D01*
X292000D02*
X300000Y171000D01*
X292000Y161000D02*
X300000Y169000D01*
X292000D02*
X300000Y161000D01*
X292000Y151000D02*
X300000Y159000D01*
X292000D02*
X300000Y151000D01*
X292000Y141000D02*
X300000Y149000D01*
X292000D02*
X300000Y141000D01*
X292000Y131000D02*
X300000Y139000D01*
X292000D02*
X300000Y131000D01*
X292000Y121000D02*
X300000Y129000D01*
X292000D02*
X300000Y121000D01*
X292000Y111000D02*
X300000Y119000D01*
X292000D02*
X300000Y111000D01*
X292000Y101000D02*
X300000Y109000D01*
X292000D02*
X300000Y101000D01*
X106000Y306000D02*
X114000D01*
Y314000*
X106000*
Y306000*
X110000Y310000D02*
Y314000D01*
X136000Y306000D02*
X144000D01*
Y314000*
X136000*
Y306000*
X140000Y310000D02*
Y314000D01*
X116000Y306000D02*
X124000D01*
Y314000*
X116000*
Y306000*
X120000Y310000D02*
Y314000D01*
X126000Y306000D02*
X134000D01*
Y314000*
X126000*
Y306000*
X130000Y310000D02*
Y314000D01*
X120000Y126000D02*
X124000Y130000D01*
X120000Y134000*
X116000Y130000*
X120000Y126000*
Y130000D02*
Y134000D01*
X170000Y81000D02*
X174000Y85000D01*
X170000Y89000*
X166000Y85000*
X170000Y81000*
Y85000D02*
Y89000D01*
X296000Y81000D02*
X300000Y85000D01*
X296000Y89000*
X292000Y85000*
X296000Y81000*
Y85000D02*
Y89000D01*
X170000Y216000D02*
X174000Y220000D01*
X170000Y224000*
X166000Y220000*
X170000Y216000*
Y220000D02*
Y224000D01*
X120000Y266000D02*
X124000Y270000D01*
X120000Y274000*
X116000Y270000*
X120000Y266000*
Y270000D02*
Y274000D01*
X170000Y321000D02*
X174000Y325000D01*
X170000Y329000*
X166000Y325000*
X170000Y321000*
Y325000D02*
Y329000D01*
X296000Y321000D02*
X300000Y325000D01*
X296000Y329000*
X292000Y325000*
X296000Y321000*
Y325000D02*
Y329000D01*
X200000Y320000D02*
X458000D01*
X200000Y296000D02*
X458000D01*
X200000Y272000D02*
X458000D01*
X200000Y248000D02*
X458000D01*
X200000Y224000D02*
X458000D01*
X200000Y200000D02*
X458000D01*
X200000Y320000D02*
Y200000D01*
X284000Y320000D02*
Y200000D01*
X320000Y320000D02*
Y200000D01*
X356000Y320000D02*
Y200000D01*
X410000Y320000D02*
Y200000D01*
X458000Y320000D02*
Y200000D01*
X235500Y308750D02*
X234955Y309500D01*
X234136Y309875*
X233045*
X232227Y309500*
X231682Y308750*
Y308000*
X231955Y307250*
X232227Y306875*
X232773Y306500*
X234409Y305750*
X234955Y305375*
X235227Y305000*
X235500Y304250*
Y303125*
X234955Y302375*
X234136Y302000*
X233045*
X232227Y302375*
X231682Y303125*
X237955Y309875D02*
Y302000D01*
X244227Y309875D02*
X240409Y302000D01*
Y309875D02*
X244227D01*
X240409Y302000D02*
X244227D01*
X246682Y309875D02*
Y302000D01*
Y309875D02*
X250227D01*
X246682Y306125D02*
X248864D01*
X246682Y302000D02*
X250227D01*
X293864Y309875D02*
X293318Y309500D01*
X292773Y308750*
X292500Y308000*
X292227Y306875*
Y305000*
X292500Y303875*
X292773Y303125*
X293318Y302375*
X293864Y302000*
X294955*
X295500Y302375*
X296045Y303125*
X296318Y303875*
X296591Y305000*
Y306875*
X296318Y308000*
X296045Y308750*
X295500Y309500*
X294955Y309875*
X293864*
X294682Y303500D02*
X296318Y301250D01*
X300955Y309875D02*
Y302000D01*
X299045Y309875D02*
X302864D01*
X305318D02*
X307500Y306125D01*
Y302000*
X309682Y309875D02*
X307500Y306125D01*
X332045Y308750D02*
X331500Y309500D01*
X330682Y309875*
X329591*
X328773Y309500*
X328227Y308750*
Y308000*
X328500Y307250*
X328773Y306875*
X329318Y306500*
X330955Y305750*
X331500Y305375*
X331773Y305000*
X332045Y304250*
Y303125*
X331500Y302375*
X330682Y302000*
X329591*
X328773Y302375*
X328227Y303125*
X334500Y309875D02*
X336682Y306125D01*
Y302000*
X338864Y309875D02*
X336682Y306125D01*
X341318Y309875D02*
Y302000D01*
Y309875D02*
X343500Y302000D01*
X345682Y309875D02*
X343500Y302000D01*
X345682Y309875D02*
Y302000D01*
X367500Y309875D02*
Y302000D01*
Y309875D02*
X369955D01*
X370773Y309500*
X371045Y309125*
X371318Y308375*
Y307250*
X371045Y306500*
X370773Y306125*
X369955Y305750*
X367500*
X373773Y309875D02*
Y302000D01*
X377045*
X381682Y309875D02*
X379500Y302000D01*
X381682Y309875D02*
X383864Y302000D01*
X380318Y304625D02*
X383045D01*
X388227Y309875D02*
Y302000D01*
X386318Y309875D02*
X390136D01*
X392591D02*
Y302000D01*
Y309875D02*
X396136D01*
X392591Y306125D02*
X394773D01*
X392591Y302000D02*
X396136D01*
X398591Y309875D02*
Y302000D01*
Y309875D02*
X400500D01*
X401318Y309500*
X401864Y308750*
X402136Y308000*
X402409Y306875*
Y305000*
X402136Y303875*
X401864Y303125*
X401318Y302375*
X400500Y302000*
X398591*
X426682Y309875D02*
Y302000D01*
X424773Y309875D02*
X428591D01*
X432682D02*
X432136Y309500D01*
X431591Y308750*
X431318Y308000*
X431045Y306875*
Y305000*
X431318Y303875*
X431591Y303125*
X432136Y302375*
X432682Y302000*
X433773*
X434318Y302375*
X434864Y303125*
X435136Y303875*
X435409Y305000*
Y306875*
X435136Y308000*
X434864Y308750*
X434318Y309500*
X433773Y309875*
X432682*
X437864D02*
Y302000D01*
X441136*
X206545Y285875D02*
X209545D01*
X207909Y282875*
X208727*
X209273Y282500*
X209545Y282125*
X209818Y281000*
Y280250*
X209545Y279125*
X209000Y278375*
X208182Y278000*
X207364*
X206545Y278375*
X206273Y278750*
X206000Y279500*
X215818Y283250D02*
X215545Y282125D01*
X215000Y281375*
X214182Y281000*
X213909*
X213091Y281375*
X212545Y282125*
X212273Y283250*
Y283625*
X212545Y284750*
X213091Y285500*
X213909Y285875*
X214182*
X215000Y285500*
X215545Y284750*
X215818Y283250*
Y281375*
X215545Y279500*
X215000Y278375*
X214182Y278000*
X213636*
X212818Y278375*
X212545Y279125*
X218545Y278750D02*
X218273Y278375D01*
X218545Y278000*
X218818Y278375*
X218545Y278750*
X221818Y285875D02*
X224818D01*
X223182Y282875*
X224000*
X224545Y282500*
X224818Y282125*
X225091Y281000*
Y280250*
X224818Y279125*
X224273Y278375*
X223455Y278000*
X222636*
X221818Y278375*
X221545Y278750*
X221273Y279500*
X231364Y285875D02*
X228636Y278000D01*
X227545Y285875D02*
X231364D01*
X297136Y284375D02*
X297682Y284750D01*
X298500Y285875*
Y278000*
X302591Y285875D02*
X301773Y285500D01*
X301227Y284375*
X300955Y282500*
Y281375*
X301227Y279500*
X301773Y278375*
X302591Y278000*
X303136*
X303955Y278375*
X304500Y279500*
X304773Y281375*
Y282500*
X304500Y284375*
X303955Y285500*
X303136Y285875*
X302591*
X332000Y284000D02*
X344000D01*
X338000Y278000D02*
Y290000D01*
X364636Y285875D02*
X366818Y282125D01*
Y278000*
X369000Y285875D02*
X366818Y282125D01*
X371455Y285875D02*
Y278000D01*
Y285875D02*
X375000D01*
X371455Y282125D02*
X373636D01*
X371455Y278000D02*
X375000D01*
X381273Y284750D02*
X380727Y285500D01*
X379909Y285875*
X378818*
X378000Y285500*
X377455Y284750*
Y284000*
X377727Y283250*
X378000Y282875*
X378545Y282500*
X380182Y281750*
X380727Y281375*
X381000Y281000*
X381273Y280250*
Y279125*
X380727Y278375*
X379909Y278000*
X378818*
X378000Y278375*
X377455Y279125*
X417818Y284750D02*
Y278000D01*
X415364Y281375D02*
X420273D01*
X427636Y287375D02*
X422727Y275375D01*
X430091Y281375D02*
X435000D01*
X439091Y285875D02*
X438273Y285500D01*
X437727Y284375*
X437455Y282500*
Y281375*
X437727Y279500*
X438273Y278375*
X439091Y278000*
X439636*
X440455Y278375*
X441000Y279500*
X441273Y281375*
Y282500*
X441000Y284375*
X440455Y285500*
X439636Y285875*
X439091*
X444000Y278750D02*
X443727Y278375D01*
X444000Y278000*
X444273Y278375*
X444000Y278750*
X448364Y285875D02*
X447545Y285500D01*
X447000Y284375*
X446727Y282500*
Y281375*
X447000Y279500*
X447545Y278375*
X448364Y278000*
X448909*
X449727Y278375*
X450273Y279500*
X450545Y281375*
Y282500*
X450273Y284375*
X449727Y285500*
X448909Y285875*
X448364*
X206545Y261875D02*
X209545D01*
X207909Y258875*
X208727*
X209273Y258500*
X209545Y258125*
X209818Y257000*
Y256250*
X209545Y255125*
X209000Y254375*
X208182Y254000*
X207364*
X206545Y254375*
X206273Y254750*
X206000Y255500*
X215818Y261875D02*
X213091D01*
X212818Y258500*
X213091Y258875*
X213909Y259250*
X214727*
X215545Y258875*
X216091Y258125*
X216364Y257000*
X216091Y256250*
X215818Y255125*
X215273Y254375*
X214455Y254000*
X213636*
X212818Y254375*
X212545Y254750*
X212273Y255500*
X298500Y261875D02*
X295773Y256625D01*
X299864*
X298500Y261875D02*
Y254000D01*
X303955Y261875D02*
X303136Y261500D01*
X302591Y260375*
X302318Y258500*
Y257375*
X302591Y255500*
X303136Y254375*
X303955Y254000*
X304500*
X305318Y254375*
X305864Y255500*
X306136Y257375*
Y258500*
X305864Y260375*
X305318Y261500*
X304500Y261875*
X303955*
X332000Y254000D02*
X344000Y266000D01*
X332000D02*
X344000Y254000D01*
X364636Y261875D02*
X366818Y258125D01*
Y254000*
X369000Y261875D02*
X366818Y258125D01*
X371455Y261875D02*
Y254000D01*
Y261875D02*
X375000D01*
X371455Y258125D02*
X373636D01*
X371455Y254000D02*
X375000D01*
X381273Y260750D02*
X380727Y261500D01*
X379909Y261875*
X378818*
X378000Y261500*
X377455Y260750*
Y260000*
X377727Y259250*
X378000Y258875*
X378545Y258500*
X380182Y257750*
X380727Y257375*
X381000Y257000*
X381273Y256250*
Y255125*
X380727Y254375*
X379909Y254000*
X378818*
X378000Y254375*
X377455Y255125*
X417818Y260750D02*
Y254000D01*
X415364Y257375D02*
X420273D01*
X427636Y263375D02*
X422727Y251375D01*
X430091Y257375D02*
X435000D01*
X439091Y261875D02*
X438273Y261500D01*
X437727Y260375*
X437455Y258500*
Y257375*
X437727Y255500*
X438273Y254375*
X439091Y254000*
X439636*
X440455Y254375*
X441000Y255500*
X441273Y257375*
Y258500*
X441000Y260375*
X440455Y261500*
X439636Y261875*
X439091*
X444000Y254750D02*
X443727Y254375D01*
X444000Y254000*
X444273Y254375*
X444000Y254750*
X448364Y261875D02*
X447545Y261500D01*
X447000Y260375*
X446727Y258500*
Y257375*
X447000Y255500*
X447545Y254375*
X448364Y254000*
X448909*
X449727Y254375*
X450273Y255500*
X450545Y257375*
Y258500*
X450273Y260375*
X449727Y261500*
X448909Y261875*
X448364*
X206545Y237875D02*
X209545D01*
X207909Y234875*
X208727*
X209273Y234500*
X209545Y234125*
X209818Y233000*
Y232250*
X209545Y231125*
X209000Y230375*
X208182Y230000*
X207364*
X206545Y230375*
X206273Y230750*
X206000Y231500*
X215818Y235250D02*
X215545Y234125D01*
X215000Y233375*
X214182Y233000*
X213909*
X213091Y233375*
X212545Y234125*
X212273Y235250*
Y235625*
X212545Y236750*
X213091Y237500*
X213909Y237875*
X214182*
X215000Y237500*
X215545Y236750*
X215818Y235250*
Y233375*
X215545Y231500*
X215000Y230375*
X214182Y230000*
X213636*
X212818Y230375*
X212545Y231125*
X218545Y230750D02*
X218273Y230375D01*
X218545Y230000*
X218818Y230375*
X218545Y230750*
X221818Y237875D02*
X224818D01*
X223182Y234875*
X224000*
X224545Y234500*
X224818Y234125*
X225091Y233000*
Y232250*
X224818Y231125*
X224273Y230375*
X223455Y230000*
X222636*
X221818Y230375*
X221545Y230750*
X221273Y231500*
X231364Y237875D02*
X228636Y230000D01*
X227545Y237875D02*
X231364D01*
X301636D02*
X298909Y232625D01*
X303000*
X301636Y237875D02*
Y230000D01*
X332000D02*
X344000D01*
Y242000*
X332000*
Y230000*
X338000Y236000D02*
Y242000D01*
X367636Y237875D02*
Y230000D01*
Y237875D02*
X371455Y230000D01*
Y237875D02*
Y230000D01*
X375545Y237875D02*
X375000Y237500D01*
X374455Y236750*
X374182Y236000*
X373909Y234875*
Y233000*
X374182Y231875*
X374455Y231125*
X375000Y230375*
X375545Y230000*
X376636*
X377182Y230375*
X377727Y231125*
X378000Y231875*
X378273Y233000*
Y234875*
X378000Y236000*
X377727Y236750*
X377182Y237500*
X376636Y237875*
X375545*
X417818Y236750D02*
Y230000D01*
X415364Y233375D02*
X420273D01*
X427636Y239375D02*
X422727Y227375D01*
X430091Y233375D02*
X435000D01*
X439091Y237875D02*
X438273Y237500D01*
X437727Y236375*
X437455Y234500*
Y233375*
X437727Y231500*
X438273Y230375*
X439091Y230000*
X439636*
X440455Y230375*
X441000Y231500*
X441273Y233375*
Y234500*
X441000Y236375*
X440455Y237500*
X439636Y237875*
X439091*
X444000Y230750D02*
X443727Y230375D01*
X444000Y230000*
X444273Y230375*
X444000Y230750*
X448364Y237875D02*
X447545Y237500D01*
X447000Y236375*
X446727Y234500*
Y233375*
X447000Y231500*
X447545Y230375*
X448364Y230000*
X448909*
X449727Y230375*
X450273Y231500*
X450545Y233375*
Y234500*
X450273Y236375*
X449727Y237500*
X448909Y237875*
X448364*
X206545Y213875D02*
X209545D01*
X207909Y210875*
X208727*
X209273Y210500*
X209545Y210125*
X209818Y209000*
Y208250*
X209545Y207125*
X209000Y206375*
X208182Y206000*
X207364*
X206545Y206375*
X206273Y206750*
X206000Y207500*
X216091Y213875D02*
X213364Y206000D01*
X212273Y213875D02*
X216091D01*
X302864D02*
X300136Y206000D01*
X299045Y213875D02*
X302864D01*
X338000Y206000D02*
X344000Y212000D01*
X338000Y218000*
X332000Y212000*
X338000Y206000*
Y212000D02*
Y218000D01*
X364636Y213875D02*
X366818Y210125D01*
Y206000*
X369000Y213875D02*
X366818Y210125D01*
X371455Y213875D02*
Y206000D01*
Y213875D02*
X375000D01*
X371455Y210125D02*
X373636D01*
X371455Y206000D02*
X375000D01*
X381273Y212750D02*
X380727Y213500D01*
X379909Y213875*
X378818*
X378000Y213500*
X377455Y212750*
Y212000*
X377727Y211250*
X378000Y210875*
X378545Y210500*
X380182Y209750*
X380727Y209375*
X381000Y209000*
X381273Y208250*
Y207125*
X380727Y206375*
X379909Y206000*
X378818*
X378000Y206375*
X377455Y207125*
X417818Y212750D02*
Y206000D01*
X415364Y209375D02*
X420273D01*
X427636Y215375D02*
X422727Y203375D01*
X430091Y209375D02*
X435000D01*
X439091Y213875D02*
X438273Y213500D01*
X437727Y212375*
X437455Y210500*
Y209375*
X437727Y207500*
X438273Y206375*
X439091Y206000*
X439636*
X440455Y206375*
X441000Y207500*
X441273Y209375*
Y210500*
X441000Y212375*
X440455Y213500*
X439636Y213875*
X439091*
X444000Y206750D02*
X443727Y206375D01*
X444000Y206000*
X444273Y206375*
X444000Y206750*
X448364Y213875D02*
X447545Y213500D01*
X447000Y212375*
X446727Y210500*
Y209375*
X447000Y207500*
X447545Y206375*
X448364Y206000*
X448909*
X449727Y206375*
X450273Y207500*
X450545Y209375*
Y210500*
X450273Y212375*
X449727Y213500*
X448909Y213875*
X448364*
G74*
X0Y0D02*
M02*
