M48
;FILE_FORMAT=2:4
INCH,LZ
FMAT,2
ICI,OFF
;TYPE=PLATED
T1C.035
T2C.037
T3C.03937
;TYPE=NON_PLATED
T4C.03937
%
M72
G90
G93X0Y0
T1C.035F197S55
X0236Y0105
X0236Y0115
X0236Y0125
X0236Y0135
X0236Y0145
X0236Y0155
X0236Y0165
X0236Y0175
X0236Y0185
X0236Y0195
X0236Y0205
X0236Y0215
X0236Y0225
X0236Y0235
X0236Y0245
X0236Y0255
X0236Y0265
X0236Y0275
X0236Y0285
X0236Y0295
X0296Y0295
X0296Y0285
X0296Y0275
X0296Y0265
X0296Y0255
X0296Y0245
X0296Y0235
X0296Y0225
X0296Y0215
X0296Y0205
X0296Y0195
X0296Y0185
X0296Y0175
X0296Y0165
X0296Y0155
X0296Y0145
X0296Y0135
X0296Y0125
X0296Y0115
X0296Y0105
T2C.037F197S55
X017Y0085
X012Y013
X017Y022
X012Y027
X017Y0325
X0296Y0325
X0296Y0085
T3C.03937F197S55
X0125Y018
X0115Y018
X0115Y019
X0125Y019
X0115Y02
X0125Y02
X0115Y021
X0125Y021
X0115Y022
X0125Y022
T4C.03937F197S55
X011Y031
X012Y031
X013Y031
X014Y031
M30
