*
*
G04 PADS VX.2.4 Build Number: 11282995 generated Gerber (RS-274-X) file*
G04 PC Version=2.1*
*
%IN "ICE + WriterV1.03-2.pcb"*%
*
%MOIN*%
*
%FSLAX35Y35*%
*
*
*
*
G04 PC Standard Apertures*
*
*
G04 Thermal Relief Aperture macro.*
%AMTER*
1,1,$1,0,0*
1,0,$1-$2,0,0*
21,0,$3,$4,0,0,45*
21,0,$3,$4,0,0,135*
%
*
*
G04 Annular Aperture macro.*
%AMANN*
1,1,$1,0,0*
1,0,$2,0,0*
%
*
*
G04 Odd Aperture macro.*
%AMODD*
1,1,$1,0,0*
1,0,$1-0.005,0,0*
%
*
*
G04 PC Custom Aperture Macros*
*
*
*
*
*
*
G04 PC Aperture Table*
*
%ADD010C,0.001*%
%ADD023C,0.01*%
%ADD054C,0.00039*%
*
*
*
*
G04 PC Circuitry*
G04 Layer Name ICE + WriterV1.03-2.pcb - circuitry*
%LPD*%
*
*
G04 PC Custom Flashes*
G04 Layer Name ICE + WriterV1.03-2.pcb - flashes*
%LPD*%
*
*
G04 PC Circuitry*
G04 Layer Name ICE + WriterV1.03-2.pcb - circuitry*
%LPD*%
*
G54D10*
G54D23*
G01X116000Y134370D02*
X124000D01*
X120000Y130370D02*
Y138370D01*
X106000Y134370D02*
X114000D01*
X110000Y130370D02*
Y138370D01*
X96000Y134370D02*
X104000D01*
X100000Y130370D02*
Y138370D01*
X86000Y134370D02*
X94000D01*
X90000Y130370D02*
Y138370D01*
X76000Y134370D02*
X84000D01*
X80000Y130370D02*
Y138370D01*
X76000Y144370D02*
X84000D01*
X80000Y140370D02*
Y148370D01*
X86000Y144370D02*
X94000D01*
X90000Y140370D02*
Y148370D01*
X96000Y144370D02*
X104000D01*
X100000Y140370D02*
Y148370D01*
X106000Y144370D02*
X114000D01*
X110000Y140370D02*
Y148370D01*
X116000Y144370D02*
X124000D01*
X120000Y140370D02*
Y148370D01*
X174783Y41957D02*
X182783Y49957D01*
X174783D02*
X182783Y41957D01*
X174783Y51957D02*
X182783Y59957D01*
X174783D02*
X182783Y51957D01*
X174783Y61957D02*
X182783Y69957D01*
X174783D02*
X182783Y61957D01*
X174783Y71957D02*
X182783Y79957D01*
X174783D02*
X182783Y71957D01*
X174783Y81957D02*
X182783Y89957D01*
X174783D02*
X182783Y81957D01*
X174783Y91957D02*
X182783Y99957D01*
X174783D02*
X182783Y91957D01*
X30400Y54900D02*
X38400D01*
Y62900*
X30400*
Y54900*
X34400Y58900D02*
Y62900D01*
X17500Y9800D02*
X25500D01*
Y17800*
X17500*
Y9800*
X21500Y13800D02*
Y17800D01*
X37900Y52000D02*
X45900D01*
Y60000*
X37900*
Y52000*
X41900Y56000D02*
Y60000D01*
X50478Y37800D02*
X58478D01*
Y45800*
X50478*
Y37800*
X54478Y41800D02*
Y45800D01*
X46528Y37550D02*
X54528D01*
Y45550*
X46528*
Y37550*
X50528Y41550D02*
Y45550D01*
X88738Y12518D02*
X96738D01*
Y20518*
X88738*
Y12518*
X92738Y16518D02*
Y20518D01*
X104678Y12455D02*
X112678D01*
Y20455*
X104678*
Y12455*
X108678Y16455D02*
Y20455D01*
X118414Y55800D02*
X126414D01*
Y63800*
X118414*
Y55800*
X122414Y59800D02*
Y63800D01*
X122157Y54107D02*
X130157D01*
Y62107*
X122157*
Y54107*
X126157Y58107D02*
Y62107D01*
X128450Y55800D02*
X136450D01*
Y63800*
X128450*
Y55800*
X132450Y59800D02*
Y63800D01*
X120232Y50446D02*
X128232D01*
Y58446*
X120232*
Y50446*
X124232Y54446D02*
Y58446D01*
X113700Y54600D02*
X121700D01*
Y62600*
X113700*
Y54600*
X117700Y58600D02*
Y62600D01*
X65100Y54600D02*
X73100D01*
Y62600*
X65100*
Y54600*
X69100Y58600D02*
Y62600D01*
X130450Y52150D02*
X138450D01*
Y60150*
X130450*
Y52150*
X134450Y56150D02*
Y60150D01*
X129900Y42500D02*
X137900D01*
Y50500*
X129900*
Y42500*
X133900Y46500D02*
Y50500D01*
X123450Y20250D02*
X131450D01*
Y28250*
X123450*
Y20250*
X127450Y24250D02*
Y28250D01*
X113313Y19876D02*
X121313D01*
Y27876*
X113313*
Y19876*
X117313Y23876D02*
Y27876D01*
X78600Y21000D02*
X86600D01*
Y29000*
X78600*
Y21000*
X82600Y25000D02*
Y29000D01*
X65400Y42300D02*
X73400D01*
Y50300*
X65400*
Y42300*
X69400Y46300D02*
Y50300D01*
X114900Y45100D02*
X122900D01*
Y53100*
X114900*
Y45100*
X118900Y49100D02*
Y53100D01*
X97800Y49800D02*
X105800D01*
Y57800*
X97800*
Y49800*
X101800Y53800D02*
Y57800D01*
X101650Y35700D02*
X109650D01*
Y43700*
X101650*
Y35700*
X105650Y39700D02*
Y43700D01*
X122450Y41096D02*
X130450D01*
Y49096*
X122450*
Y41096*
X126450Y45096D02*
Y49096D01*
X109550Y35700D02*
X117550D01*
Y43700*
X109550*
Y35700*
X113550Y39700D02*
Y43700D01*
X78600Y17050D02*
X86600D01*
Y25050*
X78600*
Y17050*
X82600Y21050D02*
Y25050D01*
X122700Y24200D02*
X130700D01*
Y32200*
X122700*
Y24200*
X126700Y28200D02*
Y32200D01*
X112500Y41900D02*
X120500D01*
Y49900*
X112500*
Y41900*
X116500Y45900D02*
Y49900D01*
X83500Y38600D02*
X91500D01*
Y46600*
X83500*
Y38600*
X87500Y42600D02*
Y46600D01*
X93000Y36500D02*
X101000D01*
Y44500*
X93000*
Y36500*
X97000Y40500D02*
Y44500D01*
X80200Y45100D02*
X88200D01*
Y53100*
X80200*
Y45100*
X84200Y49100D02*
Y53100D01*
X66400Y37700D02*
X74400D01*
Y45700*
X66400*
Y37700*
X70400Y41700D02*
Y45700D01*
X91800Y51700D02*
X99800D01*
Y59700*
X91800*
Y51700*
X95800Y55700D02*
Y59700D01*
X133400Y40300D02*
X141400D01*
Y48300*
X133400*
Y40300*
X137400Y44300D02*
Y48300D01*
X127007Y39807D02*
X135007D01*
Y47807*
X127007*
Y39807*
X131007Y43807D02*
Y47807D01*
X87000Y45200D02*
X95000D01*
Y53200*
X87000*
Y45200*
X91000Y49200D02*
Y53200D01*
X147600Y42400D02*
X155600D01*
Y50400*
X147600*
Y42400*
X151600Y46400D02*
Y50400D01*
X141700Y36600D02*
X149700D01*
Y44600*
X141700*
Y36600*
X145700Y40600D02*
Y44600D01*
X142522Y20572D02*
X150522D01*
Y28572*
X142522*
Y20572*
X146522Y24572D02*
Y28572D01*
X140200Y52700D02*
X148200D01*
Y60700*
X140200*
Y52700*
X144200Y56700D02*
Y60700D01*
X152500Y48500D02*
X160500D01*
Y56500*
X152500*
Y48500*
X156500Y52500D02*
Y56500D01*
X140050Y40250D02*
X148050D01*
Y48250*
X140050*
Y40250*
X144050Y44250D02*
Y48250D01*
X141100Y16200D02*
X149100D01*
Y24200*
X141100*
Y16200*
X145100Y20200D02*
Y24200D01*
X146700Y36600D02*
X154700D01*
Y44600*
X146700*
Y36600*
X150700Y40600D02*
Y44600D01*
X51101Y88010D02*
X59101D01*
Y96010*
X51101*
Y88010*
X55101Y92010D02*
Y96010D01*
X37434Y56216D02*
X45434D01*
Y64216*
X37434*
Y56216*
X41434Y60216D02*
Y64216D01*
X13800Y129900D02*
X21800D01*
Y137900*
X13800*
Y129900*
X17800Y133900D02*
Y137900D01*
X53900Y96350D02*
X61900D01*
Y104350*
X53900*
Y96350*
X57900Y100350D02*
Y104350D01*
X52700Y102100D02*
X60700D01*
Y110100*
X52700*
Y102100*
X56700Y106100D02*
Y110100D01*
X31000Y102900D02*
X39000D01*
Y110900*
X31000*
Y102900*
X35000Y106900D02*
Y110900D01*
X53149Y91549D02*
X61149D01*
Y99549*
X53149*
Y91549*
X57149Y95549D02*
Y99549D01*
X36900Y82600D02*
X44900D01*
Y90600*
X36900*
Y82600*
X40900Y86600D02*
Y90600D01*
X54450Y66800D02*
X62450D01*
Y74800*
X54450*
Y66800*
X58450Y70800D02*
Y74800D01*
X39600Y105000D02*
X47600D01*
Y113000*
X39600*
Y105000*
X43600Y109000D02*
Y113000D01*
X131950Y68400D02*
X139950D01*
Y76400*
X131950*
Y68400*
X135950Y72400D02*
Y76400D01*
X122300Y135800D02*
X130300D01*
Y143800*
X122300*
Y135800*
X126300Y139800D02*
Y143800D01*
X121286Y66200D02*
X129286D01*
Y74200*
X121286*
Y66200*
X125286Y70200D02*
Y74200D01*
X98200Y83000D02*
X106200D01*
Y91000*
X98200*
Y83000*
X102200Y87000D02*
Y91000D01*
X86600Y86000D02*
X94600D01*
Y94000*
X86600*
Y86000*
X90600Y90000D02*
Y94000D01*
X103517Y72883D02*
X111517D01*
Y80883*
X103517*
Y72883*
X107517Y76883D02*
Y80883D01*
X117800Y122651D02*
X125800D01*
Y130651*
X117800*
Y122651*
X121800Y126651D02*
Y130651D01*
X112050Y122651D02*
X120050D01*
Y130651*
X112050*
Y122651*
X116050Y126651D02*
Y130651D01*
X113900Y75100D02*
X121900D01*
Y83100*
X113900*
Y75100*
X117900Y79100D02*
Y83100D01*
X118600Y69100D02*
X126600D01*
Y77100*
X118600*
Y69100*
X122600Y73100D02*
Y77100D01*
X111198Y61102D02*
X119198D01*
Y69102*
X111198*
Y61102*
X115198Y65102D02*
Y69102D01*
X86600Y62502D02*
X94600D01*
Y70502*
X86600*
Y62502*
X90600Y66502D02*
Y70502D01*
X115995Y86600D02*
X123995D01*
Y94600*
X115995*
Y86600*
X119995Y90600D02*
Y94600D01*
X75400Y94200D02*
X83400D01*
Y102200*
X75400*
Y94200*
X79400Y98200D02*
Y102200D01*
X116166Y82600D02*
X124166D01*
Y90600*
X116166*
Y82600*
X120166Y86600D02*
Y90600D01*
X107200Y59700D02*
X115200D01*
Y67700*
X107200*
Y59700*
X111200Y63700D02*
Y67700D01*
X100498Y75450D02*
X108498D01*
Y83450*
X100498*
Y75450*
X104498Y79450D02*
Y83450D01*
X90566Y71700D02*
X98566D01*
Y79700*
X90566*
Y71700*
X94566Y75700D02*
Y79700D01*
X103600Y84473D02*
X111600D01*
Y92473*
X103600*
Y84473*
X107600Y88473D02*
Y92473D01*
X104600Y116500D02*
X112600D01*
Y124500*
X104600*
Y116500*
X108600Y120500D02*
Y124500D01*
X63600Y103400D02*
X71600D01*
Y111400*
X63600*
Y103400*
X67600Y107400D02*
Y111400D01*
X63200Y60000D02*
X71200D01*
Y68000*
X63200*
Y60000*
X67200Y64000D02*
Y68000D01*
X118600Y111400D02*
X126600D01*
Y119400*
X118600*
Y111400*
X122600Y115400D02*
Y119400D01*
X87000Y101500D02*
X95000D01*
Y109500*
X87000*
Y101500*
X91000Y105500D02*
Y109500D01*
X127350Y94600D02*
X135350D01*
Y102600*
X127350*
Y94600*
X131350Y98600D02*
Y102600D01*
X123400Y93700D02*
X131400D01*
Y101700*
X123400*
Y93700*
X127400Y97700D02*
Y101700D01*
X128000Y68000D02*
X136000D01*
Y76000*
X128000*
Y68000*
X132000Y72000D02*
Y76000D01*
X78300Y115600D02*
X86300D01*
Y123600*
X78300*
Y115600*
X82300Y119600D02*
Y123600D01*
X63600Y98000D02*
X71600D01*
Y106000*
X63600*
Y98000*
X67600Y102000D02*
Y106000D01*
X129900Y123900D02*
X137900D01*
Y131900*
X129900*
Y123900*
X133900Y127900D02*
Y131900D01*
X129900Y118150D02*
X137900D01*
Y126150*
X129900*
Y118150*
X133900Y122150D02*
Y126150D01*
X90800Y114500D02*
X98800D01*
Y122500*
X90800*
Y114500*
X94800Y118500D02*
Y122500D01*
X81840Y97640D02*
X89840D01*
Y105640*
X81840*
Y97640*
X85840Y101640D02*
Y105640D01*
X81300Y86500D02*
X89300D01*
Y94500*
X81300*
Y86500*
X85300Y90500D02*
Y94500D01*
X67800Y87400D02*
X75800D01*
Y95400*
X67800*
Y87400*
X71800Y91400D02*
Y95400D01*
X130400Y101100D02*
X138400D01*
Y109100*
X130400*
Y101100*
X134400Y105100D02*
Y109100D01*
X112753Y111647D02*
X120753D01*
Y119647*
X112753*
Y111647*
X116753Y115647D02*
Y119647D01*
X76000Y104486D02*
X84000D01*
Y112486*
X76000*
Y104486*
X80000Y108486D02*
Y112486D01*
X79098Y92250D02*
X87098D01*
Y100250*
X79098*
Y92250*
X83098Y96250D02*
Y100250D01*
X130564Y111504D02*
X138564D01*
Y119504*
X130564*
Y111504*
X134564Y115504D02*
Y119504D01*
X103600Y96400D02*
X111600D01*
Y104400*
X103600*
Y96400*
X107600Y100400D02*
Y104400D01*
X83414Y66200D02*
X91414D01*
Y74200*
X83414*
Y66200*
X87414Y70200D02*
Y74200D01*
X95568Y88500D02*
X103568D01*
Y96500*
X95568*
Y88500*
X99568Y92500D02*
Y96500D01*
X102227Y123227D02*
X110227D01*
Y131227*
X102227*
Y123227*
X106227Y127227D02*
Y131227D01*
X113200Y100900D02*
X121200D01*
Y108900*
X113200*
Y100900*
X117200Y104900D02*
Y108900D01*
X111852Y65052D02*
X119852D01*
Y73052*
X111852*
Y65052*
X115852Y69052D02*
Y73052D01*
X86100Y69100D02*
X94100D01*
Y77100*
X86100*
Y69100*
X90100Y73100D02*
Y77100D01*
X73200Y69100D02*
X81200D01*
Y77100*
X73200*
Y69100*
X77200Y73100D02*
Y77100D01*
X101700Y106200D02*
X109700D01*
Y114200*
X101700*
Y106200*
X105700Y110200D02*
Y114200D01*
X65600Y81650D02*
X73600D01*
Y89650*
X65600*
Y81650*
X69600Y85650D02*
Y89650D01*
X96316Y71500D02*
X104316D01*
Y79500*
X96316*
Y71500*
X100316Y75500D02*
Y79500D01*
X178200Y66900D02*
X186200D01*
Y74900*
X178200*
Y66900*
X182200Y70900D02*
Y74900D01*
X178200Y135400D02*
X186200D01*
Y143400*
X178200*
Y135400*
X182200Y139400D02*
Y143400D01*
X159200Y87600D02*
X167200D01*
Y95600*
X159200*
Y87600*
X163200Y91600D02*
Y95600D01*
X169900Y91400D02*
X177900D01*
Y99400*
X169900*
Y91400*
X173900Y95400D02*
Y99400D01*
X137700Y66200D02*
X145700D01*
Y74200*
X137700*
Y66200*
X141700Y70200D02*
Y74200D01*
X147200Y90500D02*
X155200D01*
Y98500*
X147200*
Y90500*
X151200Y94500D02*
Y98500D01*
X161000Y77700D02*
X169000D01*
Y85700*
X161000*
Y77700*
X165000Y81700D02*
Y85700D01*
X171100Y115200D02*
X179100D01*
Y123200*
X171100*
Y115200*
X175100Y119200D02*
Y123200D01*
X139600Y131100D02*
X147600D01*
Y139100*
X139600*
Y131100*
X143600Y135100D02*
Y139100D01*
X136300Y113900D02*
X144300D01*
Y121900*
X136300*
Y113900*
X140300Y117900D02*
Y121900D01*
X147200Y120200D02*
X155200D01*
Y128200*
X147200*
Y120200*
X151200Y124200D02*
Y128200D01*
X139386Y111400D02*
X147386D01*
Y119400*
X139386*
Y111400*
X143386Y115400D02*
Y119400D01*
X163300Y99614D02*
X171300D01*
Y107614*
X163300*
Y99614*
X167300Y103614D02*
Y107614D01*
X160301Y102201D02*
X168301D01*
Y110201*
X160301*
Y102201*
X164301Y106201D02*
Y110201D01*
X156700Y134800D02*
X164700D01*
Y142800*
X156700*
Y134800*
X160700Y138800D02*
Y142800D01*
X151500Y59700D02*
X159500D01*
Y67700*
X151500*
Y59700*
X155500Y63700D02*
Y67700D01*
X168100Y105700D02*
X176100D01*
Y113700*
X168100*
Y105700*
X172100Y109700D02*
Y113700D01*
X148400Y124150D02*
X156400D01*
Y132150*
X148400*
Y124150*
X152400Y128150D02*
Y132150D01*
X49100Y157100D02*
X57100D01*
Y165100*
X49100*
Y157100*
X53100Y161100D02*
Y165100D01*
X111200Y155500D02*
X119200D01*
Y163500*
X111200*
Y155500*
X115200Y159500D02*
Y163500D01*
X125500Y148000D02*
X133500D01*
Y156000*
X125500*
Y148000*
X129500Y152000D02*
Y156000D01*
X120900Y145100D02*
X128900D01*
Y153100*
X120900*
Y145100*
X124900Y149100D02*
Y153100D01*
X117700Y157700D02*
X125700D01*
Y165700*
X117700*
Y157700*
X121700Y161700D02*
Y165700D01*
X95600Y150100D02*
X103600D01*
Y158100*
X95600*
Y150100*
X99600Y154100D02*
Y158100D01*
X176700Y157700D02*
X184700D01*
Y165700*
X176700*
Y157700*
X180700Y161700D02*
Y165700D01*
X159000Y143600D02*
X167000D01*
Y151600*
X159000*
Y143600*
X163000Y147600D02*
Y151600D01*
X100000Y196000D02*
X358000D01*
X100000Y172000D02*
X358000D01*
X100000Y148000D02*
X358000D01*
X100000Y124000D02*
X358000D01*
X100000Y100000D02*
X358000D01*
X100000Y196000D02*
Y100000D01*
X184000Y196000D02*
Y100000D01*
X220000Y196000D02*
Y100000D01*
X256000Y196000D02*
Y100000D01*
X310000Y196000D02*
Y100000D01*
X358000Y196000D02*
Y100000D01*
X135500Y184750D02*
X134955Y185500D01*
X134136Y185875*
X133045*
X132227Y185500*
X131682Y184750*
Y184000*
X131955Y183250*
X132227Y182875*
X132773Y182500*
X134409Y181750*
X134955Y181375*
X135227Y181000*
X135500Y180250*
Y179125*
X134955Y178375*
X134136Y178000*
X133045*
X132227Y178375*
X131682Y179125*
X137955Y185875D02*
Y178000D01*
X144227Y185875D02*
X140409Y178000D01*
Y185875D02*
X144227D01*
X140409Y178000D02*
X144227D01*
X146682Y185875D02*
Y178000D01*
Y185875D02*
X150227D01*
X146682Y182125D02*
X148864D01*
X146682Y178000D02*
X150227D01*
X193864Y185875D02*
X193318Y185500D01*
X192773Y184750*
X192500Y184000*
X192227Y182875*
Y181000*
X192500Y179875*
X192773Y179125*
X193318Y178375*
X193864Y178000*
X194955*
X195500Y178375*
X196045Y179125*
X196318Y179875*
X196591Y181000*
Y182875*
X196318Y184000*
X196045Y184750*
X195500Y185500*
X194955Y185875*
X193864*
X194682Y179500D02*
X196318Y177250D01*
X200955Y185875D02*
Y178000D01*
X199045Y185875D02*
X202864D01*
X205318D02*
X207500Y182125D01*
Y178000*
X209682Y185875D02*
X207500Y182125D01*
X232045Y184750D02*
X231500Y185500D01*
X230682Y185875*
X229591*
X228773Y185500*
X228227Y184750*
Y184000*
X228500Y183250*
X228773Y182875*
X229318Y182500*
X230955Y181750*
X231500Y181375*
X231773Y181000*
X232045Y180250*
Y179125*
X231500Y178375*
X230682Y178000*
X229591*
X228773Y178375*
X228227Y179125*
X234500Y185875D02*
X236682Y182125D01*
Y178000*
X238864Y185875D02*
X236682Y182125D01*
X241318Y185875D02*
Y178000D01*
Y185875D02*
X243500Y178000D01*
X245682Y185875D02*
X243500Y178000D01*
X245682Y185875D02*
Y178000D01*
X267500Y185875D02*
Y178000D01*
Y185875D02*
X269955D01*
X270773Y185500*
X271045Y185125*
X271318Y184375*
Y183250*
X271045Y182500*
X270773Y182125*
X269955Y181750*
X267500*
X273773Y185875D02*
Y178000D01*
X277045*
X281682Y185875D02*
X279500Y178000D01*
X281682Y185875D02*
X283864Y178000D01*
X280318Y180625D02*
X283045D01*
X288227Y185875D02*
Y178000D01*
X286318Y185875D02*
X290136D01*
X292591D02*
Y178000D01*
Y185875D02*
X296136D01*
X292591Y182125D02*
X294773D01*
X292591Y178000D02*
X296136D01*
X298591Y185875D02*
Y178000D01*
Y185875D02*
X300500D01*
X301318Y185500*
X301864Y184750*
X302136Y184000*
X302409Y182875*
Y181000*
X302136Y179875*
X301864Y179125*
X301318Y178375*
X300500Y178000*
X298591*
X326682Y185875D02*
Y178000D01*
X324773Y185875D02*
X328591D01*
X332682D02*
X332136Y185500D01*
X331591Y184750*
X331318Y184000*
X331045Y182875*
Y181000*
X331318Y179875*
X331591Y179125*
X332136Y178375*
X332682Y178000*
X333773*
X334318Y178375*
X334864Y179125*
X335136Y179875*
X335409Y181000*
Y182875*
X335136Y184000*
X334864Y184750*
X334318Y185500*
X333773Y185875*
X332682*
X337864D02*
Y178000D01*
X341136*
X106545Y161875D02*
X109545D01*
X107909Y158875*
X108727*
X109273Y158500*
X109545Y158125*
X109818Y157000*
Y156250*
X109545Y155125*
X109000Y154375*
X108182Y154000*
X107364*
X106545Y154375*
X106273Y154750*
X106000Y155500*
X115818Y159250D02*
X115545Y158125D01*
X115000Y157375*
X114182Y157000*
X113909*
X113091Y157375*
X112545Y158125*
X112273Y159250*
Y159625*
X112545Y160750*
X113091Y161500*
X113909Y161875*
X114182*
X115000Y161500*
X115545Y160750*
X115818Y159250*
Y157375*
X115545Y155500*
X115000Y154375*
X114182Y154000*
X113636*
X112818Y154375*
X112545Y155125*
X118545Y154750D02*
X118273Y154375D01*
X118545Y154000*
X118818Y154375*
X118545Y154750*
X121818Y161875D02*
X124818D01*
X123182Y158875*
X124000*
X124545Y158500*
X124818Y158125*
X125091Y157000*
Y156250*
X124818Y155125*
X124273Y154375*
X123455Y154000*
X122636*
X121818Y154375*
X121545Y154750*
X121273Y155500*
X131364Y161875D02*
X128636Y154000D01*
X127545Y161875D02*
X131364D01*
X197136Y160375D02*
X197682Y160750D01*
X198500Y161875*
Y154000*
X202591Y161875D02*
X201773Y161500D01*
X201227Y160375*
X200955Y158500*
Y157375*
X201227Y155500*
X201773Y154375*
X202591Y154000*
X203136*
X203955Y154375*
X204500Y155500*
X204773Y157375*
Y158500*
X204500Y160375*
X203955Y161500*
X203136Y161875*
X202591*
X232000Y160000D02*
X244000D01*
X238000Y154000D02*
Y166000D01*
X264636Y161875D02*
X266818Y158125D01*
Y154000*
X269000Y161875D02*
X266818Y158125D01*
X271455Y161875D02*
Y154000D01*
Y161875D02*
X275000D01*
X271455Y158125D02*
X273636D01*
X271455Y154000D02*
X275000D01*
X281273Y160750D02*
X280727Y161500D01*
X279909Y161875*
X278818*
X278000Y161500*
X277455Y160750*
Y160000*
X277727Y159250*
X278000Y158875*
X278545Y158500*
X280182Y157750*
X280727Y157375*
X281000Y157000*
X281273Y156250*
Y155125*
X280727Y154375*
X279909Y154000*
X278818*
X278000Y154375*
X277455Y155125*
X317818Y160750D02*
Y154000D01*
X315364Y157375D02*
X320273D01*
X327636Y163375D02*
X322727Y151375D01*
X330091Y157375D02*
X335000D01*
X339091Y161875D02*
X338273Y161500D01*
X337727Y160375*
X337455Y158500*
Y157375*
X337727Y155500*
X338273Y154375*
X339091Y154000*
X339636*
X340455Y154375*
X341000Y155500*
X341273Y157375*
Y158500*
X341000Y160375*
X340455Y161500*
X339636Y161875*
X339091*
X344000Y154750D02*
X343727Y154375D01*
X344000Y154000*
X344273Y154375*
X344000Y154750*
X348364Y161875D02*
X347545Y161500D01*
X347000Y160375*
X346727Y158500*
Y157375*
X347000Y155500*
X347545Y154375*
X348364Y154000*
X348909*
X349727Y154375*
X350273Y155500*
X350545Y157375*
Y158500*
X350273Y160375*
X349727Y161500*
X348909Y161875*
X348364*
X106545Y137875D02*
X109545D01*
X107909Y134875*
X108727*
X109273Y134500*
X109545Y134125*
X109818Y133000*
Y132250*
X109545Y131125*
X109000Y130375*
X108182Y130000*
X107364*
X106545Y130375*
X106273Y130750*
X106000Y131500*
X113909Y137875D02*
X113091Y137500D01*
X112545Y136375*
X112273Y134500*
Y133375*
X112545Y131500*
X113091Y130375*
X113909Y130000*
X114455*
X115273Y130375*
X115818Y131500*
X116091Y133375*
Y134500*
X115818Y136375*
X115273Y137500*
X114455Y137875*
X113909*
X202455Y136750D02*
X202182Y137500D01*
X201364Y137875*
X200818*
X200000Y137500*
X199455Y136375*
X199182Y134500*
Y132625*
X199455Y131125*
X200000Y130375*
X200818Y130000*
X201091*
X201909Y130375*
X202455Y131125*
X202727Y132250*
Y132625*
X202455Y133750*
X201909Y134500*
X201091Y134875*
X200818*
X200000Y134500*
X199455Y133750*
X199182Y132625*
X232000Y130000D02*
X244000Y142000D01*
X232000D02*
X244000Y130000D01*
X264636Y137875D02*
X266818Y134125D01*
Y130000*
X269000Y137875D02*
X266818Y134125D01*
X271455Y137875D02*
Y130000D01*
Y137875D02*
X275000D01*
X271455Y134125D02*
X273636D01*
X271455Y130000D02*
X275000D01*
X281273Y136750D02*
X280727Y137500D01*
X279909Y137875*
X278818*
X278000Y137500*
X277455Y136750*
Y136000*
X277727Y135250*
X278000Y134875*
X278545Y134500*
X280182Y133750*
X280727Y133375*
X281000Y133000*
X281273Y132250*
Y131125*
X280727Y130375*
X279909Y130000*
X278818*
X278000Y130375*
X277455Y131125*
X317818Y136750D02*
Y130000D01*
X315364Y133375D02*
X320273D01*
X327636Y139375D02*
X322727Y127375D01*
X330091Y133375D02*
X335000D01*
X339091Y137875D02*
X338273Y137500D01*
X337727Y136375*
X337455Y134500*
Y133375*
X337727Y131500*
X338273Y130375*
X339091Y130000*
X339636*
X340455Y130375*
X341000Y131500*
X341273Y133375*
Y134500*
X341000Y136375*
X340455Y137500*
X339636Y137875*
X339091*
X344000Y130750D02*
X343727Y130375D01*
X344000Y130000*
X344273Y130375*
X344000Y130750*
X348364Y137875D02*
X347545Y137500D01*
X347000Y136375*
X346727Y134500*
Y133375*
X347000Y131500*
X347545Y130375*
X348364Y130000*
X348909*
X349727Y130375*
X350273Y131500*
X350545Y133375*
Y134500*
X350273Y136375*
X349727Y137500*
X348909Y137875*
X348364*
X106000Y112375D02*
X106545Y112750D01*
X107364Y113875*
Y106000*
X113364Y113875D02*
X110636D01*
X110364Y110500*
X110636Y110875*
X111455Y111250*
X112273*
X113091Y110875*
X113636Y110125*
X113909Y109000*
X113636Y108250*
X113364Y107125*
X112818Y106375*
X112000Y106000*
X111182*
X110364Y106375*
X110091Y106750*
X109818Y107500*
X116636Y106750D02*
X116364Y106375D01*
X116636Y106000*
X116909Y106375*
X116636Y106750*
X123182Y113875D02*
X120455Y106000D01*
X119364Y113875D02*
X123182D01*
X129182D02*
X126455D01*
X126182Y110500*
X126455Y110875*
X127273Y111250*
X128091*
X128909Y110875*
X129455Y110125*
X129727Y109000*
X129455Y108250*
X129182Y107125*
X128636Y106375*
X127818Y106000*
X127000*
X126182Y106375*
X125909Y106750*
X125636Y107500*
X194000Y112375D02*
X194545Y112750D01*
X195364Y113875*
Y106000*
X198364Y113875D02*
X201364D01*
X199727Y110875*
X200545*
X201091Y110500*
X201364Y110125*
X201636Y109000*
Y108250*
X201364Y107125*
X200818Y106375*
X200000Y106000*
X199182*
X198364Y106375*
X198091Y106750*
X197818Y107500*
X205727Y113875D02*
X204909Y113500D01*
X204364Y112375*
X204091Y110500*
Y109375*
X204364Y107500*
X204909Y106375*
X205727Y106000*
X206273*
X207091Y106375*
X207636Y107500*
X207909Y109375*
Y110500*
X207636Y112375*
X207091Y113500*
X206273Y113875*
X205727*
X232000Y106000D02*
X244000D01*
Y118000*
X232000*
Y106000*
X238000Y112000D02*
Y118000D01*
X264636Y113875D02*
X266818Y110125D01*
Y106000*
X269000Y113875D02*
X266818Y110125D01*
X271455Y113875D02*
Y106000D01*
Y113875D02*
X275000D01*
X271455Y110125D02*
X273636D01*
X271455Y106000D02*
X275000D01*
X281273Y112750D02*
X280727Y113500D01*
X279909Y113875*
X278818*
X278000Y113500*
X277455Y112750*
Y112000*
X277727Y111250*
X278000Y110875*
X278545Y110500*
X280182Y109750*
X280727Y109375*
X281000Y109000*
X281273Y108250*
Y107125*
X280727Y106375*
X279909Y106000*
X278818*
X278000Y106375*
X277455Y107125*
X317818Y112750D02*
Y106000D01*
X315364Y109375D02*
X320273D01*
X327636Y115375D02*
X322727Y103375D01*
X330091Y109375D02*
X335000D01*
X339091Y113875D02*
X338273Y113500D01*
X337727Y112375*
X337455Y110500*
Y109375*
X337727Y107500*
X338273Y106375*
X339091Y106000*
X339636*
X340455Y106375*
X341000Y107500*
X341273Y109375*
Y110500*
X341000Y112375*
X340455Y113500*
X339636Y113875*
X339091*
X344000Y106750D02*
X343727Y106375D01*
X344000Y106000*
X344273Y106375*
X344000Y106750*
X348364Y113875D02*
X347545Y113500D01*
X347000Y112375*
X346727Y110500*
Y109375*
X347000Y107500*
X347545Y106375*
X348364Y106000*
X348909*
X349727Y106375*
X350273Y107500*
X350545Y109375*
Y110500*
X350273Y112375*
X349727Y113500*
X348909Y113875*
X348364*
G54D54*
X184646Y164173D02*
X40157D01*
Y156299*
X15354*
Y11417*
X157087*
Y38976*
X184646*
Y164173*
X180315Y149213D02*
G75*
G03X171260I-4528J-0D01*
G01X180315D02*
Y147244D01*
X171260D02*
G03X180315I4527J0D01*
G01X171260D02*
Y149213D01*
X28740Y50787D02*
G03X19685I-4527J0D01*
G01X28740D02*
Y48819D01*
X19685D02*
G03X28740I4528J-0D01*
G01X19685D02*
Y50787D01*
X65458Y154362D02*
G03X65458I-5512J0D01*
G01X145499Y154421D02*
G03X145499I-5512J0D01*
G01X84155Y34327D02*
G03X81793I-1181J-0D01*
G01X84155D02*
Y29996D01*
X81793D02*
G03X84155I1181J0D01*
G01X81793D02*
Y34327D01*
X89906Y29857D02*
G03X89906I-1280J0D01*
G01X84157Y16558D02*
G03X81795I-1181J-0D01*
G01X84157D02*
Y14196D01*
X81795D02*
G03X84157I1181J-0D01*
G01X81795D02*
Y16558D01*
X112657Y29839D02*
G03X112657I-1279J0D01*
G01X118209Y34360D02*
G03X115846I-1181J-0D01*
G01X118209D02*
Y30029D01*
X115846D02*
G03X118209I1182J-0D01*
G01X115846D02*
Y34360D01*
X118202Y16550D02*
G03X115840I-1181J-0D01*
G01X118202D02*
Y14188D01*
X115840D02*
G03X118202I1181J-0D01*
G01X115840D02*
Y16550D01*
G74*
X0Y0D02*
M02*
