*
*
G04 PADS VX.2.4 Build Number: 11282995 generated Gerber (RS-274-X) file*
G04 PC Version=2.1*
*
%IN "WriterTranBo(Empty).pcb"*%
*
%MOIN*%
*
%FSLAX35Y35*%
*
*
*
*
G04 PC Standard Apertures*
*
*
G04 Thermal Relief Aperture macro.*
%AMTER*
1,1,$1,0,0*
1,0,$1-$2,0,0*
21,0,$3,$4,0,0,45*
21,0,$3,$4,0,0,135*
%
*
*
G04 Annular Aperture macro.*
%AMANN*
1,1,$1,0,0*
1,0,$2,0,0*
%
*
*
G04 Odd Aperture macro.*
%AMODD*
1,1,$1,0,0*
1,0,$1-0.005,0,0*
%
*
*
G04 PC Custom Aperture Macros*
*
*
*
*
*
*
G04 PC Aperture Table*
*
%ADD010C,0.001*%
%ADD014C,0.06*%
%ADD022C,0.02*%
%ADD034C,0.0315*%
%ADD035R,0.07087X0.07087*%
%ADD036C,0.07087*%
%ADD052C,0.015*%
%ADD080C,0.03*%
%ADD081C,0.025*%
*
*
*
*
G04 PC Circuitry*
G04 Layer Name WriterTranBo(Empty).pcb - circuitry*
%LPD*%
*
*
G04 PC Custom Flashes*
G04 Layer Name WriterTranBo(Empty).pcb - flashes*
%LPD*%
*
*
G04 PC Circuitry*
G04 Layer Name WriterTranBo(Empty).pcb - circuitry*
%LPD*%
*
G54D10*
G54D14*
G01X200000Y295000D03*
Y285000D03*
Y275000D03*
Y265000D03*
Y255000D03*
Y245000D03*
Y235000D03*
Y225000D03*
Y215000D03*
Y205000D03*
Y195000D03*
Y185000D03*
Y175000D03*
Y165000D03*
Y155000D03*
Y145000D03*
Y135000D03*
Y125000D03*
Y115000D03*
Y105000D03*
X190000Y295000D03*
Y285000D03*
Y275000D03*
Y265000D03*
Y255000D03*
Y245000D03*
Y235000D03*
Y225000D03*
Y215000D03*
Y205000D03*
Y195000D03*
Y185000D03*
Y175000D03*
Y165000D03*
Y155000D03*
Y145000D03*
Y135000D03*
Y125000D03*
Y115000D03*
Y105000D03*
X230000Y295000D03*
Y285000D03*
Y275000D03*
Y265000D03*
Y255000D03*
Y245000D03*
Y235000D03*
Y225000D03*
Y215000D03*
Y205000D03*
Y195000D03*
Y185000D03*
Y175000D03*
Y165000D03*
Y155000D03*
Y145000D03*
Y135000D03*
Y125000D03*
Y115000D03*
Y105000D03*
X290000D03*
Y115000D03*
Y125000D03*
Y135000D03*
Y145000D03*
Y155000D03*
Y165000D03*
Y175000D03*
Y185000D03*
Y195000D03*
Y205000D03*
Y215000D03*
Y225000D03*
Y235000D03*
Y245000D03*
Y255000D03*
Y265000D03*
Y275000D03*
Y285000D03*
Y295000D03*
G54D22*
X190000Y105000D02*
X195000Y110000D01*
X225000*
X230000Y105000*
X190000Y115000D02*
X195000Y120000D01*
X225000*
X230000Y115000*
X190000Y125000D02*
X195000Y130000D01*
X225000*
X230000Y125000*
X190000Y135000D02*
X195000Y140000D01*
X225000*
X230000Y135000*
X190000Y145000D02*
X195000Y150000D01*
X225000*
X230000Y145000*
X190000Y155000D02*
X195000Y160000D01*
X225000*
X230000Y155000*
X124000Y180000D02*
X125000Y97000D01*
X190000Y165000D02*
X195000Y170000D01*
X225000*
X230000Y165000*
X190000Y175000D02*
X195000Y180000D01*
X225000*
X230000Y175000*
X190000Y185000D02*
X195000Y190000D01*
X225000*
X230000Y185000*
X190000Y195000D02*
X195000Y200000D01*
X225000*
X230000Y195000*
X190000Y205000D02*
X195000Y210000D01*
X225000*
X230000Y205000*
X190000Y215000D02*
X195000Y220000D01*
X225000*
X230000Y215000*
X190000Y225000D02*
X195000Y230000D01*
X225000*
X230000Y225000*
X190000Y235000D02*
X195000Y240000D01*
X225000*
X230000Y235000*
X190000Y245000D02*
X195000Y250000D01*
X225000*
X229000Y246000*
X230000*
Y245000*
X190000Y255000D02*
X195000Y260000D01*
X225000*
X230000Y255000*
X190000Y265000D02*
X195000Y270000D01*
X225000*
X230000Y265000*
X190000Y275000D02*
X195000Y280000D01*
X225000*
X230000Y275000*
X190000Y285000D02*
X195000Y290000D01*
X225000*
X230000Y285000*
X190000Y295000D02*
X195000Y300000D01*
X226000*
X230000Y296000*
X111000Y92000D02*
X149000D01*
Y101000*
X111000*
Y92000*
Y100999D02*
X149000D01*
X111000Y99199D02*
X149000D01*
X111000Y97399D02*
X149000D01*
X111000Y95599D02*
X149000D01*
X111000Y93799D02*
X149000D01*
X313375Y100000D02*
G75*
G03X313375I-3375J0D01*
G01Y130000D02*
G03X313375I-3375J0D01*
G01Y160000D02*
G03X313375I-3375J0D01*
G01Y190000D02*
G03X313375I-3375J0D01*
G01Y220000D02*
G03X313375I-3375J0D01*
G01Y250000D02*
G03X313375I-3375J0D01*
G01Y280000D02*
G03X313375I-3375J0D01*
G01Y310000D02*
G03X313375I-3375J0D01*
G01X143375Y240000D02*
G03X143375I-3375J0D01*
G01Y270000D02*
G03X143375I-3375J0D01*
G01Y300000D02*
G03X143375I-3375J0D01*
G01Y130000D02*
G03X143375I-3375J0D01*
G01Y160000D02*
G03X143375I-3375J0D01*
G01X328200Y327200D02*
G03X327200Y328200I-1000J-0D01*
G01X95800*
G03X94800Y327200I0J-1000*
G01Y242793*
G03X96750Y242481I1000J0*
G01Y237719D02*
G03Y242481I7250J2381D01*
G01Y237719D02*
G03X94800Y237407I-950J-312D01*
G01Y161942*
G03X96765Y161680I1000J-0*
G01Y157920D02*
G03Y161680I6935J1880D01*
G01Y157920D02*
G03X94800Y157658I-965J-262D01*
G01Y72800*
G03X95800Y71800I1000J0*
G01X327200*
G03X328200Y72800I-0J1000*
G01Y327200*
X313375Y100000D02*
G03X313375I-3375J0D01*
G01Y130000D02*
G03X313375I-3375J0D01*
G01Y160000D02*
G03X313375I-3375J0D01*
G01Y190000D02*
G03X313375I-3375J0D01*
G01Y220000D02*
G03X313375I-3375J0D01*
G01Y250000D02*
G03X313375I-3375J0D01*
G01Y280000D02*
G03X313375I-3375J0D01*
G01Y310000D02*
G03X313375I-3375J0D01*
G01X292433Y290862D02*
G03Y289138I506J-862D01*
G01Y280862D02*
G03Y289138I-2433J4138D01*
G01Y280862D02*
G03Y279138I506J-862D01*
G01Y270862D02*
G03Y279138I-2433J4138D01*
G01Y270862D02*
G03Y269138I506J-862D01*
G01Y260862D02*
G03Y269138I-2433J4138D01*
G01Y260862D02*
G03Y259138I506J-862D01*
G01Y250862D02*
G03Y259138I-2433J4138D01*
G01Y250862D02*
G03Y249138I506J-862D01*
G01Y240862D02*
G03Y249138I-2433J4138D01*
G01Y240862D02*
G03Y239138I506J-862D01*
G01Y230862D02*
G03Y239138I-2433J4138D01*
G01Y230862D02*
G03Y229138I506J-862D01*
G01Y220862D02*
G03Y229138I-2433J4138D01*
G01Y220862D02*
G03Y219138I506J-862D01*
G01Y210862D02*
G03Y219138I-2433J4138D01*
G01Y210862D02*
G03Y209138I506J-862D01*
G01Y200862D02*
G03Y209138I-2433J4138D01*
G01Y200862D02*
G03Y199138I506J-862D01*
G01Y190862D02*
G03Y199138I-2433J4138D01*
G01Y190862D02*
G03Y189138I506J-862D01*
G01Y180862D02*
G03Y189138I-2433J4138D01*
G01Y180862D02*
G03Y179138I506J-862D01*
G01Y170862D02*
G03Y179138I-2433J4138D01*
G01Y170862D02*
G03Y169138I506J-862D01*
G01Y160862D02*
G03Y169138I-2433J4138D01*
G01Y160862D02*
G03Y159138I506J-862D01*
G01Y150862D02*
G03Y159138I-2433J4138D01*
G01Y150862D02*
G03Y149138I506J-862D01*
G01Y140862D02*
G03Y149138I-2433J4138D01*
G01Y140862D02*
G03Y139138I506J-862D01*
G01Y130862D02*
G03Y139138I-2433J4138D01*
G01Y130862D02*
G03Y129138I506J-862D01*
G01Y120862D02*
G03Y129138I-2433J4138D01*
G01Y120862D02*
G03Y119138I506J-862D01*
G01Y110862D02*
G03Y119138I-2433J4138D01*
G01Y110862D02*
G03Y109138I506J-862D01*
G01X287567D02*
G03X292433I2433J-4138D01*
G01X287567D02*
G03Y110862I-506J862D01*
G01Y119138D02*
G03Y110862I2433J-4138D01*
G01Y119138D02*
G03Y120862I-506J862D01*
G01Y129138D02*
G03Y120862I2433J-4138D01*
G01Y129138D02*
G03Y130862I-506J862D01*
G01Y139138D02*
G03Y130862I2433J-4138D01*
G01Y139138D02*
G03Y140862I-506J862D01*
G01Y149138D02*
G03Y140862I2433J-4138D01*
G01Y149138D02*
G03Y150862I-506J862D01*
G01Y159138D02*
G03Y150862I2433J-4138D01*
G01Y159138D02*
G03Y160862I-506J862D01*
G01Y169138D02*
G03Y160862I2433J-4138D01*
G01Y169138D02*
G03Y170862I-506J862D01*
G01Y179138D02*
G03Y170862I2433J-4138D01*
G01Y179138D02*
G03Y180862I-506J862D01*
G01Y189138D02*
G03Y180862I2433J-4138D01*
G01Y189138D02*
G03Y190862I-506J862D01*
G01Y199138D02*
G03Y190862I2433J-4138D01*
G01Y199138D02*
G03Y200862I-506J862D01*
G01Y209138D02*
G03Y200862I2433J-4138D01*
G01Y209138D02*
G03Y210862I-506J862D01*
G01Y219138D02*
G03Y210862I2433J-4138D01*
G01Y219138D02*
G03Y220862I-506J862D01*
G01Y229138D02*
G03Y220862I2433J-4138D01*
G01Y229138D02*
G03Y230862I-506J862D01*
G01Y239138D02*
G03Y230862I2433J-4138D01*
G01Y239138D02*
G03Y240862I-506J862D01*
G01Y249138D02*
G03Y240862I2433J-4138D01*
G01Y249138D02*
G03Y250862I-506J862D01*
G01Y259138D02*
G03Y250862I2433J-4138D01*
G01Y259138D02*
G03Y260862I-506J862D01*
G01Y269138D02*
G03Y260862I2433J-4138D01*
G01Y269138D02*
G03Y270862I-506J862D01*
G01Y279138D02*
G03Y270862I2433J-4138D01*
G01Y279138D02*
G03Y280862I-506J862D01*
G01Y289138D02*
G03Y280862I2433J-4138D01*
G01Y289138D02*
G03Y290862I-506J862D01*
G01X292433D02*
G03X287567I-2433J4138D01*
G01X232433D02*
G03Y289138I506J-862D01*
G01Y280862D02*
G03Y289138I-2433J4138D01*
G01Y280862D02*
G03Y279138I506J-862D01*
G01Y270862D02*
G03Y279138I-2433J4138D01*
G01Y270862D02*
G03Y269138I506J-862D01*
G01Y260862D02*
G03Y269138I-2433J4138D01*
G01Y260862D02*
G03Y259138I506J-862D01*
G01Y250862D02*
G03Y259138I-2433J4138D01*
G01Y250862D02*
G03Y249138I506J-862D01*
G01Y240862D02*
G03Y249138I-2433J4138D01*
G01Y240862D02*
G03Y239138I506J-862D01*
G01Y230862D02*
G03Y239138I-2433J4138D01*
G01Y230862D02*
G03Y229138I506J-862D01*
G01Y220862D02*
G03Y229138I-2433J4138D01*
G01Y220862D02*
G03Y219138I506J-862D01*
G01Y210862D02*
G03Y219138I-2433J4138D01*
G01Y210862D02*
G03Y209138I506J-862D01*
G01Y200862D02*
G03Y209138I-2433J4138D01*
G01Y200862D02*
G03Y199138I506J-862D01*
G01Y190862D02*
G03Y199138I-2433J4138D01*
G01Y190862D02*
G03Y189138I506J-862D01*
G01Y180862D02*
G03Y189138I-2433J4138D01*
G01Y180862D02*
G03Y179138I506J-862D01*
G01Y170862D02*
G03Y179138I-2433J4138D01*
G01Y170862D02*
G03Y169138I506J-862D01*
G01Y160862D02*
G03Y169138I-2433J4138D01*
G01Y160862D02*
G03Y159138I506J-862D01*
G01Y150862D02*
G03Y159138I-2433J4138D01*
G01Y150862D02*
G03Y149138I506J-862D01*
G01Y140862D02*
G03Y149138I-2433J4138D01*
G01Y140862D02*
G03Y139138I506J-862D01*
G01Y130862D02*
G03Y139138I-2433J4138D01*
G01Y130862D02*
G03Y129138I506J-862D01*
G01Y120862D02*
G03Y129138I-2433J4138D01*
G01Y120862D02*
G03Y119138I506J-862D01*
G01Y110862D02*
G03Y119138I-2433J4138D01*
G01Y110862D02*
G03Y109138I506J-862D01*
G01X225200Y105000D02*
G03X232433Y109138I4800J0D01*
G01X225200Y105000D02*
X225200D01*
X225212Y105340D02*
G03X225200Y105000I4788J-340D01*
G01X225212Y105340D02*
G03X225215Y105411I-997J71D01*
G01X225215*
G03X224922Y106118I-1000J0*
G01X224133Y106907*
G03X223426Y107200I-707J-707*
G01X205675*
G03X204675Y106200I-0J-1000*
G01X204675*
G03X204696Y105993I1000J-0*
G01X195862Y102567D02*
G03X204696Y105993I4138J2433D01*
G01X195862Y102567D02*
G03X194138I-862J-506D01*
G01X187567Y109138D02*
G03X194138Y102567I2433J-4138D01*
G01X187567Y109138D02*
G03Y110862I-506J862D01*
G01Y119138D02*
G03Y110862I2433J-4138D01*
G01Y119138D02*
G03Y120862I-506J862D01*
G01Y129138D02*
G03Y120862I2433J-4138D01*
G01Y129138D02*
G03Y130862I-506J862D01*
G01Y139138D02*
G03Y130862I2433J-4138D01*
G01Y139138D02*
G03Y140862I-506J862D01*
G01Y149138D02*
G03Y140862I2433J-4138D01*
G01Y149138D02*
G03Y150862I-506J862D01*
G01Y159138D02*
G03Y150862I2433J-4138D01*
G01Y159138D02*
G03Y160862I-506J862D01*
G01Y169138D02*
G03Y160862I2433J-4138D01*
G01Y169138D02*
G03Y170862I-506J862D01*
G01Y179138D02*
G03Y170862I2433J-4138D01*
G01Y179138D02*
G03Y180862I-506J862D01*
G01Y189138D02*
G03Y180862I2433J-4138D01*
G01Y189138D02*
G03Y190862I-506J862D01*
G01Y199138D02*
G03Y190862I2433J-4138D01*
G01Y199138D02*
G03Y200862I-506J862D01*
G01Y209138D02*
G03Y200862I2433J-4138D01*
G01Y209138D02*
G03Y210862I-506J862D01*
G01Y219138D02*
G03Y210862I2433J-4138D01*
G01Y219138D02*
G03Y220862I-506J862D01*
G01Y229138D02*
G03Y220862I2433J-4138D01*
G01Y229138D02*
G03Y230862I-506J862D01*
G01Y239138D02*
G03Y230862I2433J-4138D01*
G01Y239138D02*
G03Y240862I-506J862D01*
G01Y249138D02*
G03Y240862I2433J-4138D01*
G01Y249138D02*
G03Y250862I-506J862D01*
G01Y259138D02*
G03Y250862I2433J-4138D01*
G01Y259138D02*
G03Y260862I-506J862D01*
G01Y269138D02*
G03Y260862I2433J-4138D01*
G01Y269138D02*
G03Y270862I-506J862D01*
G01Y279138D02*
G03Y270862I2433J-4138D01*
G01Y279138D02*
G03Y280862I-506J862D01*
G01Y289138D02*
G03Y280862I2433J-4138D01*
G01Y289138D02*
G03Y290862I-506J862D01*
G01X190340Y299788D02*
G03X187567Y290862I-340J-4788D01*
G01X190340Y299788D02*
G03X191118Y300078I71J997D01*
G01X193020Y301980*
X195000Y302800D02*
G03X193020Y301980I0J-2800D01*
G01X195000Y302800D02*
X226000D01*
X227980Y301980D02*
G03X226000Y302800I-1980J-1980D01*
G01X227980Y301980D02*
X229899Y300061D01*
G03X230501Y299774I707J707*
G01X232433Y290862D02*
G03X230501Y299774I-2433J4138D01*
G01X143375Y240000D02*
G03X143375I-3375J0D01*
G01Y270000D02*
G03X143375I-3375J0D01*
G01Y300000D02*
G03X143375I-3375J0D01*
G01X140788Y93712D02*
G03X139212I-788J-616D01*
G01X130788D02*
G03X139212I4212J3288D01*
G01X130788D02*
G03X129212I-788J-616D01*
G01X120788D02*
G03X129212I4212J3288D01*
G01X120788D02*
G03X119212I-788J-616D01*
G01Y100288D02*
G03Y93712I-4212J-3288D01*
G01Y100288D02*
G03X120788I788J616D01*
G01X129212D02*
G03X120788I-4212J-3288D01*
G01X129212D02*
G03X130788I788J616D01*
G01X139212D02*
G03X130788I-4212J-3288D01*
G01X139212D02*
G03X140788I788J616D01*
G01Y93712D02*
G03Y100288I4212J3288D01*
G01X153288Y215788D02*
G03Y214212I616J-788D01*
G01Y205788D02*
G03Y214212I-3288J4212D01*
G01Y205788D02*
G03Y204212I616J-788D01*
G01Y195788D02*
G03Y204212I-3288J4212D01*
G01Y195788D02*
G03Y194212I616J-788D01*
G01X154138Y186619D02*
G03X153288Y194212I-4138J3381D01*
G01X154138Y186619D02*
G03X153912Y185986I774J-633D01*
X154423Y185114I1000J0*
G01X155343Y183543D02*
G03X154423Y185114I-1800J0D01*
G01X155343Y183543D02*
Y176457D01*
X153543Y174657D02*
G03X155343Y176457I0J1800D01*
G01X153543Y174657D02*
X146457D01*
X144657Y176457D02*
G03X146457Y174657I1800J-0D01*
G01X144657Y176457D02*
Y183543D01*
X145309Y184930D02*
G03X144657Y183543I1148J-1387D01*
G01X145309Y184930D02*
G03X144671Y186700I-638J770D01*
G01X129329*
G03X128691Y184930I0J-1000*
G01X129343Y183543D02*
G03X128691Y184930I-1800J0D01*
G01X129343Y183543D02*
Y176457D01*
X127543Y174657D02*
G03X129343Y176457I0J1800D01*
G01X127543Y174657D02*
X120457D01*
X118886Y175577D02*
G03X120457Y174657I1571J880D01*
G01X118886Y175577D02*
G03X117381Y175862I-872J-489D01*
G01X110712Y184212D02*
G03X117381Y175862I3288J-4212D01*
G01X110712Y184212D02*
G03Y185788I-616J788D01*
G01Y194212D02*
G03Y185788I3288J-4212D01*
G01Y194212D02*
G03Y195788I-616J788D01*
G01Y204212D02*
G03Y195788I3288J-4212D01*
G01Y204212D02*
G03Y205788I-616J788D01*
G01Y214212D02*
G03Y205788I3288J-4212D01*
G01Y214212D02*
G03Y215788I-616J788D01*
G01X118212Y223288D02*
G03X110712Y215788I-4212J-3288D01*
G01X118212Y223288D02*
G03X119788I788J616D01*
G01X127928Y223622D02*
G03X119788Y223288I-3928J-3622D01*
G01X127928Y223622D02*
G03X128663Y223300I735J678D01*
G01X145337*
G03X146072Y223622I-0J1000*
G01X153288Y215788D02*
G03X146072Y223622I-3288J4212D01*
G01X143375Y130000D02*
G03X143375I-3375J0D01*
G01Y160000D02*
G03X143375I-3375J0D01*
G01X94800Y325599D02*
X328200D01*
X94800Y323799D02*
X328200D01*
X94800Y321999D02*
X328200D01*
X94800Y320199D02*
X328200D01*
X94800Y318399D02*
X328200D01*
X94800Y316599D02*
X328200D01*
X94800Y314799D02*
X328200D01*
X311548Y312999D02*
X328200D01*
X313155Y311199D02*
X328200D01*
X313321Y309399D02*
X328200D01*
X312371Y307599D02*
X328200D01*
X94800Y305799D02*
X328200D01*
X94800Y303999D02*
X328200D01*
X227734Y302199D02*
X328200D01*
X229561Y300399D02*
X328200D01*
X293176Y298599D02*
X328200D01*
X294450Y296799D02*
X328200D01*
X294800Y294999D02*
X328200D01*
X294449Y293199D02*
X328200D01*
X293173Y291399D02*
X328200D01*
X292023Y289599D02*
X328200D01*
X293900Y287799D02*
X328200D01*
X294695Y285999D02*
X328200D01*
X294733Y284199D02*
X328200D01*
X312374Y282399D02*
X328200D01*
X313321Y280599D02*
X328200D01*
X313154Y278799D02*
X328200D01*
X311543Y276999D02*
X328200D01*
X294796Y275199D02*
X328200D01*
X294525Y273399D02*
X328200D01*
X293387Y271599D02*
X328200D01*
X291960Y269799D02*
X328200D01*
X293748Y267999D02*
X328200D01*
X294648Y266199D02*
X328200D01*
X294762Y264399D02*
X328200D01*
X294156Y262599D02*
X328200D01*
X292338Y260799D02*
X328200D01*
X292655Y258999D02*
X328200D01*
X294267Y257199D02*
X328200D01*
X294783Y255399D02*
X328200D01*
X294591Y253599D02*
X328200D01*
X312856Y251799D02*
X328200D01*
X313375Y249999D02*
X328200D01*
X312854Y248199D02*
X328200D01*
X294592Y246399D02*
X328200D01*
X294783Y244599D02*
X328200D01*
X294266Y242799D02*
X328200D01*
X292651Y240999D02*
X328200D01*
X292341Y239199D02*
X328200D01*
X294158Y237399D02*
X328200D01*
X294763Y235599D02*
X328200D01*
X294647Y233799D02*
X328200D01*
X293746Y231999D02*
X328200D01*
X291959Y230199D02*
X328200D01*
X293390Y228399D02*
X328200D01*
X294526Y226599D02*
X328200D01*
X294796Y224799D02*
X328200D01*
X311548Y222999D02*
X328200D01*
X313155Y221199D02*
X328200D01*
X313321Y219399D02*
X328200D01*
X312371Y217599D02*
X328200D01*
X294733Y215799D02*
X328200D01*
X294694Y213999D02*
X328200D01*
X293898Y212199D02*
X328200D01*
X292022Y210399D02*
X328200D01*
X293176Y208599D02*
X328200D01*
X294450Y206799D02*
X328200D01*
X294800Y204999D02*
X328200D01*
X294449Y203199D02*
X328200D01*
X293173Y201399D02*
X328200D01*
X292023Y199599D02*
X328200D01*
X293900Y197799D02*
X328200D01*
X294695Y195999D02*
X328200D01*
X294733Y194199D02*
X328200D01*
X312374Y192399D02*
X328200D01*
X313321Y190599D02*
X328200D01*
X313154Y188799D02*
X328200D01*
X311543Y186999D02*
X328200D01*
X294796Y185199D02*
X328200D01*
X294525Y183399D02*
X328200D01*
X293387Y181599D02*
X328200D01*
X291960Y179799D02*
X328200D01*
X293748Y177999D02*
X328200D01*
X294648Y176199D02*
X328200D01*
X294762Y174399D02*
X328200D01*
X294156Y172599D02*
X328200D01*
X292338Y170799D02*
X328200D01*
X292655Y168999D02*
X328200D01*
X294267Y167199D02*
X328200D01*
X294783Y165399D02*
X328200D01*
X294591Y163599D02*
X328200D01*
X312856Y161799D02*
X328200D01*
X313375Y159999D02*
X328200D01*
X312854Y158199D02*
X328200D01*
X294592Y156399D02*
X328200D01*
X294783Y154599D02*
X328200D01*
X294266Y152799D02*
X328200D01*
X292651Y150999D02*
X328200D01*
X292341Y149199D02*
X328200D01*
X294158Y147399D02*
X328200D01*
X294763Y145599D02*
X328200D01*
X294647Y143799D02*
X328200D01*
X293746Y141999D02*
X328200D01*
X291959Y140199D02*
X328200D01*
X293390Y138399D02*
X328200D01*
X294526Y136599D02*
X328200D01*
X294796Y134799D02*
X328200D01*
X311548Y132999D02*
X328200D01*
X313155Y131199D02*
X328200D01*
X313321Y129399D02*
X328200D01*
X312371Y127599D02*
X328200D01*
X294733Y125799D02*
X328200D01*
X294694Y123999D02*
X328200D01*
X293898Y122199D02*
X328200D01*
X292022Y120399D02*
X328200D01*
X293176Y118599D02*
X328200D01*
X294450Y116799D02*
X328200D01*
X294800Y114999D02*
X328200D01*
X294449Y113199D02*
X328200D01*
X293173Y111399D02*
X328200D01*
X292023Y109599D02*
X328200D01*
X293900Y107799D02*
X328200D01*
X294695Y105999D02*
X328200D01*
X294733Y104199D02*
X328200D01*
X312374Y102399D02*
X328200D01*
X313321Y100599D02*
X328200D01*
X313154Y98799D02*
X328200D01*
X311543Y96999D02*
X328200D01*
X150031Y95199D02*
X328200D01*
X148947Y93399D02*
X328200D01*
X94800Y91599D02*
X328200D01*
X94800Y89799D02*
X328200D01*
X94800Y87999D02*
X328200D01*
X94800Y86199D02*
X328200D01*
X94800Y84399D02*
X328200D01*
X94800Y82599D02*
X328200D01*
X94800Y80799D02*
X328200D01*
X94800Y78999D02*
X328200D01*
X94800Y77199D02*
X328200D01*
X94800Y75399D02*
X328200D01*
X94800Y73599D02*
X328200D01*
X94820Y327399D02*
X328180D01*
X294364Y276999D02*
X308457D01*
X294364Y186999D02*
X308457D01*
X150343Y96999D02*
X308457D01*
X94800Y312999D02*
X308452D01*
X294363Y222999D02*
X308452D01*
X294363Y132999D02*
X308452D01*
X94800Y307599D02*
X307629D01*
X294036Y217599D02*
X307629D01*
X294036Y127599D02*
X307629D01*
X294034Y282399D02*
X307626D01*
X294034Y192399D02*
X307626D01*
X294034Y102399D02*
X307626D01*
X293579Y248199D02*
X307146D01*
X293579Y158199D02*
X307146D01*
X293577Y251799D02*
X307144D01*
X293577Y161799D02*
X307144D01*
X292934Y278799D02*
X306846D01*
X292934Y188799D02*
X306846D01*
X150031Y98799D02*
X306846D01*
X94800Y311199D02*
X306845D01*
X292931Y221199D02*
X306845D01*
X292931Y131199D02*
X306845D01*
X94800Y309399D02*
X306679D01*
X292140Y219399D02*
X306679D01*
X292140Y129399D02*
X306679D01*
X292138Y280599D02*
X306679D01*
X292138Y190599D02*
X306679D01*
X291915Y100599D02*
X306679D01*
X291939Y249999D02*
X306625D01*
X291939Y159999D02*
X306625D01*
X231915Y100599D02*
X288085D01*
X231939Y249999D02*
X288061D01*
X231939Y159999D02*
X288061D01*
X231959Y230199D02*
X288041D01*
X231959Y140199D02*
X288041D01*
X231960Y269799D02*
X288040D01*
X231960Y179799D02*
X288040D01*
X232022Y210399D02*
X287978D01*
X232022Y120399D02*
X287978D01*
X232023Y289599D02*
X287977D01*
X232023Y199599D02*
X287977D01*
X232023Y109599D02*
X287977D01*
X232138Y280599D02*
X287862D01*
X232138Y190599D02*
X287862D01*
X232140Y219399D02*
X287860D01*
X232140Y129399D02*
X287860D01*
X232338Y260799D02*
X287662D01*
X232338Y170799D02*
X287662D01*
X232341Y239199D02*
X287659D01*
X232341Y149199D02*
X287659D01*
X232651Y240999D02*
X287349D01*
X232651Y150999D02*
X287349D01*
X232655Y258999D02*
X287345D01*
X232655Y168999D02*
X287345D01*
X232931Y221199D02*
X287069D01*
X232931Y131199D02*
X287069D01*
X232934Y278799D02*
X287066D01*
X232934Y188799D02*
X287066D01*
X233173Y291399D02*
X286827D01*
X233173Y201399D02*
X286827D01*
X233173Y111399D02*
X286827D01*
X233176Y298599D02*
X286824D01*
X233176Y208599D02*
X286824D01*
X233176Y118599D02*
X286824D01*
X233387Y271599D02*
X286613D01*
X233387Y181599D02*
X286613D01*
X233390Y228399D02*
X286610D01*
X233390Y138399D02*
X286610D01*
X233577Y251799D02*
X286423D01*
X233577Y161799D02*
X286423D01*
X233579Y248199D02*
X286421D01*
X233579Y158199D02*
X286421D01*
X233746Y231999D02*
X286254D01*
X233746Y141999D02*
X286254D01*
X233748Y267999D02*
X286252D01*
X233748Y177999D02*
X286252D01*
X233898Y212199D02*
X286102D01*
X233898Y122199D02*
X286102D01*
X233900Y287799D02*
X286100D01*
X233900Y197799D02*
X286100D01*
X233900Y107799D02*
X286100D01*
X234034Y282399D02*
X285966D01*
X234034Y192399D02*
X285966D01*
X234034Y102399D02*
X285966D01*
X234036Y217599D02*
X285964D01*
X234036Y127599D02*
X285964D01*
X234156Y262599D02*
X285844D01*
X234156Y172599D02*
X285844D01*
X234158Y237399D02*
X285842D01*
X234158Y147399D02*
X285842D01*
X234266Y242799D02*
X285734D01*
X234266Y152799D02*
X285734D01*
X234267Y257199D02*
X285733D01*
X234267Y167199D02*
X285733D01*
X234363Y222999D02*
X285637D01*
X234363Y132999D02*
X285637D01*
X234364Y276999D02*
X285636D01*
X234364Y186999D02*
X285636D01*
X234449Y293199D02*
X285551D01*
X234449Y203199D02*
X285551D01*
X234449Y113199D02*
X285551D01*
X234450Y296799D02*
X285550D01*
X234450Y206799D02*
X285550D01*
X234450Y116799D02*
X285550D01*
X234525Y273399D02*
X285475D01*
X234525Y183399D02*
X285475D01*
X234526Y226599D02*
X285474D01*
X234526Y136599D02*
X285474D01*
X234591Y253599D02*
X285409D01*
X234591Y163599D02*
X285409D01*
X234592Y246399D02*
X285408D01*
X234592Y156399D02*
X285408D01*
X234647Y233799D02*
X285353D01*
X234647Y143799D02*
X285353D01*
X234648Y266199D02*
X285352D01*
X234648Y176199D02*
X285352D01*
X234694Y213999D02*
X285306D01*
X234694Y123999D02*
X285306D01*
X234695Y285999D02*
X285305D01*
X234695Y195999D02*
X285305D01*
X234695Y105999D02*
X285305D01*
X234733Y284199D02*
X285267D01*
X234733Y194199D02*
X285267D01*
X234733Y104199D02*
X285267D01*
X234733Y215799D02*
X285267D01*
X234733Y125799D02*
X285267D01*
X234762Y264399D02*
X285238D01*
X234762Y174399D02*
X285238D01*
X234763Y235599D02*
X285237D01*
X234763Y145599D02*
X285237D01*
X234783Y244599D02*
X285217D01*
X234783Y154599D02*
X285217D01*
X234783Y255399D02*
X285217D01*
X234783Y165399D02*
X285217D01*
X234796Y224799D02*
X285204D01*
X234796Y134799D02*
X285204D01*
X234796Y275199D02*
X285204D01*
X234796Y185199D02*
X285204D01*
X234800Y294999D02*
X285200D01*
X234800Y204999D02*
X285200D01*
X234800Y114999D02*
X285200D01*
X201915Y100599D02*
X228085D01*
X204034Y102399D02*
X225966D01*
X204733Y104199D02*
X225267D01*
X204695Y105999D02*
X225024D01*
X191915Y100599D02*
X198085D01*
X194034Y102399D02*
X195966D01*
X142560Y302199D02*
X193266D01*
X143351Y300399D02*
X191439D01*
X148950Y100599D02*
X188085D01*
X94800Y249999D02*
X188061D01*
X143375Y159999D02*
X188061D01*
X94800Y230199D02*
X188041D01*
X94800Y140199D02*
X188041D01*
X143369Y269799D02*
X188040D01*
X155343Y179799D02*
X188040D01*
X155328Y210399D02*
X187978D01*
X94800Y120399D02*
X187978D01*
X94800Y289599D02*
X187977D01*
X155328Y199599D02*
X187977D01*
X94800Y109599D02*
X187977D01*
X94800Y280599D02*
X187862D01*
X155310Y190599D02*
X187862D01*
X155309Y219399D02*
X187860D01*
X143321Y129399D02*
X187860D01*
X94800Y260799D02*
X187662D01*
X94800Y170799D02*
X187662D01*
X143278Y239199D02*
X187659D01*
X94800Y149199D02*
X187659D01*
X143224Y240999D02*
X187349D01*
X94800Y150999D02*
X187349D01*
X94800Y258999D02*
X187345D01*
X94800Y168999D02*
X187345D01*
X155207Y221199D02*
X187069D01*
X143155Y131199D02*
X187069D01*
X94800Y278799D02*
X187066D01*
X155207Y188799D02*
X187066D01*
X94800Y291399D02*
X186827D01*
X155157Y201399D02*
X186827D01*
X94800Y111399D02*
X186827D01*
X143070Y298599D02*
X186824D01*
X155156Y208599D02*
X186824D01*
X94800Y118599D02*
X186824D01*
X142972Y271599D02*
X186613D01*
X155343Y181599D02*
X186613D01*
X94800Y228399D02*
X186610D01*
X94800Y138399D02*
X186610D01*
X94800Y251799D02*
X186423D01*
X142856Y161799D02*
X186423D01*
X94800Y248199D02*
X186421D01*
X142854Y158199D02*
X186421D01*
X94800Y231999D02*
X186254D01*
X94800Y141999D02*
X186254D01*
X142717Y267999D02*
X186252D01*
X155343Y177999D02*
X186252D01*
X154870Y212199D02*
X186102D01*
X94800Y122199D02*
X186102D01*
X94800Y287799D02*
X186100D01*
X154869Y197799D02*
X186100D01*
X94800Y107799D02*
X186100D01*
X94800Y282399D02*
X185966D01*
X154775Y192399D02*
X185966D01*
X94800Y102399D02*
X185966D01*
X154773Y217599D02*
X185964D01*
X142371Y127599D02*
X185964D01*
X94800Y262599D02*
X185844D01*
X94800Y172599D02*
X185844D01*
X142150Y237399D02*
X185842D01*
X94800Y147399D02*
X185842D01*
X141886Y242799D02*
X185734D01*
X105315Y152799D02*
X185734D01*
X94800Y257199D02*
X185733D01*
X94800Y167199D02*
X185733D01*
X154423Y222999D02*
X185637D01*
X141548Y132999D02*
X185637D01*
X94800Y276999D02*
X185636D01*
X154421Y186999D02*
X185636D01*
X94800Y293199D02*
X185551D01*
X154280Y203199D02*
X185551D01*
X94800Y113199D02*
X185551D01*
X141068Y296799D02*
X185550D01*
X154278Y206799D02*
X185550D01*
X94800Y116799D02*
X185550D01*
X94800Y273399D02*
X185475D01*
X155343Y183399D02*
X185475D01*
X94800Y226599D02*
X185474D01*
X94800Y136599D02*
X185474D01*
X94800Y253599D02*
X185409D01*
X109799Y163599D02*
X185409D01*
X108308Y246399D02*
X185408D01*
X110029Y156399D02*
X185408D01*
X108304Y233799D02*
X185353D01*
X94800Y143799D02*
X185353D01*
X94800Y266199D02*
X185352D01*
X155325Y176199D02*
X185352D01*
X153544Y213999D02*
X185306D01*
X94800Y123999D02*
X185306D01*
X94800Y285999D02*
X185305D01*
X153541Y195999D02*
X185305D01*
X94800Y105999D02*
X185305D01*
X94800Y284199D02*
X185267D01*
X153305Y194199D02*
X185267D01*
X94800Y104199D02*
X185267D01*
X153302Y215799D02*
X185267D01*
X94800Y125799D02*
X185267D01*
X94800Y264399D02*
X185238D01*
X94800Y174399D02*
X185238D01*
X110162Y235599D02*
X185237D01*
X94800Y145599D02*
X185237D01*
X110164Y244599D02*
X185217D01*
X108657Y154599D02*
X185217D01*
X94800Y255399D02*
X185217D01*
X108203Y165399D02*
X185217D01*
X152350Y224799D02*
X185204D01*
X94800Y134799D02*
X185204D01*
X94800Y275199D02*
X185204D01*
X154295Y185199D02*
X185204D01*
X94800Y294999D02*
X185200D01*
X152904Y204999D02*
X185200D01*
X94800Y114999D02*
X185200D01*
X126350Y224799D02*
X147650D01*
X128464Y185199D02*
X145536D01*
X129325Y176199D02*
X144675D01*
X129343Y183399D02*
X144657D01*
X129343Y181599D02*
X144657D01*
X129343Y179799D02*
X144657D01*
X129343Y177999D02*
X144657D01*
X138947Y93399D02*
X141053D01*
X138950Y100599D02*
X141050D01*
X94800Y296799D02*
X138932D01*
X94800Y132999D02*
X138452D01*
X111138Y242799D02*
X138114D01*
X111137Y237399D02*
X137850D01*
X94800Y127599D02*
X137629D01*
X94800Y302199D02*
X137440D01*
X94800Y267999D02*
X137283D01*
X110704Y158199D02*
X137146D01*
X110602Y161799D02*
X137144D01*
X94800Y271599D02*
X137028D01*
X94800Y298599D02*
X136930D01*
X94800Y131199D02*
X136845D01*
X111578Y240999D02*
X136776D01*
X111578Y239199D02*
X136722D01*
X94800Y129399D02*
X136679D01*
X94800Y300399D02*
X136649D01*
X94800Y269799D02*
X136631D01*
X110882Y159999D02*
X136625D01*
X128947Y93399D02*
X131053D01*
X128950Y100599D02*
X131050D01*
X116350Y224799D02*
X121650D01*
X118947Y93399D02*
X121053D01*
X118950Y100599D02*
X121050D01*
X118574Y222999D02*
X119426D01*
X94800Y224799D02*
X111650D01*
X94800Y204999D02*
X111096D01*
X94800Y185199D02*
X111076D01*
X94800Y93399D02*
X111053D01*
X94800Y100599D02*
X111050D01*
X94800Y215799D02*
X110698D01*
X94800Y194199D02*
X110695D01*
X94800Y195999D02*
X110459D01*
X94800Y213999D02*
X110456D01*
X94800Y176199D02*
X110245D01*
X94800Y95199D02*
X109969D01*
X94800Y98799D02*
X109969D01*
X94800Y183399D02*
X109877D01*
X94800Y206799D02*
X109722D01*
X94800Y203199D02*
X109720D01*
X94800Y96999D02*
X109657D01*
X94800Y186999D02*
X109579D01*
X94800Y222999D02*
X109577D01*
X94800Y217599D02*
X109227D01*
X94800Y192399D02*
X109225D01*
X94800Y197799D02*
X109131D01*
X94800Y212199D02*
X109130D01*
X94800Y177999D02*
X109046D01*
X94800Y181599D02*
X108901D01*
X94800Y208599D02*
X108844D01*
X94800Y201399D02*
X108843D01*
X94800Y188799D02*
X108793D01*
X94800Y221199D02*
X108793D01*
X94800Y219399D02*
X108691D01*
X94800Y190599D02*
X108690D01*
X94800Y199599D02*
X108672D01*
X94800Y210399D02*
X108672D01*
X94800Y179799D02*
X108660D01*
X94800Y152799D02*
X102085D01*
X94800Y233799D02*
X99696D01*
X94800Y246399D02*
X99692D01*
X94800Y165399D02*
X99197D01*
X94800Y154599D02*
X98743D01*
X94800Y235599D02*
X97838D01*
X94800Y244599D02*
X97836D01*
X94800Y163599D02*
X97601D01*
X94800Y156399D02*
X97371D01*
X94800Y237399D02*
X96863D01*
X94800Y242799D02*
X96862D01*
X94810Y161799D02*
X96798D01*
X94959Y158199D02*
X96641D01*
X93000Y70000D02*
X330000D01*
Y330000*
X93000*
Y70000*
X109085Y159800D02*
G03X109085I-5385J0D01*
G01X109831Y240100D02*
G03X109831I-5831J0D01*
G54D34*
G01X140000Y130000D03*
X310000Y100000D03*
Y130000D03*
X140000Y160000D03*
X310000Y220000D03*
Y190000D03*
Y160000D03*
X140000Y240000D03*
Y300000D03*
Y270000D03*
X310000Y280000D03*
Y250000D03*
Y310000D03*
G54D35*
X124000Y180000D03*
X150000D03*
G54D36*
X124000Y190000D03*
Y200000D03*
Y210000D03*
Y220000D03*
X114000D03*
Y210000D03*
Y200000D03*
Y190000D03*
Y180000D03*
X150000Y190000D03*
Y200000D03*
Y210000D03*
Y220000D03*
X135000Y97000D03*
X125000D03*
X115000D03*
X145000D03*
G54D52*
X312386Y312386D02*
X311114Y311114D01*
X307614Y312386D02*
X308886Y311114D01*
X307614Y307614D02*
X308886Y308886D01*
X312386Y307614D02*
X311114Y308886D01*
X312386Y282386D02*
X311114Y281114D01*
X307614Y282386D02*
X308886Y281114D01*
X307614Y277614D02*
X308886Y278886D01*
X312386Y277614D02*
X311114Y278886D01*
X312386Y252386D02*
X311114Y251114D01*
X307614Y252386D02*
X308886Y251114D01*
X307614Y247614D02*
X308886Y248886D01*
X312386Y247614D02*
X311114Y248886D01*
X312386Y222386D02*
X311114Y221114D01*
X307614Y222386D02*
X308886Y221114D01*
X307614Y217614D02*
X308886Y218886D01*
X312386Y217614D02*
X311114Y218886D01*
X312386Y192386D02*
X311114Y191114D01*
X307614Y192386D02*
X308886Y191114D01*
X307614Y187614D02*
X308886Y188886D01*
X312386Y187614D02*
X311114Y188886D01*
X312386Y162386D02*
X311114Y161114D01*
X307614Y162386D02*
X308886Y161114D01*
X307614Y157614D02*
X308886Y158886D01*
X312386Y157614D02*
X311114Y158886D01*
X312386Y132386D02*
X311114Y131114D01*
X307614Y132386D02*
X308886Y131114D01*
X307614Y127614D02*
X308886Y128886D01*
X312386Y127614D02*
X311114Y128886D01*
X312386Y102386D02*
X311114Y101114D01*
X307614Y102386D02*
X308886Y101114D01*
X307614Y97614D02*
X308886Y98886D01*
X312386Y97614D02*
X311114Y98886D01*
X142386Y302386D02*
X141114Y301114D01*
X137614Y302386D02*
X138886Y301114D01*
X137614Y297614D02*
X138886Y298886D01*
X142386Y297614D02*
X141114Y298886D01*
X142386Y272386D02*
X141114Y271114D01*
X137614Y272386D02*
X138886Y271114D01*
X137614Y267614D02*
X138886Y268886D01*
X142386Y267614D02*
X141114Y268886D01*
X142386Y242386D02*
X141114Y241114D01*
X137614Y242386D02*
X138886Y241114D01*
X137614Y237614D02*
X138886Y238886D01*
X142386Y237614D02*
X141114Y238886D01*
X142386Y162386D02*
X141114Y161114D01*
X137614Y162386D02*
X138886Y161114D01*
X137614Y157614D02*
X138886Y158886D01*
X142386Y157614D02*
X141114Y158886D01*
X142386Y132386D02*
X141114Y131114D01*
X137614Y132386D02*
X138886Y131114D01*
X137614Y127614D02*
X138886Y128886D01*
X142386Y127614D02*
X141114Y128886D01*
G54D80*
X124000Y220000D02*
X150000D01*
X124000Y210000D02*
X150000D01*
X124000Y200000D02*
X150000D01*
X124000Y190000D02*
X150000D01*
X124000Y180000D02*
X150000D01*
G54D81*
X115000Y97000D02*
X125000D01*
X135000*
X145000*
X230000Y296000D02*
Y295000D01*
G74*
X0Y0D02*
M02*
