M48
;FILE_FORMAT=2:4
INCH,LZ
FMAT,2
ICI,OFF
;TYPE=PLATED
T1C.01575
T2C.035
T3C.03937
%
M72
G90
G93X0Y0
T1C.01575F095S3
X014Y013
X014Y016
X014Y024
X014Y027
X014Y03
X031Y031
X031Y028
X031Y025
X031Y022
X031Y019
X031Y016
X031Y013
X031Y01
T2C.035F197S55
X02Y0105
X019Y0105
X02Y0115
X019Y0115
X02Y0125
X019Y0125
X02Y0135
X019Y0135
X02Y0145
X019Y0145
X02Y0155
X019Y0155
X02Y0165
X019Y0165
X019Y0175
X02Y0175
X019Y0185
X02Y0185
X019Y0195
X02Y0195
X019Y0205
X02Y0205
X019Y0215
X02Y0215
X019Y0225
X02Y0225
X019Y0235
X02Y0235
X019Y0245
X02Y0245
X019Y0255
X02Y0255
X019Y0265
X02Y0265
X02Y0275
X019Y0275
X019Y0285
X02Y0285
X02Y0295
X019Y0295
X023Y0295
X023Y0285
X023Y0275
X023Y0265
X023Y0255
X023Y0245
X023Y0235
X023Y0225
X023Y0215
X023Y0205
X023Y0195
X023Y0185
X023Y0175
X023Y0165
X023Y0155
X023Y0145
X023Y0135
X023Y0125
X023Y0115
X023Y0105
X029Y0105
X029Y0115
X029Y0125
X029Y0135
X029Y0145
X029Y0155
X029Y0165
X029Y0175
X029Y0185
X029Y0195
X029Y0205
X029Y0215
X029Y0225
X029Y0235
X029Y0245
X029Y0255
X029Y0265
X029Y0275
X029Y0285
X029Y0295
T3C.03937F197S55
X0135Y0097
X0125Y0097
X0115Y0097
X0114Y018
X0124Y018
X0114Y019
X0124Y019
X0114Y02
X0124Y02
X0124Y021
X0114Y021
X0124Y022
X0114Y022
X015Y022
X015Y021
X015Y02
X015Y019
X015Y018
X0145Y0097
M30
