*
*
G04 PADS VX.2.4 Build Number: 11282995 generated Gerber (RS-274-X) file*
G04 PC Version=2.1*
*
%IN "NewICE to OLDICE.pcb"*%
*
%MOIN*%
*
%FSLAX35Y35*%
*
*
*
*
G04 PC Standard Apertures*
*
*
G04 Thermal Relief Aperture macro.*
%AMTER*
1,1,$1,0,0*
1,0,$1-$2,0,0*
21,0,$3,$4,0,0,45*
21,0,$3,$4,0,0,135*
%
*
*
G04 Annular Aperture macro.*
%AMANN*
1,1,$1,0,0*
1,0,$2,0,0*
%
*
*
G04 Odd Aperture macro.*
%AMODD*
1,1,$1,0,0*
1,0,$1-0.005,0,0*
%
*
*
G04 PC Custom Aperture Macros*
*
*
*
*
*
*
G04 PC Aperture Table*
*
%ADD010C,0.001*%
%ADD023C,0.01*%
%ADD034C,0.0315*%
%ADD035R,0.07087X0.07087*%
%ADD036C,0.07087*%
%ADD052C,0.015*%
%ADD079R,0.07874X0.09055*%
%ADD080C,0.03*%
*
*
*
*
G04 PC Circuitry*
G04 Layer Name NewICE to OLDICE.pcb - circuitry*
%LPD*%
*
*
G04 PC Custom Flashes*
G04 Layer Name NewICE to OLDICE.pcb - flashes*
%LPD*%
*
*
G04 PC Circuitry*
G04 Layer Name NewICE to OLDICE.pcb - circuitry*
%LPD*%
*
G54D10*
G54D23*
G01X125200Y140000D02*
X249000D01*
Y260000*
X125200*
Y140000*
X140636Y239700D02*
G75*
G03X140636I-5636J0D01*
G01X140961Y159900D02*
G03X140961I-6061J0D01*
G54D34*
G01X200000Y160000D03*
X160000D03*
X200000Y190000D03*
X240000Y160000D03*
X200000Y240000D03*
X160000D03*
X240000D03*
G54D35*
X155000Y180000D03*
X240000Y220000D03*
G54D36*
X155000Y190000D03*
Y200000D03*
Y210000D03*
Y220000D03*
X145000D03*
Y210000D03*
Y200000D03*
Y190000D03*
Y180000D03*
X240000Y210000D03*
Y200000D03*
Y190000D03*
Y180000D03*
G54D52*
X202881Y192881D02*
X201114Y191114D01*
X197119Y192881D02*
X198886Y191114D01*
X197119Y187119D02*
X198886Y188886D01*
X202881Y187119D02*
X201114Y188886D01*
X242881Y162881D02*
X241114Y161114D01*
X237119Y162881D02*
X238886Y161114D01*
X237119Y157119D02*
X238886Y158886D01*
X242881Y157119D02*
X241114Y158886D01*
X202881Y162881D02*
X201114Y161114D01*
X197119Y162881D02*
X198886Y161114D01*
X197119Y157119D02*
X198886Y158886D01*
X202881Y157119D02*
X201114Y158886D01*
X162881Y162881D02*
X161114Y161114D01*
X157119Y162881D02*
X158886Y161114D01*
X157119Y157119D02*
X158886Y158886D01*
X162881Y157119D02*
X161114Y158886D01*
X162881Y242881D02*
X161114Y241114D01*
X157119Y242881D02*
X158886Y241114D01*
X157119Y237119D02*
X158886Y238886D01*
X162881Y237119D02*
X161114Y238886D01*
X202881Y242881D02*
X201114Y241114D01*
X197119Y242881D02*
X198886Y241114D01*
X197119Y237119D02*
X198886Y238886D01*
X202881Y237119D02*
X201114Y238886D01*
X242881Y242881D02*
X241114Y241114D01*
X237119Y242881D02*
X238886Y241114D01*
X237119Y237119D02*
X238886Y238886D01*
X242881Y237119D02*
X241114Y238886D01*
G54D79*
X191339Y220000D03*
X208661D03*
G54D80*
X155000Y180000D02*
X183600D01*
X191300Y187700*
Y219961*
X191339Y220000*
X208661D02*
X240000D01*
X204075Y160000D02*
G03X204075I-4075J0D01*
G01X164075D02*
G03X164075I-4075J0D01*
G01X204075Y240000D02*
G03X204075I-4075J0D01*
G01X164075D02*
G03X164075I-4075J0D01*
G01X246500Y256000D02*
G03X245000Y257500I-1500J-0D01*
G01X129200*
G03X127700Y256000I0J-1500*
G01Y247395*
G03X130103Y246197I1500J-0*
G01Y233203D02*
G03Y246197I4897J6497D01*
G01Y233203D02*
G03X127700Y232005I-903J-1198D01*
G01Y168190*
G03X130050Y166954I1500J0*
G01Y152846D02*
G03Y166954I4850J7054D01*
G01Y152846D02*
G03X127700Y151610I-850J-1236D01*
G01Y144000*
G03X129200Y142500I1500J0*
G01X245000*
G03X246500Y144000I-0J1500*
G01Y157534*
G03X243655Y158198I-1500J0*
G01Y161802D02*
G03Y158198I-3655J-1802D01*
G01Y161802D02*
G03X246500Y162466I1345J664D01*
G01Y174352*
G03X244006Y175475I-1500J-0*
G01X235475Y184006D02*
G03X244006Y175475I4525J-4006D01*
G01X235475Y184006D02*
G03Y185994I-1123J994D01*
G01Y194006D02*
G03Y185994I4525J-4006D01*
G01Y194006D02*
G03Y195994I-1123J994D01*
G01Y204006D02*
G03Y195994I4525J-4006D01*
G01Y204006D02*
G03Y205994I-1123J994D01*
G01X234774Y213035D02*
G03X235475Y205994I5226J-3035D01*
G01X234774Y213035D02*
G03X234594Y214789I-1297J753D01*
G01X234276Y215234D02*
G03X234594Y214789I2181J1223D01*
G01X234276Y215234D02*
G03X232968Y216000I-1308J-734D01*
G01X216478*
G03X215023Y214865I0J-1500*
G01X212598Y212972D02*
G03X215023Y214865I0J2500D01*
G01X212598Y212972D02*
X204724D01*
X202224Y215472D02*
G03X204724Y212972I2500J0D01*
G01X202224Y215472D02*
Y224528D01*
X204724Y227028D02*
G03X202224Y224528I0J-2500D01*
G01X204724Y227028D02*
X212598D01*
X215023Y225135D02*
G03X212598Y227028I-2425J-607D01*
G01X215023Y225135D02*
G03X216478Y224000I1455J365D01*
G01X232968*
G03X234276Y224766I-0J1500*
G01X236457Y226043D02*
G03X234276Y224766I-0J-2500D01*
G01X236457Y226043D02*
X243543D01*
X244454Y225872D02*
G03X243543Y226043I-911J-2329D01*
G01X244454Y225872D02*
G03X246500Y227269I546J1397D01*
G01Y237534*
G03X243655Y238198I-1500J0*
G01Y241802D02*
G03Y238198I-3655J-1802D01*
G01Y241802D02*
G03X246500Y242466I1345J664D01*
G01Y256000*
X204075Y160000D02*
G03X204075I-4075J0D01*
G01X164075D02*
G03X164075I-4075J0D01*
G01X197391Y186870D02*
G03X195031Y186258I-961J-1152D01*
G01X194128Y184872D02*
G03X195031Y186258I-2828J2828D01*
G01X194128Y184872D02*
X186428Y177172D01*
X183600Y176000D02*
G03X186428Y177172I-0J4000D01*
G01X183600Y176000D02*
X162032D01*
G03X160724Y175234I0J-1500*
G01X158543Y173957D02*
G03X160724Y175234I0J2500D01*
G01X158543Y173957D02*
X151457D01*
X149789Y174594D02*
G03X151457Y173957I1668J1863D01*
G01X149789Y174594D02*
G03X148035Y174774I-1001J-1117D01*
G01X140475Y184006D02*
G03X148035Y174774I4525J-4006D01*
G01X140475Y184006D02*
G03Y185994I-1123J994D01*
G01Y194006D02*
G03Y185994I4525J-4006D01*
G01Y194006D02*
G03Y195994I-1123J994D01*
G01Y204006D02*
G03Y195994I4525J-4006D01*
G01Y204006D02*
G03Y205994I-1123J994D01*
G01Y214006D02*
G03Y205994I4525J-4006D01*
G01Y214006D02*
G03Y215994I-1123J994D01*
G01X149006Y224525D02*
G03X140475Y215994I-4006J-4525D01*
G01X149006Y224525D02*
G03X150994I994J1123D01*
G01X159525Y215994D02*
G03X150994Y224525I-4525J4006D01*
G01X159525Y215994D02*
G03Y214006I1123J-994D01*
G01Y205994D02*
G03Y214006I-4525J4006D01*
G01Y205994D02*
G03Y204006I1123J-994D01*
G01Y195994D02*
G03Y204006I-4525J4006D01*
G01Y195994D02*
G03Y194006I1123J-994D01*
G01X160226Y186965D02*
G03X159525Y194006I-5226J3035D01*
G01X160226Y186965D02*
G03X160406Y185211I1297J-753D01*
G01X160724Y184766D02*
G03X160406Y185211I-2181J-1223D01*
G01X160724Y184766D02*
G03X162032Y184000I1308J734D01*
G01X181322*
G03X182382Y184439I-0J1500*
G01X186861Y188918*
G03X187300Y189978I-1061J1060*
G01Y211807*
G03X186401Y213182I-1500J0*
G01X184902Y215472D02*
G03X186401Y213182I2500J0D01*
G01X184902Y215472D02*
Y224528D01*
X187402Y227028D02*
G03X184902Y224528I-0J-2500D01*
G01X187402Y227028D02*
X195276D01*
X197776Y224528D02*
G03X195276Y227028I-2500J-0D01*
G01X197776Y224528D02*
Y215472D01*
X196228Y213161D02*
G03X197776Y215472I-952J2311D01*
G01X196228Y213161D02*
G03X195300Y211774I572J-1387D01*
G01Y194565*
G03X197661Y193337I1500J-0*
G01X197391Y186870D02*
G03X197661Y193337I2609J3130D01*
G01X204075Y240000D02*
G03X204075I-4075J0D01*
G01X164075D02*
G03X164075I-4075J0D01*
G01X127700Y255899D02*
X246500D01*
X127700Y253199D02*
X246500D01*
X127700Y250499D02*
X246500D01*
X135774Y247799D02*
X246500D01*
X141086Y245099D02*
X246500D01*
X242756Y236999D02*
X246500D01*
X141084Y234299D02*
X246500D01*
X135747Y231599D02*
X246500D01*
X127700Y228899D02*
X246500D01*
X127700Y172199D02*
X246500D01*
X127700Y169499D02*
X246500D01*
X139969Y166799D02*
X246500D01*
X142360Y164099D02*
X246500D01*
X240771Y155999D02*
X246500D01*
X140350Y153299D02*
X246500D01*
X127700Y150599D02*
X246500D01*
X127700Y147899D02*
X246500D01*
X127700Y145199D02*
X246500D01*
X243294Y242399D02*
X246498D01*
X243240Y174899D02*
X246397D01*
X243946Y161399D02*
X246054D01*
X214458Y226199D02*
X246051D01*
X244054Y158699D02*
X245946D01*
X200771Y155999D02*
X239229D01*
X202756Y236999D02*
X237244D01*
X160499Y174899D02*
X236760D01*
X203294Y242399D02*
X236706D01*
X203827Y161399D02*
X236173D01*
X203861Y158699D02*
X236139D01*
X204064Y239699D02*
X235936D01*
X195300Y204599D02*
X235797D01*
X194763Y185699D02*
X235679D01*
X201474Y193799D02*
X235300D01*
X195300Y196499D02*
X235074D01*
X192256Y182999D02*
X234753D01*
X195300Y207299D02*
X234594D01*
X195619Y212699D02*
X234593D01*
X186856Y177599D02*
X234454D01*
X195300Y201899D02*
X234263D01*
X203747Y188399D02*
X234173D01*
X215277Y215399D02*
X234169D01*
X203924Y191099D02*
X234057D01*
X195300Y199199D02*
X234010D01*
X189556Y180299D02*
X233964D01*
X195300Y209999D02*
X233957D01*
X197135Y226199D02*
X202865D01*
X197775Y215399D02*
X202225D01*
X197776Y223499D02*
X202224D01*
X197776Y220799D02*
X202224D01*
X197776Y218099D02*
X202224D01*
X160771Y155999D02*
X199229D01*
X195510Y193799D02*
X198526D01*
X162756Y236999D02*
X197244D01*
X163294Y242399D02*
X196706D01*
X163827Y161399D02*
X196173D01*
X163861Y158699D02*
X196139D01*
X164064Y239699D02*
X195936D01*
X161043Y209999D02*
X187300D01*
X160406Y207299D02*
X187300D01*
X159203Y204599D02*
X187300D01*
X160737Y201899D02*
X187300D01*
X160990Y199199D02*
X187300D01*
X159926Y196499D02*
X187300D01*
X159700Y193799D02*
X187300D01*
X160943Y191099D02*
X187300D01*
X160407Y212699D02*
X187006D01*
X160827Y188399D02*
X186342D01*
X127700Y226199D02*
X185542D01*
X159202Y215399D02*
X184903D01*
X159928Y223499D02*
X184902D01*
X160990Y220799D02*
X184902D01*
X160736Y218099D02*
X184902D01*
X160114Y185699D02*
X183642D01*
X142520Y155999D02*
X159229D01*
X142674Y236999D02*
X157244D01*
X142675Y242399D02*
X156706D01*
X143328Y161399D02*
X156173D01*
X143376Y158699D02*
X156139D01*
X143136Y239699D02*
X155936D01*
X148310Y174899D02*
X149266D01*
X127700D02*
X141760D01*
X127700Y215399D02*
X140798D01*
X127700Y204599D02*
X140797D01*
X127700Y185699D02*
X140679D01*
X127700Y193799D02*
X140300D01*
X127700Y196499D02*
X140074D01*
X127700Y223499D02*
X140072D01*
X127700Y182999D02*
X139753D01*
X127700Y207299D02*
X139594D01*
X127700Y212699D02*
X139593D01*
X127700Y177599D02*
X139454D01*
X127700Y218099D02*
X139264D01*
X127700Y201899D02*
X139263D01*
X127700Y188399D02*
X139173D01*
X127700Y191099D02*
X139057D01*
X127700Y199199D02*
X139010D01*
X127700Y220799D02*
X139010D01*
X127700Y180299D02*
X138964D01*
X127700Y209999D02*
X138957D01*
X127700Y231599D02*
X134253D01*
X127700Y247799D02*
X134226D01*
X128640Y166799D02*
X129761D01*
G74*
X0Y0D02*
M02*
