*
*
G04 PADS VX.2.4 Build Number: 11282995 generated Gerber (RS-274-X) file*
G04 PC Version=2.1*
*
%IN "NewICE to OLDICE.pcb"*%
*
%MOIN*%
*
%FSLAX35Y35*%
*
*
*
*
G04 PC Standard Apertures*
*
*
G04 Thermal Relief Aperture macro.*
%AMTER*
1,1,$1,0,0*
1,0,$1-$2,0,0*
21,0,$3,$4,0,0,45*
21,0,$3,$4,0,0,135*
%
*
*
G04 Annular Aperture macro.*
%AMANN*
1,1,$1,0,0*
1,0,$2,0,0*
%
*
*
G04 Odd Aperture macro.*
%AMODD*
1,1,$1,0,0*
1,0,$1-0.005,0,0*
%
*
*
G04 PC Custom Aperture Macros*
*
*
*
*
*
*
G04 PC Aperture Table*
*
%ADD010C,0.001*%
%ADD023C,0.01*%
*
*
*
*
G04 PC Circuitry*
G04 Layer Name NewICE to OLDICE.pcb - circuitry*
%LPD*%
*
*
G04 PC Custom Flashes*
G04 Layer Name NewICE to OLDICE.pcb - flashes*
%LPD*%
*
*
G04 PC Circuitry*
G04 Layer Name NewICE to OLDICE.pcb - circuitry*
%LPD*%
*
G54D10*
G54D23*
G01X151000Y180000D02*
X159000D01*
X155000Y176000D02*
Y184000D01*
X151000Y190000D02*
X159000D01*
X155000Y186000D02*
Y194000D01*
X151000Y200000D02*
X159000D01*
X155000Y196000D02*
Y204000D01*
X151000Y210000D02*
X159000D01*
X155000Y206000D02*
Y214000D01*
X151000Y220000D02*
X159000D01*
X155000Y216000D02*
Y224000D01*
X141000Y220000D02*
X149000D01*
X145000Y216000D02*
Y224000D01*
X141000Y210000D02*
X149000D01*
X145000Y206000D02*
Y214000D01*
X141000Y200000D02*
X149000D01*
X145000Y196000D02*
Y204000D01*
X141000Y190000D02*
X149000D01*
X145000Y186000D02*
Y194000D01*
X141000Y180000D02*
X149000D01*
X145000Y176000D02*
Y184000D01*
X236000Y216000D02*
X244000Y224000D01*
X236000D02*
X244000Y216000D01*
X236000Y206000D02*
X244000Y214000D01*
X236000D02*
X244000Y206000D01*
X236000Y196000D02*
X244000Y204000D01*
X236000D02*
X244000Y196000D01*
X236000Y186000D02*
X244000Y194000D01*
X236000D02*
X244000Y186000D01*
X236000Y176000D02*
X244000Y184000D01*
X236000D02*
X244000Y176000D01*
X196000Y156000D02*
X204000D01*
Y164000*
X196000*
Y156000*
X200000Y160000D02*
Y164000D01*
X156000Y156000D02*
X164000D01*
Y164000*
X156000*
Y156000*
X160000Y160000D02*
Y164000D01*
X196000Y186000D02*
X204000D01*
Y194000*
X196000*
Y186000*
X200000Y190000D02*
Y194000D01*
X236000Y156000D02*
X244000D01*
Y164000*
X236000*
Y156000*
X240000Y160000D02*
Y164000D01*
X196000Y236000D02*
X204000D01*
Y244000*
X196000*
Y236000*
X200000Y240000D02*
Y244000D01*
X156000Y236000D02*
X164000D01*
Y244000*
X156000*
Y236000*
X160000Y240000D02*
Y244000D01*
X236000Y236000D02*
X244000D01*
Y244000*
X236000*
Y236000*
X240000Y240000D02*
Y244000D01*
X125200Y140000D02*
X249000D01*
Y260000*
X125200*
Y140000*
X140636Y239700D02*
G75*
G03X140636I-5636J0D01*
G01X140961Y159900D02*
G03X140961I-6061J0D01*
G01X200000Y296000D02*
X458000D01*
X200000Y272000D02*
X458000D01*
X200000Y248000D02*
X458000D01*
X200000Y224000D02*
X458000D01*
X200000Y200000D02*
X458000D01*
X200000Y296000D02*
Y200000D01*
X284000Y296000D02*
Y200000D01*
X320000Y296000D02*
Y200000D01*
X356000Y296000D02*
Y200000D01*
X410000Y296000D02*
Y200000D01*
X458000Y296000D02*
Y200000D01*
X235500Y284750D02*
X234955Y285500D01*
X234136Y285875*
X233045*
X232227Y285500*
X231682Y284750*
Y284000*
X231955Y283250*
X232227Y282875*
X232773Y282500*
X234409Y281750*
X234955Y281375*
X235227Y281000*
X235500Y280250*
Y279125*
X234955Y278375*
X234136Y278000*
X233045*
X232227Y278375*
X231682Y279125*
X237955Y285875D02*
Y278000D01*
X244227Y285875D02*
X240409Y278000D01*
Y285875D02*
X244227D01*
X240409Y278000D02*
X244227D01*
X246682Y285875D02*
Y278000D01*
Y285875D02*
X250227D01*
X246682Y282125D02*
X248864D01*
X246682Y278000D02*
X250227D01*
X293864Y285875D02*
X293318Y285500D01*
X292773Y284750*
X292500Y284000*
X292227Y282875*
Y281000*
X292500Y279875*
X292773Y279125*
X293318Y278375*
X293864Y278000*
X294955*
X295500Y278375*
X296045Y279125*
X296318Y279875*
X296591Y281000*
Y282875*
X296318Y284000*
X296045Y284750*
X295500Y285500*
X294955Y285875*
X293864*
X294682Y279500D02*
X296318Y277250D01*
X300955Y285875D02*
Y278000D01*
X299045Y285875D02*
X302864D01*
X305318D02*
X307500Y282125D01*
Y278000*
X309682Y285875D02*
X307500Y282125D01*
X332045Y284750D02*
X331500Y285500D01*
X330682Y285875*
X329591*
X328773Y285500*
X328227Y284750*
Y284000*
X328500Y283250*
X328773Y282875*
X329318Y282500*
X330955Y281750*
X331500Y281375*
X331773Y281000*
X332045Y280250*
Y279125*
X331500Y278375*
X330682Y278000*
X329591*
X328773Y278375*
X328227Y279125*
X334500Y285875D02*
X336682Y282125D01*
Y278000*
X338864Y285875D02*
X336682Y282125D01*
X341318Y285875D02*
Y278000D01*
Y285875D02*
X343500Y278000D01*
X345682Y285875D02*
X343500Y278000D01*
X345682Y285875D02*
Y278000D01*
X367500Y285875D02*
Y278000D01*
Y285875D02*
X369955D01*
X370773Y285500*
X371045Y285125*
X371318Y284375*
Y283250*
X371045Y282500*
X370773Y282125*
X369955Y281750*
X367500*
X373773Y285875D02*
Y278000D01*
X377045*
X381682Y285875D02*
X379500Y278000D01*
X381682Y285875D02*
X383864Y278000D01*
X380318Y280625D02*
X383045D01*
X388227Y285875D02*
Y278000D01*
X386318Y285875D02*
X390136D01*
X392591D02*
Y278000D01*
Y285875D02*
X396136D01*
X392591Y282125D02*
X394773D01*
X392591Y278000D02*
X396136D01*
X398591Y285875D02*
Y278000D01*
Y285875D02*
X400500D01*
X401318Y285500*
X401864Y284750*
X402136Y284000*
X402409Y282875*
Y281000*
X402136Y279875*
X401864Y279125*
X401318Y278375*
X400500Y278000*
X398591*
X426682Y285875D02*
Y278000D01*
X424773Y285875D02*
X428591D01*
X432682D02*
X432136Y285500D01*
X431591Y284750*
X431318Y284000*
X431045Y282875*
Y281000*
X431318Y279875*
X431591Y279125*
X432136Y278375*
X432682Y278000*
X433773*
X434318Y278375*
X434864Y279125*
X435136Y279875*
X435409Y281000*
Y282875*
X435136Y284000*
X434864Y284750*
X434318Y285500*
X433773Y285875*
X432682*
X437864D02*
Y278000D01*
X441136*
X206545Y261875D02*
X209545D01*
X207909Y258875*
X208727*
X209273Y258500*
X209545Y258125*
X209818Y257000*
Y256250*
X209545Y255125*
X209000Y254375*
X208182Y254000*
X207364*
X206545Y254375*
X206273Y254750*
X206000Y255500*
X215818Y259250D02*
X215545Y258125D01*
X215000Y257375*
X214182Y257000*
X213909*
X213091Y257375*
X212545Y258125*
X212273Y259250*
Y259625*
X212545Y260750*
X213091Y261500*
X213909Y261875*
X214182*
X215000Y261500*
X215545Y260750*
X215818Y259250*
Y257375*
X215545Y255500*
X215000Y254375*
X214182Y254000*
X213636*
X212818Y254375*
X212545Y255125*
X218545Y254750D02*
X218273Y254375D01*
X218545Y254000*
X218818Y254375*
X218545Y254750*
X221818Y261875D02*
X224818D01*
X223182Y258875*
X224000*
X224545Y258500*
X224818Y258125*
X225091Y257000*
Y256250*
X224818Y255125*
X224273Y254375*
X223455Y254000*
X222636*
X221818Y254375*
X221545Y254750*
X221273Y255500*
X231364Y261875D02*
X228636Y254000D01*
X227545Y261875D02*
X231364D01*
X297136Y260375D02*
X297682Y260750D01*
X298500Y261875*
Y254000*
X302591Y261875D02*
X301773Y261500D01*
X301227Y260375*
X300955Y258500*
Y257375*
X301227Y255500*
X301773Y254375*
X302591Y254000*
X303136*
X303955Y254375*
X304500Y255500*
X304773Y257375*
Y258500*
X304500Y260375*
X303955Y261500*
X303136Y261875*
X302591*
X332000Y260000D02*
X344000D01*
X338000Y254000D02*
Y266000D01*
X364636Y261875D02*
X366818Y258125D01*
Y254000*
X369000Y261875D02*
X366818Y258125D01*
X371455Y261875D02*
Y254000D01*
Y261875D02*
X375000D01*
X371455Y258125D02*
X373636D01*
X371455Y254000D02*
X375000D01*
X381273Y260750D02*
X380727Y261500D01*
X379909Y261875*
X378818*
X378000Y261500*
X377455Y260750*
Y260000*
X377727Y259250*
X378000Y258875*
X378545Y258500*
X380182Y257750*
X380727Y257375*
X381000Y257000*
X381273Y256250*
Y255125*
X380727Y254375*
X379909Y254000*
X378818*
X378000Y254375*
X377455Y255125*
X417818Y260750D02*
Y254000D01*
X415364Y257375D02*
X420273D01*
X427636Y263375D02*
X422727Y251375D01*
X430091Y257375D02*
X435000D01*
X439091Y261875D02*
X438273Y261500D01*
X437727Y260375*
X437455Y258500*
Y257375*
X437727Y255500*
X438273Y254375*
X439091Y254000*
X439636*
X440455Y254375*
X441000Y255500*
X441273Y257375*
Y258500*
X441000Y260375*
X440455Y261500*
X439636Y261875*
X439091*
X444000Y254750D02*
X443727Y254375D01*
X444000Y254000*
X444273Y254375*
X444000Y254750*
X448364Y261875D02*
X447545Y261500D01*
X447000Y260375*
X446727Y258500*
Y257375*
X447000Y255500*
X447545Y254375*
X448364Y254000*
X448909*
X449727Y254375*
X450273Y255500*
X450545Y257375*
Y258500*
X450273Y260375*
X449727Y261500*
X448909Y261875*
X448364*
X206545Y237875D02*
X209545D01*
X207909Y234875*
X208727*
X209273Y234500*
X209545Y234125*
X209818Y233000*
Y232250*
X209545Y231125*
X209000Y230375*
X208182Y230000*
X207364*
X206545Y230375*
X206273Y230750*
X206000Y231500*
X215818Y235250D02*
X215545Y234125D01*
X215000Y233375*
X214182Y233000*
X213909*
X213091Y233375*
X212545Y234125*
X212273Y235250*
Y235625*
X212545Y236750*
X213091Y237500*
X213909Y237875*
X214182*
X215000Y237500*
X215545Y236750*
X215818Y235250*
Y233375*
X215545Y231500*
X215000Y230375*
X214182Y230000*
X213636*
X212818Y230375*
X212545Y231125*
X218545Y230750D02*
X218273Y230375D01*
X218545Y230000*
X218818Y230375*
X218545Y230750*
X221818Y237875D02*
X224818D01*
X223182Y234875*
X224000*
X224545Y234500*
X224818Y234125*
X225091Y233000*
Y232250*
X224818Y231125*
X224273Y230375*
X223455Y230000*
X222636*
X221818Y230375*
X221545Y230750*
X221273Y231500*
X231364Y237875D02*
X228636Y230000D01*
X227545Y237875D02*
X231364D01*
X302455D02*
X299727D01*
X299455Y234500*
X299727Y234875*
X300545Y235250*
X301364*
X302182Y234875*
X302727Y234125*
X303000Y233000*
X302727Y232250*
X302455Y231125*
X301909Y230375*
X301091Y230000*
X300273*
X299455Y230375*
X299182Y230750*
X298909Y231500*
X332000Y230000D02*
X344000Y242000D01*
X332000D02*
X344000Y230000D01*
X367636Y237875D02*
Y230000D01*
Y237875D02*
X371455Y230000D01*
Y237875D02*
Y230000D01*
X375545Y237875D02*
X375000Y237500D01*
X374455Y236750*
X374182Y236000*
X373909Y234875*
Y233000*
X374182Y231875*
X374455Y231125*
X375000Y230375*
X375545Y230000*
X376636*
X377182Y230375*
X377727Y231125*
X378000Y231875*
X378273Y233000*
Y234875*
X378000Y236000*
X377727Y236750*
X377182Y237500*
X376636Y237875*
X375545*
X417818Y236750D02*
Y230000D01*
X415364Y233375D02*
X420273D01*
X427636Y239375D02*
X422727Y227375D01*
X430091Y233375D02*
X435000D01*
X439091Y237875D02*
X438273Y237500D01*
X437727Y236375*
X437455Y234500*
Y233375*
X437727Y231500*
X438273Y230375*
X439091Y230000*
X439636*
X440455Y230375*
X441000Y231500*
X441273Y233375*
Y234500*
X441000Y236375*
X440455Y237500*
X439636Y237875*
X439091*
X444000Y230750D02*
X443727Y230375D01*
X444000Y230000*
X444273Y230375*
X444000Y230750*
X448364Y237875D02*
X447545Y237500D01*
X447000Y236375*
X446727Y234500*
Y233375*
X447000Y231500*
X447545Y230375*
X448364Y230000*
X448909*
X449727Y230375*
X450273Y231500*
X450545Y233375*
Y234500*
X450273Y236375*
X449727Y237500*
X448909Y237875*
X448364*
X206000Y212375D02*
X206545Y212750D01*
X207364Y213875*
Y206000*
X213364Y213875D02*
X210636D01*
X210364Y210500*
X210636Y210875*
X211455Y211250*
X212273*
X213091Y210875*
X213636Y210125*
X213909Y209000*
X213636Y208250*
X213364Y207125*
X212818Y206375*
X212000Y206000*
X211182*
X210364Y206375*
X210091Y206750*
X209818Y207500*
X216636Y206750D02*
X216364Y206375D01*
X216636Y206000*
X216909Y206375*
X216636Y206750*
X223182Y213875D02*
X220455Y206000D01*
X219364Y213875D02*
X223182D01*
X229182D02*
X226455D01*
X226182Y210500*
X226455Y210875*
X227273Y211250*
X228091*
X228909Y210875*
X229455Y210125*
X229727Y209000*
X229455Y208250*
X229182Y207125*
X228636Y206375*
X227818Y206000*
X227000*
X226182Y206375*
X225909Y206750*
X225636Y207500*
X302864Y213875D02*
X300136Y206000D01*
X299045Y213875D02*
X302864D01*
X332000Y206000D02*
X344000D01*
Y218000*
X332000*
Y206000*
X338000Y212000D02*
Y218000D01*
X364636Y213875D02*
X366818Y210125D01*
Y206000*
X369000Y213875D02*
X366818Y210125D01*
X371455Y213875D02*
Y206000D01*
Y213875D02*
X375000D01*
X371455Y210125D02*
X373636D01*
X371455Y206000D02*
X375000D01*
X381273Y212750D02*
X380727Y213500D01*
X379909Y213875*
X378818*
X378000Y213500*
X377455Y212750*
Y212000*
X377727Y211250*
X378000Y210875*
X378545Y210500*
X380182Y209750*
X380727Y209375*
X381000Y209000*
X381273Y208250*
Y207125*
X380727Y206375*
X379909Y206000*
X378818*
X378000Y206375*
X377455Y207125*
X417818Y212750D02*
Y206000D01*
X415364Y209375D02*
X420273D01*
X427636Y215375D02*
X422727Y203375D01*
X430091Y209375D02*
X435000D01*
X439091Y213875D02*
X438273Y213500D01*
X437727Y212375*
X437455Y210500*
Y209375*
X437727Y207500*
X438273Y206375*
X439091Y206000*
X439636*
X440455Y206375*
X441000Y207500*
X441273Y209375*
Y210500*
X441000Y212375*
X440455Y213500*
X439636Y213875*
X439091*
X444000Y206750D02*
X443727Y206375D01*
X444000Y206000*
X444273Y206375*
X444000Y206750*
X448364Y213875D02*
X447545Y213500D01*
X447000Y212375*
X446727Y210500*
Y209375*
X447000Y207500*
X447545Y206375*
X448364Y206000*
X448909*
X449727Y206375*
X450273Y207500*
X450545Y209375*
Y210500*
X450273Y212375*
X449727Y213500*
X448909Y213875*
X448364*
G74*
X0Y0D02*
M02*
