*
*
G04 PADS VX.2.4 Build Number: 11282995 generated Gerber (RS-274-X) file*
G04 PC Version=2.1*
*
%IN "WriterTranBo(Empty).pcb"*%
*
%MOIN*%
*
%FSLAX35Y35*%
*
*
*
*
G04 PC Standard Apertures*
*
*
G04 Thermal Relief Aperture macro.*
%AMTER*
1,1,$1,0,0*
1,0,$1-$2,0,0*
21,0,$3,$4,0,0,45*
21,0,$3,$4,0,0,135*
%
*
*
G04 Annular Aperture macro.*
%AMANN*
1,1,$1,0,0*
1,0,$2,0,0*
%
*
*
G04 Odd Aperture macro.*
%AMODD*
1,1,$1,0,0*
1,0,$1-0.005,0,0*
%
*
*
G04 PC Custom Aperture Macros*
*
*
*
*
*
*
G04 PC Aperture Table*
*
%ADD010C,0.001*%
%ADD014C,0.06*%
%ADD022C,0.02*%
%ADD034C,0.0315*%
%ADD035R,0.07087X0.07087*%
%ADD036C,0.07087*%
%ADD052C,0.015*%
%ADD081C,0.025*%
*
*
*
*
G04 PC Circuitry*
G04 Layer Name WriterTranBo(Empty).pcb - circuitry*
%LPD*%
*
*
G04 PC Custom Flashes*
G04 Layer Name WriterTranBo(Empty).pcb - flashes*
%LPD*%
*
*
G04 PC Circuitry*
G04 Layer Name WriterTranBo(Empty).pcb - circuitry*
%LPD*%
*
G54D10*
G54D14*
G01X180000Y295000D03*
Y285000D03*
Y275000D03*
Y265000D03*
Y255000D03*
Y245000D03*
Y235000D03*
Y225000D03*
Y215000D03*
Y205000D03*
Y195000D03*
Y185000D03*
Y175000D03*
Y165000D03*
Y155000D03*
Y145000D03*
Y135000D03*
Y125000D03*
Y115000D03*
Y105000D03*
X170000Y295000D03*
Y285000D03*
Y275000D03*
Y265000D03*
Y255000D03*
Y245000D03*
Y235000D03*
Y225000D03*
Y215000D03*
Y205000D03*
Y195000D03*
Y185000D03*
Y175000D03*
Y165000D03*
Y155000D03*
Y145000D03*
Y135000D03*
Y125000D03*
Y115000D03*
Y105000D03*
X230000Y295000D03*
Y285000D03*
Y275000D03*
Y265000D03*
Y255000D03*
Y245000D03*
Y235000D03*
Y225000D03*
Y215000D03*
Y205000D03*
Y195000D03*
Y185000D03*
Y175000D03*
Y165000D03*
Y155000D03*
Y145000D03*
Y135000D03*
Y125000D03*
Y115000D03*
Y105000D03*
X290000D03*
Y115000D03*
Y125000D03*
Y135000D03*
Y145000D03*
Y155000D03*
Y165000D03*
Y175000D03*
Y185000D03*
Y195000D03*
Y205000D03*
Y215000D03*
Y225000D03*
Y235000D03*
Y245000D03*
Y255000D03*
Y265000D03*
Y275000D03*
Y285000D03*
Y295000D03*
G54D22*
X140000Y80000D02*
X130000D01*
X110000D02*
X120000D01*
X130000*
X230000Y150000D02*
X209000D01*
X204000Y155000*
X180000*
X230000Y150000D02*
X256000D01*
X261000Y155000*
X290000*
X230000Y140000D02*
X209000D01*
X204000Y145000*
X180000*
X230000Y140000D02*
X256000D01*
X261000Y145000*
X290000*
X230000Y130000D02*
X209000D01*
X204000Y135000*
X180000*
X230000Y130000D02*
X256000D01*
X261000Y135000*
X290000*
X230000Y120000D02*
X209000D01*
X204000Y125000*
X180000*
X230000Y120000D02*
X256000D01*
X261000Y125000*
X290000*
X230000Y110000D02*
X209000D01*
X204000Y115000*
X180000*
X230000Y110000D02*
X256000D01*
X261000Y115000*
X290000*
X230000Y100000D02*
X209000D01*
X204000Y105000*
X180000*
X230000Y100000D02*
X256000D01*
X261000Y105000*
X290000*
X230000Y220000D02*
X209000D01*
X204000Y225000*
X180000*
X230000Y220000D02*
X256000D01*
X261000Y225000*
X290000*
X230000Y230000D02*
X209000D01*
X204000Y235000*
X180000*
X230000Y230000D02*
X256000D01*
X261000Y235000*
X290000*
X230000Y200000D02*
X209000D01*
X204000Y205000*
X180000*
X230000Y200000D02*
X256000D01*
X261000Y205000*
X290000*
X230000Y210000D02*
X209000D01*
X204000Y215000*
X180000*
X230000Y210000D02*
X256000D01*
X261000Y215000*
X290000*
X230000Y190000D02*
X209000D01*
X204000Y195000*
X180000*
X230000Y190000D02*
X256000D01*
X261000Y195000*
X290000*
X230000Y180000D02*
X209000D01*
X204000Y185000*
X180000*
X230000Y180000D02*
X256000D01*
X261000Y185000*
X290000*
X230000Y170000D02*
X209000D01*
X204000Y175000*
X180000*
X230000Y170000D02*
X256000D01*
X261000Y175000*
X290000*
X230000Y160000D02*
X209000D01*
X204000Y165000*
X180000*
X230000Y160000D02*
X256000D01*
X261000Y165000*
X290000*
X230000Y250000D02*
X209000D01*
X204000Y255000*
X180000*
X230000Y250000D02*
X256000D01*
X261000Y255000*
X290000*
X230000Y290000D02*
X209000D01*
X204000Y295000*
X180000*
X230000Y290000D02*
X256000D01*
X261000Y295000*
X290000*
X230000Y270000D02*
X209000D01*
X204000Y275000*
X180000*
X230000Y270000D02*
X256000D01*
X261000Y275000*
X290000*
X230000Y280000D02*
X209000D01*
X204000Y285000*
X180000*
X230000Y280000D02*
X256000D01*
X261000Y285000*
X290000*
X230000Y260000D02*
X209000D01*
X204000Y265000*
X180000*
X230000Y260000D02*
X256000D01*
X261000Y265000*
X290000*
X230000Y240000D02*
X209000D01*
X204000Y245000*
X180000*
X230000Y240000D02*
X256000D01*
X261000Y245000*
X290000*
X313375Y90000D02*
G75*
G03X313375I-3375J0D01*
G01Y130000D02*
G03X313375I-3375J0D01*
G01Y180000D02*
G03X313375I-3375J0D01*
G01Y220000D02*
G03X313375I-3375J0D01*
G01Y270000D02*
G03X313375I-3375J0D01*
G01Y320000D02*
G03X313375I-3375J0D01*
G01X263375Y90000D02*
G03X263375I-3375J0D01*
G01X213375D02*
G03X213375I-3375J0D01*
G01X263375Y320000D02*
G03X263375I-3375J0D01*
G01X213375D02*
G03X213375I-3375J0D01*
G01X163375Y90000D02*
G03X163375I-3375J0D01*
G01Y270000D02*
G03X163375I-3375J0D01*
G01Y320000D02*
G03X163375I-3375J0D01*
G01X113375Y270000D02*
G03X113375I-3375J0D01*
G01Y320000D02*
G03X113375I-3375J0D01*
G01X331200Y329056D02*
G03X329299Y329490I-1000J0D01*
G01X313901Y333000D02*
G03X329299Y329490I8099J0D01*
G01X318266Y340187D02*
G03X313901Y333000I3734J-7187D01*
G01X318266Y340187D02*
G03X317804Y342074I-462J887D01*
G01X97000*
G03X96000Y341074I0J-1000*
G01Y243239*
G03X97927Y242864I1000J0*
G01Y237136D02*
G03Y242864I7073J2864D01*
G01Y237136D02*
G03X96000Y236761I-927J-375D01*
G01Y161731*
G03X97977Y161520I1000J0*
G01Y158480D02*
G03Y161520I7023J1520D01*
G01Y158480D02*
G03X96000Y158269I-977J-211D01*
G01Y71926*
G03X97000Y70926I1000J0*
G01X330200*
G03X331200Y71926I-0J1000*
G01Y78056*
G03X329299Y78490I-1000J0*
G01Y85510D02*
G03Y78490I-7299J-3510D01*
G01Y85510D02*
G03X331200Y85944I901J434D01*
G01Y329056*
X313375Y90000D02*
G03X313375I-3375J0D01*
G01Y130000D02*
G03X313375I-3375J0D01*
G01Y180000D02*
G03X313375I-3375J0D01*
G01Y220000D02*
G03X313375I-3375J0D01*
G01Y270000D02*
G03X313375I-3375J0D01*
G01Y320000D02*
G03X313375I-3375J0D01*
G01X263375Y90000D02*
G03X263375I-3375J0D01*
G01X213375D02*
G03X213375I-3375J0D01*
G01X292433Y290862D02*
G03Y289138I506J-862D01*
G01Y280862D02*
G03Y289138I-2433J4138D01*
G01Y280862D02*
G03Y279138I506J-862D01*
G01Y270862D02*
G03Y279138I-2433J4138D01*
G01Y270862D02*
G03Y269138I506J-862D01*
G01Y260862D02*
G03Y269138I-2433J4138D01*
G01Y260862D02*
G03Y259138I506J-862D01*
G01Y250862D02*
G03Y259138I-2433J4138D01*
G01Y250862D02*
G03Y249138I506J-862D01*
G01Y240862D02*
G03Y249138I-2433J4138D01*
G01Y240862D02*
G03Y239138I506J-862D01*
G01Y230862D02*
G03Y239138I-2433J4138D01*
G01Y230862D02*
G03Y229138I506J-862D01*
G01Y220862D02*
G03Y229138I-2433J4138D01*
G01Y220862D02*
G03Y219138I506J-862D01*
G01Y210862D02*
G03Y219138I-2433J4138D01*
G01Y210862D02*
G03Y209138I506J-862D01*
G01Y200862D02*
G03Y209138I-2433J4138D01*
G01Y200862D02*
G03Y199138I506J-862D01*
G01Y190862D02*
G03Y199138I-2433J4138D01*
G01Y190862D02*
G03Y189138I506J-862D01*
G01Y180862D02*
G03Y189138I-2433J4138D01*
G01Y180862D02*
G03Y179138I506J-862D01*
G01Y170862D02*
G03Y179138I-2433J4138D01*
G01Y170862D02*
G03Y169138I506J-862D01*
G01Y160862D02*
G03Y169138I-2433J4138D01*
G01Y160862D02*
G03Y159138I506J-862D01*
G01Y150862D02*
G03Y159138I-2433J4138D01*
G01Y150862D02*
G03Y149138I506J-862D01*
G01Y140862D02*
G03Y149138I-2433J4138D01*
G01Y140862D02*
G03Y139138I506J-862D01*
G01Y130862D02*
G03Y139138I-2433J4138D01*
G01Y130862D02*
G03Y129138I506J-862D01*
G01Y120862D02*
G03Y129138I-2433J4138D01*
G01Y120862D02*
G03Y119138I506J-862D01*
G01Y110862D02*
G03Y119138I-2433J4138D01*
G01Y110862D02*
G03Y109138I506J-862D01*
G01X286374Y101855D02*
G03X292433Y109138I3626J3145D01*
G01X286374Y101855D02*
G03X285618Y102200I-756J-655D01*
G01X262574*
G03X261867Y101907I0J-1000*
G01X257980Y98020*
X256000Y97200D02*
G03X257980Y98020I0J2800D01*
G01X256000Y97200D02*
X209000D01*
X207020Y98020D02*
G03X209000Y97200I1980J1980D01*
G01X207020Y98020D02*
X203133Y101907D01*
G03X202426Y102200I-707J-707*
G01X184382*
G03X183626Y101855I-0J-1000*
G01X175862Y102567D02*
G03X183626Y101855I4138J2433D01*
G01X175862Y102567D02*
G03X174138I-862J-506D01*
G01X167567Y109138D02*
G03X174138Y102567I2433J-4138D01*
G01X167567Y109138D02*
G03Y110862I-506J862D01*
G01Y119138D02*
G03Y110862I2433J-4138D01*
G01Y119138D02*
G03Y120862I-506J862D01*
G01Y129138D02*
G03Y120862I2433J-4138D01*
G01Y129138D02*
G03Y130862I-506J862D01*
G01Y139138D02*
G03Y130862I2433J-4138D01*
G01Y139138D02*
G03Y140862I-506J862D01*
G01Y149138D02*
G03Y140862I2433J-4138D01*
G01Y149138D02*
G03Y150862I-506J862D01*
G01Y159138D02*
G03Y150862I2433J-4138D01*
G01Y159138D02*
G03Y160862I-506J862D01*
G01Y169138D02*
G03Y160862I2433J-4138D01*
G01Y169138D02*
G03Y170862I-506J862D01*
G01Y179138D02*
G03Y170862I2433J-4138D01*
G01Y179138D02*
G03Y180862I-506J862D01*
G01Y189138D02*
G03Y180862I2433J-4138D01*
G01Y189138D02*
G03Y190862I-506J862D01*
G01Y199138D02*
G03Y190862I2433J-4138D01*
G01Y199138D02*
G03Y200862I-506J862D01*
G01Y209138D02*
G03Y200862I2433J-4138D01*
G01Y209138D02*
G03Y210862I-506J862D01*
G01Y219138D02*
G03Y210862I2433J-4138D01*
G01Y219138D02*
G03Y220862I-506J862D01*
G01Y229138D02*
G03Y220862I2433J-4138D01*
G01Y229138D02*
G03Y230862I-506J862D01*
G01Y239138D02*
G03Y230862I2433J-4138D01*
G01Y239138D02*
G03Y240862I-506J862D01*
G01Y249138D02*
G03Y240862I2433J-4138D01*
G01Y249138D02*
G03Y250862I-506J862D01*
G01Y259138D02*
G03Y250862I2433J-4138D01*
G01Y259138D02*
G03Y260862I-506J862D01*
G01Y269138D02*
G03Y260862I2433J-4138D01*
G01Y269138D02*
G03Y270862I-506J862D01*
G01Y279138D02*
G03Y270862I2433J-4138D01*
G01Y279138D02*
G03Y280862I-506J862D01*
G01Y289138D02*
G03Y280862I2433J-4138D01*
G01Y289138D02*
G03Y290862I-506J862D01*
G01X174138Y297433D02*
G03X167567Y290862I-4138J-2433D01*
G01X174138Y297433D02*
G03X175862I862J506D01*
G01X183626Y298145D02*
G03X175862Y297433I-3626J-3145D01*
G01X183626Y298145D02*
G03X184382Y297800I756J655D01*
G01X204000*
X205980Y296980D02*
G03X204000Y297800I-1980J-1980D01*
G01X205980Y296980D02*
X209867Y293093D01*
G03X210574Y292800I707J707*
G01X224325*
G03X225325Y293800I0J1000*
G01X225325*
G03X225304Y294007I-1000J0*
G01X234696D02*
G03X225304I-4696J993D01*
G01X234696D02*
G03X234675Y293800I979J-207D01*
G01X234675*
G03X235675Y292800I1000J0*
G01X254426*
G03X255133Y293093I-0J1000*
G01X259020Y296980*
X261000Y297800D02*
G03X259020Y296980I0J-2800D01*
G01X261000Y297800D02*
X285618D01*
G03X286374Y298145I0J1000*
G01X292433Y290862D02*
G03X286374Y298145I-2433J4138D01*
G01X263375Y320000D02*
G03X263375I-3375J0D01*
G01X213375D02*
G03X213375I-3375J0D01*
G01X163375Y90000D02*
G03X163375I-3375J0D01*
G01Y270000D02*
G03X163375I-3375J0D01*
G01Y320000D02*
G03X163375I-3375J0D01*
G01X113375Y270000D02*
G03X113375I-3375J0D01*
G01Y320000D02*
G03X113375I-3375J0D01*
G01X128288Y215788D02*
G03Y214212I616J-788D01*
G01Y205788D02*
G03Y214212I-3288J4212D01*
G01Y205788D02*
G03Y204212I616J-788D01*
G01Y195788D02*
G03Y204212I-3288J4212D01*
G01Y195788D02*
G03Y194212I616J-788D01*
G01X129138Y186619D02*
G03X128288Y194212I-4138J3381D01*
G01X129138Y186619D02*
G03X128912Y185986I774J-633D01*
X129423Y185114I1000J0*
G01X130343Y183543D02*
G03X129423Y185114I-1800J0D01*
G01X130343Y183543D02*
Y176457D01*
X128543Y174657D02*
G03X130343Y176457I0J1800D01*
G01X128543Y174657D02*
X121457D01*
X119886Y175577D02*
G03X121457Y174657I1571J880D01*
G01X119886Y175577D02*
G03X118381Y175862I-872J-489D01*
G01X111712Y184212D02*
G03X118381Y175862I3288J-4212D01*
G01X111712Y184212D02*
G03Y185788I-616J788D01*
G01Y194212D02*
G03Y185788I3288J-4212D01*
G01Y194212D02*
G03Y195788I-616J788D01*
G01Y204212D02*
G03Y195788I3288J-4212D01*
G01Y204212D02*
G03Y205788I-616J788D01*
G01Y214212D02*
G03Y205788I3288J-4212D01*
G01Y214212D02*
G03Y215788I-616J788D01*
G01X119212Y223288D02*
G03X111712Y215788I-4212J-3288D01*
G01X119212Y223288D02*
G03X120788I788J616D01*
G01X128288Y215788D02*
G03X120788Y223288I-3288J4212D01*
G01X135788Y76712D02*
G03X134212I-788J-616D01*
G01X125788D02*
G03X134212I4212J3288D01*
G01X125788D02*
G03X124212I-788J-616D01*
G01X115788D02*
G03X124212I4212J3288D01*
G01X115788D02*
G03X114212I-788J-616D01*
G01Y83288D02*
G03Y76712I-4212J-3288D01*
G01Y83288D02*
G03X115788I788J616D01*
G01X124212D02*
G03X115788I-4212J-3288D01*
G01X124212D02*
G03X125788I788J616D01*
G01X134212D02*
G03X125788I-4212J-3288D01*
G01X134212D02*
G03X135788I788J616D01*
G01Y76712D02*
G03Y83288I4212J3288D01*
G01X148288Y215788D02*
G03Y214212I616J-788D01*
G01Y205788D02*
G03Y214212I-3288J4212D01*
G01Y205788D02*
G03Y204212I616J-788D01*
G01Y195788D02*
G03Y204212I-3288J4212D01*
G01Y195788D02*
G03Y194212I616J-788D01*
G01X149138Y186619D02*
G03X148288Y194212I-4138J3381D01*
G01X149138Y186619D02*
G03X148912Y185986I774J-633D01*
X149423Y185114I1000J0*
G01X150343Y183543D02*
G03X149423Y185114I-1800J0D01*
G01X150343Y183543D02*
Y176457D01*
X148543Y174657D02*
G03X150343Y176457I0J1800D01*
G01X148543Y174657D02*
X141457D01*
X139657Y176457D02*
G03X141457Y174657I1800J-0D01*
G01X139657Y176457D02*
Y183543D01*
X140577Y185114D02*
G03X139657Y183543I880J-1571D01*
G01X140577Y185114D02*
G03X140862Y186619I-489J872D01*
G01X141712Y194212D02*
G03X140862Y186619I3288J-4212D01*
G01X141712Y194212D02*
G03Y195788I-616J788D01*
G01Y204212D02*
G03Y195788I3288J-4212D01*
G01Y204212D02*
G03Y205788I-616J788D01*
G01Y214212D02*
G03Y205788I3288J-4212D01*
G01Y214212D02*
G03Y215788I-616J788D01*
G01X148288D02*
G03X141712I-3288J4212D01*
G01X328613Y328325D02*
X331200D01*
X326865Y326525D02*
X331200D01*
X96000Y324725D02*
X331200D01*
X311684Y322925D02*
X331200D01*
X313182Y321125D02*
X331200D01*
X313307Y319325D02*
X331200D01*
X312294Y317525D02*
X331200D01*
X96000Y315725D02*
X331200D01*
X96000Y313925D02*
X331200D01*
X96000Y312125D02*
X331200D01*
X96000Y310325D02*
X331200D01*
X96000Y308525D02*
X331200D01*
X96000Y306725D02*
X331200D01*
X96000Y304925D02*
X331200D01*
X96000Y303125D02*
X331200D01*
X96000Y301325D02*
X331200D01*
X291602Y299525D02*
X331200D01*
X293952Y297725D02*
X331200D01*
X294710Y295925D02*
X331200D01*
X294720Y294125D02*
X331200D01*
X293985Y292325D02*
X331200D01*
X292088Y290525D02*
X331200D01*
X293028Y288725D02*
X331200D01*
X294397Y286925D02*
X331200D01*
X294798Y285125D02*
X331200D01*
X294498Y283325D02*
X331200D01*
X293311Y281525D02*
X331200D01*
X291978Y279725D02*
X331200D01*
X293806Y277925D02*
X331200D01*
X294666Y276125D02*
X331200D01*
X294752Y274325D02*
X331200D01*
X312240Y272525D02*
X331200D01*
X313296Y270725D02*
X331200D01*
X313199Y268925D02*
X331200D01*
X311767Y267125D02*
X331200D01*
X294789Y265325D02*
X331200D01*
X294568Y263525D02*
X331200D01*
X293509Y261725D02*
X331200D01*
X291942Y259925D02*
X331200D01*
X293644Y258125D02*
X331200D01*
X294614Y256325D02*
X331200D01*
X294776Y254525D02*
X331200D01*
X294226Y252725D02*
X331200D01*
X292536Y250925D02*
X331200D01*
X292455Y249125D02*
X331200D01*
X294200Y247325D02*
X331200D01*
X294771Y245525D02*
X331200D01*
X294628Y243725D02*
X331200D01*
X293685Y241925D02*
X331200D01*
X291947Y240125D02*
X331200D01*
X293462Y238325D02*
X331200D01*
X294551Y236525D02*
X331200D01*
X294792Y234725D02*
X331200D01*
X294328Y232925D02*
X331200D01*
X292832Y231125D02*
X331200D01*
X292202Y229325D02*
X331200D01*
X294082Y227525D02*
X331200D01*
X294745Y225725D02*
X331200D01*
X294678Y223925D02*
X331200D01*
X312622Y222125D02*
X331200D01*
X313359Y220325D02*
X331200D01*
X313035Y218525D02*
X331200D01*
X310814Y216725D02*
X331200D01*
X294799Y214925D02*
X331200D01*
X294419Y213125D02*
X331200D01*
X293087Y211325D02*
X331200D01*
X292060Y209525D02*
X331200D01*
X293952Y207725D02*
X331200D01*
X294710Y205925D02*
X331200D01*
X294720Y204125D02*
X331200D01*
X293985Y202325D02*
X331200D01*
X292088Y200525D02*
X331200D01*
X293028Y198725D02*
X331200D01*
X294397Y196925D02*
X331200D01*
X294798Y195125D02*
X331200D01*
X294498Y193325D02*
X331200D01*
X293311Y191525D02*
X331200D01*
X291978Y189725D02*
X331200D01*
X293806Y187925D02*
X331200D01*
X294666Y186125D02*
X331200D01*
X294752Y184325D02*
X331200D01*
X312240Y182525D02*
X331200D01*
X313296Y180725D02*
X331200D01*
X313199Y178925D02*
X331200D01*
X311767Y177125D02*
X331200D01*
X294789Y175325D02*
X331200D01*
X294568Y173525D02*
X331200D01*
X293509Y171725D02*
X331200D01*
X291942Y169925D02*
X331200D01*
X293644Y168125D02*
X331200D01*
X294614Y166325D02*
X331200D01*
X294776Y164525D02*
X331200D01*
X294226Y162725D02*
X331200D01*
X292536Y160925D02*
X331200D01*
X292455Y159125D02*
X331200D01*
X294200Y157325D02*
X331200D01*
X294771Y155525D02*
X331200D01*
X294628Y153725D02*
X331200D01*
X293685Y151925D02*
X331200D01*
X291947Y150125D02*
X331200D01*
X293462Y148325D02*
X331200D01*
X294551Y146525D02*
X331200D01*
X294792Y144725D02*
X331200D01*
X294328Y142925D02*
X331200D01*
X292832Y141125D02*
X331200D01*
X292202Y139325D02*
X331200D01*
X294082Y137525D02*
X331200D01*
X294745Y135725D02*
X331200D01*
X294678Y133925D02*
X331200D01*
X312622Y132125D02*
X331200D01*
X313359Y130325D02*
X331200D01*
X313035Y128525D02*
X331200D01*
X310814Y126725D02*
X331200D01*
X294799Y124925D02*
X331200D01*
X294419Y123125D02*
X331200D01*
X293087Y121325D02*
X331200D01*
X292060Y119525D02*
X331200D01*
X293952Y117725D02*
X331200D01*
X294710Y115925D02*
X331200D01*
X294720Y114125D02*
X331200D01*
X293985Y112325D02*
X331200D01*
X292088Y110525D02*
X331200D01*
X293028Y108725D02*
X331200D01*
X294397Y106925D02*
X331200D01*
X294798Y105125D02*
X331200D01*
X294498Y103325D02*
X331200D01*
X293311Y101525D02*
X331200D01*
X259685Y99725D02*
X331200D01*
X257880Y97925D02*
X331200D01*
X96000Y96125D02*
X331200D01*
X96000Y94325D02*
X331200D01*
X312240Y92525D02*
X331200D01*
X313296Y90725D02*
X331200D01*
X326200Y88925D02*
X331200D01*
X328271Y87125D02*
X331200D01*
X327778Y76325D02*
X331200D01*
X325117Y74525D02*
X331200D01*
X96000Y72725D02*
X331200D01*
X329112Y78125D02*
X331198D01*
X329415Y85325D02*
X330985D01*
X96000Y74525D02*
X318883D01*
X96000Y340925D02*
X318793D01*
X313199Y88925D02*
X317800D01*
X96000Y326525D02*
X317135D01*
X96000Y339125D02*
X316701D01*
X143879Y76325D02*
X316222D01*
X311767Y87125D02*
X315729D01*
X96000Y328325D02*
X315387D01*
X96000Y337325D02*
X315152D01*
X145003Y78125D02*
X314888D01*
X140446Y85325D02*
X314615D01*
X96000Y330125D02*
X314429D01*
X96000Y335525D02*
X314305D01*
X145343Y79925D02*
X314171D01*
X144016Y83525D02*
X314046D01*
X96000Y331925D02*
X313973D01*
X96000Y333725D02*
X313933D01*
X145057Y81725D02*
X313906D01*
X294479Y216725D02*
X309186D01*
X294479Y126725D02*
X309186D01*
X261684Y322925D02*
X308316D01*
X294304Y267125D02*
X308233D01*
X294304Y177125D02*
X308233D01*
X261767Y87125D02*
X308233D01*
X294113Y272525D02*
X307760D01*
X294113Y182525D02*
X307760D01*
X262240Y92525D02*
X307760D01*
X262294Y317525D02*
X307706D01*
X293844Y222125D02*
X307378D01*
X293844Y132125D02*
X307378D01*
X293258Y218525D02*
X306965D01*
X293258Y128525D02*
X306965D01*
X263182Y321125D02*
X306818D01*
X292764Y268925D02*
X306801D01*
X292764Y178925D02*
X306801D01*
X263199Y88925D02*
X306801D01*
X292250Y270725D02*
X306704D01*
X292250Y180725D02*
X306704D01*
X263296Y90725D02*
X306704D01*
X263307Y319325D02*
X306693D01*
X291994Y220325D02*
X306641D01*
X291994Y130325D02*
X306641D01*
X231602Y299525D02*
X288398D01*
X261485Y101525D02*
X286689D01*
X233952Y297725D02*
X260355D01*
X211684Y322925D02*
X258316D01*
X211767Y87125D02*
X258233D01*
X234710Y295925D02*
X257965D01*
X212240Y92525D02*
X257760D01*
X212294Y317525D02*
X257706D01*
X213182Y321125D02*
X256818D01*
X213199Y88925D02*
X256801D01*
X213296Y90725D02*
X256704D01*
X213307Y319325D02*
X256693D01*
X234720Y294125D02*
X256165D01*
X181602Y299525D02*
X228398D01*
X204645Y297725D02*
X226048D01*
X207035Y295925D02*
X225290D01*
X208835Y294125D02*
X225280D01*
X161684Y322925D02*
X208316D01*
X161767Y87125D02*
X208233D01*
X162240Y92525D02*
X207760D01*
X162294Y317525D02*
X207706D01*
X96000Y97925D02*
X207120D01*
X163182Y321125D02*
X206818D01*
X163199Y88925D02*
X206801D01*
X163296Y90725D02*
X206704D01*
X163307Y319325D02*
X206693D01*
X96000Y99725D02*
X205315D01*
X183311Y101525D02*
X203515D01*
X171602Y299525D02*
X178398D01*
X173311Y101525D02*
X176689D01*
X173952Y297725D02*
X176048D01*
X96000Y299525D02*
X168398D01*
X96000Y259925D02*
X168058D01*
X96000Y169925D02*
X168058D01*
X112630Y240125D02*
X168053D01*
X96000Y150125D02*
X168053D01*
X96000Y279725D02*
X168022D01*
X150336Y189725D02*
X168022D01*
X150333Y220325D02*
X168006D01*
X96000Y130325D02*
X168006D01*
X150322Y209525D02*
X167940D01*
X96000Y119525D02*
X167940D01*
X96000Y290525D02*
X167912D01*
X150318Y200525D02*
X167912D01*
X96000Y110525D02*
X167912D01*
X96000Y229325D02*
X167798D01*
X96000Y139325D02*
X167798D01*
X163296Y270725D02*
X167750D01*
X150343Y180725D02*
X167750D01*
X96000Y249125D02*
X167545D01*
X112132Y159125D02*
X167545D01*
X96000Y250925D02*
X167464D01*
X112125Y160925D02*
X167464D01*
X163199Y268925D02*
X167236D01*
X150343Y178925D02*
X167236D01*
X96000Y231125D02*
X167168D01*
X96000Y141125D02*
X167168D01*
X96000Y288725D02*
X166972D01*
X150189Y198725D02*
X166972D01*
X96000Y108725D02*
X166972D01*
X150177Y211325D02*
X166913D01*
X96000Y121325D02*
X166913D01*
X150136Y218525D02*
X166742D01*
X96000Y128525D02*
X166742D01*
X96000Y281525D02*
X166689D01*
X150121Y191525D02*
X166689D01*
X96000Y101525D02*
X166689D01*
X112445Y238325D02*
X166538D01*
X96000Y148325D02*
X166538D01*
X96000Y261725D02*
X166491D01*
X96000Y171725D02*
X166491D01*
X96000Y258125D02*
X166356D01*
X96000Y168125D02*
X166356D01*
X112384Y241925D02*
X166315D01*
X96000Y151925D02*
X166315D01*
X96000Y277925D02*
X166194D01*
X149924Y187925D02*
X166194D01*
X149903Y222125D02*
X166156D01*
X96000Y132125D02*
X166156D01*
X96000Y297725D02*
X166048D01*
X149835Y207725D02*
X166048D01*
X96000Y117725D02*
X166048D01*
X96000Y292325D02*
X166015D01*
X149811Y202325D02*
X166015D01*
X96000Y112325D02*
X166015D01*
X96000Y227525D02*
X165918D01*
X96000Y137525D02*
X165918D01*
X162240Y272525D02*
X165887D01*
X150343Y182525D02*
X165887D01*
X107140Y247325D02*
X165800D01*
X111669Y157325D02*
X165800D01*
X96000Y252725D02*
X165774D01*
X111649Y162725D02*
X165774D01*
X161767Y267125D02*
X165696D01*
X150343Y177125D02*
X165696D01*
X107859Y232925D02*
X165672D01*
X96000Y142925D02*
X165672D01*
X96000Y286925D02*
X165603D01*
X149370Y196925D02*
X165603D01*
X96000Y106925D02*
X165603D01*
X149334Y213125D02*
X165581D01*
X96000Y123125D02*
X165581D01*
X149222Y216725D02*
X165521D01*
X96000Y126725D02*
X165521D01*
X96000Y283325D02*
X165502D01*
X149183Y193325D02*
X165502D01*
X96000Y103325D02*
X165502D01*
X111794Y236525D02*
X165449D01*
X96000Y146525D02*
X165449D01*
X96000Y263525D02*
X165432D01*
X96000Y173525D02*
X165432D01*
X96000Y256325D02*
X165386D01*
X108410Y166325D02*
X165386D01*
X111660Y243725D02*
X165372D01*
X108500Y153725D02*
X165372D01*
X96000Y276125D02*
X165334D01*
X148922Y186125D02*
X165334D01*
X148626Y223925D02*
X165322D01*
X96000Y133925D02*
X165322D01*
X96000Y295925D02*
X165290D01*
X148456Y205925D02*
X165290D01*
X96000Y115925D02*
X165290D01*
X96000Y294125D02*
X165280D01*
X148397Y204125D02*
X165280D01*
X96000Y114125D02*
X165280D01*
X96000Y225725D02*
X165255D01*
X96000Y135725D02*
X165255D01*
X96000Y274325D02*
X165248D01*
X150165Y184325D02*
X165248D01*
X110264Y245525D02*
X165229D01*
X110621Y155525D02*
X165229D01*
X96000Y254525D02*
X165224D01*
X110582Y164525D02*
X165224D01*
X96000Y265325D02*
X165211D01*
X149943Y175325D02*
X165211D01*
X110514Y234725D02*
X165208D01*
X96000Y144725D02*
X165208D01*
X96000Y285125D02*
X165202D01*
X147911Y195125D02*
X165202D01*
X96000Y105125D02*
X165202D01*
X147906Y214925D02*
X165201D01*
X96000Y124925D02*
X165201D01*
X111684Y322925D02*
X158316D01*
X111767Y267125D02*
X158233D01*
X96000Y87125D02*
X158233D01*
X112240Y272525D02*
X157760D01*
X96000Y92525D02*
X157760D01*
X112294Y317525D02*
X157706D01*
X113182Y321125D02*
X156818D01*
X113199Y268925D02*
X156801D01*
X96000Y88925D02*
X156801D01*
X113296Y270725D02*
X156704D01*
X96000Y90725D02*
X156704D01*
X113307Y319325D02*
X156693D01*
X127906Y214925D02*
X142094D01*
X127911Y195125D02*
X142089D01*
X128397Y204125D02*
X141603D01*
X128456Y205925D02*
X141544D01*
X128626Y223925D02*
X141374D01*
X128922Y186125D02*
X141078D01*
X129183Y193325D02*
X140817D01*
X129222Y216725D02*
X140778D01*
X129334Y213125D02*
X140666D01*
X129370Y196925D02*
X140630D01*
X129811Y202325D02*
X140189D01*
X129835Y207725D02*
X140165D01*
X129903Y222125D02*
X140097D01*
X129924Y187925D02*
X140076D01*
X129943Y175325D02*
X140057D01*
X130121Y191525D02*
X139879D01*
X130136Y218525D02*
X139864D01*
X130165Y184325D02*
X139835D01*
X130177Y211325D02*
X139823D01*
X130189Y198725D02*
X139811D01*
X130318Y200525D02*
X139682D01*
X130322Y209525D02*
X139678D01*
X130333Y220325D02*
X139667D01*
X130336Y189725D02*
X139664D01*
X130343Y182525D02*
X139657D01*
X130343Y180725D02*
X139657D01*
X130343Y178925D02*
X139657D01*
X130343Y177125D02*
X139657D01*
X130446Y85325D02*
X139554D01*
X133879Y76325D02*
X136121D01*
X134016Y83525D02*
X135984D01*
X120446Y85325D02*
X129554D01*
X123879Y76325D02*
X126121D01*
X124016Y83525D02*
X125984D01*
X118626Y223925D02*
X121374D01*
X117587Y175325D02*
X120057D01*
X110446Y85325D02*
X119554D01*
X113879Y76325D02*
X116121D01*
X114016Y83525D02*
X115984D01*
X96000Y175325D02*
X112413D01*
X96000Y214925D02*
X112094D01*
X96000Y195125D02*
X112089D01*
X96000Y184325D02*
X111834D01*
X96000Y204125D02*
X111603D01*
X96000Y205925D02*
X111544D01*
X96000Y223925D02*
X111374D01*
X96000Y186125D02*
X111321D01*
X96000Y193325D02*
X110817D01*
X96000Y216725D02*
X110778D01*
X96000Y213125D02*
X110666D01*
X96000Y196925D02*
X110630D01*
X96000Y177125D02*
X110496D01*
X96000Y182525D02*
X110291D01*
X96000Y202325D02*
X110189D01*
X96000Y207725D02*
X110165D01*
X96000Y222125D02*
X110097D01*
X96000Y187925D02*
X110076D01*
X96000Y191525D02*
X109879D01*
X96000Y218525D02*
X109864D01*
X96000Y211325D02*
X109823D01*
X96000Y198725D02*
X109811D01*
X96000Y178925D02*
X109766D01*
X96000Y180725D02*
X109706D01*
X96000Y200525D02*
X109682D01*
X96000Y209525D02*
X109678D01*
X96000Y220325D02*
X109667D01*
X96000Y189725D02*
X109664D01*
X96000Y85325D02*
X109554D01*
X96000Y322925D02*
X108316D01*
X96000Y267125D02*
X108233D01*
X96000Y272525D02*
X107760D01*
X96000Y317525D02*
X107706D01*
X96000Y321125D02*
X106818D01*
X96000Y268925D02*
X106801D01*
X96000Y270725D02*
X106704D01*
X96000Y319325D02*
X106693D01*
X96000Y76325D02*
X106121D01*
X96000Y83525D02*
X105984D01*
X96000Y78125D02*
X104997D01*
X96000Y81725D02*
X104943D01*
X96000Y79925D02*
X104657D01*
X96000Y247325D02*
X102860D01*
X96000Y232925D02*
X102141D01*
X96000Y166325D02*
X101590D01*
X96000Y153725D02*
X101500D01*
X96000Y245525D02*
X99736D01*
X96000Y234725D02*
X99486D01*
X96000Y164525D02*
X99418D01*
X96000Y155525D02*
X99379D01*
X96000Y162725D02*
X98351D01*
X96000Y243725D02*
X98340D01*
X96000Y157325D02*
X98331D01*
X96000Y236525D02*
X98206D01*
X96409Y160925D02*
X97591D01*
X96483Y159125D02*
X97517D01*
X93583Y69126D02*
X333000D01*
Y343874*
X93583*
Y69126*
X110385Y160000D02*
G03X110385I-5385J0D01*
G01X110831Y240000D02*
G03X110831I-5831J0D01*
G01X328299Y82000D02*
G03X328299I-6299J0D01*
G01Y333000D02*
G03X328299I-6299J0D01*
G54D34*
G01X210000Y90000D03*
X160000D03*
X310000Y130000D03*
Y90000D03*
X260000D03*
X310000Y220000D03*
Y180000D03*
X110000Y270000D03*
X160000D03*
X310000D03*
X110000Y320000D03*
X210000D03*
X160000D03*
X260000D03*
X310000D03*
G54D35*
X125000Y180000D03*
X145000D03*
G54D36*
X125000Y190000D03*
Y200000D03*
Y210000D03*
Y220000D03*
X115000D03*
Y210000D03*
Y200000D03*
Y190000D03*
Y180000D03*
X145000Y190000D03*
Y200000D03*
Y210000D03*
Y220000D03*
X130000Y80000D03*
X120000D03*
X110000D03*
X140000D03*
G54D52*
X162386Y92386D02*
X161114Y91114D01*
X157614Y92386D02*
X158886Y91114D01*
X157614Y87614D02*
X158886Y88886D01*
X162386Y87614D02*
X161114Y88886D01*
X212386Y92386D02*
X211114Y91114D01*
X207614Y92386D02*
X208886Y91114D01*
X207614Y87614D02*
X208886Y88886D01*
X212386Y87614D02*
X211114Y88886D01*
X262386Y92386D02*
X261114Y91114D01*
X257614Y92386D02*
X258886Y91114D01*
X257614Y87614D02*
X258886Y88886D01*
X262386Y87614D02*
X261114Y88886D01*
X312386Y92386D02*
X311114Y91114D01*
X307614Y92386D02*
X308886Y91114D01*
X307614Y87614D02*
X308886Y88886D01*
X312386Y87614D02*
X311114Y88886D01*
X312386Y132386D02*
X311114Y131114D01*
X307614Y132386D02*
X308886Y131114D01*
X307614Y127614D02*
X308886Y128886D01*
X312386Y127614D02*
X311114Y128886D01*
X312386Y182386D02*
X311114Y181114D01*
X307614Y182386D02*
X308886Y181114D01*
X307614Y177614D02*
X308886Y178886D01*
X312386Y177614D02*
X311114Y178886D01*
X312386Y222386D02*
X311114Y221114D01*
X307614Y222386D02*
X308886Y221114D01*
X307614Y217614D02*
X308886Y218886D01*
X312386Y217614D02*
X311114Y218886D01*
X312386Y272386D02*
X311114Y271114D01*
X307614Y272386D02*
X308886Y271114D01*
X307614Y267614D02*
X308886Y268886D01*
X312386Y267614D02*
X311114Y268886D01*
X162386Y272386D02*
X161114Y271114D01*
X157614Y272386D02*
X158886Y271114D01*
X157614Y267614D02*
X158886Y268886D01*
X162386Y267614D02*
X161114Y268886D01*
X112386Y272386D02*
X111114Y271114D01*
X107614Y272386D02*
X108886Y271114D01*
X107614Y267614D02*
X108886Y268886D01*
X112386Y267614D02*
X111114Y268886D01*
X112386Y322386D02*
X111114Y321114D01*
X107614Y322386D02*
X108886Y321114D01*
X107614Y317614D02*
X108886Y318886D01*
X112386Y317614D02*
X111114Y318886D01*
X162386Y322386D02*
X161114Y321114D01*
X157614Y322386D02*
X158886Y321114D01*
X157614Y317614D02*
X158886Y318886D01*
X162386Y317614D02*
X161114Y318886D01*
X212386Y322386D02*
X211114Y321114D01*
X207614Y322386D02*
X208886Y321114D01*
X207614Y317614D02*
X208886Y318886D01*
X212386Y317614D02*
X211114Y318886D01*
X262386Y322386D02*
X261114Y321114D01*
X257614Y322386D02*
X258886Y321114D01*
X257614Y317614D02*
X258886Y318886D01*
X262386Y317614D02*
X261114Y318886D01*
X312386Y322386D02*
X311114Y321114D01*
X307614Y322386D02*
X308886Y321114D01*
X307614Y317614D02*
X308886Y318886D01*
X312386Y317614D02*
X311114Y318886D01*
G54D81*
X110000Y80000D02*
Y115000D01*
X97564Y127436*
Y210564*
X112600Y225600*
X115000*
X125000Y220000D02*
X119400Y225600D01*
X115000*
G74*
X0Y0D02*
M02*
