M48
;FILE_FORMAT=2:4
INCH,LZ
FMAT,2
ICI,OFF
;TYPE=PLATED
T1C.01575
T2C.035
T3C.03937
;TYPE=NON_PLATED
T4C.03937
%
M72
G90
G93X0Y0
T1C.01575F095S3
X016Y009
X016Y027
X011Y027
X011Y032
X016Y032
X021Y032
X026Y032
X026Y009
X021Y009
X031Y009
X031Y013
X031Y018
X031Y022
X031Y027
X031Y032
T2C.035F197S55
X018Y0105
X017Y0105
X018Y0115
X017Y0115
X018Y0125
X017Y0125
X018Y0135
X017Y0135
X018Y0145
X017Y0145
X018Y0155
X017Y0155
X018Y0165
X017Y0165
X017Y0175
X018Y0175
X017Y0185
X018Y0185
X017Y0195
X018Y0195
X017Y0205
X018Y0205
X017Y0215
X018Y0215
X017Y0225
X018Y0225
X017Y0235
X018Y0235
X017Y0245
X018Y0245
X017Y0255
X018Y0255
X017Y0265
X018Y0265
X018Y0275
X017Y0275
X017Y0285
X018Y0285
X018Y0295
X017Y0295
X023Y0295
X023Y0285
X023Y0275
X023Y0265
X023Y0255
X023Y0245
X023Y0235
X023Y0225
X023Y0215
X023Y0205
X023Y0195
X023Y0185
X023Y0175
X023Y0165
X023Y0155
X023Y0145
X023Y0135
X023Y0125
X023Y0115
X023Y0105
X029Y0105
X029Y0115
X029Y0125
X029Y0135
X029Y0145
X029Y0155
X029Y0165
X029Y0175
X029Y0185
X029Y0195
X029Y0205
X029Y0215
X029Y0225
X029Y0235
X029Y0245
X029Y0255
X029Y0265
X029Y0275
X029Y0285
X029Y0295
T3C.03937F197S55
X0125Y018
X0115Y018
X0115Y019
X0125Y019
X0115Y02
X0125Y02
X0115Y021
X0125Y021
X0115Y022
X0125Y022
T4C.03937F197S55
X013Y008
X012Y008
X011Y008
X014Y008
X0145Y018
X0145Y019
X0145Y02
X0145Y021
X0145Y022
M30
