M48
;FILE_FORMAT=2:4
INCH,LZ
FMAT,2
ICI,OFF
;TYPE=PLATED
T1C.01575
T2C.03
T3C.03937
%
M72
G90
G93X0Y0
T1C.01575F095S3
X0032Y00138
X00216Y00408
X00354Y00582
X00371Y00857
X00412Y00885
X00189Y0117
X00656Y01485
X00513Y0146
X00439Y01325
X00562Y013227
X00657Y01321
X00657Y01196
X00456Y01178
X00612Y01061
X00633Y01026
X00513Y00913
X00562Y00889
X005877Y008333
X00683Y008315
X009221Y001698
X007Y00414
X008251Y00491
X009155Y00492
X00858Y00514
X008799Y005803
X00878Y006217
X00923Y00659
X00812Y00659
X00747Y00688
X008886Y007059
X008457Y007067
X0077Y00862
X00691Y00889
X00866Y00917
X00733Y00927
X00823Y00931
X00936Y00937
X00843Y009885
X008975Y01061
X00761Y01068
X00858Y01068
X009185Y011905
X00752Y01262
X00917Y01284
X00843Y01488
X00936Y01542
X0105Y01523
X01028Y01268
X01167Y01264
X01155Y01182
X01042Y01068
X011483Y010557
X00953Y01026
X01118Y01025
X010509Y009709
X01019Y00879
X01114Y00864
X01005Y00786
X01065Y00768
X01065Y007105
X009564Y006814
X011623Y005963
X01084Y00594
X011394Y005634
X01003Y00442
X011034Y00387
X0117Y00256
X010845Y001693
X01275Y00246
X01325Y00256
X01234Y00348
X01372Y00369
X01194Y00384
X01367Y004085
X01222Y00467
X012216Y005634
X013605Y00576
X01303Y00576
X01404Y00576
X01208Y00648
X01286Y0068
X013698Y0068
X012155Y006875
X0134Y007159
X012279Y00737
X01217Y007765
X012265Y00884
X01322Y00997
X012465Y010028
X01209Y01027
X012173Y01125
X013552Y01133
X01411Y011861
X01318Y01199
X012425Y01252
X01347Y01279
X01407Y01331
X01289Y01409
X01311Y01557
X01571Y01476
X015081Y012355
X01479Y012087
X01559Y01205
X015095Y011332
X01567Y01125
X01541Y01011
X01567Y009811
X01574Y00673
X01653Y00615
X01574Y00556
X0167Y00518
X01521Y00437
X01458Y002415
X01465Y00202
X01712Y01062
T2C.03F197S55
X017878Y004596
X017878Y005596
X017878Y006596
X017878Y007596
X017878Y008596
X017878Y009596
T3C.03937F197S55
X008Y013437
X009Y013437
X009Y014437
X008Y014437
X011Y014437
X01Y014437
X012Y014437
X011Y013437
X012Y013437
X01Y013437
M30
